<svg width="84" height="84" viewBox="0 0 84 84" fill="none" xmlns="http://www.w3.org/2000/svg">
<path fill-rule="evenodd" clip-rule="evenodd" d="M62.025 7.41147C62.025 3.3919 58.7627 0.129639 54.7432 0.129639H29.2567C25.2372 0.129639 21.9749 3.3919 21.9749 7.41147V32.8979C21.9749 36.9175 25.2372 40.1797 29.2567 40.1797H54.7432C58.7627 40.1797 62.025 36.9175 62.025 32.8979V7.41147ZM83.8705 51.1025C83.8705 47.0829 80.6082 43.8207 76.5887 43.8207H51.1022C47.0827 43.8207 43.8204 47.0829 43.8204 51.1025V76.5889C43.8204 80.6085 47.0827 83.8708 51.1022 83.8708H76.5887C80.6082 83.8708 83.8705 80.6085 83.8705 76.5889V51.1025ZM67.0058 66.398C66.8456 68.1675 66.4378 69.227 64.6428 69.46C60.798 69.9624 60.6305 66.7147 60.7179 62.7971C60.8381 59.7752 61.7082 57.8528 64.6792 58.2423C66.5033 58.4826 66.8674 59.5895 67.0313 61.399H71.2839L71.3166 61.359C70.836 56.7896 68.1782 54.6997 64.3406 54.5686C59.8186 54.3975 56.2578 57.2229 56.3816 64.5957C56.458 69.4964 58.9921 73.13 63.911 73.13C67.9051 73.1446 70.8105 71.1858 71.2875 66.4271L71.2584 66.398H67.0058ZM50.5488 29.257L50.6435 29.1223L43.8787 11.0524H40.0484L33.3236 29.1223L33.4183 29.257H37.8675L39.069 25.6525H44.8836L46.0996 29.257H50.5488ZM43.6748 22.0298H40.2778L41.9672 16.9361L43.6748 22.0298ZM40.1795 51.1025C40.1795 47.0829 36.9172 43.8207 32.8977 43.8207H7.41123C3.39166 43.8207 0.129395 47.0829 0.129395 51.1025V76.5889C0.129395 80.6085 3.39166 83.8708 7.41123 83.8708H32.8977C36.9172 83.8708 40.1795 80.6085 40.1795 76.5889V51.1025ZM20.4603 72.948C24.1303 72.8679 26.8537 71.4443 26.9994 67.7815C27.0868 65.6261 26.1073 64.1989 24.6583 63.5435C25.9289 62.7316 26.6826 61.4099 26.6025 59.5931C26.4423 56.1015 23.6497 54.889 20.1836 54.758C17.8898 54.7288 15.596 54.7507 13.3022 54.7507V72.948H20.4603ZM17.6094 65.3312V69.3508L20.493 69.3471C21.9676 69.278 22.7905 68.5898 22.6885 67.1517C22.6121 65.921 21.9385 65.4113 20.7006 65.3348L17.6094 65.3312ZM17.6094 58.377V62.0799L20.078 62.0762C21.6145 61.9925 22.4701 61.4318 22.2807 59.8771C22.1788 59.0615 21.8001 58.4389 19.9542 58.377H17.6094Z" fill="#FFBF00"/>
</svg>
