<svg width="85" height="84" viewBox="0 0 85 84" fill="none" xmlns="http://www.w3.org/2000/svg">
<path fill-rule="evenodd" clip-rule="evenodd" d="M62.545 7.41123C62.545 3.39166 59.2828 0.129395 55.2632 0.129395H29.7768C25.7572 0.129395 22.4949 3.39166 22.4949 7.41123V32.8977C22.4949 36.9172 25.7572 40.1795 29.7768 40.1795H55.2632C59.2828 40.1795 62.545 36.9172 62.545 32.8977V7.41123ZM84.3905 51.1022C84.3905 47.0827 81.1283 43.8204 77.1087 43.8204H51.6223C47.6027 43.8204 44.3404 47.0827 44.3404 51.1022V76.5887C44.3404 80.6082 47.6027 83.8705 51.6223 83.8705H77.1087C81.1283 83.8705 84.3905 80.6082 84.3905 76.5887V51.1022ZM67.5258 66.3977C67.3656 68.1672 66.9578 69.2267 65.1628 69.4598C61.318 69.9622 61.1506 66.7145 61.2379 62.7969C61.3581 59.7749 62.2283 57.8525 65.1992 58.2421C67.0234 58.4824 67.3874 59.5892 67.5513 61.3988H71.8039L71.8366 61.3587C71.356 56.7894 68.6982 54.6995 64.8606 54.5684C60.3386 54.3973 56.7778 57.2226 56.9016 64.5955C56.9781 69.4962 59.5121 73.1298 64.431 73.1298C68.4251 73.1444 71.3306 71.1855 71.8075 66.4269L71.7784 66.3977H67.5258ZM51.0688 29.2567L51.1635 29.122L44.3987 11.0521H40.5684L33.8437 29.122L33.9383 29.2567H38.3875L39.589 25.6522H45.4036L46.6196 29.2567H51.0688ZM44.1948 22.0295H40.7978L42.4872 16.9359L44.1948 22.0295ZM40.6995 51.1022C40.6995 47.0827 37.4372 43.8204 33.4177 43.8204H7.93125C3.91168 43.8204 0.649414 47.0827 0.649414 51.1022V76.5887C0.649414 80.6082 3.91168 83.8705 7.93125 83.8705H33.4177C37.4372 83.8705 40.6995 80.6082 40.6995 76.5887V51.1022ZM20.9803 72.9478C24.6503 72.8677 27.3738 71.4441 27.5194 67.7813C27.6068 65.6259 26.6274 64.1986 25.1783 63.5433C26.449 62.7313 27.2026 61.4097 27.1225 59.5929C26.9623 56.1012 24.1697 54.8888 20.7036 54.7577C18.4098 54.7286 16.116 54.7505 13.8223 54.7505V72.9478H20.9803ZM18.1295 65.331V69.3505L21.0131 69.3469C22.4876 69.2777 23.3105 68.5896 23.2085 67.1514C23.1321 65.9208 22.4585 65.4111 21.2206 65.3346L18.1295 65.331ZM18.1295 58.3768V62.0796L20.598 62.076C22.1345 61.9922 22.9901 61.4315 22.8008 59.8769C22.6988 59.0613 22.3202 58.4387 20.4742 58.3768H18.1295Z" fill="#FFD700"/>
</svg>
