<svg width="70" height="84" viewBox="0 0 70 84" fill="none" xmlns="http://www.w3.org/2000/svg">
<path fill-rule="evenodd" clip-rule="evenodd" d="M69.7833 16.0002C69.7833 7.16367 62.6199 0.000244141 53.7833 0.000244141H16C7.16343 0.000244141 0 7.16369 0 16.0002V67.7402C0 76.5768 7.16344 83.7402 16 83.7402H42.2209C46.4644 83.7402 50.534 82.0545 53.5346 79.0539L65.097 67.4915C68.0976 64.491 69.7833 60.4213 69.7833 56.1778V16.0002ZM48.8483 64.8052C48.8483 63.7007 49.7438 62.8052 50.8483 62.8052H59.2521C61.0312 62.8052 61.9248 64.9538 60.6704 66.2154L52.2666 74.6674C51.0083 75.9329 48.8483 75.0418 48.8483 73.2572V64.8052ZM38.3808 68.039C38.3808 67.0755 37.5998 66.2944 36.6362 66.2944H12.2121C11.2486 66.2944 10.4675 67.0755 10.4675 68.039C10.4675 69.0025 11.2486 69.7836 12.2121 69.7836H36.6362C37.5998 69.7836 38.3808 69.0025 38.3808 68.039ZM38.3808 57.5715C38.3808 56.608 37.5998 55.8269 36.6362 55.8269H12.2121C11.2486 55.8269 10.4675 56.608 10.4675 57.5715C10.4675 58.535 11.2486 59.3161 12.2121 59.3161H36.6362C37.5998 59.3161 38.3808 58.535 38.3808 57.5715ZM57.5712 48.8486C58.5348 48.8486 59.3158 48.0675 59.3158 47.104C59.3158 46.1405 58.5348 45.3594 57.5712 45.3594H12.2121C11.2486 45.3594 10.4675 46.1405 10.4675 47.104C10.4675 48.0675 11.2486 48.8486 12.2121 48.8486H57.5712ZM34.6858 31.5144C30.6837 30.5898 26.9608 29.7803 28.7647 26.3749C34.2532 16.012 30.2197 10.4677 24.4242 10.4677C18.5135 10.4677 14.5812 16.2249 20.0836 26.3749C21.9399 29.8012 18.0774 30.6107 14.1625 31.5144C10.5896 32.3413 10.457 34.1138 10.4675 37.2192L10.471 38.3811H38.3739L38.3773 37.2541C38.3913 34.1278 38.2727 32.3448 34.6858 31.5144ZM59.3158 36.6365C59.3158 35.673 58.5348 34.8919 57.5712 34.8919H47.1037C46.1402 34.8919 45.3592 35.673 45.3592 36.6365C45.3592 37.6 46.1402 38.3811 47.1037 38.3811H57.5712C58.5348 38.3811 59.3158 37.6 59.3158 36.6365ZM57.5712 27.9136C58.5348 27.9136 59.3158 27.1325 59.3158 26.169C59.3158 25.2055 58.5348 24.4244 57.5712 24.4244H47.1037C46.1402 24.4244 45.3592 25.2055 45.3592 26.169C45.3592 27.1325 46.1402 27.9136 47.1037 27.9136H57.5712ZM59.3158 15.7015C59.3158 14.738 58.5348 13.9569 57.5712 13.9569H47.1037C46.1402 13.9569 45.3592 14.738 45.3592 15.7015C45.3592 16.665 46.1402 17.4461 47.1037 17.4461H57.5712C58.5348 17.4461 59.3158 16.665 59.3158 15.7015Z" fill="#C30101"/>
</svg>
