<svg width="64" height="65" viewBox="0 0 64 65" fill="none" xmlns="http://www.w3.org/2000/svg">
<rect y="0.446777" width="64" height="64" rx="32" fill="#C30101"/>
<path fill-rule="evenodd" clip-rule="evenodd" d="M25.4036 16.5428C27.1098 16.4642 27.6538 16.4468 32 16.4468C36.3462 16.4468 36.8902 16.4657 38.5949 16.5428C40.2996 16.6199 41.4633 16.8919 42.4815 17.2861C43.5476 17.689 44.5149 18.3188 45.3149 19.1333C46.1295 19.9319 46.7578 20.8977 47.1593 21.9653C47.5549 22.9835 47.8255 24.1471 47.904 25.849C47.9825 27.5581 48 28.1021 48 32.4468C48 36.793 47.9811 37.337 47.904 39.0431C47.8269 40.745 47.5549 41.9086 47.1593 42.9268C46.7578 43.9946 46.1284 44.962 45.3149 45.7617C44.5149 46.5762 43.5476 47.2046 42.4815 47.6061C41.4633 48.0017 40.2996 48.2722 38.5978 48.3508C36.8902 48.4293 36.3462 48.4468 32 48.4468C27.6538 48.4468 27.1098 48.4279 25.4036 48.3508C23.7018 48.2737 22.5382 48.0017 21.52 47.6061C20.4522 47.2045 19.4848 46.5751 18.6851 45.7617C17.8711 44.9627 17.2412 43.9957 16.8393 42.9282C16.4451 41.91 16.1745 40.7464 16.096 39.0446C16.0175 37.3355 16 36.7915 16 32.4468C16 28.1006 16.0189 27.5566 16.096 25.8519C16.1731 24.1471 16.4451 22.9835 16.8393 21.9653C17.2418 20.8978 17.8722 19.9309 18.6865 19.1319C19.4851 18.3181 20.4516 17.6881 21.5185 17.2861C22.5367 16.8919 23.7004 16.6213 25.4022 16.5428H25.4036ZM38.4655 19.4228C36.7782 19.3457 36.272 19.3297 32 19.3297C27.728 19.3297 27.2218 19.3457 25.5345 19.4228C23.9738 19.4941 23.1273 19.7544 22.5629 19.9741C21.8167 20.265 21.2829 20.6097 20.7229 21.1697C20.1921 21.6861 19.7835 22.3148 19.5273 23.0097C19.3076 23.5741 19.0473 24.4206 18.976 25.9813C18.8989 27.6686 18.8829 28.1748 18.8829 32.4468C18.8829 36.7188 18.8989 37.225 18.976 38.9122C19.0473 40.473 19.3076 41.3195 19.5273 41.8839C19.7833 42.5777 20.192 43.2075 20.7229 43.7239C21.2393 44.2548 21.8691 44.6635 22.5629 44.9195C23.1273 45.1391 23.9738 45.3995 25.5345 45.4708C27.2218 45.5479 27.7265 45.5639 32 45.5639C36.2735 45.5639 36.7782 45.5479 38.4655 45.4708C40.0262 45.3995 40.8727 45.1391 41.4371 44.9195C42.1833 44.6286 42.7171 44.2839 43.2771 43.7239C43.808 43.2075 44.2167 42.5777 44.4727 41.8839C44.6924 41.3195 44.9527 40.473 45.024 38.9122C45.1011 37.225 45.1171 36.7188 45.1171 32.4468C45.1171 28.1748 45.1011 27.6686 45.024 25.9813C44.9527 24.4206 44.6924 23.5741 44.4727 23.0097C44.1818 22.2635 43.8371 21.7297 43.2771 21.1697C42.7606 20.6389 42.1319 20.2304 41.4371 19.9741C40.8727 19.7544 40.0262 19.4941 38.4655 19.4228ZM29.9564 37.3791C31.0977 37.8542 32.3686 37.9184 33.5519 37.5606C34.7352 37.2027 35.7577 36.4452 36.4445 35.4173C37.1314 34.3894 37.4401 33.155 37.3179 31.9247C37.1957 30.6945 36.6502 29.5449 35.7745 28.6722C35.2163 28.1144 34.5414 27.6872 33.7983 27.4215C33.0552 27.1558 32.2624 27.0582 31.4771 27.1357C30.6917 27.2131 29.9333 27.4638 29.2564 27.8695C28.5796 28.2753 28.0011 28.826 27.5626 29.4822C27.1242 30.1384 26.8366 30.8836 26.7208 31.6642C26.6049 32.4448 26.6635 33.2414 26.8924 33.9966C27.1214 34.7519 27.5149 35.4469 28.0447 36.0318C28.5745 36.6167 29.2274 37.0769 29.9564 37.3791ZM26.1847 26.6315C26.9484 25.8678 27.855 25.2621 28.8528 24.8488C29.8506 24.4355 30.92 24.2227 32 24.2227C33.08 24.2227 34.1494 24.4355 35.1472 24.8488C36.145 25.2621 37.0516 25.8678 37.8153 26.6315C38.5789 27.3952 39.1847 28.3018 39.598 29.2996C40.0113 30.2974 40.224 31.3668 40.224 32.4468C40.224 33.5268 40.0113 34.5962 39.598 35.594C39.1847 36.5918 38.5789 37.4984 37.8153 38.2621C36.273 39.8044 34.1812 40.6708 32 40.6708C29.8188 40.6708 27.727 39.8044 26.1847 38.2621C24.6424 36.7197 23.776 34.6279 23.776 32.4468C23.776 30.2656 24.6424 28.1738 26.1847 26.6315ZM42.048 25.4475C42.2372 25.269 42.3887 25.0543 42.4935 24.8162C42.5983 24.5781 42.6543 24.3214 42.6581 24.0612C42.6619 23.8011 42.6134 23.5428 42.5156 23.3018C42.4178 23.0607 42.2726 22.8417 42.0887 22.6577C41.9047 22.4738 41.6857 22.3286 41.4446 22.2308C41.2036 22.133 40.9453 22.0846 40.6852 22.0884C40.4251 22.0921 40.1683 22.1481 39.9302 22.2529C39.6921 22.3577 39.4774 22.5092 39.2989 22.6984C38.9517 23.0665 38.7616 23.5553 38.769 24.0612C38.7764 24.5671 38.9806 25.0502 39.3384 25.408C39.6962 25.7658 40.1793 25.97 40.6852 25.9774C41.1911 25.9848 41.68 25.7947 42.048 25.4475Z" fill="white"/>
</svg>
