<svg width="64" height="65" viewBox="0 0 64 65" fill="none" xmlns="http://www.w3.org/2000/svg">
<rect y="0.446777" width="64" height="64" rx="32" fill="#C30101"/>
<path fill-rule="evenodd" clip-rule="evenodd" d="M39.79 35.8213C39.3658 35.6102 37.2861 34.5931 36.8989 34.4514C36.5117 34.3111 36.2298 34.2417 35.9466 34.6639C35.6647 35.0832 34.8548 36.0324 34.6085 36.3129C34.3608 36.5948 34.1145 36.6288 33.6918 36.4191C33.269 36.2066 31.9053 35.7632 30.2896 34.3296C29.0327 33.2132 28.1829 31.8348 27.9366 31.4126C27.6904 30.9919 27.9096 30.7638 28.1217 30.5541C28.3124 30.3657 28.5445 30.0626 28.7565 29.8175C28.9686 29.571 29.0384 29.3953 29.1793 29.1134C29.3217 28.8329 29.2505 28.5878 29.1437 28.3767C29.0384 28.1656 28.1929 26.0931 27.8398 25.2502C27.4968 24.4299 27.148 24.5418 26.8889 24.5277C26.6413 24.5163 26.3594 24.5135 26.0776 24.5135C25.7957 24.5135 25.3373 24.6183 24.9502 25.0405C24.5615 25.4612 23.4697 26.4798 23.4697 28.5524C23.4697 30.6236 24.9843 32.6253 25.1964 32.9072C25.4085 33.1877 28.1786 37.4405 32.422 39.2638C33.4327 39.6973 34.2199 39.9565 34.8334 40.1492C35.8469 40.4708 36.7693 40.4255 37.4982 40.3164C38.3096 40.196 40.0007 39.2978 40.3537 38.3146C40.7053 37.3315 40.7053 36.4886 40.5999 36.3129C40.4946 36.1372 40.2142 36.0324 39.79 35.8213ZM32.0718 46.3089H32.0662C29.5458 46.3093 27.0717 45.635 24.9032 44.3567L24.3907 44.0535L19.064 45.4447L20.4861 40.2767L20.1516 39.7469C18.7425 37.5147 17.9969 34.9313 18.0007 32.2952C18.0036 24.5744 24.3153 18.2929 32.0775 18.2929C35.8355 18.2929 39.3686 19.7521 42.0248 22.3984C43.335 23.6969 44.3734 25.241 45.08 26.9415C45.7867 28.642 46.1475 30.465 46.1416 32.3051C46.1387 40.026 39.827 46.3089 32.0718 46.3089ZM44.0462 20.3882C42.4778 18.817 40.6117 17.5712 38.5559 16.723C36.5002 15.8748 34.2958 15.441 32.0704 15.4468C22.7409 15.4468 15.1452 23.0047 15.1423 32.2938C15.138 35.25 15.9173 38.1551 17.4014 40.7159L15 49.4468L23.9736 47.1036C26.456 48.4496 29.2378 49.1549 32.0647 49.1549H32.0718C41.4014 49.1549 48.9971 41.597 48.9999 32.3066C49.0068 30.0927 48.5725 27.8995 47.7222 25.8537C46.8719 23.8079 45.6225 21.9503 44.0462 20.3882Z" fill="white"/>
</svg>
