<svg width="64" height="65" viewBox="0 0 64 65" fill="none" xmlns="http://www.w3.org/2000/svg">
<rect y="0.446777" width="64" height="64" rx="32" fill="#C30101"/>
<path d="M32 33.9468L31.2545 35.0118C31.7021 35.3251 32.2979 35.3251 32.7455 35.0118L32 33.9468ZM20 21.7468H44V19.1468H20V21.7468ZM44 21.7468C44.932 21.7468 45.7 22.5147 45.7 23.4468H48.3C48.3 21.0788 46.368 19.1468 44 19.1468V21.7468ZM45.7 23.4468V41.4468H48.3V23.4468H45.7ZM45.7 41.4468C45.7 42.3788 44.932 43.1468 44 43.1468V45.7468C46.368 45.7468 48.3 43.8147 48.3 41.4468H45.7ZM44 43.1468H20V45.7468H44V43.1468ZM20 43.1468C19.068 43.1468 18.3 42.3788 18.3 41.4468H15.7C15.7 43.8147 17.632 45.7468 20 45.7468V43.1468ZM18.3 41.4468V23.4468H15.7V41.4468H18.3ZM18.3 23.4468C18.3 22.5147 19.068 21.7468 20 21.7468V19.1468C17.632 19.1468 15.7 21.0788 15.7 23.4468H18.3ZM46.2545 22.3818L31.2545 32.8818L32.7455 35.0118L47.7455 24.5118L46.2545 22.3818ZM32.7455 32.8818L17.7455 22.3818L16.2545 24.5118L31.2545 35.0118L32.7455 32.8818Z" fill="white"/>
</svg>
