<svg width="69" height="69" viewBox="0 0 69 69" fill="none" xmlns="http://www.w3.org/2000/svg">
<rect x="41.7959" y="68.7283" width="15.5418" height="49.9454" rx="4" transform="rotate(-180 41.7959 68.7283)" fill="url(#paint0_linear_263_5012)"/>
<rect x="41.7959" y="16.2224" width="15.5418" height="15.4992" rx="4" transform="rotate(-180 41.7959 16.2224)" fill="black"/>
<path d="M56.5414 17.8793C53.8163 17.8793 52.1999 19.4156 51.7323 20.1837C44.9996 29.0805 38.5775 32.507 33.9988 32.507L33.9988 51.543C50.7304 51.543 64.4564 29.1005 66.5603 26.0949C68.6643 23.0892 67.8628 21.4862 67.8628 20.1837C67.8628 19.1417 66.0594 18.2133 65.1577 17.8793L56.5414 17.8793Z" fill="url(#paint1_linear_263_5012)"/>
<path d="M11.5085 17.8793C14.2336 17.8793 15.85 19.4156 16.3176 20.1837C23.0503 29.0805 30.6998 32.507 34.0511 32.507L34.0511 51.543C17.3194 51.543 3.59351 29.1005 1.48953 26.0949C-0.614447 23.0892 0.187066 21.4861 0.187066 20.1837C0.187066 19.1417 1.99047 18.2133 2.89217 17.8793L11.5085 17.8793Z" fill="url(#paint2_linear_263_5012)"/>
<defs>
<linearGradient id="paint0_linear_263_5012" x1="49.5668" y1="68.7283" x2="73.0752" y2="102.127" gradientUnits="userSpaceOnUse">
<stop stop-color="#FFD700"/>
<stop offset="1" stop-color="#EAA41B"/>
</linearGradient>
<linearGradient id="paint1_linear_263_5012" x1="70.3572" y1="28.9081" x2="20.0961" y2="64.8886" gradientUnits="userSpaceOnUse">
<stop stop-color="#C30101"/>
<stop offset="1" stop-color="#8E0000"/>
</linearGradient>
<linearGradient id="paint2_linear_263_5012" x1="70.3572" y1="28.9081" x2="20.0961" y2="64.8886" gradientUnits="userSpaceOnUse">
<stop stop-color="#C30101"/>
<stop offset="1" stop-color="#8E0000"/>
</linearGradient>
</defs>
</svg>
