<svg width="405" height="404" viewBox="0 0 405 404" fill="none" xmlns="http://www.w3.org/2000/svg">
<path fill-rule="evenodd" clip-rule="evenodd" d="M376.016 387.773C375.334 396.583 368.268 403.788 359.431 403.788H298.244C289.899 403.788 283.077 397.322 281.082 389.22C273.077 356.713 248.321 327.781 225.789 303.886C221.299 299.127 219.079 293.612 219.079 288.617C219.079 279.571 226.058 272.155 237.661 273.921C248.793 275.619 260.765 286.717 265.07 291.291V204.27C265.07 193.727 273.528 185.185 283.466 185.185C293.404 185.185 301.863 193.727 301.863 204.27V247.84C301.863 255.474 309.346 256.466 310.304 248.832C312.288 233.193 333.476 231.108 335.09 252.733C335.477 258.047 341.749 259.123 343.061 252.985C346.054 238.91 366.048 238.776 368.419 260.384C369.024 266.034 375.734 267.177 376.205 260.72C376.675 254.196 378.811 251.623 381.804 251.623C391.893 251.623 403.025 271.297 403.025 294.621C403.025 332.895 380.005 336.295 376.016 387.773ZM210.672 40.8058C256.263 15.6708 320.576 4.21508 387.568 0.873141C396.584 0.423351 404.051 7.68043 404.051 16.708V208.505C404.051 219.113 393.915 226.785 383.706 223.904L333.796 209.819C333.796 207.381 333.796 201.563 333.56 199.142C331.206 175.28 311.784 153.773 283.466 153.235C254.392 154.042 235.273 175.146 233.171 201.698C233.087 205.212 233.121 238.12 233.121 241.752C214.64 241.752 195.756 253.574 189.282 274.29C185.751 285.691 186.693 298.068 191.401 308.998C196.462 320.735 203.088 326.15 211.681 335.701C200.986 337.601 189.904 336.239 179.849 331.648C135.333 311.266 76.7307 301.671 15.9856 298.714C7.34909 298.293 0.476562 291.228 0.476562 282.582V16.708C0.476562 7.68042 7.94379 0.423354 16.9601 0.873128C83.9535 4.21505 148.28 15.6708 193.856 40.8058V205.418C193.856 211.618 200.338 215.685 205.921 212.989C208.826 211.585 210.672 208.644 210.672 205.418V40.8058ZM50.9234 207.4C50.9234 211.361 53.8234 214.717 57.7282 215.383C86.2736 220.256 117.075 229.131 140.644 237.997C145.993 240.009 151.817 236.115 151.817 230.399V230.088C151.817 226.748 149.745 223.755 146.605 222.615C121.735 213.583 90.6571 204.018 60.0641 198.664C55.2564 197.822 50.9234 201.57 50.9234 206.451V207.4ZM50.9234 173.247C50.9234 177.209 53.8234 180.564 57.7282 181.231C86.2735 186.102 117.075 194.966 140.644 203.828C145.993 205.84 151.817 201.945 151.817 196.23V195.936C151.817 192.595 149.745 189.603 146.605 188.462C121.734 179.428 90.6547 169.851 60.0604 164.507C55.2539 163.667 50.9234 167.415 50.9234 172.294V173.247ZM50.9234 139.092C50.9234 143.054 53.8255 146.411 57.7319 147.076C86.2744 151.937 117.072 160.81 140.639 169.684C145.99 171.699 151.817 167.804 151.817 162.087V161.783C151.817 158.443 149.745 155.45 146.605 154.31C121.734 145.276 90.6547 135.699 60.0604 130.354C55.2539 129.515 50.9234 133.262 50.9234 138.141V139.092ZM50.9234 104.939C50.9234 108.902 53.8255 112.258 57.7319 112.923C86.2763 117.784 117.076 126.658 140.644 135.522C145.993 137.535 151.817 133.64 151.817 127.925V127.614C151.817 124.274 149.745 121.281 146.605 120.141C121.735 111.109 90.6571 101.544 60.0641 96.1894C55.2564 95.348 50.9234 99.0957 50.9234 103.976V104.939ZM353.604 103.976C353.604 99.0957 349.271 95.348 344.464 96.1894C313.871 101.544 282.793 111.109 257.923 120.141C254.783 121.281 252.711 124.274 252.711 127.614V127.925C252.711 133.64 258.534 137.535 263.884 135.522C287.451 126.658 318.251 117.784 346.796 112.923C350.702 112.258 353.604 108.902 353.604 104.939V103.976ZM50.9234 69.6515C50.9234 64.7722 55.2539 61.0249 60.0604 61.8645C90.6547 67.2087 121.734 76.7859 146.605 85.8199C149.745 86.9602 151.817 89.9529 151.817 93.293V93.5971C151.817 99.3144 145.99 103.209 140.639 101.195C117.071 92.323 86.2717 83.4589 57.7282 78.5881C53.8234 77.9218 50.9234 74.5662 50.9234 70.605V69.6515ZM353.604 70.605C353.604 74.5662 350.704 77.9218 346.799 78.5881C318.256 83.4589 287.457 92.323 263.889 101.195C258.538 103.209 252.711 99.3144 252.711 93.5971V93.293C252.711 89.9529 254.783 86.9602 257.923 85.8199C282.794 76.7859 313.873 67.2087 344.467 61.8645C349.274 61.0249 353.604 64.7722 353.604 69.6515V70.605Z" fill="#C30101"/>
</svg>
