<svg width="669" height="381" viewBox="0 0 669 381" fill="none" xmlns="http://www.w3.org/2000/svg">
<g opacity="0.1">
<rect x="59.0205" y="380.904" width="58.2207" height="187.504" rx="16.8331" transform="rotate(-180 59.0205 380.904)" fill="#C30101"/>
<rect x="59.0205" y="183.58" width="58.2207" height="58.1869" rx="16.8331" transform="rotate(-180 59.0205 183.58)" fill="#C30101"/>
</g>
<g opacity="0.25">
<rect x="139.686" y="380.904" width="58.2207" height="187.504" rx="16.8331" transform="rotate(-180 139.686 380.904)" fill="#FFD700"/>
<rect x="139.686" y="183.58" width="58.2207" height="58.1869" rx="16.8331" transform="rotate(-180 139.686 183.58)" fill="#FFD700"/>
</g>
<g opacity="0.4">
<rect x="220.35" y="380.904" width="58.2207" height="187.504" rx="16.8331" transform="rotate(-180 220.35 380.904)" fill="black"/>
<rect x="220.35" y="183.58" width="58.2207" height="58.1869" rx="16.8331" transform="rotate(-180 220.35 183.58)" fill="black"/>
</g>
<g opacity="0.55">
<rect x="301.015" y="380.904" width="58.2207" height="187.504" rx="16.8331" transform="rotate(-180 301.015 380.904)" fill="#C30101"/>
<rect x="301.015" y="183.58" width="58.2207" height="58.1869" rx="16.8331" transform="rotate(-180 301.015 183.58)" fill="#C30101"/>
</g>
<g opacity="0.7">
<rect x="381.68" y="380.904" width="58.2207" height="187.504" rx="16.8331" transform="rotate(-180 381.68 380.904)" fill="#FFD700"/>
<rect x="381.68" y="183.58" width="58.2207" height="58.1869" rx="16.8331" transform="rotate(-180 381.68 183.58)" fill="#FFD700"/>
</g>
<g opacity="0.85">
<rect x="462.345" y="380.904" width="58.2207" height="187.504" rx="16.8331" transform="rotate(-180 462.345 380.904)" fill="black"/>
<rect x="462.345" y="183.58" width="58.2207" height="58.1869" rx="16.8331" transform="rotate(-180 462.345 183.58)" fill="black"/>
</g>
<rect x="543.01" y="380.904" width="58.2207" height="187.504" rx="16.8331" transform="rotate(-180 543.01 380.904)" fill="#C30101"/>
<rect x="668.31" y="308.808" width="308.822" height="308.643" rx="154.321" transform="rotate(-180 668.31 308.808)" fill="#FFF0A0" style="mix-blend-mode:hard-light"/>
<rect x="625.594" y="266.117" width="223.39" height="223.26" rx="111.63" transform="rotate(-180 625.594 266.117)" fill="#FFF0A0" style="mix-blend-mode:hard-light"/>
<rect x="584.46" y="225.007" width="141.122" height="141.04" rx="70.52" transform="rotate(-180 584.46 225.007)" fill="#FFF0A0" style="mix-blend-mode:hard-light"/>
<rect x="543.01" y="183.58" width="58.2207" height="58.1869" rx="16.8331" transform="rotate(-180 543.01 183.58)" fill="#FFFF96"/>
</svg>
