<svg width="32" height="32" viewBox="0 0 32 32" fill="none" xmlns="http://www.w3.org/2000/svg">
<rect width="32" height="32" rx="16" fill="white"/>
<path fill-rule="evenodd" clip-rule="evenodd" d="M12.7018 8.048C13.5549 8.00873 13.8269 8 16 8C18.1731 8 18.4451 8.00945 19.2975 8.048C20.1498 8.08655 20.7316 8.22255 21.2407 8.41964C21.7738 8.62109 22.2575 8.936 22.6575 9.34327C23.0647 9.74255 23.3789 10.2255 23.5796 10.7593C23.7775 11.2684 23.9127 11.8502 23.952 12.7011C23.9913 13.5556 24 13.8276 24 16C24 18.1731 23.9905 18.4451 23.952 19.2982C23.9135 20.1491 23.7775 20.7309 23.5796 21.24C23.3789 21.7739 23.0642 22.2576 22.6575 22.6575C22.2575 23.0647 21.7738 23.3789 21.2407 23.5796C20.7316 23.7775 20.1498 23.9127 19.2989 23.952C18.4451 23.9913 18.1731 24 16 24C13.8269 24 13.5549 23.9905 12.7018 23.952C11.8509 23.9135 11.2691 23.7775 10.76 23.5796C10.2261 23.3789 9.74241 23.0642 9.34255 22.6575C8.93555 22.2579 8.62059 21.7745 8.41964 21.2407C8.22255 20.7316 8.08727 20.1498 8.048 19.2989C8.00873 18.4444 8 18.1724 8 16C8 13.8269 8.00945 13.5549 8.048 12.7025C8.08655 11.8502 8.22255 11.2684 8.41964 10.7593C8.62089 10.2255 8.93609 9.74205 9.34327 9.34255C9.74257 8.93564 10.2258 8.62069 10.7593 8.41964C11.2684 8.22255 11.8502 8.08727 12.7011 8.048H12.7018ZM19.2327 9.488C18.3891 9.44945 18.136 9.44145 16 9.44145C13.864 9.44145 13.6109 9.44945 12.7673 9.488C11.9869 9.52364 11.5636 9.65382 11.2815 9.76364C10.9084 9.90909 10.6415 10.0815 10.3615 10.3615C10.096 10.6197 9.89177 10.934 9.76364 11.2815C9.65382 11.5636 9.52364 11.9869 9.488 12.7673C9.44945 13.6109 9.44145 13.864 9.44145 16C9.44145 18.136 9.44945 18.3891 9.488 19.2327C9.52364 20.0131 9.65382 20.4364 9.76364 20.7185C9.89164 21.0655 10.096 21.3804 10.3615 21.6385C10.6196 21.904 10.9345 22.1084 11.2815 22.2364C11.5636 22.3462 11.9869 22.4764 12.7673 22.512C13.6109 22.5505 13.8633 22.5585 16 22.5585C18.1367 22.5585 18.3891 22.5505 19.2327 22.512C20.0131 22.4764 20.4364 22.3462 20.7185 22.2364C21.0916 22.0909 21.3585 21.9185 21.6385 21.6385C21.904 21.3804 22.1084 21.0655 22.2364 20.7185C22.3462 20.4364 22.4764 20.0131 22.512 19.2327C22.5505 18.3891 22.5585 18.136 22.5585 16C22.5585 13.864 22.5505 13.6109 22.512 12.7673C22.4764 11.9869 22.3462 11.5636 22.2364 11.2815C22.0909 10.9084 21.9185 10.6415 21.6385 10.3615C21.3803 10.0961 21.066 9.89179 20.7185 9.76364C20.4364 9.65382 20.0131 9.52364 19.2327 9.488ZM14.9782 18.4662C15.5488 18.7037 16.1843 18.7358 16.7759 18.5569C17.3676 18.378 17.8788 17.9992 18.2223 17.4853C18.5657 16.9713 18.72 16.3541 18.6589 15.739C18.5978 15.1239 18.3251 14.5491 17.8873 14.1127C17.6082 13.8338 17.2707 13.6202 16.8992 13.4874C16.5276 13.3545 16.1312 13.3057 15.7385 13.3444C15.3459 13.3832 14.9667 13.5085 14.6282 13.7114C14.2898 13.9142 14.0005 14.1896 13.7813 14.5177C13.5621 14.8458 13.4183 15.2184 13.3604 15.6087C13.3024 15.999 13.3317 16.3973 13.4462 16.7749C13.5607 17.1525 13.7574 17.5001 14.0223 17.7925C14.2872 18.085 14.6137 18.315 14.9782 18.4662ZM13.0924 13.0924C13.4742 12.7105 13.9275 12.4076 14.4264 12.201C14.9253 11.9943 15.46 11.888 16 11.888C16.54 11.888 17.0747 11.9943 17.5736 12.201C18.0725 12.4076 18.5258 12.7105 18.9076 13.0924C19.2895 13.4742 19.5924 13.9275 19.799 14.4264C20.0057 14.9253 20.112 15.46 20.112 16C20.112 16.54 20.0057 17.0747 19.799 17.5736C19.5924 18.0725 19.2895 18.5258 18.9076 18.9076C18.1365 19.6788 17.0906 20.112 16 20.112C14.9094 20.112 13.8635 19.6788 13.0924 18.9076C12.3212 18.1365 11.888 17.0906 11.888 16C11.888 14.9094 12.3212 13.8635 13.0924 13.0924ZM21.024 12.5004C21.1186 12.4111 21.1944 12.3038 21.2468 12.1847C21.2992 12.0656 21.3271 11.9373 21.329 11.8072C21.3309 11.6772 21.3067 11.548 21.2578 11.4275C21.2089 11.307 21.1363 11.1975 21.0443 11.1055C20.9524 11.0135 20.8429 10.9409 20.7223 10.892C20.6018 10.8431 20.4727 10.8189 20.3426 10.8208C20.2125 10.8227 20.0842 10.8507 19.9651 10.9031C19.8461 10.9554 19.7387 11.0312 19.6495 11.1258C19.4759 11.3098 19.3808 11.5543 19.3845 11.8072C19.3882 12.0602 19.4903 12.3017 19.6692 12.4806C19.8481 12.6595 20.0896 12.7616 20.3426 12.7653C20.5955 12.769 20.84 12.674 21.024 12.5004Z" fill="black"/>
</svg>
