<svg width="53" height="53" viewBox="0 0 53 53" fill="none" xmlns="http://www.w3.org/2000/svg">
<rect x="16.2295" y="16.248" width="15.5418" height="15.4992" rx="4" transform="rotate(-180 16.2295 16.248)" fill="#C30101"/>
<rect x="34.6113" y="16.248" width="15.5418" height="15.4992" rx="4" transform="rotate(-180 34.6113 16.248)" fill="black"/>
<rect x="52.9932" y="16.248" width="15.5418" height="15.4992" rx="4" transform="rotate(-180 52.9932 16.248)" fill="#FFD700"/>
<rect x="16.2295" y="34.5874" width="15.5418" height="15.4992" rx="4" transform="rotate(-180 16.2295 34.5874)" fill="#FFD700"/>
<rect x="34.6113" y="34.5874" width="15.5418" height="15.4992" rx="4" transform="rotate(-180 34.6113 34.5874)" fill="#C30101"/>
<rect x="52.9932" y="34.5874" width="15.5418" height="15.4992" rx="4" transform="rotate(-180 52.9932 34.5874)" fill="black"/>
<rect x="16.2295" y="52.9265" width="15.5418" height="15.4992" rx="4" transform="rotate(-180 16.2295 52.9265)" fill="black"/>
<rect x="34.6113" y="52.9265" width="15.5418" height="15.4992" rx="4" transform="rotate(-180 34.6113 52.9265)" fill="#FFD700"/>
<rect x="52.9932" y="52.9265" width="15.5418" height="15.4992" rx="4" transform="rotate(-180 52.9932 52.9265)" fill="#C30101"/>
</svg>
