<svg width="434" height="529" viewBox="0 0 434 529" fill="none" xmlns="http://www.w3.org/2000/svg">
<g opacity="0.1">
<rect x="0.719727" y="0.48584" width="15.5418" height="49.9454" rx="4" fill="#FFD700"/>
<rect x="0.719727" y="52.9915" width="15.5418" height="15.4992" rx="4" fill="black"/>
<path d="M19.1064 11.9571C19.1064 14.6823 20.6427 16.2987 21.4108 16.7662C30.3076 23.4989 33.7341 29.9211 33.7341 34.4997H52.7701C52.7701 17.7681 30.3277 4.04216 27.322 1.93819C24.3163 -0.16579 22.7133 0.635719 21.4108 0.635719C20.3688 0.635719 19.4404 2.43913 19.1064 3.34083V11.9571Z" fill="#C30101"/>
<path d="M19.1064 56.9901C19.1064 54.2649 20.6427 52.6485 21.4108 52.181C30.3076 45.4482 33.7341 37.7988 33.7341 34.4475H52.7701C52.7701 51.1791 30.3277 64.905 27.322 67.009C24.3163 69.113 22.7133 68.3115 21.4108 68.3115C20.3688 68.3115 19.4404 66.5081 19.1064 65.6064V56.9901Z" fill="#C30101"/>
</g>
<rect x="76.7695" y="0.48584" width="15.5418" height="49.9454" rx="4" fill="#FFD700"/>
<rect x="76.7695" y="52.9915" width="15.5418" height="15.4992" rx="4" fill="#FFD700"/>
<path d="M95.1562 11.9571C95.1562 14.6823 96.6925 16.2987 97.4606 16.7662C106.357 23.4989 109.784 29.9211 109.784 34.4997H128.82C128.82 17.7681 106.377 4.04216 103.372 1.93819C100.366 -0.16579 98.7631 0.635719 97.4606 0.635719C96.4186 0.635719 95.4902 2.43913 95.1562 3.34083V11.9571Z" fill="#FFD700"/>
<path d="M95.1562 56.9901C95.1562 54.2649 96.6925 52.6485 97.4606 52.181C106.357 45.4482 109.784 37.7988 109.784 34.4475H128.82C128.82 51.1791 106.377 64.905 103.372 67.009C100.366 69.113 98.7631 68.3115 97.4606 68.3115C96.4186 68.3115 95.4902 66.5081 95.1562 65.6064V56.9901Z" fill="#FFD700"/>
<rect x="152.819" y="0.48584" width="15.5418" height="49.9454" rx="4" fill="#FFD700"/>
<rect x="152.819" y="52.9915" width="15.5418" height="15.4992" rx="4" fill="#FFD700"/>
<path d="M171.206 11.9571C171.206 14.6823 172.742 16.2987 173.51 16.7662C182.407 23.4989 185.834 29.9211 185.834 34.4997H204.87C204.87 17.7681 182.427 4.04216 179.422 1.93819C176.416 -0.16579 174.813 0.635719 173.51 0.635719C172.468 0.635719 171.54 2.43913 171.206 3.34083V11.9571Z" fill="#FFD700"/>
<path d="M171.206 56.9901C171.206 54.2649 172.742 52.6485 173.51 52.181C182.407 45.4482 185.834 37.7988 185.834 34.4475H204.87C204.87 51.1791 182.427 64.905 179.422 67.009C176.416 69.113 174.813 68.3115 173.51 68.3115C172.468 68.3115 171.54 66.5081 171.206 65.6064V56.9901Z" fill="#FFD700"/>
<rect x="228.87" y="0.48584" width="15.5418" height="49.9454" rx="4" fill="#C30101"/>
<rect x="228.87" y="52.9915" width="15.5418" height="15.4992" rx="4" fill="#C30101"/>
<path d="M247.257 11.9571C247.257 14.6823 248.793 16.2987 249.561 16.7662C258.458 23.4989 261.884 29.9211 261.884 34.4997H280.92C280.92 17.7681 258.478 4.04216 255.472 1.93819C252.467 -0.16579 250.864 0.635719 249.561 0.635719C248.519 0.635719 247.591 2.43913 247.257 3.34083V11.9571Z" fill="#C30101"/>
<path d="M247.257 56.9901C247.257 54.2649 248.793 52.6485 249.561 52.181C258.458 45.4482 261.884 37.7988 261.884 34.4475H280.92C280.92 51.1791 258.478 64.905 255.472 67.009C252.467 69.113 250.864 68.3115 249.561 68.3115C248.519 68.3115 247.591 66.5081 247.257 65.6064V56.9901Z" fill="#C30101"/>
<rect x="304.92" y="0.48584" width="15.5418" height="49.9454" rx="4" fill="#C30101"/>
<rect x="304.92" y="52.9915" width="15.5418" height="15.4992" rx="4" fill="#C30101"/>
<path d="M323.307 11.9571C323.307 14.6823 324.843 16.2987 325.611 16.7662C334.508 23.4989 337.934 29.9211 337.934 34.4997H356.97C356.97 17.7681 334.528 4.04216 331.522 1.93819C328.516 -0.16579 326.913 0.635719 325.611 0.635719C324.569 0.635719 323.641 2.43913 323.307 3.34083V11.9571Z" fill="#C30101"/>
<path d="M323.307 56.9901C323.307 54.2649 324.843 52.6485 325.611 52.181C334.508 45.4482 337.934 37.7988 337.934 34.4475H356.97C356.97 51.1791 334.528 64.905 331.522 67.009C328.516 69.113 326.913 68.3115 325.611 68.3115C324.569 68.3115 323.641 66.5081 323.307 65.6064V56.9901Z" fill="#C30101"/>
<g opacity="0.1">
<rect x="380.97" y="0.48584" width="15.5418" height="49.9454" rx="4" fill="#FFD700"/>
<rect x="380.97" y="52.9915" width="15.5418" height="15.4992" rx="4" fill="black"/>
<path d="M399.356 11.9571C399.356 14.6823 400.893 16.2987 401.661 16.7662C410.558 23.4989 413.984 29.9211 413.984 34.4997H433.02C433.02 17.7681 410.578 4.04216 407.572 1.93819C404.566 -0.16579 402.963 0.635719 401.661 0.635719C400.619 0.635719 399.69 2.43913 399.356 3.34083V11.9571Z" fill="#C30101"/>
<path d="M399.356 56.9901C399.356 54.2649 400.893 52.6485 401.661 52.181C410.558 45.4482 413.984 37.7988 413.984 34.4475H433.02C433.02 51.1791 410.578 64.905 407.572 67.009C404.566 69.113 402.963 68.3115 401.661 68.3115C400.619 68.3115 399.69 66.5081 399.356 65.6064V56.9901Z" fill="#C30101"/>
</g>
<g opacity="0.1">
<rect x="0.719727" y="92.4905" width="15.5418" height="49.9454" rx="4" fill="#FFD700"/>
<rect x="0.719727" y="144.996" width="15.5418" height="15.4992" rx="4" fill="black"/>
<path d="M19.1064 103.962C19.1064 106.687 20.6427 108.303 21.4108 108.771C30.3076 115.504 33.7341 121.926 33.7341 126.504H52.7701C52.7701 109.773 30.3277 96.0468 27.322 93.9428C24.3163 91.8388 22.7133 92.6404 21.4108 92.6404C20.3688 92.6404 19.4404 94.4438 19.1064 95.3455V103.962Z" fill="#C30101"/>
<path d="M19.1064 148.995C19.1064 146.27 20.6427 144.653 21.4108 144.186C30.3076 137.453 33.7341 129.803 33.7341 126.452H52.7701C52.7701 143.184 30.3277 156.91 27.322 159.014C24.3163 161.118 22.7133 160.316 21.4108 160.316C20.3688 160.316 19.4404 158.513 19.1064 157.611V148.995Z" fill="#C30101"/>
</g>
<rect x="76.7695" y="92.4905" width="15.5418" height="49.9454" rx="4" fill="#FFD700"/>
<rect x="76.7695" y="144.996" width="15.5418" height="15.4992" rx="4" fill="#FFD700"/>
<path d="M95.1562 103.962C95.1562 106.687 96.6925 108.303 97.4606 108.771C106.357 115.504 109.784 121.926 109.784 126.504H128.82C128.82 109.773 106.377 96.0468 103.372 93.9428C100.366 91.8388 98.7631 92.6404 97.4606 92.6404C96.4186 92.6404 95.4902 94.4438 95.1562 95.3455V103.962Z" fill="#FFD700"/>
<path d="M95.1562 148.995C95.1562 146.27 96.6925 144.653 97.4606 144.186C106.357 137.453 109.784 129.803 109.784 126.452H128.82C128.82 143.184 106.377 156.91 103.372 159.014C100.366 161.118 98.7631 160.316 97.4606 160.316C96.4186 160.316 95.4902 158.513 95.1562 157.611V148.995Z" fill="#FFD700"/>
<rect x="152.819" y="92.4905" width="15.5418" height="49.9454" rx="4" fill="#FFD700"/>
<rect x="152.819" y="144.996" width="15.5418" height="15.4992" rx="4" fill="#FFD700"/>
<path d="M171.206 103.962C171.206 106.687 172.742 108.303 173.51 108.771C182.407 115.504 185.834 121.926 185.834 126.504H204.87C204.87 109.773 182.427 96.0468 179.422 93.9428C176.416 91.8388 174.813 92.6404 173.51 92.6404C172.468 92.6404 171.54 94.4438 171.206 95.3455V103.962Z" fill="#FFD700"/>
<path d="M171.206 148.995C171.206 146.27 172.742 144.653 173.51 144.186C182.407 137.453 185.834 129.803 185.834 126.452H204.87C204.87 143.184 182.427 156.91 179.422 159.014C176.416 161.118 174.813 160.316 173.51 160.316C172.468 160.316 171.54 158.513 171.206 157.611V148.995Z" fill="#FFD700"/>
<rect x="228.87" y="92.4905" width="15.5418" height="49.9454" rx="4" fill="#C30101"/>
<rect x="228.87" y="144.996" width="15.5418" height="15.4992" rx="4" fill="#C30101"/>
<path d="M247.257 103.962C247.257 106.687 248.793 108.303 249.561 108.771C258.458 115.504 261.884 121.926 261.884 126.504H280.92C280.92 109.773 258.478 96.0468 255.472 93.9428C252.467 91.8388 250.864 92.6404 249.561 92.6404C248.519 92.6404 247.591 94.4438 247.257 95.3455V103.962Z" fill="#C30101"/>
<path d="M247.257 148.995C247.257 146.27 248.793 144.653 249.561 144.186C258.458 137.453 261.884 129.803 261.884 126.452H280.92C280.92 143.184 258.478 156.91 255.472 159.014C252.467 161.118 250.864 160.316 249.561 160.316C248.519 160.316 247.591 158.513 247.257 157.611V148.995Z" fill="#C30101"/>
<rect x="304.92" y="92.4905" width="15.5418" height="49.9454" rx="4" fill="#C30101"/>
<rect x="304.92" y="144.996" width="15.5418" height="15.4992" rx="4" fill="#C30101"/>
<path d="M323.307 103.962C323.307 106.687 324.843 108.303 325.611 108.771C334.508 115.504 337.934 121.926 337.934 126.504H356.97C356.97 109.773 334.528 96.0468 331.522 93.9428C328.516 91.8388 326.913 92.6404 325.611 92.6404C324.569 92.6404 323.641 94.4438 323.307 95.3455V103.962Z" fill="#C30101"/>
<path d="M323.307 148.995C323.307 146.27 324.843 144.653 325.611 144.186C334.508 137.453 337.934 129.803 337.934 126.452H356.97C356.97 143.184 334.528 156.91 331.522 159.014C328.516 161.118 326.913 160.316 325.611 160.316C324.569 160.316 323.641 158.513 323.307 157.611V148.995Z" fill="#C30101"/>
<rect x="380.97" y="92.4905" width="15.5418" height="49.9454" rx="4" fill="#C30101"/>
<rect x="380.97" y="144.996" width="15.5418" height="15.4992" rx="4" fill="#C30101"/>
<path d="M399.356 103.962C399.356 106.687 400.893 108.303 401.661 108.771C410.558 115.504 413.984 121.926 413.984 126.504H433.02C433.02 109.773 410.578 96.0468 407.572 93.9428C404.566 91.8388 402.963 92.6404 401.661 92.6404C400.619 92.6404 399.69 94.4438 399.356 95.3455V103.962Z" fill="#C30101"/>
<path d="M399.356 148.995C399.356 146.27 400.893 144.653 401.661 144.186C410.558 137.453 413.984 129.803 413.984 126.452H433.02C433.02 143.184 410.578 156.91 407.572 159.014C404.566 161.118 402.963 160.316 401.661 160.316C400.619 160.316 399.69 158.513 399.356 157.611V148.995Z" fill="#C30101"/>
<g opacity="0.1">
<rect x="0.719727" y="184.495" width="15.5418" height="49.9454" rx="4" fill="#FFD700"/>
<rect x="0.719727" y="237.001" width="15.5418" height="15.4992" rx="4" fill="black"/>
<path d="M19.1064 195.967C19.1064 198.692 20.6427 200.308 21.4108 200.776C30.3076 207.508 33.7341 213.931 33.7341 218.509H52.7701C52.7701 201.778 30.3277 188.052 27.322 185.948C24.3163 183.844 22.7133 184.645 21.4108 184.645C20.3688 184.645 19.4404 186.449 19.1064 187.35V195.967Z" fill="#C30101"/>
<path d="M19.1064 241C19.1064 238.274 20.6427 236.658 21.4108 236.19C30.3076 229.458 33.7341 221.808 33.7341 218.457H52.7701C52.7701 235.189 30.3277 248.915 27.322 251.019C24.3163 253.122 22.7133 252.321 21.4108 252.321C20.3688 252.321 19.4404 250.518 19.1064 249.616V241Z" fill="#C30101"/>
</g>
<rect x="76.7695" y="184.495" width="15.5418" height="49.9454" rx="4" fill="#FFD700"/>
<rect x="76.7695" y="237.001" width="15.5418" height="15.4992" rx="4" fill="#FFD700"/>
<path d="M95.1562 195.967C95.1562 198.692 96.6925 200.308 97.4606 200.776C106.357 207.508 109.784 213.931 109.784 218.509H128.82C128.82 201.778 106.377 188.052 103.372 185.948C100.366 183.844 98.7631 184.645 97.4606 184.645C96.4186 184.645 95.4902 186.449 95.1562 187.35V195.967Z" fill="#FFD700"/>
<path d="M95.1562 241C95.1562 238.274 96.6925 236.658 97.4606 236.19C106.357 229.458 109.784 221.808 109.784 218.457H128.82C128.82 235.189 106.377 248.915 103.372 251.019C100.366 253.122 98.7631 252.321 97.4606 252.321C96.4186 252.321 95.4902 250.518 95.1562 249.616V241Z" fill="#FFD700"/>
<rect x="152.819" y="184.495" width="15.5418" height="49.9454" rx="4" fill="#FFD700"/>
<rect x="152.819" y="237.001" width="15.5418" height="15.4992" rx="4" fill="#FFD700"/>
<path d="M171.206 195.967C171.206 198.692 172.742 200.308 173.51 200.776C182.407 207.508 185.834 213.931 185.834 218.509H204.87C204.87 201.778 182.427 188.052 179.422 185.948C176.416 183.844 174.813 184.645 173.51 184.645C172.468 184.645 171.54 186.449 171.206 187.35V195.967Z" fill="#FFD700"/>
<path d="M171.206 241C171.206 238.274 172.742 236.658 173.51 236.19C182.407 229.458 185.834 221.808 185.834 218.457H204.87C204.87 235.189 182.427 248.915 179.422 251.019C176.416 253.122 174.813 252.321 173.51 252.321C172.468 252.321 171.54 250.518 171.206 249.616V241Z" fill="#FFD700"/>
<g opacity="0.1">
<rect x="228.87" y="184.495" width="15.5418" height="49.9454" rx="4" fill="#FFD700"/>
<rect x="228.87" y="237.001" width="15.5418" height="15.4992" rx="4" fill="black"/>
<path d="M247.257 195.967C247.257 198.692 248.793 200.308 249.561 200.776C258.458 207.508 261.884 213.931 261.884 218.509H280.92C280.92 201.778 258.478 188.052 255.472 185.948C252.467 183.844 250.864 184.645 249.561 184.645C248.519 184.645 247.591 186.449 247.257 187.35V195.967Z" fill="#C30101"/>
<path d="M247.257 241C247.257 238.274 248.793 236.658 249.561 236.19C258.458 229.458 261.884 221.808 261.884 218.457H280.92C280.92 235.189 258.478 248.915 255.472 251.019C252.467 253.122 250.864 252.321 249.561 252.321C248.519 252.321 247.591 250.518 247.257 249.616V241Z" fill="#C30101"/>
</g>
<rect x="304.92" y="184.495" width="15.5418" height="49.9454" rx="4" fill="#C30101"/>
<rect x="304.92" y="237.001" width="15.5418" height="15.4992" rx="4" fill="#C30101"/>
<path d="M323.307 195.967C323.307 198.692 324.843 200.308 325.611 200.776C334.508 207.508 337.934 213.931 337.934 218.509H356.97C356.97 201.778 334.528 188.052 331.522 185.948C328.516 183.844 326.913 184.645 325.611 184.645C324.569 184.645 323.641 186.449 323.307 187.35V195.967Z" fill="#C30101"/>
<path d="M323.307 241C323.307 238.274 324.843 236.658 325.611 236.19C334.508 229.458 337.934 221.808 337.934 218.457H356.97C356.97 235.189 334.528 248.915 331.522 251.019C328.516 253.122 326.913 252.321 325.611 252.321C324.569 252.321 323.641 250.518 323.307 249.616V241Z" fill="#C30101"/>
<rect x="380.97" y="184.495" width="15.5418" height="49.9454" rx="4" fill="#C30101"/>
<rect x="380.97" y="237.001" width="15.5418" height="15.4992" rx="4" fill="#C30101"/>
<path d="M399.356 195.967C399.356 198.692 400.893 200.308 401.661 200.776C410.558 207.508 413.984 213.931 413.984 218.509H433.02C433.02 201.778 410.578 188.052 407.572 185.948C404.566 183.844 402.963 184.645 401.661 184.645C400.619 184.645 399.69 186.449 399.356 187.35V195.967Z" fill="#C30101"/>
<path d="M399.356 241C399.356 238.274 400.893 236.658 401.661 236.19C410.558 229.458 413.984 221.808 413.984 218.457H433.02C433.02 235.189 410.578 248.915 407.572 251.019C404.566 253.122 402.963 252.321 401.661 252.321C400.619 252.321 399.69 250.518 399.356 249.616V241Z" fill="#C30101"/>
<g opacity="0.1">
<rect x="0.719727" y="276.5" width="15.5418" height="49.9454" rx="4" fill="#FFD700"/>
<rect x="0.719727" y="329.006" width="15.5418" height="15.4992" rx="4" fill="black"/>
<path d="M19.1064 287.971C19.1064 290.696 20.6427 292.313 21.4108 292.78C30.3076 299.513 33.7341 305.935 33.7341 310.514H52.7701C52.7701 293.782 30.3277 280.056 27.322 277.952C24.3163 275.848 22.7133 276.65 21.4108 276.65C20.3688 276.65 19.4404 278.453 19.1064 279.355V287.971Z" fill="#C30101"/>
<path d="M19.1064 333.004C19.1064 330.279 20.6427 328.663 21.4108 328.195C30.3076 321.462 33.7341 313.813 33.7341 310.462H52.7701C52.7701 327.193 30.3277 340.919 27.322 343.023C24.3163 345.127 22.7133 344.326 21.4108 344.326C20.3688 344.326 19.4404 342.522 19.1064 341.621V333.004Z" fill="#C30101"/>
</g>
<rect x="76.7695" y="276.5" width="15.5418" height="49.9454" rx="4" fill="#FFD700"/>
<rect x="76.7695" y="329.006" width="15.5418" height="15.4992" rx="4" fill="#FFD700"/>
<path d="M95.1562 287.971C95.1562 290.696 96.6925 292.313 97.4606 292.78C106.357 299.513 109.784 305.935 109.784 310.514H128.82C128.82 293.782 106.377 280.056 103.372 277.952C100.366 275.848 98.7631 276.65 97.4606 276.65C96.4186 276.65 95.4902 278.453 95.1562 279.355V287.971Z" fill="#FFD700"/>
<path d="M95.1562 333.004C95.1562 330.279 96.6925 328.663 97.4606 328.195C106.357 321.462 109.784 313.813 109.784 310.462H128.82C128.82 327.193 106.377 340.919 103.372 343.023C100.366 345.127 98.7631 344.326 97.4606 344.326C96.4186 344.326 95.4902 342.522 95.1562 341.621V333.004Z" fill="#FFD700"/>
<rect x="152.819" y="276.5" width="15.5418" height="49.9454" rx="4" fill="#FFD700"/>
<rect x="152.819" y="329.006" width="15.5418" height="15.4992" rx="4" fill="#FFD700"/>
<path d="M171.206 287.971C171.206 290.696 172.742 292.313 173.51 292.78C182.407 299.513 185.834 305.935 185.834 310.514H204.87C204.87 293.782 182.427 280.056 179.422 277.952C176.416 275.848 174.813 276.65 173.51 276.65C172.468 276.65 171.54 278.453 171.206 279.355V287.971Z" fill="#FFD700"/>
<path d="M171.206 333.004C171.206 330.279 172.742 328.663 173.51 328.195C182.407 321.462 185.834 313.813 185.834 310.462H204.87C204.87 327.193 182.427 340.919 179.422 343.023C176.416 345.127 174.813 344.326 173.51 344.326C172.468 344.326 171.54 342.522 171.206 341.621V333.004Z" fill="#FFD700"/>
<g opacity="0.1">
<rect x="228.87" y="276.5" width="15.5418" height="49.9454" rx="4" fill="#FFD700"/>
<rect x="228.87" y="329.006" width="15.5418" height="15.4992" rx="4" fill="black"/>
<path d="M247.257 287.971C247.257 290.696 248.793 292.313 249.561 292.78C258.458 299.513 261.884 305.935 261.884 310.514H280.92C280.92 293.782 258.478 280.056 255.472 277.952C252.467 275.848 250.864 276.65 249.561 276.65C248.519 276.65 247.591 278.453 247.257 279.355V287.971Z" fill="#C30101"/>
<path d="M247.257 333.004C247.257 330.279 248.793 328.663 249.561 328.195C258.458 321.462 261.884 313.813 261.884 310.462H280.92C280.92 327.193 258.478 340.919 255.472 343.023C252.467 345.127 250.864 344.326 249.561 344.326C248.519 344.326 247.591 342.522 247.257 341.621V333.004Z" fill="#C30101"/>
</g>
<rect x="304.92" y="276.5" width="15.5418" height="49.9454" rx="4" fill="#C30101"/>
<rect x="304.92" y="329.006" width="15.5418" height="15.4992" rx="4" fill="#C30101"/>
<path d="M323.307 287.971C323.307 290.696 324.843 292.313 325.611 292.78C334.508 299.513 337.934 305.935 337.934 310.514H356.97C356.97 293.782 334.528 280.056 331.522 277.952C328.516 275.848 326.913 276.65 325.611 276.65C324.569 276.65 323.641 278.453 323.307 279.355V287.971Z" fill="#C30101"/>
<path d="M323.307 333.004C323.307 330.279 324.843 328.663 325.611 328.195C334.508 321.462 337.934 313.813 337.934 310.462H356.97C356.97 327.193 334.528 340.919 331.522 343.023C328.516 345.127 326.913 344.326 325.611 344.326C324.569 344.326 323.641 342.522 323.307 341.621V333.004Z" fill="#C30101"/>
<rect x="380.97" y="276.5" width="15.5418" height="49.9454" rx="4" fill="#C30101"/>
<rect x="380.97" y="329.006" width="15.5418" height="15.4992" rx="4" fill="#C30101"/>
<path d="M399.356 287.971C399.356 290.696 400.893 292.313 401.661 292.78C410.558 299.513 413.984 305.935 413.984 310.514H433.02C433.02 293.782 410.578 280.056 407.572 277.952C404.566 275.848 402.963 276.65 401.661 276.65C400.619 276.65 399.69 278.453 399.356 279.355V287.971Z" fill="#C30101"/>
<path d="M399.356 333.004C399.356 330.279 400.893 328.663 401.661 328.195C410.558 321.462 413.984 313.813 413.984 310.462H433.02C433.02 327.193 410.578 340.919 407.572 343.023C404.566 345.127 402.963 344.326 401.661 344.326C400.619 344.326 399.69 342.522 399.356 341.621V333.004Z" fill="#C30101"/>
<g opacity="0.1">
<rect x="0.719727" y="368.505" width="15.5418" height="49.9454" rx="4" fill="#FFD700"/>
<rect x="0.719727" y="421.01" width="15.5418" height="15.4992" rx="4" fill="black"/>
<path d="M19.1064 379.976C19.1064 382.701 20.6427 384.318 21.4108 384.785C30.3076 391.518 33.7341 397.94 33.7341 402.519H52.7701C52.7701 385.787 30.3277 372.061 27.322 369.957C24.3163 367.853 22.7133 368.655 21.4108 368.655C20.3688 368.655 19.4404 370.458 19.1064 371.36V379.976Z" fill="#C30101"/>
<path d="M19.1064 425.009C19.1064 422.284 20.6427 420.668 21.4108 420.2C30.3076 413.467 33.7341 405.818 33.7341 402.466H52.7701C52.7701 419.198 30.3277 432.924 27.322 435.028C24.3163 437.132 22.7133 436.331 21.4108 436.331C20.3688 436.331 19.4404 434.527 19.1064 433.625V425.009Z" fill="#C30101"/>
</g>
<rect x="76.7695" y="368.505" width="15.5418" height="49.9454" rx="4" fill="black"/>
<rect x="76.7695" y="421.01" width="15.5418" height="15.4992" rx="4" fill="black"/>
<path d="M95.1562 379.976C95.1562 382.701 96.6925 384.318 97.4606 384.785C106.357 391.518 109.784 397.94 109.784 402.519H128.82C128.82 385.787 106.377 372.061 103.372 369.957C100.366 367.853 98.7631 368.655 97.4606 368.655C96.4186 368.655 95.4902 370.458 95.1562 371.36V379.976Z" fill="black"/>
<path d="M95.1562 425.009C95.1562 422.284 96.6925 420.668 97.4606 420.2C106.357 413.467 109.784 405.818 109.784 402.466H128.82C128.82 419.198 106.377 432.924 103.372 435.028C100.366 437.132 98.7631 436.331 97.4606 436.331C96.4186 436.331 95.4902 434.527 95.1562 433.625V425.009Z" fill="black"/>
<rect x="152.819" y="368.505" width="15.5418" height="49.9454" rx="4" fill="black"/>
<rect x="152.819" y="421.01" width="15.5418" height="15.4992" rx="4" fill="black"/>
<path d="M171.206 379.976C171.206 382.701 172.742 384.318 173.51 384.785C182.407 391.518 185.834 397.94 185.834 402.519H204.87C204.87 385.787 182.427 372.061 179.422 369.957C176.416 367.853 174.813 368.655 173.51 368.655C172.468 368.655 171.54 370.458 171.206 371.36V379.976Z" fill="black"/>
<path d="M171.206 425.009C171.206 422.284 172.742 420.668 173.51 420.2C182.407 413.467 185.834 405.818 185.834 402.466H204.87C204.87 419.198 182.427 432.924 179.422 435.028C176.416 437.132 174.813 436.331 173.51 436.331C172.468 436.331 171.54 434.527 171.206 433.625V425.009Z" fill="black"/>
<rect x="228.87" y="368.505" width="15.5418" height="49.9454" rx="4" fill="#C30101"/>
<rect x="228.87" y="421.01" width="15.5418" height="15.4992" rx="4" fill="#C30101"/>
<path d="M247.257 379.976C247.257 382.701 248.793 384.318 249.561 384.785C258.458 391.518 261.884 397.94 261.884 402.519H280.92C280.92 385.787 258.478 372.061 255.472 369.957C252.467 367.853 250.864 368.655 249.561 368.655C248.519 368.655 247.591 370.458 247.257 371.36V379.976Z" fill="#C30101"/>
<path d="M247.257 425.009C247.257 422.284 248.793 420.668 249.561 420.2C258.458 413.467 261.884 405.818 261.884 402.466H280.92C280.92 419.198 258.478 432.924 255.472 435.028C252.467 437.132 250.864 436.331 249.561 436.331C248.519 436.331 247.591 434.527 247.257 433.625V425.009Z" fill="#C30101"/>
<rect x="304.92" y="368.505" width="15.5418" height="49.9454" rx="4" fill="#C30101"/>
<rect x="304.92" y="421.01" width="15.5418" height="15.4992" rx="4" fill="#C30101"/>
<path d="M323.307 379.976C323.307 382.701 324.843 384.318 325.611 384.785C334.508 391.518 337.934 397.94 337.934 402.519H356.97C356.97 385.787 334.528 372.061 331.522 369.957C328.516 367.853 326.913 368.655 325.611 368.655C324.569 368.655 323.641 370.458 323.307 371.36V379.976Z" fill="#C30101"/>
<path d="M323.307 425.009C323.307 422.284 324.843 420.668 325.611 420.2C334.508 413.467 337.934 405.818 337.934 402.466H356.97C356.97 419.198 334.528 432.924 331.522 435.028C328.516 437.132 326.913 436.331 325.611 436.331C324.569 436.331 323.641 434.527 323.307 433.625V425.009Z" fill="#C30101"/>
<rect x="380.97" y="368.505" width="15.5418" height="49.9454" rx="4" fill="#C30101"/>
<rect x="380.97" y="421.01" width="15.5418" height="15.4992" rx="4" fill="#C30101"/>
<path d="M399.356 379.976C399.356 382.701 400.893 384.318 401.661 384.785C410.558 391.518 413.984 397.94 413.984 402.519H433.02C433.02 385.787 410.578 372.061 407.572 369.957C404.566 367.853 402.963 368.655 401.661 368.655C400.619 368.655 399.69 370.458 399.356 371.36V379.976Z" fill="#C30101"/>
<path d="M399.356 425.009C399.356 422.284 400.893 420.668 401.661 420.2C410.558 413.467 413.984 405.818 413.984 402.466H433.02C433.02 419.198 410.578 432.924 407.572 435.028C404.566 437.132 402.963 436.331 401.661 436.331C400.619 436.331 399.69 434.527 399.356 433.625V425.009Z" fill="#C30101"/>
<g opacity="0.1">
<rect x="0.719727" y="460.51" width="15.5418" height="49.9454" rx="4" fill="#FFD700"/>
<rect x="0.719727" y="513.015" width="15.5418" height="15.4992" rx="4" fill="black"/>
<path d="M19.1064 471.981C19.1064 474.706 20.6427 476.322 21.4108 476.79C30.3076 483.523 33.7341 489.945 33.7341 494.523H52.7701C52.7701 477.792 30.3277 464.066 27.322 461.962C24.3163 459.858 22.7133 460.659 21.4108 460.659C20.3688 460.659 19.4404 462.463 19.1064 463.365V471.981Z" fill="#C30101"/>
<path d="M19.1064 517.014C19.1064 514.289 20.6427 512.672 21.4108 512.205C30.3076 505.472 33.7341 497.822 33.7341 494.471H52.7701C52.7701 511.203 30.3277 524.929 27.322 527.033C24.3163 529.137 22.7133 528.335 21.4108 528.335C20.3688 528.335 19.4404 526.532 19.1064 525.63V517.014Z" fill="#C30101"/>
</g>
<rect x="76.7695" y="460.51" width="15.5418" height="49.9454" rx="4" fill="black"/>
<rect x="76.7695" y="513.015" width="15.5418" height="15.4992" rx="4" fill="black"/>
<path d="M95.1562 471.981C95.1562 474.706 96.6925 476.322 97.4606 476.79C106.357 483.523 109.784 489.945 109.784 494.523H128.82C128.82 477.792 106.377 464.066 103.372 461.962C100.366 459.858 98.7631 460.659 97.4606 460.659C96.4186 460.659 95.4902 462.463 95.1562 463.365V471.981Z" fill="black"/>
<path d="M95.1562 517.014C95.1562 514.289 96.6925 512.672 97.4606 512.205C106.357 505.472 109.784 497.822 109.784 494.471H128.82C128.82 511.203 106.377 524.929 103.372 527.033C100.366 529.137 98.7631 528.335 97.4606 528.335C96.4186 528.335 95.4902 526.532 95.1562 525.63V517.014Z" fill="black"/>
<rect x="152.819" y="460.51" width="15.5418" height="49.9454" rx="4" fill="black"/>
<rect x="152.819" y="513.015" width="15.5418" height="15.4992" rx="4" fill="black"/>
<path d="M171.206 471.981C171.206 474.706 172.742 476.322 173.51 476.79C182.407 483.523 185.834 489.945 185.834 494.523H204.87C204.87 477.792 182.427 464.066 179.422 461.962C176.416 459.858 174.813 460.659 173.51 460.659C172.468 460.659 171.54 462.463 171.206 463.365V471.981Z" fill="black"/>
<path d="M171.206 517.014C171.206 514.289 172.742 512.672 173.51 512.205C182.407 505.472 185.834 497.822 185.834 494.471H204.87C204.87 511.203 182.427 524.929 179.422 527.033C176.416 529.137 174.813 528.335 173.51 528.335C172.468 528.335 171.54 526.532 171.206 525.63V517.014Z" fill="black"/>
<rect x="228.87" y="460.51" width="15.5418" height="49.9454" rx="4" fill="#C30101"/>
<rect x="228.87" y="513.015" width="15.5418" height="15.4992" rx="4" fill="#C30101"/>
<path d="M247.257 471.981C247.257 474.706 248.793 476.322 249.561 476.79C258.458 483.523 261.884 489.945 261.884 494.523H280.92C280.92 477.792 258.478 464.066 255.472 461.962C252.467 459.858 250.864 460.659 249.561 460.659C248.519 460.659 247.591 462.463 247.257 463.365V471.981Z" fill="#C30101"/>
<path d="M247.257 517.014C247.257 514.289 248.793 512.672 249.561 512.205C258.458 505.472 261.884 497.822 261.884 494.471H280.92C280.92 511.203 258.478 524.929 255.472 527.033C252.467 529.137 250.864 528.335 249.561 528.335C248.519 528.335 247.591 526.532 247.257 525.63V517.014Z" fill="#C30101"/>
<rect x="304.92" y="460.51" width="15.5418" height="49.9454" rx="4" fill="#C30101"/>
<rect x="304.92" y="513.015" width="15.5418" height="15.4992" rx="4" fill="#C30101"/>
<path d="M323.307 471.981C323.307 474.706 324.843 476.322 325.611 476.79C334.508 483.523 337.934 489.945 337.934 494.523H356.97C356.97 477.792 334.528 464.066 331.522 461.962C328.516 459.858 326.913 460.659 325.611 460.659C324.569 460.659 323.641 462.463 323.307 463.365V471.981Z" fill="#C30101"/>
<path d="M323.307 517.014C323.307 514.289 324.843 512.672 325.611 512.205C334.508 505.472 337.934 497.822 337.934 494.471H356.97C356.97 511.203 334.528 524.929 331.522 527.033C328.516 529.137 326.913 528.335 325.611 528.335C324.569 528.335 323.641 526.532 323.307 525.63V517.014Z" fill="#C30101"/>
<g opacity="0.1">
<rect x="380.97" y="460.51" width="15.5418" height="49.9454" rx="4" fill="#FFD700"/>
<rect x="380.97" y="513.015" width="15.5418" height="15.4992" rx="4" fill="black"/>
<path d="M399.356 471.981C399.356 474.706 400.893 476.322 401.661 476.79C410.558 483.523 413.984 489.945 413.984 494.523H433.02C433.02 477.792 410.578 464.066 407.572 461.962C404.566 459.858 402.963 460.659 401.661 460.659C400.619 460.659 399.69 462.463 399.356 463.365V471.981Z" fill="#C30101"/>
<path d="M399.356 517.014C399.356 514.289 400.893 512.672 401.661 512.205C410.558 505.472 413.984 497.822 413.984 494.471H433.02C433.02 511.203 410.578 524.929 407.572 527.033C404.566 529.137 402.963 528.335 401.661 528.335C400.619 528.335 399.69 526.532 399.356 525.63V517.014Z" fill="#C30101"/>
</g>
</svg>
