<svg width="69" height="70" viewBox="0 0 69 70" fill="none" xmlns="http://www.w3.org/2000/svg">
<rect x="42.2959" y="69.0024" width="15.5418" height="49.9454" rx="4" transform="rotate(-180 42.2959 69.0024)" fill="#FFD700"/>
<rect x="42.2959" y="16.4966" width="15.5418" height="15.4992" rx="4" transform="rotate(-180 42.2959 16.4966)" fill="black"/>
<path d="M57.0414 18.1536C54.3163 18.1536 52.6999 19.6898 52.2323 20.4579C45.4996 29.3547 39.0775 32.7812 34.4988 32.7812L34.4988 51.8172C51.2304 51.8172 64.9564 29.3748 67.0603 26.3691C69.1643 23.3634 68.3628 21.7604 68.3628 20.4579C68.3628 19.4159 66.5594 18.4875 65.6577 18.1536L57.0414 18.1536Z" fill="#C30101"/>
<path d="M12.0085 18.1536C14.7336 18.1536 16.35 19.6898 16.8176 20.4579C23.5503 29.3547 31.1998 32.7812 34.5511 32.7812L34.5511 51.8172C17.8194 51.8172 4.09351 29.3748 1.98953 26.3691C-0.114449 23.3634 0.687065 21.7604 0.687065 20.4579C0.687065 19.4159 2.49047 18.4875 3.39217 18.1536L12.0085 18.1536Z" fill="#C30101"/>
</svg>
