<svg width="41" height="41" viewBox="0 0 41 41" fill="none" xmlns="http://www.w3.org/2000/svg">
<rect x="0.416016" y="0.000244141" width="40.5143" height="40.5143" rx="20.2571" fill="black" fill-opacity="0.05"/>
<path d="M27.1086 26.903V29.8704H13.9731V27.3382L20.1848 20.6782C20.809 19.9836 21.3014 19.3725 21.6619 18.845C22.0223 18.3087 22.2817 17.8295 22.44 17.4075C22.607 16.9767 22.6905 16.5678 22.6905 16.181C22.6905 15.6007 22.5938 15.1039 22.4004 14.6907C22.207 14.2687 21.9212 13.9434 21.5432 13.7148C21.1739 13.4862 20.7167 13.3719 20.1716 13.3719C19.5913 13.3719 19.0902 13.5125 18.6681 13.7939C18.2549 14.0752 17.9384 14.4665 17.7186 14.9677C17.5076 15.4688 17.4021 16.0359 17.4021 16.6689H13.5907C13.5907 15.526 13.8632 14.4797 14.4083 13.5301C14.9534 12.5718 15.7228 11.8113 16.7163 11.2486C17.7098 10.6771 18.8879 10.3913 20.2507 10.3913C21.5959 10.3913 22.7301 10.6111 23.6533 11.0507C24.5853 11.4816 25.2886 12.1058 25.7634 12.9235C26.247 13.7324 26.4888 14.6995 26.4888 15.8249C26.4888 16.4579 26.3876 17.0778 26.1854 17.6844C25.9832 18.2823 25.6931 18.8802 25.315 19.478C24.9457 20.0671 24.4973 20.665 23.9698 21.2716C23.4423 21.8783 22.8576 22.5069 22.2158 23.1575L18.8791 26.903H27.1086Z" fill="white"/>
</svg>
