<svg width="41" height="41" viewBox="0 0 41 41" fill="none" xmlns="http://www.w3.org/2000/svg">
<rect x="0.486328" y="0.000244141" width="40.5143" height="40.5143" rx="20.2571" fill="black" fill-opacity="0.05"/>
<path d="M17.934 18.6208H19.965C20.6156 18.6208 21.1519 18.5109 21.5739 18.2911C21.9959 18.0625 22.3081 17.746 22.5103 17.3415C22.7213 16.9283 22.8268 16.4491 22.8268 15.904C22.8268 15.4117 22.7301 14.9764 22.5367 14.5984C22.352 14.2115 22.0663 13.9126 21.6794 13.7016C21.2926 13.4818 20.8046 13.3719 20.2155 13.3719C19.7495 13.3719 19.3187 13.4642 18.9231 13.6488C18.5274 13.8335 18.2109 14.0928 17.9735 14.4269C17.7361 14.761 17.6174 15.1655 17.6174 15.6403H13.806C13.806 14.5852 14.0874 13.6664 14.6501 12.8839C15.2216 12.1014 15.9865 11.4904 16.9448 11.0507C17.9032 10.6111 18.9583 10.3913 20.11 10.3913C21.4113 10.3913 22.5498 10.6023 23.5258 11.0244C24.5017 11.4376 25.2622 12.0487 25.8073 12.8575C26.3525 13.6664 26.625 14.6687 26.625 15.8645C26.625 16.4711 26.4843 17.0602 26.203 17.6317C25.9216 18.1944 25.5172 18.7043 24.9897 19.1615C24.4709 19.6099 23.8379 19.9704 23.0906 20.2429C22.3432 20.5067 21.5036 20.6386 20.5716 20.6386H17.934V18.6208ZM17.934 21.509V19.544H20.5716C21.6179 19.544 22.5367 19.6627 23.328 19.9001C24.1192 20.1374 24.7831 20.4803 25.3194 20.9287C25.8557 21.3683 26.2601 21.8915 26.5327 22.4981C26.8053 23.096 26.9415 23.7598 26.9415 24.4896C26.9415 25.3864 26.7701 26.1864 26.4272 26.8898C26.0843 27.5844 25.6007 28.1735 24.9765 28.657C24.361 29.1406 23.6401 29.5099 22.8136 29.7649C21.9871 30.011 21.086 30.1341 20.11 30.1341C19.3011 30.1341 18.5055 30.0242 17.723 29.8044C16.9492 29.5758 16.2459 29.2373 15.6128 28.7889C14.9886 28.3317 14.4874 27.7602 14.1094 27.0745C13.7401 26.3799 13.5555 25.5578 13.5555 24.6083H17.3669C17.3669 25.1006 17.49 25.5402 17.7361 25.9271C17.9823 26.3139 18.3208 26.6173 18.7516 26.8371C19.1912 27.0569 19.6792 27.1668 20.2155 27.1668C20.8222 27.1668 21.3409 27.0569 21.7717 26.8371C22.2113 26.6085 22.5455 26.292 22.774 25.8875C23.0114 25.4743 23.1301 24.9951 23.1301 24.45C23.1301 23.7466 23.0026 23.1839 22.7477 22.7619C22.4927 22.3311 22.1278 22.0146 21.653 21.8123C21.1783 21.6101 20.6156 21.509 19.965 21.509H17.934Z" fill="white"/>
</svg>
