<svg width="677" height="381" viewBox="0 0 677 381" fill="none" xmlns="http://www.w3.org/2000/svg">
<g opacity="0.1">
<rect width="58.2207" height="187.504" rx="16.8331" transform="matrix(1 -8.74228e-08 -8.74228e-08 -1 618.779 380.755)" fill="#C30101"/>
<rect width="58.2207" height="58.1869" rx="16.8331" transform="matrix(1 -8.74228e-08 -8.74228e-08 -1 618.779 183.432)" fill="#C30101"/>
</g>
<g opacity="0.25">
<rect width="58.2207" height="187.504" rx="16.8331" transform="matrix(1 -8.74228e-08 -8.74228e-08 -1 536.559 380.755)" fill="#FFD700"/>
<rect width="58.2207" height="58.1869" rx="16.8331" transform="matrix(1 -8.74228e-08 -8.74228e-08 -1 536.559 183.432)" fill="#FFD700"/>
</g>
<g opacity="0.4">
<rect width="58.2207" height="187.504" rx="16.8331" transform="matrix(1 -8.74228e-08 -8.74228e-08 -1 454.338 380.755)" fill="black"/>
<rect width="58.2207" height="58.1869" rx="16.8331" transform="matrix(1 -8.74228e-08 -8.74228e-08 -1 454.338 183.432)" fill="black"/>
</g>
<g opacity="0.55">
<rect width="58.2207" height="187.504" rx="16.8331" transform="matrix(1 -8.74228e-08 -8.74228e-08 -1 372.117 380.755)" fill="#C30101"/>
<rect width="58.2207" height="58.1869" rx="16.8331" transform="matrix(1 -8.74228e-08 -8.74228e-08 -1 372.117 183.432)" fill="#C30101"/>
</g>
<g opacity="0.7">
<rect width="58.2207" height="187.504" rx="16.8331" transform="matrix(1 -8.74228e-08 -8.74228e-08 -1 289.896 380.755)" fill="#FFD700"/>
<rect width="58.2207" height="58.1869" rx="16.8331" transform="matrix(1 -8.74228e-08 -8.74228e-08 -1 289.896 183.432)" fill="#FFD700"/>
</g>
<g opacity="0.85">
<rect width="58.2207" height="187.504" rx="16.8331" transform="matrix(1 -8.74228e-08 -8.74228e-08 -1 207.676 380.755)" fill="black"/>
<rect width="58.2207" height="58.1869" rx="16.8331" transform="matrix(1 -8.74228e-08 -8.74228e-08 -1 207.676 183.432)" fill="black"/>
</g>
<rect width="58.2207" height="187.504" rx="16.8331" transform="matrix(1 -8.74228e-08 -8.74228e-08 -1 125.455 380.755)" fill="#C30101"/>
<rect width="308.822" height="308.643" rx="154.321" transform="matrix(1 -8.74228e-08 -8.74228e-08 -1 0.154785 308.66)" fill="#FFF0A0" style="mix-blend-mode:hard-light"/>
<rect width="223.39" height="223.26" rx="111.63" transform="matrix(1 -8.74228e-08 -8.74228e-08 -1 42.8711 265.969)" fill="#FFF0A0" style="mix-blend-mode:hard-light"/>
<rect width="141.122" height="141.04" rx="70.52" transform="matrix(1 -8.74228e-08 -8.74228e-08 -1 84.0049 224.858)" fill="#FFF0A0" style="mix-blend-mode:hard-light"/>
<rect width="58.2207" height="58.1869" rx="16.8331" transform="matrix(1 -8.74228e-08 -8.74228e-08 -1 125.455 183.432)" fill="#FFFF96"/>
</svg>
