<svg width="78" height="79" viewBox="0 0 78 79" fill="none" xmlns="http://www.w3.org/2000/svg">
<rect y="0.723389" width="78" height="78" rx="39" fill="black"/>
<path d="M25.9252 41.699H47.4301L38.035 51.3401C37.2841 52.1106 37.2841 53.375 38.035 54.1455C38.7858 54.916 39.9987 54.916 40.7496 54.1455L53.4369 41.1261C54.1877 40.3556 54.1877 39.1109 53.4369 38.3404L40.7688 25.3013C40.018 24.5308 38.8051 24.5308 38.0542 25.3013C37.3034 26.0718 37.3034 27.3164 38.0542 28.0869L47.4301 37.7478H25.9252C24.8664 37.7478 24 38.6368 24 39.7234C24 40.81 24.8664 41.699 25.9252 41.699Z" fill="white"/>
</svg>
