<svg width="79" height="78" viewBox="0 0 79 78" fill="none" xmlns="http://www.w3.org/2000/svg">
<rect x="78.9951" y="78" width="78" height="78" rx="39" transform="rotate(-180 78.9951 78)" fill="black"/>
<path d="M53.0699 37.0244L31.565 37.0244L40.9601 27.3833C41.711 26.6128 41.711 25.3484 40.9601 24.5779C40.2093 23.8074 38.9964 23.8074 38.2456 24.5779L25.5582 37.5973C24.8074 38.3678 24.8074 39.6124 25.5582 40.3829L38.2263 53.4221C38.9771 54.1926 40.19 54.1926 40.9409 53.4221C41.6917 52.6516 41.6917 51.407 40.9409 50.6365L31.565 40.9756L53.0699 40.9756C54.1288 40.9756 54.9951 40.0866 54.9951 39C54.9951 37.9134 54.1288 37.0244 53.0699 37.0244Z" fill="white"/>
</svg>
