<svg width="35" height="36" viewBox="0 0 35 36" fill="none" xmlns="http://www.w3.org/2000/svg">
<rect x="34.7236" y="0.723389" width="34.7235" height="34.7235" rx="17.3617" transform="rotate(90 34.7236 0.723389)" fill="#C30101"/>
<path d="M16.3923 11.6683L16.3923 22.2225L11.6606 17.6115C11.2825 17.243 10.6619 17.243 10.2838 17.6115C9.90563 17.98 9.90563 18.5753 10.2838 18.9438L16.6735 25.1705C17.0516 25.539 17.6625 25.539 18.0406 25.1705L24.44 18.9532C24.8182 18.5847 24.8182 17.9895 24.44 17.621C24.0619 17.2525 23.451 17.2525 23.0729 17.621L18.3315 22.2225L18.3315 11.6683C18.3315 11.1486 17.8952 10.7234 17.3619 10.7234C16.8286 10.7234 16.3923 11.1486 16.3923 11.6683Z" fill="white"/>
</svg>
