<svg width="32" height="32" viewBox="0 0 32 32" fill="none" xmlns="http://www.w3.org/2000/svg">
<rect width="32" height="32" rx="16" fill="white"/>
<path fill-rule="evenodd" clip-rule="evenodd" d="M19.895 17.6873C19.6829 17.5817 18.643 17.0731 18.4494 17.0023C18.2558 16.9322 18.1149 16.8975 17.9733 17.1086C17.8324 17.3182 17.4274 17.7928 17.3042 17.9331C17.1804 18.074 17.0573 18.091 16.8459 17.9862C16.6345 17.8799 15.9526 17.6582 15.1448 16.9414C14.5164 16.3832 14.0914 15.694 13.9683 15.4829C13.8452 15.2726 13.9548 15.1585 14.0608 15.0537C14.1562 14.9595 14.2722 14.8079 14.3783 14.6853C14.4843 14.5621 14.5192 14.4743 14.5897 14.3333C14.6608 14.1931 14.6252 14.0705 14.5719 13.965C14.5192 13.8594 14.0964 12.8231 13.9199 12.4017C13.7484 11.9916 13.574 12.0475 13.4445 12.0404C13.3206 12.0348 13.1797 12.0334 13.0388 12.0334C12.8979 12.0334 12.6687 12.0858 12.4751 12.2969C12.2808 12.5072 11.7349 13.0165 11.7349 14.0528C11.7349 15.0884 12.4922 16.0893 12.5982 16.2302C12.7043 16.3705 14.0893 18.4969 16.211 19.4085C16.7163 19.6253 17.1099 19.7549 17.4167 19.8512C17.9235 20.012 18.3847 19.9893 18.7491 19.9348C19.1548 19.8746 20.0003 19.4255 20.1768 18.9339C20.3526 18.4423 20.3526 18.0209 20.3 17.9331C20.2473 17.8452 20.1071 17.7928 19.895 17.6873ZM16.0359 22.931H16.0331C14.7729 22.9313 13.5358 22.5941 12.4516 21.955L12.1954 21.8034L9.53202 22.499L10.2431 19.915L10.0758 19.65C9.37127 18.534 8.99843 17.2423 9.00035 15.9242C9.00178 12.0638 12.1576 8.92307 16.0388 8.92307C17.9178 8.92307 19.6843 9.65265 21.0124 10.9758C21.6675 11.6251 22.1867 12.3971 22.54 13.2474C22.8933 14.0976 23.0737 15.0091 23.0708 15.9292C23.0694 19.7896 19.9135 22.931 16.0359 22.931ZM22.0231 9.97069C21.2389 9.1851 20.3058 8.5622 19.278 8.13809C18.2501 7.71399 17.1479 7.49711 16.0352 7.50003C11.3705 7.50003 7.5726 11.279 7.57117 15.9235C7.56901 17.4016 7.95863 18.8542 8.70071 20.1345L7.5 24.5L11.9868 23.3284C13.228 24.0014 14.6189 24.3541 16.0324 24.3541H16.0359C20.7007 24.3541 24.4985 20.5751 24.5 15.9299C24.5034 14.823 24.2863 13.7263 23.8611 12.7035C23.436 11.6806 22.8113 10.7517 22.0231 9.97069Z" fill="black"/>
</svg>
