<svg width="271" height="271" viewBox="0 0 271 271" fill="none" xmlns="http://www.w3.org/2000/svg">
<g clip-path="url(#clip0_932_3674)">
<rect width="270.678" height="38.6683" transform="translate(0.0322266 0.081543)" fill="black"/>
<path d="M18.8263 23.9795H17.0022L17.0138 22.7246H18.8263C19.3182 22.7246 19.7307 22.6162 20.0638 22.3993C20.3969 22.1785 20.6486 21.8629 20.819 21.4523C20.9894 21.0379 21.0746 20.5422 21.0746 19.9651V19.5294C21.0746 19.084 21.0262 18.6909 20.9294 18.35C20.8326 18.0092 20.6893 17.7226 20.4995 17.4902C20.3136 17.2579 20.0831 17.0816 19.8082 16.9616C19.5332 16.8415 19.2175 16.7815 18.8612 16.7815H16.9673V15.5208H18.8612C19.4267 15.5208 19.9418 15.6157 20.4065 15.8055C20.8752 15.9952 21.2799 16.2683 21.6207 16.6246C21.9654 16.9771 22.2288 17.3992 22.4108 17.8911C22.5967 18.383 22.6897 18.9329 22.6897 19.541V19.9651C22.6897 20.5693 22.5967 21.1193 22.4108 21.615C22.2288 22.1069 21.9654 22.529 21.6207 22.8815C21.2799 23.2339 20.8732 23.505 20.4007 23.6948C19.9282 23.8846 19.4034 23.9795 18.8263 23.9795ZM17.8968 15.5208V23.9795H16.2992V15.5208H17.8968Z" fill="white"/>
<path d="M59.638 21.7835C59.638 21.6208 59.6129 21.4756 59.5625 21.3478C59.516 21.2161 59.4289 21.098 59.3011 20.9934C59.1771 20.8849 59.0009 20.7804 58.7724 20.6797C58.5478 20.5751 58.2573 20.4667 57.901 20.3543C57.5059 20.2304 57.138 20.091 56.7972 19.9361C56.4563 19.7811 56.1562 19.601 55.8967 19.3958C55.6411 19.1905 55.4416 18.9542 55.2983 18.687C55.155 18.4159 55.0834 18.1022 55.0834 17.7459C55.0834 17.3973 55.1569 17.0797 55.3041 16.7931C55.4552 16.5065 55.6682 16.2605 55.9432 16.0553C56.2182 15.8461 56.5416 15.6854 56.9134 15.5731C57.289 15.4608 57.7035 15.4046 58.1566 15.4046C58.784 15.4046 59.3263 15.5189 59.7833 15.7474C60.2442 15.9759 60.6005 16.2857 60.8522 16.6769C61.104 17.0681 61.2299 17.5077 61.2299 17.9957H59.638C59.638 17.7323 59.5819 17.4999 59.4696 17.2985C59.3611 17.0971 59.1946 16.9383 58.9699 16.8221C58.7492 16.7059 58.4703 16.6479 58.1334 16.6479C57.808 16.6479 57.5369 16.6963 57.32 16.7931C57.107 16.8899 56.9463 17.0216 56.8378 17.1881C56.7333 17.3547 56.681 17.5406 56.681 17.7459C56.681 17.9008 56.7178 18.0402 56.7914 18.1641C56.8649 18.2842 56.9753 18.3985 57.1225 18.5069C57.2697 18.6115 57.4517 18.7102 57.6686 18.8032C57.8894 18.8923 58.145 18.9813 58.4355 19.0704C58.9002 19.2099 59.3069 19.3648 59.6555 19.5352C60.0079 19.7056 60.3003 19.8993 60.5327 20.1161C60.769 20.333 60.9452 20.577 61.0614 20.8481C61.1814 21.1193 61.2415 21.4272 61.2415 21.7719C61.2415 22.1359 61.1698 22.4613 61.0265 22.7479C60.8832 23.0345 60.6779 23.2785 60.4107 23.4799C60.1435 23.6813 59.822 23.8343 59.4463 23.9388C59.0745 24.0434 58.6582 24.0957 58.1973 24.0957C57.7867 24.0957 57.3801 24.0415 56.9773 23.933C56.5783 23.8207 56.2162 23.6542 55.8909 23.4334C55.5655 23.2088 55.3061 22.926 55.1124 22.5852C54.9188 22.2405 54.8219 21.8377 54.8219 21.3768H56.4254C56.4254 21.6441 56.468 21.8726 56.5532 22.0623C56.6422 22.2482 56.7662 22.4012 56.925 22.5213C57.0876 22.6375 57.2774 22.7227 57.4943 22.7769C57.7112 22.8311 57.9455 22.8583 58.1973 22.8583C58.5226 22.8583 58.7898 22.8137 58.999 22.7246C59.212 22.6317 59.3708 22.5039 59.4754 22.3412C59.5838 22.1785 59.638 21.9926 59.638 21.7835Z" fill="white"/>
<path d="M97.482 15.5208V23.9795H95.8902V15.5208H97.482ZM100.108 15.5208V16.7815H93.2933V15.5208H100.108Z" fill="white"/>
<path d="M136.615 22.7885L138.869 24.5779L137.846 25.4667L135.627 23.689L136.615 22.7885ZM138.91 19.5352V19.9709C138.91 20.61 138.824 21.1851 138.654 21.6963C138.483 22.2037 138.239 22.6356 137.922 22.9919C137.608 23.3482 137.234 23.6212 136.801 23.811C136.367 24.0008 135.887 24.0957 135.36 24.0957C134.837 24.0957 134.357 24.0008 133.919 23.811C133.485 23.6212 133.11 23.3482 132.792 22.9919C132.474 22.6356 132.229 22.2037 132.054 21.6963C131.88 21.1851 131.793 20.61 131.793 19.9709V19.5352C131.793 18.8923 131.878 18.3171 132.048 17.8098C132.223 17.3024 132.467 16.8705 132.78 16.5142C133.098 16.154 133.474 15.8791 133.908 15.6893C134.345 15.4995 134.825 15.4046 135.348 15.4046C135.875 15.4046 136.355 15.4995 136.789 15.6893C137.227 15.8791 137.602 16.154 137.916 16.5142C138.234 16.8705 138.478 17.3024 138.648 17.8098C138.822 18.3171 138.91 18.8923 138.91 19.5352ZM137.294 19.9709V19.5236C137.294 19.0627 137.252 18.658 137.167 18.3094C137.081 17.9569 136.954 17.6606 136.783 17.4205C136.617 17.1804 136.413 17.0003 136.173 16.8802C135.933 16.7563 135.658 16.6943 135.348 16.6943C135.042 16.6943 134.769 16.7563 134.529 16.8802C134.289 17.0003 134.086 17.1804 133.919 17.4205C133.753 17.6606 133.625 17.9569 133.536 18.3094C133.45 18.658 133.408 19.0627 133.408 19.5236V19.9709C133.408 20.4279 133.45 20.8327 133.536 21.1851C133.625 21.5375 133.753 21.8358 133.919 22.0798C134.09 22.3199 134.295 22.5019 134.535 22.6259C134.779 22.7498 135.054 22.8118 135.36 22.8118C135.67 22.8118 135.945 22.7498 136.185 22.6259C136.425 22.5019 136.626 22.3199 136.789 22.0798C136.956 21.8358 137.081 21.5375 137.167 21.1851C137.252 20.8327 137.294 20.4279 137.294 19.9709Z" fill="white"/>
<path d="M175.283 22.7885L177.537 24.5779L176.514 25.4667L174.295 23.689L175.283 22.7885ZM177.577 19.5352V19.9709C177.577 20.61 177.492 21.1851 177.322 21.6963C177.151 22.2037 176.907 22.6356 176.59 22.9919C176.276 23.3482 175.902 23.6212 175.469 23.811C175.035 24.0008 174.555 24.0957 174.028 24.0957C173.505 24.0957 173.025 24.0008 172.587 23.811C172.153 23.6212 171.778 23.3482 171.46 22.9919C171.142 22.6356 170.897 22.2037 170.722 21.6963C170.548 21.1851 170.461 20.61 170.461 19.9709V19.5352C170.461 18.8923 170.546 18.3171 170.716 17.8098C170.891 17.3024 171.135 16.8705 171.448 16.5142C171.766 16.154 172.142 15.8791 172.575 15.6893C173.013 15.4995 173.493 15.4046 174.016 15.4046C174.543 15.4046 175.023 15.4995 175.457 15.6893C175.895 15.8791 176.27 16.154 176.584 16.5142C176.902 16.8705 177.146 17.3024 177.316 17.8098C177.49 18.3171 177.577 18.8923 177.577 19.5352ZM175.962 19.9709V19.5236C175.962 19.0627 175.92 18.658 175.835 18.3094C175.749 17.9569 175.622 17.6606 175.451 17.4205C175.285 17.1804 175.081 17.0003 174.841 16.8802C174.601 16.7563 174.326 16.6943 174.016 16.6943C173.71 16.6943 173.437 16.7563 173.197 16.8802C172.957 17.0003 172.754 17.1804 172.587 17.4205C172.421 17.6606 172.293 17.9569 172.204 18.3094C172.118 18.658 172.076 19.0627 172.076 19.5236V19.9709C172.076 20.4279 172.118 20.8327 172.204 21.1851C172.293 21.5375 172.421 21.8358 172.587 22.0798C172.758 22.3199 172.963 22.5019 173.203 22.6259C173.447 22.7498 173.722 22.8118 174.028 22.8118C174.338 22.8118 174.613 22.7498 174.853 22.6259C175.093 22.5019 175.294 22.3199 175.457 22.0798C175.624 21.8358 175.749 21.5375 175.835 21.1851C175.92 20.8327 175.962 20.4279 175.962 19.9709Z" fill="white"/>
<path d="M214.312 21.7835C214.312 21.6208 214.287 21.4756 214.236 21.3478C214.19 21.2161 214.103 21.098 213.975 20.9934C213.851 20.8849 213.675 20.7804 213.446 20.6797C213.222 20.5751 212.931 20.4667 212.575 20.3543C212.18 20.2304 211.812 20.091 211.471 19.9361C211.13 19.7811 210.83 19.601 210.571 19.3958C210.315 19.1905 210.115 18.9542 209.972 18.687C209.829 18.4159 209.757 18.1022 209.757 17.7459C209.757 17.3973 209.831 17.0797 209.978 16.7931C210.129 16.5065 210.342 16.2605 210.617 16.0553C210.892 15.8461 211.215 15.6854 211.587 15.5731C211.963 15.4608 212.377 15.4046 212.83 15.4046C213.458 15.4046 214 15.5189 214.457 15.7474C214.918 15.9759 215.274 16.2857 215.526 16.6769C215.778 17.0681 215.904 17.5077 215.904 17.9957H214.312C214.312 17.7323 214.256 17.4999 214.143 17.2985C214.035 17.0971 213.868 16.9383 213.644 16.8221C213.423 16.7059 213.144 16.6479 212.807 16.6479C212.482 16.6479 212.211 16.6963 211.994 16.7931C211.781 16.8899 211.62 17.0216 211.512 17.1881C211.407 17.3547 211.355 17.5406 211.355 17.7459C211.355 17.9008 211.392 18.0402 211.465 18.1641C211.539 18.2842 211.649 18.3985 211.796 18.5069C211.944 18.6115 212.126 18.7102 212.342 18.8032C212.563 18.8923 212.819 18.9813 213.109 19.0704C213.574 19.2099 213.981 19.3648 214.329 19.5352C214.682 19.7056 214.974 19.8993 215.207 20.1161C215.443 20.333 215.619 20.577 215.735 20.8481C215.855 21.1193 215.915 21.4272 215.915 21.7719C215.915 22.1359 215.844 22.4613 215.7 22.7479C215.557 23.0345 215.352 23.2785 215.085 23.4799C214.817 23.6813 214.496 23.8343 214.12 23.9388C213.748 24.0434 213.332 24.0957 212.871 24.0957C212.461 24.0957 212.054 24.0415 211.651 23.933C211.252 23.8207 210.89 23.6542 210.565 23.4334C210.239 23.2088 209.98 22.926 209.786 22.5852C209.593 22.2405 209.496 21.8377 209.496 21.3768H211.099C211.099 21.6441 211.142 21.8726 211.227 22.0623C211.316 22.2482 211.44 22.4012 211.599 22.5213C211.761 22.6375 211.951 22.7227 212.168 22.7769C212.385 22.8311 212.619 22.8583 212.871 22.8583C213.196 22.8583 213.464 22.8137 213.673 22.7246C213.886 22.6317 214.045 22.5039 214.149 22.3412C214.258 22.1785 214.312 21.9926 214.312 21.7835Z" fill="white"/>
<path d="M252.98 21.7835C252.98 21.6208 252.955 21.4756 252.904 21.3478C252.858 21.2161 252.771 21.098 252.643 20.9934C252.519 20.8849 252.343 20.7804 252.114 20.6797C251.89 20.5751 251.599 20.4667 251.243 20.3543C250.848 20.2304 250.48 20.091 250.139 19.9361C249.798 19.7811 249.498 19.601 249.238 19.3958C248.983 19.1905 248.783 18.9542 248.64 18.687C248.497 18.4159 248.425 18.1022 248.425 17.7459C248.425 17.3973 248.499 17.0797 248.646 16.7931C248.797 16.5065 249.01 16.2605 249.285 16.0553C249.56 15.8461 249.883 15.6854 250.255 15.5731C250.631 15.4608 251.045 15.4046 251.498 15.4046C252.126 15.4046 252.668 15.5189 253.125 15.7474C253.586 15.9759 253.942 16.2857 254.194 16.6769C254.446 17.0681 254.572 17.5077 254.572 17.9957H252.98C252.98 17.7323 252.924 17.4999 252.811 17.2985C252.703 17.0971 252.536 16.9383 252.312 16.8221C252.091 16.7059 251.812 16.6479 251.475 16.6479C251.15 16.6479 250.879 16.6963 250.662 16.7931C250.449 16.8899 250.288 17.0216 250.18 17.1881C250.075 17.3547 250.023 17.5406 250.023 17.7459C250.023 17.9008 250.06 18.0402 250.133 18.1641C250.207 18.2842 250.317 18.3985 250.464 18.5069C250.611 18.6115 250.794 18.7102 251.01 18.8032C251.231 18.8923 251.487 18.9813 251.777 19.0704C252.242 19.2099 252.649 19.3648 252.997 19.5352C253.35 19.7056 253.642 19.8993 253.875 20.1161C254.111 20.333 254.287 20.577 254.403 20.8481C254.523 21.1193 254.583 21.4272 254.583 21.7719C254.583 22.1359 254.512 22.4613 254.368 22.7479C254.225 23.0345 254.02 23.2785 253.753 23.4799C253.485 23.6813 253.164 23.8343 252.788 23.9388C252.416 24.0434 252 24.0957 251.539 24.0957C251.129 24.0957 250.722 24.0415 250.319 23.933C249.92 23.8207 249.558 23.6542 249.233 23.4334C248.907 23.2088 248.648 22.926 248.454 22.5852C248.261 22.2405 248.164 21.8377 248.164 21.3768H249.767C249.767 21.6441 249.81 21.8726 249.895 22.0623C249.984 22.2482 250.108 22.4012 250.267 22.5213C250.429 22.6375 250.619 22.7227 250.836 22.7769C251.053 22.8311 251.287 22.8583 251.539 22.8583C251.864 22.8583 252.132 22.8137 252.341 22.7246C252.554 22.6317 252.713 22.5039 252.817 22.3412C252.926 22.1785 252.98 21.9926 252.98 21.7835Z" fill="white"/>
<rect width="38.6683" height="38.6683" transform="translate(193.374 38.75)" fill="black" fill-opacity="0.05"/>
<path d="M213.597 54.1428V62.6479H212.522V55.4848L210.355 56.2749V55.3047L213.428 54.1428H213.597Z" fill="black"/>
<rect width="38.6683" height="38.6683" transform="translate(232.042 38.75)" fill="black" fill-opacity="0.38"/>
<path d="M254.276 61.7649V62.6479H248.739V61.8753L251.51 58.7904C251.851 58.4109 252.114 58.0894 252.3 57.826C252.49 57.5588 252.622 57.3206 252.695 57.1115C252.773 56.8984 252.812 56.6815 252.812 56.4608C252.812 56.1819 252.754 55.9302 252.637 55.7055C252.525 55.477 252.358 55.295 252.138 55.1594C251.917 55.0239 251.65 54.9561 251.336 54.9561C250.96 54.9561 250.647 55.0297 250.395 55.1769C250.147 55.3202 249.961 55.5216 249.837 55.7811C249.713 56.0406 249.651 56.3388 249.651 56.6757H248.576C248.576 56.1994 248.681 55.7636 248.89 55.3686C249.099 54.9735 249.409 54.6598 249.82 54.4274C250.23 54.1912 250.736 54.0731 251.336 54.0731C251.87 54.0731 252.327 54.168 252.707 54.3577C253.087 54.5436 253.377 54.807 253.578 55.1478C253.784 55.4848 253.886 55.8798 253.886 56.333C253.886 56.5809 253.844 56.8326 253.759 57.0882C253.677 57.34 253.563 57.5917 253.416 57.8435C253.272 58.0952 253.104 58.3431 252.91 58.5871C252.721 58.8311 252.517 59.0712 252.3 59.3075L250.035 61.7649H254.276Z" fill="black"/>
<rect width="38.6683" height="38.6683" transform="translate(0.0322266 77.4182)" fill="black" fill-opacity="0.38"/>
<path d="M18.2911 96.5581H19.058C19.4337 96.5581 19.7435 96.4962 19.9875 96.3722C20.2354 96.2444 20.4194 96.0721 20.5394 95.8552C20.6634 95.6344 20.7253 95.3866 20.7253 95.1116C20.7253 94.7862 20.6711 94.5132 20.5627 94.2924C20.4542 94.0717 20.2916 93.9051 20.0747 93.7928C19.8578 93.6805 19.5828 93.6243 19.2497 93.6243C18.9476 93.6243 18.6804 93.6844 18.448 93.8044C18.2195 93.9206 18.0394 94.0872 17.9077 94.304C17.7799 94.5209 17.716 94.7766 17.716 95.0709H16.6412C16.6412 94.641 16.7497 94.2498 16.9666 93.8974C17.1834 93.5449 17.4875 93.2641 17.8787 93.055C18.2737 92.8459 18.7307 92.7413 19.2497 92.7413C19.7609 92.7413 20.2083 92.8323 20.5917 93.0143C20.9751 93.1925 21.2734 93.4597 21.4864 93.816C21.6994 94.1685 21.8059 94.6081 21.8059 95.1348C21.8059 95.3478 21.7556 95.5763 21.6549 95.8203C21.558 96.0605 21.405 96.2851 21.1959 96.4942C20.9906 96.7034 20.7234 96.8757 20.3942 97.0113C20.065 97.143 19.6699 97.2088 19.209 97.2088H18.2911V96.5581ZM18.2911 97.4412V96.7963H19.209C19.7474 96.7963 20.1928 96.8602 20.5452 96.9881C20.8977 97.1159 21.1746 97.2863 21.376 97.4993C21.5813 97.7123 21.7246 97.9466 21.8059 98.2022C21.8911 98.454 21.9337 98.7057 21.9337 98.9575C21.9337 99.3525 21.8659 99.703 21.7304 100.009C21.5987 100.315 21.4109 100.574 21.1669 100.787C20.9267 101.001 20.644 101.161 20.3187 101.27C19.9933 101.378 19.6389 101.432 19.2555 101.432C18.8876 101.432 18.5409 101.38 18.2156 101.275C17.8942 101.171 17.6095 101.02 17.3616 100.822C17.1137 100.621 16.9201 100.375 16.7807 100.085C16.6412 99.7902 16.5715 99.4552 16.5715 99.0795H17.6463C17.6463 99.3738 17.7102 99.6314 17.838 99.8522C17.9697 100.073 18.1556 100.245 18.3957 100.369C18.6397 100.489 18.9263 100.549 19.2555 100.549C19.5847 100.549 19.8675 100.493 20.1037 100.381C20.3438 100.265 20.5278 100.09 20.6556 99.858C20.7873 99.6256 20.8531 99.3332 20.8531 98.9807C20.8531 98.6283 20.7796 98.3397 20.6324 98.1151C20.4852 97.8866 20.2761 97.7181 20.005 97.6097C19.7377 97.4974 19.4221 97.4412 19.058 97.4412H18.2911Z" fill="black"/>
<rect width="38.6683" height="38.6683" transform="translate(38.7002 77.4182)" fill="black" fill-opacity="0.05"/>
<path d="M61.1071 98.4695V99.3525H54.9955V98.7193L58.7833 92.8575H59.6605L58.7194 94.5539L56.2155 98.4695H61.1071ZM59.9278 92.8575V101.316H58.853V92.8575H59.9278Z" fill="black"/>
<rect width="38.6683" height="38.6683" transform="translate(77.3691 77.4182)" fill="black" fill-opacity="0.05"/>
<path d="M95.4189 97.2901L94.5591 97.0694L94.9832 92.8575H99.3229V93.8509H95.8953L95.6397 96.1515C95.7946 96.0624 95.9902 95.9791 96.2264 95.9017C96.4666 95.8242 96.7415 95.7855 97.0514 95.7855C97.4426 95.7855 97.7931 95.8533 98.1029 95.9888C98.4128 96.1205 98.6761 96.3103 98.893 96.5581C99.1138 96.806 99.2823 97.1042 99.3984 97.4528C99.5146 97.8014 99.5727 98.1906 99.5727 98.6205C99.5727 99.0272 99.5166 99.4009 99.4043 99.7418C99.2958 100.083 99.1312 100.381 98.9104 100.636C98.6897 100.888 98.4108 101.084 98.0739 101.223C97.7408 101.363 97.3477 101.432 96.8945 101.432C96.5537 101.432 96.2303 101.386 95.9243 101.293C95.6222 101.196 95.3511 101.051 95.111 100.857C94.8747 100.66 94.6811 100.416 94.53 100.125C94.3829 99.8309 94.2899 99.4862 94.2512 99.0911H95.2737C95.3201 99.4087 95.4131 99.6759 95.5525 99.8928C95.692 100.11 95.874 100.274 96.0986 100.387C96.3271 100.495 96.5924 100.549 96.8945 100.549C97.1501 100.549 97.3767 100.505 97.5742 100.416C97.7718 100.327 97.9383 100.199 98.0739 100.032C98.2094 99.8657 98.3121 99.6643 98.3818 99.4281C98.4554 99.1918 98.4922 98.9265 98.4922 98.6322C98.4922 98.3649 98.4554 98.117 98.3818 97.8885C98.3082 97.66 98.1978 97.4606 98.0506 97.2901C97.9073 97.1197 97.7311 96.9881 97.522 96.8951C97.3128 96.7983 97.0727 96.7499 96.8016 96.7499C96.4414 96.7499 96.1683 96.7983 95.9824 96.8951C95.8004 96.9919 95.6126 97.1236 95.4189 97.2901Z" fill="black"/>
<rect width="38.6683" height="38.6683" transform="translate(116.037 77.4182)" fill="black" fill-opacity="0.05"/>
<path d="M136.853 92.8459H136.946V93.7579H136.853C136.284 93.7579 135.807 93.8509 135.424 94.0368C135.041 94.2188 134.737 94.4648 134.512 94.7746C134.287 95.0806 134.125 95.4253 134.024 95.8087C133.927 96.1921 133.879 96.5814 133.879 96.9764V98.2197C133.879 98.5954 133.923 98.9284 134.012 99.2189C134.101 99.5055 134.223 99.7476 134.378 99.9451C134.533 100.143 134.708 100.292 134.901 100.392C135.099 100.493 135.304 100.543 135.517 100.543C135.765 100.543 135.986 100.497 136.179 100.404C136.373 100.307 136.536 100.174 136.667 100.003C136.803 99.8289 136.905 99.6236 136.975 99.3874C137.045 99.1511 137.08 98.8916 137.08 98.6089C137.08 98.3572 137.049 98.1151 136.987 97.8827C136.925 97.6465 136.83 97.4373 136.702 97.2553C136.574 97.0694 136.414 96.9241 136.22 96.8196C136.03 96.7111 135.804 96.6569 135.54 96.6569C135.242 96.6569 134.963 96.7305 134.704 96.8777C134.448 97.021 134.237 97.2108 134.07 97.447C133.908 97.6794 133.815 97.9331 133.792 98.2081L133.222 98.2022C133.276 97.7685 133.377 97.3986 133.524 97.0926C133.675 96.7828 133.861 96.531 134.082 96.3374C134.307 96.1399 134.556 95.9966 134.831 95.9075C135.11 95.8145 135.405 95.768 135.715 95.768C136.137 95.768 136.501 95.8474 136.807 96.0062C137.113 96.165 137.364 96.3781 137.562 96.6453C137.759 96.9087 137.905 97.2069 137.998 97.54C138.094 97.8692 138.143 98.2081 138.143 98.5566C138.143 98.9556 138.087 99.3293 137.974 99.6779C137.862 100.026 137.694 100.332 137.469 100.596C137.248 100.859 136.975 101.064 136.65 101.212C136.325 101.359 135.947 101.432 135.517 101.432C135.06 101.432 134.661 101.339 134.32 101.153C133.979 100.964 133.697 100.712 133.472 100.398C133.247 100.085 133.079 99.736 132.967 99.3525C132.854 98.9691 132.798 98.5799 132.798 98.1848V97.6794C132.798 97.0829 132.858 96.4981 132.978 95.9249C133.098 95.3517 133.305 94.8327 133.6 94.368C133.898 93.9032 134.311 93.5333 134.837 93.2583C135.364 92.9833 136.036 92.8459 136.853 92.8459Z" fill="black"/>
<rect width="38.6683" height="38.6683" transform="translate(154.705 77.4182)" fill="black" fill-opacity="0.05"/>
<path d="M176.862 92.8575V93.4617L173.359 101.316H172.226L175.724 93.7405H171.146V92.8575H176.862Z" fill="black"/>
<rect width="38.6683" height="38.6683" transform="translate(193.374 77.4182)" fill="black" fill-opacity="0.05"/>
<path d="M215.398 99.0272C215.398 99.5423 215.277 99.98 215.037 100.34C214.801 100.696 214.48 100.968 214.073 101.153C213.67 101.339 213.215 101.432 212.708 101.432C212.2 101.432 211.743 101.339 211.337 101.153C210.93 100.968 210.609 100.696 210.372 100.34C210.136 99.98 210.018 99.5423 210.018 99.0272C210.018 98.6902 210.082 98.3823 210.21 98.1035C210.341 97.8208 210.525 97.5748 210.762 97.3657C211.002 97.1565 211.284 96.9958 211.61 96.8835C211.939 96.7673 212.301 96.7092 212.696 96.7092C213.215 96.7092 213.678 96.8099 214.085 97.0113C214.491 97.2088 214.811 97.4819 215.043 97.8304C215.279 98.179 215.398 98.5779 215.398 99.0272ZM214.317 99.004C214.317 98.6902 214.249 98.4133 214.114 98.1732C213.978 97.9292 213.788 97.7394 213.544 97.6039C213.3 97.4683 213.018 97.4005 212.696 97.4005C212.367 97.4005 212.082 97.4683 211.842 97.6039C211.606 97.7394 211.422 97.9292 211.29 98.1732C211.158 98.4133 211.093 98.6902 211.093 99.004C211.093 99.3293 211.157 99.6082 211.284 99.8405C211.416 100.069 211.602 100.245 211.842 100.369C212.086 100.489 212.375 100.549 212.708 100.549C213.041 100.549 213.327 100.489 213.568 100.369C213.808 100.245 213.992 100.069 214.119 99.8405C214.251 99.6082 214.317 99.3293 214.317 99.004ZM215.2 95.0593C215.2 95.4698 215.092 95.8397 214.875 96.1689C214.658 96.4981 214.361 96.7576 213.986 96.9474C213.61 97.1372 213.184 97.2321 212.708 97.2321C212.224 97.2321 211.792 97.1372 211.412 96.9474C211.036 96.7576 210.742 96.4981 210.529 96.1689C210.316 95.8397 210.21 95.4698 210.21 95.0593C210.21 94.5674 210.316 94.1491 210.529 93.8044C210.746 93.4597 211.042 93.1964 211.418 93.0143C211.794 92.8323 212.222 92.7413 212.702 92.7413C213.186 92.7413 213.616 92.8323 213.992 93.0143C214.367 93.1964 214.662 93.4597 214.875 93.8044C215.092 94.1491 215.2 94.5674 215.2 95.0593ZM214.125 95.0767C214.125 94.794 214.065 94.5442 213.945 94.3273C213.825 94.1104 213.659 93.94 213.446 93.816C213.232 93.6882 212.985 93.6243 212.702 93.6243C212.419 93.6243 212.171 93.6844 211.958 93.8044C211.749 93.9206 211.585 94.0872 211.464 94.304C211.348 94.5209 211.29 94.7785 211.29 95.0767C211.29 95.3672 211.348 95.6209 211.464 95.8378C211.585 96.0547 211.751 96.2231 211.964 96.3432C212.177 96.4633 212.425 96.5233 212.708 96.5233C212.99 96.5233 213.236 96.4633 213.446 96.3432C213.659 96.2231 213.825 96.0547 213.945 95.8378C214.065 95.6209 214.125 95.3672 214.125 95.0767Z" fill="black"/>
<rect width="38.6683" height="38.6683" transform="translate(232.042 77.4182)" fill="#2EA66D"/>
<path d="M249.802 100.416H249.913C250.532 100.416 251.036 100.329 251.423 100.154C251.81 99.98 252.109 99.7456 252.318 99.4513C252.527 99.1569 252.67 98.8258 252.748 98.4579C252.825 98.0861 252.864 97.7046 252.864 97.3134V96.0179C252.864 95.6344 252.819 95.2936 252.73 94.9954C252.645 94.6972 252.525 94.4473 252.37 94.2459C252.219 94.0446 252.047 93.8916 251.853 93.787C251.659 93.6824 251.454 93.6301 251.237 93.6301C250.989 93.6301 250.767 93.6805 250.569 93.7812C250.375 93.878 250.211 94.0155 250.075 94.1937C249.944 94.3718 249.843 94.581 249.773 94.8211C249.703 95.0612 249.669 95.3227 249.669 95.6054C249.669 95.8571 249.7 96.1011 249.762 96.3374C249.824 96.5736 249.918 96.7867 250.046 96.9764C250.174 97.1662 250.333 97.3173 250.523 97.4296C250.716 97.538 250.943 97.5922 251.202 97.5922C251.442 97.5922 251.667 97.5458 251.876 97.4528C252.089 97.356 252.277 97.2262 252.44 97.0636C252.606 96.897 252.738 96.7092 252.835 96.5001C252.936 96.2909 252.994 96.0721 253.009 95.8436H253.52C253.52 96.165 253.456 96.4826 253.329 96.7963C253.205 97.1062 253.03 97.3889 252.806 97.6445C252.581 97.9002 252.318 98.1054 252.016 98.2603C251.714 98.4114 251.384 98.4869 251.028 98.4869C250.61 98.4869 250.248 98.4056 249.942 98.2429C249.636 98.0802 249.384 97.8634 249.186 97.5922C248.993 97.3211 248.848 97.019 248.751 96.686C248.658 96.349 248.611 96.0082 248.611 95.6635C248.611 95.2607 248.667 94.8831 248.78 94.5306C248.892 94.1782 249.059 93.8683 249.279 93.6011C249.5 93.33 249.773 93.1189 250.099 92.9679C250.428 92.8168 250.807 92.7413 251.237 92.7413C251.721 92.7413 252.134 92.8381 252.475 93.0318C252.815 93.2254 253.092 93.4849 253.305 93.8102C253.522 94.1356 253.681 94.5016 253.782 94.9082C253.882 95.3149 253.933 95.7332 253.933 96.1631V96.5523C253.933 96.99 253.904 97.4354 253.846 97.8885C253.791 98.3378 253.685 98.7677 253.526 99.1783C253.371 99.5888 253.145 99.9567 252.846 100.282C252.548 100.604 252.159 100.859 251.679 101.049C251.202 101.235 250.614 101.328 249.913 101.328H249.802V100.416Z" fill="black"/>
<rect width="38.6683" height="38.6683" transform="translate(0.0322266 116.086)" fill="black" fill-opacity="0.38"/>
<path d="M16.849 131.479V139.984H15.7742V132.821L13.6073 133.611V132.641L16.6805 131.479H16.849ZM25.4383 135.081V136.371C25.4383 137.064 25.3763 137.649 25.2524 138.125C25.1284 138.602 24.9503 138.985 24.7179 139.276C24.4855 139.566 24.2047 139.777 23.8755 139.909C23.5502 140.037 23.1822 140.101 22.7717 140.101C22.4464 140.101 22.1462 140.06 21.8712 139.979C21.5962 139.897 21.3483 139.767 21.1276 139.589C20.9107 139.407 20.7248 139.171 20.5699 138.881C20.4149 138.59 20.2968 138.238 20.2155 137.823C20.1342 137.409 20.0935 136.925 20.0935 136.371V135.081C20.0935 134.388 20.1555 133.807 20.2794 133.338C20.4072 132.87 20.5873 132.494 20.8197 132.211C21.0521 131.925 21.3309 131.719 21.6563 131.595C21.9855 131.471 22.3534 131.409 22.7601 131.409C23.0893 131.409 23.3914 131.45 23.6664 131.531C23.9452 131.609 24.1931 131.735 24.41 131.909C24.6269 132.08 24.8108 132.308 24.9619 132.595C25.1168 132.877 25.2349 133.224 25.3163 133.635C25.3976 134.045 25.4383 134.527 25.4383 135.081ZM24.3577 136.545V134.901C24.3577 134.521 24.3345 134.188 24.288 133.902C24.2454 133.611 24.1815 133.363 24.0963 133.158C24.0111 132.953 23.9026 132.786 23.7709 132.659C23.6431 132.531 23.494 132.438 23.3236 132.38C23.1571 132.318 22.9692 132.287 22.7601 132.287C22.5044 132.287 22.2779 132.335 22.0804 132.432C21.8828 132.525 21.7163 132.674 21.5807 132.879C21.449 133.085 21.3483 133.354 21.2786 133.687C21.2089 134.02 21.1741 134.425 21.1741 134.901V136.545C21.1741 136.925 21.1954 137.26 21.238 137.55C21.2844 137.841 21.3522 138.092 21.4413 138.305C21.5304 138.515 21.6388 138.687 21.7666 138.822C21.8944 138.958 22.0416 139.059 22.2082 139.125C22.3786 139.187 22.5664 139.218 22.7717 139.218C23.0351 139.218 23.2655 139.167 23.463 139.066C23.6605 138.966 23.8252 138.809 23.9568 138.596C24.0924 138.379 24.1931 138.102 24.2589 137.765C24.3248 137.424 24.3577 137.018 24.3577 136.545Z" fill="black"/>
<rect width="38.6683" height="38.6683" transform="translate(38.7002 116.086)" fill="black" fill-opacity="0.05"/>
<path d="M55.5169 131.479V139.984H54.4422V132.821L52.2752 133.611V132.641L55.3485 131.479H55.5169ZM62.3285 131.479V139.984H61.2538V132.821L59.0868 133.611V132.641L62.16 131.479H62.3285Z" fill="black"/>
<rect width="38.6683" height="38.6683" transform="translate(77.3691 116.086)" fill="black" fill-opacity="0.05"/>
<path d="M94.1859 131.479V139.984H93.1111V132.821L90.9442 133.611V132.641L94.0174 131.479H94.1859ZM103.008 139.101V139.984H97.4711V139.212L100.242 136.127C100.583 135.747 100.846 135.426 101.032 135.162C101.222 134.895 101.354 134.657 101.427 134.448C101.505 134.235 101.544 134.018 101.544 133.797C101.544 133.518 101.485 133.267 101.369 133.042C101.257 132.813 101.09 132.631 100.87 132.496C100.649 132.36 100.382 132.293 100.068 132.293C99.6923 132.293 99.3785 132.366 99.1268 132.513C98.8789 132.657 98.693 132.858 98.5691 133.117C98.4451 133.377 98.3832 133.675 98.3832 134.012H97.3084C97.3084 133.536 97.413 133.1 97.6221 132.705C97.8313 132.31 98.1411 131.996 98.5516 131.764C98.9622 131.528 99.4676 131.409 100.068 131.409C100.602 131.409 101.059 131.504 101.439 131.694C101.819 131.88 102.109 132.143 102.31 132.484C102.516 132.821 102.618 133.216 102.618 133.669C102.618 133.917 102.576 134.169 102.491 134.425C102.409 134.676 102.295 134.928 102.148 135.18C102.004 135.432 101.836 135.68 101.642 135.924C101.453 136.168 101.249 136.408 101.032 136.644L98.7666 139.101H103.008Z" fill="black"/>
<rect width="38.6683" height="38.6683" transform="translate(116.037 116.086)" fill="black" fill-opacity="0.05"/>
<path d="M132.855 131.479V139.984H131.78V132.821L129.613 133.611V132.641L132.686 131.479H132.855ZM137.703 135.226H138.47C138.845 135.226 139.155 135.164 139.399 135.04C139.647 134.913 139.831 134.74 139.951 134.523C140.075 134.303 140.137 134.055 140.137 133.78C140.137 133.454 140.083 133.181 139.974 132.961C139.866 132.74 139.703 132.573 139.486 132.461C139.269 132.349 138.994 132.293 138.661 132.293C138.359 132.293 138.092 132.353 137.86 132.473C137.631 132.589 137.451 132.755 137.319 132.972C137.192 133.189 137.128 133.445 137.128 133.739H136.053C136.053 133.309 136.161 132.918 136.378 132.566C136.595 132.213 136.899 131.932 137.29 131.723C137.685 131.514 138.142 131.409 138.661 131.409C139.173 131.409 139.62 131.501 140.003 131.683C140.387 131.861 140.685 132.128 140.898 132.484C141.111 132.837 141.218 133.276 141.218 133.803C141.218 134.016 141.167 134.245 141.067 134.489C140.97 134.729 140.817 134.953 140.608 135.162C140.402 135.372 140.135 135.544 139.806 135.68C139.477 135.811 139.082 135.877 138.621 135.877H137.703V135.226ZM137.703 136.109V135.465H138.621C139.159 135.465 139.604 135.528 139.957 135.656C140.309 135.784 140.586 135.954 140.788 136.168C140.993 136.381 141.136 136.615 141.218 136.87C141.303 137.122 141.345 137.374 141.345 137.626C141.345 138.021 141.278 138.371 141.142 138.677C141.01 138.983 140.823 139.243 140.579 139.456C140.338 139.669 140.056 139.829 139.73 139.938C139.405 140.046 139.051 140.101 138.667 140.101C138.299 140.101 137.953 140.048 137.627 139.944C137.306 139.839 137.021 139.688 136.773 139.491C136.525 139.289 136.332 139.043 136.192 138.753C136.053 138.458 135.983 138.123 135.983 137.748H137.058C137.058 138.042 137.122 138.3 137.25 138.52C137.381 138.741 137.567 138.913 137.807 139.037C138.051 139.157 138.338 139.218 138.667 139.218C138.996 139.218 139.279 139.161 139.515 139.049C139.755 138.933 139.939 138.759 140.067 138.526C140.199 138.294 140.265 138.001 140.265 137.649C140.265 137.296 140.191 137.008 140.044 136.783C139.897 136.555 139.688 136.386 139.417 136.278C139.149 136.166 138.834 136.109 138.47 136.109H137.703Z" fill="black"/>
<rect width="38.6683" height="38.6683" transform="translate(154.705 116.086)" fill="black" fill-opacity="0.05"/>
<path d="M171.522 131.479V139.984H170.447V132.821L168.28 133.611V132.641L171.353 131.479H171.522ZM180.518 137.138V138.021H174.406V137.388L178.194 131.526H179.071L178.13 133.222L175.626 137.138H180.518ZM179.338 131.526V139.984H178.264V131.526H179.338Z" fill="black"/>
<rect width="38.6683" height="38.6683" transform="translate(193.374 116.086)" fill="#C30101"/>
<path d="M210.191 131.479V139.984H209.116V132.821L206.949 133.611V132.641L210.022 131.479H210.191ZM214.83 135.958L213.97 135.738L214.394 131.526H218.734V132.519H215.306L215.05 134.82C215.205 134.731 215.401 134.647 215.637 134.57C215.877 134.492 216.152 134.454 216.462 134.454C216.853 134.454 217.204 134.521 217.514 134.657C217.823 134.789 218.087 134.978 218.304 135.226C218.524 135.474 218.693 135.772 218.809 136.121C218.925 136.47 218.983 136.859 218.983 137.289C218.983 137.695 218.927 138.069 218.815 138.41C218.706 138.751 218.542 139.049 218.321 139.305C218.1 139.556 217.821 139.752 217.485 139.891C217.151 140.031 216.758 140.101 216.305 140.101C215.964 140.101 215.641 140.054 215.335 139.961C215.033 139.864 214.762 139.719 214.522 139.525C214.285 139.328 214.092 139.084 213.941 138.793C213.794 138.499 213.701 138.154 213.662 137.759H214.684C214.731 138.077 214.824 138.344 214.963 138.561C215.103 138.778 215.285 138.943 215.509 139.055C215.738 139.163 216.003 139.218 216.305 139.218C216.561 139.218 216.787 139.173 216.985 139.084C217.182 138.995 217.349 138.867 217.485 138.7C217.62 138.534 217.723 138.333 217.792 138.096C217.866 137.86 217.903 137.595 217.903 137.3C217.903 137.033 217.866 136.785 217.792 136.557C217.719 136.328 217.608 136.129 217.461 135.958C217.318 135.788 217.142 135.656 216.933 135.563C216.723 135.466 216.483 135.418 216.212 135.418C215.852 135.418 215.579 135.466 215.393 135.563C215.211 135.66 215.023 135.792 214.83 135.958Z" fill="white"/>
<rect width="38.6683" height="38.6683" transform="translate(232.042 116.086)" fill="black" fill-opacity="0.38"/>
<path d="M248.86 131.479V139.984H247.785V132.821L245.618 133.611V132.641L248.691 131.479H248.86ZM256.264 131.514H256.357V132.426H256.264C255.695 132.426 255.218 132.519 254.835 132.705C254.451 132.887 254.147 133.133 253.923 133.443C253.698 133.749 253.535 134.093 253.435 134.477C253.338 134.86 253.289 135.25 253.289 135.645V136.888C253.289 137.264 253.334 137.597 253.423 137.887C253.512 138.174 253.634 138.416 253.789 138.613C253.944 138.811 254.118 138.96 254.312 139.061C254.509 139.161 254.715 139.212 254.928 139.212C255.176 139.212 255.396 139.165 255.59 139.072C255.784 138.975 255.946 138.842 256.078 138.671C256.214 138.497 256.316 138.292 256.386 138.056C256.456 137.819 256.49 137.56 256.49 137.277C256.49 137.025 256.459 136.783 256.397 136.551C256.336 136.315 256.241 136.106 256.113 135.924C255.985 135.738 255.824 135.592 255.631 135.488C255.441 135.379 255.214 135.325 254.951 135.325C254.653 135.325 254.374 135.399 254.114 135.546C253.859 135.689 253.648 135.879 253.481 136.115C253.318 136.348 253.225 136.601 253.202 136.876L252.633 136.87C252.687 136.437 252.788 136.067 252.935 135.761C253.086 135.451 253.272 135.199 253.493 135.006C253.717 134.808 253.967 134.665 254.242 134.576C254.521 134.483 254.815 134.436 255.125 134.436C255.547 134.436 255.911 134.516 256.217 134.674C256.523 134.833 256.775 135.046 256.973 135.314C257.17 135.577 257.315 135.875 257.408 136.208C257.505 136.537 257.554 136.876 257.554 137.225C257.554 137.624 257.497 137.998 257.385 138.346C257.273 138.695 257.104 139.001 256.88 139.264C256.659 139.527 256.386 139.733 256.061 139.88C255.735 140.027 255.358 140.101 254.928 140.101C254.471 140.101 254.072 140.008 253.731 139.822C253.39 139.632 253.107 139.38 252.883 139.066C252.658 138.753 252.49 138.404 252.377 138.021C252.265 137.637 252.209 137.248 252.209 136.853V136.348C252.209 135.751 252.269 135.166 252.389 134.593C252.509 134.02 252.716 133.501 253.011 133.036C253.309 132.571 253.721 132.202 254.248 131.927C254.775 131.652 255.447 131.514 256.264 131.514Z" fill="black"/>
<rect width="38.6683" height="38.6683" transform="translate(0.0322266 154.755)" fill="black" fill-opacity="0.38"/>
<path d="M16.849 170.148V178.653H15.7742V171.49L13.6073 172.28V171.31L16.6805 170.148H16.849ZM25.5951 170.194V170.798L22.092 178.653H20.9591L24.4565 171.077H19.8785V170.194H25.5951Z" fill="black"/>
<rect width="38.6683" height="38.6683" transform="translate(38.7002 154.755)" fill="black" fill-opacity="0.05"/>
<path d="M55.5169 170.148V178.653H54.4422V171.49L52.2752 172.28V171.31L55.3485 170.148H55.5169ZM64.1295 176.364C64.1295 176.879 64.0094 177.317 63.7693 177.677C63.533 178.033 63.2116 178.304 62.8049 178.49C62.4021 178.676 61.947 178.769 61.4397 178.769C60.9323 178.769 60.4753 178.676 60.0686 178.49C59.6619 178.304 59.3405 178.033 59.1042 177.677C58.868 177.317 58.7498 176.879 58.7498 176.364C58.7498 176.027 58.8137 175.719 58.9416 175.44C59.0732 175.157 59.2572 174.911 59.4935 174.702C59.7336 174.493 60.0163 174.332 60.3417 174.22C60.6709 174.104 61.033 174.046 61.428 174.046C61.947 174.046 62.4098 174.147 62.8165 174.348C63.2232 174.545 63.5427 174.819 63.7751 175.167C64.0113 175.516 64.1295 175.915 64.1295 176.364ZM63.0489 176.341C63.0489 176.027 62.9811 175.75 62.8456 175.51C62.71 175.266 62.5202 175.076 62.2762 174.941C62.0322 174.805 61.7495 174.737 61.428 174.737C61.0988 174.737 60.8142 174.805 60.574 174.941C60.3378 175.076 60.1538 175.266 60.0221 175.51C59.8904 175.75 59.8246 176.027 59.8246 176.341C59.8246 176.666 59.8885 176.945 60.0163 177.177C60.148 177.406 60.3339 177.582 60.574 177.706C60.818 177.826 61.1066 177.886 61.4397 177.886C61.7727 177.886 62.0593 177.826 62.2995 177.706C62.5396 177.582 62.7236 177.406 62.8514 177.177C62.9831 176.945 63.0489 176.666 63.0489 176.341ZM63.9319 172.396C63.9319 172.806 63.8235 173.176 63.6066 173.506C63.3897 173.835 63.0934 174.094 62.7178 174.284C62.3421 174.474 61.916 174.569 61.4397 174.569C60.9555 174.569 60.5237 174.474 60.1441 174.284C59.7684 174.094 59.4741 173.835 59.2611 173.506C59.0481 173.176 58.9416 172.806 58.9416 172.396C58.9416 171.904 59.0481 171.486 59.2611 171.141C59.478 170.796 59.7743 170.533 60.1499 170.351C60.5256 170.169 60.9536 170.078 61.4338 170.078C61.918 170.078 62.3479 170.169 62.7236 170.351C63.0992 170.533 63.3936 170.796 63.6066 171.141C63.8235 171.486 63.9319 171.904 63.9319 172.396ZM62.8572 172.413C62.8572 172.131 62.7972 171.881 62.6771 171.664C62.557 171.447 62.3905 171.277 62.1775 171.153C61.9645 171.025 61.7166 170.961 61.4338 170.961C61.1511 170.961 60.9032 171.021 60.6902 171.141C60.4811 171.257 60.3165 171.424 60.1964 171.641C60.0802 171.858 60.0221 172.115 60.0221 172.413C60.0221 172.704 60.0802 172.958 60.1964 173.174C60.3165 173.391 60.483 173.56 60.696 173.68C60.9091 173.8 61.1569 173.86 61.4397 173.86C61.7224 173.86 61.9683 173.8 62.1775 173.68C62.3905 173.56 62.557 173.391 62.6771 173.174C62.7972 172.958 62.8572 172.704 62.8572 172.413Z" fill="black"/>
<rect width="38.6683" height="38.6683" transform="translate(77.3691 154.755)" fill="black" fill-opacity="0.05"/>
<path d="M94.1859 170.148V178.653H93.1111V171.49L90.9442 172.28V171.31L94.0174 170.148H94.1859ZM98.5342 177.752H98.6446C99.2643 177.752 99.7678 177.665 100.155 177.491C100.542 177.317 100.841 177.082 101.05 176.788C101.259 176.494 101.402 176.162 101.48 175.795C101.557 175.423 101.596 175.041 101.596 174.65V173.355C101.596 172.971 101.551 172.63 101.462 172.332C101.377 172.034 101.257 171.784 101.102 171.583C100.951 171.381 100.779 171.228 100.585 171.124C100.391 171.019 100.186 170.967 99.9692 170.967C99.7213 170.967 99.4986 171.017 99.3011 171.118C99.1074 171.215 98.9428 171.352 98.8073 171.53C98.6756 171.708 98.5749 171.918 98.5052 172.158C98.4355 172.398 98.4006 172.659 98.4006 172.942C98.4006 173.194 98.4316 173.438 98.4935 173.674C98.5555 173.91 98.6504 174.123 98.7782 174.313C98.906 174.503 99.0648 174.654 99.2546 174.766C99.4482 174.875 99.6748 174.929 99.9343 174.929C100.174 174.929 100.399 174.882 100.608 174.789C100.821 174.693 101.009 174.563 101.172 174.4C101.338 174.234 101.47 174.046 101.567 173.837C101.667 173.628 101.726 173.409 101.741 173.18H102.252C102.252 173.502 102.188 173.819 102.061 174.133C101.937 174.443 101.762 174.726 101.538 174.981C101.313 175.237 101.05 175.442 100.748 175.597C100.446 175.748 100.116 175.824 99.76 175.824C99.3417 175.824 98.9796 175.742 98.6736 175.58C98.3677 175.417 98.1159 175.2 97.9184 174.929C97.7248 174.658 97.5795 174.356 97.4827 174.023C97.3897 173.686 97.3433 173.345 97.3433 173C97.3433 172.597 97.3994 172.22 97.5117 171.867C97.6241 171.515 97.7906 171.205 98.0114 170.938C98.2321 170.667 98.5052 170.456 98.8305 170.305C99.1597 170.153 99.5393 170.078 99.9692 170.078C100.453 170.078 100.866 170.175 101.207 170.368C101.547 170.562 101.824 170.822 102.037 171.147C102.254 171.472 102.413 171.838 102.514 172.245C102.614 172.652 102.665 173.07 102.665 173.5V173.889C102.665 174.327 102.636 174.772 102.578 175.225C102.523 175.674 102.417 176.104 102.258 176.515C102.103 176.925 101.877 177.293 101.578 177.619C101.28 177.94 100.891 178.196 100.411 178.386C99.9343 178.571 99.3456 178.664 98.6446 178.664H98.5342V177.752Z" fill="black"/>
<rect width="38.6683" height="38.6683" transform="translate(116.037 154.755)" fill="black" fill-opacity="0.05"/>
<path d="M134.865 177.77V178.653H129.328V177.88L132.1 174.795C132.44 174.416 132.704 174.094 132.89 173.831C133.079 173.564 133.211 173.325 133.285 173.116C133.362 172.903 133.401 172.686 133.401 172.466C133.401 172.187 133.343 171.935 133.227 171.71C133.114 171.482 132.948 171.3 132.727 171.164C132.506 171.029 132.239 170.961 131.925 170.961C131.55 170.961 131.236 171.035 130.984 171.182C130.736 171.325 130.55 171.526 130.426 171.786C130.303 172.045 130.241 172.344 130.241 172.681H129.166C129.166 172.204 129.27 171.769 129.479 171.373C129.689 170.978 129.998 170.665 130.409 170.432C130.82 170.196 131.325 170.078 131.925 170.078C132.46 170.078 132.917 170.173 133.296 170.363C133.676 170.549 133.966 170.812 134.168 171.153C134.373 171.49 134.476 171.885 134.476 172.338C134.476 172.586 134.433 172.837 134.348 173.093C134.267 173.345 134.152 173.597 134.005 173.848C133.862 174.1 133.693 174.348 133.5 174.592C133.31 174.836 133.107 175.076 132.89 175.312L130.624 177.77H134.865ZM141.444 173.75V175.039C141.444 175.733 141.382 176.317 141.258 176.794C141.134 177.27 140.956 177.654 140.724 177.944C140.491 178.235 140.211 178.446 139.881 178.577C139.556 178.705 139.188 178.769 138.778 178.769C138.452 178.769 138.152 178.728 137.877 178.647C137.602 178.566 137.354 178.436 137.133 178.258C136.917 178.076 136.731 177.839 136.576 177.549C136.421 177.259 136.303 176.906 136.221 176.492C136.14 176.077 136.099 175.593 136.099 175.039V173.75C136.099 173.056 136.161 172.475 136.285 172.007C136.413 171.538 136.593 171.162 136.826 170.88C137.058 170.593 137.337 170.388 137.662 170.264C137.991 170.14 138.359 170.078 138.766 170.078C139.095 170.078 139.397 170.119 139.672 170.2C139.951 170.277 140.199 170.403 140.416 170.578C140.633 170.748 140.817 170.976 140.968 171.263C141.123 171.546 141.241 171.892 141.322 172.303C141.403 172.714 141.444 173.196 141.444 173.75ZM140.364 175.214V173.569C140.364 173.19 140.34 172.857 140.294 172.57C140.251 172.28 140.187 172.032 140.102 171.827C140.017 171.621 139.908 171.455 139.777 171.327C139.649 171.199 139.5 171.106 139.329 171.048C139.163 170.986 138.975 170.955 138.766 170.955C138.51 170.955 138.284 171.004 138.086 171.1C137.889 171.193 137.722 171.342 137.587 171.548C137.455 171.753 137.354 172.022 137.284 172.355C137.215 172.688 137.18 173.093 137.18 173.569V175.214C137.18 175.593 137.201 175.928 137.244 176.219C137.29 176.509 137.358 176.761 137.447 176.974C137.536 177.183 137.645 177.355 137.772 177.491C137.9 177.626 138.047 177.727 138.214 177.793C138.384 177.855 138.572 177.886 138.778 177.886C139.041 177.886 139.271 177.836 139.469 177.735C139.666 177.634 139.831 177.477 139.963 177.264C140.098 177.047 140.199 176.771 140.265 176.434C140.331 176.093 140.364 175.686 140.364 175.214Z" fill="black"/>
<rect width="38.6683" height="38.6683" transform="translate(154.705 154.755)" fill="#C30101"/>
<path d="M173.532 177.77V178.653H167.995V177.88L170.767 174.795C171.107 174.416 171.371 174.094 171.557 173.831C171.746 173.564 171.878 173.325 171.952 173.116C172.029 172.903 172.068 172.686 172.068 172.466C172.068 172.187 172.01 171.935 171.894 171.71C171.781 171.482 171.615 171.3 171.394 171.164C171.173 171.029 170.906 170.961 170.592 170.961C170.217 170.961 169.903 171.035 169.651 171.182C169.403 171.325 169.217 171.526 169.093 171.786C168.97 172.045 168.908 172.344 168.908 172.681H167.833C167.833 172.204 167.937 171.769 168.146 171.373C168.356 170.978 168.665 170.665 169.076 170.432C169.487 170.196 169.992 170.078 170.592 170.078C171.127 170.078 171.584 170.173 171.963 170.363C172.343 170.549 172.633 170.812 172.835 171.153C173.04 171.49 173.143 171.885 173.143 172.338C173.143 172.586 173.1 172.837 173.015 173.093C172.934 173.345 172.819 173.597 172.672 173.848C172.529 174.1 172.36 174.348 172.167 174.592C171.977 174.836 171.774 175.076 171.557 175.312L169.291 177.77H173.532ZM178.333 170.148V178.653H177.259V171.49L175.092 172.28V171.31L178.165 170.148H178.333Z" fill="white"/>
<rect width="38.6683" height="38.6683" transform="translate(193.374 154.755)" fill="#C30101"/>
<path d="M212.201 177.77V178.653H206.664V177.88L209.436 174.795C209.776 174.416 210.04 174.094 210.226 173.831C210.415 173.564 210.547 173.325 210.621 173.116C210.698 172.903 210.737 172.686 210.737 172.466C210.737 172.187 210.679 171.935 210.563 171.71C210.45 171.482 210.284 171.3 210.063 171.164C209.842 171.029 209.575 170.961 209.261 170.961C208.886 170.961 208.572 171.035 208.32 171.182C208.072 171.325 207.886 171.526 207.762 171.786C207.638 172.045 207.576 172.344 207.576 172.681H206.502C206.502 172.204 206.606 171.769 206.815 171.373C207.025 170.978 207.334 170.665 207.745 170.432C208.155 170.196 208.661 170.078 209.261 170.078C209.796 170.078 210.253 170.173 210.632 170.363C211.012 170.549 211.302 170.812 211.504 171.153C211.709 171.49 211.812 171.885 211.812 172.338C211.812 172.586 211.769 172.837 211.684 173.093C211.602 173.345 211.488 173.597 211.341 173.848C211.198 174.1 211.029 174.348 210.836 174.592C210.646 174.836 210.443 175.076 210.226 175.312L207.96 177.77H212.201ZM219.012 177.77V178.653H213.476V177.88L216.247 174.795C216.588 174.416 216.851 174.094 217.037 173.831C217.227 173.564 217.359 173.325 217.432 173.116C217.51 172.903 217.548 172.686 217.548 172.466C217.548 172.187 217.49 171.935 217.374 171.71C217.262 171.482 217.095 171.3 216.875 171.164C216.654 171.029 216.387 170.961 216.073 170.961C215.697 170.961 215.383 171.035 215.132 171.182C214.884 171.325 214.698 171.526 214.574 171.786C214.45 172.045 214.388 172.344 214.388 172.681H213.313C213.313 172.204 213.418 171.769 213.627 171.373C213.836 170.978 214.146 170.665 214.557 170.432C214.967 170.196 215.472 170.078 216.073 170.078C216.607 170.078 217.064 170.173 217.444 170.363C217.823 170.549 218.114 170.812 218.315 171.153C218.521 171.49 218.623 171.885 218.623 172.338C218.623 172.586 218.581 172.837 218.495 173.093C218.414 173.345 218.3 173.597 218.153 173.848C218.009 174.1 217.841 174.348 217.647 174.592C217.457 174.836 217.254 175.076 217.037 175.312L214.771 177.77H219.012Z" fill="white"/>
<rect width="38.6683" height="38.6683" transform="translate(232.042 154.755)" fill="black" fill-opacity="0.38"/>
<path d="M250.87 177.77V178.653H245.333V177.88L248.104 174.795C248.445 174.416 248.709 174.094 248.895 173.831C249.084 173.564 249.216 173.325 249.29 173.116C249.367 172.903 249.406 172.686 249.406 172.466C249.406 172.187 249.348 171.935 249.232 171.71C249.119 171.482 248.953 171.3 248.732 171.164C248.511 171.029 248.244 170.961 247.93 170.961C247.555 170.961 247.241 171.035 246.989 171.182C246.741 171.325 246.555 171.526 246.431 171.786C246.307 172.045 246.245 172.344 246.245 172.681H245.171C245.171 172.204 245.275 171.769 245.484 171.373C245.694 170.978 246.003 170.665 246.414 170.432C246.824 170.196 247.33 170.078 247.93 170.078C248.465 170.078 248.922 170.173 249.301 170.363C249.681 170.549 249.971 170.812 250.173 171.153C250.378 171.49 250.481 171.885 250.481 172.338C250.481 172.586 250.438 172.837 250.353 173.093C250.271 173.345 250.157 173.597 250.01 173.848C249.867 174.1 249.698 174.348 249.505 174.592C249.315 174.836 249.111 175.076 248.895 175.312L246.629 177.77H250.87ZM253.708 173.895H254.475C254.85 173.895 255.16 173.833 255.404 173.709C255.652 173.581 255.836 173.409 255.956 173.192C256.08 172.971 256.142 172.723 256.142 172.448C256.142 172.123 256.088 171.85 255.979 171.629C255.871 171.408 255.708 171.242 255.491 171.129C255.274 171.017 254.999 170.961 254.666 170.961C254.364 170.961 254.097 171.021 253.865 171.141C253.636 171.257 253.456 171.424 253.324 171.641C253.196 171.858 253.133 172.113 253.133 172.408H252.058C252.058 171.978 252.166 171.586 252.383 171.234C252.6 170.882 252.904 170.601 253.295 170.392C253.69 170.183 254.147 170.078 254.666 170.078C255.177 170.078 255.625 170.169 256.008 170.351C256.392 170.529 256.69 170.796 256.903 171.153C257.116 171.505 257.222 171.945 257.222 172.471C257.222 172.684 257.172 172.913 257.071 173.157C256.975 173.397 256.822 173.622 256.612 173.831C256.407 174.04 256.14 174.212 255.811 174.348C255.482 174.48 255.086 174.545 254.626 174.545H253.708V173.895ZM253.708 174.778V174.133H254.626C255.164 174.133 255.609 174.197 255.962 174.325C256.314 174.453 256.591 174.623 256.793 174.836C256.998 175.049 257.141 175.283 257.222 175.539C257.308 175.791 257.35 176.042 257.35 176.294C257.35 176.689 257.282 177.04 257.147 177.346C257.015 177.652 256.827 177.911 256.583 178.124C256.343 178.337 256.061 178.498 255.735 178.606C255.41 178.715 255.055 178.769 254.672 178.769C254.304 178.769 253.957 178.717 253.632 178.612C253.311 178.508 253.026 178.357 252.778 178.159C252.53 177.958 252.337 177.712 252.197 177.421C252.058 177.127 251.988 176.792 251.988 176.416H253.063C253.063 176.711 253.127 176.968 253.255 177.189C253.386 177.41 253.572 177.582 253.812 177.706C254.056 177.826 254.343 177.886 254.672 177.886C255.001 177.886 255.284 177.83 255.52 177.717C255.76 177.601 255.944 177.427 256.072 177.195C256.204 176.962 256.27 176.67 256.27 176.317C256.27 175.965 256.196 175.676 256.049 175.452C255.902 175.223 255.693 175.055 255.421 174.946C255.154 174.834 254.839 174.778 254.475 174.778H253.708Z" fill="black"/>
<rect width="38.6683" height="38.6683" transform="translate(0.0322266 193.423)" fill="black" fill-opacity="0.38"/>
<path d="M18.8591 216.438V217.321H13.3226V216.548L16.0937 213.464C16.4346 213.084 16.6979 212.762 16.8838 212.499C17.0736 212.232 17.2053 211.994 17.2789 211.785C17.3563 211.572 17.3951 211.355 17.3951 211.134C17.3951 210.855 17.337 210.603 17.2208 210.379C17.1085 210.15 16.9419 209.968 16.7212 209.833C16.5004 209.697 16.2332 209.629 15.9194 209.629C15.5438 209.629 15.23 209.703 14.9783 209.85C14.7304 209.993 14.5445 210.195 14.4206 210.454C14.2966 210.714 14.2347 211.012 14.2347 211.349H13.1599C13.1599 210.872 13.2645 210.437 13.4736 210.042C13.6828 209.647 13.9926 209.333 14.4032 209.101C14.8137 208.864 15.3191 208.746 15.9194 208.746C16.4539 208.746 16.9109 208.841 17.2905 209.031C17.6701 209.217 17.9605 209.48 18.1619 209.821C18.3672 210.158 18.4698 210.553 18.4698 211.006C18.4698 211.254 18.4272 211.506 18.342 211.761C18.2607 212.013 18.1464 212.265 17.9993 212.517C17.856 212.768 17.6875 213.016 17.4938 213.26C17.3041 213.504 17.1007 213.744 16.8838 213.981L14.6181 216.438H18.8591ZM25.8449 214.474V215.357H19.7333V214.724L23.5211 208.862H24.3984L23.4572 210.559L20.9533 214.474H25.8449ZM24.6656 208.862V217.321H23.5908V208.862H24.6656Z" fill="black"/>
<rect width="38.6683" height="38.6683" transform="translate(38.7002 193.423)" fill="black" fill-opacity="0.05"/>
<path d="M57.527 216.438V217.321H51.9906V216.548L54.7617 213.464C55.1025 213.084 55.3659 212.762 55.5518 212.499C55.7416 212.232 55.8733 211.994 55.9468 211.785C56.0243 211.572 56.063 211.355 56.063 211.134C56.063 210.855 56.0049 210.603 55.8888 210.379C55.7764 210.15 55.6099 209.968 55.3891 209.833C55.1684 209.697 54.9011 209.629 54.5874 209.629C54.2117 209.629 53.898 209.703 53.6463 209.85C53.3984 209.993 53.2125 210.195 53.0886 210.454C52.9646 210.714 52.9027 211.012 52.9027 211.349H51.8279C51.8279 210.872 51.9325 210.437 52.1416 210.042C52.3507 209.647 52.6606 209.333 53.0711 209.101C53.4817 208.864 53.9871 208.746 54.5874 208.746C55.1219 208.746 55.5789 208.841 55.9585 209.031C56.338 209.217 56.6285 209.48 56.8299 209.821C57.0352 210.158 57.1378 210.553 57.1378 211.006C57.1378 211.254 57.0952 211.506 57.01 211.761C56.9287 212.013 56.8144 212.265 56.6672 212.517C56.5239 212.768 56.3555 213.016 56.1618 213.26C55.972 213.504 55.7687 213.744 55.5518 213.981L53.2861 216.438H57.527ZM60.1557 213.295L59.2959 213.074L59.72 208.862H64.0598V209.856H60.6321L60.3765 212.156C60.5314 212.067 60.727 211.984 60.9633 211.907C61.2034 211.829 61.4784 211.79 61.7882 211.79C62.1794 211.79 62.5299 211.858 62.8398 211.994C63.1496 212.125 63.413 212.315 63.6299 212.563C63.8506 212.811 64.0191 213.109 64.1353 213.458C64.2515 213.806 64.3096 214.196 64.3096 214.625C64.3096 215.032 64.2534 215.406 64.1411 215.747C64.0326 216.087 63.868 216.386 63.6473 216.641C63.4265 216.893 63.1477 217.089 62.8107 217.228C62.4776 217.368 62.0845 217.437 61.6314 217.437C61.2905 217.437 60.9671 217.391 60.6612 217.298C60.3591 217.201 60.088 217.056 59.8478 216.862C59.6116 216.665 59.4179 216.421 59.2669 216.13C59.1197 215.836 59.0268 215.491 58.988 215.096H60.0105C60.057 215.414 60.1499 215.681 60.2894 215.898C60.4288 216.115 60.6108 216.279 60.8355 216.392C61.064 216.5 61.3293 216.554 61.6314 216.554C61.887 216.554 62.1136 216.51 62.3111 216.421C62.5086 216.331 62.6752 216.204 62.8107 216.037C62.9463 215.871 63.0489 215.669 63.1186 215.433C63.1922 215.197 63.229 214.931 63.229 214.637C63.229 214.37 63.1922 214.122 63.1186 213.893C63.045 213.665 62.9346 213.465 62.7875 213.295C62.6442 213.125 62.4679 212.993 62.2588 212.9C62.0497 212.803 61.8095 212.755 61.5384 212.755C61.1782 212.755 60.9052 212.803 60.7193 212.9C60.5372 212.997 60.3494 213.128 60.1557 213.295Z" fill="black"/>
<rect width="38.6683" height="38.6683" transform="translate(77.3691 193.423)" fill="black" fill-opacity="0.05"/>
<path d="M96.196 216.438V217.321H90.6595V216.548L93.4306 213.464C93.7715 213.084 94.0348 212.762 94.2207 212.499C94.4105 212.232 94.5422 211.994 94.6158 211.785C94.6933 211.572 94.732 211.355 94.732 211.134C94.732 210.855 94.6739 210.603 94.5577 210.379C94.4454 210.15 94.2788 209.968 94.0581 209.833C93.8373 209.697 93.5701 209.629 93.2564 209.629C92.8807 209.629 92.567 209.703 92.3152 209.85C92.0673 209.993 91.8814 210.195 91.7575 210.454C91.6336 210.714 91.5716 211.012 91.5716 211.349H90.4968C90.4968 210.872 90.6014 210.437 90.8105 210.042C91.0197 209.647 91.3295 209.333 91.7401 209.101C92.1506 208.864 92.656 208.746 93.2564 208.746C93.7908 208.746 94.2479 208.841 94.6274 209.031C95.007 209.217 95.2974 209.48 95.4988 209.821C95.7041 210.158 95.8068 210.553 95.8068 211.006C95.8068 211.254 95.7641 211.506 95.6789 211.761C95.5976 212.013 95.4834 212.265 95.3362 212.517C95.1929 212.768 95.0244 213.016 94.8307 213.26C94.641 213.504 94.4376 213.744 94.2207 213.981L91.955 216.438H96.196ZM101.59 208.851H101.683V209.763H101.59C101.021 209.763 100.544 209.856 100.161 210.042C99.7775 210.224 99.4734 210.47 99.2488 210.78C99.0242 211.085 98.8615 211.43 98.7608 211.814C98.664 212.197 98.6155 212.586 98.6155 212.981V214.225C98.6155 214.6 98.6601 214.933 98.7492 215.224C98.8382 215.51 98.9602 215.752 99.1152 215.95C99.2701 216.148 99.4444 216.297 99.638 216.397C99.8356 216.498 100.041 216.548 100.254 216.548C100.502 216.548 100.722 216.502 100.916 216.409C101.11 216.312 101.272 216.179 101.404 216.008C101.54 215.834 101.642 215.629 101.712 215.392C101.782 215.156 101.817 214.897 101.817 214.614C101.817 214.362 101.786 214.12 101.724 213.888C101.662 213.651 101.567 213.442 101.439 213.26C101.311 213.074 101.15 212.929 100.957 212.824C100.767 212.716 100.54 212.662 100.277 212.662C99.9789 212.662 99.7 212.735 99.4405 212.883C99.1849 213.026 98.9738 213.216 98.8073 213.452C98.6446 213.684 98.5516 213.938 98.5284 214.213L97.9591 214.207C98.0133 213.773 98.114 213.403 98.2612 213.098C98.4122 212.788 98.5981 212.536 98.8189 212.342C99.0435 212.145 99.2933 212.001 99.5683 211.912C99.8472 211.819 100.142 211.773 100.451 211.773C100.874 211.773 101.238 211.852 101.544 212.011C101.85 212.17 102.101 212.383 102.299 212.65C102.496 212.914 102.642 213.212 102.735 213.545C102.831 213.874 102.88 214.213 102.88 214.562C102.88 214.96 102.824 215.334 102.711 215.683C102.599 216.031 102.43 216.337 102.206 216.601C101.985 216.864 101.712 217.069 101.387 217.216C101.061 217.364 100.684 217.437 100.254 217.437C99.7968 217.437 99.3979 217.344 99.0571 217.158C98.7162 216.969 98.4335 216.717 98.2089 216.403C97.9842 216.089 97.8158 215.741 97.7035 215.357C97.5911 214.974 97.535 214.585 97.535 214.19V213.684C97.535 213.088 97.595 212.503 97.7151 211.93C97.8351 211.357 98.0423 210.838 98.3367 210.373C98.6349 209.908 99.0474 209.538 99.5741 209.263C100.101 208.988 100.773 208.851 101.59 208.851Z" fill="black"/>
<rect width="38.6683" height="38.6683" transform="translate(116.037 193.423)" fill="black" fill-opacity="0.05"/>
<path d="M134.865 216.438V217.321H129.328V216.548L132.1 213.464C132.44 213.084 132.704 212.762 132.89 212.499C133.079 212.232 133.211 211.994 133.285 211.785C133.362 211.572 133.401 211.355 133.401 211.134C133.401 210.855 133.343 210.603 133.227 210.379C133.114 210.15 132.948 209.968 132.727 209.833C132.506 209.697 132.239 209.629 131.925 209.629C131.55 209.629 131.236 209.703 130.984 209.85C130.736 209.993 130.55 210.195 130.426 210.454C130.303 210.714 130.241 211.012 130.241 211.349H129.166C129.166 210.872 129.27 210.437 129.479 210.042C129.689 209.647 129.998 209.333 130.409 209.101C130.82 208.864 131.325 208.746 131.925 208.746C132.46 208.746 132.917 208.841 133.296 209.031C133.676 209.217 133.966 209.48 134.168 209.821C134.373 210.158 134.476 210.553 134.476 211.006C134.476 211.254 134.433 211.506 134.348 211.761C134.267 212.013 134.152 212.265 134.005 212.517C133.862 212.768 133.693 213.016 133.5 213.26C133.31 213.504 133.107 213.744 132.89 213.981L130.624 216.438H134.865ZM141.601 208.862V209.467L138.098 217.321H136.965L140.462 209.745H135.884V208.862H141.601Z" fill="black"/>
<rect width="38.6683" height="38.6683" transform="translate(154.705 193.423)" fill="black" fill-opacity="0.05"/>
<path d="M173.532 216.438V217.321H167.995V216.548L170.767 213.464C171.107 213.084 171.371 212.762 171.557 212.499C171.746 212.232 171.878 211.994 171.952 211.785C172.029 211.572 172.068 211.355 172.068 211.134C172.068 210.855 172.01 210.603 171.894 210.379C171.781 210.15 171.615 209.968 171.394 209.833C171.173 209.697 170.906 209.629 170.592 209.629C170.217 209.629 169.903 209.703 169.651 209.85C169.403 209.993 169.217 210.195 169.093 210.454C168.97 210.714 168.908 211.012 168.908 211.349H167.833C167.833 210.872 167.937 210.437 168.146 210.042C168.356 209.647 168.665 209.333 169.076 209.101C169.487 208.864 169.992 208.746 170.592 208.746C171.127 208.746 171.584 208.841 171.963 209.031C172.343 209.217 172.633 209.48 172.835 209.821C173.04 210.158 173.143 210.553 173.143 211.006C173.143 211.254 173.1 211.506 173.015 211.761C172.934 212.013 172.819 212.265 172.672 212.517C172.529 212.768 172.36 213.016 172.167 213.26C171.977 213.504 171.774 213.744 171.557 213.981L169.291 216.438H173.532ZM180.134 215.032C180.134 215.547 180.014 215.985 179.774 216.345C179.538 216.701 179.216 216.972 178.81 217.158C178.407 217.344 177.952 217.437 177.445 217.437C176.937 217.437 176.48 217.344 176.073 217.158C175.667 216.972 175.345 216.701 175.109 216.345C174.873 215.985 174.755 215.547 174.755 215.032C174.755 214.695 174.819 214.387 174.946 214.108C175.078 213.826 175.262 213.58 175.498 213.371C175.738 213.161 176.021 213.001 176.347 212.888C176.676 212.772 177.038 212.714 177.433 212.714C177.952 212.714 178.415 212.815 178.821 213.016C179.228 213.214 179.548 213.487 179.78 213.835C180.016 214.184 180.134 214.583 180.134 215.032ZM179.054 215.009C179.054 214.695 178.986 214.418 178.85 214.178C178.715 213.934 178.525 213.744 178.281 213.609C178.037 213.473 177.754 213.405 177.433 213.405C177.104 213.405 176.819 213.473 176.579 213.609C176.343 213.744 176.159 213.934 176.027 214.178C175.895 214.418 175.829 214.695 175.829 215.009C175.829 215.334 175.893 215.613 176.021 215.845C176.153 216.074 176.339 216.25 176.579 216.374C176.823 216.494 177.111 216.554 177.445 216.554C177.778 216.554 178.064 216.494 178.304 216.374C178.544 216.25 178.728 216.074 178.856 215.845C178.988 215.613 179.054 215.334 179.054 215.009ZM179.937 211.064C179.937 211.475 179.828 211.845 179.611 212.174C179.395 212.503 179.098 212.762 178.723 212.952C178.347 213.142 177.921 213.237 177.445 213.237C176.96 213.237 176.529 213.142 176.149 212.952C175.773 212.762 175.479 212.503 175.266 212.174C175.053 211.845 174.946 211.475 174.946 211.064C174.946 210.572 175.053 210.154 175.266 209.809C175.483 209.465 175.779 209.201 176.155 209.019C176.531 208.837 176.958 208.746 177.439 208.746C177.923 208.746 178.353 208.837 178.728 209.019C179.104 209.201 179.398 209.465 179.611 209.809C179.828 210.154 179.937 210.572 179.937 211.064ZM178.862 211.082C178.862 210.799 178.802 210.549 178.682 210.332C178.562 210.115 178.395 209.945 178.182 209.821C177.969 209.693 177.721 209.629 177.439 209.629C177.156 209.629 176.908 209.689 176.695 209.809C176.486 209.925 176.321 210.092 176.201 210.309C176.085 210.526 176.027 210.783 176.027 211.082C176.027 211.372 176.085 211.626 176.201 211.843C176.321 212.06 176.488 212.228 176.701 212.348C176.914 212.468 177.162 212.528 177.445 212.528C177.727 212.528 177.973 212.468 178.182 212.348C178.395 212.228 178.562 212.06 178.682 211.843C178.802 211.626 178.862 211.372 178.862 211.082Z" fill="black"/>
<rect width="38.6683" height="38.6683" transform="translate(193.374 193.423)" fill="black" fill-opacity="0.05"/>
<path d="M212.201 216.438V217.321H206.664V216.548L209.436 213.464C209.776 213.084 210.04 212.762 210.226 212.499C210.415 212.232 210.547 211.994 210.621 211.785C210.698 211.572 210.737 211.355 210.737 211.134C210.737 210.855 210.679 210.603 210.563 210.379C210.45 210.15 210.284 209.968 210.063 209.833C209.842 209.697 209.575 209.629 209.261 209.629C208.886 209.629 208.572 209.703 208.32 209.85C208.072 209.993 207.886 210.195 207.762 210.454C207.638 210.714 207.576 211.012 207.576 211.349H206.502C206.502 210.872 206.606 210.437 206.815 210.042C207.025 209.647 207.334 209.333 207.745 209.101C208.155 208.864 208.661 208.746 209.261 208.746C209.796 208.746 210.253 208.841 210.632 209.031C211.012 209.217 211.302 209.48 211.504 209.821C211.709 210.158 211.812 210.553 211.812 211.006C211.812 211.254 211.769 211.506 211.684 211.761C211.602 212.013 211.488 212.265 211.341 212.517C211.198 212.768 211.029 213.016 210.836 213.26C210.646 213.504 210.443 213.744 210.226 213.981L207.96 216.438H212.201ZM214.539 216.421H214.649C215.269 216.421 215.773 216.333 216.16 216.159C216.547 215.985 216.845 215.751 217.055 215.456C217.264 215.162 217.407 214.831 217.485 214.463C217.562 214.091 217.601 213.709 217.601 213.318V212.023C217.601 211.639 217.556 211.298 217.467 211C217.382 210.702 217.262 210.452 217.107 210.251C216.956 210.049 216.784 209.896 216.59 209.792C216.396 209.687 216.191 209.635 215.974 209.635C215.726 209.635 215.503 209.685 215.306 209.786C215.112 209.883 214.948 210.02 214.812 210.199C214.68 210.377 214.58 210.586 214.51 210.826C214.44 211.066 214.405 211.328 214.405 211.61C214.405 211.862 214.436 212.106 214.498 212.342C214.56 212.579 214.655 212.792 214.783 212.981C214.911 213.171 215.07 213.322 215.259 213.434C215.453 213.543 215.68 213.597 215.939 213.597C216.179 213.597 216.404 213.551 216.613 213.458C216.826 213.361 217.014 213.231 217.177 213.068C217.343 212.902 217.475 212.714 217.572 212.505C217.672 212.296 217.73 212.077 217.746 211.848H218.257C218.257 212.17 218.193 212.488 218.065 212.801C217.942 213.111 217.767 213.394 217.543 213.649C217.318 213.905 217.055 214.11 216.753 214.265C216.45 214.416 216.121 214.492 215.765 214.492C215.347 214.492 214.984 214.41 214.679 214.248C214.373 214.085 214.121 213.868 213.923 213.597C213.73 213.326 213.584 213.024 213.488 212.691C213.395 212.354 213.348 212.013 213.348 211.668C213.348 211.266 213.404 210.888 213.517 210.536C213.629 210.183 213.795 209.873 214.016 209.606C214.237 209.335 214.51 209.124 214.835 208.973C215.165 208.822 215.544 208.746 215.974 208.746C216.458 208.746 216.871 208.843 217.211 209.037C217.552 209.23 217.829 209.49 218.042 209.815C218.259 210.14 218.418 210.506 218.519 210.913C218.619 211.32 218.67 211.738 218.67 212.168V212.557C218.67 212.995 218.641 213.44 218.583 213.893C218.528 214.343 218.422 214.773 218.263 215.183C218.108 215.594 217.882 215.962 217.583 216.287C217.285 216.608 216.896 216.864 216.416 217.054C215.939 217.24 215.35 217.333 214.649 217.333H214.539V216.421Z" fill="black"/>
<rect width="38.6683" height="38.6683" transform="translate(232.042 193.423)" fill="black" fill-opacity="0.38"/>
<path d="M246.896 212.563H247.663C248.039 212.563 248.348 212.501 248.592 212.377C248.84 212.249 249.024 212.077 249.144 211.86C249.268 211.639 249.33 211.391 249.33 211.116C249.33 210.791 249.276 210.518 249.168 210.297C249.059 210.077 248.897 209.91 248.68 209.798C248.463 209.685 248.188 209.629 247.855 209.629C247.553 209.629 247.285 209.689 247.053 209.809C246.824 209.925 246.644 210.092 246.513 210.309C246.385 210.526 246.321 210.781 246.321 211.076H245.246C245.246 210.646 245.355 210.255 245.572 209.902C245.788 209.55 246.092 209.269 246.484 209.06C246.879 208.851 247.336 208.746 247.855 208.746C248.366 208.746 248.813 208.837 249.197 209.019C249.58 209.197 249.878 209.465 250.091 209.821C250.304 210.173 250.411 210.613 250.411 211.14C250.411 211.353 250.361 211.581 250.26 211.825C250.163 212.065 250.01 212.29 249.801 212.499C249.596 212.708 249.328 212.881 248.999 213.016C248.67 213.148 248.275 213.214 247.814 213.214H246.896V212.563ZM246.896 213.446V212.801H247.814C248.352 212.801 248.798 212.865 249.15 212.993C249.503 213.121 249.78 213.291 249.981 213.504C250.186 213.717 250.33 213.952 250.411 214.207C250.496 214.459 250.539 214.711 250.539 214.962C250.539 215.357 250.471 215.708 250.335 216.014C250.204 216.32 250.016 216.579 249.772 216.792C249.532 217.005 249.249 217.166 248.924 217.275C248.598 217.383 248.244 217.437 247.86 217.437C247.493 217.437 247.146 217.385 246.821 217.28C246.499 217.176 246.214 217.025 245.967 216.827C245.719 216.626 245.525 216.38 245.386 216.089C245.246 215.795 245.176 215.46 245.176 215.084H246.251C246.251 215.379 246.315 215.636 246.443 215.857C246.575 216.078 246.761 216.25 247.001 216.374C247.245 216.494 247.531 216.554 247.86 216.554C248.19 216.554 248.472 216.498 248.709 216.386C248.949 216.27 249.133 216.095 249.261 215.863C249.392 215.63 249.458 215.338 249.458 214.986C249.458 214.633 249.385 214.345 249.237 214.12C249.09 213.891 248.881 213.723 248.61 213.615C248.343 213.502 248.027 213.446 247.663 213.446H246.896ZM257.449 212.418V213.708C257.449 214.401 257.387 214.986 257.263 215.462C257.139 215.938 256.961 216.322 256.729 216.612C256.496 216.903 256.215 217.114 255.886 217.246C255.561 217.373 255.193 217.437 254.782 217.437C254.457 217.437 254.157 217.397 253.882 217.315C253.607 217.234 253.359 217.104 253.138 216.926C252.921 216.744 252.736 216.508 252.581 216.217C252.426 215.927 252.308 215.574 252.226 215.16C252.145 214.745 252.104 214.261 252.104 213.708V212.418C252.104 211.725 252.166 211.144 252.29 210.675C252.418 210.206 252.598 209.831 252.83 209.548C253.063 209.261 253.342 209.056 253.667 208.932C253.996 208.808 254.364 208.746 254.771 208.746C255.1 208.746 255.402 208.787 255.677 208.868C255.956 208.946 256.204 209.071 256.421 209.246C256.638 209.416 256.822 209.645 256.973 209.931C257.128 210.214 257.246 210.561 257.327 210.971C257.408 211.382 257.449 211.864 257.449 212.418ZM256.368 213.882V212.238C256.368 211.858 256.345 211.525 256.299 211.238C256.256 210.948 256.192 210.7 256.107 210.495C256.022 210.29 255.913 210.123 255.782 209.995C255.654 209.867 255.505 209.774 255.334 209.716C255.168 209.654 254.98 209.623 254.771 209.623C254.515 209.623 254.289 209.672 254.091 209.769C253.894 209.862 253.727 210.011 253.591 210.216C253.46 210.421 253.359 210.69 253.289 211.024C253.22 211.357 253.185 211.761 253.185 212.238V213.882C253.185 214.261 253.206 214.596 253.249 214.887C253.295 215.177 253.363 215.429 253.452 215.642C253.541 215.851 253.65 216.024 253.777 216.159C253.905 216.295 254.052 216.395 254.219 216.461C254.389 216.523 254.577 216.554 254.782 216.554C255.046 216.554 255.276 216.504 255.474 216.403C255.671 216.302 255.836 216.146 255.968 215.933C256.103 215.716 256.204 215.439 256.27 215.102C256.336 214.761 256.368 214.354 256.368 213.882Z" fill="black"/>
</g>
<defs>
<clipPath id="clip0_932_3674">
<rect x="0.0322266" y="0.081543" width="270.678" height="270.678" rx="11.8979" fill="white"/>
</clipPath>
</defs>
</svg>
