<svg width="271" height="271" viewBox="0 0 271 271" fill="none" xmlns="http://www.w3.org/2000/svg">
<g clip-path="url(#clip0_932_4106)">
<rect width="270.678" height="38.6683" transform="translate(0.0322266 0.081543)" fill="black"/>
<path d="M18.8263 23.9795H17.0022L17.0138 22.7246H18.8263C19.3182 22.7246 19.7307 22.6162 20.0638 22.3993C20.3969 22.1785 20.6486 21.8629 20.819 21.4523C20.9894 21.0379 21.0746 20.5422 21.0746 19.9651V19.5294C21.0746 19.084 21.0262 18.6909 20.9294 18.35C20.8326 18.0092 20.6893 17.7226 20.4995 17.4902C20.3136 17.2579 20.0831 17.0816 19.8082 16.9616C19.5332 16.8415 19.2175 16.7815 18.8612 16.7815H16.9673V15.5208H18.8612C19.4267 15.5208 19.9418 15.6157 20.4065 15.8055C20.8752 15.9952 21.2799 16.2683 21.6207 16.6246C21.9654 16.9771 22.2288 17.3992 22.4108 17.8911C22.5967 18.383 22.6897 18.9329 22.6897 19.541V19.9651C22.6897 20.5693 22.5967 21.1193 22.4108 21.615C22.2288 22.1069 21.9654 22.529 21.6207 22.8815C21.2799 23.2339 20.8732 23.505 20.4007 23.6948C19.9282 23.8846 19.4034 23.9795 18.8263 23.9795ZM17.8968 15.5208V23.9795H16.2992V15.5208H17.8968Z" fill="white"/>
<path d="M59.638 21.7835C59.638 21.6208 59.6129 21.4756 59.5625 21.3478C59.516 21.2161 59.4289 21.098 59.3011 20.9934C59.1771 20.8849 59.0009 20.7804 58.7724 20.6797C58.5478 20.5751 58.2573 20.4667 57.901 20.3543C57.5059 20.2304 57.138 20.091 56.7972 19.9361C56.4563 19.7811 56.1562 19.601 55.8967 19.3958C55.6411 19.1905 55.4416 18.9542 55.2983 18.687C55.155 18.4159 55.0834 18.1022 55.0834 17.7459C55.0834 17.3973 55.1569 17.0797 55.3041 16.7931C55.4552 16.5065 55.6682 16.2605 55.9432 16.0553C56.2182 15.8461 56.5416 15.6854 56.9134 15.5731C57.289 15.4608 57.7035 15.4046 58.1566 15.4046C58.784 15.4046 59.3263 15.5189 59.7833 15.7474C60.2442 15.9759 60.6005 16.2857 60.8522 16.6769C61.104 17.0681 61.2299 17.5077 61.2299 17.9957H59.638C59.638 17.7323 59.5819 17.4999 59.4696 17.2985C59.3611 17.0971 59.1946 16.9383 58.9699 16.8221C58.7492 16.7059 58.4703 16.6479 58.1334 16.6479C57.808 16.6479 57.5369 16.6963 57.32 16.7931C57.107 16.8899 56.9463 17.0216 56.8378 17.1881C56.7333 17.3547 56.681 17.5406 56.681 17.7459C56.681 17.9008 56.7178 18.0402 56.7914 18.1641C56.8649 18.2842 56.9753 18.3985 57.1225 18.5069C57.2697 18.6115 57.4517 18.7102 57.6686 18.8032C57.8894 18.8923 58.145 18.9813 58.4355 19.0704C58.9002 19.2099 59.3069 19.3648 59.6555 19.5352C60.0079 19.7056 60.3003 19.8993 60.5327 20.1161C60.769 20.333 60.9452 20.577 61.0614 20.8481C61.1814 21.1193 61.2415 21.4272 61.2415 21.7719C61.2415 22.1359 61.1698 22.4613 61.0265 22.7479C60.8832 23.0345 60.6779 23.2785 60.4107 23.4799C60.1435 23.6813 59.822 23.8343 59.4463 23.9388C59.0745 24.0434 58.6582 24.0957 58.1973 24.0957C57.7867 24.0957 57.3801 24.0415 56.9773 23.933C56.5783 23.8207 56.2162 23.6542 55.8909 23.4334C55.5655 23.2088 55.3061 22.926 55.1124 22.5852C54.9188 22.2405 54.8219 21.8377 54.8219 21.3768H56.4254C56.4254 21.6441 56.468 21.8726 56.5532 22.0623C56.6422 22.2482 56.7662 22.4012 56.925 22.5213C57.0876 22.6375 57.2774 22.7227 57.4943 22.7769C57.7112 22.8311 57.9455 22.8583 58.1973 22.8583C58.5226 22.8583 58.7898 22.8137 58.999 22.7246C59.212 22.6317 59.3708 22.5039 59.4754 22.3412C59.5838 22.1785 59.638 21.9926 59.638 21.7835Z" fill="white"/>
<path d="M97.482 15.5208V23.9795H95.8902V15.5208H97.482ZM100.108 15.5208V16.7815H93.2933V15.5208H100.108Z" fill="white"/>
<path d="M136.615 22.7885L138.869 24.5779L137.846 25.4667L135.627 23.689L136.615 22.7885ZM138.91 19.5352V19.9709C138.91 20.61 138.824 21.1851 138.654 21.6963C138.483 22.2037 138.239 22.6356 137.922 22.9919C137.608 23.3482 137.234 23.6212 136.801 23.811C136.367 24.0008 135.887 24.0957 135.36 24.0957C134.837 24.0957 134.357 24.0008 133.919 23.811C133.485 23.6212 133.11 23.3482 132.792 22.9919C132.474 22.6356 132.229 22.2037 132.054 21.6963C131.88 21.1851 131.793 20.61 131.793 19.9709V19.5352C131.793 18.8923 131.878 18.3171 132.048 17.8098C132.223 17.3024 132.467 16.8705 132.78 16.5142C133.098 16.154 133.474 15.8791 133.908 15.6893C134.345 15.4995 134.825 15.4046 135.348 15.4046C135.875 15.4046 136.355 15.4995 136.789 15.6893C137.227 15.8791 137.602 16.154 137.916 16.5142C138.234 16.8705 138.478 17.3024 138.648 17.8098C138.822 18.3171 138.91 18.8923 138.91 19.5352ZM137.294 19.9709V19.5236C137.294 19.0627 137.252 18.658 137.167 18.3094C137.081 17.9569 136.954 17.6606 136.783 17.4205C136.617 17.1804 136.413 17.0003 136.173 16.8802C135.933 16.7563 135.658 16.6943 135.348 16.6943C135.042 16.6943 134.769 16.7563 134.529 16.8802C134.289 17.0003 134.086 17.1804 133.919 17.4205C133.753 17.6606 133.625 17.9569 133.536 18.3094C133.45 18.658 133.408 19.0627 133.408 19.5236V19.9709C133.408 20.4279 133.45 20.8327 133.536 21.1851C133.625 21.5375 133.753 21.8358 133.919 22.0798C134.09 22.3199 134.295 22.5019 134.535 22.6259C134.779 22.7498 135.054 22.8118 135.36 22.8118C135.67 22.8118 135.945 22.7498 136.185 22.6259C136.425 22.5019 136.626 22.3199 136.789 22.0798C136.956 21.8358 137.081 21.5375 137.167 21.1851C137.252 20.8327 137.294 20.4279 137.294 19.9709Z" fill="white"/>
<path d="M175.283 22.7885L177.537 24.5779L176.514 25.4667L174.295 23.689L175.283 22.7885ZM177.577 19.5352V19.9709C177.577 20.61 177.492 21.1851 177.322 21.6963C177.151 22.2037 176.907 22.6356 176.59 22.9919C176.276 23.3482 175.902 23.6212 175.469 23.811C175.035 24.0008 174.555 24.0957 174.028 24.0957C173.505 24.0957 173.025 24.0008 172.587 23.811C172.153 23.6212 171.778 23.3482 171.46 22.9919C171.142 22.6356 170.897 22.2037 170.722 21.6963C170.548 21.1851 170.461 20.61 170.461 19.9709V19.5352C170.461 18.8923 170.546 18.3171 170.716 17.8098C170.891 17.3024 171.135 16.8705 171.448 16.5142C171.766 16.154 172.142 15.8791 172.575 15.6893C173.013 15.4995 173.493 15.4046 174.016 15.4046C174.543 15.4046 175.023 15.4995 175.457 15.6893C175.895 15.8791 176.27 16.154 176.584 16.5142C176.902 16.8705 177.146 17.3024 177.316 17.8098C177.49 18.3171 177.577 18.8923 177.577 19.5352ZM175.962 19.9709V19.5236C175.962 19.0627 175.92 18.658 175.835 18.3094C175.749 17.9569 175.622 17.6606 175.451 17.4205C175.285 17.1804 175.081 17.0003 174.841 16.8802C174.601 16.7563 174.326 16.6943 174.016 16.6943C173.71 16.6943 173.437 16.7563 173.197 16.8802C172.957 17.0003 172.754 17.1804 172.587 17.4205C172.421 17.6606 172.293 17.9569 172.204 18.3094C172.118 18.658 172.076 19.0627 172.076 19.5236V19.9709C172.076 20.4279 172.118 20.8327 172.204 21.1851C172.293 21.5375 172.421 21.8358 172.587 22.0798C172.758 22.3199 172.963 22.5019 173.203 22.6259C173.447 22.7498 173.722 22.8118 174.028 22.8118C174.338 22.8118 174.613 22.7498 174.853 22.6259C175.093 22.5019 175.294 22.3199 175.457 22.0798C175.624 21.8358 175.749 21.5375 175.835 21.1851C175.92 20.8327 175.962 20.4279 175.962 19.9709Z" fill="white"/>
<path d="M214.312 21.7835C214.312 21.6208 214.287 21.4756 214.236 21.3478C214.19 21.2161 214.103 21.098 213.975 20.9934C213.851 20.8849 213.675 20.7804 213.446 20.6797C213.222 20.5751 212.931 20.4667 212.575 20.3543C212.18 20.2304 211.812 20.091 211.471 19.9361C211.13 19.7811 210.83 19.601 210.571 19.3958C210.315 19.1905 210.115 18.9542 209.972 18.687C209.829 18.4159 209.757 18.1022 209.757 17.7459C209.757 17.3973 209.831 17.0797 209.978 16.7931C210.129 16.5065 210.342 16.2605 210.617 16.0553C210.892 15.8461 211.215 15.6854 211.587 15.5731C211.963 15.4608 212.377 15.4046 212.83 15.4046C213.458 15.4046 214 15.5189 214.457 15.7474C214.918 15.9759 215.274 16.2857 215.526 16.6769C215.778 17.0681 215.904 17.5077 215.904 17.9957H214.312C214.312 17.7323 214.256 17.4999 214.143 17.2985C214.035 17.0971 213.868 16.9383 213.644 16.8221C213.423 16.7059 213.144 16.6479 212.807 16.6479C212.482 16.6479 212.211 16.6963 211.994 16.7931C211.781 16.8899 211.62 17.0216 211.512 17.1881C211.407 17.3547 211.355 17.5406 211.355 17.7459C211.355 17.9008 211.392 18.0402 211.465 18.1641C211.539 18.2842 211.649 18.3985 211.796 18.5069C211.944 18.6115 212.126 18.7102 212.342 18.8032C212.563 18.8923 212.819 18.9813 213.109 19.0704C213.574 19.2099 213.981 19.3648 214.329 19.5352C214.682 19.7056 214.974 19.8993 215.207 20.1161C215.443 20.333 215.619 20.577 215.735 20.8481C215.855 21.1193 215.915 21.4272 215.915 21.7719C215.915 22.1359 215.844 22.4613 215.7 22.7479C215.557 23.0345 215.352 23.2785 215.085 23.4799C214.817 23.6813 214.496 23.8343 214.12 23.9388C213.748 24.0434 213.332 24.0957 212.871 24.0957C212.461 24.0957 212.054 24.0415 211.651 23.933C211.252 23.8207 210.89 23.6542 210.565 23.4334C210.239 23.2088 209.98 22.926 209.786 22.5852C209.593 22.2405 209.496 21.8377 209.496 21.3768H211.099C211.099 21.6441 211.142 21.8726 211.227 22.0623C211.316 22.2482 211.44 22.4012 211.599 22.5213C211.761 22.6375 211.951 22.7227 212.168 22.7769C212.385 22.8311 212.619 22.8583 212.871 22.8583C213.196 22.8583 213.464 22.8137 213.673 22.7246C213.886 22.6317 214.045 22.5039 214.149 22.3412C214.258 22.1785 214.312 21.9926 214.312 21.7835Z" fill="white"/>
<path d="M252.98 21.7835C252.98 21.6208 252.955 21.4756 252.904 21.3478C252.858 21.2161 252.771 21.098 252.643 20.9934C252.519 20.8849 252.343 20.7804 252.114 20.6797C251.89 20.5751 251.599 20.4667 251.243 20.3543C250.848 20.2304 250.48 20.091 250.139 19.9361C249.798 19.7811 249.498 19.601 249.238 19.3958C248.983 19.1905 248.783 18.9542 248.64 18.687C248.497 18.4159 248.425 18.1022 248.425 17.7459C248.425 17.3973 248.499 17.0797 248.646 16.7931C248.797 16.5065 249.01 16.2605 249.285 16.0553C249.56 15.8461 249.883 15.6854 250.255 15.5731C250.631 15.4608 251.045 15.4046 251.498 15.4046C252.126 15.4046 252.668 15.5189 253.125 15.7474C253.586 15.9759 253.942 16.2857 254.194 16.6769C254.446 17.0681 254.572 17.5077 254.572 17.9957H252.98C252.98 17.7323 252.924 17.4999 252.811 17.2985C252.703 17.0971 252.536 16.9383 252.312 16.8221C252.091 16.7059 251.812 16.6479 251.475 16.6479C251.15 16.6479 250.879 16.6963 250.662 16.7931C250.449 16.8899 250.288 17.0216 250.18 17.1881C250.075 17.3547 250.023 17.5406 250.023 17.7459C250.023 17.9008 250.06 18.0402 250.133 18.1641C250.207 18.2842 250.317 18.3985 250.464 18.5069C250.611 18.6115 250.794 18.7102 251.01 18.8032C251.231 18.8923 251.487 18.9813 251.777 19.0704C252.242 19.2099 252.649 19.3648 252.997 19.5352C253.35 19.7056 253.642 19.8993 253.875 20.1161C254.111 20.333 254.287 20.577 254.403 20.8481C254.523 21.1193 254.583 21.4272 254.583 21.7719C254.583 22.1359 254.512 22.4613 254.368 22.7479C254.225 23.0345 254.02 23.2785 253.753 23.4799C253.485 23.6813 253.164 23.8343 252.788 23.9388C252.416 24.0434 252 24.0957 251.539 24.0957C251.129 24.0957 250.722 24.0415 250.319 23.933C249.92 23.8207 249.558 23.6542 249.233 23.4334C248.907 23.2088 248.648 22.926 248.454 22.5852C248.261 22.2405 248.164 21.8377 248.164 21.3768H249.767C249.767 21.6441 249.81 21.8726 249.895 22.0623C249.984 22.2482 250.108 22.4012 250.267 22.5213C250.429 22.6375 250.619 22.7227 250.836 22.7769C251.053 22.8311 251.287 22.8583 251.539 22.8583C251.864 22.8583 252.132 22.8137 252.341 22.7246C252.554 22.6317 252.713 22.5039 252.817 22.3412C252.926 22.1785 252.98 21.9926 252.98 21.7835Z" fill="white"/>
<rect width="38.6683" height="38.6683" transform="translate(38.7002 38.75)" fill="black" fill-opacity="0.05"/>
<path d="M58.9227 54.1428V62.6479H57.848V55.4848L55.681 56.2749V55.3047L58.7543 54.1428H58.9227Z" fill="black"/>
<rect width="38.6683" height="38.6683" transform="translate(77.3691 38.75)" fill="black" fill-opacity="0.05"/>
<path d="M99.6018 61.7649V62.6479H94.0653V61.8753L96.8364 58.7904C97.1773 58.4109 97.4406 58.0894 97.6265 57.826C97.8163 57.5588 97.948 57.3206 98.0216 57.1115C98.099 56.8984 98.1378 56.6815 98.1378 56.4608C98.1378 56.1819 98.0797 55.9302 97.9635 55.7055C97.8512 55.477 97.6846 55.295 97.4639 55.1594C97.2431 55.0239 96.9759 54.9561 96.6621 54.9561C96.2865 54.9561 95.9727 55.0297 95.721 55.1769C95.4731 55.3202 95.2872 55.5216 95.1633 55.7811C95.0393 56.0406 94.9774 56.3388 94.9774 56.6757H93.9026C93.9026 56.1994 94.0072 55.7636 94.2163 55.3686C94.4255 54.9735 94.7353 54.6598 95.1459 54.4274C95.5564 54.1912 96.0618 54.0731 96.6621 54.0731C97.1966 54.0731 97.6536 54.168 98.0332 54.3577C98.4128 54.5436 98.7032 54.807 98.9046 55.1478C99.1099 55.4848 99.2125 55.8798 99.2125 56.333C99.2125 56.5809 99.1699 56.8326 99.0847 57.0882C99.0034 57.34 98.8891 57.5917 98.742 57.8435C98.5987 58.0952 98.4302 58.3431 98.2365 58.5871C98.0468 58.8311 97.8434 59.0712 97.6265 59.3075L95.3608 61.7649H99.6018Z" fill="black"/>
<rect width="38.6683" height="38.6683" transform="translate(116.037 38.75)" fill="black" fill-opacity="0.05"/>
<path d="M134.297 57.8899H135.064C135.44 57.8899 135.749 57.828 135.993 57.704C136.241 57.5762 136.425 57.4039 136.545 57.187C136.669 56.9662 136.731 56.7183 136.731 56.4434C136.731 56.118 136.677 55.845 136.569 55.6242C136.46 55.4035 136.297 55.2369 136.081 55.1246C135.864 55.0123 135.589 54.9561 135.256 54.9561C134.953 54.9561 134.686 55.0161 134.454 55.1362C134.225 55.2524 134.045 55.4189 133.914 55.6358C133.786 55.8527 133.722 56.1083 133.722 56.4027H132.647C132.647 55.9728 132.756 55.5816 132.972 55.2292C133.189 54.8767 133.493 54.5959 133.885 54.3868C134.28 54.1776 134.737 54.0731 135.256 54.0731C135.767 54.0731 136.214 54.1641 136.598 54.3461C136.981 54.5243 137.279 54.7915 137.492 55.1478C137.705 55.5003 137.812 55.9399 137.812 56.4666C137.812 56.6796 137.761 56.9081 137.661 57.1521C137.564 57.3923 137.411 57.6169 137.202 57.826C136.996 58.0352 136.729 58.2075 136.4 58.3431C136.071 58.4748 135.676 58.5406 135.215 58.5406H134.297V57.8899ZM134.297 58.773V58.1281H135.215C135.753 58.1281 136.199 58.192 136.551 58.3198C136.904 58.4477 137.18 58.6181 137.382 58.8311C137.587 59.0441 137.73 59.2784 137.812 59.534C137.897 59.7858 137.94 60.0375 137.94 60.2893C137.94 60.6843 137.872 61.0348 137.736 61.3408C137.605 61.6468 137.417 61.9063 137.173 62.1193C136.933 62.3323 136.65 62.493 136.325 62.6015C135.999 62.7099 135.645 62.7641 135.261 62.7641C134.893 62.7641 134.547 62.7119 134.221 62.6073C133.9 62.5027 133.615 62.3517 133.367 62.1541C133.12 61.9527 132.926 61.7068 132.787 61.4163C132.647 61.122 132.577 60.787 132.577 60.4113H133.652C133.652 60.7056 133.716 60.9632 133.844 61.1839C133.976 61.4047 134.161 61.5771 134.402 61.701C134.646 61.8211 134.932 61.8811 135.261 61.8811C135.591 61.8811 135.873 61.8249 136.11 61.7126C136.35 61.5964 136.534 61.4221 136.661 61.1898C136.793 60.9574 136.859 60.665 136.859 60.3125C136.859 59.9601 136.785 59.6715 136.638 59.4469C136.491 59.2184 136.282 59.0499 136.011 58.9415C135.744 58.8291 135.428 58.773 135.064 58.773H134.297Z" fill="black"/>
<rect width="38.6683" height="38.6683" transform="translate(154.705 38.75)" fill="black" fill-opacity="0.05"/>
<path d="M177.112 59.8013V60.6843H171V60.0511L174.788 54.1893H175.665L174.724 55.8856L172.22 59.8013H177.112ZM175.933 54.1893V62.6479H174.858V54.1893H175.933Z" fill="black"/>
<rect width="38.6683" height="38.6683" transform="translate(193.374 38.75)" fill="black" fill-opacity="0.05"/>
<path d="M211.424 58.6219L210.564 58.4012L210.988 54.1893H215.328V55.1827H211.9L211.645 57.4833C211.799 57.3942 211.995 57.3109 212.231 57.2335C212.471 57.156 212.746 57.1173 213.056 57.1173C213.447 57.1173 213.798 57.185 214.108 57.3206C214.418 57.4523 214.681 57.6421 214.898 57.8899C215.119 58.1378 215.287 58.436 215.403 58.7846C215.52 59.1332 215.578 59.5224 215.578 59.9523C215.578 60.359 215.521 60.7327 215.409 61.0736C215.301 61.4144 215.136 61.7126 214.915 61.9682C214.695 62.22 214.416 62.4156 214.079 62.555C213.746 62.6944 213.353 62.7641 212.899 62.7641C212.559 62.7641 212.235 62.7177 211.929 62.6247C211.627 62.5279 211.356 62.3826 211.116 62.189C210.88 61.9915 210.686 61.7475 210.535 61.457C210.388 61.1626 210.295 60.8179 210.256 60.4229H211.279C211.325 60.7405 211.418 61.0077 211.557 61.2246C211.697 61.4415 211.879 61.6061 212.104 61.7184C212.332 61.8269 212.597 61.8811 212.899 61.8811C213.155 61.8811 213.382 61.8365 213.579 61.7475C213.777 61.6584 213.943 61.5306 214.079 61.364C214.214 61.1975 214.317 60.9961 214.387 60.7598C214.46 60.5236 214.497 60.2583 214.497 59.9639C214.497 59.6967 214.46 59.4488 214.387 59.2203C214.313 58.9918 214.203 58.7923 214.056 58.6219C213.912 58.4515 213.736 58.3198 213.527 58.2269C213.318 58.1301 213.078 58.0816 212.806 58.0816C212.446 58.0816 212.173 58.1301 211.987 58.2269C211.805 58.3237 211.617 58.4554 211.424 58.6219Z" fill="black"/>
<rect width="38.6683" height="38.6683" transform="translate(232.042 38.75)" fill="#2EA66D"/>
<path d="M252.858 54.1776H252.951V55.0897H252.858C252.289 55.0897 251.812 55.1827 251.429 55.3686C251.045 55.5506 250.741 55.7966 250.517 56.1064C250.292 56.4124 250.13 56.7571 250.029 57.1405C249.932 57.5239 249.884 57.9132 249.884 58.3082V59.5515C249.884 59.9271 249.928 60.2602 250.017 60.5507C250.106 60.8373 250.228 61.0794 250.383 61.2769C250.538 61.4744 250.712 61.6235 250.906 61.7242C251.104 61.8249 251.309 61.8753 251.522 61.8753C251.77 61.8753 251.991 61.8288 252.184 61.7359C252.378 61.639 252.54 61.5054 252.672 61.335C252.808 61.1607 252.91 60.9554 252.98 60.7192C253.05 60.4829 253.085 60.2234 253.085 59.9407C253.085 59.689 253.054 59.4469 252.992 59.2145C252.93 58.9783 252.835 58.7691 252.707 58.5871C252.579 58.4012 252.418 58.2559 252.225 58.1514C252.035 58.0429 251.808 57.9887 251.545 57.9887C251.247 57.9887 250.968 58.0623 250.709 58.2095C250.453 58.3528 250.242 58.5425 250.075 58.7788C249.913 59.0112 249.82 59.2649 249.796 59.5398L249.227 59.534C249.281 59.1003 249.382 58.7304 249.529 58.4244C249.68 58.1146 249.866 57.8628 250.087 57.6692C250.312 57.4716 250.561 57.3283 250.836 57.2393C251.115 57.1463 251.41 57.0998 251.719 57.0998C252.142 57.0998 252.506 57.1792 252.812 57.338C253.118 57.4968 253.369 57.7098 253.567 57.9771C253.764 58.2404 253.91 58.5387 254.003 58.8717C254.099 59.201 254.148 59.5398 254.148 59.8884C254.148 60.2873 254.092 60.6611 253.979 61.0097C253.867 61.3582 253.699 61.6642 253.474 61.9276C253.253 62.1909 252.98 62.3962 252.655 62.5434C252.329 62.6906 251.952 62.7641 251.522 62.7641C251.065 62.7641 250.666 62.6712 250.325 62.4853C249.984 62.2955 249.702 62.0438 249.477 61.73C249.252 61.4163 249.084 61.0678 248.971 60.6843C248.859 60.3009 248.803 59.9117 248.803 59.5166V59.0112C248.803 58.4147 248.863 57.8299 248.983 57.2567C249.103 56.6835 249.31 56.1645 249.605 55.6997C249.903 55.235 250.315 54.8651 250.842 54.5901C251.369 54.3151 252.041 54.1776 252.858 54.1776Z" fill="black"/>
<rect width="38.6683" height="38.6683" transform="translate(0.0322266 77.4182)" fill="black" fill-opacity="0.38"/>
<path d="M22.1893 92.8575V93.4617L18.6862 101.316H17.5533L21.0507 93.7405H16.4727V92.8575H22.1893Z" fill="black"/>
<rect width="38.6683" height="38.6683" transform="translate(38.7002 77.4182)" fill="black" fill-opacity="0.05"/>
<path d="M60.7237 99.0272C60.7237 99.5423 60.6036 99.98 60.3635 100.34C60.1272 100.696 59.8058 100.968 59.3991 101.153C58.9963 101.339 58.5412 101.432 58.0339 101.432C57.5265 101.432 57.0695 101.339 56.6628 101.153C56.2561 100.968 55.9347 100.696 55.6984 100.34C55.4622 99.98 55.3441 99.5423 55.3441 99.0272C55.3441 98.6902 55.408 98.3823 55.5358 98.1035C55.6674 97.8208 55.8514 97.5748 56.0877 97.3657C56.3278 97.1565 56.6105 96.9958 56.9359 96.8835C57.2651 96.7673 57.6272 96.7092 58.0223 96.7092C58.5412 96.7092 59.0041 96.8099 59.4107 97.0113C59.8174 97.2088 60.1369 97.4819 60.3693 97.8304C60.6056 98.179 60.7237 98.5779 60.7237 99.0272ZM59.6431 99.004C59.6431 98.6902 59.5753 98.4133 59.4398 98.1732C59.3042 97.9292 59.1144 97.7394 58.8704 97.6039C58.6264 97.4683 58.3437 97.4005 58.0223 97.4005C57.693 97.4005 57.4084 97.4683 57.1682 97.6039C56.932 97.7394 56.748 97.9292 56.6163 98.1732C56.4847 98.4133 56.4188 98.6902 56.4188 99.004C56.4188 99.3293 56.4827 99.6082 56.6105 99.8405C56.7422 100.069 56.9281 100.245 57.1682 100.369C57.4122 100.489 57.7008 100.549 58.0339 100.549C58.3669 100.549 58.6536 100.489 58.8937 100.369C59.1338 100.245 59.3178 100.069 59.4456 99.8405C59.5773 99.6082 59.6431 99.3293 59.6431 99.004ZM60.5262 95.0593C60.5262 95.4698 60.4177 95.8397 60.2008 96.1689C59.9839 96.4981 59.6877 96.7576 59.312 96.9474C58.9363 97.1372 58.5103 97.2321 58.0339 97.2321C57.5497 97.2321 57.1179 97.1372 56.7383 96.9474C56.3627 96.7576 56.0683 96.4981 55.8553 96.1689C55.6423 95.8397 55.5358 95.4698 55.5358 95.0593C55.5358 94.5674 55.6423 94.1491 55.8553 93.8044C56.0722 93.4597 56.3685 93.1964 56.7442 93.0143C57.1198 92.8323 57.5478 92.7413 58.0281 92.7413C58.5122 92.7413 58.9421 92.8323 59.3178 93.0143C59.6935 93.1964 59.9878 93.4597 60.2008 93.8044C60.4177 94.1491 60.5262 94.5674 60.5262 95.0593ZM59.4514 95.0767C59.4514 94.794 59.3914 94.5442 59.2713 94.3273C59.1512 94.1104 58.9847 93.94 58.7717 93.816C58.5587 93.6882 58.3108 93.6243 58.0281 93.6243C57.7453 93.6243 57.4975 93.6844 57.2844 93.8044C57.0753 93.9206 56.9107 94.0872 56.7906 94.304C56.6744 94.5209 56.6163 94.7785 56.6163 95.0767C56.6163 95.3672 56.6744 95.6209 56.7906 95.8378C56.9107 96.0547 57.0772 96.2231 57.2902 96.3432C57.5033 96.4633 57.7511 96.5233 58.0339 96.5233C58.3166 96.5233 58.5625 96.4633 58.7717 96.3432C58.9847 96.2231 59.1512 96.0547 59.2713 95.8378C59.3914 95.6209 59.4514 95.3672 59.4514 95.0767Z" fill="black"/>
<rect width="38.6683" height="38.6683" transform="translate(77.3691 77.4182)" fill="black" fill-opacity="0.05"/>
<path d="M95.1284 100.416H95.2388C95.8585 100.416 96.362 100.329 96.7493 100.154C97.1366 99.98 97.4348 99.7456 97.644 99.4513C97.8531 99.1569 97.9964 98.8258 98.0739 98.4579C98.1513 98.0861 98.1901 97.7046 98.1901 97.3134V96.0179C98.1901 95.6344 98.1455 95.2936 98.0564 94.9954C97.9712 94.6972 97.8512 94.4473 97.6962 94.2459C97.5452 94.0446 97.3728 93.8916 97.1792 93.787C96.9855 93.6824 96.7803 93.6301 96.5634 93.6301C96.3155 93.6301 96.0928 93.6805 95.8953 93.7812C95.7016 93.878 95.537 94.0155 95.4015 94.1937C95.2698 94.3718 95.1691 94.581 95.0994 94.8211C95.0297 95.0612 94.9948 95.3227 94.9948 95.6054C94.9948 95.8571 95.0258 96.1011 95.0878 96.3374C95.1497 96.5736 95.2446 96.7867 95.3724 96.9764C95.5002 97.1662 95.659 97.3173 95.8488 97.4296C96.0425 97.538 96.269 97.5922 96.5285 97.5922C96.7687 97.5922 96.9933 97.5458 97.2024 97.4528C97.4155 97.356 97.6033 97.2262 97.766 97.0636C97.9325 96.897 98.0642 96.7092 98.161 96.5001C98.2617 96.2909 98.3198 96.0721 98.3353 95.8436H98.8465C98.8465 96.165 98.7826 96.4826 98.6548 96.7963C98.5309 97.1062 98.3566 97.3889 98.132 97.6445C97.9073 97.9002 97.644 98.1054 97.3419 98.2603C97.0398 98.4114 96.7106 98.4869 96.3542 98.4869C95.936 98.4869 95.5738 98.4056 95.2679 98.2429C94.9619 98.0802 94.7101 97.8634 94.5126 97.5922C94.319 97.3211 94.1737 97.019 94.0769 96.686C93.9839 96.349 93.9375 96.0082 93.9375 95.6635C93.9375 95.2607 93.9936 94.8831 94.1059 94.5306C94.2183 94.1782 94.3848 93.8683 94.6056 93.6011C94.8263 93.33 95.0994 93.1189 95.4247 92.9679C95.7539 92.8168 96.1335 92.7413 96.5634 92.7413C97.0475 92.7413 97.46 92.8381 97.8008 93.0318C98.1416 93.2254 98.4186 93.4849 98.6316 93.8102C98.8485 94.1356 99.0073 94.5016 99.108 94.9082C99.2087 95.3149 99.259 95.7332 99.259 96.1631V96.5523C99.259 96.99 99.23 97.4354 99.1719 97.8885C99.1176 98.3378 99.0111 98.7677 98.8523 99.1783C98.6974 99.5888 98.4709 99.9567 98.1726 100.282C97.8744 100.604 97.4852 100.859 97.0049 101.049C96.5285 101.235 95.9398 101.328 95.2388 101.328H95.1284V100.416Z" fill="black"/>
<rect width="38.6683" height="38.6683" transform="translate(116.037 77.4182)" fill="black" fill-opacity="0.05"/>
<path d="M132.855 92.811V101.316H131.78V94.153L129.613 94.9431V93.9729L132.686 92.811H132.855ZM141.444 96.4129V97.7026C141.444 98.3959 141.382 98.9807 141.258 99.4571C141.134 99.9335 140.956 100.317 140.724 100.607C140.491 100.898 140.211 101.109 139.881 101.241C139.556 101.368 139.188 101.432 138.778 101.432C138.452 101.432 138.152 101.392 137.877 101.31C137.602 101.229 137.354 101.099 137.133 100.921C136.917 100.739 136.731 100.503 136.576 100.212C136.421 99.9219 136.303 99.5694 136.221 99.155C136.14 98.7406 136.099 98.2565 136.099 97.7026V96.4129C136.099 95.7196 136.161 95.1387 136.285 94.67C136.413 94.2014 136.593 93.8257 136.826 93.543C137.058 93.2564 137.337 93.0511 137.662 92.9272C137.991 92.8032 138.359 92.7413 138.766 92.7413C139.095 92.7413 139.397 92.7819 139.672 92.8633C139.951 92.9407 140.199 93.0666 140.416 93.2409C140.633 93.4113 140.817 93.6398 140.968 93.9264C141.123 94.2092 141.241 94.5558 141.322 94.9663C141.403 95.3769 141.444 95.8591 141.444 96.4129ZM140.364 97.8769V96.2328C140.364 95.8533 140.34 95.5202 140.294 95.2336C140.251 94.9431 140.187 94.6952 140.102 94.49C140.017 94.2847 139.908 94.1181 139.777 93.9903C139.649 93.8625 139.5 93.7696 139.329 93.7115C139.163 93.6495 138.975 93.6185 138.766 93.6185C138.51 93.6185 138.284 93.6669 138.086 93.7638C137.889 93.8567 137.722 94.0058 137.587 94.2111C137.455 94.4164 137.354 94.6855 137.284 95.0186C137.215 95.3517 137.18 95.7564 137.18 96.2328V97.8769C137.18 98.2565 137.201 98.5915 137.244 98.882C137.29 99.1724 137.358 99.4242 137.447 99.6372C137.536 99.8463 137.645 100.019 137.772 100.154C137.9 100.29 138.047 100.391 138.214 100.456C138.384 100.518 138.572 100.549 138.778 100.549C139.041 100.549 139.271 100.499 139.469 100.398C139.666 100.298 139.831 100.141 139.963 99.9277C140.098 99.7108 140.199 99.4339 140.265 99.0969C140.331 98.7561 140.364 98.3494 140.364 97.8769Z" fill="black"/>
<rect width="38.6683" height="38.6683" transform="translate(154.705 77.4182)" fill="black" fill-opacity="0.05"/>
<path d="M171.522 92.811V101.316H170.447V94.153L168.28 94.9431V93.9729L171.353 92.811H171.522ZM178.333 92.811V101.316H177.259V94.153L175.092 94.9431V93.9729L178.165 92.811H178.333Z" fill="black"/>
<rect width="38.6683" height="38.6683" transform="translate(193.374 77.4182)" fill="black" fill-opacity="0.05"/>
<path d="M210.191 92.811V101.316H209.116V94.153L206.949 94.9431V93.9729L210.022 92.811H210.191ZM219.012 100.433V101.316H213.476V100.543L216.247 97.4586C216.588 97.0791 216.851 96.7576 217.037 96.4942C217.227 96.227 217.359 95.9888 217.432 95.7797C217.51 95.5667 217.548 95.3498 217.548 95.129C217.548 94.8501 217.49 94.5984 217.374 94.3738C217.262 94.1453 217.095 93.9632 216.875 93.8277C216.654 93.6921 216.387 93.6243 216.073 93.6243C215.697 93.6243 215.383 93.6979 215.132 93.8451C214.884 93.9884 214.698 94.1898 214.574 94.4493C214.45 94.7088 214.388 95.007 214.388 95.344H213.313C213.313 94.8676 213.418 94.4319 213.627 94.0368C213.836 93.6418 214.146 93.328 214.557 93.0957C214.967 92.8594 215.472 92.7413 216.073 92.7413C216.607 92.7413 217.064 92.8362 217.444 93.0259C217.823 93.2119 218.114 93.4752 218.315 93.816C218.521 94.153 218.623 94.548 218.623 95.0012C218.623 95.2491 218.581 95.5008 218.495 95.7564C218.414 96.0082 218.3 96.2599 218.153 96.5117C218.009 96.7634 217.841 97.0113 217.647 97.2553C217.457 97.4993 217.254 97.7394 217.037 97.9757L214.771 100.433H219.012Z" fill="black"/>
<rect width="38.6683" height="38.6683" transform="translate(232.042 77.4182)" fill="black" fill-opacity="0.38"/>
<path d="M248.86 92.811V101.316H247.785V94.153L245.618 94.9431V93.9729L248.691 92.811H248.86ZM253.708 96.5581H254.475C254.85 96.5581 255.16 96.4962 255.404 96.3722C255.652 96.2444 255.836 96.0721 255.956 95.8552C256.08 95.6344 256.142 95.3866 256.142 95.1116C256.142 94.7862 256.088 94.5132 255.979 94.2924C255.871 94.0717 255.708 93.9051 255.491 93.7928C255.274 93.6805 254.999 93.6243 254.666 93.6243C254.364 93.6243 254.097 93.6844 253.865 93.8044C253.636 93.9206 253.456 94.0872 253.324 94.304C253.196 94.5209 253.133 94.7766 253.133 95.0709H252.058C252.058 94.641 252.166 94.2498 252.383 93.8974C252.6 93.5449 252.904 93.2641 253.295 93.055C253.69 92.8459 254.147 92.7413 254.666 92.7413C255.177 92.7413 255.625 92.8323 256.008 93.0143C256.392 93.1925 256.69 93.4597 256.903 93.816C257.116 94.1685 257.222 94.6081 257.222 95.1348C257.222 95.3478 257.172 95.5763 257.071 95.8203C256.975 96.0605 256.822 96.2851 256.612 96.4942C256.407 96.7034 256.14 96.8757 255.811 97.0113C255.482 97.143 255.086 97.2088 254.626 97.2088H253.708V96.5581ZM253.708 97.4412V96.7963H254.626C255.164 96.7963 255.609 96.8602 255.962 96.9881C256.314 97.1159 256.591 97.2863 256.793 97.4993C256.998 97.7123 257.141 97.9466 257.222 98.2022C257.308 98.454 257.35 98.7057 257.35 98.9575C257.35 99.3525 257.282 99.703 257.147 100.009C257.015 100.315 256.827 100.574 256.583 100.787C256.343 101.001 256.061 101.161 255.735 101.27C255.41 101.378 255.055 101.432 254.672 101.432C254.304 101.432 253.957 101.38 253.632 101.275C253.311 101.171 253.026 101.02 252.778 100.822C252.53 100.621 252.337 100.375 252.197 100.085C252.058 99.7902 251.988 99.4552 251.988 99.0795H253.063C253.063 99.3738 253.127 99.6314 253.255 99.8522C253.386 100.073 253.572 100.245 253.812 100.369C254.056 100.489 254.343 100.549 254.672 100.549C255.001 100.549 255.284 100.493 255.52 100.381C255.76 100.265 255.944 100.09 256.072 99.858C256.204 99.6256 256.27 99.3332 256.27 98.9807C256.27 98.6283 256.196 98.3397 256.049 98.1151C255.902 97.8866 255.693 97.7181 255.421 97.6097C255.154 97.4974 254.839 97.4412 254.475 97.4412H253.708Z" fill="black"/>
<rect width="38.6683" height="38.6683" transform="translate(0.0322266 116.086)" fill="black" fill-opacity="0.38"/>
<path d="M16.849 131.479V139.984H15.7742V132.821L13.6073 133.611V132.641L16.6805 131.479H16.849ZM25.8449 137.138V138.021H19.7333V137.388L23.5211 131.526H24.3984L23.4572 133.222L20.9533 137.138H25.8449ZM24.6656 131.526V139.984H23.5908V131.526H24.6656Z" fill="black"/>
<rect width="38.6683" height="38.6683" transform="translate(38.7002 116.086)" fill="black" fill-opacity="0.05"/>
<path d="M55.5169 131.479V139.984H54.4422V132.821L52.2752 133.611V132.641L55.3485 131.479H55.5169ZM60.1557 135.958L59.2959 135.738L59.72 131.526H64.0598V132.519H60.6321L60.3765 134.82C60.5314 134.731 60.727 134.647 60.9633 134.57C61.2034 134.492 61.4784 134.454 61.7882 134.454C62.1794 134.454 62.5299 134.521 62.8398 134.657C63.1496 134.789 63.413 134.978 63.6299 135.226C63.8506 135.474 64.0191 135.772 64.1353 136.121C64.2515 136.47 64.3096 136.859 64.3096 137.289C64.3096 137.695 64.2534 138.069 64.1411 138.41C64.0326 138.751 63.868 139.049 63.6473 139.305C63.4265 139.556 63.1477 139.752 62.8107 139.891C62.4776 140.031 62.0845 140.101 61.6314 140.101C61.2905 140.101 60.9671 140.054 60.6612 139.961C60.3591 139.864 60.088 139.719 59.8478 139.525C59.6116 139.328 59.4179 139.084 59.2669 138.793C59.1197 138.499 59.0268 138.154 58.988 137.759H60.0105C60.057 138.077 60.1499 138.344 60.2894 138.561C60.4288 138.778 60.6108 138.943 60.8355 139.055C61.064 139.163 61.3293 139.218 61.6314 139.218C61.887 139.218 62.1136 139.173 62.3111 139.084C62.5086 138.995 62.6752 138.867 62.8107 138.7C62.9463 138.534 63.0489 138.333 63.1186 138.096C63.1922 137.86 63.229 137.595 63.229 137.3C63.229 137.033 63.1922 136.785 63.1186 136.557C63.045 136.328 62.9346 136.129 62.7875 135.958C62.6442 135.788 62.4679 135.656 62.2588 135.563C62.0497 135.466 61.8095 135.418 61.5384 135.418C61.1782 135.418 60.9052 135.466 60.7193 135.563C60.5372 135.66 60.3494 135.792 60.1557 135.958Z" fill="black"/>
<rect width="38.6683" height="38.6683" transform="translate(77.3691 116.086)" fill="black" fill-opacity="0.05"/>
<path d="M94.1859 131.479V139.984H93.1111V132.821L90.9442 133.611V132.641L94.0174 131.479H94.1859ZM101.59 131.514H101.683V132.426H101.59C101.021 132.426 100.544 132.519 100.161 132.705C99.7775 132.887 99.4734 133.133 99.2488 133.443C99.0242 133.749 98.8615 134.093 98.7608 134.477C98.664 134.86 98.6155 135.25 98.6155 135.645V136.888C98.6155 137.264 98.6601 137.597 98.7492 137.887C98.8382 138.174 98.9602 138.416 99.1152 138.613C99.2701 138.811 99.4444 138.96 99.638 139.061C99.8356 139.161 100.041 139.212 100.254 139.212C100.502 139.212 100.722 139.165 100.916 139.072C101.11 138.975 101.272 138.842 101.404 138.671C101.54 138.497 101.642 138.292 101.712 138.056C101.782 137.819 101.817 137.56 101.817 137.277C101.817 137.025 101.786 136.783 101.724 136.551C101.662 136.315 101.567 136.106 101.439 135.924C101.311 135.738 101.15 135.592 100.957 135.488C100.767 135.379 100.54 135.325 100.277 135.325C99.9789 135.325 99.7 135.399 99.4405 135.546C99.1849 135.689 98.9738 135.879 98.8073 136.115C98.6446 136.348 98.5516 136.601 98.5284 136.876L97.9591 136.87C98.0133 136.437 98.114 136.067 98.2612 135.761C98.4122 135.451 98.5981 135.199 98.8189 135.006C99.0435 134.808 99.2933 134.665 99.5683 134.576C99.8472 134.483 100.142 134.436 100.451 134.436C100.874 134.436 101.238 134.516 101.544 134.674C101.85 134.833 102.101 135.046 102.299 135.314C102.496 135.577 102.642 135.875 102.735 136.208C102.831 136.537 102.88 136.876 102.88 137.225C102.88 137.624 102.824 137.998 102.711 138.346C102.599 138.695 102.43 139.001 102.206 139.264C101.985 139.527 101.712 139.733 101.387 139.88C101.061 140.027 100.684 140.101 100.254 140.101C99.7968 140.101 99.3979 140.008 99.0571 139.822C98.7162 139.632 98.4335 139.38 98.2089 139.066C97.9842 138.753 97.8158 138.404 97.7035 138.021C97.5911 137.637 97.535 137.248 97.535 136.853V136.348C97.535 135.751 97.595 135.166 97.7151 134.593C97.8351 134.02 98.0423 133.501 98.3367 133.036C98.6349 132.571 99.0474 132.202 99.5741 131.927C100.101 131.652 100.773 131.514 101.59 131.514Z" fill="black"/>
<rect width="38.6683" height="38.6683" transform="translate(116.037 116.086)" fill="black" fill-opacity="0.05"/>
<path d="M132.855 131.479V139.984H131.78V132.821L129.613 133.611V132.641L132.686 131.479H132.855ZM141.601 131.526V132.13L138.098 139.984H136.965L140.462 132.409H135.884V131.526H141.601Z" fill="black"/>
<rect width="38.6683" height="38.6683" transform="translate(154.705 116.086)" fill="black" fill-opacity="0.05"/>
<path d="M171.522 131.479V139.984H170.447V132.821L168.28 133.611V132.641L171.353 131.479H171.522ZM180.134 137.695C180.134 138.211 180.014 138.648 179.774 139.008C179.538 139.365 179.216 139.636 178.81 139.822C178.407 140.008 177.952 140.101 177.445 140.101C176.937 140.101 176.48 140.008 176.073 139.822C175.667 139.636 175.345 139.365 175.109 139.008C174.873 138.648 174.755 138.211 174.755 137.695C174.755 137.358 174.819 137.051 174.946 136.772C175.078 136.489 175.262 136.243 175.498 136.034C175.738 135.825 176.021 135.664 176.347 135.552C176.676 135.436 177.038 135.377 177.433 135.377C177.952 135.377 178.415 135.478 178.821 135.68C179.228 135.877 179.548 136.15 179.78 136.499C180.016 136.847 180.134 137.246 180.134 137.695ZM179.054 137.672C179.054 137.358 178.986 137.082 178.85 136.841C178.715 136.597 178.525 136.408 178.281 136.272C178.037 136.137 177.754 136.069 177.433 136.069C177.104 136.069 176.819 136.137 176.579 136.272C176.343 136.408 176.159 136.597 176.027 136.841C175.895 137.082 175.829 137.358 175.829 137.672C175.829 137.998 175.893 138.276 176.021 138.509C176.153 138.737 176.339 138.913 176.579 139.037C176.823 139.157 177.111 139.218 177.445 139.218C177.778 139.218 178.064 139.157 178.304 139.037C178.544 138.913 178.728 138.737 178.856 138.509C178.988 138.276 179.054 137.998 179.054 137.672ZM179.937 133.727C179.937 134.138 179.828 134.508 179.611 134.837C179.395 135.166 179.098 135.426 178.723 135.616C178.347 135.805 177.921 135.9 177.445 135.9C176.96 135.9 176.529 135.805 176.149 135.616C175.773 135.426 175.479 135.166 175.266 134.837C175.053 134.508 174.946 134.138 174.946 133.727C174.946 133.236 175.053 132.817 175.266 132.473C175.483 132.128 175.779 131.865 176.155 131.683C176.531 131.501 176.958 131.409 177.439 131.409C177.923 131.409 178.353 131.501 178.728 131.683C179.104 131.865 179.398 132.128 179.611 132.473C179.828 132.817 179.937 133.236 179.937 133.727ZM178.862 133.745C178.862 133.462 178.802 133.212 178.682 132.995C178.562 132.779 178.395 132.608 178.182 132.484C177.969 132.356 177.721 132.293 177.439 132.293C177.156 132.293 176.908 132.353 176.695 132.473C176.486 132.589 176.321 132.755 176.201 132.972C176.085 133.189 176.027 133.447 176.027 133.745C176.027 134.035 176.085 134.289 176.201 134.506C176.321 134.723 176.488 134.891 176.701 135.011C176.914 135.131 177.162 135.192 177.445 135.192C177.727 135.192 177.973 135.131 178.182 135.011C178.395 134.891 178.562 134.723 178.682 134.506C178.802 134.289 178.862 134.035 178.862 133.745Z" fill="black"/>
<rect width="38.6683" height="38.6683" transform="translate(193.374 116.086)" fill="black" fill-opacity="0.05"/>
<path d="M210.191 131.479V139.984H209.116V132.821L206.949 133.611V132.641L210.022 131.479H210.191ZM214.539 139.084H214.649C215.269 139.084 215.773 138.997 216.16 138.822C216.547 138.648 216.845 138.414 217.055 138.12C217.264 137.825 217.407 137.494 217.485 137.126C217.562 136.754 217.601 136.373 217.601 135.982V134.686C217.601 134.303 217.556 133.962 217.467 133.664C217.382 133.365 217.262 133.116 217.107 132.914C216.956 132.713 216.784 132.56 216.59 132.455C216.396 132.351 216.191 132.298 215.974 132.298C215.726 132.298 215.503 132.349 215.306 132.449C215.112 132.546 214.948 132.684 214.812 132.862C214.68 133.04 214.58 133.249 214.51 133.489C214.44 133.729 214.405 133.991 214.405 134.274C214.405 134.525 214.436 134.769 214.498 135.006C214.56 135.242 214.655 135.455 214.783 135.645C214.911 135.834 215.07 135.985 215.259 136.098C215.453 136.206 215.68 136.26 215.939 136.26C216.179 136.26 216.404 136.214 216.613 136.121C216.826 136.024 217.014 135.894 217.177 135.732C217.343 135.565 217.475 135.377 217.572 135.168C217.672 134.959 217.73 134.74 217.746 134.512H218.257C218.257 134.833 218.193 135.151 218.065 135.465C217.942 135.774 217.767 136.057 217.543 136.313C217.318 136.568 217.055 136.774 216.753 136.929C216.45 137.08 216.121 137.155 215.765 137.155C215.347 137.155 214.984 137.074 214.679 136.911C214.373 136.748 214.121 136.532 213.923 136.26C213.73 135.989 213.584 135.687 213.488 135.354C213.395 135.017 213.348 134.676 213.348 134.332C213.348 133.929 213.404 133.551 213.517 133.199C213.629 132.846 213.795 132.537 214.016 132.269C214.237 131.998 214.51 131.787 214.835 131.636C215.165 131.485 215.544 131.409 215.974 131.409C216.458 131.409 216.871 131.506 217.211 131.7C217.552 131.894 217.829 132.153 218.042 132.478C218.259 132.804 218.418 133.17 218.519 133.576C218.619 133.983 218.67 134.401 218.67 134.831V135.221C218.67 135.658 218.641 136.104 218.583 136.557C218.528 137.006 218.422 137.436 218.263 137.846C218.108 138.257 217.882 138.625 217.583 138.95C217.285 139.272 216.896 139.527 216.416 139.717C215.939 139.903 215.35 139.996 214.649 139.996H214.539V139.084Z" fill="black"/>
<rect width="38.6683" height="38.6683" transform="translate(232.042 116.086)" fill="black" fill-opacity="0.38"/>
<path d="M250.87 139.101V139.984H245.333V139.212L248.104 136.127C248.445 135.747 248.709 135.426 248.895 135.162C249.084 134.895 249.216 134.657 249.29 134.448C249.367 134.235 249.406 134.018 249.406 133.797C249.406 133.518 249.348 133.267 249.232 133.042C249.119 132.813 248.953 132.631 248.732 132.496C248.511 132.36 248.244 132.293 247.93 132.293C247.555 132.293 247.241 132.366 246.989 132.513C246.741 132.657 246.555 132.858 246.431 133.117C246.307 133.377 246.245 133.675 246.245 134.012H245.171C245.171 133.536 245.275 133.1 245.484 132.705C245.694 132.31 246.003 131.996 246.414 131.764C246.824 131.528 247.33 131.409 247.93 131.409C248.465 131.409 248.922 131.504 249.301 131.694C249.681 131.88 249.971 132.143 250.173 132.484C250.378 132.821 250.481 133.216 250.481 133.669C250.481 133.917 250.438 134.169 250.353 134.425C250.271 134.676 250.157 134.928 250.01 135.18C249.867 135.432 249.698 135.68 249.505 135.924C249.315 136.168 249.111 136.408 248.895 136.644L246.629 139.101H250.87ZM257.449 135.081V136.371C257.449 137.064 257.387 137.649 257.263 138.125C257.139 138.602 256.961 138.985 256.729 139.276C256.496 139.566 256.215 139.777 255.886 139.909C255.561 140.037 255.193 140.101 254.782 140.101C254.457 140.101 254.157 140.06 253.882 139.979C253.607 139.897 253.359 139.767 253.138 139.589C252.921 139.407 252.736 139.171 252.581 138.881C252.426 138.59 252.308 138.238 252.226 137.823C252.145 137.409 252.104 136.925 252.104 136.371V135.081C252.104 134.388 252.166 133.807 252.29 133.338C252.418 132.87 252.598 132.494 252.83 132.211C253.063 131.925 253.342 131.719 253.667 131.595C253.996 131.471 254.364 131.409 254.771 131.409C255.1 131.409 255.402 131.45 255.677 131.531C255.956 131.609 256.204 131.735 256.421 131.909C256.638 132.08 256.822 132.308 256.973 132.595C257.128 132.877 257.246 133.224 257.327 133.635C257.408 134.045 257.449 134.527 257.449 135.081ZM256.368 136.545V134.901C256.368 134.521 256.345 134.188 256.299 133.902C256.256 133.611 256.192 133.363 256.107 133.158C256.022 132.953 255.913 132.786 255.782 132.659C255.654 132.531 255.505 132.438 255.334 132.38C255.168 132.318 254.98 132.287 254.771 132.287C254.515 132.287 254.289 132.335 254.091 132.432C253.894 132.525 253.727 132.674 253.591 132.879C253.46 133.085 253.359 133.354 253.289 133.687C253.22 134.02 253.185 134.425 253.185 134.901V136.545C253.185 136.925 253.206 137.26 253.249 137.55C253.295 137.841 253.363 138.092 253.452 138.305C253.541 138.515 253.65 138.687 253.777 138.822C253.905 138.958 254.052 139.059 254.219 139.125C254.389 139.187 254.577 139.218 254.782 139.218C255.046 139.218 255.276 139.167 255.474 139.066C255.671 138.966 255.836 138.809 255.968 138.596C256.103 138.379 256.204 138.102 256.27 137.765C256.336 137.424 256.368 137.018 256.368 136.545Z" fill="black"/>
<rect width="38.6683" height="38.6683" transform="translate(0.0322266 154.755)" fill="black" fill-opacity="0.38"/>
<path d="M18.8591 177.77V178.653H13.3226V177.88L16.0937 174.795C16.4346 174.416 16.6979 174.094 16.8838 173.831C17.0736 173.564 17.2053 173.325 17.2789 173.116C17.3563 172.903 17.3951 172.686 17.3951 172.466C17.3951 172.187 17.337 171.935 17.2208 171.71C17.1085 171.482 16.9419 171.3 16.7212 171.164C16.5004 171.029 16.2332 170.961 15.9194 170.961C15.5438 170.961 15.23 171.035 14.9783 171.182C14.7304 171.325 14.5445 171.526 14.4206 171.786C14.2966 172.045 14.2347 172.344 14.2347 172.681H13.1599C13.1599 172.204 13.2645 171.769 13.4736 171.373C13.6828 170.978 13.9926 170.665 14.4032 170.432C14.8137 170.196 15.3191 170.078 15.9194 170.078C16.4539 170.078 16.9109 170.173 17.2905 170.363C17.6701 170.549 17.9605 170.812 18.1619 171.153C18.3672 171.49 18.4698 171.885 18.4698 172.338C18.4698 172.586 18.4272 172.837 18.342 173.093C18.2607 173.345 18.1464 173.597 17.9993 173.848C17.856 174.1 17.6875 174.348 17.4938 174.592C17.3041 174.836 17.1007 175.076 16.8838 175.312L14.6181 177.77H18.8591ZM23.6605 170.148V178.653H22.5858V171.49L20.4188 172.28V171.31L23.4921 170.148H23.6605Z" fill="black"/>
<rect width="38.6683" height="38.6683" transform="translate(38.7002 154.755)" fill="black" fill-opacity="0.05"/>
<path d="M57.527 177.77V178.653H51.9906V177.88L54.7617 174.795C55.1025 174.416 55.3659 174.094 55.5518 173.831C55.7416 173.564 55.8733 173.325 55.9468 173.116C56.0243 172.903 56.063 172.686 56.063 172.466C56.063 172.187 56.0049 171.935 55.8888 171.71C55.7764 171.482 55.6099 171.3 55.3891 171.164C55.1684 171.029 54.9011 170.961 54.5874 170.961C54.2117 170.961 53.898 171.035 53.6463 171.182C53.3984 171.325 53.2125 171.526 53.0886 171.786C52.9646 172.045 52.9027 172.344 52.9027 172.681H51.8279C51.8279 172.204 51.9325 171.769 52.1416 171.373C52.3507 170.978 52.6606 170.665 53.0711 170.432C53.4817 170.196 53.9871 170.078 54.5874 170.078C55.1219 170.078 55.5789 170.173 55.9585 170.363C56.338 170.549 56.6285 170.812 56.8299 171.153C57.0352 171.49 57.1378 171.885 57.1378 172.338C57.1378 172.586 57.0952 172.837 57.01 173.093C56.9287 173.345 56.8144 173.597 56.6672 173.848C56.5239 174.1 56.3555 174.348 56.1618 174.592C55.972 174.836 55.7687 175.076 55.5518 175.312L53.2861 177.77H57.527ZM64.3386 177.77V178.653H58.8021V177.88L61.5733 174.795C61.9141 174.416 62.1775 174.094 62.3634 173.831C62.5532 173.564 62.6848 173.325 62.7584 173.116C62.8359 172.903 62.8746 172.686 62.8746 172.466C62.8746 172.187 62.8165 171.935 62.7003 171.71C62.588 171.482 62.4215 171.3 62.2007 171.164C61.9799 171.029 61.7127 170.961 61.399 170.961C61.0233 170.961 60.7096 171.035 60.4578 171.182C60.21 171.325 60.0241 171.526 59.9001 171.786C59.7762 172.045 59.7142 172.344 59.7142 172.681H58.6395C58.6395 172.204 58.744 171.769 58.9532 171.373C59.1623 170.978 59.4722 170.665 59.8827 170.432C60.2932 170.196 60.7987 170.078 61.399 170.078C61.9335 170.078 62.3905 170.173 62.77 170.363C63.1496 170.549 63.4401 170.812 63.6415 171.153C63.8467 171.49 63.9494 171.885 63.9494 172.338C63.9494 172.586 63.9068 172.837 63.8216 173.093C63.7402 173.345 63.626 173.597 63.4788 173.848C63.3355 174.1 63.167 174.348 62.9734 174.592C62.7836 174.836 62.5803 175.076 62.3634 175.312L60.0977 177.77H64.3386Z" fill="black"/>
<rect width="38.6683" height="38.6683" transform="translate(77.3691 154.755)" fill="black" fill-opacity="0.05"/>
<path d="M96.196 177.77V178.653H90.6595V177.88L93.4306 174.795C93.7715 174.416 94.0348 174.094 94.2207 173.831C94.4105 173.564 94.5422 173.325 94.6158 173.116C94.6933 172.903 94.732 172.686 94.732 172.466C94.732 172.187 94.6739 171.935 94.5577 171.71C94.4454 171.482 94.2788 171.3 94.0581 171.164C93.8373 171.029 93.5701 170.961 93.2564 170.961C92.8807 170.961 92.567 171.035 92.3152 171.182C92.0673 171.325 91.8814 171.526 91.7575 171.786C91.6336 172.045 91.5716 172.344 91.5716 172.681H90.4968C90.4968 172.204 90.6014 171.769 90.8105 171.373C91.0197 170.978 91.3295 170.665 91.7401 170.432C92.1506 170.196 92.656 170.078 93.2564 170.078C93.7908 170.078 94.2479 170.173 94.6274 170.363C95.007 170.549 95.2974 170.812 95.4988 171.153C95.7041 171.49 95.8068 171.885 95.8068 172.338C95.8068 172.586 95.7641 172.837 95.6789 173.093C95.5976 173.345 95.4834 173.597 95.3362 173.848C95.1929 174.1 95.0244 174.348 94.8307 174.592C94.641 174.836 94.4376 175.076 94.2207 175.312L91.955 177.77H96.196ZM99.0338 173.895H99.8007C100.176 173.895 100.486 173.833 100.73 173.709C100.978 173.581 101.162 173.409 101.282 173.192C101.406 172.971 101.468 172.723 101.468 172.448C101.468 172.123 101.414 171.85 101.305 171.629C101.197 171.408 101.034 171.242 100.817 171.129C100.6 171.017 100.325 170.961 99.9924 170.961C99.6903 170.961 99.4231 171.021 99.1907 171.141C98.9622 171.257 98.7821 171.424 98.6504 171.641C98.5226 171.858 98.4587 172.113 98.4587 172.408H97.3839C97.3839 171.978 97.4924 171.586 97.7093 171.234C97.9261 170.882 98.2302 170.601 98.6214 170.392C99.0164 170.183 99.4734 170.078 99.9924 170.078C100.504 170.078 100.951 170.169 101.334 170.351C101.718 170.529 102.016 170.796 102.229 171.153C102.442 171.505 102.549 171.945 102.549 172.471C102.549 172.684 102.498 172.913 102.398 173.157C102.301 173.397 102.148 173.622 101.939 173.831C101.733 174.04 101.466 174.212 101.137 174.348C100.808 174.48 100.413 174.545 99.9517 174.545H99.0338V173.895ZM99.0338 174.778V174.133H99.9517C100.49 174.133 100.935 174.197 101.288 174.325C101.64 174.453 101.917 174.623 102.119 174.836C102.324 175.049 102.467 175.283 102.549 175.539C102.634 175.791 102.676 176.042 102.676 176.294C102.676 176.689 102.609 177.04 102.473 177.346C102.341 177.652 102.154 177.911 101.91 178.124C101.669 178.337 101.387 178.498 101.061 178.606C100.736 178.715 100.382 178.769 99.9982 178.769C99.6303 178.769 99.2836 178.717 98.9583 178.612C98.6369 178.508 98.3522 178.357 98.1043 178.159C97.8564 177.958 97.6628 177.712 97.5234 177.421C97.3839 177.127 97.3142 176.792 97.3142 176.416H98.389C98.389 176.711 98.4529 176.968 98.5807 177.189C98.7124 177.41 98.8983 177.582 99.1384 177.706C99.3824 177.826 99.669 177.886 99.9982 177.886C100.327 177.886 100.61 177.83 100.846 177.717C101.087 177.601 101.271 177.427 101.398 177.195C101.53 176.962 101.596 176.67 101.596 176.317C101.596 175.965 101.522 175.676 101.375 175.452C101.228 175.223 101.019 175.055 100.748 174.946C100.48 174.834 100.165 174.778 99.8007 174.778H99.0338Z" fill="black"/>
<rect width="38.6683" height="38.6683" transform="translate(116.037 154.755)" fill="black" fill-opacity="0.05"/>
<path d="M134.865 177.77V178.653H129.328V177.88L132.1 174.795C132.44 174.416 132.704 174.094 132.89 173.831C133.079 173.564 133.211 173.325 133.285 173.116C133.362 172.903 133.401 172.686 133.401 172.466C133.401 172.187 133.343 171.935 133.227 171.71C133.114 171.482 132.948 171.3 132.727 171.164C132.506 171.029 132.239 170.961 131.925 170.961C131.55 170.961 131.236 171.035 130.984 171.182C130.736 171.325 130.55 171.526 130.426 171.786C130.303 172.045 130.241 172.344 130.241 172.681H129.166C129.166 172.204 129.27 171.769 129.479 171.373C129.689 170.978 129.998 170.665 130.409 170.432C130.82 170.196 131.325 170.078 131.925 170.078C132.46 170.078 132.917 170.173 133.296 170.363C133.676 170.549 133.966 170.812 134.168 171.153C134.373 171.49 134.476 171.885 134.476 172.338C134.476 172.586 134.433 172.837 134.348 173.093C134.267 173.345 134.152 173.597 134.005 173.848C133.862 174.1 133.693 174.348 133.5 174.592C133.31 174.836 133.107 175.076 132.89 175.312L130.624 177.77H134.865ZM141.851 175.806V176.689H135.739V176.056L139.527 170.194H140.404L139.463 171.891L136.959 175.806H141.851ZM140.671 170.194V178.653H139.597V170.194H140.671Z" fill="black"/>
<rect width="38.6683" height="38.6683" transform="translate(154.705 154.755)" fill="black" fill-opacity="0.05"/>
<path d="M173.532 177.77V178.653H167.995V177.88L170.767 174.795C171.107 174.416 171.371 174.094 171.557 173.831C171.746 173.564 171.878 173.325 171.952 173.116C172.029 172.903 172.068 172.686 172.068 172.466C172.068 172.187 172.01 171.935 171.894 171.71C171.781 171.482 171.615 171.3 171.394 171.164C171.173 171.029 170.906 170.961 170.592 170.961C170.217 170.961 169.903 171.035 169.651 171.182C169.403 171.325 169.217 171.526 169.093 171.786C168.97 172.045 168.908 172.344 168.908 172.681H167.833C167.833 172.204 167.937 171.769 168.146 171.373C168.356 170.978 168.665 170.665 169.076 170.432C169.487 170.196 169.992 170.078 170.592 170.078C171.127 170.078 171.584 170.173 171.963 170.363C172.343 170.549 172.633 170.812 172.835 171.153C173.04 171.49 173.143 171.885 173.143 172.338C173.143 172.586 173.1 172.837 173.015 173.093C172.934 173.345 172.819 173.597 172.672 173.848C172.529 174.1 172.36 174.348 172.167 174.592C171.977 174.836 171.774 175.076 171.557 175.312L169.291 177.77H173.532ZM176.161 174.627L175.301 174.406L175.725 170.194H180.065V171.188H176.637L176.381 173.488C176.536 173.399 176.732 173.316 176.968 173.238C177.208 173.161 177.483 173.122 177.793 173.122C178.184 173.122 178.535 173.19 178.845 173.325C179.154 173.457 179.418 173.647 179.635 173.895C179.855 174.143 180.024 174.441 180.14 174.789C180.256 175.138 180.314 175.527 180.314 175.957C180.314 176.364 180.258 176.738 180.146 177.078C180.038 177.419 179.873 177.717 179.652 177.973C179.431 178.225 179.153 178.42 178.816 178.56C178.483 178.699 178.089 178.769 177.636 178.769C177.295 178.769 176.972 178.723 176.666 178.63C176.364 178.533 176.093 178.388 175.853 178.194C175.616 177.996 175.423 177.752 175.272 177.462C175.125 177.168 175.032 176.823 174.993 176.428H176.015C176.062 176.745 176.155 177.013 176.294 177.229C176.434 177.446 176.616 177.611 176.84 177.723C177.069 177.832 177.334 177.886 177.636 177.886C177.892 177.886 178.118 177.841 178.316 177.752C178.513 177.663 178.68 177.535 178.816 177.369C178.951 177.202 179.054 177.001 179.123 176.765C179.197 176.528 179.234 176.263 179.234 175.969C179.234 175.702 179.197 175.454 179.123 175.225C179.05 174.997 178.94 174.797 178.792 174.627C178.649 174.456 178.473 174.325 178.264 174.232C178.055 174.135 177.814 174.087 177.543 174.087C177.183 174.087 176.91 174.135 176.724 174.232C176.542 174.329 176.354 174.46 176.161 174.627Z" fill="black"/>
<rect width="38.6683" height="38.6683" transform="translate(193.374 154.755)" fill="black" fill-opacity="0.05"/>
<path d="M212.201 177.77V178.653H206.664V177.88L209.436 174.795C209.776 174.416 210.04 174.094 210.226 173.831C210.415 173.564 210.547 173.325 210.621 173.116C210.698 172.903 210.737 172.686 210.737 172.466C210.737 172.187 210.679 171.935 210.563 171.71C210.45 171.482 210.284 171.3 210.063 171.164C209.842 171.029 209.575 170.961 209.261 170.961C208.886 170.961 208.572 171.035 208.32 171.182C208.072 171.325 207.886 171.526 207.762 171.786C207.638 172.045 207.576 172.344 207.576 172.681H206.502C206.502 172.204 206.606 171.769 206.815 171.373C207.025 170.978 207.334 170.665 207.745 170.432C208.155 170.196 208.661 170.078 209.261 170.078C209.796 170.078 210.253 170.173 210.632 170.363C211.012 170.549 211.302 170.812 211.504 171.153C211.709 171.49 211.812 171.885 211.812 172.338C211.812 172.586 211.769 172.837 211.684 173.093C211.602 173.345 211.488 173.597 211.341 173.848C211.198 174.1 211.029 174.348 210.836 174.592C210.646 174.836 210.443 175.076 210.226 175.312L207.96 177.77H212.201ZM217.595 170.183H217.688V171.095H217.595C217.026 171.095 216.549 171.188 216.166 171.373C215.782 171.556 215.478 171.801 215.254 172.111C215.029 172.417 214.866 172.762 214.766 173.145C214.669 173.529 214.62 173.918 214.62 174.313V175.556C214.62 175.932 214.665 176.265 214.754 176.556C214.843 176.842 214.965 177.084 215.12 177.282C215.275 177.479 215.449 177.628 215.643 177.729C215.84 177.83 216.046 177.88 216.259 177.88C216.507 177.88 216.727 177.834 216.921 177.741C217.115 177.644 217.277 177.51 217.409 177.34C217.545 177.166 217.647 176.96 217.717 176.724C217.787 176.488 217.821 176.228 217.821 175.946C217.821 175.694 217.791 175.452 217.729 175.219C217.667 174.983 217.572 174.774 217.444 174.592C217.316 174.406 217.155 174.261 216.962 174.156C216.772 174.048 216.545 173.994 216.282 173.994C215.984 173.994 215.705 174.067 215.445 174.214C215.19 174.358 214.979 174.547 214.812 174.784C214.649 175.016 214.557 175.27 214.533 175.545L213.964 175.539C214.018 175.105 214.119 174.735 214.266 174.429C214.417 174.119 214.603 173.868 214.824 173.674C215.048 173.477 215.298 173.333 215.573 173.244C215.852 173.151 216.146 173.105 216.456 173.105C216.878 173.105 217.242 173.184 217.548 173.343C217.854 173.502 218.106 173.715 218.304 173.982C218.501 174.245 218.646 174.544 218.739 174.877C218.836 175.206 218.885 175.545 218.885 175.893C218.885 176.292 218.828 176.666 218.716 177.015C218.604 177.363 218.435 177.669 218.211 177.932C217.99 178.196 217.717 178.401 217.392 178.548C217.066 178.695 216.689 178.769 216.259 178.769C215.802 178.769 215.403 178.676 215.062 178.49C214.721 178.3 214.438 178.049 214.214 177.735C213.989 177.421 213.821 177.073 213.708 176.689C213.596 176.306 213.54 175.917 213.54 175.521V175.016C213.54 174.42 213.6 173.835 213.72 173.262C213.84 172.688 214.047 172.169 214.342 171.705C214.64 171.24 215.052 170.87 215.579 170.595C216.106 170.32 216.778 170.183 217.595 170.183Z" fill="black"/>
<rect width="38.6683" height="38.6683" transform="translate(232.042 154.755)" fill="black" fill-opacity="0.38"/>
<path d="M250.87 177.77V178.653H245.333V177.88L248.104 174.795C248.445 174.416 248.709 174.094 248.895 173.831C249.084 173.564 249.216 173.325 249.29 173.116C249.367 172.903 249.406 172.686 249.406 172.466C249.406 172.187 249.348 171.935 249.232 171.71C249.119 171.482 248.953 171.3 248.732 171.164C248.511 171.029 248.244 170.961 247.93 170.961C247.555 170.961 247.241 171.035 246.989 171.182C246.741 171.325 246.555 171.526 246.431 171.786C246.307 172.045 246.245 172.344 246.245 172.681H245.171C245.171 172.204 245.275 171.769 245.484 171.373C245.694 170.978 246.003 170.665 246.414 170.432C246.824 170.196 247.33 170.078 247.93 170.078C248.465 170.078 248.922 170.173 249.301 170.363C249.681 170.549 249.971 170.812 250.173 171.153C250.378 171.49 250.481 171.885 250.481 172.338C250.481 172.586 250.438 172.837 250.353 173.093C250.271 173.345 250.157 173.597 250.01 173.848C249.867 174.1 249.698 174.348 249.505 174.592C249.315 174.836 249.111 175.076 248.895 175.312L246.629 177.77H250.87ZM257.606 170.194V170.798L254.103 178.653H252.97L256.467 171.077H251.889V170.194H257.606Z" fill="black"/>
<rect width="38.6683" height="38.6683" transform="translate(0.0322266 193.423)" fill="black" fill-opacity="0.38"/>
<path d="M18.8591 216.438V217.321H13.3226V216.548L16.0937 213.464C16.4346 213.084 16.6979 212.762 16.8838 212.499C17.0736 212.232 17.2053 211.994 17.2789 211.785C17.3563 211.572 17.3951 211.355 17.3951 211.134C17.3951 210.855 17.337 210.603 17.2208 210.379C17.1085 210.15 16.9419 209.968 16.7212 209.833C16.5004 209.697 16.2332 209.629 15.9194 209.629C15.5438 209.629 15.23 209.703 14.9783 209.85C14.7304 209.993 14.5445 210.195 14.4206 210.454C14.2966 210.714 14.2347 211.012 14.2347 211.349H13.1599C13.1599 210.872 13.2645 210.437 13.4736 210.042C13.6828 209.647 13.9926 209.333 14.4032 209.101C14.8137 208.864 15.3191 208.746 15.9194 208.746C16.4539 208.746 16.9109 208.841 17.2905 209.031C17.6701 209.217 17.9605 209.48 18.1619 209.821C18.3672 210.158 18.4698 210.553 18.4698 211.006C18.4698 211.254 18.4272 211.506 18.342 211.761C18.2607 212.013 18.1464 212.265 17.9993 212.517C17.856 212.768 17.6875 213.016 17.4938 213.26C17.3041 213.504 17.1007 213.744 16.8838 213.981L14.6181 216.438H18.8591ZM25.4615 215.032C25.4615 215.547 25.3414 215.985 25.1013 216.345C24.8651 216.701 24.5436 216.972 24.1369 217.158C23.7341 217.344 23.2791 217.437 22.7717 217.437C22.2643 217.437 21.8073 217.344 21.4006 217.158C20.994 216.972 20.6725 216.701 20.4363 216.345C20.2 215.985 20.0819 215.547 20.0819 215.032C20.0819 214.695 20.1458 214.387 20.2736 214.108C20.4053 213.826 20.5892 213.58 20.8255 213.371C21.0656 213.161 21.3483 213.001 21.6737 212.888C22.0029 212.772 22.365 212.714 22.7601 212.714C23.2791 212.714 23.7419 212.815 24.1485 213.016C24.5552 213.214 24.8747 213.487 25.1071 213.835C25.3434 214.184 25.4615 214.583 25.4615 215.032ZM24.3809 215.009C24.3809 214.695 24.3132 214.418 24.1776 214.178C24.042 213.934 23.8523 213.744 23.6083 213.609C23.3643 213.473 23.0815 213.405 22.7601 213.405C22.4309 213.405 22.1462 213.473 21.9061 213.609C21.6698 213.744 21.4858 213.934 21.3542 214.178C21.2225 214.418 21.1566 214.695 21.1566 215.009C21.1566 215.334 21.2205 215.613 21.3483 215.845C21.48 216.074 21.6659 216.25 21.9061 216.374C22.1501 216.494 22.4386 216.554 22.7717 216.554C23.1048 216.554 23.3914 216.494 23.6315 216.374C23.8716 216.25 24.0556 216.074 24.1834 215.845C24.3151 215.613 24.3809 215.334 24.3809 215.009ZM25.264 211.064C25.264 211.475 25.1555 211.845 24.9386 212.174C24.7218 212.503 24.4255 212.762 24.0498 212.952C23.6741 213.142 23.2481 213.237 22.7717 213.237C22.2876 213.237 21.8557 213.142 21.4762 212.952C21.1005 212.762 20.8061 212.503 20.5931 212.174C20.3801 211.845 20.2736 211.475 20.2736 211.064C20.2736 210.572 20.3801 210.154 20.5931 209.809C20.81 209.465 21.1063 209.201 21.482 209.019C21.8577 208.837 22.2856 208.746 22.7659 208.746C23.25 208.746 23.6799 208.837 24.0556 209.019C24.4313 209.201 24.7256 209.465 24.9386 209.809C25.1555 210.154 25.264 210.572 25.264 211.064ZM24.1892 211.082C24.1892 210.799 24.1292 210.549 24.0091 210.332C23.8891 210.115 23.7225 209.945 23.5095 209.821C23.2965 209.693 23.0486 209.629 22.7659 209.629C22.4831 209.629 22.2353 209.689 22.0223 209.809C21.8131 209.925 21.6485 210.092 21.5284 210.309C21.4123 210.526 21.3542 210.783 21.3542 211.082C21.3542 211.372 21.4123 211.626 21.5284 211.843C21.6485 212.06 21.815 212.228 22.0281 212.348C22.2411 212.468 22.489 212.528 22.7717 212.528C23.0544 212.528 23.3004 212.468 23.5095 212.348C23.7225 212.228 23.8891 212.06 24.0091 211.843C24.1292 211.626 24.1892 211.372 24.1892 211.082Z" fill="black"/>
<rect width="38.6683" height="38.6683" transform="translate(38.7002 193.423)" fill="black" fill-opacity="0.05"/>
<path d="M57.527 216.438V217.321H51.9906V216.548L54.7617 213.464C55.1025 213.084 55.3659 212.762 55.5518 212.499C55.7416 212.232 55.8733 211.994 55.9468 211.785C56.0243 211.572 56.063 211.355 56.063 211.134C56.063 210.855 56.0049 210.603 55.8888 210.379C55.7764 210.15 55.6099 209.968 55.3891 209.833C55.1684 209.697 54.9011 209.629 54.5874 209.629C54.2117 209.629 53.898 209.703 53.6463 209.85C53.3984 209.993 53.2125 210.195 53.0886 210.454C52.9646 210.714 52.9027 211.012 52.9027 211.349H51.8279C51.8279 210.872 51.9325 210.437 52.1416 210.042C52.3507 209.647 52.6606 209.333 53.0711 209.101C53.4817 208.864 53.9871 208.746 54.5874 208.746C55.1219 208.746 55.5789 208.841 55.9585 209.031C56.338 209.217 56.6285 209.48 56.8299 209.821C57.0352 210.158 57.1378 210.553 57.1378 211.006C57.1378 211.254 57.0952 211.506 57.01 211.761C56.9287 212.013 56.8144 212.265 56.6672 212.517C56.5239 212.768 56.3555 213.016 56.1618 213.26C55.972 213.504 55.7687 213.744 55.5518 213.981L53.2861 216.438H57.527ZM59.8653 216.421H59.9757C60.5953 216.421 61.0988 216.333 61.4861 216.159C61.8734 215.985 62.1717 215.751 62.3808 215.456C62.5899 215.162 62.7332 214.831 62.8107 214.463C62.8882 214.091 62.9269 213.709 62.9269 213.318V212.023C62.9269 211.639 62.8824 211.298 62.7933 211C62.7081 210.702 62.588 210.452 62.4331 210.251C62.282 210.049 62.1097 209.896 61.916 209.792C61.7224 209.687 61.5171 209.635 61.3002 209.635C61.0524 209.635 60.8297 209.685 60.6321 209.786C60.4385 209.883 60.2739 210.02 60.1383 210.199C60.0066 210.377 59.9059 210.586 59.8362 210.826C59.7665 211.066 59.7317 211.328 59.7317 211.61C59.7317 211.862 59.7626 212.106 59.8246 212.342C59.8866 212.579 59.9815 212.792 60.1093 212.981C60.2371 213.171 60.3959 213.322 60.5857 213.434C60.7793 213.543 61.0059 213.597 61.2654 213.597C61.5055 213.597 61.7301 213.551 61.9393 213.458C62.1523 213.361 62.3401 213.231 62.5028 213.068C62.6693 212.902 62.801 212.714 62.8979 212.505C62.9985 212.296 63.0566 212.077 63.0721 211.848H63.5834C63.5834 212.17 63.5195 212.488 63.3917 212.801C63.2677 213.111 63.0934 213.394 62.8688 213.649C62.6442 213.905 62.3808 214.11 62.0787 214.265C61.7766 214.416 61.4474 214.492 61.0911 214.492C60.6728 214.492 60.3107 214.41 60.0047 214.248C59.6987 214.085 59.447 213.868 59.2495 213.597C59.0558 213.326 58.9106 213.024 58.8137 212.691C58.7208 212.354 58.6743 212.013 58.6743 211.668C58.6743 211.266 58.7305 210.888 58.8428 210.536C58.9551 210.183 59.1216 209.873 59.3424 209.606C59.5632 209.335 59.8362 209.124 60.1616 208.973C60.4908 208.822 60.8703 208.746 61.3002 208.746C61.7844 208.746 62.1968 208.843 62.5377 209.037C62.8785 209.23 63.1554 209.49 63.3684 209.815C63.5853 210.14 63.7441 210.506 63.8448 210.913C63.9455 211.32 63.9959 211.738 63.9959 212.168V212.557C63.9959 212.995 63.9668 213.44 63.9087 213.893C63.8545 214.343 63.748 214.773 63.5892 215.183C63.4343 215.594 63.2077 215.962 62.9095 216.287C62.6112 216.608 62.222 216.864 61.7418 217.054C61.2654 217.24 60.6767 217.333 59.9757 217.333H59.8653V216.421Z" fill="black"/>
<rect width="38.6683" height="38.6683" transform="translate(77.3691 193.423)" fill="black" fill-opacity="0.05"/>
<path d="M92.2223 212.563H92.9891C93.3648 212.563 93.6746 212.501 93.9187 212.377C94.1665 212.249 94.3505 212.077 94.4706 211.86C94.5945 211.639 94.6565 211.391 94.6565 211.116C94.6565 210.791 94.6022 210.518 94.4938 210.297C94.3854 210.077 94.2227 209.91 94.0058 209.798C93.7889 209.685 93.5139 209.629 93.1808 209.629C92.8787 209.629 92.6115 209.689 92.3791 209.809C92.1506 209.925 91.9705 210.092 91.8388 210.309C91.711 210.526 91.6471 210.781 91.6471 211.076H90.5724C90.5724 210.646 90.6808 210.255 90.8977 209.902C91.1146 209.55 91.4186 209.269 91.8098 209.06C92.2048 208.851 92.6619 208.746 93.1808 208.746C93.6921 208.746 94.1394 208.837 94.5228 209.019C94.9063 209.197 95.2045 209.465 95.4175 209.821C95.6305 210.173 95.737 210.613 95.737 211.14C95.737 211.353 95.6867 211.581 95.586 211.825C95.4892 212.065 95.3362 212.29 95.127 212.499C94.9218 212.708 94.6545 212.881 94.3253 213.016C93.9961 213.148 93.6011 213.214 93.1402 213.214H92.2223V212.563ZM92.2223 213.446V212.801H93.1402C93.6785 212.801 94.1239 212.865 94.4764 212.993C94.8288 213.121 95.1057 213.291 95.3071 213.504C95.5124 213.717 95.6557 213.952 95.737 214.207C95.8222 214.459 95.8648 214.711 95.8648 214.962C95.8648 215.357 95.7971 215.708 95.6615 216.014C95.5298 216.32 95.342 216.579 95.098 216.792C94.8579 217.005 94.5751 217.166 94.2498 217.275C93.9245 217.383 93.5701 217.437 93.1866 217.437C92.8187 217.437 92.4721 217.385 92.1467 217.28C91.8253 217.176 91.5406 217.025 91.2927 216.827C91.0449 216.626 90.8512 216.38 90.7118 216.089C90.5724 215.795 90.5026 215.46 90.5026 215.084H91.5774C91.5774 215.379 91.6413 215.636 91.7691 215.857C91.9008 216.078 92.0867 216.25 92.3268 216.374C92.5708 216.494 92.8574 216.554 93.1866 216.554C93.5159 216.554 93.7986 216.498 94.0348 216.386C94.275 216.27 94.4589 216.095 94.5867 215.863C94.7184 215.63 94.7843 215.338 94.7843 214.986C94.7843 214.633 94.7107 214.345 94.5635 214.12C94.4163 213.891 94.2072 213.723 93.9361 213.615C93.6688 213.502 93.3532 213.446 92.9891 213.446H92.2223ZM102.775 212.418V213.708C102.775 214.401 102.713 214.986 102.589 215.462C102.465 215.938 102.287 216.322 102.055 216.612C101.822 216.903 101.542 217.114 101.212 217.246C100.887 217.373 100.519 217.437 100.109 217.437C99.7833 217.437 99.4831 217.397 99.2081 217.315C98.9331 217.234 98.6853 217.104 98.4645 216.926C98.2476 216.744 98.0617 216.508 97.9068 216.217C97.7519 215.927 97.6337 215.574 97.5524 215.16C97.4711 214.745 97.4304 214.261 97.4304 213.708V212.418C97.4304 211.725 97.4924 211.144 97.6163 210.675C97.7441 210.206 97.9242 209.831 98.1566 209.548C98.389 209.261 98.6678 209.056 98.9932 208.932C99.3224 208.808 99.6903 208.746 100.097 208.746C100.426 208.746 100.728 208.787 101.003 208.868C101.282 208.946 101.53 209.071 101.747 209.246C101.964 209.416 102.148 209.645 102.299 209.931C102.454 210.214 102.572 210.561 102.653 210.971C102.735 211.382 102.775 211.864 102.775 212.418ZM101.695 213.882V212.238C101.695 211.858 101.671 211.525 101.625 211.238C101.582 210.948 101.518 210.7 101.433 210.495C101.348 210.29 101.24 210.123 101.108 209.995C100.98 209.867 100.831 209.774 100.661 209.716C100.494 209.654 100.306 209.623 100.097 209.623C99.8414 209.623 99.6148 209.672 99.4173 209.769C99.2197 209.862 99.0532 210.011 98.9176 210.216C98.786 210.421 98.6853 210.69 98.6155 211.024C98.5458 211.357 98.511 211.761 98.511 212.238V213.882C98.511 214.261 98.5323 214.596 98.5749 214.887C98.6214 215.177 98.6891 215.429 98.7782 215.642C98.8673 215.851 98.9757 216.024 99.1036 216.159C99.2314 216.295 99.3785 216.395 99.5451 216.461C99.7155 216.523 99.9033 216.554 100.109 216.554C100.372 216.554 100.602 216.504 100.8 216.403C100.997 216.302 101.162 216.146 101.294 215.933C101.429 215.716 101.53 215.439 101.596 215.102C101.662 214.761 101.695 214.354 101.695 213.882Z" fill="black"/>
<rect width="38.6683" height="38.6683" transform="translate(116.037 193.423)" fill="black" fill-opacity="0.05"/>
<path d="M130.891 212.563H131.658C132.034 212.563 132.344 212.501 132.588 212.377C132.835 212.249 133.019 212.077 133.14 211.86C133.263 211.639 133.325 211.391 133.325 211.116C133.325 210.791 133.271 210.518 133.163 210.297C133.054 210.077 132.892 209.91 132.675 209.798C132.458 209.685 132.183 209.629 131.85 209.629C131.548 209.629 131.28 209.689 131.048 209.809C130.82 209.925 130.639 210.092 130.508 210.309C130.38 210.526 130.316 210.781 130.316 211.076H129.241C129.241 210.646 129.35 210.255 129.567 209.902C129.784 209.55 130.088 209.269 130.479 209.06C130.874 208.851 131.331 208.746 131.85 208.746C132.361 208.746 132.808 208.837 133.192 209.019C133.575 209.197 133.873 209.465 134.086 209.821C134.299 210.173 134.406 210.613 134.406 211.14C134.406 211.353 134.356 211.581 134.255 211.825C134.158 212.065 134.005 212.29 133.796 212.499C133.591 212.708 133.323 212.881 132.994 213.016C132.665 213.148 132.27 213.214 131.809 213.214H130.891V212.563ZM130.891 213.446V212.801H131.809C132.347 212.801 132.793 212.865 133.145 212.993C133.498 213.121 133.775 213.291 133.976 213.504C134.181 213.717 134.325 213.952 134.406 214.207C134.491 214.459 134.534 214.711 134.534 214.962C134.534 215.357 134.466 215.708 134.33 216.014C134.199 216.32 134.011 216.579 133.767 216.792C133.527 217.005 133.244 217.166 132.919 217.275C132.593 217.383 132.239 217.437 131.856 217.437C131.488 217.437 131.141 217.385 130.816 217.28C130.494 217.176 130.21 217.025 129.962 216.827C129.714 216.626 129.52 216.38 129.381 216.089C129.241 215.795 129.172 215.46 129.172 215.084H130.246C130.246 215.379 130.31 215.636 130.438 215.857C130.57 216.078 130.756 216.25 130.996 216.374C131.24 216.494 131.526 216.554 131.856 216.554C132.185 216.554 132.468 216.498 132.704 216.386C132.944 216.27 133.128 216.095 133.256 215.863C133.387 215.63 133.453 215.338 133.453 214.986C133.453 214.633 133.38 214.345 133.232 214.12C133.085 213.891 132.876 213.723 132.605 213.615C132.338 213.502 132.022 213.446 131.658 213.446H130.891ZM139.666 208.816V217.321H138.592V210.158L136.425 210.948V209.978L139.498 208.816H139.666Z" fill="black"/>
</g>
<defs>
<clipPath id="clip0_932_4106">
<rect x="0.0322266" y="0.081543" width="270.678" height="270.678" rx="11.8979" fill="white"/>
</clipPath>
</defs>
</svg>
