<svg width="271" height="272" viewBox="0 0 271 272" fill="none" xmlns="http://www.w3.org/2000/svg">
<g clip-path="url(#clip0_932_4322)">
<rect width="270.678" height="38.6683" transform="translate(0.0322266 0.966309)" fill="black"/>
<path d="M18.8263 24.8643H17.0022L17.0138 23.6094H18.8263C19.3182 23.6094 19.7307 23.501 20.0638 23.2841C20.3969 23.0633 20.6486 22.7476 20.819 22.3371C20.9894 21.9227 21.0746 21.4269 21.0746 20.8499V20.4141C21.0746 19.9688 21.0262 19.5756 20.9294 19.2348C20.8326 18.894 20.6893 18.6074 20.4995 18.375C20.3136 18.1426 20.0831 17.9664 19.8082 17.8463C19.5332 17.7263 19.2175 17.6662 18.8612 17.6662H16.9673V16.4056H18.8612C19.4267 16.4056 19.9418 16.5005 20.4065 16.6902C20.8752 16.88 21.2799 17.1531 21.6207 17.5094C21.9654 17.8618 22.2288 18.284 22.4108 18.7759C22.5967 19.2677 22.6897 19.8177 22.6897 20.4258V20.8499C22.6897 21.4541 22.5967 22.004 22.4108 22.4998C22.2288 22.9916 21.9654 23.4138 21.6207 23.7663C21.2799 24.1187 20.8732 24.3898 20.4007 24.5796C19.9282 24.7694 19.4034 24.8643 18.8263 24.8643ZM17.8968 16.4056V24.8643H16.2992V16.4056H17.8968Z" fill="white"/>
<path d="M59.638 22.6683C59.638 22.5056 59.6129 22.3603 59.5625 22.2325C59.516 22.1009 59.4289 21.9827 59.3011 21.8782C59.1771 21.7697 59.0009 21.6651 58.7724 21.5644C58.5478 21.4599 58.2573 21.3514 57.901 21.2391C57.5059 21.1152 57.138 20.9757 56.7972 20.8208C56.4563 20.6659 56.1562 20.4858 55.8967 20.2805C55.6411 20.0753 55.4416 19.839 55.2983 19.5718C55.155 19.3007 55.0834 18.9869 55.0834 18.6306C55.0834 18.282 55.1569 17.9645 55.3041 17.6779C55.4552 17.3913 55.6682 17.1453 55.9432 16.94C56.2182 16.7309 56.5416 16.5702 56.9134 16.4579C57.289 16.3455 57.7035 16.2894 58.1566 16.2894C58.784 16.2894 59.3263 16.4036 59.7833 16.6321C60.2442 16.8606 60.6005 17.1705 60.8522 17.5617C61.104 17.9528 61.2299 18.3924 61.2299 18.8804H59.638C59.638 18.6171 59.5819 18.3847 59.4696 18.1833C59.3611 17.9819 59.1946 17.8231 58.9699 17.7069C58.7492 17.5907 58.4703 17.5326 58.1334 17.5326C57.808 17.5326 57.5369 17.581 57.32 17.6779C57.107 17.7747 56.9463 17.9064 56.8378 18.0729C56.7333 18.2394 56.681 18.4253 56.681 18.6306C56.681 18.7855 56.7178 18.925 56.7914 19.0489C56.8649 19.169 56.9753 19.2832 57.1225 19.3917C57.2697 19.4962 57.4517 19.595 57.6686 19.688C57.8894 19.777 58.145 19.8661 58.4355 19.9552C58.9002 20.0946 59.3069 20.2495 59.6555 20.42C60.0079 20.5904 60.3003 20.784 60.5327 21.0009C60.769 21.2178 60.9452 21.4618 61.0614 21.7329C61.1814 22.004 61.2415 22.3119 61.2415 22.6566C61.2415 23.0207 61.1698 23.346 61.0265 23.6326C60.8832 23.9192 60.6779 24.1632 60.4107 24.3646C60.1435 24.566 59.822 24.719 59.4463 24.8236C59.0745 24.9282 58.6582 24.9804 58.1973 24.9804C57.7867 24.9804 57.3801 24.9262 56.9773 24.8178C56.5783 24.7055 56.2162 24.5389 55.8909 24.3182C55.5655 24.0935 55.3061 23.8108 55.1124 23.47C54.9188 23.1253 54.8219 22.7225 54.8219 22.2616H56.4254C56.4254 22.5288 56.468 22.7573 56.5532 22.9471C56.6422 23.133 56.7662 23.286 56.925 23.4061C57.0876 23.5223 57.2774 23.6075 57.4943 23.6617C57.7112 23.7159 57.9455 23.743 58.1973 23.743C58.5226 23.743 58.7898 23.6985 58.999 23.6094C59.212 23.5164 59.3708 23.3886 59.4754 23.226C59.5838 23.0633 59.638 22.8774 59.638 22.6683Z" fill="white"/>
<path d="M97.482 16.4056V24.8643H95.8902V16.4056H97.482ZM100.108 16.4056V17.6662H93.2933V16.4056H100.108Z" fill="white"/>
<path d="M136.615 23.6733L138.869 25.4626L137.846 26.3515L135.627 24.5738L136.615 23.6733ZM138.91 20.42V20.8557C138.91 21.4947 138.824 22.0699 138.654 22.5811C138.483 23.0885 138.239 23.5203 137.922 23.8766C137.608 24.233 137.234 24.506 136.801 24.6958C136.367 24.8856 135.887 24.9804 135.36 24.9804C134.837 24.9804 134.357 24.8856 133.919 24.6958C133.485 24.506 133.11 24.233 132.792 23.8766C132.474 23.5203 132.229 23.0885 132.054 22.5811C131.88 22.0699 131.793 21.4947 131.793 20.8557V20.42C131.793 19.777 131.878 19.2019 132.048 18.6945C132.223 18.1872 132.467 17.7553 132.78 17.399C133.098 17.0388 133.474 16.7638 133.908 16.574C134.345 16.3843 134.825 16.2894 135.348 16.2894C135.875 16.2894 136.355 16.3843 136.789 16.574C137.227 16.7638 137.602 17.0388 137.916 17.399C138.234 17.7553 138.478 18.1872 138.648 18.6945C138.822 19.2019 138.91 19.777 138.91 20.42ZM137.294 20.8557V20.4083C137.294 19.9474 137.252 19.5427 137.167 19.1941C137.081 18.8417 136.954 18.5454 136.783 18.3053C136.617 18.0652 136.413 17.8851 136.173 17.765C135.933 17.6411 135.658 17.5791 135.348 17.5791C135.042 17.5791 134.769 17.6411 134.529 17.765C134.289 17.8851 134.086 18.0652 133.919 18.3053C133.753 18.5454 133.625 18.8417 133.536 19.1941C133.45 19.5427 133.408 19.9474 133.408 20.4083V20.8557C133.408 21.3127 133.45 21.7174 133.536 22.0699C133.625 22.4223 133.753 22.7205 133.919 22.9645C134.09 23.2047 134.295 23.3867 134.535 23.5106C134.779 23.6346 135.054 23.6965 135.36 23.6965C135.67 23.6965 135.945 23.6346 136.185 23.5106C136.425 23.3867 136.626 23.2047 136.789 22.9645C136.956 22.7205 137.081 22.4223 137.167 22.0699C137.252 21.7174 137.294 21.3127 137.294 20.8557Z" fill="white"/>
<path d="M175.283 23.6733L177.537 25.4626L176.514 26.3515L174.295 24.5738L175.283 23.6733ZM177.577 20.42V20.8557C177.577 21.4947 177.492 22.0699 177.322 22.5811C177.151 23.0885 176.907 23.5203 176.59 23.8766C176.276 24.233 175.902 24.506 175.469 24.6958C175.035 24.8856 174.555 24.9804 174.028 24.9804C173.505 24.9804 173.025 24.8856 172.587 24.6958C172.153 24.506 171.778 24.233 171.46 23.8766C171.142 23.5203 170.897 23.0885 170.722 22.5811C170.548 22.0699 170.461 21.4947 170.461 20.8557V20.42C170.461 19.777 170.546 19.2019 170.716 18.6945C170.891 18.1872 171.135 17.7553 171.448 17.399C171.766 17.0388 172.142 16.7638 172.575 16.574C173.013 16.3843 173.493 16.2894 174.016 16.2894C174.543 16.2894 175.023 16.3843 175.457 16.574C175.895 16.7638 176.27 17.0388 176.584 17.399C176.902 17.7553 177.146 18.1872 177.316 18.6945C177.49 19.2019 177.577 19.777 177.577 20.42ZM175.962 20.8557V20.4083C175.962 19.9474 175.92 19.5427 175.835 19.1941C175.749 18.8417 175.622 18.5454 175.451 18.3053C175.285 18.0652 175.081 17.8851 174.841 17.765C174.601 17.6411 174.326 17.5791 174.016 17.5791C173.71 17.5791 173.437 17.6411 173.197 17.765C172.957 17.8851 172.754 18.0652 172.587 18.3053C172.421 18.5454 172.293 18.8417 172.204 19.1941C172.118 19.5427 172.076 19.9474 172.076 20.4083V20.8557C172.076 21.3127 172.118 21.7174 172.204 22.0699C172.293 22.4223 172.421 22.7205 172.587 22.9645C172.758 23.2047 172.963 23.3867 173.203 23.5106C173.447 23.6346 173.722 23.6965 174.028 23.6965C174.338 23.6965 174.613 23.6346 174.853 23.5106C175.093 23.3867 175.294 23.2047 175.457 22.9645C175.624 22.7205 175.749 22.4223 175.835 22.0699C175.92 21.7174 175.962 21.3127 175.962 20.8557Z" fill="white"/>
<path d="M214.312 22.6683C214.312 22.5056 214.287 22.3603 214.236 22.2325C214.19 22.1009 214.103 21.9827 213.975 21.8782C213.851 21.7697 213.675 21.6651 213.446 21.5644C213.222 21.4599 212.931 21.3514 212.575 21.2391C212.18 21.1152 211.812 20.9757 211.471 20.8208C211.13 20.6659 210.83 20.4858 210.571 20.2805C210.315 20.0753 210.115 19.839 209.972 19.5718C209.829 19.3007 209.757 18.9869 209.757 18.6306C209.757 18.282 209.831 17.9645 209.978 17.6779C210.129 17.3913 210.342 17.1453 210.617 16.94C210.892 16.7309 211.215 16.5702 211.587 16.4579C211.963 16.3455 212.377 16.2894 212.83 16.2894C213.458 16.2894 214 16.4036 214.457 16.6321C214.918 16.8606 215.274 17.1705 215.526 17.5617C215.778 17.9528 215.904 18.3924 215.904 18.8804H214.312C214.312 18.6171 214.256 18.3847 214.143 18.1833C214.035 17.9819 213.868 17.8231 213.644 17.7069C213.423 17.5907 213.144 17.5326 212.807 17.5326C212.482 17.5326 212.211 17.581 211.994 17.6779C211.781 17.7747 211.62 17.9064 211.512 18.0729C211.407 18.2394 211.355 18.4253 211.355 18.6306C211.355 18.7855 211.392 18.925 211.465 19.0489C211.539 19.169 211.649 19.2832 211.796 19.3917C211.944 19.4962 212.126 19.595 212.342 19.688C212.563 19.777 212.819 19.8661 213.109 19.9552C213.574 20.0946 213.981 20.2495 214.329 20.42C214.682 20.5904 214.974 20.784 215.207 21.0009C215.443 21.2178 215.619 21.4618 215.735 21.7329C215.855 22.004 215.915 22.3119 215.915 22.6566C215.915 23.0207 215.844 23.346 215.7 23.6326C215.557 23.9192 215.352 24.1632 215.085 24.3646C214.817 24.566 214.496 24.719 214.12 24.8236C213.748 24.9282 213.332 24.9804 212.871 24.9804C212.461 24.9804 212.054 24.9262 211.651 24.8178C211.252 24.7055 210.89 24.5389 210.565 24.3182C210.239 24.0935 209.98 23.8108 209.786 23.47C209.593 23.1253 209.496 22.7225 209.496 22.2616H211.099C211.099 22.5288 211.142 22.7573 211.227 22.9471C211.316 23.133 211.44 23.286 211.599 23.4061C211.761 23.5223 211.951 23.6075 212.168 23.6617C212.385 23.7159 212.619 23.743 212.871 23.743C213.196 23.743 213.464 23.6985 213.673 23.6094C213.886 23.5164 214.045 23.3886 214.149 23.226C214.258 23.0633 214.312 22.8774 214.312 22.6683Z" fill="white"/>
<path d="M252.98 22.6683C252.98 22.5056 252.955 22.3603 252.904 22.2325C252.858 22.1009 252.771 21.9827 252.643 21.8782C252.519 21.7697 252.343 21.6651 252.114 21.5644C251.89 21.4599 251.599 21.3514 251.243 21.2391C250.848 21.1152 250.48 20.9757 250.139 20.8208C249.798 20.6659 249.498 20.4858 249.238 20.2805C248.983 20.0753 248.783 19.839 248.64 19.5718C248.497 19.3007 248.425 18.9869 248.425 18.6306C248.425 18.282 248.499 17.9645 248.646 17.6779C248.797 17.3913 249.01 17.1453 249.285 16.94C249.56 16.7309 249.883 16.5702 250.255 16.4579C250.631 16.3455 251.045 16.2894 251.498 16.2894C252.126 16.2894 252.668 16.4036 253.125 16.6321C253.586 16.8606 253.942 17.1705 254.194 17.5617C254.446 17.9528 254.572 18.3924 254.572 18.8804H252.98C252.98 18.6171 252.924 18.3847 252.811 18.1833C252.703 17.9819 252.536 17.8231 252.312 17.7069C252.091 17.5907 251.812 17.5326 251.475 17.5326C251.15 17.5326 250.879 17.581 250.662 17.6779C250.449 17.7747 250.288 17.9064 250.18 18.0729C250.075 18.2394 250.023 18.4253 250.023 18.6306C250.023 18.7855 250.06 18.925 250.133 19.0489C250.207 19.169 250.317 19.2832 250.464 19.3917C250.611 19.4962 250.794 19.595 251.01 19.688C251.231 19.777 251.487 19.8661 251.777 19.9552C252.242 20.0946 252.649 20.2495 252.997 20.42C253.35 20.5904 253.642 20.784 253.875 21.0009C254.111 21.2178 254.287 21.4618 254.403 21.7329C254.523 22.004 254.583 22.3119 254.583 22.6566C254.583 23.0207 254.512 23.346 254.368 23.6326C254.225 23.9192 254.02 24.1632 253.753 24.3646C253.485 24.566 253.164 24.719 252.788 24.8236C252.416 24.9282 252 24.9804 251.539 24.9804C251.129 24.9804 250.722 24.9262 250.319 24.8178C249.92 24.7055 249.558 24.5389 249.233 24.3182C248.907 24.0935 248.648 23.8108 248.454 23.47C248.261 23.1253 248.164 22.7225 248.164 22.2616H249.767C249.767 22.5288 249.81 22.7573 249.895 22.9471C249.984 23.133 250.108 23.286 250.267 23.4061C250.429 23.5223 250.619 23.6075 250.836 23.6617C251.053 23.7159 251.287 23.743 251.539 23.743C251.864 23.743 252.132 23.6985 252.341 23.6094C252.554 23.5164 252.713 23.3886 252.817 23.226C252.926 23.0633 252.98 22.8774 252.98 22.6683Z" fill="white"/>
<rect width="38.6683" height="38.6683" transform="translate(154.705 39.6348)" fill="black" fill-opacity="0.05"/>
<path d="M174.928 55.0275V63.5327H173.853V56.3695L171.686 57.1596V56.1895L174.759 55.0275H174.928Z" fill="black"/>
<rect width="38.6683" height="38.6683" transform="translate(193.374 39.6348)" fill="black" fill-opacity="0.05"/>
<path d="M215.607 62.6497V63.5327H210.07V62.76L212.841 59.6752C213.182 59.2956 213.446 58.9742 213.631 58.7108C213.821 58.4436 213.953 58.2054 214.026 57.9962C214.104 57.7832 214.143 57.5663 214.143 57.3456C214.143 57.0667 214.085 56.8149 213.968 56.5903C213.856 56.3618 213.69 56.1798 213.469 56.0442C213.248 55.9087 212.981 55.8409 212.667 55.8409C212.291 55.8409 211.978 55.9145 211.726 56.0616C211.478 56.2049 211.292 56.4063 211.168 56.6658C211.044 56.9253 210.982 57.2236 210.982 57.5605H209.907C209.907 57.0841 210.012 56.6484 210.221 56.2534C210.43 55.8583 210.74 55.5446 211.151 55.3122C211.561 55.076 212.067 54.9578 212.667 54.9578C213.202 54.9578 213.659 55.0527 214.038 55.2425C214.418 55.4284 214.708 55.6918 214.91 56.0326C215.115 56.3695 215.217 56.7646 215.217 57.2177C215.217 57.4656 215.175 57.7174 215.09 57.973C215.008 58.2247 214.894 58.4765 214.747 58.7282C214.604 58.98 214.435 59.2278 214.241 59.4718C214.052 59.7158 213.848 59.956 213.631 60.1922L211.366 62.6497H215.607Z" fill="black"/>
<rect width="38.6683" height="38.6683" transform="translate(232.042 39.6348)" fill="#2EA66D"/>
<path d="M250.302 58.7747H251.069C251.444 58.7747 251.754 58.7127 251.998 58.5888C252.246 58.461 252.43 58.2886 252.55 58.0717C252.674 57.851 252.736 57.6031 252.736 57.3281C252.736 57.0028 252.682 56.7297 252.573 56.509C252.465 56.2882 252.302 56.1217 252.085 56.0094C251.869 55.897 251.594 55.8409 251.26 55.8409C250.958 55.8409 250.691 55.9009 250.459 56.021C250.23 56.1372 250.05 56.3037 249.918 56.5206C249.791 56.7375 249.727 56.9931 249.727 57.2875H248.652C248.652 56.8576 248.76 56.4664 248.977 56.1139C249.194 55.7615 249.498 55.4807 249.889 55.2715C250.284 55.0624 250.741 54.9578 251.26 54.9578C251.772 54.9578 252.219 55.0488 252.602 55.2309C252.986 55.409 253.284 55.6763 253.497 56.0326C253.71 56.385 253.817 56.8246 253.817 57.3514C253.817 57.5644 253.766 57.7929 253.666 58.0369C253.569 58.277 253.416 58.5017 253.207 58.7108C253.001 58.9199 252.734 59.0923 252.405 59.2278C252.076 59.3595 251.681 59.4254 251.22 59.4254H250.302V58.7747ZM250.302 59.6578V59.0129H251.22C251.758 59.0129 252.204 59.0768 252.556 59.2046C252.908 59.3324 253.185 59.5028 253.387 59.7158C253.592 59.9289 253.735 60.1632 253.817 60.4188C253.902 60.6705 253.944 60.9223 253.944 61.174C253.944 61.5691 253.877 61.9196 253.741 62.2256C253.609 62.5315 253.422 62.791 253.178 63.004C252.937 63.2171 252.655 63.3778 252.329 63.4862C252.004 63.5947 251.65 63.6489 251.266 63.6489C250.898 63.6489 250.552 63.5966 250.226 63.492C249.905 63.3875 249.62 63.2364 249.372 63.0389C249.124 62.8375 248.931 62.5916 248.791 62.3011C248.652 62.0067 248.582 61.6717 248.582 61.296H249.657C249.657 61.5904 249.721 61.8479 249.849 62.0687C249.98 62.2895 250.166 62.4618 250.406 62.5858C250.65 62.7058 250.937 62.7659 251.266 62.7659C251.595 62.7659 251.878 62.7097 252.114 62.5974C252.355 62.4812 252.539 62.3069 252.666 62.0745C252.798 61.8421 252.864 61.5497 252.864 61.1973C252.864 60.8448 252.79 60.5563 252.643 60.3317C252.496 60.1031 252.287 59.9347 252.016 59.8262C251.748 59.7139 251.433 59.6578 251.069 59.6578H250.302Z" fill="black"/>
<rect width="38.6683" height="38.6683" transform="translate(0.0322266 78.303)" fill="black" fill-opacity="0.38"/>
<path d="M22.4391 99.3543V100.237H16.3275V99.6041L20.1153 93.7422H20.9926L20.0514 95.4386L17.5475 99.3543H22.4391ZM21.2598 93.7422V102.201H20.185V93.7422H21.2598Z" fill="black"/>
<rect width="38.6683" height="38.6683" transform="translate(38.7002 78.303)" fill="#813ADA"/>
<path d="M56.75 98.1749L55.8901 97.9542L56.3142 93.7422H60.654V94.7357H57.2263L56.9707 97.0362C57.1256 96.9472 57.3212 96.8639 57.5575 96.7864C57.7976 96.709 58.0726 96.6702 58.3824 96.6702C58.7736 96.6702 59.1241 96.738 59.434 96.8736C59.7438 97.0053 60.0072 97.195 60.2241 97.4429C60.4448 97.6908 60.6133 97.989 60.7295 98.3376C60.8457 98.6862 60.9038 99.0754 60.9038 99.5053C60.9038 99.912 60.8476 100.286 60.7353 100.627C60.6269 100.967 60.4623 101.266 60.2415 101.521C60.0207 101.773 59.7419 101.969 59.4049 102.108C59.0718 102.247 58.6787 102.317 58.2256 102.317C57.8848 102.317 57.5614 102.271 57.2554 102.178C56.9533 102.081 56.6822 101.936 56.4421 101.742C56.2058 101.544 56.0121 101.3 55.8611 101.01C55.7139 100.716 55.621 100.371 55.5822 99.9759H56.6047C56.6512 100.293 56.7442 100.561 56.8836 100.778C57.023 100.994 57.205 101.159 57.4297 101.271C57.6582 101.38 57.9235 101.434 58.2256 101.434C58.4812 101.434 58.7078 101.39 58.9053 101.3C59.1028 101.211 59.2694 101.084 59.4049 100.917C59.5405 100.75 59.6431 100.549 59.7128 100.313C59.7864 100.077 59.8232 99.8113 59.8232 99.5169C59.8232 99.2497 59.7864 99.0018 59.7128 98.7733C59.6392 98.5448 59.5289 98.3453 59.3817 98.1749C59.2384 98.0045 59.0622 97.8728 58.853 97.7799C58.6439 97.683 58.4037 97.6346 58.1326 97.6346C57.7724 97.6346 57.4994 97.683 57.3135 97.7799C57.1315 97.8767 56.9436 98.0084 56.75 98.1749Z" fill="white"/>
<rect width="38.6683" height="38.6683" transform="translate(77.3691 78.303)" fill="#813ADA"/>
<path d="M98.1842 93.7306H98.2772V94.6427H98.1842C97.6149 94.6427 97.1385 94.7357 96.7551 94.9216C96.3717 95.1036 96.0676 95.3495 95.843 95.6594C95.6184 95.9654 95.4557 96.3101 95.355 96.6935C95.2582 97.0769 95.2098 97.4662 95.2098 97.8612V99.1044C95.2098 99.4801 95.2543 99.8132 95.3434 100.104C95.4325 100.39 95.5545 100.632 95.7094 100.83C95.8643 101.027 96.0386 101.177 96.2322 101.277C96.4298 101.378 96.635 101.428 96.8481 101.428C97.0959 101.428 97.3167 101.382 97.5103 101.289C97.704 101.192 97.8667 101.058 97.9983 100.888C98.1339 100.714 98.2365 100.508 98.3062 100.272C98.376 100.036 98.4108 99.7764 98.4108 99.4937C98.4108 99.2419 98.3798 98.9999 98.3179 98.7675C98.2559 98.5312 98.161 98.3221 98.0332 98.1401C97.9054 97.9542 97.7447 97.8089 97.551 97.7043C97.3612 97.5959 97.1347 97.5417 96.8713 97.5417C96.5731 97.5417 96.2942 97.6153 96.0347 97.7624C95.7791 97.9057 95.568 98.0955 95.4015 98.3318C95.2388 98.5642 95.1459 98.8178 95.1226 99.0928L94.5533 99.087C94.6075 98.6532 94.7082 98.2834 94.8554 97.9774C95.0064 97.6675 95.1923 97.4158 95.4131 97.2222C95.6377 97.0246 95.8875 96.8813 96.1625 96.7922C96.4414 96.6993 96.7357 96.6528 97.0456 96.6528C97.4677 96.6528 97.8318 96.7322 98.1378 96.891C98.4437 97.0498 98.6955 97.2628 98.893 97.5301C99.0905 97.7934 99.2358 98.0916 99.3287 98.4247C99.4256 98.7539 99.474 99.0928 99.474 99.4414C99.474 99.8403 99.4178 100.214 99.3055 100.563C99.1932 100.911 99.0247 101.217 98.8001 101.481C98.5793 101.744 98.3062 101.949 97.9809 102.096C97.6556 102.244 97.278 102.317 96.8481 102.317C96.391 102.317 95.9921 102.224 95.6513 102.038C95.3105 101.848 95.0277 101.597 94.8031 101.283C94.5785 100.969 94.41 100.621 94.2977 100.237C94.1853 99.8539 94.1292 99.4646 94.1292 99.0696V98.5642C94.1292 97.9677 94.1892 97.3829 94.3093 96.8097C94.4293 96.2365 94.6366 95.7175 94.9309 95.2527C95.2291 94.788 95.6416 94.4181 96.1683 94.1431C96.6951 93.8681 97.367 93.7306 98.1842 93.7306Z" fill="white"/>
<rect width="38.6683" height="38.6683" transform="translate(116.037 78.303)" fill="#813ADA"/>
<path d="M138.195 93.7422V94.3464L134.692 102.201H133.559L137.057 94.6253H132.479V93.7422H138.195Z" fill="white"/>
<rect width="38.6683" height="38.6683" transform="translate(154.705 78.303)" fill="#813ADA"/>
<path d="M176.729 99.912C176.729 100.427 176.609 100.865 176.368 101.225C176.132 101.581 175.811 101.852 175.404 102.038C175.001 102.224 174.546 102.317 174.039 102.317C173.531 102.317 173.074 102.224 172.668 102.038C172.261 101.852 171.94 101.581 171.703 101.225C171.467 100.865 171.349 100.427 171.349 99.912C171.349 99.575 171.413 99.2671 171.541 98.9883C171.672 98.7055 171.856 98.4596 172.093 98.2504C172.333 98.0413 172.615 97.8806 172.941 97.7682C173.27 97.6521 173.632 97.594 174.027 97.594C174.546 97.594 175.009 97.6947 175.416 97.8961C175.822 98.0936 176.142 98.3666 176.374 98.7152C176.61 99.0638 176.729 99.4627 176.729 99.912ZM175.648 99.8887C175.648 99.575 175.58 99.2981 175.445 99.058C175.309 98.814 175.119 98.6242 174.875 98.4886C174.631 98.3531 174.349 98.2853 174.027 98.2853C173.698 98.2853 173.413 98.3531 173.173 98.4886C172.937 98.6242 172.753 98.814 172.621 99.058C172.49 99.2981 172.424 99.575 172.424 99.8887C172.424 100.214 172.488 100.493 172.615 100.725C172.747 100.954 172.933 101.13 173.173 101.254C173.417 101.374 173.706 101.434 174.039 101.434C174.372 101.434 174.658 101.374 174.899 101.254C175.139 101.13 175.323 100.954 175.45 100.725C175.582 100.493 175.648 100.214 175.648 99.8887ZM176.531 95.9441C176.531 96.3546 176.423 96.7245 176.206 97.0537C175.989 97.3829 175.693 97.6424 175.317 97.8322C174.941 98.0219 174.515 98.1168 174.039 98.1168C173.555 98.1168 173.123 98.0219 172.743 97.8322C172.368 97.6424 172.073 97.3829 171.86 97.0537C171.647 96.7245 171.541 96.3546 171.541 95.9441C171.541 95.4522 171.647 95.0339 171.86 94.6892C172.077 94.3445 172.373 94.0811 172.749 93.8991C173.125 93.7171 173.553 93.626 174.033 93.626C174.517 93.626 174.947 93.7171 175.323 93.8991C175.698 94.0811 175.993 94.3445 176.206 94.6892C176.423 95.0339 176.531 95.4522 176.531 95.9441ZM175.456 95.9615C175.456 95.6787 175.396 95.4289 175.276 95.212C175.156 94.9952 174.99 94.8247 174.777 94.7008C174.564 94.573 174.316 94.5091 174.033 94.5091C173.75 94.5091 173.502 94.5691 173.289 94.6892C173.08 94.8054 172.916 94.9719 172.796 95.1888C172.679 95.4057 172.621 95.6633 172.621 95.9615C172.621 96.252 172.679 96.5056 172.796 96.7225C172.916 96.9394 173.082 97.1079 173.295 97.228C173.508 97.348 173.756 97.4081 174.039 97.4081C174.321 97.4081 174.567 97.348 174.777 97.228C174.99 97.1079 175.156 96.9394 175.276 96.7225C175.396 96.5056 175.456 96.252 175.456 95.9615Z" fill="white"/>
<rect width="38.6683" height="38.6683" transform="translate(193.374 78.303)" fill="#813ADA"/>
<path d="M211.133 101.3H211.244C211.863 101.3 212.367 101.213 212.754 101.039C213.141 100.865 213.44 100.63 213.649 100.336C213.858 100.042 214.001 99.7106 214.079 99.3426C214.156 98.9708 214.195 98.5893 214.195 98.1982V96.9026C214.195 96.5192 214.15 96.1784 214.061 95.8801C213.976 95.5819 213.856 95.3321 213.701 95.1307C213.55 94.9293 213.378 94.7763 213.184 94.6718C212.99 94.5672 212.785 94.5149 212.568 94.5149C212.32 94.5149 212.098 94.5653 211.9 94.666C211.707 94.7628 211.542 94.9003 211.406 95.0784C211.275 95.2566 211.174 95.4657 211.104 95.7059C211.035 95.946 211 96.2074 211 96.4901C211 96.7419 211.031 96.9859 211.093 97.2222C211.155 97.4584 211.25 97.6714 211.377 97.8612C211.505 98.051 211.664 98.202 211.854 98.3143C212.047 98.4228 212.274 98.477 212.533 98.477C212.774 98.477 212.998 98.4305 213.207 98.3376C213.42 98.2408 213.608 98.111 213.771 97.9483C213.937 97.7818 214.069 97.594 214.166 97.3848C214.267 97.1757 214.325 96.9568 214.34 96.7283H214.851C214.851 97.0498 214.788 97.3674 214.66 97.6811C214.536 97.9909 214.361 98.2737 214.137 98.5293C213.912 98.7849 213.649 98.9902 213.347 99.1451C213.045 99.2962 212.715 99.3717 212.359 99.3717C211.941 99.3717 211.579 99.2903 211.273 99.1277C210.967 98.965 210.715 98.7481 210.518 98.477C210.324 98.2059 210.179 97.9038 210.082 97.5707C209.989 97.2338 209.942 96.8929 209.942 96.5482C209.942 96.1454 209.999 95.7678 210.111 95.4154C210.223 95.0629 210.39 94.7531 210.61 94.4859C210.831 94.2147 211.104 94.0037 211.43 93.8526C211.759 93.7016 212.138 93.626 212.568 93.626C213.052 93.626 213.465 93.7229 213.806 93.9165C214.147 94.1102 214.423 94.3697 214.636 94.695C214.853 95.0203 215.012 95.3863 215.113 95.793C215.214 96.1997 215.264 96.618 215.264 97.0479V97.4371C215.264 97.8748 215.235 98.3202 215.177 98.7733C215.123 99.2226 215.016 99.6525 214.857 100.063C214.702 100.474 214.476 100.841 214.178 101.167C213.879 101.488 213.49 101.744 213.01 101.934C212.533 102.12 211.945 102.213 211.244 102.213H211.133V101.3Z" fill="white"/>
<rect width="38.6683" height="38.6683" transform="translate(232.042 78.303)" fill="black" fill-opacity="0.38"/>
<path d="M248.86 93.6958V102.201H247.785V95.0378L245.618 95.8279V94.8577L248.691 93.6958H248.86ZM257.449 97.2977V98.5874C257.449 99.2807 257.387 99.8655 257.263 100.342C257.139 100.818 256.961 101.202 256.729 101.492C256.496 101.783 256.215 101.994 255.886 102.125C255.561 102.253 255.193 102.317 254.782 102.317C254.457 102.317 254.157 102.276 253.882 102.195C253.607 102.114 253.359 101.984 253.138 101.806C252.921 101.624 252.736 101.388 252.581 101.097C252.426 100.807 252.308 100.454 252.226 100.04C252.145 99.6254 252.104 99.1412 252.104 98.5874V97.2977C252.104 96.6044 252.166 96.0234 252.29 95.5548C252.418 95.0862 252.598 94.7105 252.83 94.4278C253.063 94.1412 253.342 93.9359 253.667 93.8119C253.996 93.688 254.364 93.626 254.771 93.626C255.1 93.626 255.402 93.6667 255.677 93.748C255.956 93.8255 256.204 93.9514 256.421 94.1257C256.638 94.2961 256.822 94.5246 256.973 94.8112C257.128 95.0939 257.246 95.4406 257.327 95.8511C257.408 96.2616 257.449 96.7438 257.449 97.2977ZM256.368 98.7617V97.1176C256.368 96.738 256.345 96.4049 256.299 96.1183C256.256 95.8279 256.192 95.58 256.107 95.3747C256.022 95.1694 255.913 95.0029 255.782 94.8751C255.654 94.7473 255.505 94.6543 255.334 94.5962C255.168 94.5343 254.98 94.5033 254.771 94.5033C254.515 94.5033 254.289 94.5517 254.091 94.6485C253.894 94.7415 253.727 94.8906 253.591 95.0959C253.46 95.3011 253.359 95.5703 253.289 95.9034C253.22 96.2365 253.185 96.6412 253.185 97.1176V98.7617C253.185 99.1412 253.206 99.4763 253.249 99.7667C253.295 100.057 253.363 100.309 253.452 100.522C253.541 100.731 253.65 100.903 253.777 101.039C253.905 101.175 254.052 101.275 254.219 101.341C254.389 101.403 254.577 101.434 254.782 101.434C255.046 101.434 255.276 101.384 255.474 101.283C255.671 101.182 255.836 101.025 255.968 100.812C256.103 100.596 256.204 100.319 256.27 99.9817C256.336 99.6409 256.368 99.2342 256.368 98.7617Z" fill="black"/>
<rect width="38.6683" height="38.6683" transform="translate(0.0322266 116.971)" fill="black" fill-opacity="0.38"/>
<path d="M16.849 132.364V140.869H15.7742V133.706L13.6073 134.496V133.526L16.6805 132.364H16.849ZM23.6605 132.364V140.869H22.5858V133.706L20.4188 134.496V133.526L23.4921 132.364H23.6605Z" fill="black"/>
<rect width="38.6683" height="38.6683" transform="translate(38.7002 116.971)" fill="#813ADA"/>
<path d="M55.5169 132.364V140.869H54.4422V133.706L52.2752 134.496V133.526L55.3485 132.364H55.5169ZM64.3386 139.986V140.869H58.8021V140.096L61.5733 137.012C61.9141 136.632 62.1775 136.311 62.3634 136.047C62.5532 135.78 62.6848 135.542 62.7584 135.333C62.8359 135.12 62.8746 134.903 62.8746 134.682C62.8746 134.403 62.8165 134.151 62.7003 133.927C62.588 133.698 62.4215 133.516 62.2007 133.381C61.9799 133.245 61.7127 133.177 61.399 133.177C61.0233 133.177 60.7096 133.251 60.4578 133.398C60.21 133.541 60.0241 133.743 59.9001 134.002C59.7762 134.262 59.7142 134.56 59.7142 134.897H58.6395C58.6395 134.421 58.744 133.985 58.9532 133.59C59.1623 133.195 59.4722 132.881 59.8827 132.649C60.2932 132.412 60.7987 132.294 61.399 132.294C61.9335 132.294 62.3905 132.389 62.77 132.579C63.1496 132.765 63.4401 133.028 63.6415 133.369C63.8467 133.706 63.9494 134.101 63.9494 134.554C63.9494 134.802 63.9068 135.054 63.8216 135.309C63.7402 135.561 63.626 135.813 63.4788 136.065C63.3355 136.316 63.167 136.564 62.9734 136.808C62.7836 137.052 62.5803 137.292 62.3634 137.529L60.0977 139.986H64.3386Z" fill="white"/>
<rect width="38.6683" height="38.6683" transform="translate(77.3691 116.971)" fill="#813ADA"/>
<path d="M94.1859 132.364V140.869H93.1111V133.706L90.9442 134.496V133.526L94.0174 132.364H94.1859ZM99.0338 136.111H99.8007C100.176 136.111 100.486 136.049 100.73 135.925C100.978 135.797 101.162 135.625 101.282 135.408C101.406 135.187 101.468 134.94 101.468 134.665C101.468 134.339 101.414 134.066 101.305 133.845C101.197 133.625 101.034 133.458 100.817 133.346C100.6 133.233 100.325 133.177 99.9924 133.177C99.6903 133.177 99.4231 133.237 99.1907 133.357C98.9622 133.474 98.7821 133.64 98.6504 133.857C98.5226 134.074 98.4587 134.33 98.4587 134.624H97.3839C97.3839 134.194 97.4924 133.803 97.7093 133.45C97.9261 133.098 98.2302 132.817 98.6214 132.608C99.0164 132.399 99.4734 132.294 99.9924 132.294C100.504 132.294 100.951 132.385 101.334 132.567C101.718 132.745 102.016 133.013 102.229 133.369C102.442 133.721 102.549 134.161 102.549 134.688C102.549 134.901 102.498 135.129 102.398 135.373C102.301 135.613 102.148 135.838 101.939 136.047C101.733 136.256 101.466 136.429 101.137 136.564C100.808 136.696 100.413 136.762 99.9517 136.762H99.0338V136.111ZM99.0338 136.994V136.349H99.9517C100.49 136.349 100.935 136.413 101.288 136.541C101.64 136.669 101.917 136.839 102.119 137.052C102.324 137.265 102.467 137.5 102.549 137.755C102.634 138.007 102.676 138.259 102.676 138.51C102.676 138.906 102.609 139.256 102.473 139.562C102.341 139.868 102.154 140.127 101.91 140.34C101.669 140.553 101.387 140.714 101.061 140.823C100.736 140.931 100.382 140.985 99.9982 140.985C99.6303 140.985 99.2836 140.933 98.9583 140.828C98.6369 140.724 98.3522 140.573 98.1043 140.375C97.8564 140.174 97.6628 139.928 97.5234 139.638C97.3839 139.343 97.3142 139.008 97.3142 138.632H98.389C98.389 138.927 98.4529 139.184 98.5807 139.405C98.7124 139.626 98.8983 139.798 99.1384 139.922C99.3824 140.042 99.669 140.102 99.9982 140.102C100.327 140.102 100.61 140.046 100.846 139.934C101.087 139.818 101.271 139.643 101.398 139.411C101.53 139.179 101.596 138.886 101.596 138.534C101.596 138.181 101.522 137.893 101.375 137.668C101.228 137.44 101.019 137.271 100.748 137.163C100.48 137.05 100.165 136.994 99.8007 136.994H99.0338Z" fill="white"/>
<rect width="38.6683" height="38.6683" transform="translate(116.037 116.971)" fill="#813ADA"/>
<path d="M132.855 132.364V140.869H131.78V133.706L129.613 134.496V133.526L132.686 132.364H132.855ZM141.851 138.022V138.906H135.739V138.272L139.527 132.41H140.404L139.463 134.107L136.959 138.022H141.851ZM140.671 132.41V140.869H139.597V132.41H140.671Z" fill="white"/>
<rect width="38.6683" height="38.6683" transform="translate(154.705 116.971)" fill="#813ADA"/>
<path d="M171.522 132.364V140.869H170.447V133.706L168.28 134.496V133.526L171.353 132.364H171.522ZM176.161 136.843L175.301 136.622L175.725 132.41H180.065V133.404H176.637L176.381 135.704C176.536 135.615 176.732 135.532 176.968 135.455C177.208 135.377 177.483 135.338 177.793 135.338C178.184 135.338 178.535 135.406 178.845 135.542C179.154 135.673 179.418 135.863 179.635 136.111C179.855 136.359 180.024 136.657 180.14 137.006C180.256 137.354 180.314 137.744 180.314 138.174C180.314 138.58 180.258 138.954 180.146 139.295C180.038 139.636 179.873 139.934 179.652 140.189C179.431 140.441 179.153 140.637 178.816 140.776C178.483 140.916 178.089 140.985 177.636 140.985C177.295 140.985 176.972 140.939 176.666 140.846C176.364 140.749 176.093 140.604 175.853 140.41C175.616 140.213 175.423 139.969 175.272 139.678C175.125 139.384 175.032 139.039 174.993 138.644H176.015C176.062 138.962 176.155 139.229 176.294 139.446C176.434 139.663 176.616 139.827 176.84 139.94C177.069 140.048 177.334 140.102 177.636 140.102C177.892 140.102 178.118 140.058 178.316 139.969C178.513 139.88 178.68 139.752 178.816 139.585C178.951 139.419 179.054 139.217 179.123 138.981C179.197 138.745 179.234 138.479 179.234 138.185C179.234 137.918 179.197 137.67 179.123 137.442C179.05 137.213 178.94 137.014 178.792 136.843C178.649 136.673 178.473 136.541 178.264 136.448C178.055 136.351 177.814 136.303 177.543 136.303C177.183 136.303 176.91 136.351 176.724 136.448C176.542 136.545 176.354 136.677 176.161 136.843Z" fill="white"/>
<rect width="38.6683" height="38.6683" transform="translate(193.374 116.971)" fill="#813ADA"/>
<path d="M210.191 132.364V140.869H209.116V133.706L206.949 134.496V133.526L210.022 132.364H210.191ZM217.595 132.399H217.688V133.311H217.595C217.026 133.311 216.549 133.404 216.166 133.59C215.782 133.772 215.478 134.018 215.254 134.328C215.029 134.634 214.866 134.978 214.766 135.362C214.669 135.745 214.62 136.134 214.62 136.529V137.773C214.62 138.148 214.665 138.481 214.754 138.772C214.843 139.059 214.965 139.301 215.12 139.498C215.275 139.696 215.449 139.845 215.643 139.945C215.84 140.046 216.046 140.096 216.259 140.096C216.507 140.096 216.727 140.05 216.921 139.957C217.115 139.86 217.277 139.727 217.409 139.556C217.545 139.382 217.647 139.177 217.717 138.94C217.787 138.704 217.821 138.445 217.821 138.162C217.821 137.91 217.791 137.668 217.729 137.436C217.667 137.199 217.572 136.99 217.444 136.808C217.316 136.622 217.155 136.477 216.962 136.373C216.772 136.264 216.545 136.21 216.282 136.21C215.984 136.21 215.705 136.283 215.445 136.431C215.19 136.574 214.979 136.764 214.812 137C214.649 137.232 214.557 137.486 214.533 137.761L213.964 137.755C214.018 137.321 214.119 136.952 214.266 136.646C214.417 136.336 214.603 136.084 214.824 135.89C215.048 135.693 215.298 135.55 215.573 135.46C215.852 135.368 216.146 135.321 216.456 135.321C216.878 135.321 217.242 135.4 217.548 135.559C217.854 135.718 218.106 135.931 218.304 136.198C218.501 136.462 218.646 136.76 218.739 137.093C218.836 137.422 218.885 137.761 218.885 138.11C218.885 138.509 218.828 138.882 218.716 139.231C218.604 139.579 218.435 139.885 218.211 140.149C217.99 140.412 217.717 140.617 217.392 140.765C217.066 140.912 216.689 140.985 216.259 140.985C215.802 140.985 215.403 140.892 215.062 140.706C214.721 140.517 214.438 140.265 214.214 139.951C213.989 139.638 213.821 139.289 213.708 138.906C213.596 138.522 213.54 138.133 213.54 137.738V137.232C213.54 136.636 213.6 136.051 213.72 135.478C213.84 134.905 214.047 134.386 214.342 133.921C214.64 133.456 215.052 133.086 215.579 132.811C216.106 132.536 216.778 132.399 217.595 132.399Z" fill="white"/>
<rect width="38.6683" height="38.6683" transform="translate(232.042 116.971)" fill="#2EA66D"/>
<path d="M248.86 132.364V140.869H247.785V133.706L245.618 134.496V133.526L248.691 132.364H248.86ZM257.606 132.41V133.015L254.103 140.869H252.97L256.467 133.293H251.889V132.41H257.606Z" fill="black"/>
<rect width="38.6683" height="38.6683" transform="translate(0.0322266 155.64)" fill="black" fill-opacity="0.38"/>
<path d="M16.849 171.032V179.538H15.7742V172.374L13.6073 173.165V172.194L16.6805 171.032H16.849ZM25.4615 177.249C25.4615 177.764 25.3414 178.201 25.1013 178.562C24.8651 178.918 24.5436 179.189 24.1369 179.375C23.7341 179.561 23.2791 179.654 22.7717 179.654C22.2643 179.654 21.8073 179.561 21.4006 179.375C20.994 179.189 20.6725 178.918 20.4363 178.562C20.2 178.201 20.0819 177.764 20.0819 177.249C20.0819 176.912 20.1458 176.604 20.2736 176.325C20.4053 176.042 20.5892 175.796 20.8255 175.587C21.0656 175.378 21.3483 175.217 21.6737 175.105C22.0029 174.989 22.365 174.931 22.7601 174.931C23.2791 174.931 23.7419 175.031 24.1485 175.233C24.5552 175.43 24.8747 175.703 25.1071 176.052C25.3434 176.4 25.4615 176.799 25.4615 177.249ZM24.3809 177.225C24.3809 176.912 24.3132 176.635 24.1776 176.395C24.042 176.151 23.8523 175.961 23.6083 175.825C23.3643 175.69 23.0815 175.622 22.7601 175.622C22.4309 175.622 22.1462 175.69 21.9061 175.825C21.6698 175.961 21.4858 176.151 21.3542 176.395C21.2225 176.635 21.1566 176.912 21.1566 177.225C21.1566 177.551 21.2205 177.83 21.3483 178.062C21.48 178.29 21.6659 178.467 21.9061 178.591C22.1501 178.711 22.4386 178.771 22.7717 178.771C23.1048 178.771 23.3914 178.711 23.6315 178.591C23.8716 178.467 24.0556 178.29 24.1834 178.062C24.3151 177.83 24.3809 177.551 24.3809 177.225ZM25.264 173.281C25.264 173.691 25.1555 174.061 24.9386 174.39C24.7218 174.72 24.4255 174.979 24.0498 175.169C23.6741 175.359 23.2481 175.453 22.7717 175.453C22.2876 175.453 21.8557 175.359 21.4762 175.169C21.1005 174.979 20.8061 174.72 20.5931 174.39C20.3801 174.061 20.2736 173.691 20.2736 173.281C20.2736 172.789 20.3801 172.371 20.5931 172.026C20.81 171.681 21.1063 171.418 21.482 171.236C21.8577 171.054 22.2856 170.963 22.7659 170.963C23.25 170.963 23.6799 171.054 24.0556 171.236C24.4313 171.418 24.7256 171.681 24.9386 172.026C25.1555 172.371 25.264 172.789 25.264 173.281ZM24.1892 173.298C24.1892 173.015 24.1292 172.766 24.0091 172.549C23.8891 172.332 23.7225 172.161 23.5095 172.037C23.2965 171.91 23.0486 171.846 22.7659 171.846C22.4831 171.846 22.2353 171.906 22.0223 172.026C21.8131 172.142 21.6485 172.309 21.5284 172.525C21.4123 172.742 21.3542 173 21.3542 173.298C21.3542 173.589 21.4123 173.842 21.5284 174.059C21.6485 174.276 21.815 174.445 22.0281 174.565C22.2411 174.685 22.489 174.745 22.7717 174.745C23.0544 174.745 23.3004 174.685 23.5095 174.565C23.7225 174.445 23.8891 174.276 24.0091 174.059C24.1292 173.842 24.1892 173.589 24.1892 173.298Z" fill="black"/>
<rect width="38.6683" height="38.6683" transform="translate(38.7002 155.64)" fill="black" fill-opacity="0.05"/>
<path d="M55.5169 171.032V179.538H54.4422V172.374L52.2752 173.165V172.194L55.3485 171.032H55.5169ZM59.8653 178.637H59.9757C60.5953 178.637 61.0988 178.55 61.4861 178.376C61.8734 178.201 62.1717 177.967 62.3808 177.673C62.5899 177.378 62.7332 177.047 62.8107 176.679C62.8882 176.307 62.9269 175.926 62.9269 175.535V174.239C62.9269 173.856 62.8824 173.515 62.7933 173.217C62.7081 172.919 62.588 172.669 62.4331 172.467C62.282 172.266 62.1097 172.113 61.916 172.008C61.7224 171.904 61.5171 171.852 61.3002 171.852C61.0524 171.852 60.8297 171.902 60.6321 172.003C60.4385 172.099 60.2739 172.237 60.1383 172.415C60.0066 172.593 59.9059 172.802 59.8362 173.043C59.7665 173.283 59.7317 173.544 59.7317 173.827C59.7317 174.079 59.7626 174.323 59.8246 174.559C59.8866 174.795 59.9815 175.008 60.1093 175.198C60.2371 175.388 60.3959 175.539 60.5857 175.651C60.7793 175.759 61.0059 175.814 61.2654 175.814C61.5055 175.814 61.7301 175.767 61.9393 175.674C62.1523 175.577 62.3401 175.448 62.5028 175.285C62.6693 175.118 62.801 174.931 62.8979 174.721C62.9985 174.512 63.0566 174.294 63.0721 174.065H63.5834C63.5834 174.386 63.5195 174.704 63.3917 175.018C63.2677 175.328 63.0934 175.61 62.8688 175.866C62.6442 176.122 62.3808 176.327 62.0787 176.482C61.7766 176.633 61.4474 176.708 61.0911 176.708C60.6728 176.708 60.3107 176.627 60.0047 176.464C59.6987 176.302 59.447 176.085 59.2495 175.814C59.0558 175.543 58.9106 175.24 58.8137 174.907C58.7208 174.57 58.6743 174.23 58.6743 173.885C58.6743 173.482 58.7305 173.104 58.8428 172.752C58.9551 172.4 59.1216 172.09 59.3424 171.823C59.5632 171.551 59.8362 171.34 60.1616 171.189C60.4908 171.038 60.8703 170.963 61.3002 170.963C61.7844 170.963 62.1968 171.06 62.5377 171.253C62.8785 171.447 63.1554 171.706 63.3684 172.032C63.5853 172.357 63.7441 172.723 63.8448 173.13C63.9455 173.536 63.9959 173.955 63.9959 174.385V174.774C63.9959 175.211 63.9668 175.657 63.9087 176.11C63.8545 176.559 63.748 176.989 63.5892 177.4C63.4343 177.81 63.2077 178.178 62.9095 178.503C62.6112 178.825 62.222 179.081 61.7418 179.27C61.2654 179.456 60.6767 179.549 59.9757 179.549H59.8653V178.637Z" fill="black"/>
<rect width="38.6683" height="38.6683" transform="translate(77.3691 155.64)" fill="black" fill-opacity="0.05"/>
<path d="M96.196 178.655V179.538H90.6595V178.765L93.4306 175.68C93.7715 175.301 94.0348 174.979 94.2207 174.716C94.4105 174.448 94.5422 174.21 94.6158 174.001C94.6933 173.788 94.732 173.571 94.732 173.35C94.732 173.072 94.6739 172.82 94.5577 172.595C94.4454 172.367 94.2788 172.185 94.0581 172.049C93.8373 171.914 93.5701 171.846 93.2564 171.846C92.8807 171.846 92.567 171.919 92.3152 172.067C92.0673 172.21 91.8814 172.411 91.7575 172.671C91.6336 172.93 91.5716 173.228 91.5716 173.565H90.4968C90.4968 173.089 90.6014 172.653 90.8105 172.258C91.0197 171.863 91.3295 171.549 91.7401 171.317C92.1506 171.081 92.656 170.963 93.2564 170.963C93.7908 170.963 94.2479 171.058 94.6274 171.247C95.007 171.433 95.2974 171.697 95.4988 172.037C95.7041 172.374 95.8068 172.769 95.8068 173.223C95.8068 173.47 95.7641 173.722 95.6789 173.978C95.5976 174.23 95.4834 174.481 95.3362 174.733C95.1929 174.985 95.0244 175.233 94.8307 175.477C94.641 175.721 94.4376 175.961 94.2207 176.197L91.955 178.655H96.196ZM102.775 174.634V175.924C102.775 176.617 102.713 177.202 102.589 177.679C102.465 178.155 102.287 178.538 102.055 178.829C101.822 179.119 101.542 179.33 101.212 179.462C100.887 179.59 100.519 179.654 100.109 179.654C99.7833 179.654 99.4831 179.613 99.2081 179.532C98.9331 179.45 98.6853 179.321 98.4645 179.143C98.2476 178.961 98.0617 178.724 97.9068 178.434C97.7519 178.143 97.6337 177.791 97.5524 177.376C97.4711 176.962 97.4304 176.478 97.4304 175.924V174.634C97.4304 173.941 97.4924 173.36 97.6163 172.891C97.7441 172.423 97.9242 172.047 98.1566 171.764C98.389 171.478 98.6678 171.273 98.9932 171.149C99.3224 171.025 99.6903 170.963 100.097 170.963C100.426 170.963 100.728 171.003 101.003 171.085C101.282 171.162 101.53 171.288 101.747 171.462C101.964 171.633 102.148 171.861 102.299 172.148C102.454 172.431 102.572 172.777 102.653 173.188C102.735 173.598 102.775 174.081 102.775 174.634ZM101.695 176.098V174.454C101.695 174.075 101.671 173.742 101.625 173.455C101.582 173.165 101.518 172.917 101.433 172.711C101.348 172.506 101.24 172.34 101.108 172.212C100.98 172.084 100.831 171.991 100.661 171.933C100.494 171.871 100.306 171.84 100.097 171.84C99.8414 171.84 99.6148 171.888 99.4173 171.985C99.2197 172.078 99.0532 172.227 98.9176 172.433C98.786 172.638 98.6853 172.907 98.6155 173.24C98.5458 173.573 98.511 173.978 98.511 174.454V176.098C98.511 176.478 98.5323 176.813 98.5749 177.103C98.6214 177.394 98.6891 177.646 98.7782 177.859C98.8673 178.068 98.9757 178.24 99.1036 178.376C99.2314 178.511 99.3785 178.612 99.5451 178.678C99.7155 178.74 99.9033 178.771 100.109 178.771C100.372 178.771 100.602 178.72 100.8 178.62C100.997 178.519 101.162 178.362 101.294 178.149C101.429 177.932 101.53 177.655 101.596 177.318C101.662 176.978 101.695 176.571 101.695 176.098Z" fill="black"/>
<rect width="38.6683" height="38.6683" transform="translate(116.037 155.64)" fill="black" fill-opacity="0.05"/>
<path d="M134.865 178.655V179.538H129.328V178.765L132.1 175.68C132.44 175.301 132.704 174.979 132.89 174.716C133.079 174.448 133.211 174.21 133.285 174.001C133.362 173.788 133.401 173.571 133.401 173.35C133.401 173.072 133.343 172.82 133.227 172.595C133.114 172.367 132.948 172.185 132.727 172.049C132.506 171.914 132.239 171.846 131.925 171.846C131.55 171.846 131.236 171.919 130.984 172.067C130.736 172.21 130.55 172.411 130.426 172.671C130.303 172.93 130.241 173.228 130.241 173.565H129.166C129.166 173.089 129.27 172.653 129.479 172.258C129.689 171.863 129.998 171.549 130.409 171.317C130.82 171.081 131.325 170.963 131.925 170.963C132.46 170.963 132.917 171.058 133.296 171.247C133.676 171.433 133.966 171.697 134.168 172.037C134.373 172.374 134.476 172.769 134.476 173.223C134.476 173.47 134.433 173.722 134.348 173.978C134.267 174.23 134.152 174.481 134.005 174.733C133.862 174.985 133.693 175.233 133.5 175.477C133.31 175.721 133.107 175.961 132.89 176.197L130.624 178.655H134.865ZM139.666 171.032V179.538H138.592V172.374L136.425 173.165V172.194L139.498 171.032H139.666Z" fill="black"/>
<rect width="38.6683" height="38.6683" transform="translate(154.705 155.64)" fill="black" fill-opacity="0.05"/>
<path d="M173.532 178.655V179.538H167.995V178.765L170.767 175.68C171.107 175.301 171.371 174.979 171.557 174.716C171.746 174.448 171.878 174.21 171.952 174.001C172.029 173.788 172.068 173.571 172.068 173.35C172.068 173.072 172.01 172.82 171.894 172.595C171.781 172.367 171.615 172.185 171.394 172.049C171.173 171.914 170.906 171.846 170.592 171.846C170.217 171.846 169.903 171.919 169.651 172.067C169.403 172.21 169.217 172.411 169.093 172.671C168.97 172.93 168.908 173.228 168.908 173.565H167.833C167.833 173.089 167.937 172.653 168.146 172.258C168.356 171.863 168.665 171.549 169.076 171.317C169.487 171.081 169.992 170.963 170.592 170.963C171.127 170.963 171.584 171.058 171.963 171.247C172.343 171.433 172.633 171.697 172.835 172.037C173.04 172.374 173.143 172.769 173.143 173.223C173.143 173.47 173.1 173.722 173.015 173.978C172.934 174.23 172.819 174.481 172.672 174.733C172.529 174.985 172.36 175.233 172.167 175.477C171.977 175.721 171.774 175.961 171.557 176.197L169.291 178.655H173.532ZM180.343 178.655V179.538H174.807V178.765L177.578 175.68C177.919 175.301 178.182 174.979 178.368 174.716C178.558 174.448 178.69 174.21 178.763 174.001C178.841 173.788 178.879 173.571 178.879 173.35C178.879 173.072 178.821 172.82 178.705 172.595C178.593 172.367 178.426 172.185 178.206 172.049C177.985 171.914 177.718 171.846 177.404 171.846C177.028 171.846 176.714 171.919 176.463 172.067C176.215 172.21 176.029 172.411 175.905 172.671C175.781 172.93 175.719 173.228 175.719 173.565H174.644C174.644 173.089 174.749 172.653 174.958 172.258C175.167 171.863 175.477 171.549 175.888 171.317C176.298 171.081 176.804 170.963 177.404 170.963C177.938 170.963 178.395 171.058 178.775 171.247C179.154 171.433 179.445 171.697 179.646 172.037C179.852 172.374 179.954 172.769 179.954 173.223C179.954 173.47 179.912 173.722 179.826 173.978C179.745 174.23 179.631 174.481 179.484 174.733C179.34 174.985 179.172 175.233 178.978 175.477C178.788 175.721 178.585 175.961 178.368 176.197L176.103 178.655H180.343Z" fill="black"/>
<rect width="38.6683" height="38.6683" transform="translate(193.374 155.64)" fill="black" fill-opacity="0.05"/>
<path d="M212.201 178.655V179.538H206.664V178.765L209.436 175.68C209.776 175.301 210.04 174.979 210.226 174.716C210.415 174.448 210.547 174.21 210.621 174.001C210.698 173.788 210.737 173.571 210.737 173.35C210.737 173.072 210.679 172.82 210.563 172.595C210.45 172.367 210.284 172.185 210.063 172.049C209.842 171.914 209.575 171.846 209.261 171.846C208.886 171.846 208.572 171.919 208.32 172.067C208.072 172.21 207.886 172.411 207.762 172.671C207.638 172.93 207.576 173.228 207.576 173.565H206.502C206.502 173.089 206.606 172.653 206.815 172.258C207.025 171.863 207.334 171.549 207.745 171.317C208.155 171.081 208.661 170.963 209.261 170.963C209.796 170.963 210.253 171.058 210.632 171.247C211.012 171.433 211.302 171.697 211.504 172.037C211.709 172.374 211.812 172.769 211.812 173.223C211.812 173.47 211.769 173.722 211.684 173.978C211.602 174.23 211.488 174.481 211.341 174.733C211.198 174.985 211.029 175.233 210.836 175.477C210.646 175.721 210.443 175.961 210.226 176.197L207.96 178.655H212.201ZM215.039 174.78H215.806C216.181 174.78 216.491 174.718 216.735 174.594C216.983 174.466 217.167 174.294 217.287 174.077C217.411 173.856 217.473 173.608 217.473 173.333C217.473 173.008 217.419 172.735 217.31 172.514C217.202 172.293 217.039 172.127 216.822 172.014C216.605 171.902 216.33 171.846 215.997 171.846C215.695 171.846 215.428 171.906 215.196 172.026C214.967 172.142 214.787 172.309 214.655 172.525C214.527 172.742 214.464 172.998 214.464 173.292H213.389C213.389 172.862 213.497 172.471 213.714 172.119C213.931 171.766 214.235 171.486 214.626 171.276C215.021 171.067 215.478 170.963 215.997 170.963C216.509 170.963 216.956 171.054 217.339 171.236C217.723 171.414 218.021 171.681 218.234 172.037C218.447 172.39 218.553 172.83 218.553 173.356C218.553 173.569 218.503 173.798 218.402 174.042C218.306 174.282 218.153 174.507 217.943 174.716C217.738 174.925 217.471 175.097 217.142 175.233C216.813 175.364 216.418 175.43 215.957 175.43H215.039V174.78ZM215.039 175.663V175.018H215.957C216.495 175.018 216.94 175.082 217.293 175.209C217.645 175.337 217.922 175.508 218.124 175.721C218.329 175.934 218.472 176.168 218.553 176.424C218.639 176.675 218.681 176.927 218.681 177.179C218.681 177.574 218.614 177.924 218.478 178.23C218.346 178.536 218.158 178.796 217.914 179.009C217.674 179.222 217.392 179.383 217.066 179.491C216.741 179.6 216.387 179.654 216.003 179.654C215.635 179.654 215.289 179.602 214.963 179.497C214.642 179.392 214.357 179.241 214.109 179.044C213.861 178.842 213.668 178.596 213.528 178.306C213.389 178.012 213.319 177.677 213.319 177.301H214.394C214.394 177.595 214.458 177.853 214.586 178.074C214.717 178.294 214.903 178.467 215.143 178.591C215.387 178.711 215.674 178.771 216.003 178.771C216.332 178.771 216.615 178.715 216.851 178.602C217.091 178.486 217.275 178.312 217.403 178.079C217.535 177.847 217.601 177.555 217.601 177.202C217.601 176.85 217.527 176.561 217.38 176.337C217.233 176.108 217.024 175.94 216.753 175.831C216.485 175.719 216.17 175.663 215.806 175.663H215.039Z" fill="black"/>
<rect width="38.6683" height="38.6683" transform="translate(232.042 155.64)" fill="black" fill-opacity="0.38"/>
<path d="M250.87 178.655V179.538H245.333V178.765L248.104 175.68C248.445 175.301 248.709 174.979 248.895 174.716C249.084 174.448 249.216 174.21 249.29 174.001C249.367 173.788 249.406 173.571 249.406 173.35C249.406 173.072 249.348 172.82 249.232 172.595C249.119 172.367 248.953 172.185 248.732 172.049C248.511 171.914 248.244 171.846 247.93 171.846C247.555 171.846 247.241 171.919 246.989 172.067C246.741 172.21 246.555 172.411 246.431 172.671C246.307 172.93 246.245 173.228 246.245 173.565H245.171C245.171 173.089 245.275 172.653 245.484 172.258C245.694 171.863 246.003 171.549 246.414 171.317C246.824 171.081 247.33 170.963 247.93 170.963C248.465 170.963 248.922 171.058 249.301 171.247C249.681 171.433 249.971 171.697 250.173 172.037C250.378 172.374 250.481 172.769 250.481 173.223C250.481 173.47 250.438 173.722 250.353 173.978C250.271 174.23 250.157 174.481 250.01 174.733C249.867 174.985 249.698 175.233 249.505 175.477C249.315 175.721 249.111 175.961 248.895 176.197L246.629 178.655H250.87ZM257.856 176.691V177.574H251.744V176.941L255.532 171.079H256.409L255.468 172.775L252.964 176.691H257.856ZM256.676 171.079V179.538H255.602V171.079H256.676Z" fill="black"/>
<rect width="38.6683" height="38.6683" transform="translate(0.0322266 194.308)" fill="black" fill-opacity="0.38"/>
<path d="M18.8591 217.323V218.206H13.3226V217.433L16.0937 214.348C16.4346 213.969 16.6979 213.647 16.8838 213.384C17.0736 213.117 17.2053 212.878 17.2789 212.669C17.3563 212.456 17.3951 212.239 17.3951 212.019C17.3951 211.74 17.337 211.488 17.2208 211.263C17.1085 211.035 16.9419 210.853 16.7212 210.717C16.5004 210.582 16.2332 210.514 15.9194 210.514C15.5438 210.514 15.23 210.588 14.9783 210.735C14.7304 210.878 14.5445 211.079 14.4206 211.339C14.2966 211.598 14.2347 211.897 14.2347 212.234H13.1599C13.1599 211.757 13.2645 211.322 13.4736 210.926C13.6828 210.531 13.9926 210.218 14.4032 209.985C14.8137 209.749 15.3191 209.631 15.9194 209.631C16.4539 209.631 16.9109 209.726 17.2905 209.916C17.6701 210.101 17.9605 210.365 18.1619 210.706C18.3672 211.043 18.4698 211.438 18.4698 211.891C18.4698 212.139 18.4272 212.39 18.342 212.646C18.2607 212.898 18.1464 213.15 17.9993 213.401C17.856 213.653 17.6875 213.901 17.4938 214.145C17.3041 214.389 17.1007 214.629 16.8838 214.865L14.6181 217.323H18.8591ZM21.4878 214.18L20.628 213.959L21.0521 209.747H25.3918V210.741H21.9642L21.7085 213.041C21.8635 212.952 22.059 212.869 22.2953 212.791C22.5354 212.714 22.8104 212.675 23.1203 212.675C23.5114 212.675 23.8619 212.743 24.1718 212.878C24.4816 213.01 24.745 213.2 24.9619 213.448C25.1826 213.696 25.3511 213.994 25.4673 214.342C25.5835 214.691 25.6416 215.08 25.6416 215.51C25.6416 215.917 25.5854 216.291 25.4731 216.631C25.3647 216.972 25.2001 217.27 24.9793 217.526C24.7586 217.778 24.4797 217.973 24.1427 218.113C23.8097 218.252 23.4165 218.322 22.9634 218.322C22.6226 218.322 22.2992 218.276 21.9932 218.183C21.6911 218.086 21.42 217.941 21.1799 217.747C20.9436 217.549 20.75 217.305 20.5989 217.015C20.4517 216.721 20.3588 216.376 20.3201 215.981H21.3425C21.389 216.298 21.482 216.566 21.6214 216.782C21.7608 216.999 21.9429 217.164 22.1675 217.276C22.396 217.385 22.6613 217.439 22.9634 217.439C23.219 217.439 23.4456 217.394 23.6431 217.305C23.8406 217.216 24.0072 217.088 24.1427 216.922C24.2783 216.755 24.3809 216.554 24.4506 216.318C24.5242 216.081 24.561 215.816 24.561 215.522C24.561 215.255 24.5242 215.007 24.4506 214.778C24.3771 214.55 24.2667 214.35 24.1195 214.18C23.9762 214.009 23.8 213.878 23.5908 213.785C23.3817 213.688 23.1416 213.64 22.8704 213.64C22.5103 213.64 22.2372 213.688 22.0513 213.785C21.8693 213.882 21.6814 214.013 21.4878 214.18Z" fill="black"/>
<rect width="38.6683" height="38.6683" transform="translate(38.7002 194.308)" fill="black" fill-opacity="0.05"/>
<path d="M57.527 217.323V218.206H51.9906V217.433L54.7617 214.348C55.1025 213.969 55.3659 213.647 55.5518 213.384C55.7416 213.117 55.8733 212.878 55.9468 212.669C56.0243 212.456 56.063 212.239 56.063 212.019C56.063 211.74 56.0049 211.488 55.8888 211.263C55.7764 211.035 55.6099 210.853 55.3891 210.717C55.1684 210.582 54.9011 210.514 54.5874 210.514C54.2117 210.514 53.898 210.588 53.6463 210.735C53.3984 210.878 53.2125 211.079 53.0886 211.339C52.9646 211.598 52.9027 211.897 52.9027 212.234H51.8279C51.8279 211.757 51.9325 211.322 52.1416 210.926C52.3507 210.531 52.6606 210.218 53.0711 209.985C53.4817 209.749 53.9871 209.631 54.5874 209.631C55.1219 209.631 55.5789 209.726 55.9585 209.916C56.338 210.101 56.6285 210.365 56.8299 210.706C57.0352 211.043 57.1378 211.438 57.1378 211.891C57.1378 212.139 57.0952 212.39 57.01 212.646C56.9287 212.898 56.8144 213.15 56.6672 213.401C56.5239 213.653 56.3555 213.901 56.1618 214.145C55.972 214.389 55.7687 214.629 55.5518 214.865L53.2861 217.323H57.527ZM62.9211 209.735H63.014V210.648H62.9211C62.3518 210.648 61.8754 210.741 61.4919 210.926C61.1085 211.108 60.8045 211.354 60.5798 211.664C60.3552 211.97 60.1925 212.315 60.0918 212.698C59.995 213.082 59.9466 213.471 59.9466 213.866V215.109C59.9466 215.485 59.9911 215.818 60.0802 216.109C60.1693 216.395 60.2913 216.637 60.4462 216.835C60.6011 217.032 60.7754 217.181 60.9691 217.282C61.1666 217.383 61.3719 217.433 61.5849 217.433C61.8328 217.433 62.0535 217.387 62.2472 217.294C62.4408 217.197 62.6035 217.063 62.7352 216.893C62.8707 216.719 62.9734 216.513 63.0431 216.277C63.1128 216.041 63.1477 215.781 63.1477 215.499C63.1477 215.247 63.1167 215.005 63.0547 214.772C62.9927 214.536 62.8979 214.327 62.77 214.145C62.6422 213.959 62.4815 213.814 62.2878 213.709C62.0981 213.601 61.8715 213.547 61.6081 213.547C61.3099 213.547 61.0311 213.62 60.7716 213.767C60.5159 213.911 60.3049 214.1 60.1383 214.337C59.9757 214.569 59.8827 214.823 59.8595 215.098L59.2901 215.092C59.3443 214.658 59.445 214.288 59.5922 213.982C59.7433 213.672 59.9292 213.421 60.1499 213.227C60.3746 213.03 60.6244 212.886 60.8994 212.797C61.1782 212.704 61.4726 212.658 61.7824 212.658C62.2046 212.658 62.5686 212.737 62.8746 212.896C63.1806 213.055 63.4323 213.268 63.6299 213.535C63.8274 213.798 63.9726 214.097 64.0656 214.43C64.1624 214.759 64.2108 215.098 64.2108 215.446C64.2108 215.845 64.1546 216.219 64.0423 216.568C63.93 216.916 63.7615 217.222 63.5369 217.485C63.3161 217.749 63.0431 217.954 62.7178 218.101C62.3924 218.248 62.0148 218.322 61.5849 218.322C61.1279 218.322 60.729 218.229 60.3881 218.043C60.0473 217.853 59.7646 217.602 59.5399 217.288C59.3153 216.974 59.1468 216.626 59.0345 216.242C58.9222 215.859 58.866 215.47 58.866 215.074V214.569C58.866 213.973 58.9261 213.388 59.0461 212.815C59.1662 212.241 59.3734 211.722 59.6677 211.258C59.966 210.793 60.3784 210.423 60.9052 210.148C61.4319 209.873 62.1039 209.735 62.9211 209.735Z" fill="black"/>
<rect width="38.6683" height="38.6683" transform="translate(77.3691 194.308)" fill="black" fill-opacity="0.05"/>
<path d="M96.196 217.323V218.206H90.6595V217.433L93.4306 214.348C93.7715 213.969 94.0348 213.647 94.2207 213.384C94.4105 213.117 94.5422 212.878 94.6158 212.669C94.6933 212.456 94.732 212.239 94.732 212.019C94.732 211.74 94.6739 211.488 94.5577 211.263C94.4454 211.035 94.2788 210.853 94.0581 210.717C93.8373 210.582 93.5701 210.514 93.2564 210.514C92.8807 210.514 92.567 210.588 92.3152 210.735C92.0673 210.878 91.8814 211.079 91.7575 211.339C91.6336 211.598 91.5716 211.897 91.5716 212.234H90.4968C90.4968 211.757 90.6014 211.322 90.8105 210.926C91.0197 210.531 91.3295 210.218 91.7401 209.985C92.1506 209.749 92.656 209.631 93.2564 209.631C93.7908 209.631 94.2479 209.726 94.6274 209.916C95.007 210.101 95.2974 210.365 95.4988 210.706C95.7041 211.043 95.8068 211.438 95.8068 211.891C95.8068 212.139 95.7641 212.39 95.6789 212.646C95.5976 212.898 95.4834 213.15 95.3362 213.401C95.1929 213.653 95.0244 213.901 94.8307 214.145C94.641 214.389 94.4376 214.629 94.2207 214.865L91.955 217.323H96.196ZM102.932 209.747V210.351L99.4289 218.206H98.296L101.793 210.63H97.2154V209.747H102.932Z" fill="black"/>
<rect width="38.6683" height="38.6683" transform="translate(116.037 194.308)" fill="black" fill-opacity="0.05"/>
<path d="M134.865 217.323V218.206H129.328V217.433L132.1 214.348C132.44 213.969 132.704 213.647 132.89 213.384C133.079 213.117 133.211 212.878 133.285 212.669C133.362 212.456 133.401 212.239 133.401 212.019C133.401 211.74 133.343 211.488 133.227 211.263C133.114 211.035 132.948 210.853 132.727 210.717C132.506 210.582 132.239 210.514 131.925 210.514C131.55 210.514 131.236 210.588 130.984 210.735C130.736 210.878 130.55 211.079 130.426 211.339C130.303 211.598 130.241 211.897 130.241 212.234H129.166C129.166 211.757 129.27 211.322 129.479 210.926C129.689 210.531 129.998 210.218 130.409 209.985C130.82 209.749 131.325 209.631 131.925 209.631C132.46 209.631 132.917 209.726 133.296 209.916C133.676 210.101 133.966 210.365 134.168 210.706C134.373 211.043 134.476 211.438 134.476 211.891C134.476 212.139 134.433 212.39 134.348 212.646C134.267 212.898 134.152 213.15 134.005 213.401C133.862 213.653 133.693 213.901 133.5 214.145C133.31 214.389 133.107 214.629 132.89 214.865L130.624 217.323H134.865ZM141.467 215.917C141.467 216.432 141.347 216.87 141.107 217.23C140.871 217.586 140.549 217.857 140.143 218.043C139.74 218.229 139.285 218.322 138.778 218.322C138.27 218.322 137.813 218.229 137.406 218.043C137 217.857 136.678 217.586 136.442 217.23C136.206 216.87 136.088 216.432 136.088 215.917C136.088 215.58 136.152 215.272 136.279 214.993C136.411 214.71 136.595 214.464 136.831 214.255C137.071 214.046 137.354 213.885 137.68 213.773C138.009 213.657 138.371 213.599 138.766 213.599C139.285 213.599 139.748 213.7 140.154 213.901C140.561 214.098 140.881 214.372 141.113 214.72C141.349 215.069 141.467 215.468 141.467 215.917ZM140.387 215.894C140.387 215.58 140.319 215.303 140.183 215.063C140.048 214.819 139.858 214.629 139.614 214.494C139.37 214.358 139.087 214.29 138.766 214.29C138.437 214.29 138.152 214.358 137.912 214.494C137.676 214.629 137.492 214.819 137.36 215.063C137.228 215.303 137.162 215.58 137.162 215.894C137.162 216.219 137.226 216.498 137.354 216.73C137.486 216.959 137.672 217.135 137.912 217.259C138.156 217.379 138.444 217.439 138.778 217.439C139.111 217.439 139.397 217.379 139.637 217.259C139.877 217.135 140.061 216.959 140.189 216.73C140.321 216.498 140.387 216.219 140.387 215.894ZM141.27 211.949C141.27 212.359 141.161 212.729 140.945 213.059C140.728 213.388 140.431 213.647 140.056 213.837C139.68 214.027 139.254 214.122 138.778 214.122C138.293 214.122 137.862 214.027 137.482 213.837C137.106 213.647 136.812 213.388 136.599 213.059C136.386 212.729 136.279 212.359 136.279 211.949C136.279 211.457 136.386 211.039 136.599 210.694C136.816 210.349 137.112 210.086 137.488 209.904C137.864 209.722 138.291 209.631 138.772 209.631C139.256 209.631 139.686 209.722 140.061 209.904C140.437 210.086 140.731 210.349 140.945 210.694C141.161 211.039 141.27 211.457 141.27 211.949ZM140.195 211.966C140.195 211.684 140.135 211.434 140.015 211.217C139.895 211 139.728 210.83 139.515 210.706C139.302 210.578 139.054 210.514 138.772 210.514C138.489 210.514 138.241 210.574 138.028 210.694C137.819 210.81 137.654 210.977 137.534 211.194C137.418 211.411 137.36 211.668 137.36 211.966C137.36 212.257 137.418 212.511 137.534 212.727C137.654 212.944 137.821 213.113 138.034 213.233C138.247 213.353 138.495 213.413 138.778 213.413C139.06 213.413 139.306 213.353 139.515 213.233C139.728 213.113 139.895 212.944 140.015 212.727C140.135 212.511 140.195 212.257 140.195 211.966Z" fill="black"/>
<rect width="38.6683" height="38.6683" transform="translate(154.705 194.308)" fill="black" fill-opacity="0.05"/>
<path d="M173.532 217.323V218.206H167.995V217.433L170.767 214.348C171.107 213.969 171.371 213.647 171.557 213.384C171.746 213.117 171.878 212.878 171.952 212.669C172.029 212.456 172.068 212.239 172.068 212.019C172.068 211.74 172.01 211.488 171.894 211.263C171.781 211.035 171.615 210.853 171.394 210.717C171.173 210.582 170.906 210.514 170.592 210.514C170.217 210.514 169.903 210.588 169.651 210.735C169.403 210.878 169.217 211.079 169.093 211.339C168.97 211.598 168.908 211.897 168.908 212.234H167.833C167.833 211.757 167.937 211.322 168.146 210.926C168.356 210.531 168.665 210.218 169.076 209.985C169.487 209.749 169.992 209.631 170.592 209.631C171.127 209.631 171.584 209.726 171.963 209.916C172.343 210.101 172.633 210.365 172.835 210.706C173.04 211.043 173.143 211.438 173.143 211.891C173.143 212.139 173.1 212.39 173.015 212.646C172.934 212.898 172.819 213.15 172.672 213.401C172.529 213.653 172.36 213.901 172.167 214.145C171.977 214.389 171.774 214.629 171.557 214.865L169.291 217.323H173.532ZM175.87 217.305H175.981C176.6 217.305 177.104 217.218 177.491 217.044C177.878 216.87 178.177 216.635 178.386 216.341C178.595 216.047 178.738 215.715 178.816 215.348C178.893 214.976 178.932 214.594 178.932 214.203V212.908C178.932 212.524 178.887 212.183 178.798 211.885C178.713 211.587 178.593 211.337 178.438 211.136C178.287 210.934 178.115 210.781 177.921 210.677C177.727 210.572 177.522 210.52 177.305 210.52C177.057 210.52 176.835 210.57 176.637 210.671C176.443 210.768 176.279 210.905 176.143 211.083C176.012 211.261 175.911 211.471 175.841 211.711C175.771 211.951 175.737 212.212 175.737 212.495C175.737 212.747 175.768 212.991 175.829 213.227C175.891 213.463 175.986 213.676 176.114 213.866C176.242 214.056 176.401 214.207 176.591 214.319C176.784 214.428 177.011 214.482 177.27 214.482C177.51 214.482 177.735 214.435 177.944 214.342C178.157 214.246 178.345 214.116 178.508 213.953C178.674 213.787 178.806 213.599 178.903 213.39C179.003 213.181 179.062 212.962 179.077 212.733H179.588C179.588 213.055 179.524 213.372 179.397 213.686C179.273 213.996 179.098 214.279 178.874 214.534C178.649 214.79 178.386 214.995 178.084 215.15C177.781 215.301 177.452 215.377 177.096 215.377C176.678 215.377 176.316 215.295 176.01 215.133C175.704 214.97 175.452 214.753 175.254 214.482C175.061 214.211 174.915 213.909 174.819 213.576C174.726 213.239 174.679 212.898 174.679 212.553C174.679 212.15 174.735 211.773 174.848 211.42C174.96 211.068 175.127 210.758 175.347 210.491C175.568 210.22 175.841 210.009 176.166 209.857C176.496 209.706 176.875 209.631 177.305 209.631C177.789 209.631 178.202 209.728 178.543 209.921C178.883 210.115 179.16 210.375 179.373 210.7C179.59 211.025 179.749 211.391 179.85 211.798C179.95 212.205 180.001 212.623 180.001 213.053V213.442C180.001 213.88 179.972 214.325 179.914 214.778C179.859 215.227 179.753 215.657 179.594 216.068C179.439 216.478 179.213 216.846 178.914 217.172C178.616 217.493 178.227 217.749 177.747 217.939C177.27 218.124 176.682 218.217 175.981 218.217H175.87V217.305Z" fill="black"/>
<rect width="38.6683" height="38.6683" transform="translate(193.374 194.308)" fill="black" fill-opacity="0.05"/>
<path d="M208.227 213.448H208.994C209.37 213.448 209.68 213.386 209.924 213.262C210.171 213.134 210.355 212.962 210.475 212.745C210.599 212.524 210.661 212.276 210.661 212.001C210.661 211.676 210.607 211.403 210.499 211.182C210.39 210.961 210.228 210.795 210.011 210.682C209.794 210.57 209.519 210.514 209.186 210.514C208.884 210.514 208.616 210.574 208.384 210.694C208.155 210.81 207.975 210.977 207.844 211.194C207.716 211.411 207.652 211.666 207.652 211.961H206.577C206.577 211.531 206.686 211.139 206.903 210.787C207.119 210.435 207.423 210.154 207.815 209.945C208.21 209.735 208.667 209.631 209.186 209.631C209.697 209.631 210.144 209.722 210.528 209.904C210.911 210.082 211.209 210.349 211.422 210.706C211.635 211.058 211.742 211.498 211.742 212.024C211.742 212.237 211.692 212.466 211.591 212.71C211.494 212.95 211.341 213.175 211.132 213.384C210.927 213.593 210.659 213.765 210.33 213.901C210.001 214.033 209.606 214.098 209.145 214.098H208.227V213.448ZM208.227 214.331V213.686H209.145C209.683 213.686 210.129 213.75 210.481 213.878C210.834 214.006 211.111 214.176 211.312 214.389C211.517 214.602 211.661 214.836 211.742 215.092C211.827 215.344 211.87 215.595 211.87 215.847C211.87 216.242 211.802 216.593 211.666 216.899C211.535 217.205 211.347 217.464 211.103 217.677C210.863 217.89 210.58 218.051 210.255 218.159C209.929 218.268 209.575 218.322 209.192 218.322C208.824 218.322 208.477 218.27 208.152 218.165C207.83 218.061 207.545 217.91 207.298 217.712C207.05 217.511 206.856 217.265 206.717 216.974C206.577 216.68 206.508 216.345 206.508 215.969H207.582C207.582 216.263 207.646 216.521 207.774 216.742C207.906 216.963 208.092 217.135 208.332 217.259C208.576 217.379 208.862 217.439 209.192 217.439C209.521 217.439 209.803 217.383 210.04 217.27C210.28 217.154 210.464 216.98 210.592 216.748C210.723 216.515 210.789 216.223 210.789 215.87C210.789 215.518 210.716 215.229 210.568 215.005C210.421 214.776 210.212 214.608 209.941 214.499C209.674 214.387 209.358 214.331 208.994 214.331H208.227ZM218.78 213.303V214.592C218.78 215.286 218.718 215.87 218.594 216.347C218.47 216.823 218.292 217.207 218.06 217.497C217.827 217.788 217.547 217.999 217.217 218.13C216.892 218.258 216.524 218.322 216.113 218.322C215.788 218.322 215.488 218.281 215.213 218.2C214.938 218.119 214.69 217.989 214.469 217.811C214.252 217.629 214.067 217.392 213.912 217.102C213.757 216.812 213.639 216.459 213.557 216.045C213.476 215.63 213.435 215.146 213.435 214.592V213.303C213.435 212.609 213.497 212.028 213.621 211.56C213.749 211.091 213.929 210.715 214.161 210.433C214.394 210.146 214.673 209.941 214.998 209.817C215.327 209.693 215.695 209.631 216.102 209.631C216.431 209.631 216.733 209.672 217.008 209.753C217.287 209.83 217.535 209.956 217.752 210.131C217.969 210.301 218.153 210.529 218.304 210.816C218.459 211.099 218.577 211.445 218.658 211.856C218.739 212.267 218.78 212.749 218.78 213.303ZM217.699 214.767V213.122C217.699 212.743 217.676 212.41 217.63 212.123C217.587 211.833 217.523 211.585 217.438 211.38C217.353 211.174 217.244 211.008 217.113 210.88C216.985 210.752 216.836 210.659 216.665 210.601C216.499 210.539 216.311 210.508 216.102 210.508C215.846 210.508 215.62 210.557 215.422 210.653C215.225 210.746 215.058 210.895 214.923 211.101C214.791 211.306 214.69 211.575 214.62 211.908C214.551 212.241 214.516 212.646 214.516 213.122V214.767C214.516 215.146 214.537 215.481 214.58 215.772C214.626 216.062 214.694 216.314 214.783 216.527C214.872 216.736 214.981 216.908 215.108 217.044C215.236 217.179 215.383 217.28 215.55 217.346C215.72 217.408 215.908 217.439 216.113 217.439C216.377 217.439 216.607 217.389 216.805 217.288C217.002 217.187 217.167 217.03 217.299 216.817C217.434 216.6 217.535 216.324 217.601 215.987C217.667 215.646 217.699 215.239 217.699 214.767Z" fill="black"/>
<rect width="38.6683" height="38.6683" transform="translate(232.042 194.308)" fill="black" fill-opacity="0.38"/>
<path d="M246.896 213.448H247.663C248.039 213.448 248.348 213.386 248.592 213.262C248.84 213.134 249.024 212.962 249.144 212.745C249.268 212.524 249.33 212.276 249.33 212.001C249.33 211.676 249.276 211.403 249.168 211.182C249.059 210.961 248.897 210.795 248.68 210.682C248.463 210.57 248.188 210.514 247.855 210.514C247.553 210.514 247.285 210.574 247.053 210.694C246.824 210.81 246.644 210.977 246.513 211.194C246.385 211.411 246.321 211.666 246.321 211.961H245.246C245.246 211.531 245.355 211.139 245.572 210.787C245.788 210.435 246.092 210.154 246.484 209.945C246.879 209.735 247.336 209.631 247.855 209.631C248.366 209.631 248.813 209.722 249.197 209.904C249.58 210.082 249.878 210.349 250.091 210.706C250.304 211.058 250.411 211.498 250.411 212.024C250.411 212.237 250.361 212.466 250.26 212.71C250.163 212.95 250.01 213.175 249.801 213.384C249.596 213.593 249.328 213.765 248.999 213.901C248.67 214.033 248.275 214.098 247.814 214.098H246.896V213.448ZM246.896 214.331V213.686H247.814C248.352 213.686 248.798 213.75 249.15 213.878C249.503 214.006 249.78 214.176 249.981 214.389C250.186 214.602 250.33 214.836 250.411 215.092C250.496 215.344 250.539 215.595 250.539 215.847C250.539 216.242 250.471 216.593 250.335 216.899C250.204 217.205 250.016 217.464 249.772 217.677C249.532 217.89 249.249 218.051 248.924 218.159C248.598 218.268 248.244 218.322 247.86 218.322C247.493 218.322 247.146 218.27 246.821 218.165C246.499 218.061 246.214 217.91 245.967 217.712C245.719 217.511 245.525 217.265 245.386 216.974C245.246 216.68 245.176 216.345 245.176 215.969H246.251C246.251 216.263 246.315 216.521 246.443 216.742C246.575 216.963 246.761 217.135 247.001 217.259C247.245 217.379 247.531 217.439 247.86 217.439C248.19 217.439 248.472 217.383 248.709 217.27C248.949 217.154 249.133 216.98 249.261 216.748C249.392 216.515 249.458 216.223 249.458 215.87C249.458 215.518 249.385 215.229 249.237 215.005C249.09 214.776 248.881 214.608 248.61 214.499C248.343 214.387 248.027 214.331 247.663 214.331H246.896ZM255.671 209.701V218.206H254.597V211.043L252.43 211.833V210.863L255.503 209.701H255.671Z" fill="black"/>
</g>
<defs>
<clipPath id="clip0_932_4322">
<rect x="0.0322266" y="0.966309" width="270.678" height="270.678" rx="11.8979" fill="white"/>
</clipPath>
</defs>
</svg>
