<svg width="272" height="271" viewBox="0 0 272 271" fill="none" xmlns="http://www.w3.org/2000/svg">
<g clip-path="url(#clip0_932_3350)">
<rect width="270.678" height="38.6683" transform="translate(0.673828 0.081543)" fill="black"/>
<path d="M19.4679 23.9795H17.6438L17.6554 22.7246H19.4679C19.9598 22.7246 20.3723 22.6162 20.7054 22.3993C21.0385 22.1785 21.2902 21.8629 21.4606 21.4523C21.631 21.0379 21.7162 20.5422 21.7162 19.9651V19.5294C21.7162 19.084 21.6678 18.6909 21.571 18.35C21.4742 18.0092 21.3309 17.7226 21.1411 17.4902C20.9552 17.2579 20.7247 17.0816 20.4498 16.9616C20.1748 16.8415 19.8591 16.7815 19.5028 16.7815H17.6089V15.5208H19.5028C20.0683 15.5208 20.5834 15.6157 21.0481 15.8055C21.5168 15.9952 21.9215 16.2683 22.2623 16.6246C22.607 16.9771 22.8704 17.3992 23.0524 17.8911C23.2383 18.383 23.3313 18.9329 23.3313 19.541V19.9651C23.3313 20.5693 23.2383 21.1193 23.0524 21.615C22.8704 22.1069 22.607 22.529 22.2623 22.8815C21.9215 23.2339 21.5148 23.505 21.0423 23.6948C20.5698 23.8846 20.045 23.9795 19.4679 23.9795ZM18.5384 15.5208V23.9795H16.9408V15.5208H18.5384Z" fill="white"/>
<path d="M60.2796 21.7835C60.2796 21.6208 60.2545 21.4756 60.2041 21.3478C60.1576 21.2161 60.0705 21.098 59.9427 20.9934C59.8187 20.8849 59.6425 20.7804 59.414 20.6797C59.1894 20.5751 58.8989 20.4667 58.5426 20.3543C58.1475 20.2304 57.7796 20.091 57.4388 19.9361C57.0979 19.7811 56.7978 19.601 56.5383 19.3958C56.2827 19.1905 56.0832 18.9542 55.9399 18.687C55.7966 18.4159 55.725 18.1022 55.725 17.7459C55.725 17.3973 55.7985 17.0797 55.9457 16.7931C56.0968 16.5065 56.3098 16.2605 56.5848 16.0553C56.8598 15.8461 57.1832 15.6854 57.555 15.5731C57.9306 15.4608 58.3451 15.4046 58.7982 15.4046C59.4256 15.4046 59.9679 15.5189 60.4249 15.7474C60.8858 15.9759 61.2421 16.2857 61.4938 16.6769C61.7456 17.0681 61.8715 17.5077 61.8715 17.9957H60.2796C60.2796 17.7323 60.2235 17.4999 60.1112 17.2985C60.0027 17.0971 59.8362 16.9383 59.6115 16.8221C59.3908 16.7059 59.1119 16.6479 58.775 16.6479C58.4496 16.6479 58.1785 16.6963 57.9616 16.7931C57.7486 16.8899 57.5879 17.0216 57.4794 17.1881C57.3749 17.3547 57.3226 17.5406 57.3226 17.7459C57.3226 17.9008 57.3594 18.0402 57.433 18.1641C57.5066 18.2842 57.6169 18.3985 57.7641 18.5069C57.9113 18.6115 58.0933 18.7102 58.3102 18.8032C58.531 18.8923 58.7866 18.9813 59.0771 19.0704C59.5418 19.2099 59.9485 19.3648 60.2971 19.5352C60.6495 19.7056 60.9419 19.8993 61.1743 20.1161C61.4106 20.333 61.5868 20.577 61.703 20.8481C61.823 21.1193 61.8831 21.4272 61.8831 21.7719C61.8831 22.1359 61.8114 22.4613 61.6681 22.7479C61.5248 23.0345 61.3195 23.2785 61.0523 23.4799C60.7851 23.6813 60.4636 23.8343 60.0879 23.9388C59.7161 24.0434 59.2998 24.0957 58.8389 24.0957C58.4283 24.0957 58.0217 24.0415 57.6189 23.933C57.2199 23.8207 56.8578 23.6542 56.5325 23.4334C56.2071 23.2088 55.9477 22.926 55.754 22.5852C55.5604 22.2405 55.4635 21.8377 55.4635 21.3768H57.067C57.067 21.6441 57.1096 21.8726 57.1948 22.0623C57.2839 22.2482 57.4078 22.4012 57.5666 22.5213C57.7292 22.6375 57.919 22.7227 58.1359 22.7769C58.3528 22.8311 58.5871 22.8583 58.8389 22.8583C59.1642 22.8583 59.4314 22.8137 59.6406 22.7246C59.8536 22.6317 60.0124 22.5039 60.117 22.3412C60.2254 22.1785 60.2796 21.9926 60.2796 21.7835Z" fill="white"/>
<path d="M98.1236 15.5208V23.9795H96.5318V15.5208H98.1236ZM100.75 15.5208V16.7815H93.9349V15.5208H100.75Z" fill="white"/>
<path d="M137.256 22.7885L139.51 24.5779L138.488 25.4667L136.269 23.689L137.256 22.7885ZM139.551 19.5352V19.9709C139.551 20.61 139.466 21.1851 139.296 21.6963C139.125 22.2037 138.881 22.6356 138.564 22.9919C138.25 23.3482 137.876 23.6212 137.442 23.811C137.008 24.0008 136.528 24.0957 136.001 24.0957C135.479 24.0957 134.998 24.0008 134.561 23.811C134.127 23.6212 133.751 23.3482 133.434 22.9919C133.116 22.6356 132.87 22.2037 132.696 21.6963C132.522 21.1851 132.434 20.61 132.434 19.9709V19.5352C132.434 18.8923 132.52 18.3171 132.69 17.8098C132.864 17.3024 133.108 16.8705 133.422 16.5142C133.74 16.154 134.115 15.8791 134.549 15.6893C134.987 15.4995 135.467 15.4046 135.99 15.4046C136.517 15.4046 136.997 15.4995 137.431 15.6893C137.868 15.8791 138.244 16.154 138.558 16.5142C138.875 16.8705 139.119 17.3024 139.29 17.8098C139.464 18.3171 139.551 18.8923 139.551 19.5352ZM137.936 19.9709V19.5236C137.936 19.0627 137.893 18.658 137.808 18.3094C137.723 17.9569 137.595 17.6606 137.425 17.4205C137.258 17.1804 137.055 17.0003 136.815 16.8802C136.575 16.7563 136.3 16.6943 135.99 16.6943C135.684 16.6943 135.411 16.7563 135.171 16.8802C134.931 17.0003 134.727 17.1804 134.561 17.4205C134.394 17.6606 134.266 17.9569 134.177 18.3094C134.092 18.658 134.049 19.0627 134.049 19.5236V19.9709C134.049 20.4279 134.092 20.8327 134.177 21.1851C134.266 21.5375 134.394 21.8358 134.561 22.0798C134.731 22.3199 134.936 22.5019 135.177 22.6259C135.421 22.7498 135.696 22.8118 136.001 22.8118C136.311 22.8118 136.586 22.7498 136.826 22.6259C137.067 22.5019 137.268 22.3199 137.431 22.0798C137.597 21.8358 137.723 21.5375 137.808 21.1851C137.893 20.8327 137.936 20.4279 137.936 19.9709Z" fill="white"/>
<path d="M175.924 22.7885L178.178 24.5779L177.156 25.4667L174.937 23.689L175.924 22.7885ZM178.219 19.5352V19.9709C178.219 20.61 178.134 21.1851 177.963 21.6963C177.793 22.2037 177.549 22.6356 177.231 22.9919C176.918 23.3482 176.544 23.6212 176.11 23.811C175.676 24.0008 175.196 24.0957 174.669 24.0957C174.147 24.0957 173.666 24.0008 173.229 23.811C172.795 23.6212 172.419 23.3482 172.102 22.9919C171.784 22.6356 171.538 22.2037 171.364 21.6963C171.19 21.1851 171.102 20.61 171.102 19.9709V19.5352C171.102 18.8923 171.188 18.3171 171.358 17.8098C171.532 17.3024 171.776 16.8705 172.09 16.5142C172.408 16.154 172.783 15.8791 173.217 15.6893C173.655 15.4995 174.135 15.4046 174.658 15.4046C175.185 15.4046 175.665 15.4995 176.099 15.6893C176.536 15.8791 176.912 16.154 177.226 16.5142C177.543 16.8705 177.787 17.3024 177.958 17.8098C178.132 18.3171 178.219 18.8923 178.219 19.5352ZM176.604 19.9709V19.5236C176.604 19.0627 176.561 18.658 176.476 18.3094C176.391 17.9569 176.263 17.6606 176.093 17.4205C175.926 17.1804 175.723 17.0003 175.483 16.8802C175.243 16.7563 174.968 16.6943 174.658 16.6943C174.352 16.6943 174.079 16.7563 173.839 16.8802C173.599 17.0003 173.395 17.1804 173.229 17.4205C173.062 17.6606 172.934 17.9569 172.845 18.3094C172.76 18.658 172.717 19.0627 172.717 19.5236V19.9709C172.717 20.4279 172.76 20.8327 172.845 21.1851C172.934 21.5375 173.062 21.8358 173.229 22.0798C173.399 22.3199 173.604 22.5019 173.845 22.6259C174.089 22.7498 174.363 22.8118 174.669 22.8118C174.979 22.8118 175.254 22.7498 175.494 22.6259C175.735 22.5019 175.936 22.3199 176.099 22.0798C176.265 21.8358 176.391 21.5375 176.476 21.1851C176.561 20.8327 176.604 20.4279 176.604 19.9709Z" fill="white"/>
<path d="M214.953 21.7835C214.953 21.6208 214.928 21.4756 214.878 21.3478C214.831 21.2161 214.744 21.098 214.617 20.9934C214.493 20.8849 214.316 20.7804 214.088 20.6797C213.863 20.5751 213.573 20.4667 213.216 20.3543C212.821 20.2304 212.453 20.091 212.113 19.9361C211.772 19.7811 211.472 19.601 211.212 19.3958C210.957 19.1905 210.757 18.9542 210.614 18.687C210.47 18.4159 210.399 18.1022 210.399 17.7459C210.399 17.3973 210.472 17.0797 210.62 16.7931C210.771 16.5065 210.984 16.2605 211.259 16.0553C211.534 15.8461 211.857 15.6854 212.229 15.5731C212.604 15.4608 213.019 15.4046 213.472 15.4046C214.099 15.4046 214.642 15.5189 215.099 15.7474C215.56 15.9759 215.916 16.2857 216.168 16.6769C216.419 17.0681 216.545 17.5077 216.545 17.9957H214.953C214.953 17.7323 214.897 17.4999 214.785 17.2985C214.677 17.0971 214.51 16.9383 214.285 16.8221C214.065 16.7059 213.786 16.6479 213.449 16.6479C213.123 16.6479 212.852 16.6963 212.635 16.7931C212.422 16.8899 212.262 17.0216 212.153 17.1881C212.049 17.3547 211.996 17.5406 211.996 17.7459C211.996 17.9008 212.033 18.0402 212.107 18.1641C212.18 18.2842 212.291 18.3985 212.438 18.5069C212.585 18.6115 212.767 18.7102 212.984 18.8032C213.205 18.8923 213.46 18.9813 213.751 19.0704C214.216 19.2099 214.622 19.3648 214.971 19.5352C215.323 19.7056 215.616 19.8993 215.848 20.1161C216.084 20.333 216.261 20.577 216.377 20.8481C216.497 21.1193 216.557 21.4272 216.557 21.7719C216.557 22.1359 216.485 22.4613 216.342 22.7479C216.199 23.0345 215.993 23.2785 215.726 23.4799C215.459 23.6813 215.137 23.8343 214.762 23.9388C214.39 24.0434 213.974 24.0957 213.513 24.0957C213.102 24.0957 212.695 24.0415 212.293 23.933C211.894 23.8207 211.532 23.6542 211.206 23.4334C210.881 23.2088 210.621 22.926 210.428 22.5852C210.234 22.2405 210.137 21.8377 210.137 21.3768H211.741C211.741 21.6441 211.783 21.8726 211.869 22.0623C211.958 22.2482 212.082 22.4012 212.24 22.5213C212.403 22.6375 212.593 22.7227 212.81 22.7769C213.027 22.8311 213.261 22.8583 213.513 22.8583C213.838 22.8583 214.105 22.8137 214.314 22.7246C214.527 22.6317 214.686 22.5039 214.791 22.3412C214.899 22.1785 214.953 21.9926 214.953 21.7835Z" fill="white"/>
<path d="M253.621 21.7835C253.621 21.6208 253.596 21.4756 253.546 21.3478C253.499 21.2161 253.412 21.098 253.284 20.9934C253.161 20.8849 252.984 20.7804 252.756 20.6797C252.531 20.5751 252.241 20.4667 251.884 20.3543C251.489 20.2304 251.121 20.091 250.781 19.9361C250.44 19.7811 250.14 19.601 249.88 19.3958C249.624 19.1905 249.425 18.9542 249.282 18.687C249.138 18.4159 249.067 18.1022 249.067 17.7459C249.067 17.3973 249.14 17.0797 249.288 16.7931C249.439 16.5065 249.652 16.2605 249.927 16.0553C250.202 15.8461 250.525 15.6854 250.897 15.5731C251.272 15.4608 251.687 15.4046 252.14 15.4046C252.767 15.4046 253.31 15.5189 253.767 15.7474C254.228 15.9759 254.584 16.2857 254.836 16.6769C255.087 17.0681 255.213 17.5077 255.213 17.9957H253.621C253.621 17.7323 253.565 17.4999 253.453 17.2985C253.345 17.0971 253.178 16.9383 252.953 16.8221C252.733 16.7059 252.454 16.6479 252.117 16.6479C251.791 16.6479 251.52 16.6963 251.303 16.7931C251.09 16.8899 250.93 17.0216 250.821 17.1881C250.717 17.3547 250.664 17.5406 250.664 17.7459C250.664 17.9008 250.701 18.0402 250.775 18.1641C250.848 18.2842 250.959 18.3985 251.106 18.5069C251.253 18.6115 251.435 18.7102 251.652 18.8032C251.873 18.8923 252.128 18.9813 252.419 19.0704C252.884 19.2099 253.29 19.3648 253.639 19.5352C253.991 19.7056 254.284 19.8993 254.516 20.1161C254.752 20.333 254.929 20.577 255.045 20.8481C255.165 21.1193 255.225 21.4272 255.225 21.7719C255.225 22.1359 255.153 22.4613 255.01 22.7479C254.867 23.0345 254.661 23.2785 254.394 23.4799C254.127 23.6813 253.805 23.8343 253.43 23.9388C253.058 24.0434 252.642 24.0957 252.181 24.0957C251.77 24.0957 251.363 24.0415 250.961 23.933C250.562 23.8207 250.2 23.6542 249.874 23.4334C249.549 23.2088 249.289 22.926 249.096 22.5852C248.902 22.2405 248.805 21.8377 248.805 21.3768H250.409C250.409 21.6441 250.451 21.8726 250.537 22.0623C250.626 22.2482 250.75 22.4012 250.908 22.5213C251.071 22.6375 251.261 22.7227 251.478 22.7769C251.695 22.8311 251.929 22.8583 252.181 22.8583C252.506 22.8583 252.773 22.8137 252.982 22.7246C253.195 22.6317 253.354 22.5039 253.459 22.3412C253.567 22.1785 253.621 21.9926 253.621 21.7835Z" fill="white"/>
<rect width="38.6683" height="38.6683" transform="translate(78.0107 38.75)" fill="#E16D02"/>
<path d="M98.2333 54.1428V62.6479H97.1585V55.4848L94.9916 56.2749V55.3047L98.0648 54.1428H98.2333Z" fill="white"/>
<rect width="38.6683" height="38.6683" transform="translate(116.679 38.75)" fill="black" fill-opacity="0.05"/>
<path d="M138.912 61.7649V62.6479H133.376V61.8753L136.147 58.7904C136.488 58.4109 136.751 58.0894 136.937 57.826C137.127 57.5588 137.259 57.3206 137.332 57.1115C137.41 56.8984 137.448 56.6815 137.448 56.4608C137.448 56.1819 137.39 55.9302 137.274 55.7055C137.162 55.477 136.995 55.295 136.774 55.1594C136.554 55.0239 136.286 54.9561 135.973 54.9561C135.597 54.9561 135.283 55.0297 135.032 55.1769C134.784 55.3202 134.598 55.5216 134.474 55.7811C134.35 56.0406 134.288 56.3388 134.288 56.6757H133.213C133.213 56.1994 133.318 55.7636 133.527 55.3686C133.736 54.9735 134.046 54.6598 134.456 54.4274C134.867 54.1912 135.372 54.0731 135.973 54.0731C136.507 54.0731 136.964 54.168 137.344 54.3577C137.723 54.5436 138.014 54.807 138.215 55.1478C138.42 55.4848 138.523 55.8798 138.523 56.333C138.523 56.5809 138.48 56.8326 138.395 57.0882C138.314 57.34 138.2 57.5917 138.053 57.8435C137.909 58.0952 137.741 58.3431 137.547 58.5871C137.357 58.8311 137.154 59.0712 136.937 59.3075L134.671 61.7649H138.912Z" fill="black"/>
<rect width="38.6683" height="38.6683" transform="translate(155.347 38.75)" fill="black" fill-opacity="0.05"/>
<path d="M173.606 57.8899H174.372C174.748 57.8899 175.058 57.828 175.302 57.704C175.55 57.5762 175.734 57.4039 175.854 57.187C175.978 56.9662 176.04 56.7183 176.04 56.4434C176.04 56.118 175.986 55.845 175.877 55.6242C175.769 55.4035 175.606 55.2369 175.389 55.1246C175.172 55.0123 174.897 54.9561 174.564 54.9561C174.262 54.9561 173.995 55.0161 173.762 55.1362C173.534 55.2524 173.354 55.4189 173.222 55.6358C173.094 55.8527 173.03 56.1083 173.03 56.4027H171.956C171.956 55.9728 172.064 55.5816 172.281 55.2292C172.498 54.8767 172.802 54.5959 173.193 54.3868C173.588 54.1776 174.045 54.0731 174.564 54.0731C175.075 54.0731 175.523 54.1641 175.906 54.3461C176.29 54.5243 176.588 54.7915 176.801 55.1478C177.014 55.5003 177.12 55.9399 177.12 56.4666C177.12 56.6796 177.07 56.9081 176.969 57.1521C176.872 57.3923 176.72 57.6169 176.51 57.826C176.305 58.0352 176.038 58.2075 175.709 58.3431C175.379 58.4748 174.984 58.5406 174.523 58.5406H173.606V57.8899ZM173.606 58.773V58.1281H174.523C175.062 58.1281 175.507 58.192 175.86 58.3198C176.212 58.4477 176.489 58.6181 176.69 58.8311C176.896 59.0441 177.039 59.2784 177.12 59.534C177.206 59.7858 177.248 60.0375 177.248 60.2893C177.248 60.6843 177.18 61.0348 177.045 61.3408C176.913 61.6468 176.725 61.9063 176.481 62.1193C176.241 62.3323 175.958 62.493 175.633 62.6015C175.308 62.7099 174.953 62.7641 174.57 62.7641C174.202 62.7641 173.855 62.7119 173.53 62.6073C173.209 62.5027 172.924 62.3517 172.676 62.1541C172.428 61.9527 172.235 61.7068 172.095 61.4163C171.956 61.122 171.886 60.787 171.886 60.4113H172.961C172.961 60.7056 173.025 60.9632 173.152 61.1839C173.284 61.4047 173.47 61.5771 173.71 61.701C173.954 61.8211 174.241 61.8811 174.57 61.8811C174.899 61.8811 175.182 61.8249 175.418 61.7126C175.658 61.5964 175.842 61.4221 175.97 61.1898C176.102 60.9574 176.168 60.665 176.168 60.3125C176.168 59.9601 176.094 59.6715 175.947 59.4469C175.8 59.2184 175.591 59.0499 175.319 58.9415C175.052 58.8291 174.737 58.773 174.372 58.773H173.606Z" fill="black"/>
<rect width="38.6683" height="38.6683" transform="translate(194.016 38.75)" fill="black" fill-opacity="0.05"/>
<path d="M216.423 59.8013V60.6843H210.311V60.0511L214.099 54.1893H214.976L214.035 55.8856L211.531 59.8013H216.423ZM215.243 54.1893V62.6479H214.168V54.1893H215.243Z" fill="black"/>
<rect width="38.6683" height="38.6683" transform="translate(232.684 38.75)" fill="black" fill-opacity="0.38"/>
<path d="M250.734 58.6219L249.875 58.4012L250.299 54.1893H254.638V55.1827H251.211L250.955 57.4833C251.11 57.3942 251.306 57.3109 251.542 57.2335C251.782 57.156 252.057 57.1173 252.367 57.1173C252.758 57.1173 253.109 57.185 253.418 57.3206C253.728 57.4523 253.992 57.6421 254.208 57.8899C254.429 58.1378 254.598 58.436 254.714 58.7846C254.83 59.1332 254.888 59.5224 254.888 59.9523C254.888 60.359 254.832 60.7327 254.72 61.0736C254.611 61.4144 254.447 61.7126 254.226 61.9682C254.005 62.22 253.726 62.4156 253.389 62.555C253.056 62.6944 252.663 62.7641 252.21 62.7641C251.869 62.7641 251.546 62.7177 251.24 62.6247C250.938 62.5279 250.667 62.3826 250.426 62.189C250.19 61.9915 249.997 61.7475 249.845 61.457C249.698 61.1626 249.605 60.8179 249.567 60.4229H250.589C250.636 60.7405 250.729 61.0077 250.868 61.2246C251.007 61.4415 251.189 61.6061 251.414 61.7184C251.643 61.8269 251.908 61.8811 252.21 61.8811C252.466 61.8811 252.692 61.8365 252.89 61.7475C253.087 61.6584 253.254 61.5306 253.389 61.364C253.525 61.1975 253.627 60.9961 253.697 60.7598C253.771 60.5236 253.808 60.2583 253.808 59.9639C253.808 59.6967 253.771 59.4488 253.697 59.2203C253.624 58.9918 253.513 58.7923 253.366 58.6219C253.223 58.4515 253.047 58.3198 252.837 58.2269C252.628 58.1301 252.388 58.0816 252.117 58.0816C251.757 58.0816 251.484 58.1301 251.298 58.2269C251.116 58.3237 250.928 58.4554 250.734 58.6219Z" fill="black"/>
<rect width="38.6683" height="38.6683" transform="translate(0.673828 77.4182)" fill="black" fill-opacity="0.38"/>
<path d="M21.4889 92.8459H21.5819V93.7579H21.4889C20.9196 93.7579 20.4432 93.8509 20.0598 94.0368C19.6764 94.2188 19.3723 94.4648 19.1477 94.7746C18.9231 95.0806 18.7604 95.4253 18.6597 95.8087C18.5629 96.1921 18.5145 96.5814 18.5145 96.9764V98.2197C18.5145 98.5954 18.559 98.9284 18.6481 99.2189C18.7371 99.5055 18.8591 99.7476 19.0141 99.9451C19.169 100.143 19.3433 100.292 19.5369 100.392C19.7345 100.493 19.9397 100.543 20.1527 100.543C20.4006 100.543 20.6214 100.497 20.815 100.404C21.0087 100.307 21.1713 100.174 21.303 100.003C21.4386 99.8289 21.5412 99.6236 21.6109 99.3874C21.6807 99.1511 21.7155 98.8916 21.7155 98.6089C21.7155 98.3572 21.6845 98.1151 21.6226 97.8827C21.5606 97.6465 21.4657 97.4373 21.3379 97.2553C21.2101 97.0694 21.0493 96.9241 20.8557 96.8196C20.6659 96.7111 20.4393 96.6569 20.176 96.6569C19.8778 96.6569 19.5989 96.7305 19.3394 96.8777C19.0838 97.021 18.8727 97.2108 18.7062 97.447C18.5435 97.6794 18.4505 97.9331 18.4273 98.2081L17.858 98.2022C17.9122 97.7685 18.0129 97.3986 18.1601 97.0926C18.3111 96.7828 18.497 96.531 18.7178 96.3374C18.9424 96.1399 19.1922 95.9966 19.4672 95.9075C19.7461 95.8145 20.0404 95.768 20.3503 95.768C20.7724 95.768 21.1365 95.8474 21.4425 96.0062C21.7484 96.165 22.0002 96.3781 22.1977 96.6453C22.3952 96.9087 22.5405 97.2069 22.6334 97.54C22.7302 97.8692 22.7787 98.2081 22.7787 98.5566C22.7787 98.9556 22.7225 99.3293 22.6102 99.6779C22.4979 100.026 22.3294 100.332 22.1047 100.596C21.884 100.859 21.6109 101.064 21.2856 101.212C20.9603 101.359 20.5826 101.432 20.1527 101.432C19.6957 101.432 19.2968 101.339 18.956 101.153C18.6151 100.964 18.3324 100.712 18.1078 100.398C17.8831 100.085 17.7147 99.736 17.6024 99.3525C17.49 98.9691 17.4339 98.5799 17.4339 98.1848V97.6794C17.4339 97.0829 17.4939 96.4981 17.614 95.9249C17.734 95.3517 17.9412 94.8327 18.2356 94.368C18.5338 93.9032 18.9463 93.5333 19.473 93.2583C19.9998 92.9833 20.6717 92.8459 21.4889 92.8459Z" fill="black"/>
<rect width="38.6683" height="38.6683" transform="translate(39.3418 77.4182)" fill="black" fill-opacity="0.05"/>
<path d="M61.4989 92.8575V93.4617L57.9958 101.316H56.8629L60.3602 93.7405H55.7823V92.8575H61.4989Z" fill="black"/>
<rect width="38.6683" height="38.6683" transform="translate(78.0107 77.4182)" fill="black" fill-opacity="0.05"/>
<path d="M100.034 99.0272C100.034 99.5423 99.9142 99.98 99.674 100.34C99.4378 100.696 99.1163 100.968 98.7097 101.153C98.3069 101.339 97.8518 101.432 97.3444 101.432C96.837 101.432 96.38 101.339 95.9734 101.153C95.5667 100.968 95.2452 100.696 95.009 100.34C94.7727 99.98 94.6546 99.5423 94.6546 99.0272C94.6546 98.6902 94.7185 98.3823 94.8463 98.1035C94.978 97.8208 95.162 97.5748 95.3982 97.3657C95.6383 97.1565 95.9211 96.9958 96.2464 96.8835C96.5756 96.7673 96.9377 96.7092 97.3328 96.7092C97.8518 96.7092 98.3146 96.8099 98.7213 97.0113C99.1279 97.2088 99.4475 97.4819 99.6799 97.8304C99.9161 98.179 100.034 98.5779 100.034 99.0272ZM98.9537 99.004C98.9537 98.6902 98.8859 98.4133 98.7503 98.1732C98.6148 97.9292 98.425 97.7394 98.181 97.6039C97.937 97.4683 97.6543 97.4005 97.3328 97.4005C97.0036 97.4005 96.7189 97.4683 96.4788 97.6039C96.2425 97.7394 96.0586 97.9292 95.9269 98.1732C95.7952 98.4133 95.7294 98.6902 95.7294 99.004C95.7294 99.3293 95.7933 99.6082 95.9211 99.8405C96.0528 100.069 96.2387 100.245 96.4788 100.369C96.7228 100.489 97.0113 100.549 97.3444 100.549C97.6775 100.549 97.9641 100.489 98.2042 100.369C98.4444 100.245 98.6283 100.069 98.7561 99.8405C98.8878 99.6082 98.9537 99.3293 98.9537 99.004ZM99.8367 95.0593C99.8367 95.4698 99.7283 95.8397 99.5114 96.1689C99.2945 96.4981 98.9982 96.7576 98.6225 96.9474C98.2468 97.1372 97.8208 97.2321 97.3444 97.2321C96.8603 97.2321 96.4284 97.1372 96.0489 96.9474C95.6732 96.7576 95.3789 96.4981 95.1658 96.1689C94.9528 95.8397 94.8463 95.4698 94.8463 95.0593C94.8463 94.5674 94.9528 94.1491 95.1658 93.8044C95.3827 93.4597 95.679 93.1964 96.0547 93.0143C96.4304 92.8323 96.8584 92.7413 97.3386 92.7413C97.8227 92.7413 98.2526 92.8323 98.6283 93.0143C99.004 93.1964 99.2984 93.4597 99.5114 93.8044C99.7283 94.1491 99.8367 94.5674 99.8367 95.0593ZM98.7619 95.0767C98.7619 94.794 98.7019 94.5442 98.5818 94.3273C98.4618 94.1104 98.2952 93.94 98.0822 93.816C97.8692 93.6882 97.6213 93.6243 97.3386 93.6243C97.0559 93.6243 96.808 93.6844 96.595 93.8044C96.3858 93.9206 96.2212 94.0872 96.1012 94.304C95.985 94.5209 95.9269 94.7785 95.9269 95.0767C95.9269 95.3672 95.985 95.6209 96.1012 95.8378C96.2212 96.0547 96.3878 96.2231 96.6008 96.3432C96.8138 96.4633 97.0617 96.5233 97.3444 96.5233C97.6271 96.5233 97.8731 96.4633 98.0822 96.3432C98.2952 96.2231 98.4618 96.0547 98.5818 95.8378C98.7019 95.6209 98.7619 95.3672 98.7619 95.0767Z" fill="black"/>
<rect width="38.6683" height="38.6683" transform="translate(116.679 77.4182)" fill="black" fill-opacity="0.05"/>
<path d="M134.439 100.416H134.549C135.169 100.416 135.673 100.329 136.06 100.154C136.447 99.98 136.745 99.7456 136.955 99.4513C137.164 99.1569 137.307 98.8258 137.384 98.4579C137.462 98.0861 137.501 97.7046 137.501 97.3134V96.0179C137.501 95.6344 137.456 95.2936 137.367 94.9954C137.282 94.6972 137.162 94.4473 137.007 94.2459C136.856 94.0446 136.683 93.8916 136.49 93.787C136.296 93.6824 136.091 93.6301 135.874 93.6301C135.626 93.6301 135.403 93.6805 135.206 93.7812C135.012 93.878 134.848 94.0155 134.712 94.1937C134.58 94.3718 134.48 94.581 134.41 94.8211C134.34 95.0612 134.305 95.3227 134.305 95.6054C134.305 95.8571 134.336 96.1011 134.398 96.3374C134.46 96.5736 134.555 96.7867 134.683 96.9764C134.811 97.1662 134.97 97.3173 135.159 97.4296C135.353 97.538 135.58 97.5922 135.839 97.5922C136.079 97.5922 136.304 97.5458 136.513 97.4528C136.726 97.356 136.914 97.2262 137.077 97.0636C137.243 96.897 137.375 96.7092 137.472 96.5001C137.572 96.2909 137.63 96.0721 137.646 95.8436H138.157C138.157 96.165 138.093 96.4826 137.965 96.7963C137.841 97.1062 137.667 97.3889 137.443 97.6445C137.218 97.9002 136.955 98.1054 136.652 98.2603C136.35 98.4114 136.021 98.4869 135.665 98.4869C135.247 98.4869 134.884 98.4056 134.578 98.2429C134.272 98.0802 134.021 97.8634 133.823 97.5922C133.63 97.3211 133.484 97.019 133.387 96.686C133.294 96.349 133.248 96.0082 133.248 95.6635C133.248 95.2607 133.304 94.8831 133.416 94.5306C133.529 94.1782 133.695 93.8683 133.916 93.6011C134.137 93.33 134.41 93.1189 134.735 92.9679C135.064 92.8168 135.444 92.7413 135.874 92.7413C136.358 92.7413 136.771 92.8381 137.111 93.0318C137.452 93.2254 137.729 93.4849 137.942 93.8102C138.159 94.1356 138.318 94.5016 138.419 94.9082C138.519 95.3149 138.57 95.7332 138.57 96.1631V96.5523C138.57 96.99 138.541 97.4354 138.482 97.8885C138.428 98.3378 138.322 98.7677 138.163 99.1783C138.008 99.5888 137.781 99.9567 137.483 100.282C137.185 100.604 136.796 100.859 136.315 101.049C135.839 101.235 135.25 101.328 134.549 101.328H134.439V100.416Z" fill="black"/>
<rect width="38.6683" height="38.6683" transform="translate(155.347 77.4182)" fill="black" fill-opacity="0.05"/>
<path d="M172.163 92.811V101.316H171.089V94.153L168.922 94.9431V93.9729L171.995 92.811H172.163ZM180.753 96.4129V97.7026C180.753 98.3959 180.691 98.9807 180.567 99.4571C180.443 99.9335 180.265 100.317 180.032 100.607C179.8 100.898 179.519 101.109 179.19 101.241C178.865 101.368 178.497 101.432 178.086 101.432C177.761 101.432 177.461 101.392 177.186 101.31C176.911 101.229 176.663 101.099 176.442 100.921C176.225 100.739 176.039 100.503 175.884 100.212C175.729 99.9219 175.611 99.5694 175.53 99.155C175.449 98.7406 175.408 98.2565 175.408 97.7026V96.4129C175.408 95.7196 175.47 95.1387 175.594 94.67C175.722 94.2014 175.902 93.8257 176.134 93.543C176.367 93.2564 176.645 93.0511 176.971 92.9272C177.3 92.8032 177.668 92.7413 178.075 92.7413C178.404 92.7413 178.706 92.7819 178.981 92.8633C179.26 92.9407 179.508 93.0666 179.724 93.2409C179.941 93.4113 180.125 93.6398 180.276 93.9264C180.431 94.2092 180.549 94.5558 180.631 94.9663C180.712 95.3769 180.753 95.8591 180.753 96.4129ZM179.672 97.8769V96.2328C179.672 95.8533 179.649 95.5202 179.602 95.2336C179.56 94.9431 179.496 94.6952 179.411 94.49C179.326 94.2847 179.217 94.1181 179.085 93.9903C178.958 93.8625 178.808 93.7696 178.638 93.7115C178.472 93.6495 178.284 93.6185 178.075 93.6185C177.819 93.6185 177.592 93.6669 177.395 93.7638C177.197 93.8567 177.031 94.0058 176.895 94.2111C176.764 94.4164 176.663 94.6855 176.593 95.0186C176.523 95.3517 176.489 95.7564 176.489 96.2328V97.8769C176.489 98.2565 176.51 98.5915 176.552 98.882C176.599 99.1724 176.667 99.4242 176.756 99.6372C176.845 99.8463 176.953 100.019 177.081 100.154C177.209 100.29 177.356 100.391 177.523 100.456C177.693 100.518 177.881 100.549 178.086 100.549C178.35 100.549 178.58 100.499 178.777 100.398C178.975 100.298 179.14 100.141 179.271 99.9277C179.407 99.7108 179.508 99.4339 179.573 99.0969C179.639 98.7561 179.672 98.3494 179.672 97.8769Z" fill="black"/>
<rect width="38.6683" height="38.6683" transform="translate(194.016 77.4182)" fill="black" fill-opacity="0.05"/>
<path d="M210.832 92.811V101.316H209.758V94.153L207.591 94.9431V93.9729L210.664 92.811H210.832ZM217.644 92.811V101.316H216.569V94.153L214.402 94.9431V93.9729L217.475 92.811H217.644Z" fill="black"/>
<rect width="38.6683" height="38.6683" transform="translate(232.684 77.4182)" fill="black" fill-opacity="0.38"/>
<path d="M249.501 92.811V101.316H248.427V94.153L246.26 94.9431V93.9729L249.333 92.811H249.501ZM258.323 100.433V101.316H252.786V100.543L255.558 97.4586C255.898 97.0791 256.162 96.7576 256.348 96.4942C256.538 96.227 256.669 95.9888 256.743 95.7797C256.82 95.5667 256.859 95.3498 256.859 95.129C256.859 94.8501 256.801 94.5984 256.685 94.3738C256.572 94.1453 256.406 93.9632 256.185 93.8277C255.964 93.6921 255.697 93.6243 255.383 93.6243C255.008 93.6243 254.694 93.6979 254.442 93.8451C254.194 93.9884 254.008 94.1898 253.885 94.4493C253.761 94.7088 253.699 95.007 253.699 95.344H252.624C252.624 94.8676 252.728 94.4319 252.938 94.0368C253.147 93.6418 253.457 93.328 253.867 93.0957C254.278 92.8594 254.783 92.7413 255.383 92.7413C255.918 92.7413 256.375 92.8362 256.754 93.0259C257.134 93.2119 257.424 93.4752 257.626 93.816C257.831 94.153 257.934 94.548 257.934 95.0012C257.934 95.2491 257.891 95.5008 257.806 95.7564C257.725 96.0082 257.61 96.2599 257.463 96.5117C257.32 96.7634 257.151 97.0113 256.958 97.2553C256.768 97.4993 256.565 97.7394 256.348 97.9757L254.082 100.433H258.323Z" fill="black"/>
<rect width="38.6683" height="38.6683" transform="translate(0.673828 116.086)" fill="black" fill-opacity="0.38"/>
<path d="M17.4906 131.479V139.984H16.4158V132.821L14.2489 133.611V132.641L17.3221 131.479H17.4906ZM22.3385 135.226H23.1054C23.4811 135.226 23.7909 135.164 24.0349 135.04C24.2828 134.913 24.4668 134.74 24.5868 134.523C24.7108 134.303 24.7727 134.055 24.7727 133.78C24.7727 133.454 24.7185 133.181 24.6101 132.961C24.5016 132.74 24.3389 132.573 24.1221 132.461C23.9052 132.349 23.6302 132.293 23.2971 132.293C22.995 132.293 22.7278 132.353 22.4954 132.473C22.2669 132.589 22.0868 132.755 21.9551 132.972C21.8273 133.189 21.7634 133.445 21.7634 133.739H20.6886C20.6886 133.309 20.7971 132.918 21.0139 132.566C21.2308 132.213 21.5349 131.932 21.926 131.723C22.3211 131.514 22.7781 131.409 23.2971 131.409C23.8083 131.409 24.2557 131.501 24.6391 131.683C25.0225 131.861 25.3208 132.128 25.5338 132.484C25.7468 132.837 25.8533 133.276 25.8533 133.803C25.8533 134.016 25.8029 134.245 25.7022 134.489C25.6054 134.729 25.4524 134.953 25.2433 135.162C25.038 135.372 24.7708 135.544 24.4416 135.68C24.1124 135.811 23.7173 135.877 23.2564 135.877H22.3385V135.226ZM22.3385 136.109V135.465H23.2564C23.7948 135.465 24.2402 135.528 24.5926 135.656C24.9451 135.784 25.222 135.954 25.4234 136.168C25.6287 136.381 25.772 136.615 25.8533 136.87C25.9385 137.122 25.9811 137.374 25.9811 137.626C25.9811 138.021 25.9133 138.371 25.7778 138.677C25.6461 138.983 25.4582 139.243 25.2142 139.456C24.9741 139.669 24.6914 139.829 24.3661 139.938C24.0407 140.046 23.6863 140.101 23.3029 140.101C22.935 140.101 22.5883 140.048 22.263 139.944C21.9415 139.839 21.6569 139.688 21.409 139.491C21.1611 139.289 20.9675 139.043 20.828 138.753C20.6886 138.458 20.6189 138.123 20.6189 137.748H21.6937C21.6937 138.042 21.7576 138.3 21.8854 138.52C22.0171 138.741 22.203 138.913 22.4431 139.037C22.6871 139.157 22.9737 139.218 23.3029 139.218C23.6321 139.218 23.9148 139.161 24.1511 139.049C24.3912 138.933 24.5752 138.759 24.703 138.526C24.8347 138.294 24.9005 138.001 24.9005 137.649C24.9005 137.296 24.8269 137.008 24.6798 136.783C24.5326 136.555 24.3234 136.386 24.0523 136.278C23.7851 136.166 23.4694 136.109 23.1054 136.109H22.3385Z" fill="black"/>
<rect width="38.6683" height="38.6683" transform="translate(39.3418 116.086)" fill="black" fill-opacity="0.05"/>
<path d="M56.1585 131.479V139.984H55.0838V132.821L52.9168 133.611V132.641L55.9901 131.479H56.1585ZM65.1545 137.138V138.021H59.0429V137.388L62.8307 131.526H63.7079L62.7668 133.222L60.2629 137.138H65.1545ZM63.9752 131.526V139.984H62.9004V131.526H63.9752Z" fill="black"/>
<rect width="38.6683" height="38.6683" transform="translate(78.0107 116.086)" fill="black" fill-opacity="0.05"/>
<path d="M94.8275 131.479V139.984H93.7527V132.821L91.5858 133.611V132.641L94.659 131.479H94.8275ZM99.4663 135.958L98.6065 135.738L99.0306 131.526H103.37V132.519H99.9427L99.6871 134.82C99.842 134.731 100.038 134.647 100.274 134.57C100.514 134.492 100.789 134.454 101.099 134.454C101.49 134.454 101.84 134.521 102.15 134.657C102.46 134.789 102.724 134.978 102.94 135.226C103.161 135.474 103.33 135.772 103.446 136.121C103.562 136.47 103.62 136.859 103.62 137.289C103.62 137.695 103.564 138.069 103.452 138.41C103.343 138.751 103.179 139.049 102.958 139.305C102.737 139.556 102.458 139.752 102.121 139.891C101.788 140.031 101.395 140.101 100.942 140.101C100.601 140.101 100.278 140.054 99.9717 139.961C99.6696 139.864 99.3985 139.719 99.1584 139.525C98.9221 139.328 98.7285 139.084 98.5774 138.793C98.4303 138.499 98.3373 138.154 98.2986 137.759H99.3211C99.3675 138.077 99.4605 138.344 99.5999 138.561C99.7393 138.778 99.9214 138.943 100.146 139.055C100.375 139.163 100.64 139.218 100.942 139.218C101.198 139.218 101.424 139.173 101.622 139.084C101.819 138.995 101.986 138.867 102.121 138.7C102.257 138.534 102.359 138.333 102.429 138.096C102.503 137.86 102.54 137.595 102.54 137.3C102.54 137.033 102.503 136.785 102.429 136.557C102.356 136.328 102.245 136.129 102.098 135.958C101.955 135.788 101.778 135.656 101.569 135.563C101.36 135.466 101.12 135.418 100.849 135.418C100.489 135.418 100.216 135.466 100.03 135.563C99.8478 135.66 99.6599 135.792 99.4663 135.958Z" fill="black"/>
<rect width="38.6683" height="38.6683" transform="translate(116.679 116.086)" fill="black" fill-opacity="0.05"/>
<path d="M133.496 131.479V139.984H132.422V132.821L130.255 133.611V132.641L133.328 131.479H133.496ZM140.901 131.514H140.994V132.426H140.901C140.331 132.426 139.855 132.519 139.471 132.705C139.088 132.887 138.784 133.133 138.559 133.443C138.335 133.749 138.172 134.093 138.071 134.477C137.975 134.86 137.926 135.25 137.926 135.645V136.888C137.926 137.264 137.971 137.597 138.06 137.887C138.149 138.174 138.271 138.416 138.426 138.613C138.581 138.811 138.755 138.96 138.949 139.061C139.146 139.161 139.351 139.212 139.564 139.212C139.812 139.212 140.033 139.165 140.227 139.072C140.42 138.975 140.583 138.842 140.715 138.671C140.85 138.497 140.953 138.292 141.023 138.056C141.092 137.819 141.127 137.56 141.127 137.277C141.127 137.025 141.096 136.783 141.034 136.551C140.972 136.315 140.877 136.106 140.75 135.924C140.622 135.738 140.461 135.592 140.267 135.488C140.078 135.379 139.851 135.325 139.588 135.325C139.289 135.325 139.011 135.399 138.751 135.546C138.495 135.689 138.284 135.879 138.118 136.115C137.955 136.348 137.862 136.601 137.839 136.876L137.27 136.87C137.324 136.437 137.425 136.067 137.572 135.761C137.723 135.451 137.909 135.199 138.129 135.006C138.354 134.808 138.604 134.665 138.879 134.576C139.158 134.483 139.452 134.436 139.762 134.436C140.184 134.436 140.548 134.516 140.854 134.674C141.16 134.833 141.412 135.046 141.609 135.314C141.807 135.577 141.952 135.875 142.045 136.208C142.142 136.537 142.19 136.876 142.19 137.225C142.19 137.624 142.134 137.998 142.022 138.346C141.91 138.695 141.741 139.001 141.516 139.264C141.296 139.527 141.023 139.733 140.697 139.88C140.372 140.027 139.994 140.101 139.564 140.101C139.107 140.101 138.708 140.008 138.368 139.822C138.027 139.632 137.744 139.38 137.519 139.066C137.295 138.753 137.126 138.404 137.014 138.021C136.902 137.637 136.846 137.248 136.846 136.853V136.348C136.846 135.751 136.906 135.166 137.026 134.593C137.146 134.02 137.353 133.501 137.647 133.036C137.945 132.571 138.358 132.202 138.885 131.927C139.411 131.652 140.083 131.514 140.901 131.514Z" fill="black"/>
<rect width="38.6683" height="38.6683" transform="translate(155.347 116.086)" fill="black" fill-opacity="0.05"/>
<path d="M172.163 131.479V139.984H171.089V132.821L168.922 133.611V132.641L171.995 131.479H172.163ZM180.91 131.526V132.13L177.406 139.984H176.274L179.771 132.409H175.193V131.526H180.91Z" fill="black"/>
<rect width="38.6683" height="38.6683" transform="translate(194.016 116.086)" fill="black" fill-opacity="0.05"/>
<path d="M210.832 131.479V139.984H209.758V132.821L207.591 133.611V132.641L210.664 131.479H210.832ZM219.445 137.695C219.445 138.211 219.325 138.648 219.085 139.008C218.848 139.365 218.527 139.636 218.12 139.822C217.718 140.008 217.262 140.101 216.755 140.101C216.248 140.101 215.791 140.008 215.384 139.822C214.977 139.636 214.656 139.365 214.42 139.008C214.183 138.648 214.065 138.211 214.065 137.695C214.065 137.358 214.129 137.051 214.257 136.772C214.389 136.489 214.573 136.243 214.809 136.034C215.049 135.825 215.332 135.664 215.657 135.552C215.986 135.436 216.348 135.377 216.743 135.377C217.262 135.377 217.725 135.478 218.132 135.68C218.539 135.877 218.858 136.15 219.091 136.499C219.327 136.847 219.445 137.246 219.445 137.695ZM218.364 137.672C218.364 137.358 218.297 137.082 218.161 136.841C218.025 136.597 217.836 136.408 217.592 136.272C217.348 136.137 217.065 136.069 216.743 136.069C216.414 136.069 216.13 136.137 215.889 136.272C215.653 136.408 215.469 136.597 215.338 136.841C215.206 137.082 215.14 137.358 215.14 137.672C215.14 137.998 215.204 138.276 215.332 138.509C215.463 138.737 215.649 138.913 215.889 139.037C216.133 139.157 216.422 139.218 216.755 139.218C217.088 139.218 217.375 139.157 217.615 139.037C217.855 138.913 218.039 138.737 218.167 138.509C218.298 138.276 218.364 137.998 218.364 137.672ZM219.247 133.727C219.247 134.138 219.139 134.508 218.922 134.837C218.705 135.166 218.409 135.426 218.033 135.616C217.658 135.805 217.231 135.9 216.755 135.9C216.271 135.9 215.839 135.805 215.46 135.616C215.084 135.426 214.79 135.166 214.577 134.837C214.363 134.508 214.257 134.138 214.257 133.727C214.257 133.236 214.363 132.817 214.577 132.473C214.793 132.128 215.09 131.865 215.465 131.683C215.841 131.501 216.269 131.409 216.749 131.409C217.233 131.409 217.663 131.501 218.039 131.683C218.415 131.865 218.709 132.128 218.922 132.473C219.139 132.817 219.247 133.236 219.247 133.727ZM218.173 133.745C218.173 133.462 218.113 133.212 217.993 132.995C217.872 132.779 217.706 132.608 217.493 132.484C217.28 132.356 217.032 132.293 216.749 132.293C216.467 132.293 216.219 132.353 216.006 132.473C215.797 132.589 215.632 132.755 215.512 132.972C215.396 133.189 215.338 133.447 215.338 133.745C215.338 134.035 215.396 134.289 215.512 134.506C215.632 134.723 215.798 134.891 216.011 135.011C216.224 135.131 216.472 135.192 216.755 135.192C217.038 135.192 217.284 135.131 217.493 135.011C217.706 134.891 217.872 134.723 217.993 134.506C218.113 134.289 218.173 134.035 218.173 133.745Z" fill="black"/>
<rect width="38.6683" height="38.6683" transform="translate(232.684 116.086)" fill="black" fill-opacity="0.38"/>
<path d="M249.501 131.479V139.984H248.427V132.821L246.26 133.611V132.641L249.333 131.479H249.501ZM253.85 139.084H253.96C254.58 139.084 255.083 138.997 255.471 138.822C255.858 138.648 256.156 138.414 256.365 138.12C256.574 137.825 256.718 137.494 256.795 137.126C256.873 136.754 256.911 136.373 256.911 135.982V134.686C256.911 134.303 256.867 133.962 256.778 133.664C256.692 133.365 256.572 133.116 256.417 132.914C256.266 132.713 256.094 132.56 255.9 132.455C255.707 132.351 255.501 132.298 255.285 132.298C255.037 132.298 254.814 132.349 254.617 132.449C254.423 132.546 254.258 132.684 254.123 132.862C253.991 133.04 253.89 133.249 253.821 133.489C253.751 133.729 253.716 133.991 253.716 134.274C253.716 134.525 253.747 134.769 253.809 135.006C253.871 135.242 253.966 135.455 254.094 135.645C254.221 135.834 254.38 135.985 254.57 136.098C254.764 136.206 254.99 136.26 255.25 136.26C255.49 136.26 255.715 136.214 255.924 136.121C256.137 136.024 256.325 135.894 256.487 135.732C256.654 135.565 256.785 135.377 256.882 135.168C256.983 134.959 257.041 134.74 257.057 134.512H257.568C257.568 134.833 257.504 135.151 257.376 135.465C257.252 135.774 257.078 136.057 256.853 136.313C256.629 136.568 256.365 136.774 256.063 136.929C255.761 137.08 255.432 137.155 255.075 137.155C254.657 137.155 254.295 137.074 253.989 136.911C253.683 136.748 253.431 136.532 253.234 136.26C253.04 135.989 252.895 135.687 252.798 135.354C252.705 135.017 252.659 134.676 252.659 134.332C252.659 133.929 252.715 133.551 252.827 133.199C252.939 132.846 253.106 132.537 253.327 132.269C253.548 131.998 253.821 131.787 254.146 131.636C254.475 131.485 254.855 131.409 255.285 131.409C255.769 131.409 256.181 131.506 256.522 131.7C256.863 131.894 257.14 132.153 257.353 132.478C257.57 132.804 257.728 133.17 257.829 133.576C257.93 133.983 257.98 134.401 257.98 134.831V135.221C257.98 135.658 257.951 136.104 257.893 136.557C257.839 137.006 257.732 137.436 257.574 137.846C257.419 138.257 257.192 138.625 256.894 138.95C256.596 139.272 256.206 139.527 255.726 139.717C255.25 139.903 254.661 139.996 253.96 139.996H253.85V139.084Z" fill="black"/>
<rect width="38.6683" height="38.6683" transform="translate(0.673828 154.755)" fill="black" fill-opacity="0.38"/>
<path d="M19.5007 177.77V178.653H13.9642V177.88L16.7353 174.795C17.0762 174.416 17.3395 174.094 17.5254 173.831C17.7152 173.564 17.8469 173.325 17.9205 173.116C17.9979 172.903 18.0367 172.686 18.0367 172.466C18.0367 172.187 17.9786 171.935 17.8624 171.71C17.7501 171.482 17.5835 171.3 17.3628 171.164C17.142 171.029 16.8748 170.961 16.561 170.961C16.1854 170.961 15.8717 171.035 15.6199 171.182C15.372 171.325 15.1861 171.526 15.0622 171.786C14.9383 172.045 14.8763 172.344 14.8763 172.681H13.8015C13.8015 172.204 13.9061 171.769 14.1152 171.373C14.3244 170.978 14.6342 170.665 15.0448 170.432C15.4553 170.196 15.9607 170.078 16.561 170.078C17.0955 170.078 17.5525 170.173 17.9321 170.363C18.3117 170.549 18.6021 170.812 18.8035 171.153C19.0088 171.49 19.1114 171.885 19.1114 172.338C19.1114 172.586 19.0688 172.837 18.9836 173.093C18.9023 173.345 18.788 173.597 18.6409 173.848C18.4976 174.1 18.3291 174.348 18.1354 174.592C17.9457 174.836 17.7423 175.076 17.5254 175.312L15.2597 177.77H19.5007ZM26.0799 173.75V175.039C26.0799 175.733 26.0179 176.317 25.894 176.794C25.77 177.27 25.5919 177.654 25.3595 177.944C25.1271 178.235 24.8463 178.446 24.5171 178.577C24.1918 178.705 23.8238 178.769 23.4133 178.769C23.088 178.769 22.7878 178.728 22.5128 178.647C22.2378 178.566 21.99 178.436 21.7692 178.258C21.5523 178.076 21.3664 177.839 21.2115 177.549C21.0566 177.259 20.9384 176.906 20.8571 176.492C20.7758 176.077 20.7351 175.593 20.7351 175.039V173.75C20.7351 173.056 20.7971 172.475 20.921 172.007C21.0488 171.538 21.2289 171.162 21.4613 170.88C21.6937 170.593 21.9725 170.388 22.2979 170.264C22.6271 170.14 22.995 170.078 23.4017 170.078C23.7309 170.078 24.033 170.119 24.308 170.2C24.5868 170.277 24.8347 170.403 25.0516 170.578C25.2685 170.748 25.4524 170.976 25.6035 171.263C25.7584 171.546 25.8765 171.892 25.9579 172.303C26.0392 172.714 26.0799 173.196 26.0799 173.75ZM24.9993 175.214V173.569C24.9993 173.19 24.9761 172.857 24.9296 172.57C24.887 172.28 24.8231 172.032 24.7379 171.827C24.6527 171.621 24.5442 171.455 24.4125 171.327C24.2847 171.199 24.1356 171.106 23.9652 171.048C23.7987 170.986 23.6108 170.955 23.4017 170.955C23.146 170.955 22.9195 171.004 22.722 171.1C22.5244 171.193 22.3579 171.342 22.2223 171.548C22.0906 171.753 21.99 172.022 21.9202 172.355C21.8505 172.688 21.8157 173.093 21.8157 173.569V175.214C21.8157 175.593 21.837 175.928 21.8796 176.219C21.926 176.509 21.9938 176.761 22.0829 176.974C22.172 177.183 22.2804 177.355 22.4082 177.491C22.536 177.626 22.6832 177.727 22.8498 177.793C23.0202 177.855 23.208 177.886 23.4133 177.886C23.6767 177.886 23.9071 177.836 24.1046 177.735C24.3021 177.634 24.4668 177.477 24.5984 177.264C24.734 177.047 24.8347 176.771 24.9005 176.434C24.9664 176.093 24.9993 175.686 24.9993 175.214Z" fill="black"/>
<rect width="38.6683" height="38.6683" transform="translate(39.3418 154.755)" fill="black" fill-opacity="0.05"/>
<path d="M58.1686 177.77V178.653H52.6322V177.88L55.4033 174.795C55.7441 174.416 56.0075 174.094 56.1934 173.831C56.3832 173.564 56.5149 173.325 56.5885 173.116C56.6659 172.903 56.7046 172.686 56.7046 172.466C56.7046 172.187 56.6465 171.935 56.5304 171.71C56.418 171.482 56.2515 171.3 56.0307 171.164C55.81 171.029 55.5427 170.961 55.229 170.961C54.8533 170.961 54.5396 171.035 54.2879 171.182C54.04 171.325 53.8541 171.526 53.7302 171.786C53.6062 172.045 53.5443 172.344 53.5443 172.681H52.4695C52.4695 172.204 52.5741 171.769 52.7832 171.373C52.9923 170.978 53.3022 170.665 53.7127 170.432C54.1233 170.196 54.6287 170.078 55.229 170.078C55.7635 170.078 56.2205 170.173 56.6001 170.363C56.9796 170.549 57.2701 170.812 57.4715 171.153C57.6768 171.49 57.7794 171.885 57.7794 172.338C57.7794 172.586 57.7368 172.837 57.6516 173.093C57.5703 173.345 57.456 173.597 57.3088 173.848C57.1655 174.1 56.9971 174.348 56.8034 174.592C56.6136 174.836 56.4103 175.076 56.1934 175.312L53.9277 177.77H58.1686ZM62.9701 170.148V178.653H61.8954V171.49L59.7284 172.28V171.31L62.8016 170.148H62.9701Z" fill="black"/>
<rect width="38.6683" height="38.6683" transform="translate(78.0107 154.755)" fill="black" fill-opacity="0.05"/>
<path d="M96.8376 177.77V178.653H91.3011V177.88L94.0723 174.795C94.4131 174.416 94.6764 174.094 94.8623 173.831C95.0521 173.564 95.1838 173.325 95.2574 173.116C95.3349 172.903 95.3736 172.686 95.3736 172.466C95.3736 172.187 95.3155 171.935 95.1993 171.71C95.087 171.482 94.9204 171.3 94.6997 171.164C94.4789 171.029 94.2117 170.961 93.898 170.961C93.5223 170.961 93.2086 171.035 92.9568 171.182C92.7089 171.325 92.523 171.526 92.3991 171.786C92.2752 172.045 92.2132 172.344 92.2132 172.681H91.1384C91.1384 172.204 91.243 171.769 91.4521 171.373C91.6613 170.978 91.9711 170.665 92.3817 170.432C92.7922 170.196 93.2976 170.078 93.898 170.078C94.4324 170.078 94.8895 170.173 95.269 170.363C95.6486 170.549 95.939 170.812 96.1404 171.153C96.3457 171.49 96.4484 171.885 96.4484 172.338C96.4484 172.586 96.4057 172.837 96.3205 173.093C96.2392 173.345 96.125 173.597 95.9778 173.848C95.8345 174.1 95.666 174.348 95.4723 174.592C95.2826 174.836 95.0792 175.076 94.8623 175.312L92.5966 177.77H96.8376ZM103.649 177.77V178.653H98.1127V177.88L100.884 174.795C101.225 174.416 101.488 174.094 101.674 173.831C101.864 173.564 101.995 173.325 102.069 173.116C102.146 172.903 102.185 172.686 102.185 172.466C102.185 172.187 102.127 171.935 102.011 171.71C101.899 171.482 101.732 171.3 101.511 171.164C101.29 171.029 101.023 170.961 100.71 170.961C100.334 170.961 100.02 171.035 99.7684 171.182C99.5205 171.325 99.3346 171.526 99.2107 171.786C99.0867 172.045 99.0248 172.344 99.0248 172.681H97.95C97.95 172.204 98.0546 171.769 98.2637 171.373C98.4729 170.978 98.7827 170.665 99.1932 170.432C99.6038 170.196 100.109 170.078 100.71 170.078C101.244 170.078 101.701 170.173 102.081 170.363C102.46 170.549 102.751 170.812 102.952 171.153C103.157 171.49 103.26 171.885 103.26 172.338C103.26 172.586 103.217 172.837 103.132 173.093C103.051 173.345 102.937 173.597 102.789 173.848C102.646 174.1 102.478 174.348 102.284 174.592C102.094 174.836 101.891 175.076 101.674 175.312L99.4082 177.77H103.649Z" fill="black"/>
<rect width="38.6683" height="38.6683" transform="translate(116.679 154.755)" fill="black" fill-opacity="0.05"/>
<path d="M135.507 177.77V178.653H129.97V177.88L132.741 174.795C133.082 174.416 133.345 174.094 133.531 173.831C133.721 173.564 133.853 173.325 133.926 173.116C134.004 172.903 134.043 172.686 134.043 172.466C134.043 172.187 133.984 171.935 133.868 171.71C133.756 171.482 133.589 171.3 133.369 171.164C133.148 171.029 132.881 170.961 132.567 170.961C132.191 170.961 131.878 171.035 131.626 171.182C131.378 171.325 131.192 171.526 131.068 171.786C130.944 172.045 130.882 172.344 130.882 172.681H129.807C129.807 172.204 129.912 171.769 130.121 171.373C130.33 170.978 130.64 170.665 131.051 170.432C131.461 170.196 131.967 170.078 132.567 170.078C133.101 170.078 133.558 170.173 133.938 170.363C134.318 170.549 134.608 170.812 134.809 171.153C135.015 171.49 135.117 171.885 135.117 172.338C135.117 172.586 135.075 172.837 134.989 173.093C134.908 173.345 134.794 173.597 134.647 173.848C134.503 174.1 134.335 174.348 134.141 174.592C133.952 174.836 133.748 175.076 133.531 175.312L131.266 177.77H135.507ZM138.344 173.895H139.111C139.487 173.895 139.797 173.833 140.041 173.709C140.289 173.581 140.473 173.409 140.593 173.192C140.717 172.971 140.779 172.723 140.779 172.448C140.779 172.123 140.724 171.85 140.616 171.629C140.507 171.408 140.345 171.242 140.128 171.129C139.911 171.017 139.636 170.961 139.303 170.961C139.001 170.961 138.734 171.021 138.501 171.141C138.273 171.257 138.093 171.424 137.961 171.641C137.833 171.858 137.769 172.113 137.769 172.408H136.694C136.694 171.978 136.803 171.586 137.02 171.234C137.237 170.882 137.541 170.601 137.932 170.392C138.327 170.183 138.784 170.078 139.303 170.078C139.814 170.078 140.262 170.169 140.645 170.351C141.028 170.529 141.327 170.796 141.54 171.153C141.753 171.505 141.859 171.945 141.859 172.471C141.859 172.684 141.809 172.913 141.708 173.157C141.611 173.397 141.458 173.622 141.249 173.831C141.044 174.04 140.777 174.212 140.447 174.348C140.118 174.48 139.723 174.545 139.262 174.545H138.344V173.895ZM138.344 174.778V174.133H139.262C139.801 174.133 140.246 174.197 140.598 174.325C140.951 174.453 141.228 174.623 141.429 174.836C141.635 175.049 141.778 175.283 141.859 175.539C141.944 175.791 141.987 176.042 141.987 176.294C141.987 176.689 141.919 177.04 141.784 177.346C141.652 177.652 141.464 177.911 141.22 178.124C140.98 178.337 140.697 178.498 140.372 178.606C140.047 178.715 139.692 178.769 139.309 178.769C138.941 178.769 138.594 178.717 138.269 178.612C137.947 178.508 137.663 178.357 137.415 178.159C137.167 177.958 136.973 177.712 136.834 177.421C136.694 177.127 136.625 176.792 136.625 176.416H137.7C137.7 176.711 137.763 176.968 137.891 177.189C138.023 177.41 138.209 177.582 138.449 177.706C138.693 177.826 138.98 177.886 139.309 177.886C139.638 177.886 139.921 177.83 140.157 177.717C140.397 177.601 140.581 177.427 140.709 177.195C140.841 176.962 140.906 176.67 140.906 176.317C140.906 175.965 140.833 175.676 140.686 175.452C140.538 175.223 140.329 175.055 140.058 174.946C139.791 174.834 139.475 174.778 139.111 174.778H138.344Z" fill="black"/>
<rect width="38.6683" height="38.6683" transform="translate(155.347 154.755)" fill="black" fill-opacity="0.05"/>
<path d="M174.174 177.77V178.653H168.637V177.88L171.408 174.795C171.749 174.416 172.012 174.094 172.198 173.831C172.388 173.564 172.52 173.325 172.593 173.116C172.671 172.903 172.71 172.686 172.71 172.466C172.71 172.187 172.651 171.935 172.535 171.71C172.423 171.482 172.256 171.3 172.036 171.164C171.815 171.029 171.548 170.961 171.234 170.961C170.858 170.961 170.545 171.035 170.293 171.182C170.045 171.325 169.859 171.526 169.735 171.786C169.611 172.045 169.549 172.344 169.549 172.681H168.474C168.474 172.204 168.579 171.769 168.788 171.373C168.997 170.978 169.307 170.665 169.718 170.432C170.128 170.196 170.634 170.078 171.234 170.078C171.768 170.078 172.225 170.173 172.605 170.363C172.985 170.549 173.275 170.812 173.476 171.153C173.682 171.49 173.784 171.885 173.784 172.338C173.784 172.586 173.742 172.837 173.656 173.093C173.575 173.345 173.461 173.597 173.314 173.848C173.17 174.1 173.002 174.348 172.808 174.592C172.619 174.836 172.415 175.076 172.198 175.312L169.933 177.77H174.174ZM181.159 175.806V176.689H175.048V176.056L178.836 170.194H179.713L178.772 171.891L176.268 175.806H181.159ZM179.98 170.194V178.653H178.905V170.194H179.98Z" fill="black"/>
<rect width="38.6683" height="38.6683" transform="translate(194.016 154.755)" fill="black" fill-opacity="0.05"/>
<path d="M212.842 177.77V178.653H207.306V177.88L210.077 174.795C210.418 174.416 210.681 174.094 210.867 173.831C211.057 173.564 211.189 173.325 211.262 173.116C211.34 172.903 211.378 172.686 211.378 172.466C211.378 172.187 211.32 171.935 211.204 171.71C211.092 171.482 210.925 171.3 210.705 171.164C210.484 171.029 210.217 170.961 209.903 170.961C209.527 170.961 209.213 171.035 208.962 171.182C208.714 171.325 208.528 171.526 208.404 171.786C208.28 172.045 208.218 172.344 208.218 172.681H207.143C207.143 172.204 207.248 171.769 207.457 171.373C207.666 170.978 207.976 170.665 208.387 170.432C208.797 170.196 209.303 170.078 209.903 170.078C210.437 170.078 210.894 170.173 211.274 170.363C211.653 170.549 211.944 170.812 212.145 171.153C212.351 171.49 212.453 171.885 212.453 172.338C212.453 172.586 212.411 172.837 212.325 173.093C212.244 173.345 212.13 173.597 211.983 173.848C211.839 174.1 211.671 174.348 211.477 174.592C211.287 174.836 211.084 175.076 210.867 175.312L208.602 177.77H212.842ZM215.471 174.627L214.611 174.406L215.035 170.194H219.375V171.188H215.948L215.692 173.488C215.847 173.399 216.042 173.316 216.279 173.238C216.519 173.161 216.794 173.122 217.104 173.122C217.495 173.122 217.845 173.19 218.155 173.325C218.465 173.457 218.728 173.647 218.945 173.895C219.166 174.143 219.335 174.441 219.451 174.789C219.567 175.138 219.625 175.527 219.625 175.957C219.625 176.364 219.569 176.738 219.457 177.078C219.348 177.419 219.183 177.717 218.963 177.973C218.742 178.225 218.463 178.42 218.126 178.56C217.793 178.699 217.4 178.769 216.947 178.769C216.606 178.769 216.283 178.723 215.977 178.63C215.675 178.533 215.403 178.388 215.163 178.194C214.927 177.996 214.733 177.752 214.582 177.462C214.435 177.168 214.342 176.823 214.303 176.428H215.326C215.372 176.745 215.465 177.013 215.605 177.229C215.744 177.446 215.926 177.611 216.151 177.723C216.379 177.832 216.645 177.886 216.947 177.886C217.202 177.886 217.429 177.841 217.627 177.752C217.824 177.663 217.991 177.535 218.126 177.369C218.262 177.202 218.364 177.001 218.434 176.765C218.508 176.528 218.544 176.263 218.544 175.969C218.544 175.702 218.508 175.454 218.434 175.225C218.36 174.997 218.25 174.797 218.103 174.627C217.96 174.456 217.783 174.325 217.574 174.232C217.365 174.135 217.125 174.087 216.854 174.087C216.494 174.087 216.221 174.135 216.035 174.232C215.853 174.329 215.665 174.46 215.471 174.627Z" fill="black"/>
<rect width="38.6683" height="38.6683" transform="translate(232.684 154.755)" fill="black" fill-opacity="0.38"/>
<path d="M251.511 177.77V178.653H245.975V177.88L248.746 174.795C249.087 174.416 249.35 174.094 249.536 173.831C249.726 173.564 249.858 173.325 249.931 173.116C250.009 172.903 250.047 172.686 250.047 172.466C250.047 172.187 249.989 171.935 249.873 171.71C249.761 171.482 249.594 171.3 249.374 171.164C249.153 171.029 248.886 170.961 248.572 170.961C248.196 170.961 247.882 171.035 247.631 171.182C247.383 171.325 247.197 171.526 247.073 171.786C246.949 172.045 246.887 172.344 246.887 172.681H245.812C245.812 172.204 245.917 171.769 246.126 171.373C246.335 170.978 246.645 170.665 247.056 170.432C247.466 170.196 247.971 170.078 248.572 170.078C249.106 170.078 249.563 170.173 249.943 170.363C250.322 170.549 250.613 170.812 250.814 171.153C251.02 171.49 251.122 171.885 251.122 172.338C251.122 172.586 251.08 172.837 250.994 173.093C250.913 173.345 250.799 173.597 250.652 173.848C250.508 174.1 250.34 174.348 250.146 174.592C249.956 174.836 249.753 175.076 249.536 175.312L247.27 177.77H251.511ZM256.905 170.183H256.998V171.095H256.905C256.336 171.095 255.86 171.188 255.476 171.373C255.093 171.556 254.789 171.801 254.564 172.111C254.34 172.417 254.177 172.762 254.076 173.145C253.979 173.529 253.931 173.918 253.931 174.313V175.556C253.931 175.932 253.976 176.265 254.065 176.556C254.154 176.842 254.276 177.084 254.431 177.282C254.586 177.479 254.76 177.628 254.953 177.729C255.151 177.83 255.356 177.88 255.569 177.88C255.817 177.88 256.038 177.834 256.232 177.741C256.425 177.644 256.588 177.51 256.72 177.34C256.855 177.166 256.958 176.96 257.027 176.724C257.097 176.488 257.132 176.228 257.132 175.946C257.132 175.694 257.101 175.452 257.039 175.219C256.977 174.983 256.882 174.774 256.754 174.592C256.627 174.406 256.466 174.261 256.272 174.156C256.082 174.048 255.856 173.994 255.593 173.994C255.294 173.994 255.015 174.067 254.756 174.214C254.5 174.358 254.289 174.547 254.123 174.784C253.96 175.016 253.867 175.27 253.844 175.545L253.275 175.539C253.329 175.105 253.429 174.735 253.577 174.429C253.728 174.119 253.914 173.868 254.134 173.674C254.359 173.477 254.609 173.333 254.884 173.244C255.163 173.151 255.457 173.105 255.767 173.105C256.189 173.105 256.553 173.184 256.859 173.343C257.165 173.502 257.417 173.715 257.614 173.982C257.812 174.245 257.957 174.544 258.05 174.877C258.147 175.206 258.195 175.545 258.195 175.893C258.195 176.292 258.139 176.666 258.027 177.015C257.914 177.363 257.746 177.669 257.521 177.932C257.301 178.196 257.027 178.401 256.702 178.548C256.377 178.695 255.999 178.769 255.569 178.769C255.112 178.769 254.713 178.676 254.373 178.49C254.032 178.3 253.749 178.049 253.524 177.735C253.3 177.421 253.131 177.073 253.019 176.689C252.907 176.306 252.85 175.917 252.85 175.521V175.016C252.85 174.42 252.91 173.835 253.03 173.262C253.151 172.688 253.358 172.169 253.652 171.705C253.95 171.24 254.363 170.87 254.89 170.595C255.416 170.32 256.088 170.183 256.905 170.183Z" fill="black"/>
<rect width="38.6683" height="38.6683" transform="translate(0.673828 193.423)" fill="black" fill-opacity="0.38"/>
<path d="M19.5007 216.438V217.321H13.9642V216.548L16.7353 213.464C17.0762 213.084 17.3395 212.762 17.5254 212.499C17.7152 212.232 17.8469 211.994 17.9205 211.785C17.9979 211.572 18.0367 211.355 18.0367 211.134C18.0367 210.855 17.9786 210.603 17.8624 210.379C17.7501 210.15 17.5835 209.968 17.3628 209.833C17.142 209.697 16.8748 209.629 16.561 209.629C16.1854 209.629 15.8717 209.703 15.6199 209.85C15.372 209.993 15.1861 210.195 15.0622 210.454C14.9383 210.714 14.8763 211.012 14.8763 211.349H13.8015C13.8015 210.872 13.9061 210.437 14.1152 210.042C14.3244 209.647 14.6342 209.333 15.0448 209.101C15.4553 208.864 15.9607 208.746 16.561 208.746C17.0955 208.746 17.5525 208.841 17.9321 209.031C18.3117 209.217 18.6021 209.48 18.8035 209.821C19.0088 210.158 19.1114 210.553 19.1114 211.006C19.1114 211.254 19.0688 211.506 18.9836 211.761C18.9023 212.013 18.788 212.265 18.6409 212.517C18.4976 212.768 18.3291 213.016 18.1354 213.26C17.9457 213.504 17.7423 213.744 17.5254 213.981L15.2597 216.438H19.5007ZM26.2367 208.862V209.467L22.7336 217.321H21.6007L25.0981 209.745H20.5201V208.862H26.2367Z" fill="black"/>
<rect width="38.6683" height="38.6683" transform="translate(39.3418 193.423)" fill="#C30101"/>
<path d="M58.1686 216.438V217.321H52.6322V216.548L55.4033 213.464C55.7441 213.084 56.0075 212.762 56.1934 212.499C56.3832 212.232 56.5149 211.994 56.5885 211.785C56.6659 211.572 56.7046 211.355 56.7046 211.134C56.7046 210.855 56.6465 210.603 56.5304 210.379C56.418 210.15 56.2515 209.968 56.0307 209.833C55.81 209.697 55.5427 209.629 55.229 209.629C54.8533 209.629 54.5396 209.703 54.2879 209.85C54.04 209.993 53.8541 210.195 53.7302 210.454C53.6062 210.714 53.5443 211.012 53.5443 211.349H52.4695C52.4695 210.872 52.5741 210.437 52.7832 210.042C52.9923 209.647 53.3022 209.333 53.7127 209.101C54.1233 208.864 54.6287 208.746 55.229 208.746C55.7635 208.746 56.2205 208.841 56.6001 209.031C56.9796 209.217 57.2701 209.48 57.4715 209.821C57.6768 210.158 57.7794 210.553 57.7794 211.006C57.7794 211.254 57.7368 211.506 57.6516 211.761C57.5703 212.013 57.456 212.265 57.3088 212.517C57.1655 212.768 56.9971 213.016 56.8034 213.26C56.6136 213.504 56.4103 213.744 56.1934 213.981L53.9277 216.438H58.1686ZM64.7711 215.032C64.7711 215.547 64.651 215.985 64.4109 216.345C64.1746 216.701 63.8532 216.972 63.4465 217.158C63.0437 217.344 62.5886 217.437 62.0813 217.437C61.5739 217.437 61.1169 217.344 60.7102 217.158C60.3035 216.972 59.9821 216.701 59.7458 216.345C59.5096 215.985 59.3914 215.547 59.3914 215.032C59.3914 214.695 59.4553 214.387 59.5832 214.108C59.7148 213.826 59.8988 213.58 60.1351 213.371C60.3752 213.161 60.6579 213.001 60.9833 212.888C61.3125 212.772 61.6746 212.714 62.0696 212.714C62.5886 212.714 63.0515 212.815 63.4581 213.016C63.8648 213.214 64.1843 213.487 64.4167 213.835C64.6529 214.184 64.7711 214.583 64.7711 215.032ZM63.6905 215.009C63.6905 214.695 63.6227 214.418 63.4872 214.178C63.3516 213.934 63.1618 213.744 62.9178 213.609C62.6738 213.473 62.3911 213.405 62.0696 213.405C61.7404 213.405 61.4558 213.473 61.2156 213.609C60.9794 213.744 60.7954 213.934 60.6637 214.178C60.532 214.418 60.4662 214.695 60.4662 215.009C60.4662 215.334 60.5301 215.613 60.6579 215.845C60.7896 216.074 60.9755 216.25 61.2156 216.374C61.4596 216.494 61.7482 216.554 62.0813 216.554C62.4143 216.554 62.7009 216.494 62.9411 216.374C63.1812 216.25 63.3652 216.074 63.493 215.845C63.6247 215.613 63.6905 215.334 63.6905 215.009ZM64.5736 211.064C64.5736 211.475 64.4651 211.845 64.2482 212.174C64.0313 212.503 63.735 212.762 63.3594 212.952C62.9837 213.142 62.5576 213.237 62.0813 213.237C61.5971 213.237 61.1653 213.142 60.7857 212.952C60.41 212.762 60.1157 212.503 59.9027 212.174C59.6897 211.845 59.5832 211.475 59.5832 211.064C59.5832 210.572 59.6897 210.154 59.9027 209.809C60.1196 209.465 60.4159 209.201 60.7915 209.019C61.1672 208.837 61.5952 208.746 62.0754 208.746C62.5596 208.746 62.9895 208.837 63.3652 209.019C63.7408 209.201 64.0352 209.465 64.2482 209.809C64.4651 210.154 64.5736 210.572 64.5736 211.064ZM63.4988 211.082C63.4988 210.799 63.4388 210.549 63.3187 210.332C63.1986 210.115 63.0321 209.945 62.8191 209.821C62.6061 209.693 62.3582 209.629 62.0754 209.629C61.7927 209.629 61.5448 209.689 61.3318 209.809C61.1227 209.925 60.9581 210.092 60.838 210.309C60.7218 210.526 60.6637 210.783 60.6637 211.082C60.6637 211.372 60.7218 211.626 60.838 211.843C60.9581 212.06 61.1246 212.228 61.3376 212.348C61.5507 212.468 61.7985 212.528 62.0813 212.528C62.364 212.528 62.6099 212.468 62.8191 212.348C63.0321 212.228 63.1986 212.06 63.3187 211.843C63.4388 211.626 63.4988 211.372 63.4988 211.082Z" fill="white"/>
</g>
<defs>
<clipPath id="clip0_932_3350">
<rect x="0.673828" y="0.081543" width="270.678" height="270.678" rx="11.8979" fill="white"/>
</clipPath>
</defs>
</svg>
