<svg width="272" height="271" viewBox="0 0 272 271" fill="none" xmlns="http://www.w3.org/2000/svg">
<g clip-path="url(#clip0_932_3134)">
<rect width="270.678" height="38.6683" transform="translate(0.994141 0.081543)" fill="black"/>
<path d="M19.7883 23.9795H17.9641L17.9757 22.7246H19.7883C20.2801 22.7246 20.6926 22.6162 21.0257 22.3993C21.3588 22.1785 21.6105 21.8629 21.7809 21.4523C21.9513 21.0379 22.0366 20.5422 22.0366 19.9651V19.5294C22.0366 19.084 21.9881 18.6909 21.8913 18.35C21.7945 18.0092 21.6512 17.7226 21.4614 17.4902C21.2755 17.2579 21.0451 17.0816 20.7701 16.9616C20.4951 16.8415 20.1794 16.7815 19.8231 16.7815H17.9292V15.5208H19.8231C20.3886 15.5208 20.9037 15.6157 21.3685 15.8055C21.8371 15.9952 22.2418 16.2683 22.5827 16.6246C22.9273 16.9771 23.1907 17.3992 23.3727 17.8911C23.5587 18.383 23.6516 18.9329 23.6516 19.541V19.9651C23.6516 20.5693 23.5587 21.1193 23.3727 21.615C23.1907 22.1069 22.9273 22.529 22.5827 22.8815C22.2418 23.2339 21.8352 23.505 21.3626 23.6948C20.8901 23.8846 20.3653 23.9795 19.7883 23.9795ZM18.8587 15.5208V23.9795H17.2611V15.5208H18.8587Z" fill="white"/>
<path d="M60.6 21.7835C60.6 21.6208 60.5748 21.4756 60.5244 21.3478C60.478 21.2161 60.3908 21.098 60.263 20.9934C60.1391 20.8849 59.9628 20.7804 59.7343 20.6797C59.5097 20.5751 59.2192 20.4667 58.8629 20.3543C58.4678 20.2304 58.0999 20.091 57.7591 19.9361C57.4183 19.7811 57.1181 19.601 56.8586 19.3958C56.603 19.1905 56.4035 18.9542 56.2602 18.687C56.1169 18.4159 56.0453 18.1022 56.0453 17.7459C56.0453 17.3973 56.1189 17.0797 56.266 16.7931C56.4171 16.5065 56.6301 16.2605 56.9051 16.0553C57.1801 15.8461 57.5035 15.6854 57.8753 15.5731C58.251 15.4608 58.6654 15.4046 59.1185 15.4046C59.7459 15.4046 60.2882 15.5189 60.7452 15.7474C61.2061 15.9759 61.5624 16.2857 61.8141 16.6769C62.0659 17.0681 62.1918 17.5077 62.1918 17.9957H60.6C60.6 17.7323 60.5438 17.4999 60.4315 17.2985C60.323 17.0971 60.1565 16.9383 59.9319 16.8221C59.7111 16.7059 59.4322 16.6479 59.0953 16.6479C58.7699 16.6479 58.4988 16.6963 58.2819 16.7931C58.0689 16.8899 57.9082 17.0216 57.7998 17.1881C57.6952 17.3547 57.6429 17.5406 57.6429 17.7459C57.6429 17.9008 57.6797 18.0402 57.7533 18.1641C57.8269 18.2842 57.9372 18.3985 58.0844 18.5069C58.2316 18.6115 58.4136 18.7102 58.6305 18.8032C58.8513 18.8923 59.1069 18.9813 59.3974 19.0704C59.8621 19.2099 60.2688 19.3648 60.6174 19.5352C60.9698 19.7056 61.2622 19.8993 61.4946 20.1161C61.7309 20.333 61.9071 20.577 62.0233 20.8481C62.1434 21.1193 62.2034 21.4272 62.2034 21.7719C62.2034 22.1359 62.1317 22.4613 61.9884 22.7479C61.8451 23.0345 61.6399 23.2785 61.3726 23.4799C61.1054 23.6813 60.7839 23.8343 60.4082 23.9388C60.0364 24.0434 59.6201 24.0957 59.1592 24.0957C58.7486 24.0957 58.342 24.0415 57.9392 23.933C57.5403 23.8207 57.1781 23.6542 56.8528 23.4334C56.5275 23.2088 56.268 22.926 56.0743 22.5852C55.8807 22.2405 55.7838 21.8377 55.7838 21.3768H57.3873C57.3873 21.6441 57.4299 21.8726 57.5151 22.0623C57.6042 22.2482 57.7281 22.4012 57.8869 22.5213C58.0496 22.6375 58.2393 22.7227 58.4562 22.7769C58.6731 22.8311 58.9074 22.8583 59.1592 22.8583C59.4845 22.8583 59.7518 22.8137 59.9609 22.7246C60.1739 22.6317 60.3327 22.5039 60.4373 22.3412C60.5457 22.1785 60.6 21.9926 60.6 21.7835Z" fill="white"/>
<path d="M98.4439 15.5208V23.9795H96.8521V15.5208H98.4439ZM101.07 15.5208V16.7815H94.2553V15.5208H101.07Z" fill="white"/>
<path d="M137.577 22.7885L139.831 24.5779L138.808 25.4667L136.589 23.689L137.577 22.7885ZM139.871 19.5352V19.9709C139.871 20.61 139.786 21.1851 139.616 21.6963C139.445 22.2037 139.201 22.6356 138.884 22.9919C138.57 23.3482 138.196 23.6212 137.763 23.811C137.329 24.0008 136.849 24.0957 136.322 24.0957C135.799 24.0957 135.319 24.0008 134.881 23.811C134.447 23.6212 134.072 23.3482 133.754 22.9919C133.436 22.6356 133.19 22.2037 133.016 21.6963C132.842 21.1851 132.755 20.61 132.755 19.9709V19.5352C132.755 18.8923 132.84 18.3171 133.01 17.8098C133.185 17.3024 133.429 16.8705 133.742 16.5142C134.06 16.154 134.436 15.8791 134.869 15.6893C135.307 15.4995 135.787 15.4046 136.31 15.4046C136.837 15.4046 137.317 15.4995 137.751 15.6893C138.189 15.8791 138.564 16.154 138.878 16.5142C139.196 16.8705 139.44 17.3024 139.61 17.8098C139.784 18.3171 139.871 18.8923 139.871 19.5352ZM138.256 19.9709V19.5236C138.256 19.0627 138.214 18.658 138.129 18.3094C138.043 17.9569 137.916 17.6606 137.745 17.4205C137.579 17.1804 137.375 17.0003 137.135 16.8802C136.895 16.7563 136.62 16.6943 136.31 16.6943C136.004 16.6943 135.731 16.7563 135.491 16.8802C135.251 17.0003 135.048 17.1804 134.881 17.4205C134.715 17.6606 134.587 17.9569 134.498 18.3094C134.412 18.658 134.37 19.0627 134.37 19.5236V19.9709C134.37 20.4279 134.412 20.8327 134.498 21.1851C134.587 21.5375 134.715 21.8358 134.881 22.0798C135.051 22.3199 135.257 22.5019 135.497 22.6259C135.741 22.7498 136.016 22.8118 136.322 22.8118C136.632 22.8118 136.907 22.7498 137.147 22.6259C137.387 22.5019 137.588 22.3199 137.751 22.0798C137.917 21.8358 138.043 21.5375 138.129 21.1851C138.214 20.8327 138.256 20.4279 138.256 19.9709Z" fill="white"/>
<path d="M176.245 22.7885L178.499 24.5779L177.476 25.4667L175.257 23.689L176.245 22.7885ZM178.539 19.5352V19.9709C178.539 20.61 178.454 21.1851 178.284 21.6963C178.113 22.2037 177.869 22.6356 177.552 22.9919C177.238 23.3482 176.864 23.6212 176.431 23.811C175.997 24.0008 175.517 24.0957 174.99 24.0957C174.467 24.0957 173.987 24.0008 173.549 23.811C173.115 23.6212 172.74 23.3482 172.422 22.9919C172.104 22.6356 171.858 22.2037 171.684 21.6963C171.51 21.1851 171.423 20.61 171.423 19.9709V19.5352C171.423 18.8923 171.508 18.3171 171.678 17.8098C171.853 17.3024 172.097 16.8705 172.41 16.5142C172.728 16.154 173.104 15.8791 173.537 15.6893C173.975 15.4995 174.455 15.4046 174.978 15.4046C175.505 15.4046 175.985 15.4995 176.419 15.6893C176.857 15.8791 177.232 16.154 177.546 16.5142C177.864 16.8705 178.108 17.3024 178.278 17.8098C178.452 18.3171 178.539 18.8923 178.539 19.5352ZM176.924 19.9709V19.5236C176.924 19.0627 176.882 18.658 176.797 18.3094C176.711 17.9569 176.584 17.6606 176.413 17.4205C176.247 17.1804 176.043 17.0003 175.803 16.8802C175.563 16.7563 175.288 16.6943 174.978 16.6943C174.672 16.6943 174.399 16.7563 174.159 16.8802C173.919 17.0003 173.716 17.1804 173.549 17.4205C173.382 17.6606 173.255 17.9569 173.166 18.3094C173.08 18.658 173.038 19.0627 173.038 19.5236V19.9709C173.038 20.4279 173.08 20.8327 173.166 21.1851C173.255 21.5375 173.382 21.8358 173.549 22.0798C173.719 22.3199 173.925 22.5019 174.165 22.6259C174.409 22.7498 174.684 22.8118 174.99 22.8118C175.3 22.8118 175.575 22.7498 175.815 22.6259C176.055 22.5019 176.256 22.3199 176.419 22.0798C176.585 21.8358 176.711 21.5375 176.797 21.1851C176.882 20.8327 176.924 20.4279 176.924 19.9709Z" fill="white"/>
<path d="M215.274 21.7835C215.274 21.6208 215.249 21.4756 215.198 21.3478C215.152 21.2161 215.065 21.098 214.937 20.9934C214.813 20.8849 214.637 20.7804 214.408 20.6797C214.184 20.5751 213.893 20.4667 213.537 20.3543C213.142 20.2304 212.774 20.091 212.433 19.9361C212.092 19.7811 211.792 19.601 211.532 19.3958C211.277 19.1905 211.077 18.9542 210.934 18.687C210.791 18.4159 210.719 18.1022 210.719 17.7459C210.719 17.3973 210.793 17.0797 210.94 16.7931C211.091 16.5065 211.304 16.2605 211.579 16.0553C211.854 15.8461 212.177 15.6854 212.549 15.5731C212.925 15.4608 213.339 15.4046 213.792 15.4046C214.42 15.4046 214.962 15.5189 215.419 15.7474C215.88 15.9759 216.236 16.2857 216.488 16.6769C216.74 17.0681 216.866 17.5077 216.866 17.9957H215.274C215.274 17.7323 215.218 17.4999 215.105 17.2985C214.997 17.0971 214.83 16.9383 214.606 16.8221C214.385 16.7059 214.106 16.6479 213.769 16.6479C213.444 16.6479 213.173 16.6963 212.956 16.7931C212.743 16.8899 212.582 17.0216 212.474 17.1881C212.369 17.3547 212.317 17.5406 212.317 17.7459C212.317 17.9008 212.354 18.0402 212.427 18.1641C212.501 18.2842 212.611 18.3985 212.758 18.5069C212.905 18.6115 213.087 18.7102 213.304 18.8032C213.525 18.8923 213.781 18.9813 214.071 19.0704C214.536 19.2099 214.943 19.3648 215.291 19.5352C215.644 19.7056 215.936 19.8993 216.168 20.1161C216.405 20.333 216.581 20.577 216.697 20.8481C216.817 21.1193 216.877 21.4272 216.877 21.7719C216.877 22.1359 216.806 22.4613 216.662 22.7479C216.519 23.0345 216.314 23.2785 216.046 23.4799C215.779 23.6813 215.458 23.8343 215.082 23.9388C214.71 24.0434 214.294 24.0957 213.833 24.0957C213.422 24.0957 213.016 24.0415 212.613 23.933C212.214 23.8207 211.852 23.6542 211.527 23.4334C211.201 23.2088 210.942 22.926 210.748 22.5852C210.554 22.2405 210.458 21.8377 210.458 21.3768H212.061C212.061 21.6441 212.104 21.8726 212.189 22.0623C212.278 22.2482 212.402 22.4012 212.561 22.5213C212.723 22.6375 212.913 22.7227 213.13 22.7769C213.347 22.8311 213.581 22.8583 213.833 22.8583C214.158 22.8583 214.426 22.8137 214.635 22.7246C214.848 22.6317 215.007 22.5039 215.111 22.3412C215.22 22.1785 215.274 21.9926 215.274 21.7835Z" fill="white"/>
<path d="M253.942 21.7835C253.942 21.6208 253.917 21.4756 253.866 21.3478C253.82 21.2161 253.733 21.098 253.605 20.9934C253.481 20.8849 253.305 20.7804 253.076 20.6797C252.851 20.5751 252.561 20.4667 252.205 20.3543C251.81 20.2304 251.442 20.091 251.101 19.9361C250.76 19.7811 250.46 19.601 250.2 19.3958C249.945 19.1905 249.745 18.9542 249.602 18.687C249.459 18.4159 249.387 18.1022 249.387 17.7459C249.387 17.3973 249.461 17.0797 249.608 16.7931C249.759 16.5065 249.972 16.2605 250.247 16.0553C250.522 15.8461 250.845 15.6854 251.217 15.5731C251.593 15.4608 252.007 15.4046 252.46 15.4046C253.088 15.4046 253.63 15.5189 254.087 15.7474C254.548 15.9759 254.904 16.2857 255.156 16.6769C255.408 17.0681 255.534 17.5077 255.534 17.9957H253.942C253.942 17.7323 253.886 17.4999 253.773 17.2985C253.665 17.0971 253.498 16.9383 253.274 16.8221C253.053 16.7059 252.774 16.6479 252.437 16.6479C252.112 16.6479 251.841 16.6963 251.624 16.7931C251.411 16.8899 251.25 17.0216 251.142 17.1881C251.037 17.3547 250.985 17.5406 250.985 17.7459C250.985 17.9008 251.021 18.0402 251.095 18.1641C251.169 18.2842 251.279 18.3985 251.426 18.5069C251.573 18.6115 251.755 18.7102 251.972 18.8032C252.193 18.8923 252.449 18.9813 252.739 19.0704C253.204 19.2099 253.611 19.3648 253.959 19.5352C254.312 19.7056 254.604 19.8993 254.836 20.1161C255.073 20.333 255.249 20.577 255.365 20.8481C255.485 21.1193 255.545 21.4272 255.545 21.7719C255.545 22.1359 255.474 22.4613 255.33 22.7479C255.187 23.0345 254.982 23.2785 254.714 23.4799C254.447 23.6813 254.126 23.8343 253.75 23.9388C253.378 24.0434 252.962 24.0957 252.501 24.0957C252.09 24.0957 251.684 24.0415 251.281 23.933C250.882 23.8207 250.52 23.6542 250.195 23.4334C249.869 23.2088 249.61 22.926 249.416 22.5852C249.222 22.2405 249.126 21.8377 249.126 21.3768H250.729C250.729 21.6441 250.772 21.8726 250.857 22.0623C250.946 22.2482 251.07 22.4012 251.229 22.5213C251.391 22.6375 251.581 22.7227 251.798 22.7769C252.015 22.8311 252.249 22.8583 252.501 22.8583C252.826 22.8583 253.094 22.8137 253.303 22.7246C253.516 22.6317 253.675 22.5039 253.779 22.3412C253.888 22.1785 253.942 21.9926 253.942 21.7835Z" fill="white"/>
<rect width="38.6683" height="38.6683" transform="translate(233.004 38.75)" fill="#C30101"/>
<path d="M253.227 54.1428V62.6479H252.153V55.4848L249.986 56.2749V55.3047L253.059 54.1428H253.227Z" fill="white"/>
<rect width="38.6683" height="38.6683" transform="translate(0.994141 77.4182)" fill="black" fill-opacity="0.38"/>
<path d="M23.2268 100.433V101.316H17.6903V100.543L20.4614 97.4586C20.8023 97.0791 21.0656 96.7576 21.2515 96.4942C21.4413 96.227 21.573 95.9888 21.6466 95.7797C21.724 95.5667 21.7628 95.3498 21.7628 95.129C21.7628 94.8501 21.7047 94.5984 21.5885 94.3738C21.4762 94.1453 21.3096 93.9632 21.0889 93.8277C20.8681 93.6921 20.6009 93.6243 20.2871 93.6243C19.9115 93.6243 19.5977 93.6979 19.346 93.8451C19.0981 93.9884 18.9122 94.1898 18.7883 94.4493C18.6643 94.7088 18.6024 95.007 18.6024 95.344H17.5276C17.5276 94.8676 17.6322 94.4319 17.8413 94.0368C18.0505 93.6418 18.3603 93.328 18.7709 93.0957C19.1814 92.8594 19.6868 92.7413 20.2871 92.7413C20.8216 92.7413 21.2786 92.8362 21.6582 93.0259C22.0378 93.2119 22.3282 93.4752 22.5296 93.816C22.7349 94.153 22.8375 94.548 22.8375 95.0012C22.8375 95.2491 22.7949 95.5008 22.7097 95.7564C22.6284 96.0082 22.5141 96.2599 22.367 96.5117C22.2237 96.7634 22.0552 97.0113 21.8615 97.2553C21.6718 97.4993 21.4684 97.7394 21.2515 97.9757L18.9858 100.433H23.2268Z" fill="black" fill-opacity="0.87"/>
<rect width="38.6683" height="38.6683" transform="translate(39.6621 77.4182)" fill="#C30101"/>
<path d="M57.921 96.5581H58.6879C59.0636 96.5581 59.3734 96.4962 59.6174 96.3722C59.8653 96.2444 60.0492 96.0721 60.1693 95.8552C60.2932 95.6344 60.3552 95.3866 60.3552 95.1116C60.3552 94.7862 60.301 94.5132 60.1925 94.2924C60.0841 94.0717 59.9214 93.9051 59.7045 93.7928C59.4877 93.6805 59.2127 93.6243 58.8796 93.6243C58.5775 93.6243 58.3103 93.6844 58.0779 93.8044C57.8494 93.9206 57.6693 94.0872 57.5376 94.304C57.4098 94.5209 57.3459 94.7766 57.3459 95.0709H56.2711C56.2711 94.641 56.3796 94.2498 56.5964 93.8974C56.8133 93.5449 57.1174 93.2641 57.5085 93.055C57.9036 92.8459 58.3606 92.7413 58.8796 92.7413C59.3908 92.7413 59.8382 92.8323 60.2216 93.0143C60.605 93.1925 60.9032 93.4597 61.1163 93.816C61.3293 94.1685 61.4358 94.6081 61.4358 95.1348C61.4358 95.3478 61.3854 95.5763 61.2847 95.8203C61.1879 96.0605 61.0349 96.2851 60.8258 96.4942C60.6205 96.7034 60.3533 96.8757 60.0241 97.0113C59.6949 97.143 59.2998 97.2088 58.8389 97.2088H57.921V96.5581ZM57.921 97.4412V96.7963H58.8389C59.3773 96.7963 59.8227 96.8602 60.1751 96.9881C60.5276 97.1159 60.8045 97.2863 61.0059 97.4993C61.2112 97.7123 61.3545 97.9466 61.4358 98.2022C61.521 98.454 61.5636 98.7057 61.5636 98.9575C61.5636 99.3525 61.4958 99.703 61.3603 100.009C61.2286 100.315 61.0407 100.574 60.7967 100.787C60.5566 101.001 60.2739 101.161 59.9485 101.27C59.6232 101.378 59.2688 101.432 58.8854 101.432C58.5175 101.432 58.1708 101.38 57.8455 101.275C57.524 101.171 57.2394 101.02 56.9915 100.822C56.7436 100.621 56.55 100.375 56.4105 100.085C56.2711 99.7902 56.2014 99.4552 56.2014 99.0795H57.2762C57.2762 99.3738 57.3401 99.6314 57.4679 99.8522C57.5996 100.073 57.7855 100.245 58.0256 100.369C58.2696 100.489 58.5562 100.549 58.8854 100.549C59.2146 100.549 59.4973 100.493 59.7336 100.381C59.9737 100.265 60.1577 100.09 60.2855 99.858C60.4172 99.6256 60.483 99.3332 60.483 98.9807C60.483 98.6283 60.4094 98.3397 60.2623 98.1151C60.1151 97.8866 59.9059 97.7181 59.6348 97.6097C59.3676 97.4974 59.0519 97.4412 58.6879 97.4412H57.921Z" fill="white"/>
<rect width="38.6683" height="38.6683" transform="translate(78.3311 77.4182)" fill="#C30101"/>
<path d="M100.738 98.4695V99.3525H94.6263V98.7193L98.4142 92.8575H99.2914L98.3503 94.5539L95.8463 98.4695H100.738ZM99.5586 92.8575V101.316H98.4839V92.8575H99.5586Z" fill="white"/>
<rect width="38.6683" height="38.6683" transform="translate(116.999 77.4182)" fill="#C30101"/>
<path d="M135.05 97.2901L134.19 97.0694L134.614 92.8575H138.954V93.8509H135.526L135.271 96.1515C135.425 96.0624 135.621 95.9791 135.857 95.9017C136.097 95.8242 136.372 95.7855 136.682 95.7855C137.073 95.7855 137.424 95.8533 137.734 95.9888C138.044 96.1205 138.307 96.3103 138.524 96.5581C138.745 96.806 138.913 97.1042 139.029 97.4528C139.145 97.8014 139.204 98.1906 139.204 98.6205C139.204 99.0272 139.147 99.4009 139.035 99.7418C138.927 100.083 138.762 100.381 138.541 100.636C138.321 100.888 138.042 101.084 137.705 101.223C137.372 101.363 136.979 101.432 136.525 101.432C136.185 101.432 135.861 101.386 135.555 101.293C135.253 101.196 134.982 101.051 134.742 100.857C134.506 100.66 134.312 100.416 134.161 100.125C134.014 99.8309 133.921 99.4862 133.882 99.0911H134.905C134.951 99.4087 135.044 99.6759 135.183 99.8928C135.323 100.11 135.505 100.274 135.729 100.387C135.958 100.495 136.223 100.549 136.525 100.549C136.781 100.549 137.008 100.505 137.205 100.416C137.403 100.327 137.569 100.199 137.705 100.032C137.84 99.8657 137.943 99.6643 138.013 99.4281C138.086 99.1918 138.123 98.9265 138.123 98.6322C138.123 98.3649 138.086 98.117 138.013 97.8885C137.939 97.66 137.829 97.4606 137.681 97.2901C137.538 97.1197 137.362 96.9881 137.153 96.8951C136.944 96.7983 136.704 96.7499 136.432 96.7499C136.072 96.7499 135.799 96.7983 135.613 96.8951C135.431 96.9919 135.243 97.1236 135.05 97.2901Z" fill="white"/>
<rect width="38.6683" height="38.6683" transform="translate(155.667 77.4182)" fill="#C30101"/>
<path d="M176.482 92.8459H176.575V93.7579H176.482C175.913 93.7579 175.436 93.8509 175.053 94.0368C174.67 94.2188 174.365 94.4648 174.141 94.7746C173.916 95.0806 173.754 95.4253 173.653 95.8087C173.556 96.1921 173.508 96.5814 173.508 96.9764V98.2197C173.508 98.5954 173.552 98.9284 173.641 99.2189C173.73 99.5055 173.852 99.7476 174.007 99.9451C174.162 100.143 174.336 100.292 174.53 100.392C174.728 100.493 174.933 100.543 175.146 100.543C175.394 100.543 175.615 100.497 175.808 100.404C176.002 100.307 176.165 100.174 176.296 100.003C176.432 99.8289 176.534 99.6236 176.604 99.3874C176.674 99.1511 176.709 98.8916 176.709 98.6089C176.709 98.3572 176.678 98.1151 176.616 97.8827C176.554 97.6465 176.459 97.4373 176.331 97.2553C176.203 97.0694 176.043 96.9241 175.849 96.8196C175.659 96.7111 175.433 96.6569 175.169 96.6569C174.871 96.6569 174.592 96.7305 174.333 96.8777C174.077 97.021 173.866 97.2108 173.699 97.447C173.537 97.6794 173.444 97.9331 173.42 98.2081L172.851 98.2022C172.905 97.7685 173.006 97.3986 173.153 97.0926C173.304 96.7828 173.49 96.531 173.711 96.3374C173.936 96.1399 174.185 95.9966 174.46 95.9075C174.739 95.8145 175.034 95.768 175.343 95.768C175.766 95.768 176.13 95.8474 176.436 96.0062C176.742 96.165 176.993 96.3781 177.191 96.6453C177.388 96.9087 177.534 97.2069 177.627 97.54C177.723 97.8692 177.772 98.2081 177.772 98.5566C177.772 98.9556 177.716 99.3293 177.603 99.6779C177.491 100.026 177.323 100.332 177.098 100.596C176.877 100.859 176.604 101.064 176.279 101.212C175.953 101.359 175.576 101.432 175.146 101.432C174.689 101.432 174.29 101.339 173.949 101.153C173.608 100.964 173.326 100.712 173.101 100.398C172.876 100.085 172.708 99.736 172.596 99.3525C172.483 98.9691 172.427 98.5799 172.427 98.1848V97.6794C172.427 97.0829 172.487 96.4981 172.607 95.9249C172.727 95.3517 172.934 94.8327 173.229 94.368C173.527 93.9032 173.939 93.5333 174.466 93.2583C174.993 92.9833 175.665 92.8459 176.482 92.8459Z" fill="white"/>
<rect width="38.6683" height="38.6683" transform="translate(194.336 77.4182)" fill="#C30101"/>
<path d="M216.493 92.8575V93.4617L212.99 101.316H211.857L215.354 93.7405H210.776V92.8575H216.493Z" fill="white"/>
<rect width="38.6683" height="38.6683" transform="translate(233.004 77.4182)" fill="black" fill-opacity="0.38"/>
<path d="M255.028 99.0272C255.028 99.5423 254.908 99.98 254.668 100.34C254.432 100.696 254.11 100.968 253.704 101.153C253.301 101.339 252.846 101.432 252.339 101.432C251.831 101.432 251.374 101.339 250.968 101.153C250.561 100.968 250.239 100.696 250.003 100.34C249.767 99.98 249.649 99.5423 249.649 99.0272C249.649 98.6902 249.713 98.3823 249.84 98.1035C249.972 97.8208 250.156 97.5748 250.392 97.3657C250.632 97.1565 250.915 96.9958 251.241 96.8835C251.57 96.7673 251.932 96.7092 252.327 96.7092C252.846 96.7092 253.309 96.8099 253.715 97.0113C254.122 97.2088 254.442 97.4819 254.674 97.8304C254.91 98.179 255.028 98.5779 255.028 99.0272ZM253.948 99.004C253.948 98.6902 253.88 98.4133 253.744 98.1732C253.609 97.9292 253.419 97.7394 253.175 97.6039C252.931 97.4683 252.648 97.4005 252.327 97.4005C251.998 97.4005 251.713 97.4683 251.473 97.6039C251.237 97.7394 251.053 97.9292 250.921 98.1732C250.789 98.4133 250.724 98.6902 250.724 99.004C250.724 99.3293 250.787 99.6082 250.915 99.8405C251.047 100.069 251.233 100.245 251.473 100.369C251.717 100.489 252.005 100.549 252.339 100.549C252.672 100.549 252.958 100.489 253.198 100.369C253.438 100.245 253.622 100.069 253.75 99.8405C253.882 99.6082 253.948 99.3293 253.948 99.004ZM254.831 95.0593C254.831 95.4698 254.722 95.8397 254.506 96.1689C254.289 96.4981 253.992 96.7576 253.617 96.9474C253.241 97.1372 252.815 97.2321 252.339 97.2321C251.854 97.2321 251.423 97.1372 251.043 96.9474C250.667 96.7576 250.373 96.4981 250.16 96.1689C249.947 95.8397 249.84 95.4698 249.84 95.0593C249.84 94.5674 249.947 94.1491 250.16 93.8044C250.377 93.4597 250.673 93.1964 251.049 93.0143C251.425 92.8323 251.852 92.7413 252.333 92.7413C252.817 92.7413 253.247 92.8323 253.622 93.0143C253.998 93.1964 254.292 93.4597 254.506 93.8044C254.722 94.1491 254.831 94.5674 254.831 95.0593ZM253.756 95.0767C253.756 94.794 253.696 94.5442 253.576 94.3273C253.456 94.1104 253.289 93.94 253.076 93.816C252.863 93.6882 252.615 93.6243 252.333 93.6243C252.05 93.6243 251.802 93.6844 251.589 93.8044C251.38 93.9206 251.215 94.0872 251.095 94.304C250.979 94.5209 250.921 94.7785 250.921 95.0767C250.921 95.3672 250.979 95.6209 251.095 95.8378C251.215 96.0547 251.382 96.2231 251.595 96.3432C251.808 96.4633 252.056 96.5233 252.339 96.5233C252.621 96.5233 252.867 96.4633 253.076 96.3432C253.289 96.2231 253.456 96.0547 253.576 95.8378C253.696 95.6209 253.756 95.3672 253.756 95.0767Z" fill="black" fill-opacity="0.87"/>
<rect width="38.6683" height="38.6683" transform="translate(0.994141 116.086)" fill="black" fill-opacity="0.38"/>
<path d="M18.7534 139.084H18.8638C19.4835 139.084 19.987 138.997 20.3743 138.822C20.7616 138.648 21.0598 138.414 21.269 138.12C21.4781 137.825 21.6214 137.494 21.6989 137.126C21.7763 136.754 21.8151 136.373 21.8151 135.982V134.686C21.8151 134.303 21.7705 133.962 21.6814 133.664C21.5962 133.365 21.4762 133.116 21.3212 132.914C21.1702 132.713 20.9978 132.56 20.8042 132.455C20.6105 132.351 20.4053 132.298 20.1884 132.298C19.9405 132.298 19.7178 132.349 19.5203 132.449C19.3266 132.546 19.162 132.684 19.0265 132.862C18.8948 133.04 18.7941 133.249 18.7244 133.489C18.6547 133.729 18.6198 133.991 18.6198 134.274C18.6198 134.525 18.6508 134.769 18.7128 135.006C18.7747 135.242 18.8696 135.455 18.9974 135.645C19.1252 135.834 19.284 135.985 19.4738 136.098C19.6675 136.206 19.894 136.26 20.1535 136.26C20.3937 136.26 20.6183 136.214 20.8274 136.121C21.0405 136.024 21.2283 135.894 21.391 135.732C21.5575 135.565 21.6892 135.377 21.786 135.168C21.8867 134.959 21.9448 134.74 21.9603 134.512H22.4715C22.4715 134.833 22.4076 135.151 22.2798 135.465C22.1559 135.774 21.9816 136.057 21.757 136.313C21.5323 136.568 21.269 136.774 20.9669 136.929C20.6648 137.08 20.3356 137.155 19.9792 137.155C19.561 137.155 19.1988 137.074 18.8929 136.911C18.5869 136.748 18.3351 136.532 18.1376 136.26C17.944 135.989 17.7987 135.687 17.7019 135.354C17.6089 135.017 17.5625 134.676 17.5625 134.332C17.5625 133.929 17.6186 133.551 17.7309 133.199C17.8433 132.846 18.0098 132.537 18.2306 132.269C18.4513 131.998 18.7244 131.787 19.0497 131.636C19.3789 131.485 19.7585 131.409 20.1884 131.409C20.6725 131.409 21.085 131.506 21.4258 131.7C21.7666 131.894 22.0436 132.153 22.2566 132.478C22.4735 132.804 22.6323 133.17 22.733 133.576C22.8337 133.983 22.884 134.401 22.884 134.831V135.221C22.884 135.658 22.855 136.104 22.7969 136.557C22.7426 137.006 22.6361 137.436 22.4773 137.846C22.3224 138.257 22.0959 138.625 21.7976 138.95C21.4994 139.272 21.1102 139.527 20.6299 139.717C20.1535 139.903 19.5648 139.996 18.8638 139.996H18.7534V139.084Z" fill="black" fill-opacity="0.87"/>
<rect width="38.6683" height="38.6683" transform="translate(39.6621 116.086)" fill="#C30101"/>
<path d="M56.4789 131.479V139.984H55.4041V132.821L53.2371 133.611V132.641L56.3104 131.479H56.4789ZM65.0681 135.081V136.371C65.0681 137.064 65.0062 137.649 64.8822 138.125C64.7583 138.602 64.5801 138.985 64.3478 139.276C64.1154 139.566 63.8346 139.777 63.5054 139.909C63.18 140.037 62.8121 140.101 62.4016 140.101C62.0762 140.101 61.7761 140.06 61.5011 139.979C61.2261 139.897 60.9782 139.767 60.7575 139.589C60.5406 139.407 60.3547 139.171 60.1998 138.881C60.0448 138.59 59.9267 138.238 59.8454 137.823C59.764 137.409 59.7234 136.925 59.7234 136.371V135.081C59.7234 134.388 59.7853 133.807 59.9093 133.338C60.0371 132.87 60.2172 132.494 60.4496 132.211C60.6819 131.925 60.9608 131.719 61.2861 131.595C61.6153 131.471 61.9833 131.409 62.39 131.409C62.7192 131.409 63.0213 131.45 63.2962 131.531C63.5751 131.609 63.823 131.735 64.0399 131.909C64.2567 132.08 64.4407 132.308 64.5918 132.595C64.7467 132.877 64.8648 133.224 64.9461 133.635C65.0275 134.045 65.0681 134.527 65.0681 135.081ZM63.9876 136.545V134.901C63.9876 134.521 63.9643 134.188 63.9179 133.902C63.8753 133.611 63.8114 133.363 63.7261 133.158C63.6409 132.953 63.5325 132.786 63.4008 132.659C63.273 132.531 63.1239 132.438 62.9535 132.38C62.7869 132.318 62.5991 132.287 62.39 132.287C62.1343 132.287 61.9078 132.335 61.7102 132.432C61.5127 132.525 61.3462 132.674 61.2106 132.879C61.0789 133.085 60.9782 133.354 60.9085 133.687C60.8388 134.02 60.8039 134.425 60.8039 134.901V136.545C60.8039 136.925 60.8252 137.26 60.8679 137.55C60.9143 137.841 60.9821 138.092 61.0712 138.305C61.1603 138.515 61.2687 138.687 61.3965 138.822C61.5243 138.958 61.6715 139.059 61.838 139.125C62.0085 139.187 62.1963 139.218 62.4016 139.218C62.6649 139.218 62.8954 139.167 63.0929 139.066C63.2904 138.966 63.455 138.809 63.5867 138.596C63.7223 138.379 63.823 138.102 63.8888 137.765C63.9547 137.424 63.9876 137.018 63.9876 136.545Z" fill="white"/>
<rect width="38.6683" height="38.6683" transform="translate(78.3311 116.086)" fill="#C30101"/>
<path d="M95.1478 131.479V139.984H94.073V132.821L91.9061 133.611V132.641L94.9793 131.479H95.1478ZM101.959 131.479V139.984H100.885V132.821L98.7177 133.611V132.641L101.791 131.479H101.959Z" fill="white"/>
<rect width="38.6683" height="38.6683" transform="translate(116.999 116.086)" fill="#C30101"/>
<path d="M133.817 131.479V139.984H132.742V132.821L130.575 133.611V132.641L133.648 131.479H133.817ZM142.638 139.101V139.984H137.102V139.212L139.873 136.127C140.214 135.747 140.477 135.426 140.663 135.162C140.853 134.895 140.985 134.657 141.058 134.448C141.136 134.235 141.174 134.018 141.174 133.797C141.174 133.518 141.116 133.267 141 133.042C140.888 132.813 140.721 132.631 140.501 132.496C140.28 132.36 140.013 132.293 139.699 132.293C139.323 132.293 139.009 132.366 138.758 132.513C138.51 132.657 138.324 132.858 138.2 133.117C138.076 133.377 138.014 133.675 138.014 134.012H136.939C136.939 133.536 137.044 133.1 137.253 132.705C137.462 132.31 137.772 131.996 138.183 131.764C138.593 131.528 139.098 131.409 139.699 131.409C140.233 131.409 140.69 131.504 141.07 131.694C141.449 131.88 141.74 132.143 141.941 132.484C142.147 132.821 142.249 133.216 142.249 133.669C142.249 133.917 142.207 134.169 142.121 134.425C142.04 134.676 141.926 134.928 141.779 135.18C141.635 135.432 141.467 135.68 141.273 135.924C141.083 136.168 140.88 136.408 140.663 136.644L138.397 139.101H142.638Z" fill="white"/>
<rect width="38.6683" height="38.6683" transform="translate(155.667 116.086)" fill="#C30101"/>
<path d="M172.484 131.479V139.984H171.409V132.821L169.242 133.611V132.641L172.315 131.479H172.484ZM177.332 135.226H178.099C178.474 135.226 178.784 135.164 179.028 135.04C179.276 134.913 179.46 134.74 179.58 134.523C179.704 134.303 179.766 134.055 179.766 133.78C179.766 133.454 179.712 133.181 179.603 132.961C179.495 132.74 179.332 132.573 179.115 132.461C178.898 132.349 178.623 132.293 178.29 132.293C177.988 132.293 177.721 132.353 177.489 132.473C177.26 132.589 177.08 132.755 176.948 132.972C176.82 133.189 176.757 133.445 176.757 133.739H175.682C175.682 133.309 175.79 132.918 176.007 132.566C176.224 132.213 176.528 131.932 176.919 131.723C177.314 131.514 177.771 131.409 178.29 131.409C178.802 131.409 179.249 131.501 179.632 131.683C180.016 131.861 180.314 132.128 180.527 132.484C180.74 132.837 180.846 133.276 180.846 133.803C180.846 134.016 180.796 134.245 180.695 134.489C180.599 134.729 180.446 134.953 180.236 135.162C180.031 135.372 179.764 135.544 179.435 135.68C179.106 135.811 178.71 135.877 178.25 135.877H177.332V135.226ZM177.332 136.109V135.465H178.25C178.788 135.465 179.233 135.528 179.586 135.656C179.938 135.784 180.215 135.954 180.417 136.168C180.622 136.381 180.765 136.615 180.846 136.87C180.932 137.122 180.974 137.374 180.974 137.626C180.974 138.021 180.906 138.371 180.771 138.677C180.639 138.983 180.451 139.243 180.207 139.456C179.967 139.669 179.685 139.829 179.359 139.938C179.034 140.046 178.68 140.101 178.296 140.101C177.928 140.101 177.581 140.048 177.256 139.944C176.935 139.839 176.65 139.688 176.402 139.491C176.154 139.289 175.961 139.043 175.821 138.753C175.682 138.458 175.612 138.123 175.612 137.748H176.687C176.687 138.042 176.751 138.3 176.879 138.52C177.01 138.741 177.196 138.913 177.436 139.037C177.68 139.157 177.967 139.218 178.296 139.218C178.625 139.218 178.908 139.161 179.144 139.049C179.384 138.933 179.568 138.759 179.696 138.526C179.828 138.294 179.894 138.001 179.894 137.649C179.894 137.296 179.82 137.008 179.673 136.783C179.526 136.555 179.317 136.386 179.046 136.278C178.778 136.166 178.463 136.109 178.099 136.109H177.332Z" fill="white"/>
<rect width="38.6683" height="38.6683" transform="translate(194.336 116.086)" fill="#C30101"/>
<path d="M211.153 131.479V139.984H210.078V132.821L207.911 133.611V132.641L210.984 131.479H211.153ZM220.149 137.138V138.021H214.037V137.388L217.825 131.526H218.702L217.761 133.222L215.257 137.138H220.149ZM218.969 131.526V139.984H217.895V131.526H218.969Z" fill="white"/>
<rect width="38.6683" height="38.6683" transform="translate(233.004 116.086)" fill="black" fill-opacity="0.38"/>
<path d="M249.822 131.479V139.984H248.747V132.821L246.58 133.611V132.641L249.653 131.479H249.822ZM254.46 135.958L253.601 135.738L254.025 131.526H258.364V132.519H254.937L254.681 134.82C254.836 134.731 255.032 134.647 255.268 134.57C255.508 134.492 255.783 134.454 256.093 134.454C256.484 134.454 256.835 134.521 257.144 134.657C257.454 134.789 257.718 134.978 257.935 135.226C258.155 135.474 258.324 135.772 258.44 136.121C258.556 136.47 258.614 136.859 258.614 137.289C258.614 137.695 258.558 138.069 258.446 138.41C258.337 138.751 258.173 139.049 257.952 139.305C257.731 139.556 257.452 139.752 257.115 139.891C256.782 140.031 256.389 140.101 255.936 140.101C255.595 140.101 255.272 140.054 254.966 139.961C254.664 139.864 254.393 139.719 254.153 139.525C253.916 139.328 253.723 139.084 253.572 138.793C253.424 138.499 253.331 138.154 253.293 137.759H254.315C254.362 138.077 254.455 138.344 254.594 138.561C254.733 138.778 254.916 138.943 255.14 139.055C255.369 139.163 255.634 139.218 255.936 139.218C256.192 139.218 256.418 139.173 256.616 139.084C256.813 138.995 256.98 138.867 257.115 138.7C257.251 138.534 257.354 138.333 257.423 138.096C257.497 137.86 257.534 137.595 257.534 137.3C257.534 137.033 257.497 136.785 257.423 136.557C257.35 136.328 257.239 136.129 257.092 135.958C256.949 135.788 256.773 135.656 256.563 135.563C256.354 135.466 256.114 135.418 255.843 135.418C255.483 135.418 255.21 135.466 255.024 135.563C254.842 135.66 254.654 135.792 254.46 135.958Z" fill="black" fill-opacity="0.87"/>
<rect width="38.6683" height="38.6683" transform="translate(0.994141 154.755)" fill="black" fill-opacity="0.38"/>
<path d="M17.8109 170.148V178.653H16.7361V171.49L14.5692 172.28V171.31L17.6424 170.148H17.8109ZM25.215 170.183H25.308V171.095H25.215C24.6457 171.095 24.1693 171.188 23.7859 171.373C23.4025 171.556 23.0984 171.801 22.8738 172.111C22.6492 172.417 22.4865 172.762 22.3858 173.145C22.289 173.529 22.2405 173.918 22.2405 174.313V175.556C22.2405 175.932 22.2851 176.265 22.3742 176.556C22.4632 176.842 22.5852 177.084 22.7402 177.282C22.8951 177.479 23.0694 177.628 23.263 177.729C23.4606 177.83 23.6658 177.88 23.8788 177.88C24.1267 177.88 24.3475 177.834 24.5411 177.741C24.7348 177.644 24.8974 177.51 25.0291 177.34C25.1647 177.166 25.2673 176.96 25.337 176.724C25.4067 176.488 25.4416 176.228 25.4416 175.946C25.4416 175.694 25.4106 175.452 25.3487 175.219C25.2867 174.983 25.1918 174.774 25.064 174.592C24.9362 174.406 24.7754 174.261 24.5818 174.156C24.392 174.048 24.1654 173.994 23.9021 173.994C23.6039 173.994 23.325 174.067 23.0655 174.214C22.8099 174.358 22.5988 174.547 22.4323 174.784C22.2696 175.016 22.1766 175.27 22.1534 175.545L21.5841 175.539C21.6383 175.105 21.739 174.735 21.8862 174.429C22.0372 174.119 22.2231 173.868 22.4439 173.674C22.6685 173.477 22.9183 173.333 23.1933 173.244C23.4722 173.151 23.7665 173.105 24.0764 173.105C24.4985 173.105 24.8626 173.184 25.1686 173.343C25.4745 173.502 25.7263 173.715 25.9238 173.982C26.1213 174.245 26.2666 174.544 26.3595 174.877C26.4563 175.206 26.5048 175.545 26.5048 175.893C26.5048 176.292 26.4486 176.666 26.3363 177.015C26.224 177.363 26.0555 177.669 25.8308 177.932C25.6101 178.196 25.337 178.401 25.0117 178.548C24.6864 178.695 24.3087 178.769 23.8788 178.769C23.4218 178.769 23.0229 178.676 22.6821 178.49C22.3412 178.3 22.0585 178.049 21.8339 177.735C21.6092 177.421 21.4408 177.073 21.3285 176.689C21.2161 176.306 21.16 175.917 21.16 175.521V175.016C21.16 174.42 21.22 173.835 21.3401 173.262C21.4601 172.688 21.6673 172.169 21.9617 171.705C22.2599 171.24 22.6724 170.87 23.1991 170.595C23.7259 170.32 24.3978 170.183 25.215 170.183Z" fill="black" fill-opacity="0.87"/>
<rect width="38.6683" height="38.6683" transform="translate(39.6621 154.755)" fill="#C30101"/>
<path d="M56.4789 170.148V178.653H55.4041V171.49L53.2371 172.28V171.31L56.3104 170.148H56.4789ZM65.225 170.194V170.798L61.7219 178.653H60.589L64.0863 171.077H59.5084V170.194H65.225Z" fill="white"/>
<rect width="38.6683" height="38.6683" transform="translate(78.3311 154.755)" fill="#C30101"/>
<path d="M95.1478 170.148V178.653H94.073V171.49L91.9061 172.28V171.31L94.9793 170.148H95.1478ZM103.76 176.364C103.76 176.879 103.64 177.317 103.4 177.677C103.164 178.033 102.842 178.304 102.436 178.49C102.033 178.676 101.578 178.769 101.071 178.769C100.563 178.769 100.106 178.676 99.6995 178.49C99.2928 178.304 98.9713 178.033 98.7351 177.677C98.4988 177.317 98.3807 176.879 98.3807 176.364C98.3807 176.027 98.4446 175.719 98.5724 175.44C98.7041 175.157 98.8881 174.911 99.1243 174.702C99.3644 174.493 99.6472 174.332 99.9725 174.22C100.302 174.104 100.664 174.046 101.059 174.046C101.578 174.046 102.041 174.147 102.447 174.348C102.854 174.545 103.174 174.819 103.406 175.167C103.642 175.516 103.76 175.915 103.76 176.364ZM102.68 176.341C102.68 176.027 102.612 175.75 102.476 175.51C102.341 175.266 102.151 175.076 101.907 174.941C101.663 174.805 101.38 174.737 101.059 174.737C100.73 174.737 100.445 174.805 100.205 174.941C99.9686 175.076 99.7847 175.266 99.653 175.51C99.5213 175.75 99.4555 176.027 99.4555 176.341C99.4555 176.666 99.5194 176.945 99.6472 177.177C99.7789 177.406 99.9648 177.582 100.205 177.706C100.449 177.826 100.737 177.886 101.071 177.886C101.404 177.886 101.69 177.826 101.93 177.706C102.17 177.582 102.354 177.406 102.482 177.177C102.614 176.945 102.68 176.666 102.68 176.341ZM103.563 172.396C103.563 172.806 103.454 173.176 103.237 173.506C103.021 173.835 102.724 174.094 102.349 174.284C101.973 174.474 101.547 174.569 101.071 174.569C100.586 174.569 100.155 174.474 99.775 174.284C99.3993 174.094 99.105 173.835 98.8919 173.506C98.6789 173.176 98.5724 172.806 98.5724 172.396C98.5724 171.904 98.6789 171.486 98.8919 171.141C99.1088 170.796 99.4051 170.533 99.7808 170.351C100.156 170.169 100.584 170.078 101.065 170.078C101.549 170.078 101.979 170.169 102.354 170.351C102.73 170.533 103.024 170.796 103.237 171.141C103.454 171.486 103.563 171.904 103.563 172.396ZM102.488 172.413C102.488 172.131 102.428 171.881 102.308 171.664C102.188 171.447 102.021 171.277 101.808 171.153C101.595 171.025 101.347 170.961 101.065 170.961C100.782 170.961 100.534 171.021 100.321 171.141C100.112 171.257 99.9473 171.424 99.8273 171.641C99.7111 171.858 99.653 172.115 99.653 172.413C99.653 172.704 99.7111 172.958 99.8273 173.174C99.9473 173.391 100.114 173.56 100.327 173.68C100.54 173.8 100.788 173.86 101.071 173.86C101.353 173.86 101.599 173.8 101.808 173.68C102.021 173.56 102.188 173.391 102.308 173.174C102.428 172.958 102.488 172.704 102.488 172.413Z" fill="white"/>
<rect width="38.6683" height="38.6683" transform="translate(116.999 154.755)" fill="#C30101"/>
<path d="M133.817 170.148V178.653H132.742V171.49L130.575 172.28V171.31L133.648 170.148H133.817ZM138.165 177.752H138.275C138.895 177.752 139.399 177.665 139.786 177.491C140.173 177.317 140.471 177.082 140.681 176.788C140.89 176.494 141.033 176.162 141.111 175.795C141.188 175.423 141.227 175.041 141.227 174.65V173.355C141.227 172.971 141.182 172.63 141.093 172.332C141.008 172.034 140.888 171.784 140.733 171.583C140.582 171.381 140.409 171.228 140.216 171.124C140.022 171.019 139.817 170.967 139.6 170.967C139.352 170.967 139.129 171.017 138.932 171.118C138.738 171.215 138.574 171.352 138.438 171.53C138.306 171.708 138.206 171.918 138.136 172.158C138.066 172.398 138.031 172.659 138.031 172.942C138.031 173.194 138.062 173.438 138.124 173.674C138.186 173.91 138.281 174.123 138.409 174.313C138.537 174.503 138.696 174.654 138.885 174.766C139.079 174.875 139.306 174.929 139.565 174.929C139.805 174.929 140.03 174.882 140.239 174.789C140.452 174.693 140.64 174.563 140.803 174.4C140.969 174.234 141.101 174.046 141.198 173.837C141.298 173.628 141.356 173.409 141.372 173.18H141.883C141.883 173.502 141.819 173.819 141.691 174.133C141.568 174.443 141.393 174.726 141.169 174.981C140.944 175.237 140.681 175.442 140.379 175.597C140.076 175.748 139.747 175.824 139.391 175.824C138.973 175.824 138.61 175.742 138.305 175.58C137.999 175.417 137.747 175.2 137.549 174.929C137.356 174.658 137.21 174.356 137.114 174.023C137.021 173.686 136.974 173.345 136.974 173C136.974 172.597 137.03 172.22 137.143 171.867C137.255 171.515 137.421 171.205 137.642 170.938C137.863 170.667 138.136 170.456 138.461 170.305C138.791 170.153 139.17 170.078 139.6 170.078C140.084 170.078 140.497 170.175 140.837 170.368C141.178 170.562 141.455 170.822 141.668 171.147C141.885 171.472 142.044 171.838 142.145 172.245C142.245 172.652 142.296 173.07 142.296 173.5V173.889C142.296 174.327 142.267 174.772 142.209 175.225C142.154 175.674 142.048 176.104 141.889 176.515C141.734 176.925 141.507 177.293 141.209 177.619C140.911 177.94 140.522 178.196 140.042 178.386C139.565 178.571 138.976 178.664 138.275 178.664H138.165V177.752Z" fill="white"/>
<rect width="38.6683" height="38.6683" transform="translate(155.667 154.755)" fill="#C30101"/>
<path d="M174.494 177.77V178.653H168.957V177.88L171.729 174.795C172.069 174.416 172.333 174.094 172.519 173.831C172.708 173.564 172.84 173.325 172.914 173.116C172.991 172.903 173.03 172.686 173.03 172.466C173.03 172.187 172.972 171.935 172.856 171.71C172.743 171.482 172.577 171.3 172.356 171.164C172.135 171.029 171.868 170.961 171.554 170.961C171.179 170.961 170.865 171.035 170.613 171.182C170.365 171.325 170.179 171.526 170.055 171.786C169.931 172.045 169.869 172.344 169.869 172.681H168.795C168.795 172.204 168.899 171.769 169.108 171.373C169.318 170.978 169.627 170.665 170.038 170.432C170.448 170.196 170.954 170.078 171.554 170.078C172.089 170.078 172.546 170.173 172.925 170.363C173.305 170.549 173.595 170.812 173.797 171.153C174.002 171.49 174.105 171.885 174.105 172.338C174.105 172.586 174.062 172.837 173.977 173.093C173.895 173.345 173.781 173.597 173.634 173.848C173.491 174.1 173.322 174.348 173.129 174.592C172.939 174.836 172.735 175.076 172.519 175.312L170.253 177.77H174.494ZM181.073 173.75V175.039C181.073 175.733 181.011 176.317 180.887 176.794C180.763 177.27 180.585 177.654 180.353 177.944C180.12 178.235 179.839 178.446 179.51 178.577C179.185 178.705 178.817 178.769 178.406 178.769C178.081 178.769 177.781 178.728 177.506 178.647C177.231 178.566 176.983 178.436 176.762 178.258C176.545 178.076 176.36 177.839 176.205 177.549C176.05 177.259 175.932 176.906 175.85 176.492C175.769 176.077 175.728 175.593 175.728 175.039V173.75C175.728 173.056 175.79 172.475 175.914 172.007C176.042 171.538 176.222 171.162 176.454 170.88C176.687 170.593 176.966 170.388 177.291 170.264C177.62 170.14 177.988 170.078 178.395 170.078C178.724 170.078 179.026 170.119 179.301 170.2C179.58 170.277 179.828 170.403 180.045 170.578C180.262 170.748 180.446 170.976 180.597 171.263C180.752 171.546 180.87 171.892 180.951 172.303C181.032 172.714 181.073 173.196 181.073 173.75ZM179.992 175.214V173.569C179.992 173.19 179.969 172.857 179.923 172.57C179.88 172.28 179.816 172.032 179.731 171.827C179.646 171.621 179.537 171.455 179.406 171.327C179.278 171.199 179.129 171.106 178.958 171.048C178.792 170.986 178.604 170.955 178.395 170.955C178.139 170.955 177.913 171.004 177.715 171.1C177.518 171.193 177.351 171.342 177.215 171.548C177.084 171.753 176.983 172.022 176.913 172.355C176.844 172.688 176.809 173.093 176.809 173.569V175.214C176.809 175.593 176.83 175.928 176.873 176.219C176.919 176.509 176.987 176.761 177.076 176.974C177.165 177.183 177.274 177.355 177.401 177.491C177.529 177.626 177.676 177.727 177.843 177.793C178.013 177.855 178.201 177.886 178.406 177.886C178.67 177.886 178.9 177.836 179.098 177.735C179.295 177.634 179.46 177.477 179.592 177.264C179.727 177.047 179.828 176.771 179.894 176.434C179.96 176.093 179.992 175.686 179.992 175.214Z" fill="white"/>
<rect width="38.6683" height="38.6683" transform="translate(194.336 154.755)" fill="#C30101"/>
<path d="M213.163 177.77V178.653H207.626V177.88L210.397 174.795C210.738 174.416 211.002 174.094 211.188 173.831C211.377 173.564 211.509 173.325 211.583 173.116C211.66 172.903 211.699 172.686 211.699 172.466C211.699 172.187 211.641 171.935 211.524 171.71C211.412 171.482 211.246 171.3 211.025 171.164C210.804 171.029 210.537 170.961 210.223 170.961C209.847 170.961 209.534 171.035 209.282 171.182C209.034 171.325 208.848 171.526 208.724 171.786C208.6 172.045 208.538 172.344 208.538 172.681H207.464C207.464 172.204 207.568 171.769 207.777 171.373C207.986 170.978 208.296 170.665 208.707 170.432C209.117 170.196 209.623 170.078 210.223 170.078C210.758 170.078 211.215 170.173 211.594 170.363C211.974 170.549 212.264 170.812 212.466 171.153C212.671 171.49 212.774 171.885 212.774 172.338C212.774 172.586 212.731 172.837 212.646 173.093C212.564 173.345 212.45 173.597 212.303 173.848C212.16 174.1 211.991 174.348 211.798 174.592C211.608 174.836 211.404 175.076 211.188 175.312L208.922 177.77H213.163ZM217.964 170.148V178.653H216.889V171.49L214.723 172.28V171.31L217.796 170.148H217.964Z" fill="white"/>
<rect width="38.6683" height="38.6683" transform="translate(233.004 154.755)" fill="black" fill-opacity="0.38"/>
<path d="M251.832 177.77V178.653H246.295V177.88L249.066 174.795C249.407 174.416 249.671 174.094 249.856 173.831C250.046 173.564 250.178 173.325 250.252 173.116C250.329 172.903 250.368 172.686 250.368 172.466C250.368 172.187 250.31 171.935 250.193 171.71C250.081 171.482 249.915 171.3 249.694 171.164C249.473 171.029 249.206 170.961 248.892 170.961C248.516 170.961 248.203 171.035 247.951 171.182C247.703 171.325 247.517 171.526 247.393 171.786C247.269 172.045 247.207 172.344 247.207 172.681H246.133C246.133 172.204 246.237 171.769 246.446 171.373C246.655 170.978 246.965 170.665 247.376 170.432C247.786 170.196 248.292 170.078 248.892 170.078C249.427 170.078 249.884 170.173 250.263 170.363C250.643 170.549 250.933 170.812 251.135 171.153C251.34 171.49 251.442 171.885 251.442 172.338C251.442 172.586 251.4 172.837 251.315 173.093C251.233 173.345 251.119 173.597 250.972 173.848C250.829 174.1 250.66 174.348 250.466 174.592C250.277 174.836 250.073 175.076 249.856 175.312L247.591 177.77H251.832ZM258.643 177.77V178.653H253.107V177.88L255.878 174.795C256.219 174.416 256.482 174.094 256.668 173.831C256.858 173.564 256.99 173.325 257.063 173.116C257.141 172.903 257.179 172.686 257.179 172.466C257.179 172.187 257.121 171.935 257.005 171.71C256.893 171.482 256.726 171.3 256.505 171.164C256.285 171.029 256.017 170.961 255.704 170.961C255.328 170.961 255.014 171.035 254.763 171.182C254.515 171.325 254.329 171.526 254.205 171.786C254.081 172.045 254.019 172.344 254.019 172.681H252.944C252.944 172.204 253.049 171.769 253.258 171.373C253.467 170.978 253.777 170.665 254.187 170.432C254.598 170.196 255.103 170.078 255.704 170.078C256.238 170.078 256.695 170.173 257.075 170.363C257.454 170.549 257.745 170.812 257.946 171.153C258.151 171.49 258.254 171.885 258.254 172.338C258.254 172.586 258.211 172.837 258.126 173.093C258.045 173.345 257.931 173.597 257.783 173.848C257.64 174.1 257.472 174.348 257.278 174.592C257.088 174.836 256.885 175.076 256.668 175.312L254.402 177.77H258.643Z" fill="black" fill-opacity="0.87"/>
<rect width="38.6683" height="38.6683" transform="translate(0.994141 193.423)" fill="black" fill-opacity="0.38"/>
<path d="M19.821 216.438V217.321H14.2845V216.548L17.0556 213.464C17.3965 213.084 17.6598 212.762 17.8457 212.499C18.0355 212.232 18.1672 211.994 18.2408 211.785C18.3183 211.572 18.357 211.355 18.357 211.134C18.357 210.855 18.2989 210.603 18.1827 210.379C18.0704 210.15 17.9038 209.968 17.6831 209.833C17.4623 209.697 17.1951 209.629 16.8814 209.629C16.5057 209.629 16.192 209.703 15.9402 209.85C15.6923 209.993 15.5064 210.195 15.3825 210.454C15.2586 210.714 15.1966 211.012 15.1966 211.349H14.1218C14.1218 210.872 14.2264 210.437 14.4355 210.042C14.6447 209.647 14.9545 209.333 15.3651 209.101C15.7756 208.864 16.281 208.746 16.8814 208.746C17.4158 208.746 17.8729 208.841 18.2524 209.031C18.632 209.217 18.9224 209.48 19.1238 209.821C19.3291 210.158 19.4318 210.553 19.4318 211.006C19.4318 211.254 19.3891 211.506 19.3039 211.761C19.2226 212.013 19.1084 212.265 18.9612 212.517C18.8179 212.768 18.6494 213.016 18.4557 213.26C18.266 213.504 18.0626 213.744 17.8457 213.981L15.58 216.438H19.821ZM22.6588 212.563H23.4257C23.8014 212.563 24.1112 212.501 24.3552 212.377C24.6031 212.249 24.7871 212.077 24.9071 211.86C25.0311 211.639 25.093 211.391 25.093 211.116C25.093 210.791 25.0388 210.518 24.9304 210.297C24.8219 210.077 24.6593 209.91 24.4424 209.798C24.2255 209.685 23.9505 209.629 23.6174 209.629C23.3153 209.629 23.0481 209.689 22.8157 209.809C22.5872 209.925 22.4071 210.092 22.2754 210.309C22.1476 210.526 22.0837 210.781 22.0837 211.076H21.0089C21.0089 210.646 21.1174 210.255 21.3343 209.902C21.5511 209.55 21.8552 209.269 22.2464 209.06C22.6414 208.851 23.0984 208.746 23.6174 208.746C24.1286 208.746 24.576 208.837 24.9594 209.019C25.3428 209.197 25.6411 209.465 25.8541 209.821C26.0671 210.173 26.1736 210.613 26.1736 211.14C26.1736 211.353 26.1233 211.581 26.0226 211.825C25.9257 212.065 25.7728 212.29 25.5636 212.499C25.3583 212.708 25.0911 212.881 24.7619 213.016C24.4327 213.148 24.0376 213.214 23.5767 213.214H22.6588V212.563ZM22.6588 213.446V212.801H23.5767C24.1151 212.801 24.5605 212.865 24.9129 212.993C25.2654 213.121 25.5423 213.291 25.7437 213.504C25.949 213.717 26.0923 213.952 26.1736 214.207C26.2588 214.459 26.3014 214.711 26.3014 214.962C26.3014 215.357 26.2336 215.708 26.0981 216.014C25.9664 216.32 25.7786 216.579 25.5346 216.792C25.2944 217.005 25.0117 217.166 24.6864 217.275C24.361 217.383 24.0066 217.437 23.6232 217.437C23.2553 217.437 22.9086 217.385 22.5833 217.28C22.2619 217.176 21.9772 217.025 21.7293 216.827C21.4814 216.626 21.2878 216.38 21.1484 216.089C21.0089 215.795 20.9392 215.46 20.9392 215.084H22.014C22.014 215.379 22.0779 215.636 22.2057 215.857C22.3374 216.078 22.5233 216.25 22.7634 216.374C23.0074 216.494 23.294 216.554 23.6232 216.554C23.9524 216.554 24.2352 216.498 24.4714 216.386C24.7115 216.27 24.8955 216.095 25.0233 215.863C25.155 215.63 25.2208 215.338 25.2208 214.986C25.2208 214.633 25.1473 214.345 25.0001 214.12C24.8529 213.891 24.6438 213.723 24.3727 213.615C24.1054 213.502 23.7898 213.446 23.4257 213.446H22.6588Z" fill="black" fill-opacity="0.87"/>
<rect width="38.6683" height="38.6683" transform="translate(39.6621 193.423)" fill="#C30101"/>
<path d="M58.489 216.438V217.321H52.9525V216.548L55.7236 213.464C56.0644 213.084 56.3278 212.762 56.5137 212.499C56.7035 212.232 56.8352 211.994 56.9088 211.785C56.9862 211.572 57.025 211.355 57.025 211.134C57.025 210.855 56.9669 210.603 56.8507 210.379C56.7384 210.15 56.5718 209.968 56.351 209.833C56.1303 209.697 55.863 209.629 55.5493 209.629C55.1736 209.629 54.8599 209.703 54.6082 209.85C54.3603 209.993 54.1744 210.195 54.0505 210.454C53.9265 210.714 53.8646 211.012 53.8646 211.349H52.7898C52.7898 210.872 52.8944 210.437 53.1035 210.042C53.3127 209.647 53.6225 209.333 54.033 209.101C54.4436 208.864 54.949 208.746 55.5493 208.746C56.0838 208.746 56.5408 208.841 56.9204 209.031C57.2999 209.217 57.5904 209.48 57.7918 209.821C57.9971 210.158 58.0997 210.553 58.0997 211.006C58.0997 211.254 58.0571 211.506 57.9719 211.761C57.8906 212.013 57.7763 212.265 57.6291 212.517C57.4858 212.768 57.3174 213.016 57.1237 213.26C56.9339 213.504 56.7306 213.744 56.5137 213.981L54.248 216.438H58.489ZM65.4748 214.474V215.357H59.3632V214.724L63.151 208.862H64.0282L63.0871 210.559L60.5832 214.474H65.4748ZM64.2955 208.862V217.321H63.2207V208.862H64.2955Z" fill="white"/>
<rect width="38.6683" height="38.6683" transform="translate(78.3311 193.423)" fill="#C30101"/>
<path d="M97.1579 216.438V217.321H91.6214V216.548L94.3926 213.464C94.7334 213.084 94.9968 212.762 95.1827 212.499C95.3724 212.232 95.5041 211.994 95.5777 211.785C95.6552 211.572 95.6939 211.355 95.6939 211.134C95.6939 210.855 95.6358 210.603 95.5196 210.379C95.4073 210.15 95.2408 209.968 95.02 209.833C94.7992 209.697 94.532 209.629 94.2183 209.629C93.8426 209.629 93.5289 209.703 93.2771 209.85C93.0293 209.993 92.8434 210.195 92.7194 210.454C92.5955 210.714 92.5335 211.012 92.5335 211.349H91.4587C91.4587 210.872 91.5633 210.437 91.7725 210.042C91.9816 209.647 92.2914 209.333 92.702 209.101C93.1125 208.864 93.618 208.746 94.2183 208.746C94.7528 208.746 95.2098 208.841 95.5893 209.031C95.9689 209.217 96.2594 209.48 96.4608 209.821C96.666 210.158 96.7687 210.553 96.7687 211.006C96.7687 211.254 96.7261 211.506 96.6409 211.761C96.5595 212.013 96.4453 212.265 96.2981 212.517C96.1548 212.768 95.9863 213.016 95.7927 213.26C95.6029 213.504 95.3996 213.744 95.1827 213.981L92.9169 216.438H97.1579ZM99.7866 213.295L98.9268 213.074L99.3509 208.862H103.691V209.856H100.263L100.007 212.156C100.162 212.067 100.358 211.984 100.594 211.907C100.834 211.829 101.109 211.79 101.419 211.79C101.81 211.79 102.161 211.858 102.471 211.994C102.78 212.125 103.044 212.315 103.261 212.563C103.481 212.811 103.65 213.109 103.766 213.458C103.882 213.806 103.94 214.196 103.94 214.625C103.94 215.032 103.884 215.406 103.772 215.747C103.664 216.087 103.499 216.386 103.278 216.641C103.057 216.893 102.779 217.089 102.442 217.228C102.108 217.368 101.715 217.437 101.262 217.437C100.921 217.437 100.598 217.391 100.292 217.298C99.9899 217.201 99.7188 217.056 99.4787 216.862C99.2424 216.665 99.0488 216.421 98.8977 216.13C98.7506 215.836 98.6576 215.491 98.6189 215.096H99.6414C99.6878 215.414 99.7808 215.681 99.9202 215.898C100.06 216.115 100.242 216.279 100.466 216.392C100.695 216.5 100.96 216.554 101.262 216.554C101.518 216.554 101.744 216.51 101.942 216.421C102.139 216.331 102.306 216.204 102.442 216.037C102.577 215.871 102.68 215.669 102.749 215.433C102.823 215.197 102.86 214.931 102.86 214.637C102.86 214.37 102.823 214.122 102.749 213.893C102.676 213.665 102.566 213.465 102.418 213.295C102.275 213.125 102.099 212.993 101.89 212.9C101.681 212.803 101.44 212.755 101.169 212.755C100.809 212.755 100.536 212.803 100.35 212.9C100.168 212.997 99.9803 213.128 99.7866 213.295Z" fill="white"/>
<rect width="38.6683" height="38.6683" transform="translate(116.999 193.423)" fill="#C30101"/>
<path d="M135.827 216.438V217.321H130.29V216.548L133.062 213.464C133.402 213.084 133.666 212.762 133.852 212.499C134.041 212.232 134.173 211.994 134.247 211.785C134.324 211.572 134.363 211.355 134.363 211.134C134.363 210.855 134.305 210.603 134.189 210.379C134.076 210.15 133.91 209.968 133.689 209.833C133.468 209.697 133.201 209.629 132.887 209.629C132.512 209.629 132.198 209.703 131.946 209.85C131.698 209.993 131.512 210.195 131.388 210.454C131.264 210.714 131.202 211.012 131.202 211.349H130.128C130.128 210.872 130.232 210.437 130.441 210.042C130.651 209.647 130.96 209.333 131.371 209.101C131.781 208.864 132.287 208.746 132.887 208.746C133.422 208.746 133.879 208.841 134.258 209.031C134.638 209.217 134.928 209.48 135.13 209.821C135.335 210.158 135.438 210.553 135.438 211.006C135.438 211.254 135.395 211.506 135.31 211.761C135.228 212.013 135.114 212.265 134.967 212.517C134.824 212.768 134.655 213.016 134.462 213.26C134.272 213.504 134.068 213.744 133.852 213.981L131.586 216.438H135.827ZM141.221 208.851H141.314V209.763H141.221C140.652 209.763 140.175 209.856 139.792 210.042C139.408 210.224 139.104 210.47 138.88 210.78C138.655 211.085 138.492 211.43 138.392 211.814C138.295 212.197 138.246 212.586 138.246 212.981V214.225C138.246 214.6 138.291 214.933 138.38 215.224C138.469 215.51 138.591 215.752 138.746 215.95C138.901 216.148 139.075 216.297 139.269 216.397C139.466 216.498 139.672 216.548 139.885 216.548C140.133 216.548 140.353 216.502 140.547 216.409C140.741 216.312 140.903 216.179 141.035 216.008C141.171 215.834 141.273 215.629 141.343 215.392C141.413 215.156 141.447 214.897 141.447 214.614C141.447 214.362 141.416 214.12 141.355 213.888C141.293 213.651 141.198 213.442 141.07 213.26C140.942 213.074 140.781 212.929 140.588 212.824C140.398 212.716 140.171 212.662 139.908 212.662C139.61 212.662 139.331 212.735 139.071 212.883C138.816 213.026 138.605 213.216 138.438 213.452C138.275 213.684 138.183 213.938 138.159 214.213L137.59 214.207C137.644 213.773 137.745 213.403 137.892 213.098C138.043 212.788 138.229 212.536 138.45 212.342C138.674 212.145 138.924 212.001 139.199 211.912C139.478 211.819 139.772 211.773 140.082 211.773C140.504 211.773 140.868 211.852 141.174 212.011C141.48 212.17 141.732 212.383 141.93 212.65C142.127 212.914 142.272 213.212 142.365 213.545C142.462 213.874 142.511 214.213 142.511 214.562C142.511 214.96 142.454 215.334 142.342 215.683C142.23 216.031 142.061 216.337 141.837 216.601C141.616 216.864 141.343 217.069 141.018 217.216C140.692 217.364 140.315 217.437 139.885 217.437C139.428 217.437 139.029 217.344 138.688 217.158C138.347 216.969 138.064 216.717 137.84 216.403C137.615 216.089 137.447 215.741 137.334 215.357C137.222 214.974 137.166 214.585 137.166 214.19V213.684C137.166 213.088 137.226 212.503 137.346 211.93C137.466 211.357 137.673 210.838 137.968 210.373C138.266 209.908 138.678 209.538 139.205 209.263C139.732 208.988 140.404 208.851 141.221 208.851Z" fill="white"/>
<rect width="38.6683" height="38.6683" transform="translate(155.667 193.423)" fill="#C30101"/>
<path d="M174.494 216.438V217.321H168.957V216.548L171.729 213.464C172.069 213.084 172.333 212.762 172.519 212.499C172.708 212.232 172.84 211.994 172.914 211.785C172.991 211.572 173.03 211.355 173.03 211.134C173.03 210.855 172.972 210.603 172.856 210.379C172.743 210.15 172.577 209.968 172.356 209.833C172.135 209.697 171.868 209.629 171.554 209.629C171.179 209.629 170.865 209.703 170.613 209.85C170.365 209.993 170.179 210.195 170.055 210.454C169.931 210.714 169.869 211.012 169.869 211.349H168.795C168.795 210.872 168.899 210.437 169.108 210.042C169.318 209.647 169.627 209.333 170.038 209.101C170.448 208.864 170.954 208.746 171.554 208.746C172.089 208.746 172.546 208.841 172.925 209.031C173.305 209.217 173.595 209.48 173.797 209.821C174.002 210.158 174.105 210.553 174.105 211.006C174.105 211.254 174.062 211.506 173.977 211.761C173.895 212.013 173.781 212.265 173.634 212.517C173.491 212.768 173.322 213.016 173.129 213.26C172.939 213.504 172.735 213.744 172.519 213.981L170.253 216.438H174.494ZM181.23 208.862V209.467L177.727 217.321H176.594L180.091 209.745H175.513V208.862H181.23Z" fill="white"/>
<rect width="38.6683" height="38.6683" transform="translate(194.336 193.423)" fill="#C30101"/>
<path d="M213.163 216.438V217.321H207.626V216.548L210.397 213.464C210.738 213.084 211.002 212.762 211.188 212.499C211.377 212.232 211.509 211.994 211.583 211.785C211.66 211.572 211.699 211.355 211.699 211.134C211.699 210.855 211.641 210.603 211.524 210.379C211.412 210.15 211.246 209.968 211.025 209.833C210.804 209.697 210.537 209.629 210.223 209.629C209.847 209.629 209.534 209.703 209.282 209.85C209.034 209.993 208.848 210.195 208.724 210.454C208.6 210.714 208.538 211.012 208.538 211.349H207.464C207.464 210.872 207.568 210.437 207.777 210.042C207.986 209.647 208.296 209.333 208.707 209.101C209.117 208.864 209.623 208.746 210.223 208.746C210.758 208.746 211.215 208.841 211.594 209.031C211.974 209.217 212.264 209.48 212.466 209.821C212.671 210.158 212.774 210.553 212.774 211.006C212.774 211.254 212.731 211.506 212.646 211.761C212.564 212.013 212.45 212.265 212.303 212.517C212.16 212.768 211.991 213.016 211.798 213.26C211.608 213.504 211.404 213.744 211.188 213.981L208.922 216.438H213.163ZM219.765 215.032C219.765 215.547 219.645 215.985 219.405 216.345C219.169 216.701 218.847 216.972 218.441 217.158C218.038 217.344 217.583 217.437 217.075 217.437C216.568 217.437 216.111 217.344 215.704 217.158C215.298 216.972 214.976 216.701 214.74 216.345C214.504 215.985 214.386 215.547 214.386 215.032C214.386 214.695 214.449 214.387 214.577 214.108C214.709 213.826 214.893 213.58 215.129 213.371C215.369 213.161 215.652 213.001 215.977 212.888C216.307 212.772 216.669 212.714 217.064 212.714C217.583 212.714 218.046 212.815 218.452 213.016C218.859 213.214 219.178 213.487 219.411 213.835C219.647 214.184 219.765 214.583 219.765 215.032ZM218.685 215.009C218.685 214.695 218.617 214.418 218.481 214.178C218.346 213.934 218.156 213.744 217.912 213.609C217.668 213.473 217.385 213.405 217.064 213.405C216.735 213.405 216.45 213.473 216.21 213.609C215.974 213.744 215.79 213.934 215.658 214.178C215.526 214.418 215.46 214.695 215.46 215.009C215.46 215.334 215.524 215.613 215.652 215.845C215.784 216.074 215.97 216.25 216.21 216.374C216.454 216.494 216.742 216.554 217.075 216.554C217.408 216.554 217.695 216.494 217.935 216.374C218.175 216.25 218.359 216.074 218.487 215.845C218.619 215.613 218.685 215.334 218.685 215.009ZM219.568 211.064C219.568 211.475 219.459 211.845 219.242 212.174C219.025 212.503 218.729 212.762 218.353 212.952C217.978 213.142 217.552 213.237 217.075 213.237C216.591 213.237 216.159 213.142 215.78 212.952C215.404 212.762 215.11 212.503 214.897 212.174C214.684 211.845 214.577 211.475 214.577 211.064C214.577 210.572 214.684 210.154 214.897 209.809C215.114 209.465 215.41 209.201 215.786 209.019C216.161 208.837 216.589 208.746 217.07 208.746C217.554 208.746 217.984 208.837 218.359 209.019C218.735 209.201 219.029 209.465 219.242 209.809C219.459 210.154 219.568 210.572 219.568 211.064ZM218.493 211.082C218.493 210.799 218.433 210.549 218.313 210.332C218.193 210.115 218.026 209.945 217.813 209.821C217.6 209.693 217.352 209.629 217.07 209.629C216.787 209.629 216.539 209.689 216.326 209.809C216.117 209.925 215.952 210.092 215.832 210.309C215.716 210.526 215.658 210.783 215.658 211.082C215.658 211.372 215.716 211.626 215.832 211.843C215.952 212.06 216.119 212.228 216.332 212.348C216.545 212.468 216.793 212.528 217.075 212.528C217.358 212.528 217.604 212.468 217.813 212.348C218.026 212.228 218.193 212.06 218.313 211.843C218.433 211.626 218.493 211.372 218.493 211.082Z" fill="white"/>
<rect width="38.6683" height="38.6683" transform="translate(233.004 193.423)" fill="black" fill-opacity="0.38"/>
<path d="M251.832 216.438V217.321H246.295V216.548L249.066 213.464C249.407 213.084 249.671 212.762 249.856 212.499C250.046 212.232 250.178 211.994 250.252 211.785C250.329 211.572 250.368 211.355 250.368 211.134C250.368 210.855 250.31 210.603 250.193 210.379C250.081 210.15 249.915 209.968 249.694 209.833C249.473 209.697 249.206 209.629 248.892 209.629C248.516 209.629 248.203 209.703 247.951 209.85C247.703 209.993 247.517 210.195 247.393 210.454C247.269 210.714 247.207 211.012 247.207 211.349H246.133C246.133 210.872 246.237 210.437 246.446 210.042C246.655 209.647 246.965 209.333 247.376 209.101C247.786 208.864 248.292 208.746 248.892 208.746C249.427 208.746 249.884 208.841 250.263 209.031C250.643 209.217 250.933 209.48 251.135 209.821C251.34 210.158 251.442 210.553 251.442 211.006C251.442 211.254 251.4 211.506 251.315 211.761C251.233 212.013 251.119 212.265 250.972 212.517C250.829 212.768 250.66 213.016 250.466 213.26C250.277 213.504 250.073 213.744 249.856 213.981L247.591 216.438H251.832ZM254.17 216.421H254.28C254.9 216.421 255.404 216.333 255.791 216.159C256.178 215.985 256.476 215.751 256.685 215.456C256.895 215.162 257.038 214.831 257.115 214.463C257.193 214.091 257.232 213.709 257.232 213.318V212.023C257.232 211.639 257.187 211.298 257.098 211C257.013 210.702 256.893 210.452 256.738 210.251C256.587 210.049 256.414 209.896 256.221 209.792C256.027 209.687 255.822 209.635 255.605 209.635C255.357 209.635 255.134 209.685 254.937 209.786C254.743 209.883 254.579 210.02 254.443 210.199C254.311 210.377 254.211 210.586 254.141 210.826C254.071 211.066 254.036 211.328 254.036 211.61C254.036 211.862 254.067 212.106 254.129 212.342C254.191 212.579 254.286 212.792 254.414 212.981C254.542 213.171 254.701 213.322 254.89 213.434C255.084 213.543 255.311 213.597 255.57 213.597C255.81 213.597 256.035 213.551 256.244 213.458C256.457 213.361 256.645 213.231 256.807 213.068C256.974 212.902 257.106 212.714 257.203 212.505C257.303 212.296 257.361 212.077 257.377 211.848H257.888C257.888 212.17 257.824 212.488 257.696 212.801C257.572 213.111 257.398 213.394 257.173 213.649C256.949 213.905 256.685 214.11 256.383 214.265C256.081 214.416 255.752 214.492 255.396 214.492C254.977 214.492 254.615 214.41 254.309 214.248C254.003 214.085 253.752 213.868 253.554 213.597C253.36 213.326 253.215 213.024 253.118 212.691C253.025 212.354 252.979 212.013 252.979 211.668C252.979 211.266 253.035 210.888 253.147 210.536C253.26 210.183 253.426 209.873 253.647 209.606C253.868 209.335 254.141 209.124 254.466 208.973C254.795 208.822 255.175 208.746 255.605 208.746C256.089 208.746 256.502 208.843 256.842 209.037C257.183 209.23 257.46 209.49 257.673 209.815C257.89 210.14 258.049 210.506 258.149 210.913C258.25 211.32 258.301 211.738 258.301 212.168V212.557C258.301 212.995 258.271 213.44 258.213 213.893C258.159 214.343 258.053 214.773 257.894 215.183C257.739 215.594 257.512 215.962 257.214 216.287C256.916 216.608 256.527 216.864 256.046 217.054C255.57 217.24 254.981 217.333 254.28 217.333H254.17V216.421Z" fill="black" fill-opacity="0.87"/>
<rect width="38.6683" height="38.6683" transform="translate(0.994141 232.092)" fill="black" fill-opacity="0.38"/>
<path d="M15.8473 251.231H16.6141C16.9898 251.231 17.2996 251.17 17.5437 251.046C17.7915 250.918 17.9755 250.745 18.0956 250.529C18.2195 250.308 18.2815 250.06 18.2815 249.785C18.2815 249.46 18.2272 249.187 18.1188 248.966C18.0104 248.745 17.8477 248.578 17.6308 248.466C17.4139 248.354 17.1389 248.298 16.8058 248.298C16.5037 248.298 16.2365 248.358 16.0041 248.478C15.7756 248.594 15.5955 248.76 15.4638 248.977C15.336 249.194 15.2721 249.45 15.2721 249.744H14.1974C14.1974 249.314 14.3058 248.923 14.5227 248.571C14.7396 248.218 15.0436 247.937 15.4348 247.728C15.8298 247.519 16.2869 247.415 16.8058 247.415C17.3171 247.415 17.7644 247.506 18.1478 247.688C18.5313 247.866 18.8295 248.133 19.0425 248.489C19.2555 248.842 19.362 249.281 19.362 249.808C19.362 250.021 19.3117 250.25 19.211 250.494C19.1142 250.734 18.9612 250.958 18.752 251.168C18.5468 251.377 18.2795 251.549 17.9503 251.685C17.6211 251.816 17.2261 251.882 16.7652 251.882H15.8473V251.231ZM15.8473 252.115V251.47H16.7652C17.3035 251.47 17.7489 251.534 18.1014 251.661C18.4538 251.789 18.7307 251.96 18.9321 252.173C19.1374 252.386 19.2807 252.62 19.362 252.876C19.4472 253.127 19.4898 253.379 19.4898 253.631C19.4898 254.026 19.4221 254.376 19.2865 254.682C19.1548 254.988 18.967 255.248 18.723 255.461C18.4829 255.674 18.2001 255.835 17.8748 255.943C17.5495 256.051 17.1951 256.106 16.8116 256.106C16.4437 256.106 16.0971 256.053 15.7717 255.949C15.4503 255.844 15.1656 255.693 14.9177 255.496C14.6699 255.294 14.4762 255.048 14.3368 254.758C14.1974 254.464 14.1276 254.129 14.1276 253.753H15.2024C15.2024 254.047 15.2663 254.305 15.3941 254.525C15.5258 254.746 15.7117 254.919 15.9518 255.043C16.1958 255.163 16.4824 255.223 16.8116 255.223C17.1409 255.223 17.4236 255.166 17.6598 255.054C17.9 254.938 18.0839 254.764 18.2117 254.531C18.3434 254.299 18.4093 254.007 18.4093 253.654C18.4093 253.302 18.3357 253.013 18.1885 252.788C18.0413 252.56 17.8322 252.391 17.5611 252.283C17.2938 252.171 16.9782 252.115 16.6141 252.115H15.8473ZM26.4002 251.086V252.376C26.4002 253.069 26.3382 253.654 26.2143 254.13C26.0903 254.607 25.9122 254.99 25.6798 255.281C25.4474 255.571 25.1666 255.782 24.8374 255.914C24.5121 256.042 24.1441 256.106 23.7336 256.106C23.4083 256.106 23.1081 256.065 22.8331 255.984C22.5581 255.902 22.3103 255.773 22.0895 255.594C21.8726 255.412 21.6867 255.176 21.5318 254.886C21.3769 254.595 21.2587 254.243 21.1774 253.828C21.0961 253.414 21.0554 252.93 21.0554 252.376V251.086C21.0554 250.393 21.1174 249.812 21.2413 249.343C21.3691 248.875 21.5492 248.499 21.7816 248.216C22.014 247.93 22.2928 247.724 22.6182 247.601C22.9474 247.477 23.3153 247.415 23.722 247.415C24.0512 247.415 24.3533 247.455 24.6283 247.537C24.9071 247.614 25.155 247.74 25.3719 247.914C25.5888 248.085 25.7728 248.313 25.9238 248.6C26.0787 248.882 26.1968 249.229 26.2782 249.64C26.3595 250.05 26.4002 250.532 26.4002 251.086ZM25.3196 252.55V250.906C25.3196 250.527 25.2964 250.194 25.2499 249.907C25.2073 249.616 25.1434 249.369 25.0582 249.163C24.973 248.958 24.8645 248.791 24.7328 248.664C24.605 248.536 24.4559 248.443 24.2855 248.385C24.119 248.323 23.9311 248.292 23.722 248.292C23.4664 248.292 23.2398 248.34 23.0423 248.437C22.8447 248.53 22.6782 248.679 22.5426 248.884C22.411 249.09 22.3103 249.359 22.2405 249.692C22.1708 250.025 22.136 250.43 22.136 250.906V252.55C22.136 252.93 22.1573 253.265 22.1999 253.555C22.2464 253.846 22.3141 254.098 22.4032 254.311C22.4923 254.52 22.6007 254.692 22.7286 254.828C22.8564 254.963 23.0035 255.064 23.1701 255.13C23.3405 255.192 23.5283 255.223 23.7336 255.223C23.997 255.223 24.2274 255.172 24.4249 255.072C24.6225 254.971 24.7871 254.814 24.9187 254.601C25.0543 254.384 25.155 254.107 25.2208 253.77C25.2867 253.429 25.3196 253.023 25.3196 252.55Z" fill="black" fill-opacity="0.87"/>
<rect width="38.6683" height="38.6683" transform="translate(39.6621 232.092)" fill="#C30101"/>
<path d="M54.5152 251.231H55.2821C55.6578 251.231 55.9676 251.17 56.2116 251.046C56.4595 250.918 56.6435 250.745 56.7635 250.529C56.8875 250.308 56.9494 250.06 56.9494 249.785C56.9494 249.46 56.8952 249.187 56.7868 248.966C56.6783 248.745 56.5157 248.578 56.2988 248.466C56.0819 248.354 55.8069 248.298 55.4738 248.298C55.1717 248.298 54.9045 248.358 54.6721 248.478C54.4436 248.594 54.2635 248.76 54.1318 248.977C54.004 249.194 53.9401 249.45 53.9401 249.744H52.8653C52.8653 249.314 52.9738 248.923 53.1907 248.571C53.4075 248.218 53.7116 247.937 54.1028 247.728C54.4978 247.519 54.9548 247.415 55.4738 247.415C55.985 247.415 56.4324 247.506 56.8158 247.688C57.1992 247.866 57.4975 248.133 57.7105 248.489C57.9235 248.842 58.03 249.281 58.03 249.808C58.03 250.021 57.9797 250.25 57.879 250.494C57.7821 250.734 57.6291 250.958 57.42 251.168C57.2147 251.377 56.9475 251.549 56.6183 251.685C56.2891 251.816 55.894 251.882 55.4331 251.882H54.5152V251.231ZM54.5152 252.115V251.47H55.4331C55.9715 251.47 56.4169 251.534 56.7693 251.661C57.1218 251.789 57.3987 251.96 57.6001 252.173C57.8054 252.386 57.9487 252.62 58.03 252.876C58.1152 253.127 58.1578 253.379 58.1578 253.631C58.1578 254.026 58.09 254.376 57.9545 254.682C57.8228 254.988 57.635 255.248 57.391 255.461C57.1508 255.674 56.8681 255.835 56.5428 255.943C56.2174 256.051 55.863 256.106 55.4796 256.106C55.1117 256.106 54.765 256.053 54.4397 255.949C54.1182 255.844 53.8336 255.693 53.5857 255.496C53.3378 255.294 53.1442 255.048 53.0048 254.758C52.8653 254.464 52.7956 254.129 52.7956 253.753H53.8704C53.8704 254.047 53.9343 254.305 54.0621 254.525C54.1938 254.746 54.3797 254.919 54.6198 255.043C54.8638 255.163 55.1504 255.223 55.4796 255.223C55.8088 255.223 56.0916 255.166 56.3278 255.054C56.5679 254.938 56.7519 254.764 56.8797 254.531C57.0114 254.299 57.0772 254.007 57.0772 253.654C57.0772 253.302 57.0037 253.013 56.8565 252.788C56.7093 252.56 56.5002 252.391 56.229 252.283C55.9618 252.171 55.6462 252.115 55.2821 252.115H54.5152ZM63.2904 247.484V255.99H62.2157V248.826L60.0487 249.616V248.646L63.122 247.484H63.2904Z" fill="white"/>
</g>
<defs>
<clipPath id="clip0_932_3134">
<rect x="0.994141" y="0.081543" width="270.678" height="270.678" rx="11.8979" fill="white"/>
</clipPath>
</defs>
</svg>
