<svg width="272" height="271" viewBox="0 0 272 271" fill="none" xmlns="http://www.w3.org/2000/svg">
<g clip-path="url(#clip0_932_3998)">
<rect width="270.678" height="38.6683" transform="translate(0.352539 0.081543)" fill="black"/>
<path d="M19.1467 23.9795H17.3225L17.3341 22.7246H19.1467C19.6385 22.7246 20.051 22.6162 20.3841 22.3993C20.7172 22.1785 20.9689 21.8629 21.1393 21.4523C21.3097 21.0379 21.395 20.5422 21.395 19.9651V19.5294C21.395 19.084 21.3465 18.6909 21.2497 18.35C21.1529 18.0092 21.0096 17.7226 20.8198 17.4902C20.6339 17.2579 20.4035 17.0816 20.1285 16.9616C19.8535 16.8415 19.5378 16.7815 19.1815 16.7815H17.2876V15.5208H19.1815C19.747 15.5208 20.2621 15.6157 20.7269 15.8055C21.1955 15.9952 21.6002 16.2683 21.941 16.6246C22.2857 16.9771 22.5491 17.3992 22.7311 17.8911C22.9171 18.383 23.01 18.9329 23.01 19.541V19.9651C23.01 20.5693 22.9171 21.1193 22.7311 21.615C22.5491 22.1069 22.2857 22.529 21.941 22.8815C21.6002 23.2339 21.1936 23.505 20.721 23.6948C20.2485 23.8846 19.7237 23.9795 19.1467 23.9795ZM18.2171 15.5208V23.9795H16.6195V15.5208H18.2171Z" fill="white"/>
<path d="M59.9583 21.7835C59.9583 21.6208 59.9332 21.4756 59.8828 21.3478C59.8363 21.2161 59.7492 21.098 59.6214 20.9934C59.4975 20.8849 59.3212 20.7804 59.0927 20.6797C58.8681 20.5751 58.5776 20.4667 58.2213 20.3543C57.8262 20.2304 57.4583 20.091 57.1175 19.9361C56.7767 19.7811 56.4765 19.601 56.217 19.3958C55.9614 19.1905 55.7619 18.9542 55.6186 18.687C55.4753 18.4159 55.4037 18.1022 55.4037 17.7459C55.4037 17.3973 55.4773 17.0797 55.6244 16.7931C55.7755 16.5065 55.9885 16.2605 56.2635 16.0553C56.5385 15.8461 56.8619 15.6854 57.2337 15.5731C57.6094 15.4608 58.0238 15.4046 58.4769 15.4046C59.1043 15.4046 59.6466 15.5189 60.1036 15.7474C60.5645 15.9759 60.9208 16.2857 61.1725 16.6769C61.4243 17.0681 61.5502 17.5077 61.5502 17.9957H59.9583C59.9583 17.7323 59.9022 17.4999 59.7899 17.2985C59.6814 17.0971 59.5149 16.9383 59.2903 16.8221C59.0695 16.7059 58.7906 16.6479 58.4537 16.6479C58.1283 16.6479 57.8572 16.6963 57.6403 16.7931C57.4273 16.8899 57.2666 17.0216 57.1582 17.1881C57.0536 17.3547 57.0013 17.5406 57.0013 17.7459C57.0013 17.9008 57.0381 18.0402 57.1117 18.1641C57.1853 18.2842 57.2956 18.3985 57.4428 18.5069C57.59 18.6115 57.772 18.7102 57.9889 18.8032C58.2097 18.8923 58.4653 18.9813 58.7558 19.0704C59.2205 19.2099 59.6272 19.3648 59.9758 19.5352C60.3282 19.7056 60.6206 19.8993 60.853 20.1161C61.0893 20.333 61.2655 20.577 61.3817 20.8481C61.5018 21.1193 61.5618 21.4272 61.5618 21.7719C61.5618 22.1359 61.4901 22.4613 61.3468 22.7479C61.2035 23.0345 60.9983 23.2785 60.731 23.4799C60.4638 23.6813 60.1423 23.8343 59.7666 23.9388C59.3948 24.0434 58.9785 24.0957 58.5176 24.0957C58.107 24.0957 57.7004 24.0415 57.2976 23.933C56.8987 23.8207 56.5365 23.6542 56.2112 23.4334C55.8859 23.2088 55.6264 22.926 55.4327 22.5852C55.2391 22.2405 55.1422 21.8377 55.1422 21.3768H56.7457C56.7457 21.6441 56.7883 21.8726 56.8735 22.0623C56.9626 22.2482 57.0865 22.4012 57.2453 22.5213C57.408 22.6375 57.5977 22.7227 57.8146 22.7769C58.0315 22.8311 58.2658 22.8583 58.5176 22.8583C58.8429 22.8583 59.1102 22.8137 59.3193 22.7246C59.5323 22.6317 59.6911 22.5039 59.7957 22.3412C59.9041 22.1785 59.9583 21.9926 59.9583 21.7835Z" fill="white"/>
<path d="M97.8023 15.5208V23.9795H96.2105V15.5208H97.8023ZM100.428 15.5208V16.7815H93.6137V15.5208H100.428Z" fill="white"/>
<path d="M136.935 22.7885L139.189 24.5779L138.167 25.4667L135.947 23.689L136.935 22.7885ZM139.23 19.5352V19.9709C139.23 20.61 139.145 21.1851 138.974 21.6963C138.804 22.2037 138.56 22.6356 138.242 22.9919C137.929 23.3482 137.555 23.6212 137.121 23.811C136.687 24.0008 136.207 24.0957 135.68 24.0957C135.157 24.0957 134.677 24.0008 134.239 23.811C133.806 23.6212 133.43 23.3482 133.112 22.9919C132.795 22.6356 132.549 22.2037 132.375 21.6963C132.2 21.1851 132.113 20.61 132.113 19.9709V19.5352C132.113 18.8923 132.198 18.3171 132.369 17.8098C132.543 17.3024 132.787 16.8705 133.101 16.5142C133.418 16.154 133.794 15.8791 134.228 15.6893C134.665 15.4995 135.146 15.4046 135.669 15.4046C136.195 15.4046 136.676 15.4995 137.109 15.6893C137.547 15.8791 137.923 16.154 138.236 16.5142C138.554 16.8705 138.798 17.3024 138.968 17.8098C139.143 18.3171 139.23 18.8923 139.23 19.5352ZM137.615 19.9709V19.5236C137.615 19.0627 137.572 18.658 137.487 18.3094C137.402 17.9569 137.274 17.6606 137.104 17.4205C136.937 17.1804 136.734 17.0003 136.494 16.8802C136.253 16.7563 135.978 16.6943 135.669 16.6943C135.363 16.6943 135.09 16.7563 134.849 16.8802C134.609 17.0003 134.406 17.1804 134.239 17.4205C134.073 17.6606 133.945 17.9569 133.856 18.3094C133.771 18.658 133.728 19.0627 133.728 19.5236V19.9709C133.728 20.4279 133.771 20.8327 133.856 21.1851C133.945 21.5375 134.073 21.8358 134.239 22.0798C134.41 22.3199 134.615 22.5019 134.855 22.6259C135.099 22.7498 135.374 22.8118 135.68 22.8118C135.99 22.8118 136.265 22.7498 136.505 22.6259C136.745 22.5019 136.947 22.3199 137.109 22.0798C137.276 21.8358 137.402 21.5375 137.487 21.1851C137.572 20.8327 137.615 20.4279 137.615 19.9709Z" fill="white"/>
<path d="M175.603 22.7885L177.857 24.5779L176.835 25.4667L174.615 23.689L175.603 22.7885ZM177.898 19.5352V19.9709C177.898 20.61 177.813 21.1851 177.642 21.6963C177.472 22.2037 177.228 22.6356 176.91 22.9919C176.596 23.3482 176.223 23.6212 175.789 23.811C175.355 24.0008 174.875 24.0957 174.348 24.0957C173.825 24.0957 173.345 24.0008 172.907 23.811C172.474 23.6212 172.098 23.3482 171.78 22.9919C171.463 22.6356 171.217 22.2037 171.043 21.6963C170.868 21.1851 170.781 20.61 170.781 19.9709V19.5352C170.781 18.8923 170.866 18.3171 171.037 17.8098C171.211 17.3024 171.455 16.8705 171.769 16.5142C172.086 16.154 172.462 15.8791 172.896 15.6893C173.333 15.4995 173.814 15.4046 174.337 15.4046C174.863 15.4046 175.344 15.4995 175.777 15.6893C176.215 15.8791 176.591 16.154 176.904 16.5142C177.222 16.8705 177.466 17.3024 177.636 17.8098C177.811 18.3171 177.898 18.8923 177.898 19.5352ZM176.283 19.9709V19.5236C176.283 19.0627 176.24 18.658 176.155 18.3094C176.07 17.9569 175.942 17.6606 175.772 17.4205C175.605 17.1804 175.402 17.0003 175.162 16.8802C174.921 16.7563 174.646 16.6943 174.337 16.6943C174.031 16.6943 173.758 16.7563 173.517 16.8802C173.277 17.0003 173.074 17.1804 172.907 17.4205C172.741 17.6606 172.613 17.9569 172.524 18.3094C172.439 18.658 172.396 19.0627 172.396 19.5236V19.9709C172.396 20.4279 172.439 20.8327 172.524 21.1851C172.613 21.5375 172.741 21.8358 172.907 22.0798C173.078 22.3199 173.283 22.5019 173.523 22.6259C173.767 22.7498 174.042 22.8118 174.348 22.8118C174.658 22.8118 174.933 22.7498 175.173 22.6259C175.413 22.5019 175.615 22.3199 175.777 22.0798C175.944 21.8358 176.07 21.5375 176.155 21.1851C176.24 20.8327 176.283 20.4279 176.283 19.9709Z" fill="white"/>
<path d="M214.632 21.7835C214.632 21.6208 214.607 21.4756 214.557 21.3478C214.51 21.2161 214.423 21.098 214.295 20.9934C214.171 20.8849 213.995 20.7804 213.767 20.6797C213.542 20.5751 213.251 20.4667 212.895 20.3543C212.5 20.2304 212.132 20.091 211.791 19.9361C211.45 19.7811 211.15 19.601 210.891 19.3958C210.635 19.1905 210.436 18.9542 210.292 18.687C210.149 18.4159 210.077 18.1022 210.077 17.7459C210.077 17.3973 210.151 17.0797 210.298 16.7931C210.449 16.5065 210.662 16.2605 210.937 16.0553C211.212 15.8461 211.536 15.6854 211.908 15.5731C212.283 15.4608 212.698 15.4046 213.151 15.4046C213.778 15.4046 214.32 15.5189 214.777 15.7474C215.238 15.9759 215.595 16.2857 215.846 16.6769C216.098 17.0681 216.224 17.5077 216.224 17.9957H214.632C214.632 17.7323 214.576 17.4999 214.464 17.2985C214.355 17.0971 214.189 16.9383 213.964 16.8221C213.743 16.7059 213.464 16.6479 213.128 16.6479C212.802 16.6479 212.531 16.6963 212.314 16.7931C212.101 16.8899 211.94 17.0216 211.832 17.1881C211.727 17.3547 211.675 17.5406 211.675 17.7459C211.675 17.9008 211.712 18.0402 211.786 18.1641C211.859 18.2842 211.969 18.3985 212.117 18.5069C212.264 18.6115 212.446 18.7102 212.663 18.8032C212.884 18.8923 213.139 18.9813 213.43 19.0704C213.894 19.2099 214.301 19.3648 214.65 19.5352C215.002 19.7056 215.294 19.8993 215.527 20.1161C215.763 20.333 215.939 20.577 216.056 20.8481C216.176 21.1193 216.236 21.4272 216.236 21.7719C216.236 22.1359 216.164 22.4613 216.021 22.7479C215.877 23.0345 215.672 23.2785 215.405 23.4799C215.138 23.6813 214.816 23.8343 214.44 23.9388C214.069 24.0434 213.652 24.0957 213.191 24.0957C212.781 24.0957 212.374 24.0415 211.971 23.933C211.572 23.8207 211.21 23.6542 210.885 23.4334C210.56 23.2088 210.3 22.926 210.107 22.5852C209.913 22.2405 209.816 21.8377 209.816 21.3768H211.42C211.42 21.6441 211.462 21.8726 211.547 22.0623C211.636 22.2482 211.76 22.4012 211.919 22.5213C212.082 22.6375 212.272 22.7227 212.488 22.7769C212.705 22.8311 212.94 22.8583 213.191 22.8583C213.517 22.8583 213.784 22.8137 213.993 22.7246C214.206 22.6317 214.365 22.5039 214.47 22.3412C214.578 22.1785 214.632 21.9926 214.632 21.7835Z" fill="white"/>
<path d="M253.3 21.7835C253.3 21.6208 253.275 21.4756 253.225 21.3478C253.178 21.2161 253.091 21.098 252.963 20.9934C252.839 20.8849 252.663 20.7804 252.435 20.6797C252.21 20.5751 251.919 20.4667 251.563 20.3543C251.168 20.2304 250.8 20.091 250.459 19.9361C250.118 19.7811 249.818 19.601 249.559 19.3958C249.303 19.1905 249.104 18.9542 248.96 18.687C248.817 18.4159 248.745 18.1022 248.745 17.7459C248.745 17.3973 248.819 17.0797 248.966 16.7931C249.117 16.5065 249.33 16.2605 249.605 16.0553C249.88 15.8461 250.204 15.6854 250.575 15.5731C250.951 15.4608 251.366 15.4046 251.819 15.4046C252.446 15.4046 252.988 15.5189 253.445 15.7474C253.906 15.9759 254.263 16.2857 254.514 16.6769C254.766 17.0681 254.892 17.5077 254.892 17.9957H253.3C253.3 17.7323 253.244 17.4999 253.132 17.2985C253.023 17.0971 252.857 16.9383 252.632 16.8221C252.411 16.7059 252.132 16.6479 251.795 16.6479C251.47 16.6479 251.199 16.6963 250.982 16.7931C250.769 16.8899 250.608 17.0216 250.5 17.1881C250.395 17.3547 250.343 17.5406 250.343 17.7459C250.343 17.9008 250.38 18.0402 250.453 18.1641C250.527 18.2842 250.637 18.3985 250.785 18.5069C250.932 18.6115 251.114 18.7102 251.331 18.8032C251.551 18.8923 251.807 18.9813 252.098 19.0704C252.562 19.2099 252.969 19.3648 253.318 19.5352C253.67 19.7056 253.962 19.8993 254.195 20.1161C254.431 20.333 254.607 20.577 254.723 20.8481C254.844 21.1193 254.904 21.4272 254.904 21.7719C254.904 22.1359 254.832 22.4613 254.689 22.7479C254.545 23.0345 254.34 23.2785 254.073 23.4799C253.806 23.6813 253.484 23.8343 253.108 23.9388C252.737 24.0434 252.32 24.0957 251.859 24.0957C251.449 24.0957 251.042 24.0415 250.639 23.933C250.24 23.8207 249.878 23.6542 249.553 23.4334C249.228 23.2088 248.968 22.926 248.775 22.5852C248.581 22.2405 248.484 21.8377 248.484 21.3768H250.087C250.087 21.6441 250.13 21.8726 250.215 22.0623C250.304 22.2482 250.428 22.4012 250.587 22.5213C250.75 22.6375 250.94 22.7227 251.156 22.7769C251.373 22.8311 251.608 22.8583 251.859 22.8583C252.185 22.8583 252.452 22.8137 252.661 22.7246C252.874 22.6317 253.033 22.5039 253.137 22.3412C253.246 22.1785 253.3 21.9926 253.3 21.7835Z" fill="white"/>
<rect width="38.6683" height="38.6683" transform="translate(193.694 38.75)" fill="#C30101"/>
<path d="M213.917 54.1428V62.6479H212.842V55.4848L210.675 56.2749V55.3047L213.748 54.1428H213.917Z" fill="white"/>
<rect width="38.6683" height="38.6683" transform="translate(232.362 38.75)" fill="black" fill-opacity="0.38"/>
<path d="M254.596 61.7649V62.6479H249.059V61.8753L251.831 58.7904C252.171 58.4109 252.435 58.0894 252.621 57.826C252.81 57.5588 252.942 57.3206 253.016 57.1115C253.093 56.8984 253.132 56.6815 253.132 56.4608C253.132 56.1819 253.074 55.9302 252.958 55.7055C252.845 55.477 252.679 55.295 252.458 55.1594C252.237 55.0239 251.97 54.9561 251.656 54.9561C251.281 54.9561 250.967 55.0297 250.715 55.1769C250.467 55.3202 250.281 55.5216 250.157 55.7811C250.033 56.0406 249.972 56.3388 249.972 56.6757H248.897C248.897 56.1994 249.001 55.7636 249.21 55.3686C249.42 54.9735 249.729 54.6598 250.14 54.4274C250.551 54.1912 251.056 54.0731 251.656 54.0731C252.191 54.0731 252.648 54.168 253.027 54.3577C253.407 54.5436 253.697 54.807 253.899 55.1478C254.104 55.4848 254.207 55.8798 254.207 56.333C254.207 56.5809 254.164 56.8326 254.079 57.0882C253.998 57.34 253.883 57.5917 253.736 57.8435C253.593 58.0952 253.424 58.3431 253.231 58.5871C253.041 58.8311 252.838 59.0712 252.621 59.3075L250.355 61.7649H254.596Z" fill="black"/>
<rect width="38.6683" height="38.6683" transform="translate(0.352539 77.4182)" fill="black" fill-opacity="0.38"/>
<path d="M18.6114 96.5581H19.3783C19.754 96.5581 20.0638 96.4962 20.3078 96.3722C20.5557 96.2444 20.7397 96.0721 20.8597 95.8552C20.9837 95.6344 21.0456 95.3866 21.0456 95.1116C21.0456 94.7862 20.9914 94.5132 20.883 94.2924C20.7745 94.0717 20.6119 93.9051 20.395 93.7928C20.1781 93.6805 19.9031 93.6243 19.57 93.6243C19.2679 93.6243 19.0007 93.6844 18.7683 93.8044C18.5398 93.9206 18.3597 94.0872 18.228 94.304C18.1002 94.5209 18.0363 94.7766 18.0363 95.0709H16.9615C16.9615 94.641 17.07 94.2498 17.2869 93.8974C17.5038 93.5449 17.8078 93.2641 18.199 93.055C18.594 92.8459 19.051 92.7413 19.57 92.7413C20.0813 92.7413 20.5286 92.8323 20.912 93.0143C21.2955 93.1925 21.5937 93.4597 21.8067 93.816C22.0197 94.1685 22.1262 94.6081 22.1262 95.1348C22.1262 95.3478 22.0759 95.5763 21.9752 95.8203C21.8783 96.0605 21.7254 96.2851 21.5162 96.4942C21.3109 96.7034 21.0437 96.8757 20.7145 97.0113C20.3853 97.143 19.9902 97.2088 19.5294 97.2088H18.6114V96.5581ZM18.6114 97.4412V96.7963H19.5294C20.0677 96.7963 20.5131 96.8602 20.8656 96.9881C21.218 97.1159 21.4949 97.2863 21.6963 97.4993C21.9016 97.7123 22.0449 97.9466 22.1262 98.2022C22.2114 98.454 22.254 98.7057 22.254 98.9575C22.254 99.3525 22.1863 99.703 22.0507 100.009C21.919 100.315 21.7312 100.574 21.4872 100.787C21.247 101.001 20.9643 101.161 20.639 101.27C20.3136 101.378 19.9593 101.432 19.5758 101.432C19.2079 101.432 18.8613 101.38 18.5359 101.275C18.2145 101.171 17.9298 101.02 17.6819 100.822C17.434 100.621 17.2404 100.375 17.101 100.085C16.9615 99.7902 16.8918 99.4552 16.8918 99.0795H17.9666C17.9666 99.3738 18.0305 99.6314 18.1583 99.8522C18.29 100.073 18.4759 100.245 18.716 100.369C18.96 100.489 19.2466 100.549 19.5758 100.549C19.905 100.549 20.1878 100.493 20.424 100.381C20.6642 100.265 20.8481 100.09 20.9759 99.858C21.1076 99.6256 21.1735 99.3332 21.1735 98.9807C21.1735 98.6283 21.0999 98.3397 20.9527 98.1151C20.8055 97.8866 20.5964 97.7181 20.3253 97.6097C20.058 97.4974 19.7424 97.4412 19.3783 97.4412H18.6114Z" fill="black"/>
<rect width="38.6683" height="38.6683" transform="translate(39.0205 77.4182)" fill="#E16D02"/>
<path d="M61.4274 98.4695V99.3525H55.3158V98.7193L59.1036 92.8575H59.9809L59.0397 94.5539L56.5358 98.4695H61.4274ZM60.2481 92.8575V101.316H59.1733V92.8575H60.2481Z" fill="white"/>
<rect width="38.6683" height="38.6683" transform="translate(77.6895 77.4182)" fill="black" fill-opacity="0.05"/>
<path d="M95.7392 97.2901L94.8794 97.0694L95.3035 92.8575H99.6432V93.8509H96.2156L95.96 96.1515C96.1149 96.0624 96.3105 95.9791 96.5467 95.9017C96.7869 95.8242 97.0619 95.7855 97.3717 95.7855C97.7629 95.7855 98.1134 95.8533 98.4232 95.9888C98.7331 96.1205 98.9964 96.3103 99.2133 96.5581C99.4341 96.806 99.6026 97.1042 99.7188 97.4528C99.8349 97.8014 99.893 98.1906 99.893 98.6205C99.893 99.0272 99.8369 99.4009 99.7246 99.7418C99.6161 100.083 99.4515 100.381 99.2308 100.636C99.01 100.888 98.7311 101.084 98.3942 101.223C98.0611 101.363 97.668 101.432 97.2148 101.432C96.874 101.432 96.5506 101.386 96.2446 101.293C95.9426 101.196 95.6714 101.051 95.4313 100.857C95.1951 100.66 95.0014 100.416 94.8504 100.125C94.7032 99.8309 94.6102 99.4862 94.5715 99.0911H95.594C95.6405 99.4087 95.7334 99.6759 95.8728 99.8928C96.0123 100.11 96.1943 100.274 96.4189 100.387C96.6474 100.495 96.9127 100.549 97.2148 100.549C97.4705 100.549 97.697 100.505 97.8946 100.416C98.0921 100.327 98.2586 100.199 98.3942 100.032C98.5297 99.8657 98.6324 99.6643 98.7021 99.4281C98.7757 99.1918 98.8125 98.9265 98.8125 98.6322C98.8125 98.3649 98.7757 98.117 98.7021 97.8885C98.6285 97.66 98.5181 97.4606 98.3709 97.2901C98.2276 97.1197 98.0514 96.9881 97.8423 96.8951C97.6331 96.7983 97.393 96.7499 97.1219 96.7499C96.7617 96.7499 96.4886 96.7983 96.3027 96.8951C96.1207 96.9919 95.9329 97.1236 95.7392 97.2901Z" fill="black"/>
<rect width="38.6683" height="38.6683" transform="translate(116.357 77.4182)" fill="black" fill-opacity="0.05"/>
<path d="M137.174 92.8459H137.266V93.7579H137.174C136.604 93.7579 136.128 93.8509 135.744 94.0368C135.361 94.2188 135.057 94.4648 134.832 94.7746C134.608 95.0806 134.445 95.4253 134.344 95.8087C134.247 96.1921 134.199 96.5814 134.199 96.9764V98.2197C134.199 98.5954 134.244 98.9284 134.333 99.2189C134.422 99.5055 134.544 99.7476 134.699 99.9451C134.854 100.143 135.028 100.292 135.221 100.392C135.419 100.493 135.624 100.543 135.837 100.543C136.085 100.543 136.306 100.497 136.5 100.404C136.693 100.307 136.856 100.174 136.988 100.003C137.123 99.8289 137.226 99.6236 137.296 99.3874C137.365 99.1511 137.4 98.8916 137.4 98.6089C137.4 98.3572 137.369 98.1151 137.307 97.8827C137.245 97.6465 137.15 97.4373 137.022 97.2553C136.895 97.0694 136.734 96.9241 136.54 96.8196C136.35 96.7111 136.124 96.6569 135.861 96.6569C135.562 96.6569 135.283 96.7305 135.024 96.8777C134.768 97.021 134.557 97.2108 134.391 97.447C134.228 97.6794 134.135 97.9331 134.112 98.2081L133.543 98.2022C133.597 97.7685 133.697 97.3986 133.845 97.0926C133.996 96.7828 134.182 96.531 134.402 96.3374C134.627 96.1399 134.877 95.9966 135.152 95.9075C135.431 95.8145 135.725 95.768 136.035 95.768C136.457 95.768 136.821 95.8474 137.127 96.0062C137.433 96.165 137.685 96.3781 137.882 96.6453C138.08 96.9087 138.225 97.2069 138.318 97.54C138.415 97.8692 138.463 98.2081 138.463 98.5566C138.463 98.9556 138.407 99.3293 138.295 99.6779C138.182 100.026 138.014 100.332 137.789 100.596C137.569 100.859 137.296 101.064 136.97 101.212C136.645 101.359 136.267 101.432 135.837 101.432C135.38 101.432 134.981 101.339 134.641 101.153C134.3 100.964 134.017 100.712 133.792 100.398C133.568 100.085 133.399 99.736 133.287 99.3525C133.175 98.9691 133.118 98.5799 133.118 98.1848V97.6794C133.118 97.0829 133.178 96.4981 133.299 95.9249C133.419 95.3517 133.626 94.8327 133.92 94.368C134.218 93.9032 134.631 93.5333 135.158 93.2583C135.684 92.9833 136.356 92.8459 137.174 92.8459Z" fill="black"/>
<rect width="38.6683" height="38.6683" transform="translate(155.025 77.4182)" fill="black" fill-opacity="0.05"/>
<path d="M177.183 92.8575V93.4617L173.679 101.316H172.546L176.044 93.7405H171.466V92.8575H177.183Z" fill="black"/>
<rect width="38.6683" height="38.6683" transform="translate(193.694 77.4182)" fill="black" fill-opacity="0.05"/>
<path d="M215.718 99.0272C215.718 99.5423 215.598 99.98 215.358 100.34C215.121 100.696 214.8 100.968 214.393 101.153C213.99 101.339 213.535 101.432 213.028 101.432C212.521 101.432 212.064 101.339 211.657 101.153C211.25 100.968 210.929 100.696 210.693 100.34C210.456 99.98 210.338 99.5423 210.338 99.0272C210.338 98.6902 210.402 98.3823 210.53 98.1035C210.662 97.8208 210.846 97.5748 211.082 97.3657C211.322 97.1565 211.605 96.9958 211.93 96.8835C212.259 96.7673 212.621 96.7092 213.016 96.7092C213.535 96.7092 213.998 96.8099 214.405 97.0113C214.812 97.2088 215.131 97.4819 215.363 97.8304C215.6 98.179 215.718 98.5779 215.718 99.0272ZM214.637 99.004C214.637 98.6902 214.569 98.4133 214.434 98.1732C214.298 97.9292 214.109 97.7394 213.865 97.6039C213.621 97.4683 213.338 97.4005 213.016 97.4005C212.687 97.4005 212.403 97.4683 212.162 97.6039C211.926 97.7394 211.742 97.9292 211.61 98.1732C211.479 98.4133 211.413 98.6902 211.413 99.004C211.413 99.3293 211.477 99.6082 211.605 99.8405C211.736 100.069 211.922 100.245 212.162 100.369C212.406 100.489 212.695 100.549 213.028 100.549C213.361 100.549 213.648 100.489 213.888 100.369C214.128 100.245 214.312 100.069 214.44 99.8405C214.571 99.6082 214.637 99.3293 214.637 99.004ZM215.52 95.0593C215.52 95.4698 215.412 95.8397 215.195 96.1689C214.978 96.4981 214.682 96.7576 214.306 96.9474C213.93 97.1372 213.504 97.2321 213.028 97.2321C212.544 97.2321 212.112 97.1372 211.732 96.9474C211.357 96.7576 211.062 96.4981 210.849 96.1689C210.636 95.8397 210.53 95.4698 210.53 95.0593C210.53 94.5674 210.636 94.1491 210.849 93.8044C211.066 93.4597 211.363 93.1964 211.738 93.0143C212.114 92.8323 212.542 92.7413 213.022 92.7413C213.506 92.7413 213.936 92.8323 214.312 93.0143C214.688 93.1964 214.982 93.4597 215.195 93.8044C215.412 94.1491 215.52 94.5674 215.52 95.0593ZM214.446 95.0767C214.446 94.794 214.386 94.5442 214.265 94.3273C214.145 94.1104 213.979 93.94 213.766 93.816C213.553 93.6882 213.305 93.6243 213.022 93.6243C212.739 93.6243 212.492 93.6844 212.279 93.8044C212.069 93.9206 211.905 94.0872 211.785 94.304C211.669 94.5209 211.61 94.7785 211.61 95.0767C211.61 95.3672 211.669 95.6209 211.785 95.8378C211.905 96.0547 212.071 96.2231 212.284 96.3432C212.497 96.4633 212.745 96.5233 213.028 96.5233C213.311 96.5233 213.557 96.4633 213.766 96.3432C213.979 96.2231 214.145 96.0547 214.265 95.8378C214.386 95.6209 214.446 95.3672 214.446 95.0767Z" fill="black"/>
<rect width="38.6683" height="38.6683" transform="translate(232.362 77.4182)" fill="black" fill-opacity="0.38"/>
<path d="M250.123 100.416H250.233C250.853 100.416 251.356 100.329 251.743 100.154C252.131 99.98 252.429 99.7456 252.638 99.4513C252.847 99.1569 252.991 98.8258 253.068 98.4579C253.145 98.0861 253.184 97.7046 253.184 97.3134V96.0179C253.184 95.6344 253.14 95.2936 253.051 94.9954C252.965 94.6972 252.845 94.4473 252.69 94.2459C252.539 94.0446 252.367 93.8916 252.173 93.787C251.98 93.6824 251.774 93.6301 251.558 93.6301C251.31 93.6301 251.087 93.6805 250.889 93.7812C250.696 93.878 250.531 94.0155 250.396 94.1937C250.264 94.3718 250.163 94.581 250.094 94.8211C250.024 95.0612 249.989 95.3227 249.989 95.6054C249.989 95.8571 250.02 96.1011 250.082 96.3374C250.144 96.5736 250.239 96.7867 250.367 96.9764C250.494 97.1662 250.653 97.3173 250.843 97.4296C251.037 97.538 251.263 97.5922 251.523 97.5922C251.763 97.5922 251.987 97.5458 252.197 97.4528C252.41 97.356 252.597 97.2262 252.76 97.0636C252.927 96.897 253.058 96.7092 253.155 96.5001C253.256 96.2909 253.314 96.0721 253.329 95.8436H253.841C253.841 96.165 253.777 96.4826 253.649 96.7963C253.525 97.1062 253.351 97.3889 253.126 97.6445C252.901 97.9002 252.638 98.1054 252.336 98.2603C252.034 98.4114 251.705 98.4869 251.348 98.4869C250.93 98.4869 250.568 98.4056 250.262 98.2429C249.956 98.0802 249.704 97.8634 249.507 97.5922C249.313 97.3211 249.168 97.019 249.071 96.686C248.978 96.349 248.932 96.0082 248.932 95.6635C248.932 95.2607 248.988 94.8831 249.1 94.5306C249.212 94.1782 249.379 93.8683 249.6 93.6011C249.82 93.33 250.094 93.1189 250.419 92.9679C250.748 92.8168 251.128 92.7413 251.558 92.7413C252.042 92.7413 252.454 92.8381 252.795 93.0318C253.136 93.2254 253.413 93.4849 253.626 93.8102C253.843 94.1356 254.001 94.5016 254.102 94.9082C254.203 95.3149 254.253 95.7332 254.253 96.1631V96.5523C254.253 96.99 254.224 97.4354 254.166 97.8885C254.112 98.3378 254.005 98.7677 253.846 99.1783C253.692 99.5888 253.465 99.9567 253.167 100.282C252.869 100.604 252.479 100.859 251.999 101.049C251.523 101.235 250.934 101.328 250.233 101.328H250.123V100.416Z" fill="black"/>
<rect width="38.6683" height="38.6683" transform="translate(0.352539 116.086)" fill="black" fill-opacity="0.38"/>
<path d="M17.1693 131.479V139.984H16.0945V132.821L13.9276 133.611V132.641L17.0008 131.479H17.1693ZM25.7586 135.081V136.371C25.7586 137.064 25.6966 137.649 25.5727 138.125C25.4487 138.602 25.2706 138.985 25.0382 139.276C24.8058 139.566 24.525 139.777 24.1958 139.909C23.8705 140.037 23.5025 140.101 23.092 140.101C22.7667 140.101 22.4665 140.06 22.1915 139.979C21.9165 139.897 21.6687 139.767 21.4479 139.589C21.231 139.407 21.0451 139.171 20.8902 138.881C20.7353 138.59 20.6171 138.238 20.5358 137.823C20.4545 137.409 20.4138 136.925 20.4138 136.371V135.081C20.4138 134.388 20.4758 133.807 20.5997 133.338C20.7275 132.87 20.9076 132.494 21.14 132.211C21.3724 131.925 21.6512 131.719 21.9766 131.595C22.3058 131.471 22.6737 131.409 23.0804 131.409C23.4096 131.409 23.7117 131.45 23.9867 131.531C24.2655 131.609 24.5134 131.735 24.7303 131.909C24.9472 132.08 25.1311 132.308 25.2822 132.595C25.4371 132.877 25.5552 133.224 25.6366 133.635C25.7179 134.045 25.7586 134.527 25.7586 135.081ZM24.678 136.545V134.901C24.678 134.521 24.6548 134.188 24.6083 133.902C24.5657 133.611 24.5018 133.363 24.4166 133.158C24.3314 132.953 24.2229 132.786 24.0912 132.659C23.9634 132.531 23.8143 132.438 23.6439 132.38C23.4774 132.318 23.2895 132.287 23.0804 132.287C22.8248 132.287 22.5982 132.335 22.4007 132.432C22.2031 132.525 22.0366 132.674 21.901 132.879C21.7694 133.085 21.6687 133.354 21.5989 133.687C21.5292 134.02 21.4944 134.425 21.4944 134.901V136.545C21.4944 136.925 21.5157 137.26 21.5583 137.55C21.6048 137.841 21.6725 138.092 21.7616 138.305C21.8507 138.515 21.9591 138.687 22.0869 138.822C22.2148 138.958 22.3619 139.059 22.5285 139.125C22.6989 139.187 22.8867 139.218 23.092 139.218C23.3554 139.218 23.5858 139.167 23.7833 139.066C23.9809 138.966 24.1455 138.809 24.2771 138.596C24.4127 138.379 24.5134 138.102 24.5792 137.765C24.6451 137.424 24.678 137.018 24.678 136.545Z" fill="black"/>
<rect width="38.6683" height="38.6683" transform="translate(39.0205 116.086)" fill="black" fill-opacity="0.05"/>
<path d="M55.8373 131.479V139.984H54.7625V132.821L52.5955 133.611V132.641L55.6688 131.479H55.8373ZM62.6488 131.479V139.984H61.5741V132.821L59.4071 133.611V132.641L62.4804 131.479H62.6488Z" fill="black"/>
<rect width="38.6683" height="38.6683" transform="translate(77.6895 116.086)" fill="black" fill-opacity="0.05"/>
<path d="M94.5062 131.479V139.984H93.4314V132.821L91.2645 133.611V132.641L94.3377 131.479H94.5062ZM103.328 139.101V139.984H97.7914V139.212L100.563 136.127C100.903 135.747 101.167 135.426 101.353 135.162C101.542 134.895 101.674 134.657 101.748 134.448C101.825 134.235 101.864 134.018 101.864 133.797C101.864 133.518 101.806 133.267 101.69 133.042C101.577 132.813 101.411 132.631 101.19 132.496C100.969 132.36 100.702 132.293 100.388 132.293C100.013 132.293 99.6988 132.366 99.4471 132.513C99.1992 132.657 99.0133 132.858 98.8894 133.117C98.7654 133.377 98.7035 133.675 98.7035 134.012H97.6287C97.6287 133.536 97.7333 133.1 97.9424 132.705C98.1516 132.31 98.4614 131.996 98.872 131.764C99.2825 131.528 99.7879 131.409 100.388 131.409C100.923 131.409 101.38 131.504 101.759 131.694C102.139 131.88 102.429 132.143 102.631 132.484C102.836 132.821 102.939 133.216 102.939 133.669C102.939 133.917 102.896 134.169 102.811 134.425C102.729 134.676 102.615 134.928 102.468 135.18C102.325 135.432 102.156 135.68 101.963 135.924C101.773 136.168 101.57 136.408 101.353 136.644L99.0869 139.101H103.328Z" fill="black"/>
<rect width="38.6683" height="38.6683" transform="translate(116.357 116.086)" fill="black" fill-opacity="0.05"/>
<path d="M133.175 131.479V139.984H132.1V132.821L129.933 133.611V132.641L133.007 131.479H133.175ZM138.023 135.226H138.79C139.166 135.226 139.475 135.164 139.719 135.04C139.967 134.913 140.151 134.74 140.271 134.523C140.395 134.303 140.457 134.055 140.457 133.78C140.457 133.454 140.403 133.181 140.295 132.961C140.186 132.74 140.024 132.573 139.807 132.461C139.59 132.349 139.315 132.293 138.982 132.293C138.68 132.293 138.412 132.353 138.18 132.473C137.951 132.589 137.771 132.755 137.64 132.972C137.512 133.189 137.448 133.445 137.448 133.739H136.373C136.373 133.309 136.482 132.918 136.699 132.566C136.915 132.213 137.219 131.932 137.611 131.723C138.006 131.514 138.463 131.409 138.982 131.409C139.493 131.409 139.94 131.501 140.324 131.683C140.707 131.861 141.005 132.128 141.218 132.484C141.431 132.837 141.538 133.276 141.538 133.803C141.538 134.016 141.488 134.245 141.387 134.489C141.29 134.729 141.137 134.953 140.928 135.162C140.723 135.372 140.455 135.544 140.126 135.68C139.797 135.811 139.402 135.877 138.941 135.877H138.023V135.226ZM138.023 136.109V135.465H138.941C139.479 135.465 139.925 135.528 140.277 135.656C140.63 135.784 140.907 135.954 141.108 136.168C141.313 136.381 141.457 136.615 141.538 136.87C141.623 137.122 141.666 137.374 141.666 137.626C141.666 138.021 141.598 138.371 141.462 138.677C141.331 138.983 141.143 139.243 140.899 139.456C140.659 139.669 140.376 139.829 140.051 139.938C139.725 140.046 139.371 140.101 138.987 140.101C138.62 140.101 138.273 140.048 137.948 139.944C137.626 139.839 137.341 139.688 137.094 139.491C136.846 139.289 136.652 139.043 136.513 138.753C136.373 138.458 136.303 138.123 136.303 137.748H137.378C137.378 138.042 137.442 138.3 137.57 138.52C137.702 138.741 137.888 138.913 138.128 139.037C138.372 139.157 138.658 139.218 138.987 139.218C139.317 139.218 139.599 139.161 139.836 139.049C140.076 138.933 140.26 138.759 140.388 138.526C140.519 138.294 140.585 138.001 140.585 137.649C140.585 137.296 140.512 137.008 140.364 136.783C140.217 136.555 140.008 136.386 139.737 136.278C139.47 136.166 139.154 136.109 138.79 136.109H138.023Z" fill="black"/>
<rect width="38.6683" height="38.6683" transform="translate(155.025 116.086)" fill="black" fill-opacity="0.05"/>
<path d="M171.842 131.479V139.984H170.767V132.821L168.6 133.611V132.641L171.674 131.479H171.842ZM180.838 137.138V138.021H174.726V137.388L178.514 131.526H179.392L178.45 133.222L175.946 137.138H180.838ZM179.659 131.526V139.984H178.584V131.526H179.659Z" fill="black"/>
<rect width="38.6683" height="38.6683" transform="translate(193.694 116.086)" fill="black" fill-opacity="0.05"/>
<path d="M210.511 131.479V139.984H209.436V132.821L207.269 133.611V132.641L210.343 131.479H210.511ZM215.15 135.958L214.29 135.738L214.714 131.526H219.054V132.519H215.626L215.371 134.82C215.526 134.731 215.721 134.647 215.957 134.57C216.198 134.492 216.473 134.454 216.782 134.454C217.174 134.454 217.524 134.521 217.834 134.657C218.144 134.789 218.407 134.978 218.624 135.226C218.845 135.474 219.013 135.772 219.129 136.121C219.246 136.47 219.304 136.859 219.304 137.289C219.304 137.695 219.248 138.069 219.135 138.41C219.027 138.751 218.862 139.049 218.641 139.305C218.421 139.556 218.142 139.752 217.805 139.891C217.472 140.031 217.079 140.101 216.626 140.101C216.285 140.101 215.961 140.054 215.655 139.961C215.353 139.864 215.082 139.719 214.842 139.525C214.606 139.328 214.412 139.084 214.261 138.793C214.114 138.499 214.021 138.154 213.982 137.759H215.005C215.051 138.077 215.144 138.344 215.284 138.561C215.423 138.778 215.605 138.943 215.83 139.055C216.058 139.163 216.323 139.218 216.626 139.218C216.881 139.218 217.108 139.173 217.305 139.084C217.503 138.995 217.669 138.867 217.805 138.7C217.94 138.534 218.043 138.333 218.113 138.096C218.186 137.86 218.223 137.595 218.223 137.3C218.223 137.033 218.186 136.785 218.113 136.557C218.039 136.328 217.929 136.129 217.782 135.958C217.638 135.788 217.462 135.656 217.253 135.563C217.044 135.466 216.804 135.418 216.533 135.418C216.172 135.418 215.899 135.466 215.713 135.563C215.531 135.66 215.344 135.792 215.15 135.958Z" fill="black"/>
<rect width="38.6683" height="38.6683" transform="translate(232.362 116.086)" fill="black" fill-opacity="0.38"/>
<path d="M249.18 131.479V139.984H248.105V132.821L245.938 133.611V132.641L249.012 131.479H249.18ZM256.584 131.514H256.677V132.426H256.584C256.015 132.426 255.538 132.519 255.155 132.705C254.772 132.887 254.468 133.133 254.243 133.443C254.018 133.749 253.856 134.093 253.755 134.477C253.658 134.86 253.61 135.25 253.61 135.645V136.888C253.61 137.264 253.654 137.597 253.743 137.887C253.832 138.174 253.954 138.416 254.109 138.613C254.264 138.811 254.439 138.96 254.632 139.061C254.83 139.161 255.035 139.212 255.248 139.212C255.496 139.212 255.717 139.165 255.91 139.072C256.104 138.975 256.267 138.842 256.398 138.671C256.534 138.497 256.636 138.292 256.706 138.056C256.776 137.819 256.811 137.56 256.811 137.277C256.811 137.025 256.78 136.783 256.718 136.551C256.656 136.315 256.561 136.106 256.433 135.924C256.305 135.738 256.145 135.592 255.951 135.488C255.761 135.379 255.535 135.325 255.271 135.325C254.973 135.325 254.694 135.399 254.435 135.546C254.179 135.689 253.968 135.879 253.801 136.115C253.639 136.348 253.546 136.601 253.523 136.876L252.953 136.87C253.007 136.437 253.108 136.067 253.255 135.761C253.406 135.451 253.592 135.199 253.813 135.006C254.038 134.808 254.287 134.665 254.562 134.576C254.841 134.483 255.136 134.436 255.446 134.436C255.868 134.436 256.232 134.516 256.538 134.674C256.844 134.833 257.095 135.046 257.293 135.314C257.49 135.577 257.636 135.875 257.729 136.208C257.825 136.537 257.874 136.876 257.874 137.225C257.874 137.624 257.818 137.998 257.705 138.346C257.593 138.695 257.425 139.001 257.2 139.264C256.979 139.527 256.706 139.733 256.381 139.88C256.056 140.027 255.678 140.101 255.248 140.101C254.791 140.101 254.392 140.008 254.051 139.822C253.71 139.632 253.428 139.38 253.203 139.066C252.978 138.753 252.81 138.404 252.698 138.021C252.585 137.637 252.529 137.248 252.529 136.853V136.348C252.529 135.751 252.589 135.166 252.709 134.593C252.829 134.02 253.036 133.501 253.331 133.036C253.629 132.571 254.042 132.202 254.568 131.927C255.095 131.652 255.767 131.514 256.584 131.514Z" fill="black"/>
<rect width="38.6683" height="38.6683" transform="translate(0.352539 154.755)" fill="black" fill-opacity="0.38"/>
<path d="M17.1693 170.148V178.653H16.0945V171.49L13.9276 172.28V171.31L17.0008 170.148H17.1693ZM25.9154 170.194V170.798L22.4123 178.653H21.2794L24.7768 171.077H20.1988V170.194H25.9154Z" fill="black"/>
<rect width="38.6683" height="38.6683" transform="translate(39.0205 154.755)" fill="black" fill-opacity="0.05"/>
<path d="M55.8373 170.148V178.653H54.7625V171.49L52.5955 172.28V171.31L55.6688 170.148H55.8373ZM64.4498 176.364C64.4498 176.879 64.3297 177.317 64.0896 177.677C63.8533 178.033 63.5319 178.304 63.1252 178.49C62.7224 178.676 62.2673 178.769 61.76 178.769C61.2526 178.769 60.7956 178.676 60.3889 178.49C59.9822 178.304 59.6608 178.033 59.4245 177.677C59.1883 177.317 59.0702 176.879 59.0702 176.364C59.0702 176.027 59.1341 175.719 59.2619 175.44C59.3935 175.157 59.5775 174.911 59.8138 174.702C60.0539 174.493 60.3366 174.332 60.662 174.22C60.9912 174.104 61.3533 174.046 61.7483 174.046C62.2673 174.046 62.7302 174.147 63.1368 174.348C63.5435 174.545 63.863 174.819 64.0954 175.167C64.3317 175.516 64.4498 175.915 64.4498 176.364ZM63.3692 176.341C63.3692 176.027 63.3014 175.75 63.1659 175.51C63.0303 175.266 62.8405 175.076 62.5965 174.941C62.3525 174.805 62.0698 174.737 61.7483 174.737C61.4191 174.737 61.1345 174.805 60.8943 174.941C60.6581 175.076 60.4741 175.266 60.3424 175.51C60.2108 175.75 60.1449 176.027 60.1449 176.341C60.1449 176.666 60.2088 176.945 60.3366 177.177C60.4683 177.406 60.6542 177.582 60.8943 177.706C61.1383 177.826 61.4269 177.886 61.76 177.886C62.093 177.886 62.3797 177.826 62.6198 177.706C62.8599 177.582 63.0439 177.406 63.1717 177.177C63.3034 176.945 63.3692 176.666 63.3692 176.341ZM64.2523 172.396C64.2523 172.806 64.1438 173.176 63.9269 173.506C63.71 173.835 63.4138 174.094 63.0381 174.284C62.6624 174.474 62.2364 174.569 61.76 174.569C61.2758 174.569 60.844 174.474 60.4644 174.284C60.0888 174.094 59.7944 173.835 59.5814 173.506C59.3684 173.176 59.2619 172.806 59.2619 172.396C59.2619 171.904 59.3684 171.486 59.5814 171.141C59.7983 170.796 60.0946 170.533 60.4702 170.351C60.8459 170.169 61.2739 170.078 61.7542 170.078C62.2383 170.078 62.6682 170.169 63.0439 170.351C63.4196 170.533 63.7139 170.796 63.9269 171.141C64.1438 171.486 64.2523 171.904 64.2523 172.396ZM63.1775 172.413C63.1775 172.131 63.1175 171.881 62.9974 171.664C62.8773 171.447 62.7108 171.277 62.4978 171.153C62.2848 171.025 62.0369 170.961 61.7542 170.961C61.4714 170.961 61.2236 171.021 61.0105 171.141C60.8014 171.257 60.6368 171.424 60.5167 171.641C60.4005 171.858 60.3424 172.115 60.3424 172.413C60.3424 172.704 60.4005 172.958 60.5167 173.174C60.6368 173.391 60.8033 173.56 61.0163 173.68C61.2294 173.8 61.4772 173.86 61.76 173.86C62.0427 173.86 62.2886 173.8 62.4978 173.68C62.7108 173.56 62.8773 173.391 62.9974 173.174C63.1175 172.958 63.1775 172.704 63.1775 172.413Z" fill="black"/>
<rect width="38.6683" height="38.6683" transform="translate(77.6895 154.755)" fill="black" fill-opacity="0.05"/>
<path d="M94.5062 170.148V178.653H93.4314V171.49L91.2645 172.28V171.31L94.3377 170.148H94.5062ZM98.8545 177.752H98.9649C99.5846 177.752 100.088 177.665 100.475 177.491C100.863 177.317 101.161 177.082 101.37 176.788C101.579 176.494 101.723 176.162 101.8 175.795C101.877 175.423 101.916 175.041 101.916 174.65V173.355C101.916 172.971 101.872 172.63 101.783 172.332C101.697 172.034 101.577 171.784 101.422 171.583C101.271 171.381 101.099 171.228 100.905 171.124C100.712 171.019 100.506 170.967 100.289 170.967C100.042 170.967 99.8189 171.017 99.6214 171.118C99.4277 171.215 99.2631 171.352 99.1276 171.53C98.9959 171.708 98.8952 171.918 98.8255 172.158C98.7558 172.398 98.7209 172.659 98.7209 172.942C98.7209 173.194 98.7519 173.438 98.8139 173.674C98.8758 173.91 98.9707 174.123 99.0985 174.313C99.2263 174.503 99.3851 174.654 99.5749 174.766C99.7686 174.875 99.9951 174.929 100.255 174.929C100.495 174.929 100.719 174.882 100.929 174.789C101.142 174.693 101.329 174.563 101.492 174.4C101.659 174.234 101.79 174.046 101.887 173.837C101.988 173.628 102.046 173.409 102.061 173.18H102.573C102.573 173.502 102.509 173.819 102.381 174.133C102.257 174.443 102.083 174.726 101.858 174.981C101.633 175.237 101.37 175.442 101.068 175.597C100.766 175.748 100.437 175.824 100.08 175.824C99.6621 175.824 99.2999 175.742 98.994 175.58C98.688 175.417 98.4362 175.2 98.2387 174.929C98.0451 174.658 97.8998 174.356 97.803 174.023C97.71 173.686 97.6636 173.345 97.6636 173C97.6636 172.597 97.7197 172.22 97.832 171.867C97.9444 171.515 98.1109 171.205 98.3317 170.938C98.5524 170.667 98.8255 170.456 99.1508 170.305C99.48 170.153 99.8596 170.078 100.289 170.078C100.774 170.078 101.186 170.175 101.527 170.368C101.868 170.562 102.145 170.822 102.358 171.147C102.575 171.472 102.733 171.838 102.834 172.245C102.935 172.652 102.985 173.07 102.985 173.5V173.889C102.985 174.327 102.956 174.772 102.898 175.225C102.844 175.674 102.737 176.104 102.578 176.515C102.424 176.925 102.197 177.293 101.899 177.619C101.601 177.94 101.211 178.196 100.731 178.386C100.255 178.571 99.6659 178.664 98.9649 178.664H98.8545V177.752Z" fill="black"/>
<rect width="38.6683" height="38.6683" transform="translate(116.357 154.755)" fill="black" fill-opacity="0.05"/>
<path d="M135.185 177.77V178.653H129.649V177.88L132.42 174.795C132.761 174.416 133.024 174.094 133.21 173.831C133.4 173.564 133.531 173.325 133.605 173.116C133.683 172.903 133.721 172.686 133.721 172.466C133.721 172.187 133.663 171.935 133.547 171.71C133.435 171.482 133.268 171.3 133.047 171.164C132.827 171.029 132.559 170.961 132.246 170.961C131.87 170.961 131.556 171.035 131.304 171.182C131.057 171.325 130.871 171.526 130.747 171.786C130.623 172.045 130.561 172.344 130.561 172.681H129.486C129.486 172.204 129.591 171.769 129.8 171.373C130.009 170.978 130.319 170.665 130.729 170.432C131.14 170.196 131.645 170.078 132.246 170.078C132.78 170.078 133.237 170.173 133.617 170.363C133.996 170.549 134.287 170.812 134.488 171.153C134.693 171.49 134.796 171.885 134.796 172.338C134.796 172.586 134.753 172.837 134.668 173.093C134.587 173.345 134.473 173.597 134.325 173.848C134.182 174.1 134.014 174.348 133.82 174.592C133.63 174.836 133.427 175.076 133.21 175.312L130.944 177.77H135.185ZM141.764 173.75V175.039C141.764 175.733 141.702 176.317 141.579 176.794C141.455 177.27 141.276 177.654 141.044 177.944C140.812 178.235 140.531 178.446 140.202 178.577C139.876 178.705 139.508 178.769 139.098 178.769C138.773 178.769 138.472 178.728 138.197 178.647C137.922 178.566 137.675 178.436 137.454 178.258C137.237 178.076 137.051 177.839 136.896 177.549C136.741 177.259 136.623 176.906 136.542 176.492C136.46 176.077 136.42 175.593 136.42 175.039V173.75C136.42 173.056 136.482 172.475 136.606 172.007C136.733 171.538 136.913 171.162 137.146 170.88C137.378 170.593 137.657 170.388 137.982 170.264C138.312 170.14 138.68 170.078 139.086 170.078C139.415 170.078 139.718 170.119 139.993 170.2C140.271 170.277 140.519 170.403 140.736 170.578C140.953 170.748 141.137 170.976 141.288 171.263C141.443 171.546 141.561 171.892 141.642 172.303C141.724 172.714 141.764 173.196 141.764 173.75ZM140.684 175.214V173.569C140.684 173.19 140.661 172.857 140.614 172.57C140.572 172.28 140.508 172.032 140.422 171.827C140.337 171.621 140.229 171.455 140.097 171.327C139.969 171.199 139.82 171.106 139.65 171.048C139.483 170.986 139.295 170.955 139.086 170.955C138.831 170.955 138.604 171.004 138.407 171.1C138.209 171.193 138.042 171.342 137.907 171.548C137.775 171.753 137.675 172.022 137.605 172.355C137.535 172.688 137.5 173.093 137.5 173.569V175.214C137.5 175.593 137.522 175.928 137.564 176.219C137.611 176.509 137.678 176.761 137.767 176.974C137.857 177.183 137.965 177.355 138.093 177.491C138.221 177.626 138.368 177.727 138.534 177.793C138.705 177.855 138.893 177.886 139.098 177.886C139.361 177.886 139.592 177.836 139.789 177.735C139.987 177.634 140.151 177.477 140.283 177.264C140.419 177.047 140.519 176.771 140.585 176.434C140.651 176.093 140.684 175.686 140.684 175.214Z" fill="black"/>
<rect width="38.6683" height="38.6683" transform="translate(155.025 154.755)" fill="black" fill-opacity="0.05"/>
<path d="M173.852 177.77V178.653H168.316V177.88L171.087 174.795C171.428 174.416 171.691 174.094 171.877 173.831C172.067 173.564 172.198 173.325 172.272 173.116C172.35 172.903 172.388 172.686 172.388 172.466C172.388 172.187 172.33 171.935 172.214 171.71C172.102 171.482 171.935 171.3 171.714 171.164C171.494 171.029 171.226 170.961 170.913 170.961C170.537 170.961 170.223 171.035 169.971 171.182C169.724 171.325 169.538 171.526 169.414 171.786C169.29 172.045 169.228 172.344 169.228 172.681H168.153C168.153 172.204 168.258 171.769 168.467 171.373C168.676 170.978 168.986 170.665 169.396 170.432C169.807 170.196 170.312 170.078 170.913 170.078C171.447 170.078 171.904 170.173 172.284 170.363C172.663 170.549 172.954 170.812 173.155 171.153C173.36 171.49 173.463 171.885 173.463 172.338C173.463 172.586 173.42 172.837 173.335 173.093C173.254 173.345 173.14 173.597 172.992 173.848C172.849 174.1 172.681 174.348 172.487 174.592C172.297 174.836 172.094 175.076 171.877 175.312L169.611 177.77H173.852ZM178.654 170.148V178.653H177.579V171.49L175.412 172.28V171.31L178.485 170.148H178.654Z" fill="black"/>
<rect width="38.6683" height="38.6683" transform="translate(193.694 154.755)" fill="black" fill-opacity="0.05"/>
<path d="M212.521 177.77V178.653H206.985V177.88L209.756 174.795C210.097 174.416 210.36 174.094 210.546 173.831C210.736 173.564 210.867 173.325 210.941 173.116C211.018 172.903 211.057 172.686 211.057 172.466C211.057 172.187 210.999 171.935 210.883 171.71C210.771 171.482 210.604 171.3 210.383 171.164C210.163 171.029 209.895 170.961 209.582 170.961C209.206 170.961 208.892 171.035 208.64 171.182C208.393 171.325 208.207 171.526 208.083 171.786C207.959 172.045 207.897 172.344 207.897 172.681H206.822C206.822 172.204 206.927 171.769 207.136 171.373C207.345 170.978 207.655 170.665 208.065 170.432C208.476 170.196 208.981 170.078 209.582 170.078C210.116 170.078 210.573 170.173 210.953 170.363C211.332 170.549 211.623 170.812 211.824 171.153C212.029 171.49 212.132 171.885 212.132 172.338C212.132 172.586 212.089 172.837 212.004 173.093C211.923 173.345 211.809 173.597 211.661 173.848C211.518 174.1 211.35 174.348 211.156 174.592C210.966 174.836 210.763 175.076 210.546 175.312L208.28 177.77H212.521ZM219.333 177.77V178.653H213.796V177.88L216.567 174.795C216.908 174.416 217.172 174.094 217.358 173.831C217.547 173.564 217.679 173.325 217.753 173.116C217.83 172.903 217.869 172.686 217.869 172.466C217.869 172.187 217.811 171.935 217.694 171.71C217.582 171.482 217.416 171.3 217.195 171.164C216.974 171.029 216.707 170.961 216.393 170.961C216.017 170.961 215.704 171.035 215.452 171.182C215.204 171.325 215.018 171.526 214.894 171.786C214.77 172.045 214.708 172.344 214.708 172.681H213.634C213.634 172.204 213.738 171.769 213.947 171.373C214.156 170.978 214.466 170.665 214.877 170.432C215.287 170.196 215.793 170.078 216.393 170.078C216.928 170.078 217.385 170.173 217.764 170.363C218.144 170.549 218.434 170.812 218.636 171.153C218.841 171.49 218.944 171.885 218.944 172.338C218.944 172.586 218.901 172.837 218.816 173.093C218.734 173.345 218.62 173.597 218.473 173.848C218.33 174.1 218.161 174.348 217.968 174.592C217.778 174.836 217.574 175.076 217.358 175.312L215.092 177.77H219.333Z" fill="black"/>
<rect width="38.6683" height="38.6683" transform="translate(232.362 154.755)" fill="black" fill-opacity="0.38"/>
<path d="M251.19 177.77V178.653H245.654V177.88L248.425 174.795C248.766 174.416 249.029 174.094 249.215 173.831C249.405 173.564 249.536 173.325 249.61 173.116C249.687 172.903 249.726 172.686 249.726 172.466C249.726 172.187 249.668 171.935 249.552 171.71C249.44 171.482 249.273 171.3 249.052 171.164C248.831 171.029 248.564 170.961 248.251 170.961C247.875 170.961 247.561 171.035 247.309 171.182C247.061 171.325 246.876 171.526 246.752 171.786C246.628 172.045 246.566 172.344 246.566 172.681H245.491C245.491 172.204 245.596 171.769 245.805 171.373C246.014 170.978 246.324 170.665 246.734 170.432C247.145 170.196 247.65 170.078 248.251 170.078C248.785 170.078 249.242 170.173 249.622 170.363C250.001 170.549 250.292 170.812 250.493 171.153C250.698 171.49 250.801 171.885 250.801 172.338C250.801 172.586 250.758 172.837 250.673 173.093C250.592 173.345 250.477 173.597 250.33 173.848C250.187 174.1 250.019 174.348 249.825 174.592C249.635 174.836 249.432 175.076 249.215 175.312L246.949 177.77H251.19ZM254.028 173.895H254.795C255.171 173.895 255.48 173.833 255.724 173.709C255.972 173.581 256.156 173.409 256.276 173.192C256.4 172.971 256.462 172.723 256.462 172.448C256.462 172.123 256.408 171.85 256.3 171.629C256.191 171.408 256.028 171.242 255.812 171.129C255.595 171.017 255.32 170.961 254.987 170.961C254.684 170.961 254.417 171.021 254.185 171.141C253.956 171.257 253.776 171.424 253.645 171.641C253.517 171.858 253.453 172.113 253.453 172.408H252.378C252.378 171.978 252.487 171.586 252.703 171.234C252.92 170.882 253.224 170.601 253.615 170.392C254.011 170.183 254.468 170.078 254.987 170.078C255.498 170.078 255.945 170.169 256.329 170.351C256.712 170.529 257.01 170.796 257.223 171.153C257.436 171.505 257.543 171.945 257.543 172.471C257.543 172.684 257.492 172.913 257.392 173.157C257.295 173.397 257.142 173.622 256.933 173.831C256.727 174.04 256.46 174.212 256.131 174.348C255.802 174.48 255.407 174.545 254.946 174.545H254.028V173.895ZM254.028 174.778V174.133H254.946C255.484 174.133 255.93 174.197 256.282 174.325C256.635 174.453 256.911 174.623 257.113 174.836C257.318 175.049 257.461 175.283 257.543 175.539C257.628 175.791 257.671 176.042 257.671 176.294C257.671 176.689 257.603 177.04 257.467 177.346C257.336 177.652 257.148 177.911 256.904 178.124C256.664 178.337 256.381 178.498 256.056 178.606C255.73 178.715 255.376 178.769 254.992 178.769C254.624 178.769 254.278 178.717 253.952 178.612C253.631 178.508 253.346 178.357 253.098 178.159C252.851 177.958 252.657 177.712 252.517 177.421C252.378 177.127 252.308 176.792 252.308 176.416H253.383C253.383 176.711 253.447 176.968 253.575 177.189C253.707 177.41 253.892 177.582 254.133 177.706C254.377 177.826 254.663 177.886 254.992 177.886C255.322 177.886 255.604 177.83 255.841 177.717C256.081 177.601 256.265 177.427 256.392 177.195C256.524 176.962 256.59 176.67 256.59 176.317C256.59 175.965 256.516 175.676 256.369 175.452C256.222 175.223 256.013 175.055 255.742 174.946C255.475 174.834 255.159 174.778 254.795 174.778H254.028Z" fill="black"/>
<rect width="38.6683" height="38.6683" transform="translate(0.352539 193.423)" fill="black" fill-opacity="0.38"/>
<path d="M19.1794 216.438V217.321H13.6429V216.548L16.414 213.464C16.7549 213.084 17.0182 212.762 17.2041 212.499C17.3939 212.232 17.5256 211.994 17.5992 211.785C17.6767 211.572 17.7154 211.355 17.7154 211.134C17.7154 210.855 17.6573 210.603 17.5411 210.379C17.4288 210.15 17.2622 209.968 17.0415 209.833C16.8207 209.697 16.5535 209.629 16.2398 209.629C15.8641 209.629 15.5504 209.703 15.2986 209.85C15.0507 209.993 14.8648 210.195 14.7409 210.454C14.617 210.714 14.555 211.012 14.555 211.349H13.4802C13.4802 210.872 13.5848 210.437 13.7939 210.042C14.0031 209.647 14.3129 209.333 14.7235 209.101C15.134 208.864 15.6394 208.746 16.2398 208.746C16.7742 208.746 17.2313 208.841 17.6108 209.031C17.9904 209.217 18.2808 209.48 18.4822 209.821C18.6875 210.158 18.7901 210.553 18.7901 211.006C18.7901 211.254 18.7475 211.506 18.6623 211.761C18.581 212.013 18.4668 212.265 18.3196 212.517C18.1763 212.768 18.0078 213.016 17.8141 213.26C17.6244 213.504 17.421 213.744 17.2041 213.981L14.9384 216.438H19.1794ZM26.1652 214.474V215.357H20.0536V214.724L23.8414 208.862H24.7187L23.7775 210.559L21.2736 214.474H26.1652ZM24.9859 208.862V217.321H23.9111V208.862H24.9859Z" fill="black"/>
<rect width="38.6683" height="38.6683" transform="translate(39.0205 193.423)" fill="black" fill-opacity="0.05"/>
<path d="M57.8474 216.438V217.321H52.3109V216.548L55.082 213.464C55.4228 213.084 55.6862 212.762 55.8721 212.499C56.0619 212.232 56.1936 211.994 56.2672 211.785C56.3446 211.572 56.3834 211.355 56.3834 211.134C56.3834 210.855 56.3253 210.603 56.2091 210.379C56.0967 210.15 55.9302 209.968 55.7094 209.833C55.4887 209.697 55.2214 209.629 54.9077 209.629C54.532 209.629 54.2183 209.703 53.9666 209.85C53.7187 209.993 53.5328 210.195 53.4089 210.454C53.2849 210.714 53.223 211.012 53.223 211.349H52.1482C52.1482 210.872 52.2528 210.437 52.4619 210.042C52.6711 209.647 52.9809 209.333 53.3914 209.101C53.802 208.864 54.3074 208.746 54.9077 208.746C55.4422 208.746 55.8992 208.841 56.2788 209.031C56.6583 209.217 56.9488 209.48 57.1502 209.821C57.3555 210.158 57.4581 210.553 57.4581 211.006C57.4581 211.254 57.4155 211.506 57.3303 211.761C57.249 212.013 57.1347 212.265 56.9875 212.517C56.8442 212.768 56.6758 213.016 56.4821 213.26C56.2923 213.504 56.089 213.744 55.8721 213.981L53.6064 216.438H57.8474ZM60.4761 213.295L59.6162 213.074L60.0403 208.862H64.3801V209.856H60.9524L60.6968 212.156C60.8517 212.067 61.0473 211.984 61.2836 211.907C61.5237 211.829 61.7987 211.79 62.1085 211.79C62.4997 211.79 62.8502 211.858 63.1601 211.994C63.4699 212.125 63.7333 212.315 63.9502 212.563C64.1709 212.811 64.3394 213.109 64.4556 213.458C64.5718 213.806 64.6299 214.196 64.6299 214.625C64.6299 215.032 64.5737 215.406 64.4614 215.747C64.353 216.087 64.1884 216.386 63.9676 216.641C63.7468 216.893 63.468 217.089 63.131 217.228C62.7979 217.368 62.4048 217.437 61.9517 217.437C61.6109 217.437 61.2875 217.391 60.9815 217.298C60.6794 217.201 60.4083 217.056 60.1682 216.862C59.9319 216.665 59.7382 216.421 59.5872 216.13C59.44 215.836 59.3471 215.491 59.3083 215.096H60.3308C60.3773 215.414 60.4702 215.681 60.6097 215.898C60.7491 216.115 60.9311 216.279 61.1558 216.392C61.3843 216.5 61.6496 216.554 61.9517 216.554C62.2073 216.554 62.4339 216.51 62.6314 216.421C62.8289 216.331 62.9955 216.204 63.131 216.037C63.2666 215.871 63.3692 215.669 63.4389 215.433C63.5125 215.197 63.5493 214.931 63.5493 214.637C63.5493 214.37 63.5125 214.122 63.4389 213.893C63.3653 213.665 63.255 213.465 63.1078 213.295C62.9645 213.125 62.7883 212.993 62.5791 212.9C62.37 212.803 62.1298 212.755 61.8587 212.755C61.4985 212.755 61.2255 212.803 61.0396 212.9C60.8576 212.997 60.6697 213.128 60.4761 213.295Z" fill="black"/>
<rect width="38.6683" height="38.6683" transform="translate(77.6895 193.423)" fill="black" fill-opacity="0.05"/>
<path d="M96.5163 216.438V217.321H90.9798V216.548L93.751 213.464C94.0918 213.084 94.3552 212.762 94.5411 212.499C94.7308 212.232 94.8625 211.994 94.9361 211.785C95.0136 211.572 95.0523 211.355 95.0523 211.134C95.0523 210.855 94.9942 210.603 94.878 210.379C94.7657 210.15 94.5992 209.968 94.3784 209.833C94.1576 209.697 93.8904 209.629 93.5767 209.629C93.201 209.629 92.8873 209.703 92.6355 209.85C92.3877 209.993 92.2018 210.195 92.0778 210.454C91.9539 210.714 91.8919 211.012 91.8919 211.349H90.8171C90.8171 210.872 90.9217 210.437 91.1309 210.042C91.34 209.647 91.6498 209.333 92.0604 209.101C92.4709 208.864 92.9764 208.746 93.5767 208.746C94.1112 208.746 94.5682 208.841 94.9477 209.031C95.3273 209.217 95.6178 209.48 95.8192 209.821C96.0244 210.158 96.1271 210.553 96.1271 211.006C96.1271 211.254 96.0845 211.506 95.9993 211.761C95.9179 212.013 95.8037 212.265 95.6565 212.517C95.5132 212.768 95.3447 213.016 95.1511 213.26C94.9613 213.504 94.7579 213.744 94.5411 213.981L92.2753 216.438H96.5163ZM101.91 208.851H102.003V209.763H101.91C101.341 209.763 100.865 209.856 100.481 210.042C100.098 210.224 99.7937 210.47 99.5691 210.78C99.3445 211.085 99.1818 211.43 99.0811 211.814C98.9843 212.197 98.9359 212.586 98.9359 212.981V214.225C98.9359 214.6 98.9804 214.933 99.0695 215.224C99.1586 215.51 99.2806 215.752 99.4355 215.95C99.5904 216.148 99.7647 216.297 99.9583 216.397C100.156 216.498 100.361 216.548 100.574 216.548C100.822 216.548 101.043 216.502 101.236 216.409C101.43 216.312 101.593 216.179 101.724 216.008C101.86 215.834 101.963 215.629 102.032 215.392C102.102 215.156 102.137 214.897 102.137 214.614C102.137 214.362 102.106 214.12 102.044 213.888C101.982 213.651 101.887 213.442 101.759 213.26C101.631 213.074 101.471 212.929 101.277 212.824C101.087 212.716 100.861 212.662 100.597 212.662C100.299 212.662 100.02 212.735 99.7608 212.883C99.5052 213.026 99.2941 213.216 99.1276 213.452C98.9649 213.684 98.872 213.938 98.8487 214.213L98.2794 214.207C98.3336 213.773 98.4343 213.403 98.5815 213.098C98.7325 212.788 98.9184 212.536 99.1392 212.342C99.3638 212.145 99.6136 212.001 99.8886 211.912C100.167 211.819 100.462 211.773 100.772 211.773C101.194 211.773 101.558 211.852 101.864 212.011C102.17 212.17 102.422 212.383 102.619 212.65C102.817 212.914 102.962 213.212 103.055 213.545C103.152 213.874 103.2 214.213 103.2 214.562C103.2 214.96 103.144 215.334 103.032 215.683C102.919 216.031 102.751 216.337 102.526 216.601C102.305 216.864 102.032 217.069 101.707 217.216C101.382 217.364 101.004 217.437 100.574 217.437C100.117 217.437 99.7182 217.344 99.3774 217.158C99.0366 216.969 98.7538 216.717 98.5292 216.403C98.3046 216.089 98.1361 215.741 98.0238 215.357C97.9114 214.974 97.8553 214.585 97.8553 214.19V213.684C97.8553 213.088 97.9153 212.503 98.0354 211.93C98.1554 211.357 98.3627 210.838 98.657 210.373C98.9552 209.908 99.3677 209.538 99.8944 209.263C100.421 208.988 101.093 208.851 101.91 208.851Z" fill="black"/>
<rect width="38.6683" height="38.6683" transform="translate(116.357 193.423)" fill="black" fill-opacity="0.05"/>
<path d="M135.185 216.438V217.321H129.649V216.548L132.42 213.464C132.761 213.084 133.024 212.762 133.21 212.499C133.4 212.232 133.531 211.994 133.605 211.785C133.683 211.572 133.721 211.355 133.721 211.134C133.721 210.855 133.663 210.603 133.547 210.379C133.435 210.15 133.268 209.968 133.047 209.833C132.827 209.697 132.559 209.629 132.246 209.629C131.87 209.629 131.556 209.703 131.304 209.85C131.057 209.993 130.871 210.195 130.747 210.454C130.623 210.714 130.561 211.012 130.561 211.349H129.486C129.486 210.872 129.591 210.437 129.8 210.042C130.009 209.647 130.319 209.333 130.729 209.101C131.14 208.864 131.645 208.746 132.246 208.746C132.78 208.746 133.237 208.841 133.617 209.031C133.996 209.217 134.287 209.48 134.488 209.821C134.693 210.158 134.796 210.553 134.796 211.006C134.796 211.254 134.753 211.506 134.668 211.761C134.587 212.013 134.473 212.265 134.325 212.517C134.182 212.768 134.014 213.016 133.82 213.26C133.63 213.504 133.427 213.744 133.21 213.981L130.944 216.438H135.185ZM141.921 208.862V209.467L138.418 217.321H137.285L140.783 209.745H136.205V208.862H141.921Z" fill="black"/>
<rect width="38.6683" height="38.6683" transform="translate(155.025 193.423)" fill="black" fill-opacity="0.05"/>
<path d="M173.852 216.438V217.321H168.316V216.548L171.087 213.464C171.428 213.084 171.691 212.762 171.877 212.499C172.067 212.232 172.198 211.994 172.272 211.785C172.35 211.572 172.388 211.355 172.388 211.134C172.388 210.855 172.33 210.603 172.214 210.379C172.102 210.15 171.935 209.968 171.714 209.833C171.494 209.697 171.226 209.629 170.913 209.629C170.537 209.629 170.223 209.703 169.971 209.85C169.724 209.993 169.538 210.195 169.414 210.454C169.29 210.714 169.228 211.012 169.228 211.349H168.153C168.153 210.872 168.258 210.437 168.467 210.042C168.676 209.647 168.986 209.333 169.396 209.101C169.807 208.864 170.312 208.746 170.913 208.746C171.447 208.746 171.904 208.841 172.284 209.031C172.663 209.217 172.954 209.48 173.155 209.821C173.36 210.158 173.463 210.553 173.463 211.006C173.463 211.254 173.42 211.506 173.335 211.761C173.254 212.013 173.14 212.265 172.992 212.517C172.849 212.768 172.681 213.016 172.487 213.26C172.297 213.504 172.094 213.744 171.877 213.981L169.611 216.438H173.852ZM180.455 215.032C180.455 215.547 180.335 215.985 180.094 216.345C179.858 216.701 179.537 216.972 179.13 217.158C178.727 217.344 178.272 217.437 177.765 217.437C177.257 217.437 176.8 217.344 176.394 217.158C175.987 216.972 175.666 216.701 175.429 216.345C175.193 215.985 175.075 215.547 175.075 215.032C175.075 214.695 175.139 214.387 175.267 214.108C175.398 213.826 175.582 213.58 175.819 213.371C176.059 213.161 176.342 213.001 176.667 212.888C176.996 212.772 177.358 212.714 177.753 212.714C178.272 212.714 178.735 212.815 179.142 213.016C179.548 213.214 179.868 213.487 180.1 213.835C180.337 214.184 180.455 214.583 180.455 215.032ZM179.374 215.009C179.374 214.695 179.306 214.418 179.171 214.178C179.035 213.934 178.845 213.744 178.601 213.609C178.357 213.473 178.075 213.405 177.753 213.405C177.424 213.405 177.139 213.473 176.899 213.609C176.663 213.744 176.479 213.934 176.347 214.178C176.216 214.418 176.15 214.695 176.15 215.009C176.15 215.334 176.214 215.613 176.342 215.845C176.473 216.074 176.659 216.25 176.899 216.374C177.143 216.494 177.432 216.554 177.765 216.554C178.098 216.554 178.385 216.494 178.625 216.374C178.865 216.25 179.049 216.074 179.177 215.845C179.308 215.613 179.374 215.334 179.374 215.009ZM180.257 211.064C180.257 211.475 180.149 211.845 179.932 212.174C179.715 212.503 179.419 212.762 179.043 212.952C178.667 213.142 178.241 213.237 177.765 213.237C177.281 213.237 176.849 213.142 176.469 212.952C176.094 212.762 175.799 212.503 175.586 212.174C175.373 211.845 175.267 211.475 175.267 211.064C175.267 210.572 175.373 210.154 175.586 209.809C175.803 209.465 176.099 209.201 176.475 209.019C176.851 208.837 177.279 208.746 177.759 208.746C178.243 208.746 178.673 208.837 179.049 209.019C179.424 209.201 179.719 209.465 179.932 209.809C180.149 210.154 180.257 210.572 180.257 211.064ZM179.182 211.082C179.182 210.799 179.122 210.549 179.002 210.332C178.882 210.115 178.716 209.945 178.503 209.821C178.29 209.693 178.042 209.629 177.759 209.629C177.476 209.629 177.228 209.689 177.015 209.809C176.806 209.925 176.642 210.092 176.522 210.309C176.405 210.526 176.347 210.783 176.347 211.082C176.347 211.372 176.405 211.626 176.522 211.843C176.642 212.06 176.808 212.228 177.021 212.348C177.234 212.468 177.482 212.528 177.765 212.528C178.048 212.528 178.294 212.468 178.503 212.348C178.716 212.228 178.882 212.06 179.002 211.843C179.122 211.626 179.182 211.372 179.182 211.082Z" fill="black"/>
<rect width="38.6683" height="38.6683" transform="translate(193.694 193.423)" fill="black" fill-opacity="0.05"/>
<path d="M212.521 216.438V217.321H206.985V216.548L209.756 213.464C210.097 213.084 210.36 212.762 210.546 212.499C210.736 212.232 210.867 211.994 210.941 211.785C211.018 211.572 211.057 211.355 211.057 211.134C211.057 210.855 210.999 210.603 210.883 210.379C210.771 210.15 210.604 209.968 210.383 209.833C210.163 209.697 209.895 209.629 209.582 209.629C209.206 209.629 208.892 209.703 208.64 209.85C208.393 209.993 208.207 210.195 208.083 210.454C207.959 210.714 207.897 211.012 207.897 211.349H206.822C206.822 210.872 206.927 210.437 207.136 210.042C207.345 209.647 207.655 209.333 208.065 209.101C208.476 208.864 208.981 208.746 209.582 208.746C210.116 208.746 210.573 208.841 210.953 209.031C211.332 209.217 211.623 209.48 211.824 209.821C212.029 210.158 212.132 210.553 212.132 211.006C212.132 211.254 212.089 211.506 212.004 211.761C211.923 212.013 211.809 212.265 211.661 212.517C211.518 212.768 211.35 213.016 211.156 213.26C210.966 213.504 210.763 213.744 210.546 213.981L208.28 216.438H212.521ZM214.859 216.421H214.97C215.589 216.421 216.093 216.333 216.48 216.159C216.868 215.985 217.166 215.751 217.375 215.456C217.584 215.162 217.727 214.831 217.805 214.463C217.882 214.091 217.921 213.709 217.921 213.318V212.023C217.921 211.639 217.876 211.298 217.787 211C217.702 210.702 217.582 210.452 217.427 210.251C217.276 210.049 217.104 209.896 216.91 209.792C216.717 209.687 216.511 209.635 216.294 209.635C216.046 209.635 215.824 209.685 215.626 209.786C215.433 209.883 215.268 210.02 215.132 210.199C215.001 210.377 214.9 210.586 214.83 210.826C214.761 211.066 214.726 211.328 214.726 211.61C214.726 211.862 214.757 212.106 214.819 212.342C214.881 212.579 214.976 212.792 215.103 212.981C215.231 213.171 215.39 213.322 215.58 213.434C215.773 213.543 216 213.597 216.26 213.597C216.5 213.597 216.724 213.551 216.933 213.458C217.146 213.361 217.334 213.231 217.497 213.068C217.663 212.902 217.795 212.714 217.892 212.505C217.993 212.296 218.051 212.077 218.066 211.848H218.578C218.578 212.17 218.514 212.488 218.386 212.801C218.262 213.111 218.088 213.394 217.863 213.649C217.638 213.905 217.375 214.11 217.073 214.265C216.771 214.416 216.442 214.492 216.085 214.492C215.667 214.492 215.305 214.41 214.999 214.248C214.693 214.085 214.441 213.868 214.244 213.597C214.05 213.326 213.905 213.024 213.808 212.691C213.715 212.354 213.668 212.013 213.668 211.668C213.668 211.266 213.725 210.888 213.837 210.536C213.949 210.183 214.116 209.873 214.337 209.606C214.557 209.335 214.83 209.124 215.156 208.973C215.485 208.822 215.864 208.746 216.294 208.746C216.778 208.746 217.191 208.843 217.532 209.037C217.873 209.23 218.15 209.49 218.363 209.815C218.579 210.14 218.738 210.506 218.839 210.913C218.94 211.32 218.99 211.738 218.99 212.168V212.557C218.99 212.995 218.961 213.44 218.903 213.893C218.849 214.343 218.742 214.773 218.583 215.183C218.428 215.594 218.202 215.962 217.904 216.287C217.605 216.608 217.216 216.864 216.736 217.054C216.26 217.24 215.671 217.333 214.97 217.333H214.859V216.421Z" fill="black"/>
<rect width="38.6683" height="38.6683" transform="translate(232.362 193.423)" fill="black" fill-opacity="0.38"/>
<path d="M247.216 212.563H247.983C248.359 212.563 248.669 212.501 248.913 212.377C249.161 212.249 249.345 212.077 249.465 211.86C249.589 211.639 249.651 211.391 249.651 211.116C249.651 210.791 249.596 210.518 249.488 210.297C249.379 210.077 249.217 209.91 249 209.798C248.783 209.685 248.508 209.629 248.175 209.629C247.873 209.629 247.606 209.689 247.373 209.809C247.145 209.925 246.965 210.092 246.833 210.309C246.705 210.526 246.641 210.781 246.641 211.076H245.566C245.566 210.646 245.675 210.255 245.892 209.902C246.109 209.55 246.413 209.269 246.804 209.06C247.199 208.851 247.656 208.746 248.175 208.746C248.686 208.746 249.134 208.837 249.517 209.019C249.9 209.197 250.199 209.465 250.412 209.821C250.625 210.173 250.731 210.613 250.731 211.14C250.731 211.353 250.681 211.581 250.58 211.825C250.483 212.065 250.33 212.29 250.121 212.499C249.916 212.708 249.649 212.881 249.319 213.016C248.99 213.148 248.595 213.214 248.134 213.214H247.216V212.563ZM247.216 213.446V212.801H248.134C248.673 212.801 249.118 212.865 249.471 212.993C249.823 213.121 250.1 213.291 250.301 213.504C250.507 213.717 250.65 213.952 250.731 214.207C250.816 214.459 250.859 214.711 250.859 214.962C250.859 215.357 250.791 215.708 250.656 216.014C250.524 216.32 250.336 216.579 250.092 216.792C249.852 217.005 249.569 217.166 249.244 217.275C248.919 217.383 248.564 217.437 248.181 217.437C247.813 217.437 247.466 217.385 247.141 217.28C246.819 217.176 246.535 217.025 246.287 216.827C246.039 216.626 245.845 216.38 245.706 216.089C245.566 215.795 245.497 215.46 245.497 215.084H246.572C246.572 215.379 246.635 215.636 246.763 215.857C246.895 216.078 247.081 216.25 247.321 216.374C247.565 216.494 247.852 216.554 248.181 216.554C248.51 216.554 248.793 216.498 249.029 216.386C249.269 216.27 249.453 216.095 249.581 215.863C249.713 215.63 249.778 215.338 249.778 214.986C249.778 214.633 249.705 214.345 249.558 214.12C249.41 213.891 249.201 213.723 248.93 213.615C248.663 213.502 248.347 213.446 247.983 213.446H247.216ZM257.769 212.418V213.708C257.769 214.401 257.707 214.986 257.583 215.462C257.459 215.938 257.281 216.322 257.049 216.612C256.817 216.903 256.536 217.114 256.207 217.246C255.881 217.373 255.513 217.437 255.103 217.437C254.777 217.437 254.477 217.397 254.202 217.315C253.927 217.234 253.679 217.104 253.459 216.926C253.242 216.744 253.056 216.508 252.901 216.217C252.746 215.927 252.628 215.574 252.547 215.16C252.465 214.745 252.425 214.261 252.425 213.708V212.418C252.425 211.725 252.487 211.144 252.61 210.675C252.738 210.206 252.918 209.831 253.151 209.548C253.383 209.261 253.662 209.056 253.987 208.932C254.317 208.808 254.684 208.746 255.091 208.746C255.42 208.746 255.722 208.787 255.997 208.868C256.276 208.946 256.524 209.071 256.741 209.246C256.958 209.416 257.142 209.645 257.293 209.931C257.448 210.214 257.566 210.561 257.647 210.971C257.729 211.382 257.769 211.864 257.769 212.418ZM256.689 213.882V212.238C256.689 211.858 256.666 211.525 256.619 211.238C256.576 210.948 256.513 210.7 256.427 210.495C256.342 210.29 256.234 210.123 256.102 209.995C255.974 209.867 255.825 209.774 255.655 209.716C255.488 209.654 255.3 209.623 255.091 209.623C254.836 209.623 254.609 209.672 254.411 209.769C254.214 209.862 254.047 210.011 253.912 210.216C253.78 210.421 253.679 210.69 253.61 211.024C253.54 211.357 253.505 211.761 253.505 212.238V213.882C253.505 214.261 253.526 214.596 253.569 214.887C253.615 215.177 253.683 215.429 253.772 215.642C253.861 215.851 253.97 216.024 254.098 216.159C254.226 216.295 254.373 216.395 254.539 216.461C254.71 216.523 254.897 216.554 255.103 216.554C255.366 216.554 255.597 216.504 255.794 216.403C255.992 216.302 256.156 216.146 256.288 215.933C256.423 215.716 256.524 215.439 256.59 215.102C256.656 214.761 256.689 214.354 256.689 213.882Z" fill="black"/>
<rect width="38.6683" height="38.6683" transform="translate(0.352539 232.092)" fill="black" fill-opacity="0.38"/>
<path d="M15.2057 251.231H15.9725C16.3482 251.231 16.658 251.17 16.902 251.046C17.1499 250.918 17.3339 250.745 17.454 250.529C17.5779 250.308 17.6399 250.06 17.6399 249.785C17.6399 249.46 17.5856 249.187 17.4772 248.966C17.3687 248.745 17.2061 248.578 16.9892 248.466C16.7723 248.354 16.4973 248.298 16.1642 248.298C15.8621 248.298 15.5949 248.358 15.3625 248.478C15.134 248.594 14.9539 248.76 14.8222 248.977C14.6944 249.194 14.6305 249.45 14.6305 249.744H13.5558C13.5558 249.314 13.6642 248.923 13.8811 248.571C14.098 248.218 14.402 247.937 14.7932 247.728C15.1882 247.519 15.6453 247.415 16.1642 247.415C16.6755 247.415 17.1228 247.506 17.5062 247.688C17.8897 247.866 18.1879 248.133 18.4009 248.489C18.6139 248.842 18.7204 249.281 18.7204 249.808C18.7204 250.021 18.6701 250.25 18.5694 250.494C18.4726 250.734 18.3196 250.958 18.1104 251.168C17.9052 251.377 17.6379 251.549 17.3087 251.685C16.9795 251.816 16.5845 251.882 16.1236 251.882H15.2057V251.231ZM15.2057 252.115V251.47H16.1236C16.6619 251.47 17.1073 251.534 17.4598 251.661C17.8122 251.789 18.0891 251.96 18.2905 252.173C18.4958 252.386 18.6391 252.62 18.7204 252.876C18.8056 253.127 18.8482 253.379 18.8482 253.631C18.8482 254.026 18.7805 254.376 18.6449 254.682C18.5132 254.988 18.3254 255.248 18.0814 255.461C17.8413 255.674 17.5585 255.835 17.2332 255.943C16.9079 256.051 16.5535 256.106 16.17 256.106C15.8021 256.106 15.4555 256.053 15.1301 255.949C14.8087 255.844 14.524 255.693 14.2761 255.496C14.0283 255.294 13.8346 255.048 13.6952 254.758C13.5558 254.464 13.486 254.129 13.486 253.753H14.5608C14.5608 254.047 14.6247 254.305 14.7525 254.525C14.8842 254.746 15.0701 254.919 15.3102 255.043C15.5542 255.163 15.8408 255.223 16.17 255.223C16.4993 255.223 16.782 255.166 17.0182 255.054C17.2584 254.938 17.4423 254.764 17.5701 254.531C17.7018 254.299 17.7677 254.007 17.7677 253.654C17.7677 253.302 17.6941 253.013 17.5469 252.788C17.3997 252.56 17.1906 252.391 16.9195 252.283C16.6522 252.171 16.3366 252.115 15.9725 252.115H15.2057ZM23.9809 247.484V255.99H22.9061V248.826L20.7391 249.616V248.646L23.8124 247.484H23.9809Z" fill="black"/>
</g>
<defs>
<clipPath id="clip0_932_3998">
<rect x="0.352539" y="0.081543" width="270.678" height="270.678" rx="11.8979" fill="white"/>
</clipPath>
</defs>
</svg>
