<svg width="272" height="271" viewBox="0 0 272 271" fill="none" xmlns="http://www.w3.org/2000/svg">
<g clip-path="url(#clip0_932_3890)">
<rect width="270.678" height="38.6683" transform="translate(0.673828 0.081543)" fill="black"/>
<path d="M19.4679 23.9795H17.6438L17.6554 22.7246H19.4679C19.9598 22.7246 20.3723 22.6162 20.7054 22.3993C21.0385 22.1785 21.2902 21.8629 21.4606 21.4523C21.631 21.0379 21.7162 20.5422 21.7162 19.9651V19.5294C21.7162 19.084 21.6678 18.6909 21.571 18.35C21.4742 18.0092 21.3309 17.7226 21.1411 17.4902C20.9552 17.2579 20.7247 17.0816 20.4498 16.9616C20.1748 16.8415 19.8591 16.7815 19.5028 16.7815H17.6089V15.5208H19.5028C20.0683 15.5208 20.5834 15.6157 21.0481 15.8055C21.5168 15.9952 21.9215 16.2683 22.2623 16.6246C22.607 16.9771 22.8704 17.3992 23.0524 17.8911C23.2383 18.383 23.3313 18.9329 23.3313 19.541V19.9651C23.3313 20.5693 23.2383 21.1193 23.0524 21.615C22.8704 22.1069 22.607 22.529 22.2623 22.8815C21.9215 23.2339 21.5148 23.505 21.0423 23.6948C20.5698 23.8846 20.045 23.9795 19.4679 23.9795ZM18.5384 15.5208V23.9795H16.9408V15.5208H18.5384Z" fill="white"/>
<path d="M60.2796 21.7835C60.2796 21.6208 60.2545 21.4756 60.2041 21.3478C60.1576 21.2161 60.0705 21.098 59.9427 20.9934C59.8187 20.8849 59.6425 20.7804 59.414 20.6797C59.1894 20.5751 58.8989 20.4667 58.5426 20.3543C58.1475 20.2304 57.7796 20.091 57.4388 19.9361C57.0979 19.7811 56.7978 19.601 56.5383 19.3958C56.2827 19.1905 56.0832 18.9542 55.9399 18.687C55.7966 18.4159 55.725 18.1022 55.725 17.7459C55.725 17.3973 55.7985 17.0797 55.9457 16.7931C56.0968 16.5065 56.3098 16.2605 56.5848 16.0553C56.8598 15.8461 57.1832 15.6854 57.555 15.5731C57.9306 15.4608 58.3451 15.4046 58.7982 15.4046C59.4256 15.4046 59.9679 15.5189 60.4249 15.7474C60.8858 15.9759 61.2421 16.2857 61.4938 16.6769C61.7456 17.0681 61.8715 17.5077 61.8715 17.9957H60.2796C60.2796 17.7323 60.2235 17.4999 60.1112 17.2985C60.0027 17.0971 59.8362 16.9383 59.6115 16.8221C59.3908 16.7059 59.1119 16.6479 58.775 16.6479C58.4496 16.6479 58.1785 16.6963 57.9616 16.7931C57.7486 16.8899 57.5879 17.0216 57.4794 17.1881C57.3749 17.3547 57.3226 17.5406 57.3226 17.7459C57.3226 17.9008 57.3594 18.0402 57.433 18.1641C57.5066 18.2842 57.6169 18.3985 57.7641 18.5069C57.9113 18.6115 58.0933 18.7102 58.3102 18.8032C58.531 18.8923 58.7866 18.9813 59.0771 19.0704C59.5418 19.2099 59.9485 19.3648 60.2971 19.5352C60.6495 19.7056 60.9419 19.8993 61.1743 20.1161C61.4106 20.333 61.5868 20.577 61.703 20.8481C61.823 21.1193 61.8831 21.4272 61.8831 21.7719C61.8831 22.1359 61.8114 22.4613 61.6681 22.7479C61.5248 23.0345 61.3195 23.2785 61.0523 23.4799C60.7851 23.6813 60.4636 23.8343 60.0879 23.9388C59.7161 24.0434 59.2998 24.0957 58.8389 24.0957C58.4283 24.0957 58.0217 24.0415 57.6189 23.933C57.2199 23.8207 56.8578 23.6542 56.5325 23.4334C56.2071 23.2088 55.9477 22.926 55.754 22.5852C55.5604 22.2405 55.4635 21.8377 55.4635 21.3768H57.067C57.067 21.6441 57.1096 21.8726 57.1948 22.0623C57.2839 22.2482 57.4078 22.4012 57.5666 22.5213C57.7292 22.6375 57.919 22.7227 58.1359 22.7769C58.3528 22.8311 58.5871 22.8583 58.8389 22.8583C59.1642 22.8583 59.4314 22.8137 59.6406 22.7246C59.8536 22.6317 60.0124 22.5039 60.117 22.3412C60.2254 22.1785 60.2796 21.9926 60.2796 21.7835Z" fill="white"/>
<path d="M98.1236 15.5208V23.9795H96.5318V15.5208H98.1236ZM100.75 15.5208V16.7815H93.9349V15.5208H100.75Z" fill="white"/>
<path d="M137.256 22.7885L139.51 24.5779L138.488 25.4667L136.269 23.689L137.256 22.7885ZM139.551 19.5352V19.9709C139.551 20.61 139.466 21.1851 139.296 21.6963C139.125 22.2037 138.881 22.6356 138.564 22.9919C138.25 23.3482 137.876 23.6212 137.442 23.811C137.008 24.0008 136.528 24.0957 136.001 24.0957C135.479 24.0957 134.998 24.0008 134.561 23.811C134.127 23.6212 133.751 23.3482 133.434 22.9919C133.116 22.6356 132.87 22.2037 132.696 21.6963C132.522 21.1851 132.434 20.61 132.434 19.9709V19.5352C132.434 18.8923 132.52 18.3171 132.69 17.8098C132.864 17.3024 133.108 16.8705 133.422 16.5142C133.74 16.154 134.115 15.8791 134.549 15.6893C134.987 15.4995 135.467 15.4046 135.99 15.4046C136.517 15.4046 136.997 15.4995 137.431 15.6893C137.868 15.8791 138.244 16.154 138.558 16.5142C138.875 16.8705 139.119 17.3024 139.29 17.8098C139.464 18.3171 139.551 18.8923 139.551 19.5352ZM137.936 19.9709V19.5236C137.936 19.0627 137.893 18.658 137.808 18.3094C137.723 17.9569 137.595 17.6606 137.425 17.4205C137.258 17.1804 137.055 17.0003 136.815 16.8802C136.575 16.7563 136.3 16.6943 135.99 16.6943C135.684 16.6943 135.411 16.7563 135.171 16.8802C134.931 17.0003 134.727 17.1804 134.561 17.4205C134.394 17.6606 134.266 17.9569 134.177 18.3094C134.092 18.658 134.049 19.0627 134.049 19.5236V19.9709C134.049 20.4279 134.092 20.8327 134.177 21.1851C134.266 21.5375 134.394 21.8358 134.561 22.0798C134.731 22.3199 134.936 22.5019 135.177 22.6259C135.421 22.7498 135.696 22.8118 136.001 22.8118C136.311 22.8118 136.586 22.7498 136.826 22.6259C137.067 22.5019 137.268 22.3199 137.431 22.0798C137.597 21.8358 137.723 21.5375 137.808 21.1851C137.893 20.8327 137.936 20.4279 137.936 19.9709Z" fill="white"/>
<path d="M175.924 22.7885L178.178 24.5779L177.156 25.4667L174.937 23.689L175.924 22.7885ZM178.219 19.5352V19.9709C178.219 20.61 178.134 21.1851 177.963 21.6963C177.793 22.2037 177.549 22.6356 177.231 22.9919C176.918 23.3482 176.544 23.6212 176.11 23.811C175.676 24.0008 175.196 24.0957 174.669 24.0957C174.147 24.0957 173.666 24.0008 173.229 23.811C172.795 23.6212 172.419 23.3482 172.102 22.9919C171.784 22.6356 171.538 22.2037 171.364 21.6963C171.19 21.1851 171.102 20.61 171.102 19.9709V19.5352C171.102 18.8923 171.188 18.3171 171.358 17.8098C171.532 17.3024 171.776 16.8705 172.09 16.5142C172.408 16.154 172.783 15.8791 173.217 15.6893C173.655 15.4995 174.135 15.4046 174.658 15.4046C175.185 15.4046 175.665 15.4995 176.099 15.6893C176.536 15.8791 176.912 16.154 177.226 16.5142C177.543 16.8705 177.787 17.3024 177.958 17.8098C178.132 18.3171 178.219 18.8923 178.219 19.5352ZM176.604 19.9709V19.5236C176.604 19.0627 176.561 18.658 176.476 18.3094C176.391 17.9569 176.263 17.6606 176.093 17.4205C175.926 17.1804 175.723 17.0003 175.483 16.8802C175.243 16.7563 174.968 16.6943 174.658 16.6943C174.352 16.6943 174.079 16.7563 173.839 16.8802C173.599 17.0003 173.395 17.1804 173.229 17.4205C173.062 17.6606 172.934 17.9569 172.845 18.3094C172.76 18.658 172.717 19.0627 172.717 19.5236V19.9709C172.717 20.4279 172.76 20.8327 172.845 21.1851C172.934 21.5375 173.062 21.8358 173.229 22.0798C173.399 22.3199 173.604 22.5019 173.845 22.6259C174.089 22.7498 174.363 22.8118 174.669 22.8118C174.979 22.8118 175.254 22.7498 175.494 22.6259C175.735 22.5019 175.936 22.3199 176.099 22.0798C176.265 21.8358 176.391 21.5375 176.476 21.1851C176.561 20.8327 176.604 20.4279 176.604 19.9709Z" fill="white"/>
<path d="M214.953 21.7835C214.953 21.6208 214.928 21.4756 214.878 21.3478C214.831 21.2161 214.744 21.098 214.617 20.9934C214.493 20.8849 214.316 20.7804 214.088 20.6797C213.863 20.5751 213.573 20.4667 213.216 20.3543C212.821 20.2304 212.453 20.091 212.113 19.9361C211.772 19.7811 211.472 19.601 211.212 19.3958C210.957 19.1905 210.757 18.9542 210.614 18.687C210.47 18.4159 210.399 18.1022 210.399 17.7459C210.399 17.3973 210.472 17.0797 210.62 16.7931C210.771 16.5065 210.984 16.2605 211.259 16.0553C211.534 15.8461 211.857 15.6854 212.229 15.5731C212.604 15.4608 213.019 15.4046 213.472 15.4046C214.099 15.4046 214.642 15.5189 215.099 15.7474C215.56 15.9759 215.916 16.2857 216.168 16.6769C216.419 17.0681 216.545 17.5077 216.545 17.9957H214.953C214.953 17.7323 214.897 17.4999 214.785 17.2985C214.677 17.0971 214.51 16.9383 214.285 16.8221C214.065 16.7059 213.786 16.6479 213.449 16.6479C213.123 16.6479 212.852 16.6963 212.635 16.7931C212.422 16.8899 212.262 17.0216 212.153 17.1881C212.049 17.3547 211.996 17.5406 211.996 17.7459C211.996 17.9008 212.033 18.0402 212.107 18.1641C212.18 18.2842 212.291 18.3985 212.438 18.5069C212.585 18.6115 212.767 18.7102 212.984 18.8032C213.205 18.8923 213.46 18.9813 213.751 19.0704C214.216 19.2099 214.622 19.3648 214.971 19.5352C215.323 19.7056 215.616 19.8993 215.848 20.1161C216.084 20.333 216.261 20.577 216.377 20.8481C216.497 21.1193 216.557 21.4272 216.557 21.7719C216.557 22.1359 216.485 22.4613 216.342 22.7479C216.199 23.0345 215.993 23.2785 215.726 23.4799C215.459 23.6813 215.137 23.8343 214.762 23.9388C214.39 24.0434 213.974 24.0957 213.513 24.0957C213.102 24.0957 212.695 24.0415 212.293 23.933C211.894 23.8207 211.532 23.6542 211.206 23.4334C210.881 23.2088 210.621 22.926 210.428 22.5852C210.234 22.2405 210.137 21.8377 210.137 21.3768H211.741C211.741 21.6441 211.783 21.8726 211.869 22.0623C211.958 22.2482 212.082 22.4012 212.24 22.5213C212.403 22.6375 212.593 22.7227 212.81 22.7769C213.027 22.8311 213.261 22.8583 213.513 22.8583C213.838 22.8583 214.105 22.8137 214.314 22.7246C214.527 22.6317 214.686 22.5039 214.791 22.3412C214.899 22.1785 214.953 21.9926 214.953 21.7835Z" fill="white"/>
<path d="M253.621 21.7835C253.621 21.6208 253.596 21.4756 253.546 21.3478C253.499 21.2161 253.412 21.098 253.284 20.9934C253.161 20.8849 252.984 20.7804 252.756 20.6797C252.531 20.5751 252.241 20.4667 251.884 20.3543C251.489 20.2304 251.121 20.091 250.781 19.9361C250.44 19.7811 250.14 19.601 249.88 19.3958C249.624 19.1905 249.425 18.9542 249.282 18.687C249.138 18.4159 249.067 18.1022 249.067 17.7459C249.067 17.3973 249.14 17.0797 249.288 16.7931C249.439 16.5065 249.652 16.2605 249.927 16.0553C250.202 15.8461 250.525 15.6854 250.897 15.5731C251.272 15.4608 251.687 15.4046 252.14 15.4046C252.767 15.4046 253.31 15.5189 253.767 15.7474C254.228 15.9759 254.584 16.2857 254.836 16.6769C255.087 17.0681 255.213 17.5077 255.213 17.9957H253.621C253.621 17.7323 253.565 17.4999 253.453 17.2985C253.345 17.0971 253.178 16.9383 252.953 16.8221C252.733 16.7059 252.454 16.6479 252.117 16.6479C251.791 16.6479 251.52 16.6963 251.303 16.7931C251.09 16.8899 250.93 17.0216 250.821 17.1881C250.717 17.3547 250.664 17.5406 250.664 17.7459C250.664 17.9008 250.701 18.0402 250.775 18.1641C250.848 18.2842 250.959 18.3985 251.106 18.5069C251.253 18.6115 251.435 18.7102 251.652 18.8032C251.873 18.8923 252.128 18.9813 252.419 19.0704C252.884 19.2099 253.29 19.3648 253.639 19.5352C253.991 19.7056 254.284 19.8993 254.516 20.1161C254.752 20.333 254.929 20.577 255.045 20.8481C255.165 21.1193 255.225 21.4272 255.225 21.7719C255.225 22.1359 255.153 22.4613 255.01 22.7479C254.867 23.0345 254.661 23.2785 254.394 23.4799C254.127 23.6813 253.805 23.8343 253.43 23.9388C253.058 24.0434 252.642 24.0957 252.181 24.0957C251.77 24.0957 251.363 24.0415 250.961 23.933C250.562 23.8207 250.2 23.6542 249.874 23.4334C249.549 23.2088 249.289 22.926 249.096 22.5852C248.902 22.2405 248.805 21.8377 248.805 21.3768H250.409C250.409 21.6441 250.451 21.8726 250.537 22.0623C250.626 22.2482 250.75 22.4012 250.908 22.5213C251.071 22.6375 251.261 22.7227 251.478 22.7769C251.695 22.8311 251.929 22.8583 252.181 22.8583C252.506 22.8583 252.773 22.8137 252.982 22.7246C253.195 22.6317 253.354 22.5039 253.459 22.3412C253.567 22.1785 253.621 21.9926 253.621 21.7835Z" fill="white"/>
<rect width="38.6683" height="38.6683" transform="translate(116.679 38.75)" fill="black" fill-opacity="0.05"/>
<path d="M136.902 54.1428V62.6479H135.827V55.4848L133.66 56.2749V55.3047L136.734 54.1428H136.902Z" fill="black"/>
<rect width="38.6683" height="38.6683" transform="translate(155.347 38.75)" fill="black" fill-opacity="0.05"/>
<path d="M177.579 61.7649V62.6479H172.043V61.8753L174.814 58.7904C175.155 58.4109 175.418 58.0894 175.604 57.826C175.794 57.5588 175.926 57.3206 175.999 57.1115C176.077 56.8984 176.115 56.6815 176.115 56.4608C176.115 56.1819 176.057 55.9302 175.941 55.7055C175.829 55.477 175.662 55.295 175.441 55.1594C175.221 55.0239 174.953 54.9561 174.64 54.9561C174.264 54.9561 173.95 55.0297 173.699 55.1769C173.451 55.3202 173.265 55.5216 173.141 55.7811C173.017 56.0406 172.955 56.3388 172.955 56.6757H171.88C171.88 56.1994 171.985 55.7636 172.194 55.3686C172.403 54.9735 172.713 54.6598 173.123 54.4274C173.534 54.1912 174.039 54.0731 174.64 54.0731C175.174 54.0731 175.631 54.168 176.011 54.3577C176.39 54.5436 176.681 54.807 176.882 55.1478C177.087 55.4848 177.19 55.8798 177.19 56.333C177.19 56.5809 177.147 56.8326 177.062 57.0882C176.981 57.34 176.867 57.5917 176.72 57.8435C176.576 58.0952 176.408 58.3431 176.214 58.5871C176.024 58.8311 175.821 59.0712 175.604 59.3075L173.338 61.7649H177.579Z" fill="black"/>
<rect width="38.6683" height="38.6683" transform="translate(194.016 38.75)" fill="black" fill-opacity="0.05"/>
<path d="M212.275 57.8899H213.041C213.417 57.8899 213.727 57.828 213.971 57.704C214.219 57.5762 214.403 57.4039 214.523 57.187C214.647 56.9662 214.709 56.7183 214.709 56.4434C214.709 56.118 214.655 55.845 214.546 55.6242C214.438 55.4035 214.275 55.2369 214.058 55.1246C213.841 55.0123 213.566 54.9561 213.233 54.9561C212.931 54.9561 212.664 55.0161 212.431 55.1362C212.203 55.2524 212.023 55.4189 211.891 55.6358C211.763 55.8527 211.699 56.1083 211.699 56.4027H210.625C210.625 55.9728 210.733 55.5816 210.95 55.2292C211.167 54.8767 211.471 54.5959 211.862 54.3868C212.257 54.1776 212.714 54.0731 213.233 54.0731C213.744 54.0731 214.192 54.1641 214.575 54.3461C214.959 54.5243 215.257 54.7915 215.47 55.1478C215.683 55.5003 215.789 55.9399 215.789 56.4666C215.789 56.6796 215.739 56.9081 215.638 57.1521C215.541 57.3923 215.388 57.6169 215.179 57.826C214.974 58.0352 214.707 58.2075 214.378 58.3431C214.048 58.4748 213.653 58.5406 213.192 58.5406H212.275V57.8899ZM212.275 58.773V58.1281H213.192C213.731 58.1281 214.176 58.192 214.529 58.3198C214.881 58.4477 215.158 58.6181 215.359 58.8311C215.565 59.0441 215.708 59.2784 215.789 59.534C215.875 59.7858 215.917 60.0375 215.917 60.2893C215.917 60.6843 215.849 61.0348 215.714 61.3408C215.582 61.6468 215.394 61.9063 215.15 62.1193C214.91 62.3323 214.627 62.493 214.302 62.6015C213.977 62.7099 213.622 62.7641 213.239 62.7641C212.871 62.7641 212.524 62.7119 212.199 62.6073C211.878 62.5027 211.593 62.3517 211.345 62.1541C211.097 61.9527 210.903 61.7068 210.764 61.4163C210.625 61.122 210.555 60.787 210.555 60.4113H211.63C211.63 60.7056 211.694 60.9632 211.821 61.1839C211.953 61.4047 212.139 61.5771 212.379 61.701C212.623 61.8211 212.91 61.8811 213.239 61.8811C213.568 61.8811 213.851 61.8249 214.087 61.7126C214.327 61.5964 214.511 61.4221 214.639 61.1898C214.771 60.9574 214.837 60.665 214.837 60.3125C214.837 59.9601 214.763 59.6715 214.616 59.4469C214.469 59.2184 214.259 59.0499 213.988 58.9415C213.721 58.8291 213.405 58.773 213.041 58.773H212.275Z" fill="black"/>
<rect width="38.6683" height="38.6683" transform="translate(232.684 38.75)" fill="black" fill-opacity="0.38"/>
<path d="M255.091 59.8013V60.6843H248.98V60.0511L252.768 54.1893H253.645L252.704 55.8856L250.2 59.8013H255.091ZM253.912 54.1893V62.6479H252.837V54.1893H253.912Z" fill="black"/>
<rect width="38.6683" height="38.6683" transform="translate(0.673828 77.4182)" fill="black" fill-opacity="0.38"/>
<path d="M18.7236 97.2901L17.8638 97.0694L18.2879 92.8575H22.6276V93.8509H19.2L18.9444 96.1515C19.0993 96.0624 19.2949 95.9791 19.5311 95.9017C19.7712 95.8242 20.0462 95.7855 20.3561 95.7855C20.7473 95.7855 21.0978 95.8533 21.4076 95.9888C21.7174 96.1205 21.9808 96.3103 22.1977 96.5581C22.4185 96.806 22.5869 97.1042 22.7031 97.4528C22.8193 97.8014 22.8774 98.1906 22.8774 98.6205C22.8774 99.0272 22.8213 99.4009 22.7089 99.7418C22.6005 100.083 22.4359 100.381 22.2151 100.636C21.9944 100.888 21.7155 101.084 21.3786 101.223C21.0455 101.363 20.6524 101.432 20.1992 101.432C19.8584 101.432 19.535 101.386 19.229 101.293C18.9269 101.196 18.6558 101.051 18.4157 100.857C18.1794 100.66 17.9858 100.416 17.8347 100.125C17.6876 99.8309 17.5946 99.4862 17.5559 99.0911H18.5784C18.6248 99.4087 18.7178 99.6759 18.8572 99.8928C18.9966 100.11 19.1787 100.274 19.4033 100.387C19.6318 100.495 19.8971 100.549 20.1992 100.549C20.4548 100.549 20.6814 100.505 20.8789 100.416C21.0765 100.327 21.243 100.199 21.3786 100.032C21.5141 99.8657 21.6167 99.6643 21.6865 99.4281C21.76 99.1918 21.7968 98.9265 21.7968 98.6322C21.7968 98.3649 21.76 98.117 21.6865 97.8885C21.6129 97.66 21.5025 97.4606 21.3553 97.2901C21.212 97.1197 21.0358 96.9881 20.8266 96.8951C20.6175 96.7983 20.3774 96.7499 20.1063 96.7499C19.7461 96.7499 19.473 96.7983 19.2871 96.8951C19.1051 96.9919 18.9172 97.1236 18.7236 97.2901Z" fill="black"/>
<rect width="38.6683" height="38.6683" transform="translate(39.3418 77.4182)" fill="black" fill-opacity="0.05"/>
<path d="M60.1569 92.8459H60.2499V93.7579H60.1569C59.5876 93.7579 59.1112 93.8509 58.7278 94.0368C58.3443 94.2188 58.0403 94.4648 57.8157 94.7746C57.591 95.0806 57.4284 95.4253 57.3277 95.8087C57.2308 96.1921 57.1824 96.5814 57.1824 96.9764V98.2197C57.1824 98.5954 57.227 98.9284 57.316 99.2189C57.4051 99.5055 57.5271 99.7476 57.682 99.9451C57.837 100.143 58.0112 100.292 58.2049 100.392C58.4024 100.493 58.6077 100.543 58.8207 100.543C59.0686 100.543 59.2893 100.497 59.483 100.404C59.6766 100.307 59.8393 100.174 59.971 100.003C60.1066 99.8289 60.2092 99.6236 60.2789 99.3874C60.3486 99.1511 60.3835 98.8916 60.3835 98.6089C60.3835 98.3572 60.3525 98.1151 60.2905 97.8827C60.2286 97.6465 60.1337 97.4373 60.0059 97.2553C59.878 97.0694 59.7173 96.9241 59.5237 96.8196C59.3339 96.7111 59.1073 96.6569 58.8439 96.6569C58.5457 96.6569 58.2669 96.7305 58.0074 96.8777C57.7518 97.021 57.5407 97.2108 57.3741 97.447C57.2115 97.6794 57.1185 97.9331 57.0953 98.2081L56.5259 98.2022C56.5802 97.7685 56.6809 97.3986 56.828 97.0926C56.9791 96.7828 57.165 96.531 57.3858 96.3374C57.6104 96.1399 57.8602 95.9966 58.1352 95.9075C58.414 95.8145 58.7084 95.768 59.0182 95.768C59.4404 95.768 59.8045 95.8474 60.1104 96.0062C60.4164 96.165 60.6681 96.3781 60.8657 96.6453C61.0632 96.9087 61.2084 97.2069 61.3014 97.54C61.3982 97.8692 61.4466 98.2081 61.4466 98.5566C61.4466 98.9556 61.3905 99.3293 61.2781 99.6779C61.1658 100.026 60.9974 100.332 60.7727 100.596C60.552 100.859 60.2789 101.064 59.9536 101.212C59.6282 101.359 59.2506 101.432 58.8207 101.432C58.3637 101.432 57.9648 101.339 57.6239 101.153C57.2831 100.964 57.0004 100.712 56.7758 100.398C56.5511 100.085 56.3826 99.736 56.2703 99.3525C56.158 98.9691 56.1018 98.5799 56.1018 98.1848V97.6794C56.1018 97.0829 56.1619 96.4981 56.2819 95.9249C56.402 95.3517 56.6092 94.8327 56.9036 94.368C57.2018 93.9032 57.6143 93.5333 58.141 93.2583C58.6677 92.9833 59.3397 92.8459 60.1569 92.8459Z" fill="black"/>
<rect width="38.6683" height="38.6683" transform="translate(78.0107 77.4182)" fill="black" fill-opacity="0.05"/>
<path d="M100.168 92.8575V93.4617L96.6647 101.316H95.5318L99.0292 93.7405H94.4513V92.8575H100.168Z" fill="black"/>
<rect width="38.6683" height="38.6683" transform="translate(116.679 77.4182)" fill="black" fill-opacity="0.05"/>
<path d="M138.703 99.0272C138.703 99.5423 138.583 99.98 138.343 100.34C138.107 100.696 137.785 100.968 137.379 101.153C136.976 101.339 136.521 101.432 136.013 101.432C135.506 101.432 135.049 101.339 134.642 101.153C134.236 100.968 133.914 100.696 133.678 100.34C133.442 99.98 133.324 99.5423 133.324 99.0272C133.324 98.6902 133.387 98.3823 133.515 98.1035C133.647 97.8208 133.831 97.5748 134.067 97.3657C134.307 97.1565 134.59 96.9958 134.915 96.8835C135.245 96.7673 135.607 96.7092 136.002 96.7092C136.521 96.7092 136.984 96.8099 137.39 97.0113C137.797 97.2088 138.116 97.4819 138.349 97.8304C138.585 98.179 138.703 98.5779 138.703 99.0272ZM137.623 99.004C137.623 98.6902 137.555 98.4133 137.419 98.1732C137.284 97.9292 137.094 97.7394 136.85 97.6039C136.606 97.4683 136.323 97.4005 136.002 97.4005C135.673 97.4005 135.388 97.4683 135.148 97.6039C134.911 97.7394 134.728 97.9292 134.596 98.1732C134.464 98.4133 134.398 98.6902 134.398 99.004C134.398 99.3293 134.462 99.6082 134.59 99.8405C134.722 100.069 134.908 100.245 135.148 100.369C135.392 100.489 135.68 100.549 136.013 100.549C136.346 100.549 136.633 100.489 136.873 100.369C137.113 100.245 137.297 100.069 137.425 99.8405C137.557 99.6082 137.623 99.3293 137.623 99.004ZM138.506 95.0593C138.506 95.4698 138.397 95.8397 138.18 96.1689C137.963 96.4981 137.667 96.7576 137.291 96.9474C136.916 97.1372 136.49 97.2321 136.013 97.2321C135.529 97.2321 135.097 97.1372 134.718 96.9474C134.342 96.7576 134.048 96.4981 133.835 96.1689C133.622 95.8397 133.515 95.4698 133.515 95.0593C133.515 94.5674 133.622 94.1491 133.835 93.8044C134.052 93.4597 134.348 93.1964 134.724 93.0143C135.099 92.8323 135.527 92.7413 136.008 92.7413C136.492 92.7413 136.922 92.8323 137.297 93.0143C137.673 93.1964 137.967 93.4597 138.18 93.8044C138.397 94.1491 138.506 94.5674 138.506 95.0593ZM137.431 95.0767C137.431 94.794 137.371 94.5442 137.251 94.3273C137.131 94.1104 136.964 93.94 136.751 93.816C136.538 93.6882 136.29 93.6243 136.008 93.6243C135.725 93.6243 135.477 93.6844 135.264 93.8044C135.055 93.9206 134.89 94.0872 134.77 94.304C134.654 94.5209 134.596 94.7785 134.596 95.0767C134.596 95.3672 134.654 95.6209 134.77 95.8378C134.89 96.0547 135.057 96.2231 135.27 96.3432C135.483 96.4633 135.731 96.5233 136.013 96.5233C136.296 96.5233 136.542 96.4633 136.751 96.3432C136.964 96.2231 137.131 96.0547 137.251 95.8378C137.371 95.6209 137.431 95.3672 137.431 95.0767Z" fill="black"/>
<rect width="38.6683" height="38.6683" transform="translate(155.347 77.4182)" fill="black" fill-opacity="0.05"/>
<path d="M173.106 100.416H173.216C173.836 100.416 174.34 100.329 174.727 100.154C175.114 99.98 175.412 99.7456 175.621 99.4513C175.831 99.1569 175.974 98.8258 176.051 98.4579C176.129 98.0861 176.168 97.7046 176.168 97.3134V96.0179C176.168 95.6344 176.123 95.2936 176.034 94.9954C175.949 94.6972 175.829 94.4473 175.674 94.2459C175.523 94.0446 175.35 93.8916 175.157 93.787C174.963 93.6824 174.758 93.6301 174.541 93.6301C174.293 93.6301 174.07 93.6805 173.873 93.7812C173.679 93.878 173.515 94.0155 173.379 94.1937C173.247 94.3718 173.147 94.581 173.077 94.8211C173.007 95.0612 172.972 95.3227 172.972 95.6054C172.972 95.8571 173.003 96.1011 173.065 96.3374C173.127 96.5736 173.222 96.7867 173.35 96.9764C173.478 97.1662 173.637 97.3173 173.826 97.4296C174.02 97.538 174.247 97.5922 174.506 97.5922C174.746 97.5922 174.971 97.5458 175.18 97.4528C175.393 97.356 175.581 97.2262 175.744 97.0636C175.91 96.897 176.042 96.7092 176.139 96.5001C176.239 96.2909 176.297 96.0721 176.313 95.8436H176.824C176.824 96.165 176.76 96.4826 176.632 96.7963C176.508 97.1062 176.334 97.3889 176.11 97.6445C175.885 97.9002 175.621 98.1054 175.319 98.2603C175.017 98.4114 174.688 98.4869 174.332 98.4869C173.913 98.4869 173.551 98.4056 173.245 98.2429C172.939 98.0802 172.688 97.8634 172.49 97.5922C172.297 97.3211 172.151 97.019 172.054 96.686C171.961 96.349 171.915 96.0082 171.915 95.6635C171.915 95.2607 171.971 94.8831 172.083 94.5306C172.196 94.1782 172.362 93.8683 172.583 93.6011C172.804 93.33 173.077 93.1189 173.402 92.9679C173.731 92.8168 174.111 92.7413 174.541 92.7413C175.025 92.7413 175.438 92.8381 175.778 93.0318C176.119 93.2254 176.396 93.4849 176.609 93.8102C176.826 94.1356 176.985 94.5016 177.086 94.9082C177.186 95.3149 177.237 95.7332 177.237 96.1631V96.5523C177.237 96.99 177.208 97.4354 177.149 97.8885C177.095 98.3378 176.989 98.7677 176.83 99.1783C176.675 99.5888 176.448 99.9567 176.15 100.282C175.852 100.604 175.463 100.859 174.982 101.049C174.506 101.235 173.917 101.328 173.216 101.328H173.106V100.416Z" fill="black"/>
<rect width="38.6683" height="38.6683" transform="translate(194.016 77.4182)" fill="black" fill-opacity="0.05"/>
<path d="M210.832 92.811V101.316H209.758V94.153L207.591 94.9431V93.9729L210.664 92.811H210.832ZM219.422 96.4129V97.7026C219.422 98.3959 219.36 98.9807 219.236 99.4571C219.112 99.9335 218.934 100.317 218.701 100.607C218.469 100.898 218.188 101.109 217.859 101.241C217.534 101.368 217.166 101.432 216.755 101.432C216.43 101.432 216.13 101.392 215.855 101.31C215.58 101.229 215.332 101.099 215.111 100.921C214.894 100.739 214.708 100.503 214.553 100.212C214.398 99.9219 214.28 99.5694 214.199 99.155C214.118 98.7406 214.077 98.2565 214.077 97.7026V96.4129C214.077 95.7196 214.139 95.1387 214.263 94.67C214.391 94.2014 214.571 93.8257 214.803 93.543C215.035 93.2564 215.314 93.0511 215.64 92.9272C215.969 92.8032 216.337 92.7413 216.743 92.7413C217.073 92.7413 217.375 92.7819 217.65 92.8633C217.929 92.9407 218.176 93.0666 218.393 93.2409C218.61 93.4113 218.794 93.6398 218.945 93.9264C219.1 94.2092 219.218 94.5558 219.3 94.9663C219.381 95.3769 219.422 95.8591 219.422 96.4129ZM218.341 97.8769V96.2328C218.341 95.8533 218.318 95.5202 218.271 95.2336C218.229 94.9431 218.165 94.6952 218.08 94.49C217.994 94.2847 217.886 94.1181 217.754 93.9903C217.627 93.8625 217.477 93.7696 217.307 93.7115C217.14 93.6495 216.953 93.6185 216.743 93.6185C216.488 93.6185 216.261 93.6669 216.064 93.7638C215.866 93.8567 215.7 94.0058 215.564 94.2111C215.432 94.4164 215.332 94.6855 215.262 95.0186C215.192 95.3517 215.157 95.7564 215.157 96.2328V97.8769C215.157 98.2565 215.179 98.5915 215.221 98.882C215.268 99.1724 215.336 99.4242 215.425 99.6372C215.514 99.8463 215.622 100.019 215.75 100.154C215.878 100.29 216.025 100.391 216.192 100.456C216.362 100.518 216.55 100.549 216.755 100.549C217.018 100.549 217.249 100.499 217.446 100.398C217.644 100.298 217.809 100.141 217.94 99.9277C218.076 99.7108 218.176 99.4339 218.242 99.0969C218.308 98.7561 218.341 98.3494 218.341 97.8769Z" fill="black"/>
<rect width="38.6683" height="38.6683" transform="translate(232.684 77.4182)" fill="black" fill-opacity="0.38"/>
<path d="M249.501 92.811V101.316H248.427V94.153L246.26 94.9431V93.9729L249.333 92.811H249.501ZM256.313 92.811V101.316H255.238V94.153L253.071 94.9431V93.9729L256.144 92.811H256.313Z" fill="black"/>
<rect width="38.6683" height="38.6683" transform="translate(0.673828 116.086)" fill="black" fill-opacity="0.38"/>
<path d="M17.4906 131.479V139.984H16.4158V132.821L14.2489 133.611V132.641L17.3221 131.479H17.4906ZM26.3122 139.101V139.984H20.7758V139.212L23.5469 136.127C23.8877 135.747 24.1511 135.426 24.337 135.162C24.5268 134.895 24.6585 134.657 24.7321 134.448C24.8095 134.235 24.8482 134.018 24.8482 133.797C24.8482 133.518 24.7901 133.267 24.674 133.042C24.5616 132.813 24.3951 132.631 24.1743 132.496C23.9536 132.36 23.6863 132.293 23.3726 132.293C22.9969 132.293 22.6832 132.366 22.4315 132.513C22.1836 132.657 21.9977 132.858 21.8738 133.117C21.7498 133.377 21.6879 133.675 21.6879 134.012H20.6131C20.6131 133.536 20.7177 133.1 20.9268 132.705C21.1359 132.31 21.4458 131.996 21.8563 131.764C22.2669 131.528 22.7723 131.409 23.3726 131.409C23.9071 131.409 24.3641 131.504 24.7437 131.694C25.1232 131.88 25.4137 132.143 25.6151 132.484C25.8204 132.821 25.923 133.216 25.923 133.669C25.923 133.917 25.8804 134.169 25.7952 134.425C25.7139 134.676 25.5996 134.928 25.4524 135.18C25.3091 135.432 25.1407 135.68 24.947 135.924C24.7572 136.168 24.5539 136.408 24.337 136.644L22.0713 139.101H26.3122Z" fill="black"/>
<rect width="38.6683" height="38.6683" transform="translate(39.3418 116.086)" fill="#C30101"/>
<path d="M56.1585 131.479V139.984H55.0838V132.821L52.9168 133.611V132.641L55.9901 131.479H56.1585ZM61.0065 135.226H61.7734C62.149 135.226 62.4589 135.164 62.7029 135.04C62.9508 134.913 63.1347 134.74 63.2548 134.523C63.3787 134.303 63.4407 134.055 63.4407 133.78C63.4407 133.454 63.3865 133.181 63.278 132.961C63.1696 132.74 63.0069 132.573 62.79 132.461C62.5731 132.349 62.2981 132.293 61.9651 132.293C61.663 132.293 61.3957 132.353 61.1633 132.473C60.9348 132.589 60.7547 132.755 60.6231 132.972C60.4953 133.189 60.4313 133.445 60.4313 133.739H59.3566C59.3566 133.309 59.465 132.918 59.6819 132.566C59.8988 132.213 60.2028 131.932 60.594 131.723C60.9891 131.514 61.4461 131.409 61.9651 131.409C62.4763 131.409 62.9236 131.501 63.3071 131.683C63.6905 131.861 63.9887 132.128 64.2017 132.484C64.4148 132.837 64.5213 133.276 64.5213 133.803C64.5213 134.016 64.4709 134.245 64.3702 134.489C64.2734 134.729 64.1204 134.953 63.9113 135.162C63.706 135.372 63.4388 135.544 63.1095 135.68C62.7803 135.811 62.3853 135.877 61.9244 135.877H61.0065V135.226ZM61.0065 136.109V135.465H61.9244C62.4628 135.465 62.9081 135.528 63.2606 135.656C63.613 135.784 63.89 135.954 64.0914 136.168C64.2966 136.381 64.4399 136.615 64.5213 136.87C64.6065 137.122 64.6491 137.374 64.6491 137.626C64.6491 138.021 64.5813 138.371 64.4457 138.677C64.3141 138.983 64.1262 139.243 63.8822 139.456C63.6421 139.669 63.3594 139.829 63.034 139.938C62.7087 140.046 62.3543 140.101 61.9709 140.101C61.6029 140.101 61.2563 140.048 60.931 139.944C60.6095 139.839 60.3248 139.688 60.077 139.491C59.8291 139.289 59.6354 139.043 59.496 138.753C59.3566 138.458 59.2869 138.123 59.2869 137.748H60.3616C60.3616 138.042 60.4255 138.3 60.5533 138.52C60.685 138.741 60.8709 138.913 61.1111 139.037C61.3551 139.157 61.6417 139.218 61.9709 139.218C62.3001 139.218 62.5828 139.161 62.8191 139.049C63.0592 138.933 63.2432 138.759 63.371 138.526C63.5027 138.294 63.5685 138.001 63.5685 137.649C63.5685 137.296 63.4949 137.008 63.3477 136.783C63.2006 136.555 62.9914 136.386 62.7203 136.278C62.4531 136.166 62.1374 136.109 61.7734 136.109H61.0065Z" fill="white"/>
<rect width="38.6683" height="38.6683" transform="translate(78.0107 116.086)" fill="black" fill-opacity="0.05"/>
<path d="M94.8275 131.479V139.984H93.7527V132.821L91.5858 133.611V132.641L94.659 131.479H94.8275ZM103.823 137.138V138.021H97.7118V137.388L101.5 131.526H102.377L101.436 133.222L98.9318 137.138H103.823ZM102.644 131.526V139.984H101.569V131.526H102.644Z" fill="black"/>
<rect width="38.6683" height="38.6683" transform="translate(116.679 116.086)" fill="black" fill-opacity="0.05"/>
<path d="M133.496 131.479V139.984H132.422V132.821L130.255 133.611V132.641L133.328 131.479H133.496ZM138.135 135.958L137.275 135.738L137.7 131.526H142.039V132.519H138.612L138.356 134.82C138.511 134.731 138.707 134.647 138.943 134.57C139.183 134.492 139.458 134.454 139.768 134.454C140.159 134.454 140.509 134.521 140.819 134.657C141.129 134.789 141.392 134.978 141.609 135.226C141.83 135.474 141.999 135.772 142.115 136.121C142.231 136.47 142.289 136.859 142.289 137.289C142.289 137.695 142.233 138.069 142.121 138.41C142.012 138.751 141.848 139.049 141.627 139.305C141.406 139.556 141.127 139.752 140.79 139.891C140.457 140.031 140.064 140.101 139.611 140.101C139.27 140.101 138.947 140.054 138.641 139.961C138.339 139.864 138.067 139.719 137.827 139.525C137.591 139.328 137.397 139.084 137.246 138.793C137.099 138.499 137.006 138.154 136.968 137.759H137.99C138.036 138.077 138.129 138.344 138.269 138.561C138.408 138.778 138.59 138.943 138.815 139.055C139.043 139.163 139.309 139.218 139.611 139.218C139.866 139.218 140.093 139.173 140.291 139.084C140.488 138.995 140.655 138.867 140.79 138.7C140.926 138.534 141.028 138.333 141.098 138.096C141.172 137.86 141.208 137.595 141.208 137.3C141.208 137.033 141.172 136.785 141.098 136.557C141.025 136.328 140.914 136.129 140.767 135.958C140.624 135.788 140.447 135.656 140.238 135.563C140.029 135.466 139.789 135.418 139.518 135.418C139.158 135.418 138.885 135.466 138.699 135.563C138.517 135.66 138.329 135.792 138.135 135.958Z" fill="black"/>
<rect width="38.6683" height="38.6683" transform="translate(155.347 116.086)" fill="#C30101"/>
<path d="M172.163 131.479V139.984H171.089V132.821L168.922 133.611V132.641L171.995 131.479H172.163ZM179.568 131.514H179.661V132.426H179.568C178.998 132.426 178.522 132.519 178.138 132.705C177.755 132.887 177.451 133.133 177.226 133.443C177.002 133.749 176.839 134.093 176.738 134.477C176.642 134.86 176.593 135.25 176.593 135.645V136.888C176.593 137.264 176.638 137.597 176.727 137.887C176.816 138.174 176.938 138.416 177.093 138.613C177.248 138.811 177.422 138.96 177.616 139.061C177.813 139.161 178.018 139.212 178.231 139.212C178.479 139.212 178.7 139.165 178.894 139.072C179.087 138.975 179.25 138.842 179.382 138.671C179.517 138.497 179.62 138.292 179.69 138.056C179.759 137.819 179.794 137.56 179.794 137.277C179.794 137.025 179.763 136.783 179.701 136.551C179.639 136.315 179.544 136.106 179.417 135.924C179.289 135.738 179.128 135.592 178.934 135.488C178.745 135.379 178.518 135.325 178.255 135.325C177.956 135.325 177.678 135.399 177.418 135.546C177.162 135.689 176.951 135.879 176.785 136.115C176.622 136.348 176.529 136.601 176.506 136.876L175.937 136.87C175.991 136.437 176.092 136.067 176.239 135.761C176.39 135.451 176.576 135.199 176.796 135.006C177.021 134.808 177.271 134.665 177.546 134.576C177.825 134.483 178.119 134.436 178.429 134.436C178.851 134.436 179.215 134.516 179.521 134.674C179.827 134.833 180.079 135.046 180.276 135.314C180.474 135.577 180.619 135.875 180.712 136.208C180.809 136.537 180.857 136.876 180.857 137.225C180.857 137.624 180.801 137.998 180.689 138.346C180.576 138.695 180.408 139.001 180.183 139.264C179.963 139.527 179.69 139.733 179.364 139.88C179.039 140.027 178.661 140.101 178.231 140.101C177.774 140.101 177.375 140.008 177.035 139.822C176.694 139.632 176.411 139.38 176.186 139.066C175.962 138.753 175.793 138.404 175.681 138.021C175.569 137.637 175.513 137.248 175.513 136.853V136.348C175.513 135.751 175.573 135.166 175.693 134.593C175.813 134.02 176.02 133.501 176.314 133.036C176.612 132.571 177.025 132.202 177.552 131.927C178.078 131.652 178.75 131.514 179.568 131.514Z" fill="white"/>
<rect width="38.6683" height="38.6683" transform="translate(194.016 116.086)" fill="black" fill-opacity="0.05"/>
<path d="M210.832 131.479V139.984H209.758V132.821L207.591 133.611V132.641L210.664 131.479H210.832ZM219.579 131.526V132.13L216.075 139.984H214.943L218.44 132.409H213.862V131.526H219.579Z" fill="black"/>
<rect width="38.6683" height="38.6683" transform="translate(232.684 116.086)" fill="#2EA66D"/>
<path d="M249.501 131.479V139.984H248.427V132.821L246.26 133.611V132.641L249.333 131.479H249.501ZM258.114 137.695C258.114 138.211 257.994 138.648 257.754 139.008C257.517 139.365 257.196 139.636 256.789 139.822C256.386 140.008 255.931 140.101 255.424 140.101C254.917 140.101 254.46 140.008 254.053 139.822C253.646 139.636 253.325 139.365 253.089 139.008C252.852 138.648 252.734 138.211 252.734 137.695C252.734 137.358 252.798 137.051 252.926 136.772C253.058 136.489 253.242 136.243 253.478 136.034C253.718 135.825 254.001 135.664 254.326 135.552C254.655 135.436 255.017 135.377 255.412 135.377C255.931 135.377 256.394 135.478 256.801 135.68C257.208 135.877 257.527 136.15 257.759 136.499C257.996 136.847 258.114 137.246 258.114 137.695ZM257.033 137.672C257.033 137.358 256.965 137.082 256.83 136.841C256.694 136.597 256.505 136.408 256.261 136.272C256.017 136.137 255.734 136.069 255.412 136.069C255.083 136.069 254.799 136.137 254.558 136.272C254.322 136.408 254.138 136.597 254.007 136.841C253.875 137.082 253.809 137.358 253.809 137.672C253.809 137.998 253.873 138.276 254.001 138.509C254.132 138.737 254.318 138.913 254.558 139.037C254.802 139.157 255.091 139.218 255.424 139.218C255.757 139.218 256.044 139.157 256.284 139.037C256.524 138.913 256.708 138.737 256.836 138.509C256.967 138.276 257.033 137.998 257.033 137.672ZM257.916 133.727C257.916 134.138 257.808 134.508 257.591 134.837C257.374 135.166 257.078 135.426 256.702 135.616C256.326 135.805 255.9 135.9 255.424 135.9C254.94 135.9 254.508 135.805 254.129 135.616C253.753 135.426 253.458 135.166 253.245 134.837C253.032 134.508 252.926 134.138 252.926 133.727C252.926 133.236 253.032 132.817 253.245 132.473C253.462 132.128 253.759 131.865 254.134 131.683C254.51 131.501 254.938 131.409 255.418 131.409C255.902 131.409 256.332 131.501 256.708 131.683C257.084 131.865 257.378 132.128 257.591 132.473C257.808 132.817 257.916 133.236 257.916 133.727ZM256.842 133.745C256.842 133.462 256.782 133.212 256.661 132.995C256.541 132.779 256.375 132.608 256.162 132.484C255.949 132.356 255.701 132.293 255.418 132.293C255.135 132.293 254.888 132.353 254.675 132.473C254.465 132.589 254.301 132.755 254.181 132.972C254.065 133.189 254.007 133.447 254.007 133.745C254.007 134.035 254.065 134.289 254.181 134.506C254.301 134.723 254.467 134.891 254.68 135.011C254.893 135.131 255.141 135.192 255.424 135.192C255.707 135.192 255.953 135.131 256.162 135.011C256.375 134.891 256.541 134.723 256.661 134.506C256.782 134.289 256.842 134.035 256.842 133.745Z" fill="black"/>
<rect width="38.6683" height="38.6683" transform="translate(0.673828 154.755)" fill="black" fill-opacity="0.38"/>
<path d="M17.4906 170.148V178.653H16.4158V171.49L14.2489 172.28V171.31L17.3221 170.148H17.4906ZM21.8389 177.752H21.9493C22.569 177.752 23.0725 177.665 23.4598 177.491C23.8471 177.317 24.1453 177.082 24.3544 176.788C24.5636 176.494 24.7069 176.162 24.7843 175.795C24.8618 175.423 24.9005 175.041 24.9005 174.65V173.355C24.9005 172.971 24.856 172.63 24.7669 172.332C24.6817 172.034 24.5616 171.784 24.4067 171.583C24.2557 171.381 24.0833 171.228 23.8897 171.124C23.696 171.019 23.4907 170.967 23.2739 170.967C23.026 170.967 22.8033 171.017 22.6058 171.118C22.4121 171.215 22.2475 171.352 22.112 171.53C21.9803 171.708 21.8796 171.918 21.8099 172.158C21.7401 172.398 21.7053 172.659 21.7053 172.942C21.7053 173.194 21.7363 173.438 21.7982 173.674C21.8602 173.91 21.9551 174.123 22.0829 174.313C22.2107 174.503 22.3695 174.654 22.5593 174.766C22.7529 174.875 22.9795 174.929 23.239 174.929C23.4791 174.929 23.7038 174.882 23.9129 174.789C24.1259 174.693 24.3138 174.563 24.4764 174.4C24.643 174.234 24.7747 174.046 24.8715 173.837C24.9722 173.628 25.0303 173.409 25.0458 173.18H25.557C25.557 173.502 25.4931 173.819 25.3653 174.133C25.2414 174.443 25.0671 174.726 24.8424 174.981C24.6178 175.237 24.3544 175.442 24.0523 175.597C23.7502 175.748 23.421 175.824 23.0647 175.824C22.6464 175.824 22.2843 175.742 21.9783 175.58C21.6724 175.417 21.4206 175.2 21.2231 174.929C21.0294 174.658 20.8842 174.356 20.7874 174.023C20.6944 173.686 20.6479 173.345 20.6479 173C20.6479 172.597 20.7041 172.22 20.8164 171.867C20.9287 171.515 21.0953 171.205 21.316 170.938C21.5368 170.667 21.8099 170.456 22.1352 170.305C22.4644 170.153 22.844 170.078 23.2739 170.078C23.758 170.078 24.1705 170.175 24.5113 170.368C24.8521 170.562 25.129 170.822 25.3421 171.147C25.5589 171.472 25.7177 171.838 25.8184 172.245C25.9191 172.652 25.9695 173.07 25.9695 173.5V173.889C25.9695 174.327 25.9404 174.772 25.8823 175.225C25.8281 175.674 25.7216 176.104 25.5628 176.515C25.4079 176.925 25.1813 177.293 24.8831 177.619C24.5849 177.94 24.1956 178.196 23.7154 178.386C23.239 178.571 22.6503 178.664 21.9493 178.664H21.8389V177.752Z" fill="black"/>
<rect width="38.6683" height="38.6683" transform="translate(39.3418 154.755)" fill="#C30101"/>
<path d="M58.1686 177.77V178.653H52.6322V177.88L55.4033 174.795C55.7441 174.416 56.0075 174.094 56.1934 173.831C56.3832 173.564 56.5149 173.325 56.5885 173.116C56.6659 172.903 56.7046 172.686 56.7046 172.466C56.7046 172.187 56.6465 171.935 56.5304 171.71C56.418 171.482 56.2515 171.3 56.0307 171.164C55.81 171.029 55.5427 170.961 55.229 170.961C54.8533 170.961 54.5396 171.035 54.2879 171.182C54.04 171.325 53.8541 171.526 53.7302 171.786C53.6062 172.045 53.5443 172.344 53.5443 172.681H52.4695C52.4695 172.204 52.5741 171.769 52.7832 171.373C52.9923 170.978 53.3022 170.665 53.7127 170.432C54.1233 170.196 54.6287 170.078 55.229 170.078C55.7635 170.078 56.2205 170.173 56.6001 170.363C56.9796 170.549 57.2701 170.812 57.4715 171.153C57.6768 171.49 57.7794 171.885 57.7794 172.338C57.7794 172.586 57.7368 172.837 57.6516 173.093C57.5703 173.345 57.456 173.597 57.3088 173.848C57.1655 174.1 56.9971 174.348 56.8034 174.592C56.6136 174.836 56.4103 175.076 56.1934 175.312L53.9277 177.77H58.1686ZM64.7478 173.75V175.039C64.7478 175.733 64.6859 176.317 64.5619 176.794C64.438 177.27 64.2598 177.654 64.0275 177.944C63.7951 178.235 63.5143 178.446 63.1851 178.577C62.8597 178.705 62.4918 178.769 62.0813 178.769C61.7559 178.769 61.4558 178.728 61.1808 178.647C60.9058 178.566 60.6579 178.436 60.4372 178.258C60.2203 178.076 60.0344 177.839 59.8794 177.549C59.7245 177.259 59.6064 176.906 59.5251 176.492C59.4437 176.077 59.4031 175.593 59.4031 175.039V173.75C59.4031 173.056 59.465 172.475 59.589 172.007C59.7168 171.538 59.8969 171.162 60.1293 170.88C60.3616 170.593 60.6405 170.388 60.9658 170.264C61.295 170.14 61.663 170.078 62.0696 170.078C62.3988 170.078 62.7009 170.119 62.9759 170.2C63.2548 170.277 63.5027 170.403 63.7195 170.578C63.9364 170.748 64.1204 170.976 64.2715 171.263C64.4264 171.546 64.5445 171.892 64.6258 172.303C64.7072 172.714 64.7478 173.196 64.7478 173.75ZM63.6673 175.214V173.569C63.6673 173.19 63.644 172.857 63.5975 172.57C63.5549 172.28 63.491 172.032 63.4058 171.827C63.3206 171.621 63.2122 171.455 63.0805 171.327C62.9527 171.199 62.8036 171.106 62.6332 171.048C62.4666 170.986 62.2788 170.955 62.0696 170.955C61.814 170.955 61.5874 171.004 61.3899 171.1C61.1924 171.193 61.0259 171.342 60.8903 171.548C60.7586 171.753 60.6579 172.022 60.5882 172.355C60.5185 172.688 60.4836 173.093 60.4836 173.569V175.214C60.4836 175.593 60.5049 175.928 60.5475 176.219C60.594 176.509 60.6618 176.761 60.7509 176.974C60.84 177.183 60.9484 177.355 61.0762 177.491C61.204 177.626 61.3512 177.727 61.5177 177.793C61.6881 177.855 61.876 177.886 62.0813 177.886C62.3446 177.886 62.5751 177.836 62.7726 177.735C62.9701 177.634 63.1347 177.477 63.2664 177.264C63.402 177.047 63.5027 176.771 63.5685 176.434C63.6343 176.093 63.6673 175.686 63.6673 175.214Z" fill="white"/>
<rect width="38.6683" height="38.6683" transform="translate(78.0107 154.755)" fill="#C30101"/>
<path d="M96.8376 177.77V178.653H91.3011V177.88L94.0723 174.795C94.4131 174.416 94.6764 174.094 94.8623 173.831C95.0521 173.564 95.1838 173.325 95.2574 173.116C95.3349 172.903 95.3736 172.686 95.3736 172.466C95.3736 172.187 95.3155 171.935 95.1993 171.71C95.087 171.482 94.9204 171.3 94.6997 171.164C94.4789 171.029 94.2117 170.961 93.898 170.961C93.5223 170.961 93.2086 171.035 92.9568 171.182C92.7089 171.325 92.523 171.526 92.3991 171.786C92.2752 172.045 92.2132 172.344 92.2132 172.681H91.1384C91.1384 172.204 91.243 171.769 91.4521 171.373C91.6613 170.978 91.9711 170.665 92.3817 170.432C92.7922 170.196 93.2976 170.078 93.898 170.078C94.4324 170.078 94.8895 170.173 95.269 170.363C95.6486 170.549 95.939 170.812 96.1404 171.153C96.3457 171.49 96.4484 171.885 96.4484 172.338C96.4484 172.586 96.4057 172.837 96.3205 173.093C96.2392 173.345 96.125 173.597 95.9778 173.848C95.8345 174.1 95.666 174.348 95.4723 174.592C95.2826 174.836 95.0792 175.076 94.8623 175.312L92.5966 177.77H96.8376ZM101.639 170.148V178.653H100.564V171.49L98.3973 172.28V171.31L101.471 170.148H101.639Z" fill="white"/>
<rect width="38.6683" height="38.6683" transform="translate(116.679 154.755)" fill="#C30101"/>
<path d="M135.507 177.77V178.653H129.97V177.88L132.741 174.795C133.082 174.416 133.345 174.094 133.531 173.831C133.721 173.564 133.853 173.325 133.926 173.116C134.004 172.903 134.043 172.686 134.043 172.466C134.043 172.187 133.984 171.935 133.868 171.71C133.756 171.482 133.589 171.3 133.369 171.164C133.148 171.029 132.881 170.961 132.567 170.961C132.191 170.961 131.878 171.035 131.626 171.182C131.378 171.325 131.192 171.526 131.068 171.786C130.944 172.045 130.882 172.344 130.882 172.681H129.807C129.807 172.204 129.912 171.769 130.121 171.373C130.33 170.978 130.64 170.665 131.051 170.432C131.461 170.196 131.967 170.078 132.567 170.078C133.101 170.078 133.558 170.173 133.938 170.363C134.318 170.549 134.608 170.812 134.809 171.153C135.015 171.49 135.117 171.885 135.117 172.338C135.117 172.586 135.075 172.837 134.989 173.093C134.908 173.345 134.794 173.597 134.647 173.848C134.503 174.1 134.335 174.348 134.141 174.592C133.952 174.836 133.748 175.076 133.531 175.312L131.266 177.77H135.507ZM142.318 177.77V178.653H136.782V177.88L139.553 174.795C139.894 174.416 140.157 174.094 140.343 173.831C140.533 173.564 140.664 173.325 140.738 173.116C140.815 172.903 140.854 172.686 140.854 172.466C140.854 172.187 140.796 171.935 140.68 171.71C140.568 171.482 140.401 171.3 140.18 171.164C139.959 171.029 139.692 170.961 139.378 170.961C139.003 170.961 138.689 171.035 138.437 171.182C138.189 171.325 138.004 171.526 137.88 171.786C137.756 172.045 137.694 172.344 137.694 172.681H136.619C136.619 172.204 136.724 171.769 136.933 171.373C137.142 170.978 137.452 170.665 137.862 170.432C138.273 170.196 138.778 170.078 139.378 170.078C139.913 170.078 140.37 170.173 140.75 170.363C141.129 170.549 141.42 170.812 141.621 171.153C141.826 171.49 141.929 171.885 141.929 172.338C141.929 172.586 141.886 172.837 141.801 173.093C141.72 173.345 141.605 173.597 141.458 173.848C141.315 174.1 141.147 174.348 140.953 174.592C140.763 174.836 140.56 175.076 140.343 175.312L138.077 177.77H142.318Z" fill="white"/>
<rect width="38.6683" height="38.6683" transform="translate(155.347 154.755)" fill="#C30101"/>
<path d="M174.174 177.77V178.653H168.637V177.88L171.408 174.795C171.749 174.416 172.012 174.094 172.198 173.831C172.388 173.564 172.52 173.325 172.593 173.116C172.671 172.903 172.71 172.686 172.71 172.466C172.71 172.187 172.651 171.935 172.535 171.71C172.423 171.482 172.256 171.3 172.036 171.164C171.815 171.029 171.548 170.961 171.234 170.961C170.858 170.961 170.545 171.035 170.293 171.182C170.045 171.325 169.859 171.526 169.735 171.786C169.611 172.045 169.549 172.344 169.549 172.681H168.474C168.474 172.204 168.579 171.769 168.788 171.373C168.997 170.978 169.307 170.665 169.718 170.432C170.128 170.196 170.634 170.078 171.234 170.078C171.768 170.078 172.225 170.173 172.605 170.363C172.985 170.549 173.275 170.812 173.476 171.153C173.682 171.49 173.784 171.885 173.784 172.338C173.784 172.586 173.742 172.837 173.656 173.093C173.575 173.345 173.461 173.597 173.314 173.848C173.17 174.1 173.002 174.348 172.808 174.592C172.619 174.836 172.415 175.076 172.198 175.312L169.933 177.77H174.174ZM177.011 173.895H177.778C178.154 173.895 178.464 173.833 178.708 173.709C178.956 173.581 179.14 173.409 179.26 173.192C179.384 172.971 179.446 172.723 179.446 172.448C179.446 172.123 179.391 171.85 179.283 171.629C179.174 171.408 179.012 171.242 178.795 171.129C178.578 171.017 178.303 170.961 177.97 170.961C177.668 170.961 177.401 171.021 177.168 171.141C176.94 171.257 176.76 171.424 176.628 171.641C176.5 171.858 176.436 172.113 176.436 172.408H175.361C175.361 171.978 175.47 171.586 175.687 171.234C175.904 170.882 176.208 170.601 176.599 170.392C176.994 170.183 177.451 170.078 177.97 170.078C178.481 170.078 178.929 170.169 179.312 170.351C179.695 170.529 179.994 170.796 180.207 171.153C180.42 171.505 180.526 171.945 180.526 172.471C180.526 172.684 180.476 172.913 180.375 173.157C180.278 173.397 180.125 173.622 179.916 173.831C179.711 174.04 179.444 174.212 179.114 174.348C178.785 174.48 178.39 174.545 177.929 174.545H177.011V173.895ZM177.011 174.778V174.133H177.929C178.468 174.133 178.913 174.197 179.265 174.325C179.618 174.453 179.895 174.623 180.096 174.836C180.302 175.049 180.445 175.283 180.526 175.539C180.611 175.791 180.654 176.042 180.654 176.294C180.654 176.689 180.586 177.04 180.451 177.346C180.319 177.652 180.131 177.911 179.887 178.124C179.647 178.337 179.364 178.498 179.039 178.606C178.714 178.715 178.359 178.769 177.976 178.769C177.608 178.769 177.261 178.717 176.936 178.612C176.614 178.508 176.33 178.357 176.082 178.159C175.834 177.958 175.64 177.712 175.501 177.421C175.361 177.127 175.292 176.792 175.292 176.416H176.367C176.367 176.711 176.43 176.968 176.558 177.189C176.69 177.41 176.876 177.582 177.116 177.706C177.36 177.826 177.647 177.886 177.976 177.886C178.305 177.886 178.588 177.83 178.824 177.717C179.064 177.601 179.248 177.427 179.376 177.195C179.508 176.962 179.573 176.67 179.573 176.317C179.573 175.965 179.5 175.676 179.353 175.452C179.205 175.223 178.996 175.055 178.725 174.946C178.458 174.834 178.142 174.778 177.778 174.778H177.011Z" fill="white"/>
<rect width="38.6683" height="38.6683" transform="translate(194.016 154.755)" fill="#C30101"/>
<path d="M212.842 177.77V178.653H207.306V177.88L210.077 174.795C210.418 174.416 210.681 174.094 210.867 173.831C211.057 173.564 211.189 173.325 211.262 173.116C211.34 172.903 211.378 172.686 211.378 172.466C211.378 172.187 211.32 171.935 211.204 171.71C211.092 171.482 210.925 171.3 210.705 171.164C210.484 171.029 210.217 170.961 209.903 170.961C209.527 170.961 209.213 171.035 208.962 171.182C208.714 171.325 208.528 171.526 208.404 171.786C208.28 172.045 208.218 172.344 208.218 172.681H207.143C207.143 172.204 207.248 171.769 207.457 171.373C207.666 170.978 207.976 170.665 208.387 170.432C208.797 170.196 209.303 170.078 209.903 170.078C210.437 170.078 210.894 170.173 211.274 170.363C211.653 170.549 211.944 170.812 212.145 171.153C212.351 171.49 212.453 171.885 212.453 172.338C212.453 172.586 212.411 172.837 212.325 173.093C212.244 173.345 212.13 173.597 211.983 173.848C211.839 174.1 211.671 174.348 211.477 174.592C211.287 174.836 211.084 175.076 210.867 175.312L208.602 177.77H212.842ZM219.828 175.806V176.689H213.717V176.056L217.505 170.194H218.382L217.441 171.891L214.937 175.806H219.828ZM218.649 170.194V178.653H217.574V170.194H218.649Z" fill="white"/>
<rect width="38.6683" height="38.6683" transform="translate(232.684 154.755)" fill="black" fill-opacity="0.38"/>
<path d="M251.511 177.77V178.653H245.975V177.88L248.746 174.795C249.087 174.416 249.35 174.094 249.536 173.831C249.726 173.564 249.858 173.325 249.931 173.116C250.009 172.903 250.047 172.686 250.047 172.466C250.047 172.187 249.989 171.935 249.873 171.71C249.761 171.482 249.594 171.3 249.374 171.164C249.153 171.029 248.886 170.961 248.572 170.961C248.196 170.961 247.882 171.035 247.631 171.182C247.383 171.325 247.197 171.526 247.073 171.786C246.949 172.045 246.887 172.344 246.887 172.681H245.812C245.812 172.204 245.917 171.769 246.126 171.373C246.335 170.978 246.645 170.665 247.056 170.432C247.466 170.196 247.971 170.078 248.572 170.078C249.106 170.078 249.563 170.173 249.943 170.363C250.322 170.549 250.613 170.812 250.814 171.153C251.02 171.49 251.122 171.885 251.122 172.338C251.122 172.586 251.08 172.837 250.994 173.093C250.913 173.345 250.799 173.597 250.652 173.848C250.508 174.1 250.34 174.348 250.146 174.592C249.956 174.836 249.753 175.076 249.536 175.312L247.27 177.77H251.511ZM254.14 174.627L253.28 174.406L253.704 170.194H258.044V171.188H254.617L254.361 173.488C254.516 173.399 254.711 173.316 254.948 173.238C255.188 173.161 255.463 173.122 255.773 173.122C256.164 173.122 256.514 173.19 256.824 173.325C257.134 173.457 257.397 173.647 257.614 173.895C257.835 174.143 258.003 174.441 258.12 174.789C258.236 175.138 258.294 175.527 258.294 175.957C258.294 176.364 258.238 176.738 258.125 177.078C258.017 177.419 257.852 177.717 257.632 177.973C257.411 178.225 257.132 178.42 256.795 178.56C256.462 178.699 256.069 178.769 255.616 178.769C255.275 178.769 254.952 178.723 254.646 178.63C254.343 178.533 254.072 178.388 253.832 178.194C253.596 177.996 253.402 177.752 253.251 177.462C253.104 177.168 253.011 176.823 252.972 176.428H253.995C254.041 176.745 254.134 177.013 254.274 177.229C254.413 177.446 254.595 177.611 254.82 177.723C255.048 177.832 255.314 177.886 255.616 177.886C255.871 177.886 256.098 177.841 256.295 177.752C256.493 177.663 256.66 177.535 256.795 177.369C256.931 177.202 257.033 177.001 257.103 176.765C257.177 176.528 257.213 176.263 257.213 175.969C257.213 175.702 257.177 175.454 257.103 175.225C257.029 174.997 256.919 174.797 256.772 174.627C256.629 174.456 256.452 174.325 256.243 174.232C256.034 174.135 255.794 174.087 255.523 174.087C255.163 174.087 254.89 174.135 254.704 174.232C254.522 174.329 254.334 174.46 254.14 174.627Z" fill="black"/>
<rect width="38.6683" height="38.6683" transform="translate(0.673828 193.423)" fill="black" fill-opacity="0.38"/>
<path d="M19.5007 216.438V217.321H13.9642V216.548L16.7353 213.464C17.0762 213.084 17.3395 212.762 17.5254 212.499C17.7152 212.232 17.8469 211.994 17.9205 211.785C17.9979 211.572 18.0367 211.355 18.0367 211.134C18.0367 210.855 17.9786 210.603 17.8624 210.379C17.7501 210.15 17.5835 209.968 17.3628 209.833C17.142 209.697 16.8748 209.629 16.561 209.629C16.1854 209.629 15.8717 209.703 15.6199 209.85C15.372 209.993 15.1861 210.195 15.0622 210.454C14.9383 210.714 14.8763 211.012 14.8763 211.349H13.8015C13.8015 210.872 13.9061 210.437 14.1152 210.042C14.3244 209.647 14.6342 209.333 15.0448 209.101C15.4553 208.864 15.9607 208.746 16.561 208.746C17.0955 208.746 17.5525 208.841 17.9321 209.031C18.3117 209.217 18.6021 209.48 18.8035 209.821C19.0088 210.158 19.1114 210.553 19.1114 211.006C19.1114 211.254 19.0688 211.506 18.9836 211.761C18.9023 212.013 18.788 212.265 18.6409 212.517C18.4976 212.768 18.3291 213.016 18.1354 213.26C17.9457 213.504 17.7423 213.744 17.5254 213.981L15.2597 216.438H19.5007ZM24.8947 208.851H24.9877V209.763H24.8947C24.3254 209.763 23.849 209.856 23.4656 210.042C23.0821 210.224 22.7781 210.47 22.5535 210.78C22.3288 211.085 22.1662 211.43 22.0655 211.814C21.9686 212.197 21.9202 212.586 21.9202 212.981V214.225C21.9202 214.6 21.9648 214.933 22.0539 215.224C22.1429 215.51 22.2649 215.752 22.4199 215.95C22.5748 216.148 22.7491 216.297 22.9427 216.397C23.1402 216.498 23.3455 216.548 23.5585 216.548C23.8064 216.548 24.0272 216.502 24.2208 216.409C24.4145 216.312 24.5771 216.179 24.7088 216.008C24.8444 215.834 24.947 215.629 25.0167 215.392C25.0864 215.156 25.1213 214.897 25.1213 214.614C25.1213 214.362 25.0903 214.12 25.0283 213.888C24.9664 213.651 24.8715 213.442 24.7437 213.26C24.6159 213.074 24.4551 212.929 24.2615 212.824C24.0717 212.716 23.8451 212.662 23.5818 212.662C23.2835 212.662 23.0047 212.735 22.7452 212.883C22.4896 213.026 22.2785 213.216 22.112 213.452C21.9493 213.684 21.8563 213.938 21.8331 214.213L21.2638 214.207C21.318 213.773 21.4187 213.403 21.5659 213.098C21.7169 212.788 21.9028 212.536 22.1236 212.342C22.3482 212.145 22.598 212.001 22.873 211.912C23.1519 211.819 23.4462 211.773 23.7561 211.773C24.1782 211.773 24.5423 211.852 24.8482 212.011C25.1542 212.17 25.406 212.383 25.6035 212.65C25.801 212.914 25.9462 213.212 26.0392 213.545C26.136 213.874 26.1844 214.213 26.1844 214.562C26.1844 214.96 26.1283 215.334 26.016 215.683C25.9036 216.031 25.7352 216.337 25.5105 216.601C25.2898 216.864 25.0167 217.069 24.6914 217.216C24.3661 217.364 23.9884 217.437 23.5585 217.437C23.1015 217.437 22.7026 217.344 22.3618 217.158C22.0209 216.969 21.7382 216.717 21.5136 216.403C21.2889 216.089 21.1205 215.741 21.0081 215.357C20.8958 214.974 20.8397 214.585 20.8397 214.19V213.684C20.8397 213.088 20.8997 212.503 21.0198 211.93C21.1398 211.357 21.347 210.838 21.6414 210.373C21.9396 209.908 22.3521 209.538 22.8788 209.263C23.4055 208.988 24.0775 208.851 24.8947 208.851Z" fill="black"/>
<rect width="38.6683" height="38.6683" transform="translate(39.3418 193.423)" fill="#C30101"/>
<path d="M58.1686 216.438V217.321H52.6322V216.548L55.4033 213.464C55.7441 213.084 56.0075 212.762 56.1934 212.499C56.3832 212.232 56.5149 211.994 56.5885 211.785C56.6659 211.572 56.7046 211.355 56.7046 211.134C56.7046 210.855 56.6465 210.603 56.5304 210.379C56.418 210.15 56.2515 209.968 56.0307 209.833C55.81 209.697 55.5427 209.629 55.229 209.629C54.8533 209.629 54.5396 209.703 54.2879 209.85C54.04 209.993 53.8541 210.195 53.7302 210.454C53.6062 210.714 53.5443 211.012 53.5443 211.349H52.4695C52.4695 210.872 52.5741 210.437 52.7832 210.042C52.9923 209.647 53.3022 209.333 53.7127 209.101C54.1233 208.864 54.6287 208.746 55.229 208.746C55.7635 208.746 56.2205 208.841 56.6001 209.031C56.9796 209.217 57.2701 209.48 57.4715 209.821C57.6768 210.158 57.7794 210.553 57.7794 211.006C57.7794 211.254 57.7368 211.506 57.6516 211.761C57.5703 212.013 57.456 212.265 57.3088 212.517C57.1655 212.768 56.9971 213.016 56.8034 213.26C56.6136 213.504 56.4103 213.744 56.1934 213.981L53.9277 216.438H58.1686ZM64.9047 208.862V209.467L61.4015 217.321H60.2687L63.766 209.745H59.1881V208.862H64.9047Z" fill="white"/>
<rect width="38.6683" height="38.6683" transform="translate(78.0107 193.423)" fill="#C30101"/>
<path d="M96.8376 216.438V217.321H91.3011V216.548L94.0723 213.464C94.4131 213.084 94.6764 212.762 94.8623 212.499C95.0521 212.232 95.1838 211.994 95.2574 211.785C95.3349 211.572 95.3736 211.355 95.3736 211.134C95.3736 210.855 95.3155 210.603 95.1993 210.379C95.087 210.15 94.9204 209.968 94.6997 209.833C94.4789 209.697 94.2117 209.629 93.898 209.629C93.5223 209.629 93.2086 209.703 92.9568 209.85C92.7089 209.993 92.523 210.195 92.3991 210.454C92.2752 210.714 92.2132 211.012 92.2132 211.349H91.1384C91.1384 210.872 91.243 210.437 91.4521 210.042C91.6613 209.647 91.9711 209.333 92.3817 209.101C92.7922 208.864 93.2976 208.746 93.898 208.746C94.4324 208.746 94.8895 208.841 95.269 209.031C95.6486 209.217 95.939 209.48 96.1404 209.821C96.3457 210.158 96.4484 210.553 96.4484 211.006C96.4484 211.254 96.4057 211.506 96.3205 211.761C96.2392 212.013 96.125 212.265 95.9778 212.517C95.8345 212.768 95.666 213.016 95.4723 213.26C95.2826 213.504 95.0792 213.744 94.8623 213.981L92.5966 216.438H96.8376ZM103.44 215.032C103.44 215.547 103.32 215.985 103.08 216.345C102.844 216.701 102.522 216.972 102.115 217.158C101.713 217.344 101.258 217.437 100.75 217.437C100.243 217.437 99.7858 217.344 99.3792 217.158C98.9725 216.972 98.651 216.701 98.4148 216.345C98.1785 215.985 98.0604 215.547 98.0604 215.032C98.0604 214.695 98.1243 214.387 98.2521 214.108C98.3838 213.826 98.5678 213.58 98.804 213.371C99.0441 213.161 99.3269 213.001 99.6522 212.888C99.9814 212.772 100.344 212.714 100.739 212.714C101.258 212.714 101.72 212.815 102.127 213.016C102.534 213.214 102.853 213.487 103.086 213.835C103.322 214.184 103.44 214.583 103.44 215.032ZM102.359 215.009C102.359 214.695 102.292 214.418 102.156 214.178C102.021 213.934 101.831 213.744 101.587 213.609C101.343 213.473 101.06 213.405 100.739 213.405C100.409 213.405 100.125 213.473 99.8846 213.609C99.6483 213.744 99.4644 213.934 99.3327 214.178C99.201 214.418 99.1351 214.695 99.1351 215.009C99.1351 215.334 99.1991 215.613 99.3269 215.845C99.4585 216.074 99.6445 216.25 99.8846 216.374C100.129 216.494 100.417 216.554 100.75 216.554C101.083 216.554 101.37 216.494 101.61 216.374C101.85 216.25 102.034 216.074 102.162 215.845C102.294 215.613 102.359 215.334 102.359 215.009ZM103.242 211.064C103.242 211.475 103.134 211.845 102.917 212.174C102.7 212.503 102.404 212.762 102.028 212.952C101.653 213.142 101.227 213.237 100.75 213.237C100.266 213.237 99.8342 213.142 99.4547 212.952C99.079 212.762 98.7846 212.503 98.5716 212.174C98.3586 211.845 98.2521 211.475 98.2521 211.064C98.2521 210.572 98.3586 210.154 98.5716 209.809C98.7885 209.465 99.0848 209.201 99.4605 209.019C99.8362 208.837 100.264 208.746 100.744 208.746C101.229 208.746 101.658 208.837 102.034 209.019C102.41 209.201 102.704 209.465 102.917 209.809C103.134 210.154 103.242 210.572 103.242 211.064ZM102.168 211.082C102.168 210.799 102.108 210.549 101.988 210.332C101.868 210.115 101.701 209.945 101.488 209.821C101.275 209.693 101.027 209.629 100.744 209.629C100.462 209.629 100.214 209.689 100.001 209.809C99.7916 209.925 99.627 210.092 99.507 210.309C99.3908 210.526 99.3327 210.783 99.3327 211.082C99.3327 211.372 99.3908 211.626 99.507 211.843C99.627 212.06 99.7936 212.228 100.007 212.348C100.22 212.468 100.467 212.528 100.75 212.528C101.033 212.528 101.279 212.468 101.488 212.348C101.701 212.228 101.868 212.06 101.988 211.843C102.108 211.626 102.168 211.372 102.168 211.082Z" fill="white"/>
<rect width="38.6683" height="38.6683" transform="translate(116.679 193.423)" fill="#C30101"/>
<path d="M135.507 216.438V217.321H129.97V216.548L132.741 213.464C133.082 213.084 133.345 212.762 133.531 212.499C133.721 212.232 133.853 211.994 133.926 211.785C134.004 211.572 134.043 211.355 134.043 211.134C134.043 210.855 133.984 210.603 133.868 210.379C133.756 210.15 133.589 209.968 133.369 209.833C133.148 209.697 132.881 209.629 132.567 209.629C132.191 209.629 131.878 209.703 131.626 209.85C131.378 209.993 131.192 210.195 131.068 210.454C130.944 210.714 130.882 211.012 130.882 211.349H129.807C129.807 210.872 129.912 210.437 130.121 210.042C130.33 209.647 130.64 209.333 131.051 209.101C131.461 208.864 131.967 208.746 132.567 208.746C133.101 208.746 133.558 208.841 133.938 209.031C134.318 209.217 134.608 209.48 134.809 209.821C135.015 210.158 135.117 210.553 135.117 211.006C135.117 211.254 135.075 211.506 134.989 211.761C134.908 212.013 134.794 212.265 134.647 212.517C134.503 212.768 134.335 213.016 134.141 213.26C133.952 213.504 133.748 213.744 133.531 213.981L131.266 216.438H135.507ZM137.845 216.421H137.955C138.575 216.421 139.078 216.333 139.466 216.159C139.853 215.985 140.151 215.751 140.36 215.456C140.569 215.162 140.713 214.831 140.79 214.463C140.868 214.091 140.906 213.709 140.906 213.318V212.023C140.906 211.639 140.862 211.298 140.773 211C140.688 210.702 140.568 210.452 140.413 210.251C140.262 210.049 140.089 209.896 139.896 209.792C139.702 209.687 139.497 209.635 139.28 209.635C139.032 209.635 138.809 209.685 138.612 209.786C138.418 209.883 138.253 210.02 138.118 210.199C137.986 210.377 137.885 210.586 137.816 210.826C137.746 211.066 137.711 211.328 137.711 211.61C137.711 211.862 137.742 212.106 137.804 212.342C137.866 212.579 137.961 212.792 138.089 212.981C138.217 213.171 138.375 213.322 138.565 213.434C138.759 213.543 138.985 213.597 139.245 213.597C139.485 213.597 139.71 213.551 139.919 213.458C140.132 213.361 140.32 213.231 140.482 213.068C140.649 212.902 140.781 212.714 140.877 212.505C140.978 212.296 141.036 212.077 141.052 211.848H141.563C141.563 212.17 141.499 212.488 141.371 212.801C141.247 213.111 141.073 213.394 140.848 213.649C140.624 213.905 140.36 214.11 140.058 214.265C139.756 214.416 139.427 214.492 139.071 214.492C138.652 214.492 138.29 214.41 137.984 214.248C137.678 214.085 137.426 213.868 137.229 213.597C137.035 213.326 136.89 213.024 136.793 212.691C136.7 212.354 136.654 212.013 136.654 211.668C136.654 211.266 136.71 210.888 136.822 210.536C136.935 210.183 137.101 209.873 137.322 209.606C137.543 209.335 137.816 209.124 138.141 208.973C138.47 208.822 138.85 208.746 139.28 208.746C139.764 208.746 140.176 208.843 140.517 209.037C140.858 209.23 141.135 209.49 141.348 209.815C141.565 210.14 141.724 210.506 141.824 210.913C141.925 211.32 141.975 211.738 141.975 212.168V212.557C141.975 212.995 141.946 213.44 141.888 213.893C141.834 214.343 141.727 214.773 141.569 215.183C141.414 215.594 141.187 215.962 140.889 216.287C140.591 216.608 140.201 216.864 139.721 217.054C139.245 217.24 138.656 217.333 137.955 217.333H137.845V216.421Z" fill="white"/>
<rect width="38.6683" height="38.6683" transform="translate(155.347 193.423)" fill="#C30101"/>
<path d="M170.2 212.563H170.967C171.342 212.563 171.652 212.501 171.896 212.377C172.144 212.249 172.328 212.077 172.448 211.86C172.572 211.639 172.634 211.391 172.634 211.116C172.634 210.791 172.58 210.518 172.471 210.297C172.363 210.077 172.2 209.91 171.983 209.798C171.766 209.685 171.491 209.629 171.158 209.629C170.856 209.629 170.589 209.689 170.357 209.809C170.128 209.925 169.948 210.092 169.816 210.309C169.689 210.526 169.625 210.781 169.625 211.076H168.55C168.55 210.646 168.658 210.255 168.875 209.902C169.092 209.55 169.396 209.269 169.787 209.06C170.182 208.851 170.639 208.746 171.158 208.746C171.67 208.746 172.117 208.837 172.5 209.019C172.884 209.197 173.182 209.465 173.395 209.821C173.608 210.173 173.715 210.613 173.715 211.14C173.715 211.353 173.664 211.581 173.564 211.825C173.467 212.065 173.314 212.29 173.105 212.499C172.899 212.708 172.632 212.881 172.303 213.016C171.974 213.148 171.579 213.214 171.118 213.214H170.2V212.563ZM170.2 213.446V212.801H171.118C171.656 212.801 172.101 212.865 172.454 212.993C172.806 213.121 173.083 213.291 173.285 213.504C173.49 213.717 173.633 213.952 173.715 214.207C173.8 214.459 173.842 214.711 173.842 214.962C173.842 215.357 173.775 215.708 173.639 216.014C173.507 216.32 173.32 216.579 173.076 216.792C172.835 217.005 172.553 217.166 172.227 217.275C171.902 217.383 171.548 217.437 171.164 217.437C170.796 217.437 170.45 217.385 170.124 217.28C169.803 217.176 169.518 217.025 169.27 216.827C169.022 216.626 168.829 216.38 168.689 216.089C168.55 215.795 168.48 215.46 168.48 215.084H169.555C169.555 215.379 169.619 215.636 169.747 215.857C169.878 216.078 170.064 216.25 170.304 216.374C170.548 216.494 170.835 216.554 171.164 216.554C171.493 216.554 171.776 216.498 172.012 216.386C172.253 216.27 172.436 216.095 172.564 215.863C172.696 215.63 172.762 215.338 172.762 214.986C172.762 214.633 172.688 214.345 172.541 214.12C172.394 213.891 172.185 213.723 171.914 213.615C171.646 213.502 171.331 213.446 170.967 213.446H170.2ZM180.753 212.418V213.708C180.753 214.401 180.691 214.986 180.567 215.462C180.443 215.938 180.265 216.322 180.032 216.612C179.8 216.903 179.519 217.114 179.19 217.246C178.865 217.373 178.497 217.437 178.086 217.437C177.761 217.437 177.461 217.397 177.186 217.315C176.911 217.234 176.663 217.104 176.442 216.926C176.225 216.744 176.039 216.508 175.884 216.217C175.729 215.927 175.611 215.574 175.53 215.16C175.449 214.745 175.408 214.261 175.408 213.708V212.418C175.408 211.725 175.47 211.144 175.594 210.675C175.722 210.206 175.902 209.831 176.134 209.548C176.367 209.261 176.645 209.056 176.971 208.932C177.3 208.808 177.668 208.746 178.075 208.746C178.404 208.746 178.706 208.787 178.981 208.868C179.26 208.946 179.508 209.071 179.724 209.246C179.941 209.416 180.125 209.645 180.276 209.931C180.431 210.214 180.549 210.561 180.631 210.971C180.712 211.382 180.753 211.864 180.753 212.418ZM179.672 213.882V212.238C179.672 211.858 179.649 211.525 179.602 211.238C179.56 210.948 179.496 210.7 179.411 210.495C179.326 210.29 179.217 210.123 179.085 209.995C178.958 209.867 178.808 209.774 178.638 209.716C178.472 209.654 178.284 209.623 178.075 209.623C177.819 209.623 177.592 209.672 177.395 209.769C177.197 209.862 177.031 210.011 176.895 210.216C176.764 210.421 176.663 210.69 176.593 211.024C176.523 211.357 176.489 211.761 176.489 212.238V213.882C176.489 214.261 176.51 214.596 176.552 214.887C176.599 215.177 176.667 215.429 176.756 215.642C176.845 215.851 176.953 216.024 177.081 216.159C177.209 216.295 177.356 216.395 177.523 216.461C177.693 216.523 177.881 216.554 178.086 216.554C178.35 216.554 178.58 216.504 178.777 216.403C178.975 216.302 179.14 216.146 179.271 215.933C179.407 215.716 179.508 215.439 179.573 215.102C179.639 214.761 179.672 214.354 179.672 213.882Z" fill="white"/>
</g>
<defs>
<clipPath id="clip0_932_3890">
<rect x="0.673828" y="0.081543" width="270.678" height="270.678" rx="11.8979" fill="white"/>
</clipPath>
</defs>
</svg>
