<svg width="272" height="271" viewBox="0 0 272 271" fill="none" xmlns="http://www.w3.org/2000/svg">
<g clip-path="url(#clip0_932_3782)">
<rect width="270.678" height="38.6683" transform="translate(0.994141 0.081543)" fill="black"/>
<path d="M19.7883 23.9795H17.9641L17.9757 22.7246H19.7883C20.2801 22.7246 20.6926 22.6162 21.0257 22.3993C21.3588 22.1785 21.6105 21.8629 21.7809 21.4523C21.9513 21.0379 22.0366 20.5422 22.0366 19.9651V19.5294C22.0366 19.084 21.9881 18.6909 21.8913 18.35C21.7945 18.0092 21.6512 17.7226 21.4614 17.4902C21.2755 17.2579 21.0451 17.0816 20.7701 16.9616C20.4951 16.8415 20.1794 16.7815 19.8231 16.7815H17.9292V15.5208H19.8231C20.3886 15.5208 20.9037 15.6157 21.3685 15.8055C21.8371 15.9952 22.2418 16.2683 22.5827 16.6246C22.9273 16.9771 23.1907 17.3992 23.3727 17.8911C23.5587 18.383 23.6516 18.9329 23.6516 19.541V19.9651C23.6516 20.5693 23.5587 21.1193 23.3727 21.615C23.1907 22.1069 22.9273 22.529 22.5827 22.8815C22.2418 23.2339 21.8352 23.505 21.3626 23.6948C20.8901 23.8846 20.3653 23.9795 19.7883 23.9795ZM18.8587 15.5208V23.9795H17.2611V15.5208H18.8587Z" fill="white"/>
<path d="M60.6 21.7835C60.6 21.6208 60.5748 21.4756 60.5244 21.3478C60.478 21.2161 60.3908 21.098 60.263 20.9934C60.1391 20.8849 59.9628 20.7804 59.7343 20.6797C59.5097 20.5751 59.2192 20.4667 58.8629 20.3543C58.4678 20.2304 58.0999 20.091 57.7591 19.9361C57.4183 19.7811 57.1181 19.601 56.8586 19.3958C56.603 19.1905 56.4035 18.9542 56.2602 18.687C56.1169 18.4159 56.0453 18.1022 56.0453 17.7459C56.0453 17.3973 56.1189 17.0797 56.266 16.7931C56.4171 16.5065 56.6301 16.2605 56.9051 16.0553C57.1801 15.8461 57.5035 15.6854 57.8753 15.5731C58.251 15.4608 58.6654 15.4046 59.1185 15.4046C59.7459 15.4046 60.2882 15.5189 60.7452 15.7474C61.2061 15.9759 61.5624 16.2857 61.8141 16.6769C62.0659 17.0681 62.1918 17.5077 62.1918 17.9957H60.6C60.6 17.7323 60.5438 17.4999 60.4315 17.2985C60.323 17.0971 60.1565 16.9383 59.9319 16.8221C59.7111 16.7059 59.4322 16.6479 59.0953 16.6479C58.7699 16.6479 58.4988 16.6963 58.2819 16.7931C58.0689 16.8899 57.9082 17.0216 57.7998 17.1881C57.6952 17.3547 57.6429 17.5406 57.6429 17.7459C57.6429 17.9008 57.6797 18.0402 57.7533 18.1641C57.8269 18.2842 57.9372 18.3985 58.0844 18.5069C58.2316 18.6115 58.4136 18.7102 58.6305 18.8032C58.8513 18.8923 59.1069 18.9813 59.3974 19.0704C59.8621 19.2099 60.2688 19.3648 60.6174 19.5352C60.9698 19.7056 61.2622 19.8993 61.4946 20.1161C61.7309 20.333 61.9071 20.577 62.0233 20.8481C62.1434 21.1193 62.2034 21.4272 62.2034 21.7719C62.2034 22.1359 62.1317 22.4613 61.9884 22.7479C61.8451 23.0345 61.6399 23.2785 61.3726 23.4799C61.1054 23.6813 60.7839 23.8343 60.4082 23.9388C60.0364 24.0434 59.6201 24.0957 59.1592 24.0957C58.7486 24.0957 58.342 24.0415 57.9392 23.933C57.5403 23.8207 57.1781 23.6542 56.8528 23.4334C56.5275 23.2088 56.268 22.926 56.0743 22.5852C55.8807 22.2405 55.7838 21.8377 55.7838 21.3768H57.3873C57.3873 21.6441 57.4299 21.8726 57.5151 22.0623C57.6042 22.2482 57.7281 22.4012 57.8869 22.5213C58.0496 22.6375 58.2393 22.7227 58.4562 22.7769C58.6731 22.8311 58.9074 22.8583 59.1592 22.8583C59.4845 22.8583 59.7518 22.8137 59.9609 22.7246C60.1739 22.6317 60.3327 22.5039 60.4373 22.3412C60.5457 22.1785 60.6 21.9926 60.6 21.7835Z" fill="white"/>
<path d="M98.4439 15.5208V23.9795H96.8521V15.5208H98.4439ZM101.07 15.5208V16.7815H94.2553V15.5208H101.07Z" fill="white"/>
<path d="M137.577 22.7885L139.831 24.5779L138.808 25.4667L136.589 23.689L137.577 22.7885ZM139.871 19.5352V19.9709C139.871 20.61 139.786 21.1851 139.616 21.6963C139.445 22.2037 139.201 22.6356 138.884 22.9919C138.57 23.3482 138.196 23.6212 137.763 23.811C137.329 24.0008 136.849 24.0957 136.322 24.0957C135.799 24.0957 135.319 24.0008 134.881 23.811C134.447 23.6212 134.072 23.3482 133.754 22.9919C133.436 22.6356 133.19 22.2037 133.016 21.6963C132.842 21.1851 132.755 20.61 132.755 19.9709V19.5352C132.755 18.8923 132.84 18.3171 133.01 17.8098C133.185 17.3024 133.429 16.8705 133.742 16.5142C134.06 16.154 134.436 15.8791 134.869 15.6893C135.307 15.4995 135.787 15.4046 136.31 15.4046C136.837 15.4046 137.317 15.4995 137.751 15.6893C138.189 15.8791 138.564 16.154 138.878 16.5142C139.196 16.8705 139.44 17.3024 139.61 17.8098C139.784 18.3171 139.871 18.8923 139.871 19.5352ZM138.256 19.9709V19.5236C138.256 19.0627 138.214 18.658 138.129 18.3094C138.043 17.9569 137.916 17.6606 137.745 17.4205C137.579 17.1804 137.375 17.0003 137.135 16.8802C136.895 16.7563 136.62 16.6943 136.31 16.6943C136.004 16.6943 135.731 16.7563 135.491 16.8802C135.251 17.0003 135.048 17.1804 134.881 17.4205C134.715 17.6606 134.587 17.9569 134.498 18.3094C134.412 18.658 134.37 19.0627 134.37 19.5236V19.9709C134.37 20.4279 134.412 20.8327 134.498 21.1851C134.587 21.5375 134.715 21.8358 134.881 22.0798C135.051 22.3199 135.257 22.5019 135.497 22.6259C135.741 22.7498 136.016 22.8118 136.322 22.8118C136.632 22.8118 136.907 22.7498 137.147 22.6259C137.387 22.5019 137.588 22.3199 137.751 22.0798C137.917 21.8358 138.043 21.5375 138.129 21.1851C138.214 20.8327 138.256 20.4279 138.256 19.9709Z" fill="white"/>
<path d="M176.245 22.7885L178.499 24.5779L177.476 25.4667L175.257 23.689L176.245 22.7885ZM178.539 19.5352V19.9709C178.539 20.61 178.454 21.1851 178.284 21.6963C178.113 22.2037 177.869 22.6356 177.552 22.9919C177.238 23.3482 176.864 23.6212 176.431 23.811C175.997 24.0008 175.517 24.0957 174.99 24.0957C174.467 24.0957 173.987 24.0008 173.549 23.811C173.115 23.6212 172.74 23.3482 172.422 22.9919C172.104 22.6356 171.858 22.2037 171.684 21.6963C171.51 21.1851 171.423 20.61 171.423 19.9709V19.5352C171.423 18.8923 171.508 18.3171 171.678 17.8098C171.853 17.3024 172.097 16.8705 172.41 16.5142C172.728 16.154 173.104 15.8791 173.537 15.6893C173.975 15.4995 174.455 15.4046 174.978 15.4046C175.505 15.4046 175.985 15.4995 176.419 15.6893C176.857 15.8791 177.232 16.154 177.546 16.5142C177.864 16.8705 178.108 17.3024 178.278 17.8098C178.452 18.3171 178.539 18.8923 178.539 19.5352ZM176.924 19.9709V19.5236C176.924 19.0627 176.882 18.658 176.797 18.3094C176.711 17.9569 176.584 17.6606 176.413 17.4205C176.247 17.1804 176.043 17.0003 175.803 16.8802C175.563 16.7563 175.288 16.6943 174.978 16.6943C174.672 16.6943 174.399 16.7563 174.159 16.8802C173.919 17.0003 173.716 17.1804 173.549 17.4205C173.382 17.6606 173.255 17.9569 173.166 18.3094C173.08 18.658 173.038 19.0627 173.038 19.5236V19.9709C173.038 20.4279 173.08 20.8327 173.166 21.1851C173.255 21.5375 173.382 21.8358 173.549 22.0798C173.719 22.3199 173.925 22.5019 174.165 22.6259C174.409 22.7498 174.684 22.8118 174.99 22.8118C175.3 22.8118 175.575 22.7498 175.815 22.6259C176.055 22.5019 176.256 22.3199 176.419 22.0798C176.585 21.8358 176.711 21.5375 176.797 21.1851C176.882 20.8327 176.924 20.4279 176.924 19.9709Z" fill="white"/>
<path d="M215.274 21.7835C215.274 21.6208 215.249 21.4756 215.198 21.3478C215.152 21.2161 215.065 21.098 214.937 20.9934C214.813 20.8849 214.637 20.7804 214.408 20.6797C214.184 20.5751 213.893 20.4667 213.537 20.3543C213.142 20.2304 212.774 20.091 212.433 19.9361C212.092 19.7811 211.792 19.601 211.532 19.3958C211.277 19.1905 211.077 18.9542 210.934 18.687C210.791 18.4159 210.719 18.1022 210.719 17.7459C210.719 17.3973 210.793 17.0797 210.94 16.7931C211.091 16.5065 211.304 16.2605 211.579 16.0553C211.854 15.8461 212.177 15.6854 212.549 15.5731C212.925 15.4608 213.339 15.4046 213.792 15.4046C214.42 15.4046 214.962 15.5189 215.419 15.7474C215.88 15.9759 216.236 16.2857 216.488 16.6769C216.74 17.0681 216.866 17.5077 216.866 17.9957H215.274C215.274 17.7323 215.218 17.4999 215.105 17.2985C214.997 17.0971 214.83 16.9383 214.606 16.8221C214.385 16.7059 214.106 16.6479 213.769 16.6479C213.444 16.6479 213.173 16.6963 212.956 16.7931C212.743 16.8899 212.582 17.0216 212.474 17.1881C212.369 17.3547 212.317 17.5406 212.317 17.7459C212.317 17.9008 212.354 18.0402 212.427 18.1641C212.501 18.2842 212.611 18.3985 212.758 18.5069C212.905 18.6115 213.087 18.7102 213.304 18.8032C213.525 18.8923 213.781 18.9813 214.071 19.0704C214.536 19.2099 214.943 19.3648 215.291 19.5352C215.644 19.7056 215.936 19.8993 216.168 20.1161C216.405 20.333 216.581 20.577 216.697 20.8481C216.817 21.1193 216.877 21.4272 216.877 21.7719C216.877 22.1359 216.806 22.4613 216.662 22.7479C216.519 23.0345 216.314 23.2785 216.046 23.4799C215.779 23.6813 215.458 23.8343 215.082 23.9388C214.71 24.0434 214.294 24.0957 213.833 24.0957C213.422 24.0957 213.016 24.0415 212.613 23.933C212.214 23.8207 211.852 23.6542 211.527 23.4334C211.201 23.2088 210.942 22.926 210.748 22.5852C210.554 22.2405 210.458 21.8377 210.458 21.3768H212.061C212.061 21.6441 212.104 21.8726 212.189 22.0623C212.278 22.2482 212.402 22.4012 212.561 22.5213C212.723 22.6375 212.913 22.7227 213.13 22.7769C213.347 22.8311 213.581 22.8583 213.833 22.8583C214.158 22.8583 214.426 22.8137 214.635 22.7246C214.848 22.6317 215.007 22.5039 215.111 22.3412C215.22 22.1785 215.274 21.9926 215.274 21.7835Z" fill="white"/>
<path d="M253.942 21.7835C253.942 21.6208 253.917 21.4756 253.866 21.3478C253.82 21.2161 253.733 21.098 253.605 20.9934C253.481 20.8849 253.305 20.7804 253.076 20.6797C252.851 20.5751 252.561 20.4667 252.205 20.3543C251.81 20.2304 251.442 20.091 251.101 19.9361C250.76 19.7811 250.46 19.601 250.2 19.3958C249.945 19.1905 249.745 18.9542 249.602 18.687C249.459 18.4159 249.387 18.1022 249.387 17.7459C249.387 17.3973 249.461 17.0797 249.608 16.7931C249.759 16.5065 249.972 16.2605 250.247 16.0553C250.522 15.8461 250.845 15.6854 251.217 15.5731C251.593 15.4608 252.007 15.4046 252.46 15.4046C253.088 15.4046 253.63 15.5189 254.087 15.7474C254.548 15.9759 254.904 16.2857 255.156 16.6769C255.408 17.0681 255.534 17.5077 255.534 17.9957H253.942C253.942 17.7323 253.886 17.4999 253.773 17.2985C253.665 17.0971 253.498 16.9383 253.274 16.8221C253.053 16.7059 252.774 16.6479 252.437 16.6479C252.112 16.6479 251.841 16.6963 251.624 16.7931C251.411 16.8899 251.25 17.0216 251.142 17.1881C251.037 17.3547 250.985 17.5406 250.985 17.7459C250.985 17.9008 251.021 18.0402 251.095 18.1641C251.169 18.2842 251.279 18.3985 251.426 18.5069C251.573 18.6115 251.755 18.7102 251.972 18.8032C252.193 18.8923 252.449 18.9813 252.739 19.0704C253.204 19.2099 253.611 19.3648 253.959 19.5352C254.312 19.7056 254.604 19.8993 254.836 20.1161C255.073 20.333 255.249 20.577 255.365 20.8481C255.485 21.1193 255.545 21.4272 255.545 21.7719C255.545 22.1359 255.474 22.4613 255.33 22.7479C255.187 23.0345 254.982 23.2785 254.714 23.4799C254.447 23.6813 254.126 23.8343 253.75 23.9388C253.378 24.0434 252.962 24.0957 252.501 24.0957C252.09 24.0957 251.684 24.0415 251.281 23.933C250.882 23.8207 250.52 23.6542 250.195 23.4334C249.869 23.2088 249.61 22.926 249.416 22.5852C249.222 22.2405 249.126 21.8377 249.126 21.3768H250.729C250.729 21.6441 250.772 21.8726 250.857 22.0623C250.946 22.2482 251.07 22.4012 251.229 22.5213C251.391 22.6375 251.581 22.7227 251.798 22.7769C252.015 22.8311 252.249 22.8583 252.501 22.8583C252.826 22.8583 253.094 22.8137 253.303 22.7246C253.516 22.6317 253.675 22.5039 253.779 22.3412C253.888 22.1785 253.942 21.9926 253.942 21.7835Z" fill="white"/>
<rect width="38.6683" height="38.6683" transform="translate(0.994141 38.75)" fill="black" fill-opacity="0.38"/>
<path d="M21.2167 54.1428V62.6479H20.1419V55.4848L17.975 56.2749V55.3047L21.0482 54.1428H21.2167Z" fill="black"/>
<rect width="38.6683" height="38.6683" transform="translate(39.6621 38.75)" fill="black" fill-opacity="0.05"/>
<path d="M61.8947 61.7649V62.6479H56.3583V61.8753L59.1294 58.7904C59.4702 58.4109 59.7336 58.0894 59.9195 57.826C60.1093 57.5588 60.241 57.3206 60.3145 57.1115C60.392 56.8984 60.4307 56.6815 60.4307 56.4608C60.4307 56.1819 60.3726 55.9302 60.2565 55.7055C60.1441 55.477 59.9776 55.295 59.7568 55.1594C59.5361 55.0239 59.2688 54.9561 58.9551 54.9561C58.5794 54.9561 58.2657 55.0297 58.014 55.1769C57.7661 55.3202 57.5802 55.5216 57.4563 55.7811C57.3323 56.0406 57.2703 56.3388 57.2703 56.6757H56.1956C56.1956 56.1994 56.3002 55.7636 56.5093 55.3686C56.7184 54.9735 57.0283 54.6598 57.4388 54.4274C57.8494 54.1912 58.3548 54.0731 58.9551 54.0731C59.4896 54.0731 59.9466 54.168 60.3262 54.3577C60.7057 54.5436 60.9962 54.807 61.1976 55.1478C61.4029 55.4848 61.5055 55.8798 61.5055 56.333C61.5055 56.5809 61.4629 56.8326 61.3777 57.0882C61.2964 57.34 61.1821 57.5917 61.0349 57.8435C60.8916 58.0952 60.7232 58.3431 60.5295 58.5871C60.3397 58.8311 60.1364 59.0712 59.9195 59.3075L57.6538 61.7649H61.8947Z" fill="black"/>
<rect width="38.6683" height="38.6683" transform="translate(78.3311 38.75)" fill="black" fill-opacity="0.05"/>
<path d="M96.59 57.8899H97.3568C97.7325 57.8899 98.0423 57.828 98.2863 57.704C98.5342 57.5762 98.7182 57.4039 98.8383 57.187C98.9622 56.9662 99.0242 56.7183 99.0242 56.4434C99.0242 56.118 98.9699 55.845 98.8615 55.6242C98.753 55.4035 98.5904 55.2369 98.3735 55.1246C98.1566 55.0123 97.8816 54.9561 97.5485 54.9561C97.2464 54.9561 96.9792 55.0161 96.7468 55.1362C96.5183 55.2524 96.3382 55.4189 96.2065 55.6358C96.0787 55.8527 96.0148 56.1083 96.0148 56.4027H94.9401C94.9401 55.9728 95.0485 55.5816 95.2654 55.2292C95.4823 54.8767 95.7863 54.5959 96.1775 54.3868C96.5725 54.1776 97.0296 54.0731 97.5485 54.0731C98.0598 54.0731 98.5071 54.1641 98.8905 54.3461C99.274 54.5243 99.5722 54.7915 99.7852 55.1478C99.9982 55.5003 100.105 55.9399 100.105 56.4666C100.105 56.6796 100.054 56.9081 99.9537 57.1521C99.8569 57.3923 99.7039 57.6169 99.4947 57.826C99.2895 58.0352 99.0222 58.2075 98.693 58.3431C98.3638 58.4748 97.9688 58.5406 97.5079 58.5406H96.59V57.8899ZM96.59 58.773V58.1281H97.5079C98.0462 58.1281 98.4916 58.192 98.8441 58.3198C99.1965 58.4477 99.4734 58.6181 99.6748 58.8311C99.8801 59.0441 100.023 59.2784 100.105 59.534C100.19 59.7858 100.233 60.0375 100.233 60.2893C100.233 60.6843 100.165 61.0348 100.029 61.3408C99.8975 61.6468 99.7097 61.9063 99.4657 62.1193C99.2256 62.3323 98.9428 62.493 98.6175 62.6015C98.2922 62.7099 97.9378 62.7641 97.5543 62.7641C97.1864 62.7641 96.8398 62.7119 96.5144 62.6073C96.193 62.5027 95.9083 62.3517 95.6604 62.1541C95.4126 61.9527 95.2189 61.7068 95.0795 61.4163C94.9401 61.122 94.8703 60.787 94.8703 60.4113H95.9451C95.9451 60.7056 96.009 60.9632 96.1368 61.1839C96.2685 61.4047 96.4544 61.5771 96.6945 61.701C96.9385 61.8211 97.2251 61.8811 97.5543 61.8811C97.8836 61.8811 98.1663 61.8249 98.4025 61.7126C98.6427 61.5964 98.8266 61.4221 98.9544 61.1898C99.0861 60.9574 99.152 60.665 99.152 60.3125C99.152 59.9601 99.0784 59.6715 98.9312 59.4469C98.784 59.2184 98.5749 59.0499 98.3038 58.9415C98.0365 58.8291 97.7209 58.773 97.3568 58.773H96.59Z" fill="black"/>
<rect width="38.6683" height="38.6683" transform="translate(116.999 38.75)" fill="black" fill-opacity="0.05"/>
<path d="M139.407 59.8013V60.6843H133.295V60.0511L137.083 54.1893H137.96L137.019 55.8856L134.515 59.8013H139.407ZM138.228 54.1893V62.6479H137.153V54.1893H138.228Z" fill="black"/>
<rect width="38.6683" height="38.6683" transform="translate(155.667 38.75)" fill="black" fill-opacity="0.05"/>
<path d="M173.717 58.6219L172.857 58.4012L173.281 54.1893H177.621V55.1827H174.193L173.938 57.4833C174.092 57.3942 174.288 57.3109 174.524 57.2335C174.764 57.156 175.039 57.1173 175.349 57.1173C175.74 57.1173 176.091 57.185 176.401 57.3206C176.711 57.4523 176.974 57.6421 177.191 57.8899C177.412 58.1378 177.58 58.436 177.696 58.7846C177.812 59.1332 177.871 59.5224 177.871 59.9523C177.871 60.359 177.814 60.7327 177.702 61.0736C177.594 61.4144 177.429 61.7126 177.208 61.9682C176.988 62.22 176.709 62.4156 176.372 62.555C176.039 62.6944 175.646 62.7641 175.192 62.7641C174.852 62.7641 174.528 62.7177 174.222 62.6247C173.92 62.5279 173.649 62.3826 173.409 62.189C173.173 61.9915 172.979 61.7475 172.828 61.457C172.681 61.1626 172.588 60.8179 172.549 60.4229H173.572C173.618 60.7405 173.711 61.0077 173.85 61.2246C173.99 61.4415 174.172 61.6061 174.396 61.7184C174.625 61.8269 174.89 61.8811 175.192 61.8811C175.448 61.8811 175.675 61.8365 175.872 61.7475C176.07 61.6584 176.236 61.5306 176.372 61.364C176.507 61.1975 176.61 60.9961 176.68 60.7598C176.753 60.5236 176.79 60.2583 176.79 59.9639C176.79 59.6967 176.753 59.4488 176.68 59.2203C176.606 58.9918 176.496 58.7923 176.348 58.6219C176.205 58.4515 176.029 58.3198 175.82 58.2269C175.611 58.1301 175.371 58.0816 175.099 58.0816C174.739 58.0816 174.466 58.1301 174.28 58.2269C174.098 58.3237 173.91 58.4554 173.717 58.6219Z" fill="black"/>
<rect width="38.6683" height="38.6683" transform="translate(194.336 38.75)" fill="black" fill-opacity="0.05"/>
<path d="M215.151 54.1776H215.244V55.0897H215.151C214.582 55.0897 214.105 55.1827 213.722 55.3686C213.338 55.5506 213.034 55.7966 212.81 56.1064C212.585 56.4124 212.422 56.7571 212.322 57.1405C212.225 57.5239 212.177 57.9132 212.177 58.3082V59.5515C212.177 59.9271 212.221 60.2602 212.31 60.5507C212.399 60.8373 212.521 61.0794 212.676 61.2769C212.831 61.4744 213.005 61.6235 213.199 61.7242C213.397 61.8249 213.602 61.8753 213.815 61.8753C214.063 61.8753 214.283 61.8288 214.477 61.7359C214.671 61.639 214.833 61.5054 214.965 61.335C215.101 61.1607 215.203 60.9554 215.273 60.7192C215.343 60.4829 215.378 60.2234 215.378 59.9407C215.378 59.689 215.347 59.4469 215.285 59.2145C215.223 58.9783 215.128 58.7691 215 58.5871C214.872 58.4012 214.711 58.2559 214.518 58.1514C214.328 58.0429 214.101 57.9887 213.838 57.9887C213.54 57.9887 213.261 58.0623 213.002 58.2095C212.746 58.3528 212.535 58.5425 212.368 58.7788C212.206 59.0112 212.113 59.2649 212.089 59.5398L211.52 59.534C211.574 59.1003 211.675 58.7304 211.822 58.4244C211.973 58.1146 212.159 57.8628 212.38 57.6692C212.605 57.4716 212.854 57.3283 213.129 57.2393C213.408 57.1463 213.703 57.0998 214.012 57.0998C214.435 57.0998 214.799 57.1792 215.105 57.338C215.411 57.4968 215.662 57.7098 215.86 57.9771C216.057 58.2404 216.203 58.5387 216.296 58.8717C216.392 59.201 216.441 59.5398 216.441 59.8884C216.441 60.2873 216.385 60.6611 216.272 61.0097C216.16 61.3582 215.991 61.6642 215.767 61.9276C215.546 62.1909 215.273 62.3962 214.948 62.5434C214.622 62.6906 214.245 62.7641 213.815 62.7641C213.358 62.7641 212.959 62.6712 212.618 62.4853C212.277 62.2955 211.995 62.0438 211.77 61.73C211.545 61.4163 211.377 61.0678 211.264 60.6843C211.152 60.3009 211.096 59.9117 211.096 59.5166V59.0112C211.096 58.4147 211.156 57.8299 211.276 57.2567C211.396 56.6835 211.603 56.1645 211.898 55.6997C212.196 55.235 212.608 54.8651 213.135 54.5901C213.662 54.3151 214.334 54.1776 215.151 54.1776Z" fill="black"/>
<rect width="38.6683" height="38.6683" transform="translate(233.004 38.75)" fill="black" fill-opacity="0.38"/>
<path d="M255.162 54.1893V54.7934L251.659 62.6479H250.526L254.023 55.0723H249.445V54.1893H255.162Z" fill="black"/>
<rect width="38.6683" height="38.6683" transform="translate(0.994141 77.4182)" fill="black" fill-opacity="0.38"/>
<path d="M23.0176 99.0272C23.0176 99.5423 22.8976 99.98 22.6574 100.34C22.4212 100.696 22.0997 100.968 21.6931 101.153C21.2903 101.339 20.8352 101.432 20.3278 101.432C19.8204 101.432 19.3634 101.339 18.9568 101.153C18.5501 100.968 18.2286 100.696 17.9924 100.34C17.7561 99.98 17.638 99.5423 17.638 99.0272C17.638 98.6902 17.7019 98.3823 17.8297 98.1035C17.9614 97.8208 18.1454 97.5748 18.3816 97.3657C18.6217 97.1565 18.9045 96.9958 19.2298 96.8835C19.559 96.7673 19.9211 96.7092 20.3162 96.7092C20.8352 96.7092 21.298 96.8099 21.7047 97.0113C22.1113 97.2088 22.4309 97.4819 22.6633 97.8304C22.8995 98.179 23.0176 98.5779 23.0176 99.0272ZM21.9371 99.004C21.9371 98.6902 21.8693 98.4133 21.7337 98.1732C21.5982 97.9292 21.4084 97.7394 21.1644 97.6039C20.9204 97.4683 20.6377 97.4005 20.3162 97.4005C19.987 97.4005 19.7023 97.4683 19.4622 97.6039C19.2259 97.7394 19.042 97.9292 18.9103 98.1732C18.7786 98.4133 18.7128 98.6902 18.7128 99.004C18.7128 99.3293 18.7767 99.6082 18.9045 99.8405C19.0362 100.069 19.2221 100.245 19.4622 100.369C19.7062 100.489 19.9947 100.549 20.3278 100.549C20.6609 100.549 20.9475 100.489 21.1876 100.369C21.4278 100.245 21.6117 100.069 21.7395 99.8405C21.8712 99.6082 21.9371 99.3293 21.9371 99.004ZM22.8201 95.0593C22.8201 95.4698 22.7117 95.8397 22.4948 96.1689C22.2779 96.4981 21.9816 96.7576 21.6059 96.9474C21.2302 97.1372 20.8042 97.2321 20.3278 97.2321C19.8437 97.2321 19.4118 97.1372 19.0323 96.9474C18.6566 96.7576 18.3623 96.4981 18.1492 96.1689C17.9362 95.8397 17.8297 95.4698 17.8297 95.0593C17.8297 94.5674 17.9362 94.1491 18.1492 93.8044C18.3661 93.4597 18.6624 93.1964 19.0381 93.0143C19.4138 92.8323 19.8417 92.7413 20.322 92.7413C20.8061 92.7413 21.236 92.8323 21.6117 93.0143C21.9874 93.1964 22.2818 93.4597 22.4948 93.8044C22.7117 94.1491 22.8201 94.5674 22.8201 95.0593ZM21.7453 95.0767C21.7453 94.794 21.6853 94.5442 21.5652 94.3273C21.4452 94.1104 21.2786 93.94 21.0656 93.816C20.8526 93.6882 20.6047 93.6243 20.322 93.6243C20.0393 93.6243 19.7914 93.6844 19.5784 93.8044C19.3692 93.9206 19.2046 94.0872 19.0846 94.304C18.9684 94.5209 18.9103 94.7785 18.9103 95.0767C18.9103 95.3672 18.9684 95.6209 19.0846 95.8378C19.2046 96.0547 19.3712 96.2231 19.5842 96.3432C19.7972 96.4633 20.0451 96.5233 20.3278 96.5233C20.6105 96.5233 20.8565 96.4633 21.0656 96.3432C21.2786 96.2231 21.4452 96.0547 21.5652 95.8378C21.6853 95.6209 21.7453 95.3672 21.7453 95.0767Z" fill="black"/>
<rect width="38.6683" height="38.6683" transform="translate(39.6621 77.4182)" fill="#C30101"/>
<path d="M57.4214 100.416H57.5318C58.1515 100.416 58.655 100.329 59.0423 100.154C59.4296 99.98 59.7278 99.7456 59.9369 99.4513C60.1461 99.1569 60.2894 98.8258 60.3668 98.4579C60.4443 98.0861 60.483 97.7046 60.483 97.3134V96.0179C60.483 95.6344 60.4385 95.2936 60.3494 94.9954C60.2642 94.6972 60.1441 94.4473 59.9892 94.2459C59.8382 94.0446 59.6658 93.8916 59.4722 93.787C59.2785 93.6824 59.0732 93.6301 58.8564 93.6301C58.6085 93.6301 58.3858 93.6805 58.1883 93.7812C57.9946 93.878 57.83 94.0155 57.6944 94.1937C57.5628 94.3718 57.4621 94.581 57.3924 94.8211C57.3226 95.0612 57.2878 95.3227 57.2878 95.6054C57.2878 95.8571 57.3188 96.1011 57.3807 96.3374C57.4427 96.5736 57.5376 96.7867 57.6654 96.9764C57.7932 97.1662 57.952 97.3173 58.1418 97.4296C58.3354 97.538 58.562 97.5922 58.8215 97.5922C59.0616 97.5922 59.2863 97.5458 59.4954 97.4528C59.7084 97.356 59.8963 97.2262 60.0589 97.0636C60.2255 96.897 60.3572 96.7092 60.454 96.5001C60.5547 96.2909 60.6128 96.0721 60.6283 95.8436H61.1395C61.1395 96.165 61.0756 96.4826 60.9478 96.7963C60.8239 97.1062 60.6496 97.3889 60.4249 97.6445C60.2003 97.9002 59.9369 98.1054 59.6348 98.2603C59.3327 98.4114 59.0035 98.4869 58.6472 98.4869C58.2289 98.4869 57.8668 98.4056 57.5608 98.2429C57.2549 98.0802 57.0031 97.8634 56.8056 97.5922C56.6119 97.3211 56.4667 97.019 56.3699 96.686C56.2769 96.349 56.2304 96.0082 56.2304 95.6635C56.2304 95.2607 56.2866 94.8831 56.3989 94.5306C56.5112 94.1782 56.6778 93.8683 56.8985 93.6011C57.1193 93.33 57.3924 93.1189 57.7177 92.9679C58.0469 92.8168 58.4264 92.7413 58.8564 92.7413C59.3405 92.7413 59.753 92.8381 60.0938 93.0318C60.4346 93.2254 60.7115 93.4849 60.9246 93.8102C61.1414 94.1356 61.3002 94.5016 61.4009 94.9082C61.5016 95.3149 61.552 95.7332 61.552 96.1631V96.5523C61.552 96.99 61.5229 97.4354 61.4648 97.8885C61.4106 98.3378 61.3041 98.7677 61.1453 99.1783C60.9904 99.5888 60.7638 99.9567 60.4656 100.282C60.1674 100.604 59.7781 100.859 59.2979 101.049C58.8215 101.235 58.2328 101.328 57.5318 101.328H57.4214V100.416Z" fill="white"/>
<rect width="38.6683" height="38.6683" transform="translate(78.3311 77.4182)" fill="black" fill-opacity="0.05"/>
<path d="M95.1478 92.811V101.316H94.073V94.153L91.9061 94.9431V93.9729L94.9793 92.811H95.1478ZM103.737 96.4129V97.7026C103.737 98.3959 103.675 98.9807 103.551 99.4571C103.427 99.9335 103.249 100.317 103.017 100.607C102.784 100.898 102.504 101.109 102.174 101.241C101.849 101.368 101.481 101.432 101.071 101.432C100.745 101.432 100.445 101.392 100.17 101.31C99.8951 101.229 99.6472 101.099 99.4264 100.921C99.2095 100.739 99.0236 100.503 98.8687 100.212C98.7138 99.9219 98.5957 99.5694 98.5143 99.155C98.433 98.7406 98.3923 98.2565 98.3923 97.7026V96.4129C98.3923 95.7196 98.4543 95.1387 98.5782 94.67C98.706 94.2014 98.8861 93.8257 99.1185 93.543C99.3509 93.2564 99.6297 93.0511 99.9551 92.9272C100.284 92.8032 100.652 92.7413 101.059 92.7413C101.388 92.7413 101.69 92.7819 101.965 92.8633C102.244 92.9407 102.492 93.0666 102.709 93.2409C102.926 93.4113 103.11 93.6398 103.261 93.9264C103.416 94.2092 103.534 94.5558 103.615 94.9663C103.696 95.3769 103.737 95.8591 103.737 96.4129ZM102.657 97.8769V96.2328C102.657 95.8533 102.633 95.5202 102.587 95.2336C102.544 94.9431 102.48 94.6952 102.395 94.49C102.31 94.2847 102.201 94.1181 102.07 93.9903C101.942 93.8625 101.793 93.7696 101.622 93.7115C101.456 93.6495 101.268 93.6185 101.059 93.6185C100.803 93.6185 100.577 93.6669 100.379 93.7638C100.182 93.8567 100.015 94.0058 99.8796 94.2111C99.7479 94.4164 99.6472 94.6855 99.5775 95.0186C99.5077 95.3517 99.4729 95.7564 99.4729 96.2328V97.8769C99.4729 98.2565 99.4942 98.5915 99.5368 98.882C99.5833 99.1724 99.6511 99.4242 99.7401 99.6372C99.8292 99.8463 99.9377 100.019 100.065 100.154C100.193 100.29 100.34 100.391 100.507 100.456C100.677 100.518 100.865 100.549 101.071 100.549C101.334 100.549 101.564 100.499 101.762 100.398C101.959 100.298 102.124 100.141 102.256 99.9277C102.391 99.7108 102.492 99.4339 102.558 99.0969C102.624 98.7561 102.657 98.3494 102.657 97.8769Z" fill="black"/>
<rect width="38.6683" height="38.6683" transform="translate(116.999 77.4182)" fill="black" fill-opacity="0.05"/>
<path d="M133.817 92.811V101.316H132.742V94.153L130.575 94.9431V93.9729L133.648 92.811H133.817ZM140.628 92.811V101.316H139.554V94.153L137.387 94.9431V93.9729L140.46 92.811H140.628Z" fill="black"/>
<rect width="38.6683" height="38.6683" transform="translate(155.667 77.4182)" fill="black" fill-opacity="0.05"/>
<path d="M172.484 92.811V101.316H171.409V94.153L169.242 94.9431V93.9729L172.315 92.811H172.484ZM181.305 100.433V101.316H175.769V100.543L178.54 97.4586C178.881 97.0791 179.144 96.7576 179.33 96.4942C179.52 96.227 179.652 95.9888 179.725 95.7797C179.803 95.5667 179.841 95.3498 179.841 95.129C179.841 94.8501 179.783 94.5984 179.667 94.3738C179.555 94.1453 179.388 93.9632 179.168 93.8277C178.947 93.6921 178.68 93.6243 178.366 93.6243C177.99 93.6243 177.676 93.6979 177.425 93.8451C177.177 93.9884 176.991 94.1898 176.867 94.4493C176.743 94.7088 176.681 95.007 176.681 95.344H175.606C175.606 94.8676 175.711 94.4319 175.92 94.0368C176.129 93.6418 176.439 93.328 176.849 93.0957C177.26 92.8594 177.765 92.7413 178.366 92.7413C178.9 92.7413 179.357 92.8362 179.737 93.0259C180.116 93.2119 180.407 93.4752 180.608 93.816C180.814 94.153 180.916 94.548 180.916 95.0012C180.916 95.2491 180.874 95.5008 180.788 95.7564C180.707 96.0082 180.593 96.2599 180.446 96.5117C180.302 96.7634 180.134 97.0113 179.94 97.2553C179.75 97.4993 179.547 97.7394 179.33 97.9757L177.064 100.433H181.305Z" fill="black"/>
<rect width="38.6683" height="38.6683" transform="translate(194.336 77.4182)" fill="black" fill-opacity="0.05"/>
<path d="M211.153 92.811V101.316H210.078V94.153L207.911 94.9431V93.9729L210.984 92.811H211.153ZM216.001 96.5581H216.767C217.143 96.5581 217.453 96.4962 217.697 96.3722C217.945 96.2444 218.129 96.0721 218.249 95.8552C218.373 95.6344 218.435 95.3866 218.435 95.1116C218.435 94.7862 218.381 94.5132 218.272 94.2924C218.164 94.0717 218.001 93.9051 217.784 93.7928C217.567 93.6805 217.292 93.6243 216.959 93.6243C216.657 93.6243 216.39 93.6844 216.157 93.8044C215.929 93.9206 215.749 94.0872 215.617 94.304C215.489 94.5209 215.425 94.7766 215.425 95.0709H214.351C214.351 94.641 214.459 94.2498 214.676 93.8974C214.893 93.5449 215.197 93.2641 215.588 93.055C215.983 92.8459 216.44 92.7413 216.959 92.7413C217.47 92.7413 217.918 92.8323 218.301 93.0143C218.685 93.1925 218.983 93.4597 219.196 93.816C219.409 94.1685 219.515 94.6081 219.515 95.1348C219.515 95.3478 219.465 95.5763 219.364 95.8203C219.268 96.0605 219.115 96.2851 218.905 96.4942C218.7 96.7034 218.433 96.8757 218.104 97.0113C217.774 97.143 217.379 97.2088 216.919 97.2088H216.001V96.5581ZM216.001 97.4412V96.7963H216.919C217.457 96.7963 217.902 96.8602 218.255 96.9881C218.607 97.1159 218.884 97.2863 219.085 97.4993C219.291 97.7123 219.434 97.9466 219.515 98.2022C219.601 98.454 219.643 98.7057 219.643 98.9575C219.643 99.3525 219.575 99.703 219.44 100.009C219.308 100.315 219.12 100.574 218.876 100.787C218.636 101.001 218.353 101.161 218.028 101.27C217.703 101.378 217.348 101.432 216.965 101.432C216.597 101.432 216.25 101.38 215.925 101.275C215.604 101.171 215.319 101.02 215.071 100.822C214.823 100.621 214.63 100.375 214.49 100.085C214.351 99.7902 214.281 99.4552 214.281 99.0795H215.356C215.356 99.3738 215.42 99.6314 215.547 99.8522C215.679 100.073 215.865 100.245 216.105 100.369C216.349 100.489 216.636 100.549 216.965 100.549C217.294 100.549 217.577 100.493 217.813 100.381C218.053 100.265 218.237 100.09 218.365 99.858C218.497 99.6256 218.563 99.3332 218.563 98.9807C218.563 98.6283 218.489 98.3397 218.342 98.1151C218.195 97.8866 217.986 97.7181 217.714 97.6097C217.447 97.4974 217.132 97.4412 216.767 97.4412H216.001Z" fill="black"/>
<rect width="38.6683" height="38.6683" transform="translate(233.004 77.4182)" fill="#2EA66D"/>
<path d="M249.822 92.811V101.316H248.747V94.153L246.58 94.9431V93.9729L249.653 92.811H249.822ZM258.818 98.4695V99.3525H252.706V98.7193L256.494 92.8575H257.371L256.43 94.5539L253.926 98.4695H258.818ZM257.638 92.8575V101.316H256.563V92.8575H257.638Z" fill="black"/>
<rect width="38.6683" height="38.6683" transform="translate(0.994141 116.086)" fill="black" fill-opacity="0.38"/>
<path d="M17.8109 131.479V139.984H16.7361V132.821L14.5692 133.611V132.641L17.6424 131.479H17.8109ZM22.4497 135.958L21.5899 135.738L22.014 131.526H26.3537V132.519H22.9261L22.6705 134.82C22.8254 134.731 23.021 134.647 23.2572 134.57C23.4973 134.492 23.7723 134.454 24.0822 134.454C24.4733 134.454 24.8239 134.521 25.1337 134.657C25.4435 134.789 25.7069 134.978 25.9238 135.226C26.1446 135.474 26.313 135.772 26.4292 136.121C26.5454 136.47 26.6035 136.859 26.6035 137.289C26.6035 137.695 26.5474 138.069 26.435 138.41C26.3266 138.751 26.162 139.049 25.9412 139.305C25.7205 139.556 25.4416 139.752 25.1047 139.891C24.7716 140.031 24.3785 140.101 23.9253 140.101C23.5845 140.101 23.2611 140.054 22.9551 139.961C22.653 139.864 22.3819 139.719 22.1418 139.525C21.9055 139.328 21.7119 139.084 21.5608 138.793C21.4137 138.499 21.3207 138.154 21.282 137.759H22.3045C22.3509 138.077 22.4439 138.344 22.5833 138.561C22.7227 138.778 22.9048 138.943 23.1294 139.055C23.3579 139.163 23.6232 139.218 23.9253 139.218C24.1809 139.218 24.4075 139.173 24.605 139.084C24.8026 138.995 24.9691 138.867 25.1047 138.7C25.2402 138.534 25.3428 138.333 25.4126 138.096C25.4861 137.86 25.5229 137.595 25.5229 137.3C25.5229 137.033 25.4861 136.785 25.4126 136.557C25.339 136.328 25.2286 136.129 25.0814 135.958C24.9381 135.788 24.7619 135.656 24.5527 135.563C24.3436 135.466 24.1035 135.418 23.8324 135.418C23.4722 135.418 23.1991 135.466 23.0132 135.563C22.8312 135.66 22.6433 135.792 22.4497 135.958Z" fill="black"/>
<rect width="38.6683" height="38.6683" transform="translate(39.6621 116.086)" fill="black" fill-opacity="0.05"/>
<path d="M56.4789 131.479V139.984H55.4041V132.821L53.2371 133.611V132.641L56.3104 131.479H56.4789ZM63.883 131.514H63.976V132.426H63.883C63.3137 132.426 62.8373 132.519 62.4539 132.705C62.0704 132.887 61.7664 133.133 61.5418 133.443C61.3171 133.749 61.1545 134.093 61.0538 134.477C60.9569 134.86 60.9085 135.25 60.9085 135.645V136.888C60.9085 137.264 60.9531 137.597 61.0421 137.887C61.1312 138.174 61.2532 138.416 61.4081 138.613C61.5631 138.811 61.7373 138.96 61.931 139.061C62.1285 139.161 62.3338 139.212 62.5468 139.212C62.7947 139.212 63.0154 139.165 63.2091 139.072C63.4027 138.975 63.5654 138.842 63.6971 138.671C63.8327 138.497 63.9353 138.292 64.005 138.056C64.0747 137.819 64.1096 137.56 64.1096 137.277C64.1096 137.025 64.0786 136.783 64.0166 136.551C63.9547 136.315 63.8598 136.106 63.732 135.924C63.6041 135.738 63.4434 135.592 63.2498 135.488C63.06 135.379 62.8334 135.325 62.57 135.325C62.2718 135.325 61.993 135.399 61.7335 135.546C61.4779 135.689 61.2668 135.879 61.1002 136.115C60.9376 136.348 60.8446 136.601 60.8214 136.876L60.252 136.87C60.3063 136.437 60.407 136.067 60.5541 135.761C60.7052 135.451 60.8911 135.199 61.1119 135.006C61.3365 134.808 61.5863 134.665 61.8613 134.576C62.1401 134.483 62.4345 134.436 62.7443 134.436C63.1665 134.436 63.5306 134.516 63.8365 134.674C64.1425 134.833 64.3942 135.046 64.5918 135.314C64.7893 135.577 64.9345 135.875 65.0275 136.208C65.1243 136.537 65.1727 136.876 65.1727 137.225C65.1727 137.624 65.1166 137.998 65.0042 138.346C64.8919 138.695 64.7234 139.001 64.4988 139.264C64.2781 139.527 64.005 139.733 63.6797 139.88C63.3543 140.027 62.9767 140.101 62.5468 140.101C62.0898 140.101 61.6909 140.008 61.35 139.822C61.0092 139.632 60.7265 139.38 60.5018 139.066C60.2772 138.753 60.1087 138.404 59.9964 138.021C59.8841 137.637 59.8279 137.248 59.8279 136.853V136.348C59.8279 135.751 59.888 135.166 60.008 134.593C60.1281 134.02 60.3353 133.501 60.6297 133.036C60.9279 132.571 61.3404 132.202 61.8671 131.927C62.3938 131.652 63.0658 131.514 63.883 131.514Z" fill="black"/>
<rect width="38.6683" height="38.6683" transform="translate(78.3311 116.086)" fill="black" fill-opacity="0.05"/>
<path d="M95.1478 131.479V139.984H94.073V132.821L91.9061 133.611V132.641L94.9793 131.479H95.1478ZM103.894 131.526V132.13L100.391 139.984H99.2579L102.755 132.409H98.1774V131.526H103.894Z" fill="black"/>
<rect width="38.6683" height="38.6683" transform="translate(116.999 116.086)" fill="black" fill-opacity="0.05"/>
<path d="M133.817 131.479V139.984H132.742V132.821L130.575 133.611V132.641L133.648 131.479H133.817ZM142.429 137.695C142.429 138.211 142.309 138.648 142.069 139.008C141.833 139.365 141.511 139.636 141.105 139.822C140.702 140.008 140.247 140.101 139.739 140.101C139.232 140.101 138.775 140.008 138.368 139.822C137.962 139.636 137.64 139.365 137.404 139.008C137.168 138.648 137.05 138.211 137.05 137.695C137.05 137.358 137.114 137.051 137.241 136.772C137.373 136.489 137.557 136.243 137.793 136.034C138.033 135.825 138.316 135.664 138.641 135.552C138.971 135.436 139.333 135.377 139.728 135.377C140.247 135.377 140.71 135.478 141.116 135.68C141.523 135.877 141.843 136.15 142.075 136.499C142.311 136.847 142.429 137.246 142.429 137.695ZM141.349 137.672C141.349 137.358 141.281 137.082 141.145 136.841C141.01 136.597 140.82 136.408 140.576 136.272C140.332 136.137 140.049 136.069 139.728 136.069C139.399 136.069 139.114 136.137 138.874 136.272C138.638 136.408 138.454 136.597 138.322 136.841C138.19 137.082 138.124 137.358 138.124 137.672C138.124 137.998 138.188 138.276 138.316 138.509C138.448 138.737 138.634 138.913 138.874 139.037C139.118 139.157 139.406 139.218 139.739 139.218C140.073 139.218 140.359 139.157 140.599 139.037C140.839 138.913 141.023 138.737 141.151 138.509C141.283 138.276 141.349 137.998 141.349 137.672ZM142.232 133.727C142.232 134.138 142.123 134.508 141.906 134.837C141.69 135.166 141.393 135.426 141.018 135.616C140.642 135.805 140.216 135.9 139.739 135.9C139.255 135.9 138.823 135.805 138.444 135.616C138.068 135.426 137.774 135.166 137.561 134.837C137.348 134.508 137.241 134.138 137.241 133.727C137.241 133.236 137.348 132.817 137.561 132.473C137.778 132.128 138.074 131.865 138.45 131.683C138.825 131.501 139.253 131.409 139.734 131.409C140.218 131.409 140.648 131.501 141.023 131.683C141.399 131.865 141.693 132.128 141.906 132.473C142.123 132.817 142.232 133.236 142.232 133.727ZM141.157 133.745C141.157 133.462 141.097 133.212 140.977 132.995C140.857 132.779 140.69 132.608 140.477 132.484C140.264 132.356 140.016 132.293 139.734 132.293C139.451 132.293 139.203 132.353 138.99 132.473C138.781 132.589 138.616 132.755 138.496 132.972C138.38 133.189 138.322 133.447 138.322 133.745C138.322 134.035 138.38 134.289 138.496 134.506C138.616 134.723 138.783 134.891 138.996 135.011C139.209 135.131 139.457 135.192 139.739 135.192C140.022 135.192 140.268 135.131 140.477 135.011C140.69 134.891 140.857 134.723 140.977 134.506C141.097 134.289 141.157 134.035 141.157 133.745Z" fill="black"/>
<rect width="38.6683" height="38.6683" transform="translate(155.667 116.086)" fill="black" fill-opacity="0.05"/>
<path d="M172.484 131.479V139.984H171.409V132.821L169.242 133.611V132.641L172.315 131.479H172.484ZM176.832 139.084H176.942C177.562 139.084 178.066 138.997 178.453 138.822C178.84 138.648 179.138 138.414 179.348 138.12C179.557 137.825 179.7 137.494 179.778 137.126C179.855 136.754 179.894 136.373 179.894 135.982V134.686C179.894 134.303 179.849 133.962 179.76 133.664C179.675 133.365 179.555 133.116 179.4 132.914C179.249 132.713 179.076 132.56 178.883 132.455C178.689 132.351 178.484 132.298 178.267 132.298C178.019 132.298 177.796 132.349 177.599 132.449C177.405 132.546 177.241 132.684 177.105 132.862C176.973 133.04 176.873 133.249 176.803 133.489C176.733 133.729 176.698 133.991 176.698 134.274C176.698 134.525 176.729 134.769 176.791 135.006C176.853 135.242 176.948 135.455 177.076 135.645C177.204 135.834 177.363 135.985 177.552 136.098C177.746 136.206 177.973 136.26 178.232 136.26C178.472 136.26 178.697 136.214 178.906 136.121C179.119 136.024 179.307 135.894 179.47 135.732C179.636 135.565 179.768 135.377 179.865 135.168C179.965 134.959 180.023 134.74 180.039 134.512H180.55C180.55 134.833 180.486 135.151 180.358 135.465C180.235 135.774 180.06 136.057 179.836 136.313C179.611 136.568 179.348 136.774 179.046 136.929C178.743 137.08 178.414 137.155 178.058 137.155C177.64 137.155 177.277 137.074 176.971 136.911C176.666 136.748 176.414 136.532 176.216 136.26C176.023 135.989 175.877 135.687 175.781 135.354C175.688 135.017 175.641 134.676 175.641 134.332C175.641 133.929 175.697 133.551 175.81 133.199C175.922 132.846 176.088 132.537 176.309 132.269C176.53 131.998 176.803 131.787 177.128 131.636C177.458 131.485 177.837 131.409 178.267 131.409C178.751 131.409 179.164 131.506 179.504 131.7C179.845 131.894 180.122 132.153 180.335 132.478C180.552 132.804 180.711 133.17 180.812 133.576C180.912 133.983 180.963 134.401 180.963 134.831V135.221C180.963 135.658 180.934 136.104 180.876 136.557C180.821 137.006 180.715 137.436 180.556 137.846C180.401 138.257 180.174 138.625 179.876 138.95C179.578 139.272 179.189 139.527 178.709 139.717C178.232 139.903 177.643 139.996 176.942 139.996H176.832V139.084Z" fill="black"/>
<rect width="38.6683" height="38.6683" transform="translate(194.336 116.086)" fill="black" fill-opacity="0.05"/>
<path d="M213.163 139.101V139.984H207.626V139.212L210.397 136.127C210.738 135.747 211.002 135.426 211.188 135.162C211.377 134.895 211.509 134.657 211.583 134.448C211.66 134.235 211.699 134.018 211.699 133.797C211.699 133.518 211.641 133.267 211.524 133.042C211.412 132.813 211.246 132.631 211.025 132.496C210.804 132.36 210.537 132.293 210.223 132.293C209.847 132.293 209.534 132.366 209.282 132.513C209.034 132.657 208.848 132.858 208.724 133.117C208.6 133.377 208.538 133.675 208.538 134.012H207.464C207.464 133.536 207.568 133.1 207.777 132.705C207.986 132.31 208.296 131.996 208.707 131.764C209.117 131.528 209.623 131.409 210.223 131.409C210.758 131.409 211.215 131.504 211.594 131.694C211.974 131.88 212.264 132.143 212.466 132.484C212.671 132.821 212.774 133.216 212.774 133.669C212.774 133.917 212.731 134.169 212.646 134.425C212.564 134.676 212.45 134.928 212.303 135.18C212.16 135.432 211.991 135.68 211.798 135.924C211.608 136.168 211.404 136.408 211.188 136.644L208.922 139.101H213.163ZM219.742 135.081V136.371C219.742 137.064 219.68 137.649 219.556 138.125C219.432 138.602 219.254 138.985 219.022 139.276C218.789 139.566 218.508 139.777 218.179 139.909C217.854 140.037 217.486 140.101 217.075 140.101C216.75 140.101 216.45 140.06 216.175 139.979C215.9 139.897 215.652 139.767 215.431 139.589C215.214 139.407 215.029 139.171 214.874 138.881C214.719 138.59 214.601 138.238 214.519 137.823C214.438 137.409 214.397 136.925 214.397 136.371V135.081C214.397 134.388 214.459 133.807 214.583 133.338C214.711 132.87 214.891 132.494 215.123 132.211C215.356 131.925 215.635 131.719 215.96 131.595C216.289 131.471 216.657 131.409 217.064 131.409C217.393 131.409 217.695 131.45 217.97 131.531C218.249 131.609 218.497 131.735 218.714 131.909C218.931 132.08 219.115 132.308 219.266 132.595C219.421 132.877 219.539 133.224 219.62 133.635C219.701 134.045 219.742 134.527 219.742 135.081ZM218.661 136.545V134.901C218.661 134.521 218.638 134.188 218.592 133.902C218.549 133.611 218.485 133.363 218.4 133.158C218.315 132.953 218.206 132.786 218.075 132.659C217.947 132.531 217.798 132.438 217.627 132.38C217.461 132.318 217.273 132.287 217.064 132.287C216.808 132.287 216.582 132.335 216.384 132.432C216.187 132.525 216.02 132.674 215.884 132.879C215.753 133.085 215.652 133.354 215.582 133.687C215.513 134.02 215.478 134.425 215.478 134.901V136.545C215.478 136.925 215.499 137.26 215.542 137.55C215.588 137.841 215.656 138.092 215.745 138.305C215.834 138.515 215.943 138.687 216.07 138.822C216.198 138.958 216.345 139.059 216.512 139.125C216.682 139.187 216.87 139.218 217.075 139.218C217.339 139.218 217.569 139.167 217.767 139.066C217.964 138.966 218.129 138.809 218.261 138.596C218.396 138.379 218.497 138.102 218.563 137.765C218.628 137.424 218.661 137.018 218.661 136.545Z" fill="black"/>
<rect width="38.6683" height="38.6683" transform="translate(233.004 116.086)" fill="black" fill-opacity="0.38"/>
<path d="M251.832 139.101V139.984H246.295V139.212L249.066 136.127C249.407 135.747 249.671 135.426 249.856 135.162C250.046 134.895 250.178 134.657 250.252 134.448C250.329 134.235 250.368 134.018 250.368 133.797C250.368 133.518 250.31 133.267 250.193 133.042C250.081 132.813 249.915 132.631 249.694 132.496C249.473 132.36 249.206 132.293 248.892 132.293C248.516 132.293 248.203 132.366 247.951 132.513C247.703 132.657 247.517 132.858 247.393 133.117C247.269 133.377 247.207 133.675 247.207 134.012H246.133C246.133 133.536 246.237 133.1 246.446 132.705C246.655 132.31 246.965 131.996 247.376 131.764C247.786 131.528 248.292 131.409 248.892 131.409C249.427 131.409 249.884 131.504 250.263 131.694C250.643 131.88 250.933 132.143 251.135 132.484C251.34 132.821 251.442 133.216 251.442 133.669C251.442 133.917 251.4 134.169 251.315 134.425C251.233 134.676 251.119 134.928 250.972 135.18C250.829 135.432 250.66 135.68 250.466 135.924C250.277 136.168 250.073 136.408 249.856 136.644L247.591 139.101H251.832ZM256.633 131.479V139.984H255.558V132.821L253.391 133.611V132.641L256.465 131.479H256.633Z" fill="black"/>
<rect width="38.6683" height="38.6683" transform="translate(0.994141 154.755)" fill="black" fill-opacity="0.38"/>
<path d="M19.821 177.77V178.653H14.2845V177.88L17.0556 174.795C17.3965 174.416 17.6598 174.094 17.8457 173.831C18.0355 173.564 18.1672 173.325 18.2408 173.116C18.3183 172.903 18.357 172.686 18.357 172.466C18.357 172.187 18.2989 171.935 18.1827 171.71C18.0704 171.482 17.9038 171.3 17.6831 171.164C17.4623 171.029 17.1951 170.961 16.8814 170.961C16.5057 170.961 16.192 171.035 15.9402 171.182C15.6923 171.325 15.5064 171.526 15.3825 171.786C15.2586 172.045 15.1966 172.344 15.1966 172.681H14.1218C14.1218 172.204 14.2264 171.769 14.4355 171.373C14.6447 170.978 14.9545 170.665 15.3651 170.432C15.7756 170.196 16.281 170.078 16.8814 170.078C17.4158 170.078 17.8729 170.173 18.2524 170.363C18.632 170.549 18.9224 170.812 19.1238 171.153C19.3291 171.49 19.4318 171.885 19.4318 172.338C19.4318 172.586 19.3891 172.837 19.3039 173.093C19.2226 173.345 19.1084 173.597 18.9612 173.848C18.8179 174.1 18.6494 174.348 18.4557 174.592C18.266 174.836 18.0626 175.076 17.8457 175.312L15.58 177.77H19.821ZM26.6326 177.77V178.653H21.0961V177.88L23.8672 174.795C24.208 174.416 24.4714 174.094 24.6573 173.831C24.8471 173.564 24.9788 173.325 25.0524 173.116C25.1298 172.903 25.1686 172.686 25.1686 172.466C25.1686 172.187 25.1105 171.935 24.9943 171.71C24.882 171.482 24.7154 171.3 24.4947 171.164C24.2739 171.029 24.0066 170.961 23.6929 170.961C23.3173 170.961 23.0035 171.035 22.7518 171.182C22.5039 171.325 22.318 171.526 22.1941 171.786C22.0701 172.045 22.0082 172.344 22.0082 172.681H20.9334C20.9334 172.204 21.038 171.769 21.2471 171.373C21.4563 170.978 21.7661 170.665 22.1766 170.432C22.5872 170.196 23.0926 170.078 23.6929 170.078C24.2274 170.078 24.6844 170.173 25.064 170.363C25.4435 170.549 25.734 170.812 25.9354 171.153C26.1407 171.49 26.2433 171.885 26.2433 172.338C26.2433 172.586 26.2007 172.837 26.1155 173.093C26.0342 173.345 25.9199 173.597 25.7728 173.848C25.6294 174.1 25.461 174.348 25.2673 174.592C25.0775 174.836 24.8742 175.076 24.6573 175.312L22.3916 177.77H26.6326Z" fill="black"/>
<rect width="38.6683" height="38.6683" transform="translate(39.6621 154.755)" fill="black" fill-opacity="0.05"/>
<path d="M58.489 177.77V178.653H52.9525V177.88L55.7236 174.795C56.0644 174.416 56.3278 174.094 56.5137 173.831C56.7035 173.564 56.8352 173.325 56.9088 173.116C56.9862 172.903 57.025 172.686 57.025 172.466C57.025 172.187 56.9669 171.935 56.8507 171.71C56.7384 171.482 56.5718 171.3 56.351 171.164C56.1303 171.029 55.863 170.961 55.5493 170.961C55.1736 170.961 54.8599 171.035 54.6082 171.182C54.3603 171.325 54.1744 171.526 54.0505 171.786C53.9265 172.045 53.8646 172.344 53.8646 172.681H52.7898C52.7898 172.204 52.8944 171.769 53.1035 171.373C53.3127 170.978 53.6225 170.665 54.033 170.432C54.4436 170.196 54.949 170.078 55.5493 170.078C56.0838 170.078 56.5408 170.173 56.9204 170.363C57.2999 170.549 57.5904 170.812 57.7918 171.153C57.9971 171.49 58.0997 171.885 58.0997 172.338C58.0997 172.586 58.0571 172.837 57.9719 173.093C57.8906 173.345 57.7763 173.597 57.6291 173.848C57.4858 174.1 57.3174 174.348 57.1237 174.592C56.9339 174.836 56.7306 175.076 56.5137 175.312L54.248 177.77H58.489ZM61.3268 173.895H62.0937C62.4693 173.895 62.7792 173.833 63.0232 173.709C63.2711 173.581 63.455 173.409 63.5751 173.192C63.699 172.971 63.761 172.723 63.761 172.448C63.761 172.123 63.7068 171.85 63.5983 171.629C63.4899 171.408 63.3272 171.242 63.1103 171.129C62.8934 171.017 62.6185 170.961 62.2854 170.961C61.9833 170.961 61.716 171.021 61.4837 171.141C61.2552 171.257 61.0751 171.424 60.9434 171.641C60.8156 171.858 60.7517 172.113 60.7517 172.408H59.6769C59.6769 171.978 59.7853 171.586 60.0022 171.234C60.2191 170.882 60.5232 170.601 60.9143 170.392C61.3094 170.183 61.7664 170.078 62.2854 170.078C62.7966 170.078 63.244 170.169 63.6274 170.351C64.0108 170.529 64.309 170.796 64.5221 171.153C64.7351 171.505 64.8416 171.945 64.8416 172.471C64.8416 172.684 64.7912 172.913 64.6905 173.157C64.5937 173.397 64.4407 173.622 64.2316 173.831C64.0263 174.04 63.7591 174.212 63.4299 174.348C63.1007 174.48 62.7056 174.545 62.2447 174.545H61.3268V173.895ZM61.3268 174.778V174.133H62.2447C62.7831 174.133 63.2285 174.197 63.5809 174.325C63.9334 174.453 64.2103 174.623 64.4117 174.836C64.6169 175.049 64.7602 175.283 64.8416 175.539C64.9268 175.791 64.9694 176.042 64.9694 176.294C64.9694 176.689 64.9016 177.04 64.7661 177.346C64.6344 177.652 64.4465 177.911 64.2025 178.124C63.9624 178.337 63.6797 178.498 63.3543 178.606C63.029 178.715 62.6746 178.769 62.2912 178.769C61.9233 178.769 61.5766 178.717 61.2513 178.612C60.9298 178.508 60.6452 178.357 60.3973 178.159C60.1494 177.958 59.9558 177.712 59.8163 177.421C59.6769 177.127 59.6072 176.792 59.6072 176.416H60.6819C60.6819 176.711 60.7459 176.968 60.8737 177.189C61.0053 177.41 61.1912 177.582 61.4314 177.706C61.6754 177.826 61.962 177.886 62.2912 177.886C62.6204 177.886 62.9031 177.83 63.1394 177.717C63.3795 177.601 63.5635 177.427 63.6913 177.195C63.823 176.962 63.8888 176.67 63.8888 176.317C63.8888 175.965 63.8152 175.676 63.668 175.452C63.5209 175.223 63.3117 175.055 63.0406 174.946C62.7734 174.834 62.4577 174.778 62.0937 174.778H61.3268Z" fill="black"/>
<rect width="38.6683" height="38.6683" transform="translate(78.3311 154.755)" fill="black" fill-opacity="0.05"/>
<path d="M97.1579 177.77V178.653H91.6214V177.88L94.3926 174.795C94.7334 174.416 94.9968 174.094 95.1827 173.831C95.3724 173.564 95.5041 173.325 95.5777 173.116C95.6552 172.903 95.6939 172.686 95.6939 172.466C95.6939 172.187 95.6358 171.935 95.5196 171.71C95.4073 171.482 95.2408 171.3 95.02 171.164C94.7992 171.029 94.532 170.961 94.2183 170.961C93.8426 170.961 93.5289 171.035 93.2771 171.182C93.0293 171.325 92.8434 171.526 92.7194 171.786C92.5955 172.045 92.5335 172.344 92.5335 172.681H91.4587C91.4587 172.204 91.5633 171.769 91.7725 171.373C91.9816 170.978 92.2914 170.665 92.702 170.432C93.1125 170.196 93.618 170.078 94.2183 170.078C94.7528 170.078 95.2098 170.173 95.5893 170.363C95.9689 170.549 96.2594 170.812 96.4608 171.153C96.666 171.49 96.7687 171.885 96.7687 172.338C96.7687 172.586 96.7261 172.837 96.6409 173.093C96.5595 173.345 96.4453 173.597 96.2981 173.848C96.1548 174.1 95.9863 174.348 95.7927 174.592C95.6029 174.836 95.3996 175.076 95.1827 175.312L92.9169 177.77H97.1579ZM104.144 175.806V176.689H98.0321V176.056L101.82 170.194H102.697L101.756 171.891L99.2521 175.806H104.144ZM102.964 170.194V178.653H101.89V170.194H102.964Z" fill="black"/>
<rect width="38.6683" height="38.6683" transform="translate(116.999 154.755)" fill="black" fill-opacity="0.05"/>
<path d="M135.827 177.77V178.653H130.29V177.88L133.062 174.795C133.402 174.416 133.666 174.094 133.852 173.831C134.041 173.564 134.173 173.325 134.247 173.116C134.324 172.903 134.363 172.686 134.363 172.466C134.363 172.187 134.305 171.935 134.189 171.71C134.076 171.482 133.91 171.3 133.689 171.164C133.468 171.029 133.201 170.961 132.887 170.961C132.512 170.961 132.198 171.035 131.946 171.182C131.698 171.325 131.512 171.526 131.388 171.786C131.264 172.045 131.202 172.344 131.202 172.681H130.128C130.128 172.204 130.232 171.769 130.441 171.373C130.651 170.978 130.96 170.665 131.371 170.432C131.781 170.196 132.287 170.078 132.887 170.078C133.422 170.078 133.879 170.173 134.258 170.363C134.638 170.549 134.928 170.812 135.13 171.153C135.335 171.49 135.438 171.885 135.438 172.338C135.438 172.586 135.395 172.837 135.31 173.093C135.228 173.345 135.114 173.597 134.967 173.848C134.824 174.1 134.655 174.348 134.462 174.592C134.272 174.836 134.068 175.076 133.852 175.312L131.586 177.77H135.827ZM138.456 174.627L137.596 174.406L138.02 170.194H142.36V171.188H138.932L138.676 173.488C138.831 173.399 139.027 173.316 139.263 173.238C139.503 173.161 139.778 173.122 140.088 173.122C140.479 173.122 140.83 173.19 141.14 173.325C141.449 173.457 141.713 173.647 141.93 173.895C142.15 174.143 142.319 174.441 142.435 174.789C142.551 175.138 142.609 175.527 142.609 175.957C142.609 176.364 142.553 176.738 142.441 177.078C142.332 177.419 142.168 177.717 141.947 177.973C141.726 178.225 141.447 178.42 141.111 178.56C140.777 178.699 140.384 178.769 139.931 178.769C139.59 178.769 139.267 178.723 138.961 178.63C138.659 178.533 138.388 178.388 138.148 178.194C137.911 177.996 137.718 177.752 137.567 177.462C137.42 177.168 137.327 176.823 137.288 176.428H138.31C138.357 176.745 138.45 177.013 138.589 177.229C138.729 177.446 138.911 177.611 139.135 177.723C139.364 177.832 139.629 177.886 139.931 177.886C140.187 177.886 140.413 177.841 140.611 177.752C140.808 177.663 140.975 177.535 141.111 177.369C141.246 177.202 141.349 177.001 141.418 176.765C141.492 176.528 141.529 176.263 141.529 175.969C141.529 175.702 141.492 175.454 141.418 175.225C141.345 174.997 141.234 174.797 141.087 174.627C140.944 174.456 140.768 174.325 140.559 174.232C140.349 174.135 140.109 174.087 139.838 174.087C139.478 174.087 139.205 174.135 139.019 174.232C138.837 174.329 138.649 174.46 138.456 174.627Z" fill="black"/>
<rect width="38.6683" height="38.6683" transform="translate(155.667 154.755)" fill="black" fill-opacity="0.05"/>
<path d="M174.494 177.77V178.653H168.957V177.88L171.729 174.795C172.069 174.416 172.333 174.094 172.519 173.831C172.708 173.564 172.84 173.325 172.914 173.116C172.991 172.903 173.03 172.686 173.03 172.466C173.03 172.187 172.972 171.935 172.856 171.71C172.743 171.482 172.577 171.3 172.356 171.164C172.135 171.029 171.868 170.961 171.554 170.961C171.179 170.961 170.865 171.035 170.613 171.182C170.365 171.325 170.179 171.526 170.055 171.786C169.931 172.045 169.869 172.344 169.869 172.681H168.795C168.795 172.204 168.899 171.769 169.108 171.373C169.318 170.978 169.627 170.665 170.038 170.432C170.448 170.196 170.954 170.078 171.554 170.078C172.089 170.078 172.546 170.173 172.925 170.363C173.305 170.549 173.595 170.812 173.797 171.153C174.002 171.49 174.105 171.885 174.105 172.338C174.105 172.586 174.062 172.837 173.977 173.093C173.895 173.345 173.781 173.597 173.634 173.848C173.491 174.1 173.322 174.348 173.129 174.592C172.939 174.836 172.735 175.076 172.519 175.312L170.253 177.77H174.494ZM179.888 170.183H179.981V171.095H179.888C179.319 171.095 178.842 171.188 178.459 171.373C178.075 171.556 177.771 171.801 177.547 172.111C177.322 172.417 177.159 172.762 177.059 173.145C176.962 173.529 176.913 173.918 176.913 174.313V175.556C176.913 175.932 176.958 176.265 177.047 176.556C177.136 176.842 177.258 177.084 177.413 177.282C177.568 177.479 177.742 177.628 177.936 177.729C178.133 177.83 178.339 177.88 178.552 177.88C178.8 177.88 179.02 177.834 179.214 177.741C179.408 177.644 179.57 177.51 179.702 177.34C179.838 177.166 179.94 176.96 180.01 176.724C180.08 176.488 180.114 176.228 180.114 175.946C180.114 175.694 180.083 175.452 180.022 175.219C179.96 174.983 179.865 174.774 179.737 174.592C179.609 174.406 179.448 174.261 179.255 174.156C179.065 174.048 178.838 173.994 178.575 173.994C178.277 173.994 177.998 174.067 177.738 174.214C177.483 174.358 177.272 174.547 177.105 174.784C176.942 175.016 176.849 175.27 176.826 175.545L176.257 175.539C176.311 175.105 176.412 174.735 176.559 174.429C176.71 174.119 176.896 173.868 177.117 173.674C177.341 173.477 177.591 173.333 177.866 173.244C178.145 173.151 178.439 173.105 178.749 173.105C179.171 173.105 179.535 173.184 179.841 173.343C180.147 173.502 180.399 173.715 180.597 173.982C180.794 174.245 180.939 174.544 181.032 174.877C181.129 175.206 181.178 175.545 181.178 175.893C181.178 176.292 181.121 176.666 181.009 177.015C180.897 177.363 180.728 177.669 180.504 177.932C180.283 178.196 180.01 178.401 179.685 178.548C179.359 178.695 178.982 178.769 178.552 178.769C178.095 178.769 177.696 178.676 177.355 178.49C177.014 178.3 176.731 178.049 176.507 177.735C176.282 177.421 176.114 177.073 176.001 176.689C175.889 176.306 175.833 175.917 175.833 175.521V175.016C175.833 174.42 175.893 173.835 176.013 173.262C176.133 172.688 176.34 172.169 176.635 171.705C176.933 171.24 177.345 170.87 177.872 170.595C178.399 170.32 179.071 170.183 179.888 170.183Z" fill="black"/>
<rect width="38.6683" height="38.6683" transform="translate(194.336 154.755)" fill="black" fill-opacity="0.05"/>
<path d="M213.163 177.77V178.653H207.626V177.88L210.397 174.795C210.738 174.416 211.002 174.094 211.188 173.831C211.377 173.564 211.509 173.325 211.583 173.116C211.66 172.903 211.699 172.686 211.699 172.466C211.699 172.187 211.641 171.935 211.524 171.71C211.412 171.482 211.246 171.3 211.025 171.164C210.804 171.029 210.537 170.961 210.223 170.961C209.847 170.961 209.534 171.035 209.282 171.182C209.034 171.325 208.848 171.526 208.724 171.786C208.6 172.045 208.538 172.344 208.538 172.681H207.464C207.464 172.204 207.568 171.769 207.777 171.373C207.986 170.978 208.296 170.665 208.707 170.432C209.117 170.196 209.623 170.078 210.223 170.078C210.758 170.078 211.215 170.173 211.594 170.363C211.974 170.549 212.264 170.812 212.466 171.153C212.671 171.49 212.774 171.885 212.774 172.338C212.774 172.586 212.731 172.837 212.646 173.093C212.564 173.345 212.45 173.597 212.303 173.848C212.16 174.1 211.991 174.348 211.798 174.592C211.608 174.836 211.404 175.076 211.188 175.312L208.922 177.77H213.163ZM219.899 170.194V170.798L216.396 178.653H215.263L218.76 171.077H214.182V170.194H219.899Z" fill="black"/>
<rect width="38.6683" height="38.6683" transform="translate(233.004 154.755)" fill="black" fill-opacity="0.38"/>
<path d="M251.832 177.77V178.653H246.295V177.88L249.066 174.795C249.407 174.416 249.671 174.094 249.856 173.831C250.046 173.564 250.178 173.325 250.252 173.116C250.329 172.903 250.368 172.686 250.368 172.466C250.368 172.187 250.31 171.935 250.193 171.71C250.081 171.482 249.915 171.3 249.694 171.164C249.473 171.029 249.206 170.961 248.892 170.961C248.516 170.961 248.203 171.035 247.951 171.182C247.703 171.325 247.517 171.526 247.393 171.786C247.269 172.045 247.207 172.344 247.207 172.681H246.133C246.133 172.204 246.237 171.769 246.446 171.373C246.655 170.978 246.965 170.665 247.376 170.432C247.786 170.196 248.292 170.078 248.892 170.078C249.427 170.078 249.884 170.173 250.263 170.363C250.643 170.549 250.933 170.812 251.135 171.153C251.34 171.49 251.442 171.885 251.442 172.338C251.442 172.586 251.4 172.837 251.315 173.093C251.233 173.345 251.119 173.597 250.972 173.848C250.829 174.1 250.66 174.348 250.466 174.592C250.277 174.836 250.073 175.076 249.856 175.312L247.591 177.77H251.832ZM258.434 176.364C258.434 176.879 258.314 177.317 258.074 177.677C257.838 178.033 257.516 178.304 257.11 178.49C256.707 178.676 256.252 178.769 255.744 178.769C255.237 178.769 254.78 178.676 254.373 178.49C253.967 178.304 253.645 178.033 253.409 177.677C253.173 177.317 253.055 176.879 253.055 176.364C253.055 176.027 253.118 175.719 253.246 175.44C253.378 175.157 253.562 174.911 253.798 174.702C254.038 174.493 254.321 174.332 254.646 174.22C254.976 174.104 255.338 174.046 255.733 174.046C256.252 174.046 256.715 174.147 257.121 174.348C257.528 174.545 257.847 174.819 258.08 175.167C258.316 175.516 258.434 175.915 258.434 176.364ZM257.354 176.341C257.354 176.027 257.286 175.75 257.15 175.51C257.015 175.266 256.825 175.076 256.581 174.941C256.337 174.805 256.054 174.737 255.733 174.737C255.404 174.737 255.119 174.805 254.879 174.941C254.642 175.076 254.458 175.266 254.327 175.51C254.195 175.75 254.129 176.027 254.129 176.341C254.129 176.666 254.193 176.945 254.321 177.177C254.453 177.406 254.639 177.582 254.879 177.706C255.123 177.826 255.411 177.886 255.744 177.886C256.077 177.886 256.364 177.826 256.604 177.706C256.844 177.582 257.028 177.406 257.156 177.177C257.288 176.945 257.354 176.666 257.354 176.341ZM258.237 172.396C258.237 172.806 258.128 173.176 257.911 173.506C257.694 173.835 257.398 174.094 257.022 174.284C256.647 174.474 256.221 174.569 255.744 174.569C255.26 174.569 254.828 174.474 254.449 174.284C254.073 174.094 253.779 173.835 253.566 173.506C253.353 173.176 253.246 172.806 253.246 172.396C253.246 171.904 253.353 171.486 253.566 171.141C253.783 170.796 254.079 170.533 254.455 170.351C254.83 170.169 255.258 170.078 255.739 170.078C256.223 170.078 256.653 170.169 257.028 170.351C257.404 170.533 257.698 170.796 257.911 171.141C258.128 171.486 258.237 171.904 258.237 172.396ZM257.162 172.413C257.162 172.131 257.102 171.881 256.982 171.664C256.862 171.447 256.695 171.277 256.482 171.153C256.269 171.025 256.021 170.961 255.739 170.961C255.456 170.961 255.208 171.021 254.995 171.141C254.786 171.257 254.621 171.424 254.501 171.641C254.385 171.858 254.327 172.115 254.327 172.413C254.327 172.704 254.385 172.958 254.501 173.174C254.621 173.391 254.788 173.56 255.001 173.68C255.214 173.8 255.462 173.86 255.744 173.86C256.027 173.86 256.273 173.8 256.482 173.68C256.695 173.56 256.862 173.391 256.982 173.174C257.102 172.958 257.162 172.704 257.162 172.413Z" fill="black"/>
<rect width="38.6683" height="38.6683" transform="translate(0.994141 193.423)" fill="black" fill-opacity="0.38"/>
<path d="M19.821 216.438V217.321H14.2845V216.548L17.0556 213.464C17.3965 213.084 17.6598 212.762 17.8457 212.499C18.0355 212.232 18.1672 211.994 18.2408 211.785C18.3183 211.572 18.357 211.355 18.357 211.134C18.357 210.855 18.2989 210.603 18.1827 210.379C18.0704 210.15 17.9038 209.968 17.6831 209.833C17.4623 209.697 17.1951 209.629 16.8814 209.629C16.5057 209.629 16.192 209.703 15.9402 209.85C15.6923 209.993 15.5064 210.195 15.3825 210.454C15.2586 210.714 15.1966 211.012 15.1966 211.349H14.1218C14.1218 210.872 14.2264 210.437 14.4355 210.042C14.6447 209.647 14.9545 209.333 15.3651 209.101C15.7756 208.864 16.281 208.746 16.8814 208.746C17.4158 208.746 17.8729 208.841 18.2524 209.031C18.632 209.217 18.9224 209.48 19.1238 209.821C19.3291 210.158 19.4318 210.553 19.4318 211.006C19.4318 211.254 19.3891 211.506 19.3039 211.761C19.2226 212.013 19.1084 212.265 18.9612 212.517C18.8179 212.768 18.6494 213.016 18.4557 213.26C18.266 213.504 18.0626 213.744 17.8457 213.981L15.58 216.438H19.821ZM22.1592 216.421H22.2696C22.8893 216.421 23.3928 216.333 23.7801 216.159C24.1674 215.985 24.4656 215.751 24.6747 215.456C24.8839 215.162 25.0272 214.831 25.1047 214.463C25.1821 214.091 25.2208 213.709 25.2208 213.318V212.023C25.2208 211.639 25.1763 211.298 25.0872 211C25.002 210.702 24.882 210.452 24.727 210.251C24.576 210.049 24.4036 209.896 24.21 209.792C24.0163 209.687 23.8111 209.635 23.5942 209.635C23.3463 209.635 23.1236 209.685 22.9261 209.786C22.7324 209.883 22.5678 210.02 22.4323 210.199C22.3006 210.377 22.1999 210.586 22.1302 210.826C22.0605 211.066 22.0256 211.328 22.0256 211.61C22.0256 211.862 22.0566 212.106 22.1185 212.342C22.1805 212.579 22.2754 212.792 22.4032 212.981C22.531 213.171 22.6898 213.322 22.8796 213.434C23.0732 213.543 23.2998 213.597 23.5593 213.597C23.7994 213.597 24.0241 213.551 24.2332 213.458C24.4462 213.361 24.6341 213.231 24.7967 213.068C24.9633 212.902 25.095 212.714 25.1918 212.505C25.2925 212.296 25.3506 212.077 25.3661 211.848H25.8773C25.8773 212.17 25.8134 212.488 25.6856 212.801C25.5617 213.111 25.3874 213.394 25.1627 213.649C24.9381 213.905 24.6747 214.11 24.3727 214.265C24.0706 214.416 23.7413 214.492 23.385 214.492C22.9667 214.492 22.6046 214.41 22.2986 214.248C21.9927 214.085 21.7409 213.868 21.5434 213.597C21.3498 213.326 21.2045 213.024 21.1077 212.691C21.0147 212.354 20.9683 212.013 20.9683 211.668C20.9683 211.266 21.0244 210.888 21.1367 210.536C21.2491 210.183 21.4156 209.873 21.6364 209.606C21.8571 209.335 22.1302 209.124 22.4555 208.973C22.7847 208.822 23.1643 208.746 23.5942 208.746C24.0783 208.746 24.4908 208.843 24.8316 209.037C25.1724 209.23 25.4494 209.49 25.6624 209.815C25.8793 210.14 26.0381 210.506 26.1388 210.913C26.2394 211.32 26.2898 211.738 26.2898 212.168V212.557C26.2898 212.995 26.2608 213.44 26.2027 213.893C26.1484 214.343 26.0419 214.773 25.8831 215.183C25.7282 215.594 25.5016 215.962 25.2034 216.287C24.9052 216.608 24.516 216.864 24.0357 217.054C23.5593 217.24 22.9706 217.333 22.2696 217.333H22.1592V216.421Z" fill="black"/>
<rect width="38.6683" height="38.6683" transform="translate(39.6621 193.423)" fill="black" fill-opacity="0.05"/>
<path d="M54.5152 212.563H55.2821C55.6578 212.563 55.9676 212.501 56.2116 212.377C56.4595 212.249 56.6435 212.077 56.7635 211.86C56.8875 211.639 56.9494 211.391 56.9494 211.116C56.9494 210.791 56.8952 210.518 56.7868 210.297C56.6783 210.077 56.5157 209.91 56.2988 209.798C56.0819 209.685 55.8069 209.629 55.4738 209.629C55.1717 209.629 54.9045 209.689 54.6721 209.809C54.4436 209.925 54.2635 210.092 54.1318 210.309C54.004 210.526 53.9401 210.781 53.9401 211.076H52.8653C52.8653 210.646 52.9738 210.255 53.1907 209.902C53.4075 209.55 53.7116 209.269 54.1028 209.06C54.4978 208.851 54.9548 208.746 55.4738 208.746C55.985 208.746 56.4324 208.837 56.8158 209.019C57.1992 209.197 57.4975 209.465 57.7105 209.821C57.9235 210.173 58.03 210.613 58.03 211.14C58.03 211.353 57.9797 211.581 57.879 211.825C57.7821 212.065 57.6291 212.29 57.42 212.499C57.2147 212.708 56.9475 212.881 56.6183 213.016C56.2891 213.148 55.894 213.214 55.4331 213.214H54.5152V212.563ZM54.5152 213.446V212.801H55.4331C55.9715 212.801 56.4169 212.865 56.7693 212.993C57.1218 213.121 57.3987 213.291 57.6001 213.504C57.8054 213.717 57.9487 213.952 58.03 214.207C58.1152 214.459 58.1578 214.711 58.1578 214.962C58.1578 215.357 58.09 215.708 57.9545 216.014C57.8228 216.32 57.635 216.579 57.391 216.792C57.1508 217.005 56.8681 217.166 56.5428 217.275C56.2174 217.383 55.863 217.437 55.4796 217.437C55.1117 217.437 54.765 217.385 54.4397 217.28C54.1182 217.176 53.8336 217.025 53.5857 216.827C53.3378 216.626 53.1442 216.38 53.0048 216.089C52.8653 215.795 52.7956 215.46 52.7956 215.084H53.8704C53.8704 215.379 53.9343 215.636 54.0621 215.857C54.1938 216.078 54.3797 216.25 54.6198 216.374C54.8638 216.494 55.1504 216.554 55.4796 216.554C55.8088 216.554 56.0916 216.498 56.3278 216.386C56.5679 216.27 56.7519 216.095 56.8797 215.863C57.0114 215.63 57.0772 215.338 57.0772 214.986C57.0772 214.633 57.0037 214.345 56.8565 214.12C56.7093 213.891 56.5002 213.723 56.229 213.615C55.9618 213.502 55.6462 213.446 55.2821 213.446H54.5152ZM65.0681 212.418V213.708C65.0681 214.401 65.0062 214.986 64.8822 215.462C64.7583 215.938 64.5801 216.322 64.3478 216.612C64.1154 216.903 63.8346 217.114 63.5054 217.246C63.18 217.373 62.8121 217.437 62.4016 217.437C62.0762 217.437 61.7761 217.397 61.5011 217.315C61.2261 217.234 60.9782 217.104 60.7575 216.926C60.5406 216.744 60.3547 216.508 60.1998 216.217C60.0448 215.927 59.9267 215.574 59.8454 215.16C59.764 214.745 59.7234 214.261 59.7234 213.708V212.418C59.7234 211.725 59.7853 211.144 59.9093 210.675C60.0371 210.206 60.2172 209.831 60.4496 209.548C60.6819 209.261 60.9608 209.056 61.2861 208.932C61.6153 208.808 61.9833 208.746 62.39 208.746C62.7192 208.746 63.0213 208.787 63.2962 208.868C63.5751 208.946 63.823 209.071 64.0399 209.246C64.2567 209.416 64.4407 209.645 64.5918 209.931C64.7467 210.214 64.8648 210.561 64.9461 210.971C65.0275 211.382 65.0681 211.864 65.0681 212.418ZM63.9876 213.882V212.238C63.9876 211.858 63.9643 211.525 63.9179 211.238C63.8753 210.948 63.8114 210.7 63.7261 210.495C63.6409 210.29 63.5325 210.123 63.4008 209.995C63.273 209.867 63.1239 209.774 62.9535 209.716C62.7869 209.654 62.5991 209.623 62.39 209.623C62.1343 209.623 61.9078 209.672 61.7102 209.769C61.5127 209.862 61.3462 210.011 61.2106 210.216C61.0789 210.421 60.9782 210.69 60.9085 211.024C60.8388 211.357 60.8039 211.761 60.8039 212.238V213.882C60.8039 214.261 60.8252 214.596 60.8679 214.887C60.9143 215.177 60.9821 215.429 61.0712 215.642C61.1603 215.851 61.2687 216.024 61.3965 216.159C61.5243 216.295 61.6715 216.395 61.838 216.461C62.0085 216.523 62.1963 216.554 62.4016 216.554C62.6649 216.554 62.8954 216.504 63.0929 216.403C63.2904 216.302 63.455 216.146 63.5867 215.933C63.7223 215.716 63.823 215.439 63.8888 215.102C63.9547 214.761 63.9876 214.354 63.9876 213.882Z" fill="black"/>
<rect width="38.6683" height="38.6683" transform="translate(78.3311 193.423)" fill="black" fill-opacity="0.05"/>
<path d="M93.1842 212.563H93.951C94.3267 212.563 94.6366 212.501 94.8806 212.377C95.1284 212.249 95.3124 212.077 95.4325 211.86C95.5564 211.639 95.6184 211.391 95.6184 211.116C95.6184 210.791 95.5642 210.518 95.4557 210.297C95.3473 210.077 95.1846 209.91 94.9677 209.798C94.7508 209.685 94.4758 209.629 94.1428 209.629C93.8407 209.629 93.5734 209.689 93.341 209.809C93.1125 209.925 92.9324 210.092 92.8007 210.309C92.6729 210.526 92.609 210.781 92.609 211.076H91.5343C91.5343 210.646 91.6427 210.255 91.8596 209.902C92.0765 209.55 92.3805 209.269 92.7717 209.06C93.1667 208.851 93.6238 208.746 94.1428 208.746C94.654 208.746 95.1013 208.837 95.4848 209.019C95.8682 209.197 96.1664 209.465 96.3794 209.821C96.5924 210.173 96.699 210.613 96.699 211.14C96.699 211.353 96.6486 211.581 96.5479 211.825C96.4511 212.065 96.2981 212.29 96.0889 212.499C95.8837 212.708 95.6164 212.881 95.2872 213.016C94.958 213.148 94.563 213.214 94.1021 213.214H93.1842V212.563ZM93.1842 213.446V212.801H94.1021C94.6404 212.801 95.0858 212.865 95.4383 212.993C95.7907 213.121 96.0676 213.291 96.269 213.504C96.4743 213.717 96.6176 213.952 96.699 214.207C96.7842 214.459 96.8268 214.711 96.8268 214.962C96.8268 215.357 96.759 215.708 96.6234 216.014C96.4917 216.32 96.3039 216.579 96.0599 216.792C95.8198 217.005 95.537 217.166 95.2117 217.275C94.8864 217.383 94.532 217.437 94.1486 217.437C93.7806 217.437 93.434 217.385 93.1087 217.28C92.7872 217.176 92.5025 217.025 92.2547 216.827C92.0068 216.626 91.8131 216.38 91.6737 216.089C91.5343 215.795 91.4646 215.46 91.4646 215.084H92.5393C92.5393 215.379 92.6032 215.636 92.731 215.857C92.8627 216.078 93.0486 216.25 93.2887 216.374C93.5328 216.494 93.8194 216.554 94.1486 216.554C94.4778 216.554 94.7605 216.498 94.9968 216.386C95.2369 216.27 95.4209 216.095 95.5487 215.863C95.6803 215.63 95.7462 215.338 95.7462 214.986C95.7462 214.633 95.6726 214.345 95.5254 214.12C95.3782 213.891 95.1691 213.723 94.898 213.615C94.6308 213.502 94.3151 213.446 93.951 213.446H93.1842ZM101.959 208.816V217.321H100.885V210.158L98.7177 210.948V209.978L101.791 208.816H101.959Z" fill="black"/>
</g>
<defs>
<clipPath id="clip0_932_3782">
<rect x="0.994141" y="0.081543" width="270.678" height="270.678" rx="11.8979" fill="white"/>
</clipPath>
</defs>
</svg>
