<svg width="272" height="271" viewBox="0 0 272 271" fill="none" xmlns="http://www.w3.org/2000/svg">
<g clip-path="url(#clip0_932_3566)">
<rect width="270.678" height="38.6683" transform="translate(0.352539 0.081543)" fill="black"/>
<path d="M19.1467 23.9795H17.3225L17.3341 22.7246H19.1467C19.6385 22.7246 20.051 22.6162 20.3841 22.3993C20.7172 22.1785 20.9689 21.8629 21.1393 21.4523C21.3097 21.0379 21.395 20.5422 21.395 19.9651V19.5294C21.395 19.084 21.3465 18.6909 21.2497 18.35C21.1529 18.0092 21.0096 17.7226 20.8198 17.4902C20.6339 17.2579 20.4035 17.0816 20.1285 16.9616C19.8535 16.8415 19.5378 16.7815 19.1815 16.7815H17.2876V15.5208H19.1815C19.747 15.5208 20.2621 15.6157 20.7269 15.8055C21.1955 15.9952 21.6002 16.2683 21.941 16.6246C22.2857 16.9771 22.5491 17.3992 22.7311 17.8911C22.9171 18.383 23.01 18.9329 23.01 19.541V19.9651C23.01 20.5693 22.9171 21.1193 22.7311 21.615C22.5491 22.1069 22.2857 22.529 21.941 22.8815C21.6002 23.2339 21.1936 23.505 20.721 23.6948C20.2485 23.8846 19.7237 23.9795 19.1467 23.9795ZM18.2171 15.5208V23.9795H16.6195V15.5208H18.2171Z" fill="white"/>
<path d="M59.9583 21.7835C59.9583 21.6208 59.9332 21.4756 59.8828 21.3478C59.8363 21.2161 59.7492 21.098 59.6214 20.9934C59.4975 20.8849 59.3212 20.7804 59.0927 20.6797C58.8681 20.5751 58.5776 20.4667 58.2213 20.3543C57.8262 20.2304 57.4583 20.091 57.1175 19.9361C56.7767 19.7811 56.4765 19.601 56.217 19.3958C55.9614 19.1905 55.7619 18.9542 55.6186 18.687C55.4753 18.4159 55.4037 18.1022 55.4037 17.7459C55.4037 17.3973 55.4773 17.0797 55.6244 16.7931C55.7755 16.5065 55.9885 16.2605 56.2635 16.0553C56.5385 15.8461 56.8619 15.6854 57.2337 15.5731C57.6094 15.4608 58.0238 15.4046 58.4769 15.4046C59.1043 15.4046 59.6466 15.5189 60.1036 15.7474C60.5645 15.9759 60.9208 16.2857 61.1725 16.6769C61.4243 17.0681 61.5502 17.5077 61.5502 17.9957H59.9583C59.9583 17.7323 59.9022 17.4999 59.7899 17.2985C59.6814 17.0971 59.5149 16.9383 59.2903 16.8221C59.0695 16.7059 58.7906 16.6479 58.4537 16.6479C58.1283 16.6479 57.8572 16.6963 57.6403 16.7931C57.4273 16.8899 57.2666 17.0216 57.1582 17.1881C57.0536 17.3547 57.0013 17.5406 57.0013 17.7459C57.0013 17.9008 57.0381 18.0402 57.1117 18.1641C57.1853 18.2842 57.2956 18.3985 57.4428 18.5069C57.59 18.6115 57.772 18.7102 57.9889 18.8032C58.2097 18.8923 58.4653 18.9813 58.7558 19.0704C59.2205 19.2099 59.6272 19.3648 59.9758 19.5352C60.3282 19.7056 60.6206 19.8993 60.853 20.1161C61.0893 20.333 61.2655 20.577 61.3817 20.8481C61.5018 21.1193 61.5618 21.4272 61.5618 21.7719C61.5618 22.1359 61.4901 22.4613 61.3468 22.7479C61.2035 23.0345 60.9983 23.2785 60.731 23.4799C60.4638 23.6813 60.1423 23.8343 59.7666 23.9388C59.3948 24.0434 58.9785 24.0957 58.5176 24.0957C58.107 24.0957 57.7004 24.0415 57.2976 23.933C56.8987 23.8207 56.5365 23.6542 56.2112 23.4334C55.8859 23.2088 55.6264 22.926 55.4327 22.5852C55.2391 22.2405 55.1422 21.8377 55.1422 21.3768H56.7457C56.7457 21.6441 56.7883 21.8726 56.8735 22.0623C56.9626 22.2482 57.0865 22.4012 57.2453 22.5213C57.408 22.6375 57.5977 22.7227 57.8146 22.7769C58.0315 22.8311 58.2658 22.8583 58.5176 22.8583C58.8429 22.8583 59.1102 22.8137 59.3193 22.7246C59.5323 22.6317 59.6911 22.5039 59.7957 22.3412C59.9041 22.1785 59.9583 21.9926 59.9583 21.7835Z" fill="white"/>
<path d="M97.8023 15.5208V23.9795H96.2105V15.5208H97.8023ZM100.428 15.5208V16.7815H93.6137V15.5208H100.428Z" fill="white"/>
<path d="M136.935 22.7885L139.189 24.5779L138.167 25.4667L135.947 23.689L136.935 22.7885ZM139.23 19.5352V19.9709C139.23 20.61 139.145 21.1851 138.974 21.6963C138.804 22.2037 138.56 22.6356 138.242 22.9919C137.929 23.3482 137.555 23.6212 137.121 23.811C136.687 24.0008 136.207 24.0957 135.68 24.0957C135.157 24.0957 134.677 24.0008 134.239 23.811C133.806 23.6212 133.43 23.3482 133.112 22.9919C132.795 22.6356 132.549 22.2037 132.375 21.6963C132.2 21.1851 132.113 20.61 132.113 19.9709V19.5352C132.113 18.8923 132.198 18.3171 132.369 17.8098C132.543 17.3024 132.787 16.8705 133.101 16.5142C133.418 16.154 133.794 15.8791 134.228 15.6893C134.665 15.4995 135.146 15.4046 135.669 15.4046C136.195 15.4046 136.676 15.4995 137.109 15.6893C137.547 15.8791 137.923 16.154 138.236 16.5142C138.554 16.8705 138.798 17.3024 138.968 17.8098C139.143 18.3171 139.23 18.8923 139.23 19.5352ZM137.615 19.9709V19.5236C137.615 19.0627 137.572 18.658 137.487 18.3094C137.402 17.9569 137.274 17.6606 137.104 17.4205C136.937 17.1804 136.734 17.0003 136.494 16.8802C136.253 16.7563 135.978 16.6943 135.669 16.6943C135.363 16.6943 135.09 16.7563 134.849 16.8802C134.609 17.0003 134.406 17.1804 134.239 17.4205C134.073 17.6606 133.945 17.9569 133.856 18.3094C133.771 18.658 133.728 19.0627 133.728 19.5236V19.9709C133.728 20.4279 133.771 20.8327 133.856 21.1851C133.945 21.5375 134.073 21.8358 134.239 22.0798C134.41 22.3199 134.615 22.5019 134.855 22.6259C135.099 22.7498 135.374 22.8118 135.68 22.8118C135.99 22.8118 136.265 22.7498 136.505 22.6259C136.745 22.5019 136.947 22.3199 137.109 22.0798C137.276 21.8358 137.402 21.5375 137.487 21.1851C137.572 20.8327 137.615 20.4279 137.615 19.9709Z" fill="white"/>
<path d="M175.603 22.7885L177.857 24.5779L176.835 25.4667L174.615 23.689L175.603 22.7885ZM177.898 19.5352V19.9709C177.898 20.61 177.813 21.1851 177.642 21.6963C177.472 22.2037 177.228 22.6356 176.91 22.9919C176.596 23.3482 176.223 23.6212 175.789 23.811C175.355 24.0008 174.875 24.0957 174.348 24.0957C173.825 24.0957 173.345 24.0008 172.907 23.811C172.474 23.6212 172.098 23.3482 171.78 22.9919C171.463 22.6356 171.217 22.2037 171.043 21.6963C170.868 21.1851 170.781 20.61 170.781 19.9709V19.5352C170.781 18.8923 170.866 18.3171 171.037 17.8098C171.211 17.3024 171.455 16.8705 171.769 16.5142C172.086 16.154 172.462 15.8791 172.896 15.6893C173.333 15.4995 173.814 15.4046 174.337 15.4046C174.863 15.4046 175.344 15.4995 175.777 15.6893C176.215 15.8791 176.591 16.154 176.904 16.5142C177.222 16.8705 177.466 17.3024 177.636 17.8098C177.811 18.3171 177.898 18.8923 177.898 19.5352ZM176.283 19.9709V19.5236C176.283 19.0627 176.24 18.658 176.155 18.3094C176.07 17.9569 175.942 17.6606 175.772 17.4205C175.605 17.1804 175.402 17.0003 175.162 16.8802C174.921 16.7563 174.646 16.6943 174.337 16.6943C174.031 16.6943 173.758 16.7563 173.517 16.8802C173.277 17.0003 173.074 17.1804 172.907 17.4205C172.741 17.6606 172.613 17.9569 172.524 18.3094C172.439 18.658 172.396 19.0627 172.396 19.5236V19.9709C172.396 20.4279 172.439 20.8327 172.524 21.1851C172.613 21.5375 172.741 21.8358 172.907 22.0798C173.078 22.3199 173.283 22.5019 173.523 22.6259C173.767 22.7498 174.042 22.8118 174.348 22.8118C174.658 22.8118 174.933 22.7498 175.173 22.6259C175.413 22.5019 175.615 22.3199 175.777 22.0798C175.944 21.8358 176.07 21.5375 176.155 21.1851C176.24 20.8327 176.283 20.4279 176.283 19.9709Z" fill="white"/>
<path d="M214.632 21.7835C214.632 21.6208 214.607 21.4756 214.557 21.3478C214.51 21.2161 214.423 21.098 214.295 20.9934C214.171 20.8849 213.995 20.7804 213.767 20.6797C213.542 20.5751 213.251 20.4667 212.895 20.3543C212.5 20.2304 212.132 20.091 211.791 19.9361C211.45 19.7811 211.15 19.601 210.891 19.3958C210.635 19.1905 210.436 18.9542 210.292 18.687C210.149 18.4159 210.077 18.1022 210.077 17.7459C210.077 17.3973 210.151 17.0797 210.298 16.7931C210.449 16.5065 210.662 16.2605 210.937 16.0553C211.212 15.8461 211.536 15.6854 211.908 15.5731C212.283 15.4608 212.698 15.4046 213.151 15.4046C213.778 15.4046 214.32 15.5189 214.777 15.7474C215.238 15.9759 215.595 16.2857 215.846 16.6769C216.098 17.0681 216.224 17.5077 216.224 17.9957H214.632C214.632 17.7323 214.576 17.4999 214.464 17.2985C214.355 17.0971 214.189 16.9383 213.964 16.8221C213.743 16.7059 213.464 16.6479 213.128 16.6479C212.802 16.6479 212.531 16.6963 212.314 16.7931C212.101 16.8899 211.94 17.0216 211.832 17.1881C211.727 17.3547 211.675 17.5406 211.675 17.7459C211.675 17.9008 211.712 18.0402 211.786 18.1641C211.859 18.2842 211.969 18.3985 212.117 18.5069C212.264 18.6115 212.446 18.7102 212.663 18.8032C212.884 18.8923 213.139 18.9813 213.43 19.0704C213.894 19.2099 214.301 19.3648 214.65 19.5352C215.002 19.7056 215.294 19.8993 215.527 20.1161C215.763 20.333 215.939 20.577 216.056 20.8481C216.176 21.1193 216.236 21.4272 216.236 21.7719C216.236 22.1359 216.164 22.4613 216.021 22.7479C215.877 23.0345 215.672 23.2785 215.405 23.4799C215.138 23.6813 214.816 23.8343 214.44 23.9388C214.069 24.0434 213.652 24.0957 213.191 24.0957C212.781 24.0957 212.374 24.0415 211.971 23.933C211.572 23.8207 211.21 23.6542 210.885 23.4334C210.56 23.2088 210.3 22.926 210.107 22.5852C209.913 22.2405 209.816 21.8377 209.816 21.3768H211.42C211.42 21.6441 211.462 21.8726 211.547 22.0623C211.636 22.2482 211.76 22.4012 211.919 22.5213C212.082 22.6375 212.272 22.7227 212.488 22.7769C212.705 22.8311 212.94 22.8583 213.191 22.8583C213.517 22.8583 213.784 22.8137 213.993 22.7246C214.206 22.6317 214.365 22.5039 214.47 22.3412C214.578 22.1785 214.632 21.9926 214.632 21.7835Z" fill="white"/>
<path d="M253.3 21.7835C253.3 21.6208 253.275 21.4756 253.225 21.3478C253.178 21.2161 253.091 21.098 252.963 20.9934C252.839 20.8849 252.663 20.7804 252.435 20.6797C252.21 20.5751 251.919 20.4667 251.563 20.3543C251.168 20.2304 250.8 20.091 250.459 19.9361C250.118 19.7811 249.818 19.601 249.559 19.3958C249.303 19.1905 249.104 18.9542 248.96 18.687C248.817 18.4159 248.745 18.1022 248.745 17.7459C248.745 17.3973 248.819 17.0797 248.966 16.7931C249.117 16.5065 249.33 16.2605 249.605 16.0553C249.88 15.8461 250.204 15.6854 250.575 15.5731C250.951 15.4608 251.366 15.4046 251.819 15.4046C252.446 15.4046 252.988 15.5189 253.445 15.7474C253.906 15.9759 254.263 16.2857 254.514 16.6769C254.766 17.0681 254.892 17.5077 254.892 17.9957H253.3C253.3 17.7323 253.244 17.4999 253.132 17.2985C253.023 17.0971 252.857 16.9383 252.632 16.8221C252.411 16.7059 252.132 16.6479 251.795 16.6479C251.47 16.6479 251.199 16.6963 250.982 16.7931C250.769 16.8899 250.608 17.0216 250.5 17.1881C250.395 17.3547 250.343 17.5406 250.343 17.7459C250.343 17.9008 250.38 18.0402 250.453 18.1641C250.527 18.2842 250.637 18.3985 250.785 18.5069C250.932 18.6115 251.114 18.7102 251.331 18.8032C251.551 18.8923 251.807 18.9813 252.098 19.0704C252.562 19.2099 252.969 19.3648 253.318 19.5352C253.67 19.7056 253.962 19.8993 254.195 20.1161C254.431 20.333 254.607 20.577 254.723 20.8481C254.844 21.1193 254.904 21.4272 254.904 21.7719C254.904 22.1359 254.832 22.4613 254.689 22.7479C254.545 23.0345 254.34 23.2785 254.073 23.4799C253.806 23.6813 253.484 23.8343 253.108 23.9388C252.737 24.0434 252.32 24.0957 251.859 24.0957C251.449 24.0957 251.042 24.0415 250.639 23.933C250.24 23.8207 249.878 23.6542 249.553 23.4334C249.228 23.2088 248.968 22.926 248.775 22.5852C248.581 22.2405 248.484 21.8377 248.484 21.3768H250.087C250.087 21.6441 250.13 21.8726 250.215 22.0623C250.304 22.2482 250.428 22.4012 250.587 22.5213C250.75 22.6375 250.94 22.7227 251.156 22.7769C251.373 22.8311 251.608 22.8583 251.859 22.8583C252.185 22.8583 252.452 22.8137 252.661 22.7246C252.874 22.6317 253.033 22.5039 253.137 22.3412C253.246 22.1785 253.3 21.9926 253.3 21.7835Z" fill="white"/>
<rect width="38.6683" height="38.6683" transform="translate(77.6895 38.75)" fill="#C30101"/>
<path d="M97.912 54.1428V62.6479H96.8372V55.4848L94.6703 56.2749V55.3047L97.7435 54.1428H97.912Z" fill="white"/>
<rect width="38.6683" height="38.6683" transform="translate(116.357 38.75)" fill="#C30101"/>
<path d="M138.591 61.7649V62.6479H133.055V61.8753L135.826 58.7904C136.167 58.4109 136.43 58.0894 136.616 57.826C136.806 57.5588 136.937 57.3206 137.011 57.1115C137.088 56.8984 137.127 56.6815 137.127 56.4608C137.127 56.1819 137.069 55.9302 136.953 55.7055C136.84 55.477 136.674 55.295 136.453 55.1594C136.232 55.0239 135.965 54.9561 135.651 54.9561C135.276 54.9561 134.962 55.0297 134.71 55.1769C134.462 55.3202 134.276 55.5216 134.153 55.7811C134.029 56.0406 133.967 56.3388 133.967 56.6757H132.892C132.892 56.1994 132.996 55.7636 133.206 55.3686C133.415 54.9735 133.725 54.6598 134.135 54.4274C134.546 54.1912 135.051 54.0731 135.651 54.0731C136.186 54.0731 136.643 54.168 137.022 54.3577C137.402 54.5436 137.692 54.807 137.894 55.1478C138.099 55.4848 138.202 55.8798 138.202 56.333C138.202 56.5809 138.159 56.8326 138.074 57.0882C137.993 57.34 137.878 57.5917 137.731 57.8435C137.588 58.0952 137.419 58.3431 137.226 58.5871C137.036 58.8311 136.833 59.0712 136.616 59.3075L134.35 61.7649H138.591Z" fill="white"/>
<rect width="38.6683" height="38.6683" transform="translate(155.025 38.75)" fill="black" fill-opacity="0.05"/>
<path d="M173.284 57.8899H174.051C174.427 57.8899 174.737 57.828 174.981 57.704C175.229 57.5762 175.413 57.4039 175.533 57.187C175.657 56.9662 175.718 56.7183 175.718 56.4434C175.718 56.118 175.664 55.845 175.556 55.6242C175.447 55.4035 175.285 55.2369 175.068 55.1246C174.851 55.0123 174.576 54.9561 174.243 54.9561C173.941 54.9561 173.674 55.0161 173.441 55.1362C173.213 55.2524 173.033 55.4189 172.901 55.6358C172.773 55.8527 172.709 56.1083 172.709 56.4027H171.634C171.634 55.9728 171.743 55.5816 171.96 55.2292C172.177 54.8767 172.481 54.5959 172.872 54.3868C173.267 54.1776 173.724 54.0731 174.243 54.0731C174.754 54.0731 175.201 54.1641 175.585 54.3461C175.968 54.5243 176.267 54.7915 176.48 55.1478C176.693 55.5003 176.799 55.9399 176.799 56.4666C176.799 56.6796 176.749 56.9081 176.648 57.1521C176.551 57.3923 176.398 57.6169 176.189 57.826C175.984 58.0352 175.717 58.2075 175.387 58.3431C175.058 58.4748 174.663 58.5406 174.202 58.5406H173.284V57.8899ZM173.284 58.773V58.1281H174.202C174.741 58.1281 175.186 58.192 175.538 58.3198C175.891 58.4477 176.168 58.6181 176.369 58.8311C176.574 59.0441 176.718 59.2784 176.799 59.534C176.884 59.7858 176.927 60.0375 176.927 60.2893C176.927 60.6843 176.859 61.0348 176.724 61.3408C176.592 61.6468 176.404 61.9063 176.16 62.1193C175.92 62.3323 175.637 62.493 175.312 62.6015C174.986 62.7099 174.632 62.7641 174.249 62.7641C173.881 62.7641 173.534 62.7119 173.209 62.6073C172.887 62.5027 172.603 62.3517 172.355 62.1541C172.107 61.9527 171.913 61.7068 171.774 61.4163C171.634 61.122 171.565 60.787 171.565 60.4113H172.639C172.639 60.7056 172.703 60.9632 172.831 61.1839C172.963 61.4047 173.149 61.5771 173.389 61.701C173.633 61.8211 173.919 61.8811 174.249 61.8811C174.578 61.8811 174.861 61.8249 175.097 61.7126C175.337 61.5964 175.521 61.4221 175.649 61.1898C175.78 60.9574 175.846 60.665 175.846 60.3125C175.846 59.9601 175.773 59.6715 175.626 59.4469C175.478 59.2184 175.269 59.0499 174.998 58.9415C174.731 58.8291 174.415 58.773 174.051 58.773H173.284Z" fill="black"/>
<rect width="38.6683" height="38.6683" transform="translate(193.694 38.75)" fill="black" fill-opacity="0.05"/>
<path d="M216.101 59.8013V60.6843H209.99V60.0511L213.777 54.1893H214.655L213.714 55.8856L211.21 59.8013H216.101ZM214.922 54.1893V62.6479H213.847V54.1893H214.922Z" fill="black"/>
<rect width="38.6683" height="38.6683" transform="translate(232.362 38.75)" fill="black" fill-opacity="0.38"/>
<path d="M250.413 58.6219L249.553 58.4012L249.977 54.1893H254.317V55.1827H250.889L250.634 57.4833C250.789 57.3942 250.984 57.3109 251.221 57.2335C251.461 57.156 251.736 57.1173 252.046 57.1173C252.437 57.1173 252.787 57.185 253.097 57.3206C253.407 57.4523 253.67 57.6421 253.887 57.8899C254.108 58.1378 254.276 58.436 254.393 58.7846C254.509 59.1332 254.567 59.5224 254.567 59.9523C254.567 60.359 254.511 60.7327 254.398 61.0736C254.29 61.4144 254.125 61.7126 253.905 61.9682C253.684 62.22 253.405 62.4156 253.068 62.555C252.735 62.6944 252.342 62.7641 251.889 62.7641C251.548 62.7641 251.224 62.7177 250.918 62.6247C250.616 62.5279 250.345 62.3826 250.105 62.189C249.869 61.9915 249.675 61.7475 249.524 61.457C249.377 61.1626 249.284 60.8179 249.245 60.4229H250.268C250.314 60.7405 250.407 61.0077 250.547 61.2246C250.686 61.4415 250.868 61.6061 251.093 61.7184C251.321 61.8269 251.587 61.8811 251.889 61.8811C252.144 61.8811 252.371 61.8365 252.568 61.7475C252.766 61.6584 252.932 61.5306 253.068 61.364C253.204 61.1975 253.306 60.9961 253.376 60.7598C253.45 60.5236 253.486 60.2583 253.486 59.9639C253.486 59.6967 253.45 59.4488 253.376 59.2203C253.302 58.9918 253.192 58.7923 253.045 58.6219C252.901 58.4515 252.725 58.3198 252.516 58.2269C252.307 58.1301 252.067 58.0816 251.796 58.0816C251.436 58.0816 251.162 58.1301 250.977 58.2269C250.795 58.3237 250.607 58.4554 250.413 58.6219Z" fill="black"/>
<rect width="38.6683" height="38.6683" transform="translate(0.352539 77.4182)" fill="black" fill-opacity="0.38"/>
<path d="M21.1676 92.8459H21.2606V93.7579H21.1676C20.5983 93.7579 20.1219 93.8509 19.7385 94.0368C19.3551 94.2188 19.051 94.4648 18.8264 94.7746C18.6018 95.0806 18.4391 95.4253 18.3384 95.8087C18.2416 96.1921 18.1932 96.5814 18.1932 96.9764V98.2197C18.1932 98.5954 18.2377 98.9284 18.3268 99.2189C18.4159 99.5055 18.5379 99.7476 18.6928 99.9451C18.8477 100.143 19.022 100.292 19.2156 100.392C19.4132 100.493 19.6184 100.543 19.8315 100.543C20.0793 100.543 20.3001 100.497 20.4937 100.404C20.6874 100.307 20.8501 100.174 20.9817 100.003C21.1173 99.8289 21.2199 99.6236 21.2896 99.3874C21.3594 99.1511 21.3942 98.8916 21.3942 98.6089C21.3942 98.3572 21.3632 98.1151 21.3013 97.8827C21.2393 97.6465 21.1444 97.4373 21.0166 97.2553C20.8888 97.0694 20.7281 96.9241 20.5344 96.8196C20.3446 96.7111 20.1181 96.6569 19.8547 96.6569C19.5565 96.6569 19.2776 96.7305 19.0181 96.8777C18.7625 97.021 18.5514 97.2108 18.3849 97.447C18.2222 97.6794 18.1293 97.9331 18.106 98.2081L17.5367 98.2022C17.5909 97.7685 17.6916 97.3986 17.8388 97.0926C17.9898 96.7828 18.1757 96.531 18.3965 96.3374C18.6211 96.1399 18.8709 95.9966 19.1459 95.9075C19.4248 95.8145 19.7191 95.768 20.029 95.768C20.4511 95.768 20.8152 95.8474 21.1212 96.0062C21.4271 96.165 21.6789 96.3781 21.8764 96.6453C22.0739 96.9087 22.2192 97.2069 22.3121 97.54C22.409 97.8692 22.4574 98.2081 22.4574 98.5566C22.4574 98.9556 22.4012 99.3293 22.2889 99.6779C22.1766 100.026 22.0081 100.332 21.7835 100.596C21.5627 100.859 21.2896 101.064 20.9643 101.212C20.639 101.359 20.2614 101.432 19.8315 101.432C19.3744 101.432 18.9755 101.339 18.6347 101.153C18.2939 100.964 18.0111 100.712 17.7865 100.398C17.5619 100.085 17.3934 99.736 17.2811 99.3525C17.1687 98.9691 17.1126 98.5799 17.1126 98.1848V97.6794C17.1126 97.0829 17.1726 96.4981 17.2927 95.9249C17.4127 95.3517 17.62 94.8327 17.9143 94.368C18.2125 93.9032 18.625 93.5333 19.1517 93.2583C19.6785 92.9833 20.3504 92.8459 21.1676 92.8459Z" fill="black"/>
<rect width="38.6683" height="38.6683" transform="translate(39.0205 77.4182)" fill="black" fill-opacity="0.05"/>
<path d="M61.1776 92.8575V93.4617L57.6745 101.316H56.5416L60.0389 93.7405H55.461V92.8575H61.1776Z" fill="black"/>
<rect width="38.6683" height="38.6683" transform="translate(77.6895 77.4182)" fill="#0076B1"/>
<path d="M99.7129 99.0272C99.7129 99.5423 99.5929 99.98 99.3528 100.34C99.1165 100.696 98.795 100.968 98.3884 101.153C97.9856 101.339 97.5305 101.432 97.0231 101.432C96.5158 101.432 96.0587 101.339 95.6521 101.153C95.2454 100.968 94.9239 100.696 94.6877 100.34C94.4514 99.98 94.3333 99.5423 94.3333 99.0272C94.3333 98.6902 94.3972 98.3823 94.525 98.1035C94.6567 97.8208 94.8407 97.5748 95.0769 97.3657C95.3171 97.1565 95.5998 96.9958 95.9251 96.8835C96.2543 96.7673 96.6165 96.7092 97.0115 96.7092C97.5305 96.7092 97.9933 96.8099 98.4 97.0113C98.8067 97.2088 99.1262 97.4819 99.3586 97.8304C99.5948 98.179 99.7129 98.5779 99.7129 99.0272ZM98.6324 99.004C98.6324 98.6902 98.5646 98.4133 98.429 98.1732C98.2935 97.9292 98.1037 97.7394 97.8597 97.6039C97.6157 97.4683 97.333 97.4005 97.0115 97.4005C96.6823 97.4005 96.3976 97.4683 96.1575 97.6039C95.9213 97.7394 95.7373 97.9292 95.6056 98.1732C95.4739 98.4133 95.4081 98.6902 95.4081 99.004C95.4081 99.3293 95.472 99.6082 95.5998 99.8405C95.7315 100.069 95.9174 100.245 96.1575 100.369C96.4015 100.489 96.69 100.549 97.0231 100.549C97.3562 100.549 97.6428 100.489 97.8829 100.369C98.1231 100.245 98.307 100.069 98.4348 99.8405C98.5665 99.6082 98.6324 99.3293 98.6324 99.004ZM99.5154 95.0593C99.5154 95.4698 99.407 95.8397 99.1901 96.1689C98.9732 96.4981 98.6769 96.7576 98.3012 96.9474C97.9255 97.1372 97.4995 97.2321 97.0231 97.2321C96.539 97.2321 96.1072 97.1372 95.7276 96.9474C95.3519 96.7576 95.0576 96.4981 94.8445 96.1689C94.6315 95.8397 94.525 95.4698 94.525 95.0593C94.525 94.5674 94.6315 94.1491 94.8445 93.8044C95.0614 93.4597 95.3577 93.1964 95.7334 93.0143C96.1091 92.8323 96.5371 92.7413 97.0173 92.7413C97.5014 92.7413 97.9314 92.8323 98.307 93.0143C98.6827 93.1964 98.9771 93.4597 99.1901 93.8044C99.407 94.1491 99.5154 94.5674 99.5154 95.0593ZM98.4407 95.0767C98.4407 94.794 98.3806 94.5442 98.2606 94.3273C98.1405 94.1104 97.974 93.94 97.7609 93.816C97.5479 93.6882 97.3 93.6243 97.0173 93.6243C96.7346 93.6243 96.4867 93.6844 96.2737 93.8044C96.0646 93.9206 95.8999 94.0872 95.7799 94.304C95.6637 94.5209 95.6056 94.7785 95.6056 95.0767C95.6056 95.3672 95.6637 95.6209 95.7799 95.8378C95.8999 96.0547 96.0665 96.2231 96.2795 96.3432C96.4925 96.4633 96.7404 96.5233 97.0231 96.5233C97.3059 96.5233 97.5518 96.4633 97.7609 96.3432C97.974 96.2231 98.1405 96.0547 98.2606 95.8378C98.3806 95.6209 98.4407 95.3672 98.4407 95.0767Z" fill="black"/>
<rect width="38.6683" height="38.6683" transform="translate(116.357 77.4182)" fill="black" fill-opacity="0.05"/>
<path d="M134.118 100.416H134.228C134.848 100.416 135.351 100.329 135.739 100.154C136.126 99.98 136.424 99.7456 136.633 99.4513C136.842 99.1569 136.986 98.8258 137.063 98.4579C137.141 98.0861 137.179 97.7046 137.179 97.3134V96.0179C137.179 95.6344 137.135 95.2936 137.046 94.9954C136.96 94.6972 136.84 94.4473 136.686 94.2459C136.534 94.0446 136.362 93.8916 136.168 93.787C135.975 93.6824 135.77 93.6301 135.553 93.6301C135.305 93.6301 135.082 93.6805 134.885 93.7812C134.691 93.878 134.526 94.0155 134.391 94.1937C134.259 94.3718 134.158 94.581 134.089 94.8211C134.019 95.0612 133.984 95.3227 133.984 95.6054C133.984 95.8571 134.015 96.1011 134.077 96.3374C134.139 96.5736 134.234 96.7867 134.362 96.9764C134.489 97.1662 134.648 97.3173 134.838 97.4296C135.032 97.538 135.258 97.5922 135.518 97.5922C135.758 97.5922 135.983 97.5458 136.192 97.4528C136.405 97.356 136.593 97.2262 136.755 97.0636C136.922 96.897 137.053 96.7092 137.15 96.5001C137.251 96.2909 137.309 96.0721 137.325 95.8436H137.836C137.836 96.165 137.772 96.4826 137.644 96.7963C137.52 97.1062 137.346 97.3889 137.121 97.6445C136.897 97.9002 136.633 98.1054 136.331 98.2603C136.029 98.4114 135.7 98.4869 135.344 98.4869C134.925 98.4869 134.563 98.4056 134.257 98.2429C133.951 98.0802 133.699 97.8634 133.502 97.5922C133.308 97.3211 133.163 97.019 133.066 96.686C132.973 96.349 132.927 96.0082 132.927 95.6635C132.927 95.2607 132.983 94.8831 133.095 94.5306C133.208 94.1782 133.374 93.8683 133.595 93.6011C133.816 93.33 134.089 93.1189 134.414 92.9679C134.743 92.8168 135.123 92.7413 135.553 92.7413C136.037 92.7413 136.449 92.8381 136.79 93.0318C137.131 93.2254 137.408 93.4849 137.621 93.8102C137.838 94.1356 137.997 94.5016 138.097 94.9082C138.198 95.3149 138.248 95.7332 138.248 96.1631V96.5523C138.248 96.99 138.219 97.4354 138.161 97.8885C138.107 98.3378 138 98.7677 137.842 99.1783C137.687 99.5888 137.46 99.9567 137.162 100.282C136.864 100.604 136.474 100.859 135.994 101.049C135.518 101.235 134.929 101.328 134.228 101.328H134.118V100.416Z" fill="black"/>
<rect width="38.6683" height="38.6683" transform="translate(155.025 77.4182)" fill="black" fill-opacity="0.05"/>
<path d="M171.842 92.811V101.316H170.767V94.153L168.6 94.9431V93.9729L171.674 92.811H171.842ZM180.431 96.4129V97.7026C180.431 98.3959 180.369 98.9807 180.246 99.4571C180.122 99.9335 179.943 100.317 179.711 100.607C179.479 100.898 179.198 101.109 178.869 101.241C178.543 101.368 178.175 101.432 177.765 101.432C177.44 101.432 177.139 101.392 176.864 101.31C176.589 101.229 176.342 101.099 176.121 100.921C175.904 100.739 175.718 100.503 175.563 100.212C175.408 99.9219 175.29 99.5694 175.209 99.155C175.127 98.7406 175.087 98.2565 175.087 97.7026V96.4129C175.087 95.7196 175.149 95.1387 175.273 94.67C175.4 94.2014 175.58 93.8257 175.813 93.543C176.045 93.2564 176.324 93.0511 176.649 92.9272C176.979 92.8032 177.347 92.7413 177.753 92.7413C178.082 92.7413 178.385 92.7819 178.66 92.8633C178.938 92.9407 179.186 93.0666 179.403 93.2409C179.62 93.4113 179.804 93.6398 179.955 93.9264C180.11 94.2092 180.228 94.5558 180.309 94.9663C180.391 95.3769 180.431 95.8591 180.431 96.4129ZM179.351 97.8769V96.2328C179.351 95.8533 179.328 95.5202 179.281 95.2336C179.239 94.9431 179.175 94.6952 179.089 94.49C179.004 94.2847 178.896 94.1181 178.764 93.9903C178.636 93.8625 178.487 93.7696 178.317 93.7115C178.15 93.6495 177.962 93.6185 177.753 93.6185C177.498 93.6185 177.271 93.6669 177.074 93.7638C176.876 93.8567 176.709 94.0058 176.574 94.2111C176.442 94.4164 176.342 94.6855 176.272 95.0186C176.202 95.3517 176.167 95.7564 176.167 96.2328V97.8769C176.167 98.2565 176.189 98.5915 176.231 98.882C176.278 99.1724 176.345 99.4242 176.434 99.6372C176.524 99.8463 176.632 100.019 176.76 100.154C176.888 100.29 177.035 100.391 177.201 100.456C177.372 100.518 177.56 100.549 177.765 100.549C178.028 100.549 178.259 100.499 178.456 100.398C178.654 100.298 178.818 100.141 178.95 99.9277C179.086 99.7108 179.186 99.4339 179.252 99.0969C179.318 98.7561 179.351 98.3494 179.351 97.8769Z" fill="black"/>
<rect width="38.6683" height="38.6683" transform="translate(193.694 77.4182)" fill="black" fill-opacity="0.05"/>
<path d="M210.511 92.811V101.316H209.436V94.153L207.269 94.9431V93.9729L210.343 92.811H210.511ZM217.323 92.811V101.316H216.248V94.153L214.081 94.9431V93.9729L217.154 92.811H217.323Z" fill="black"/>
<rect width="38.6683" height="38.6683" transform="translate(232.362 77.4182)" fill="black" fill-opacity="0.38"/>
<path d="M249.18 92.811V101.316H248.105V94.153L245.938 94.9431V93.9729L249.012 92.811H249.18ZM258.002 100.433V101.316H252.465V100.543L255.236 97.4586C255.577 97.0791 255.841 96.7576 256.026 96.4942C256.216 96.227 256.348 95.9888 256.422 95.7797C256.499 95.5667 256.538 95.3498 256.538 95.129C256.538 94.8501 256.48 94.5984 256.363 94.3738C256.251 94.1453 256.085 93.9632 255.864 93.8277C255.643 93.6921 255.376 93.6243 255.062 93.6243C254.686 93.6243 254.373 93.6979 254.121 93.8451C253.873 93.9884 253.687 94.1898 253.563 94.4493C253.439 94.7088 253.377 95.007 253.377 95.344H252.303C252.303 94.8676 252.407 94.4319 252.616 94.0368C252.825 93.6418 253.135 93.328 253.546 93.0957C253.956 92.8594 254.462 92.7413 255.062 92.7413C255.597 92.7413 256.054 92.8362 256.433 93.0259C256.813 93.2119 257.103 93.4752 257.305 93.816C257.51 94.153 257.612 94.548 257.612 95.0012C257.612 95.2491 257.57 95.5008 257.485 95.7564C257.403 96.0082 257.289 96.2599 257.142 96.5117C256.999 96.7634 256.83 97.0113 256.636 97.2553C256.447 97.4993 256.243 97.7394 256.026 97.9757L253.761 100.433H258.002Z" fill="black"/>
<rect width="38.6683" height="38.6683" transform="translate(0.352539 116.086)" fill="black" fill-opacity="0.38"/>
<path d="M17.1693 131.479V139.984H16.0945V132.821L13.9276 133.611V132.641L17.0008 131.479H17.1693ZM22.0172 135.226H22.7841C23.1598 135.226 23.4696 135.164 23.7136 135.04C23.9615 134.913 24.1455 134.74 24.2655 134.523C24.3895 134.303 24.4514 134.055 24.4514 133.78C24.4514 133.454 24.3972 133.181 24.2888 132.961C24.1803 132.74 24.0177 132.573 23.8008 132.461C23.5839 132.349 23.3089 132.293 22.9758 132.293C22.6737 132.293 22.4065 132.353 22.1741 132.473C21.9456 132.589 21.7655 132.755 21.6338 132.972C21.506 133.189 21.4421 133.445 21.4421 133.739H20.3673C20.3673 133.309 20.4758 132.918 20.6927 132.566C20.9095 132.213 21.2136 131.932 21.6048 131.723C21.9998 131.514 22.4568 131.409 22.9758 131.409C23.487 131.409 23.9344 131.501 24.3178 131.683C24.7012 131.861 24.9995 132.128 25.2125 132.484C25.4255 132.837 25.532 133.276 25.532 133.803C25.532 134.016 25.4817 134.245 25.381 134.489C25.2841 134.729 25.1311 134.953 24.922 135.162C24.7167 135.372 24.4495 135.544 24.1203 135.68C23.7911 135.811 23.396 135.877 22.9351 135.877H22.0172V135.226ZM22.0172 136.109V135.465H22.9351C23.4735 135.465 23.9189 135.528 24.2713 135.656C24.6238 135.784 24.9007 135.954 25.1021 136.168C25.3074 136.381 25.4507 136.615 25.532 136.87C25.6172 137.122 25.6598 137.374 25.6598 137.626C25.6598 138.021 25.592 138.371 25.4565 138.677C25.3248 138.983 25.137 139.243 24.893 139.456C24.6528 139.669 24.3701 139.829 24.0448 139.938C23.7194 140.046 23.365 140.101 22.9816 140.101C22.6137 140.101 22.267 140.048 21.9417 139.944C21.6202 139.839 21.3356 139.688 21.0877 139.491C20.8398 139.289 20.6462 139.043 20.5068 138.753C20.3673 138.458 20.2976 138.123 20.2976 137.748H21.3724C21.3724 138.042 21.4363 138.3 21.5641 138.52C21.6958 138.741 21.8817 138.913 22.1218 139.037C22.3658 139.157 22.6524 139.218 22.9816 139.218C23.3108 139.218 23.5936 139.161 23.8298 139.049C24.0699 138.933 24.2539 138.759 24.3817 138.526C24.5134 138.294 24.5792 138.001 24.5792 137.649C24.5792 137.296 24.5057 137.008 24.3585 136.783C24.2113 136.555 24.0022 136.386 23.731 136.278C23.4638 136.166 23.1482 136.109 22.7841 136.109H22.0172Z" fill="black"/>
<rect width="38.6683" height="38.6683" transform="translate(39.0205 116.086)" fill="black" fill-opacity="0.05"/>
<path d="M55.8373 131.479V139.984H54.7625V132.821L52.5955 133.611V132.641L55.6688 131.479H55.8373ZM64.8332 137.138V138.021H58.7216V137.388L62.5094 131.526H63.3866L62.4455 133.222L59.9416 137.138H64.8332ZM63.6539 131.526V139.984H62.5791V131.526H63.6539Z" fill="black"/>
<rect width="38.6683" height="38.6683" transform="translate(77.6895 116.086)" fill="black" fill-opacity="0.05"/>
<path d="M94.5062 131.479V139.984H93.4314V132.821L91.2645 133.611V132.641L94.3377 131.479H94.5062ZM99.145 135.958L98.2852 135.738L98.7093 131.526H103.049V132.519H99.6214L99.3658 134.82C99.5207 134.731 99.7163 134.647 99.9525 134.57C100.193 134.492 100.468 134.454 100.777 134.454C101.169 134.454 101.519 134.521 101.829 134.657C102.139 134.789 102.402 134.978 102.619 135.226C102.84 135.474 103.008 135.772 103.125 136.121C103.241 136.47 103.299 136.859 103.299 137.289C103.299 137.695 103.243 138.069 103.13 138.41C103.022 138.751 102.857 139.049 102.637 139.305C102.416 139.556 102.137 139.752 101.8 139.891C101.467 140.031 101.074 140.101 100.621 140.101C100.28 140.101 99.9564 140.054 99.6504 139.961C99.3483 139.864 99.0772 139.719 98.8371 139.525C98.6008 139.328 98.4072 139.084 98.2561 138.793C98.109 138.499 98.016 138.154 97.9773 137.759H98.9998C99.0462 138.077 99.1392 138.344 99.2786 138.561C99.4181 138.778 99.6001 138.943 99.8247 139.055C100.053 139.163 100.319 139.218 100.621 139.218C100.876 139.218 101.103 139.173 101.3 139.084C101.498 138.995 101.664 138.867 101.8 138.7C101.936 138.534 102.038 138.333 102.108 138.096C102.181 137.86 102.218 137.595 102.218 137.3C102.218 137.033 102.181 136.785 102.108 136.557C102.034 136.328 101.924 136.129 101.777 135.958C101.633 135.788 101.457 135.656 101.248 135.563C101.039 135.466 100.799 135.418 100.528 135.418C100.167 135.418 99.8944 135.466 99.7085 135.563C99.5265 135.66 99.3387 135.792 99.145 135.958Z" fill="black"/>
<rect width="38.6683" height="38.6683" transform="translate(116.357 116.086)" fill="black" fill-opacity="0.05"/>
<path d="M133.175 131.479V139.984H132.1V132.821L129.933 133.611V132.641L133.007 131.479H133.175ZM140.579 131.514H140.672V132.426H140.579C140.01 132.426 139.534 132.519 139.15 132.705C138.767 132.887 138.463 133.133 138.238 133.443C138.013 133.749 137.851 134.093 137.75 134.477C137.653 134.86 137.605 135.25 137.605 135.645V136.888C137.605 137.264 137.649 137.597 137.738 137.887C137.828 138.174 137.95 138.416 138.104 138.613C138.259 138.811 138.434 138.96 138.627 139.061C138.825 139.161 139.03 139.212 139.243 139.212C139.491 139.212 139.712 139.165 139.905 139.072C140.099 138.975 140.262 138.842 140.393 138.671C140.529 138.497 140.632 138.292 140.701 138.056C140.771 137.819 140.806 137.56 140.806 137.277C140.806 137.025 140.775 136.783 140.713 136.551C140.651 136.315 140.556 136.106 140.428 135.924C140.3 135.738 140.14 135.592 139.946 135.488C139.756 135.379 139.53 135.325 139.266 135.325C138.968 135.325 138.689 135.399 138.43 135.546C138.174 135.689 137.963 135.879 137.797 136.115C137.634 136.348 137.541 136.601 137.518 136.876L136.948 136.87C137.003 136.437 137.103 136.067 137.25 135.761C137.401 135.451 137.587 135.199 137.808 135.006C138.033 134.808 138.283 134.665 138.558 134.576C138.836 134.483 139.131 134.436 139.441 134.436C139.863 134.436 140.227 134.516 140.533 134.674C140.839 134.833 141.091 135.046 141.288 135.314C141.486 135.577 141.631 135.875 141.724 136.208C141.821 136.537 141.869 136.876 141.869 137.225C141.869 137.624 141.813 137.998 141.701 138.346C141.588 138.695 141.42 139.001 141.195 139.264C140.974 139.527 140.701 139.733 140.376 139.88C140.051 140.027 139.673 140.101 139.243 140.101C138.786 140.101 138.387 140.008 138.046 139.822C137.706 139.632 137.423 139.38 137.198 139.066C136.974 138.753 136.805 138.404 136.693 138.021C136.58 137.637 136.524 137.248 136.524 136.853V136.348C136.524 135.751 136.584 135.166 136.704 134.593C136.824 134.02 137.032 133.501 137.326 133.036C137.624 132.571 138.037 132.202 138.563 131.927C139.09 131.652 139.762 131.514 140.579 131.514Z" fill="black"/>
<rect width="38.6683" height="38.6683" transform="translate(155.025 116.086)" fill="black" fill-opacity="0.05"/>
<path d="M171.842 131.479V139.984H170.767V132.821L168.6 133.611V132.641L171.674 131.479H171.842ZM180.588 131.526V132.13L177.085 139.984H175.952L179.45 132.409H174.872V131.526H180.588Z" fill="black"/>
<rect width="38.6683" height="38.6683" transform="translate(193.694 116.086)" fill="black" fill-opacity="0.05"/>
<path d="M210.511 131.479V139.984H209.436V132.821L207.269 133.611V132.641L210.343 131.479H210.511ZM219.124 137.695C219.124 138.211 219.004 138.648 218.763 139.008C218.527 139.365 218.206 139.636 217.799 139.822C217.396 140.008 216.941 140.101 216.434 140.101C215.926 140.101 215.469 140.008 215.063 139.822C214.656 139.636 214.335 139.365 214.098 139.008C213.862 138.648 213.744 138.211 213.744 137.695C213.744 137.358 213.808 137.051 213.936 136.772C214.067 136.489 214.251 136.243 214.488 136.034C214.728 135.825 215.01 135.664 215.336 135.552C215.665 135.436 216.027 135.377 216.422 135.377C216.941 135.377 217.404 135.478 217.811 135.68C218.217 135.877 218.537 136.15 218.769 136.499C219.005 136.847 219.124 137.246 219.124 137.695ZM218.043 137.672C218.043 137.358 217.975 137.082 217.84 136.841C217.704 136.597 217.514 136.408 217.27 136.272C217.026 136.137 216.744 136.069 216.422 136.069C216.093 136.069 215.808 136.137 215.568 136.272C215.332 136.408 215.148 136.597 215.016 136.841C214.885 137.082 214.819 137.358 214.819 137.672C214.819 137.998 214.883 138.276 215.01 138.509C215.142 138.737 215.328 138.913 215.568 139.037C215.812 139.157 216.101 139.218 216.434 139.218C216.767 139.218 217.053 139.157 217.294 139.037C217.534 138.913 217.718 138.737 217.846 138.509C217.977 138.276 218.043 137.998 218.043 137.672ZM218.926 133.727C218.926 134.138 218.818 134.508 218.601 134.837C218.384 135.166 218.088 135.426 217.712 135.616C217.336 135.805 216.91 135.9 216.434 135.9C215.95 135.9 215.518 135.805 215.138 135.616C214.763 135.426 214.468 135.166 214.255 134.837C214.042 134.508 213.936 134.138 213.936 133.727C213.936 133.236 214.042 132.817 214.255 132.473C214.472 132.128 214.768 131.865 215.144 131.683C215.52 131.501 215.948 131.409 216.428 131.409C216.912 131.409 217.342 131.501 217.718 131.683C218.093 131.865 218.388 132.128 218.601 132.473C218.818 132.817 218.926 133.236 218.926 133.727ZM217.851 133.745C217.851 133.462 217.791 133.212 217.671 132.995C217.551 132.779 217.385 132.608 217.172 132.484C216.959 132.356 216.711 132.293 216.428 132.293C216.145 132.293 215.897 132.353 215.684 132.473C215.475 132.589 215.311 132.755 215.191 132.972C215.074 133.189 215.016 133.447 215.016 133.745C215.016 134.035 215.074 134.289 215.191 134.506C215.311 134.723 215.477 134.891 215.69 135.011C215.903 135.131 216.151 135.192 216.434 135.192C216.717 135.192 216.962 135.131 217.172 135.011C217.385 134.891 217.551 134.723 217.671 134.506C217.791 134.289 217.851 134.035 217.851 133.745Z" fill="black"/>
<rect width="38.6683" height="38.6683" transform="translate(232.362 116.086)" fill="black" fill-opacity="0.38"/>
<path d="M249.18 131.479V139.984H248.105V132.821L245.938 133.611V132.641L249.012 131.479H249.18ZM253.528 139.084H253.639C254.258 139.084 254.762 138.997 255.149 138.822C255.537 138.648 255.835 138.414 256.044 138.12C256.253 137.825 256.396 137.494 256.474 137.126C256.551 136.754 256.59 136.373 256.59 135.982V134.686C256.59 134.303 256.545 133.962 256.456 133.664C256.371 133.365 256.251 133.116 256.096 132.914C255.945 132.713 255.773 132.56 255.579 132.455C255.385 132.351 255.18 132.298 254.963 132.298C254.715 132.298 254.493 132.349 254.295 132.449C254.102 132.546 253.937 132.684 253.801 132.862C253.67 133.04 253.569 133.249 253.499 133.489C253.43 133.729 253.395 133.991 253.395 134.274C253.395 134.525 253.426 134.769 253.488 135.006C253.55 135.242 253.645 135.455 253.772 135.645C253.9 135.834 254.059 135.985 254.249 136.098C254.442 136.206 254.669 136.26 254.928 136.26C255.169 136.26 255.393 136.214 255.602 136.121C255.815 136.024 256.003 135.894 256.166 135.732C256.332 135.565 256.464 135.377 256.561 135.168C256.662 134.959 256.72 134.74 256.735 134.512H257.246C257.246 134.833 257.183 135.151 257.055 135.465C256.931 135.774 256.757 136.057 256.532 136.313C256.307 136.568 256.044 136.774 255.742 136.929C255.44 137.08 255.11 137.155 254.754 137.155C254.336 137.155 253.974 137.074 253.668 136.911C253.362 136.748 253.11 136.532 252.913 136.26C252.719 135.989 252.574 135.687 252.477 135.354C252.384 135.017 252.337 134.676 252.337 134.332C252.337 133.929 252.394 133.551 252.506 133.199C252.618 132.846 252.785 132.537 253.005 132.269C253.226 131.998 253.499 131.787 253.825 131.636C254.154 131.485 254.533 131.409 254.963 131.409C255.447 131.409 255.86 131.506 256.201 131.7C256.542 131.894 256.818 132.153 257.032 132.478C257.248 132.804 257.407 133.17 257.508 133.576C257.609 133.983 257.659 134.401 257.659 134.831V135.221C257.659 135.658 257.63 136.104 257.572 136.557C257.518 137.006 257.411 137.436 257.252 137.846C257.097 138.257 256.871 138.625 256.573 138.95C256.274 139.272 255.885 139.527 255.405 139.717C254.928 139.903 254.34 139.996 253.639 139.996H253.528V139.084Z" fill="black"/>
<rect width="38.6683" height="38.6683" transform="translate(0.352539 154.755)" fill="black" fill-opacity="0.38"/>
<path d="M19.1794 177.77V178.653H13.6429V177.88L16.414 174.795C16.7549 174.416 17.0182 174.094 17.2041 173.831C17.3939 173.564 17.5256 173.325 17.5992 173.116C17.6767 172.903 17.7154 172.686 17.7154 172.466C17.7154 172.187 17.6573 171.935 17.5411 171.71C17.4288 171.482 17.2622 171.3 17.0415 171.164C16.8207 171.029 16.5535 170.961 16.2398 170.961C15.8641 170.961 15.5504 171.035 15.2986 171.182C15.0507 171.325 14.8648 171.526 14.7409 171.786C14.617 172.045 14.555 172.344 14.555 172.681H13.4802C13.4802 172.204 13.5848 171.769 13.7939 171.373C14.0031 170.978 14.3129 170.665 14.7235 170.432C15.134 170.196 15.6394 170.078 16.2398 170.078C16.7742 170.078 17.2313 170.173 17.6108 170.363C17.9904 170.549 18.2808 170.812 18.4822 171.153C18.6875 171.49 18.7901 171.885 18.7901 172.338C18.7901 172.586 18.7475 172.837 18.6623 173.093C18.581 173.345 18.4668 173.597 18.3196 173.848C18.1763 174.1 18.0078 174.348 17.8141 174.592C17.6244 174.836 17.421 175.076 17.2041 175.312L14.9384 177.77H19.1794ZM25.7586 173.75V175.039C25.7586 175.733 25.6966 176.317 25.5727 176.794C25.4487 177.27 25.2706 177.654 25.0382 177.944C24.8058 178.235 24.525 178.446 24.1958 178.577C23.8705 178.705 23.5025 178.769 23.092 178.769C22.7667 178.769 22.4665 178.728 22.1915 178.647C21.9165 178.566 21.6687 178.436 21.4479 178.258C21.231 178.076 21.0451 177.839 20.8902 177.549C20.7353 177.259 20.6171 176.906 20.5358 176.492C20.4545 176.077 20.4138 175.593 20.4138 175.039V173.75C20.4138 173.056 20.4758 172.475 20.5997 172.007C20.7275 171.538 20.9076 171.162 21.14 170.88C21.3724 170.593 21.6512 170.388 21.9766 170.264C22.3058 170.14 22.6737 170.078 23.0804 170.078C23.4096 170.078 23.7117 170.119 23.9867 170.2C24.2655 170.277 24.5134 170.403 24.7303 170.578C24.9472 170.748 25.1311 170.976 25.2822 171.263C25.4371 171.546 25.5552 171.892 25.6366 172.303C25.7179 172.714 25.7586 173.196 25.7586 173.75ZM24.678 175.214V173.569C24.678 173.19 24.6548 172.857 24.6083 172.57C24.5657 172.28 24.5018 172.032 24.4166 171.827C24.3314 171.621 24.2229 171.455 24.0912 171.327C23.9634 171.199 23.8143 171.106 23.6439 171.048C23.4774 170.986 23.2895 170.955 23.0804 170.955C22.8248 170.955 22.5982 171.004 22.4007 171.1C22.2031 171.193 22.0366 171.342 21.901 171.548C21.7694 171.753 21.6687 172.022 21.5989 172.355C21.5292 172.688 21.4944 173.093 21.4944 173.569V175.214C21.4944 175.593 21.5157 175.928 21.5583 176.219C21.6048 176.509 21.6725 176.761 21.7616 176.974C21.8507 177.183 21.9591 177.355 22.0869 177.491C22.2148 177.626 22.3619 177.727 22.5285 177.793C22.6989 177.855 22.8867 177.886 23.092 177.886C23.3554 177.886 23.5858 177.836 23.7833 177.735C23.9809 177.634 24.1455 177.477 24.2771 177.264C24.4127 177.047 24.5134 176.771 24.5792 176.434C24.6451 176.093 24.678 175.686 24.678 175.214Z" fill="black"/>
<rect width="38.6683" height="38.6683" transform="translate(39.0205 154.755)" fill="black" fill-opacity="0.05"/>
<path d="M57.8474 177.77V178.653H52.3109V177.88L55.082 174.795C55.4228 174.416 55.6862 174.094 55.8721 173.831C56.0619 173.564 56.1936 173.325 56.2672 173.116C56.3446 172.903 56.3834 172.686 56.3834 172.466C56.3834 172.187 56.3253 171.935 56.2091 171.71C56.0967 171.482 55.9302 171.3 55.7094 171.164C55.4887 171.029 55.2214 170.961 54.9077 170.961C54.532 170.961 54.2183 171.035 53.9666 171.182C53.7187 171.325 53.5328 171.526 53.4089 171.786C53.2849 172.045 53.223 172.344 53.223 172.681H52.1482C52.1482 172.204 52.2528 171.769 52.4619 171.373C52.6711 170.978 52.9809 170.665 53.3914 170.432C53.802 170.196 54.3074 170.078 54.9077 170.078C55.4422 170.078 55.8992 170.173 56.2788 170.363C56.6583 170.549 56.9488 170.812 57.1502 171.153C57.3555 171.49 57.4581 171.885 57.4581 172.338C57.4581 172.586 57.4155 172.837 57.3303 173.093C57.249 173.345 57.1347 173.597 56.9875 173.848C56.8442 174.1 56.6758 174.348 56.4821 174.592C56.2923 174.836 56.089 175.076 55.8721 175.312L53.6064 177.77H57.8474ZM62.6488 170.148V178.653H61.5741V171.49L59.4071 172.28V171.31L62.4804 170.148H62.6488Z" fill="black"/>
<rect width="38.6683" height="38.6683" transform="translate(77.6895 154.755)" fill="black" fill-opacity="0.05"/>
<path d="M96.5163 177.77V178.653H90.9798V177.88L93.751 174.795C94.0918 174.416 94.3552 174.094 94.5411 173.831C94.7308 173.564 94.8625 173.325 94.9361 173.116C95.0136 172.903 95.0523 172.686 95.0523 172.466C95.0523 172.187 94.9942 171.935 94.878 171.71C94.7657 171.482 94.5992 171.3 94.3784 171.164C94.1576 171.029 93.8904 170.961 93.5767 170.961C93.201 170.961 92.8873 171.035 92.6355 171.182C92.3877 171.325 92.2018 171.526 92.0778 171.786C91.9539 172.045 91.8919 172.344 91.8919 172.681H90.8171C90.8171 172.204 90.9217 171.769 91.1309 171.373C91.34 170.978 91.6498 170.665 92.0604 170.432C92.4709 170.196 92.9764 170.078 93.5767 170.078C94.1112 170.078 94.5682 170.173 94.9477 170.363C95.3273 170.549 95.6178 170.812 95.8192 171.153C96.0244 171.49 96.1271 171.885 96.1271 172.338C96.1271 172.586 96.0845 172.837 95.9993 173.093C95.9179 173.345 95.8037 173.597 95.6565 173.848C95.5132 174.1 95.3447 174.348 95.1511 174.592C94.9613 174.836 94.7579 175.076 94.5411 175.312L92.2753 177.77H96.5163ZM103.328 177.77V178.653H97.7914V177.88L100.563 174.795C100.903 174.416 101.167 174.094 101.353 173.831C101.542 173.564 101.674 173.325 101.748 173.116C101.825 172.903 101.864 172.686 101.864 172.466C101.864 172.187 101.806 171.935 101.69 171.71C101.577 171.482 101.411 171.3 101.19 171.164C100.969 171.029 100.702 170.961 100.388 170.961C100.013 170.961 99.6988 171.035 99.4471 171.182C99.1992 171.325 99.0133 171.526 98.8894 171.786C98.7654 172.045 98.7035 172.344 98.7035 172.681H97.6287C97.6287 172.204 97.7333 171.769 97.9424 171.373C98.1516 170.978 98.4614 170.665 98.872 170.432C99.2825 170.196 99.7879 170.078 100.388 170.078C100.923 170.078 101.38 170.173 101.759 170.363C102.139 170.549 102.429 170.812 102.631 171.153C102.836 171.49 102.939 171.885 102.939 172.338C102.939 172.586 102.896 172.837 102.811 173.093C102.729 173.345 102.615 173.597 102.468 173.848C102.325 174.1 102.156 174.348 101.963 174.592C101.773 174.836 101.57 175.076 101.353 175.312L99.0869 177.77H103.328Z" fill="black"/>
<rect width="38.6683" height="38.6683" transform="translate(116.357 154.755)" fill="black" fill-opacity="0.05"/>
<path d="M135.185 177.77V178.653H129.649V177.88L132.42 174.795C132.761 174.416 133.024 174.094 133.21 173.831C133.4 173.564 133.531 173.325 133.605 173.116C133.683 172.903 133.721 172.686 133.721 172.466C133.721 172.187 133.663 171.935 133.547 171.71C133.435 171.482 133.268 171.3 133.047 171.164C132.827 171.029 132.559 170.961 132.246 170.961C131.87 170.961 131.556 171.035 131.304 171.182C131.057 171.325 130.871 171.526 130.747 171.786C130.623 172.045 130.561 172.344 130.561 172.681H129.486C129.486 172.204 129.591 171.769 129.8 171.373C130.009 170.978 130.319 170.665 130.729 170.432C131.14 170.196 131.645 170.078 132.246 170.078C132.78 170.078 133.237 170.173 133.617 170.363C133.996 170.549 134.287 170.812 134.488 171.153C134.693 171.49 134.796 171.885 134.796 172.338C134.796 172.586 134.753 172.837 134.668 173.093C134.587 173.345 134.473 173.597 134.325 173.848C134.182 174.1 134.014 174.348 133.82 174.592C133.63 174.836 133.427 175.076 133.21 175.312L130.944 177.77H135.185ZM138.023 173.895H138.79C139.166 173.895 139.475 173.833 139.719 173.709C139.967 173.581 140.151 173.409 140.271 173.192C140.395 172.971 140.457 172.723 140.457 172.448C140.457 172.123 140.403 171.85 140.295 171.629C140.186 171.408 140.024 171.242 139.807 171.129C139.59 171.017 139.315 170.961 138.982 170.961C138.68 170.961 138.412 171.021 138.18 171.141C137.951 171.257 137.771 171.424 137.64 171.641C137.512 171.858 137.448 172.113 137.448 172.408H136.373C136.373 171.978 136.482 171.586 136.699 171.234C136.915 170.882 137.219 170.601 137.611 170.392C138.006 170.183 138.463 170.078 138.982 170.078C139.493 170.078 139.94 170.169 140.324 170.351C140.707 170.529 141.005 170.796 141.218 171.153C141.431 171.505 141.538 171.945 141.538 172.471C141.538 172.684 141.488 172.913 141.387 173.157C141.29 173.397 141.137 173.622 140.928 173.831C140.723 174.04 140.455 174.212 140.126 174.348C139.797 174.48 139.402 174.545 138.941 174.545H138.023V173.895ZM138.023 174.778V174.133H138.941C139.479 174.133 139.925 174.197 140.277 174.325C140.63 174.453 140.907 174.623 141.108 174.836C141.313 175.049 141.457 175.283 141.538 175.539C141.623 175.791 141.666 176.042 141.666 176.294C141.666 176.689 141.598 177.04 141.462 177.346C141.331 177.652 141.143 177.911 140.899 178.124C140.659 178.337 140.376 178.498 140.051 178.606C139.725 178.715 139.371 178.769 138.987 178.769C138.62 178.769 138.273 178.717 137.948 178.612C137.626 178.508 137.341 178.357 137.094 178.159C136.846 177.958 136.652 177.712 136.513 177.421C136.373 177.127 136.303 176.792 136.303 176.416H137.378C137.378 176.711 137.442 176.968 137.57 177.189C137.702 177.41 137.888 177.582 138.128 177.706C138.372 177.826 138.658 177.886 138.987 177.886C139.317 177.886 139.599 177.83 139.836 177.717C140.076 177.601 140.26 177.427 140.388 177.195C140.519 176.962 140.585 176.67 140.585 176.317C140.585 175.965 140.512 175.676 140.364 175.452C140.217 175.223 140.008 175.055 139.737 174.946C139.47 174.834 139.154 174.778 138.79 174.778H138.023Z" fill="black"/>
<rect width="38.6683" height="38.6683" transform="translate(155.025 154.755)" fill="black" fill-opacity="0.05"/>
<path d="M173.852 177.77V178.653H168.316V177.88L171.087 174.795C171.428 174.416 171.691 174.094 171.877 173.831C172.067 173.564 172.198 173.325 172.272 173.116C172.35 172.903 172.388 172.686 172.388 172.466C172.388 172.187 172.33 171.935 172.214 171.71C172.102 171.482 171.935 171.3 171.714 171.164C171.494 171.029 171.226 170.961 170.913 170.961C170.537 170.961 170.223 171.035 169.971 171.182C169.724 171.325 169.538 171.526 169.414 171.786C169.29 172.045 169.228 172.344 169.228 172.681H168.153C168.153 172.204 168.258 171.769 168.467 171.373C168.676 170.978 168.986 170.665 169.396 170.432C169.807 170.196 170.312 170.078 170.913 170.078C171.447 170.078 171.904 170.173 172.284 170.363C172.663 170.549 172.954 170.812 173.155 171.153C173.36 171.49 173.463 171.885 173.463 172.338C173.463 172.586 173.42 172.837 173.335 173.093C173.254 173.345 173.14 173.597 172.992 173.848C172.849 174.1 172.681 174.348 172.487 174.592C172.297 174.836 172.094 175.076 171.877 175.312L169.611 177.77H173.852ZM180.838 175.806V176.689H174.726V176.056L178.514 170.194H179.392L178.45 171.891L175.946 175.806H180.838ZM179.659 170.194V178.653H178.584V170.194H179.659Z" fill="black"/>
<rect width="38.6683" height="38.6683" transform="translate(193.694 154.755)" fill="black" fill-opacity="0.05"/>
<path d="M212.521 177.77V178.653H206.985V177.88L209.756 174.795C210.097 174.416 210.36 174.094 210.546 173.831C210.736 173.564 210.867 173.325 210.941 173.116C211.018 172.903 211.057 172.686 211.057 172.466C211.057 172.187 210.999 171.935 210.883 171.71C210.771 171.482 210.604 171.3 210.383 171.164C210.163 171.029 209.895 170.961 209.582 170.961C209.206 170.961 208.892 171.035 208.64 171.182C208.393 171.325 208.207 171.526 208.083 171.786C207.959 172.045 207.897 172.344 207.897 172.681H206.822C206.822 172.204 206.927 171.769 207.136 171.373C207.345 170.978 207.655 170.665 208.065 170.432C208.476 170.196 208.981 170.078 209.582 170.078C210.116 170.078 210.573 170.173 210.953 170.363C211.332 170.549 211.623 170.812 211.824 171.153C212.029 171.49 212.132 171.885 212.132 172.338C212.132 172.586 212.089 172.837 212.004 173.093C211.923 173.345 211.809 173.597 211.661 173.848C211.518 174.1 211.35 174.348 211.156 174.592C210.966 174.836 210.763 175.076 210.546 175.312L208.28 177.77H212.521ZM215.15 174.627L214.29 174.406L214.714 170.194H219.054V171.188H215.626L215.371 173.488C215.526 173.399 215.721 173.316 215.957 173.238C216.198 173.161 216.473 173.122 216.782 173.122C217.174 173.122 217.524 173.19 217.834 173.325C218.144 173.457 218.407 173.647 218.624 173.895C218.845 174.143 219.013 174.441 219.129 174.789C219.246 175.138 219.304 175.527 219.304 175.957C219.304 176.364 219.248 176.738 219.135 177.078C219.027 177.419 218.862 177.717 218.641 177.973C218.421 178.225 218.142 178.42 217.805 178.56C217.472 178.699 217.079 178.769 216.626 178.769C216.285 178.769 215.961 178.723 215.655 178.63C215.353 178.533 215.082 178.388 214.842 178.194C214.606 177.996 214.412 177.752 214.261 177.462C214.114 177.168 214.021 176.823 213.982 176.428H215.005C215.051 176.745 215.144 177.013 215.284 177.229C215.423 177.446 215.605 177.611 215.83 177.723C216.058 177.832 216.323 177.886 216.626 177.886C216.881 177.886 217.108 177.841 217.305 177.752C217.503 177.663 217.669 177.535 217.805 177.369C217.94 177.202 218.043 177.001 218.113 176.765C218.186 176.528 218.223 176.263 218.223 175.969C218.223 175.702 218.186 175.454 218.113 175.225C218.039 174.997 217.929 174.797 217.782 174.627C217.638 174.456 217.462 174.325 217.253 174.232C217.044 174.135 216.804 174.087 216.533 174.087C216.172 174.087 215.899 174.135 215.713 174.232C215.531 174.329 215.344 174.46 215.15 174.627Z" fill="black"/>
<rect width="38.6683" height="38.6683" transform="translate(232.362 154.755)" fill="black" fill-opacity="0.38"/>
<path d="M251.19 177.77V178.653H245.654V177.88L248.425 174.795C248.766 174.416 249.029 174.094 249.215 173.831C249.405 173.564 249.536 173.325 249.61 173.116C249.687 172.903 249.726 172.686 249.726 172.466C249.726 172.187 249.668 171.935 249.552 171.71C249.44 171.482 249.273 171.3 249.052 171.164C248.831 171.029 248.564 170.961 248.251 170.961C247.875 170.961 247.561 171.035 247.309 171.182C247.061 171.325 246.876 171.526 246.752 171.786C246.628 172.045 246.566 172.344 246.566 172.681H245.491C245.491 172.204 245.596 171.769 245.805 171.373C246.014 170.978 246.324 170.665 246.734 170.432C247.145 170.196 247.65 170.078 248.251 170.078C248.785 170.078 249.242 170.173 249.622 170.363C250.001 170.549 250.292 170.812 250.493 171.153C250.698 171.49 250.801 171.885 250.801 172.338C250.801 172.586 250.758 172.837 250.673 173.093C250.592 173.345 250.477 173.597 250.33 173.848C250.187 174.1 250.019 174.348 249.825 174.592C249.635 174.836 249.432 175.076 249.215 175.312L246.949 177.77H251.19ZM256.584 170.183H256.677V171.095H256.584C256.015 171.095 255.538 171.188 255.155 171.373C254.772 171.556 254.468 171.801 254.243 172.111C254.018 172.417 253.856 172.762 253.755 173.145C253.658 173.529 253.61 173.918 253.61 174.313V175.556C253.61 175.932 253.654 176.265 253.743 176.556C253.832 176.842 253.954 177.084 254.109 177.282C254.264 177.479 254.439 177.628 254.632 177.729C254.83 177.83 255.035 177.88 255.248 177.88C255.496 177.88 255.717 177.834 255.91 177.741C256.104 177.644 256.267 177.51 256.398 177.34C256.534 177.166 256.636 176.96 256.706 176.724C256.776 176.488 256.811 176.228 256.811 175.946C256.811 175.694 256.78 175.452 256.718 175.219C256.656 174.983 256.561 174.774 256.433 174.592C256.305 174.406 256.145 174.261 255.951 174.156C255.761 174.048 255.535 173.994 255.271 173.994C254.973 173.994 254.694 174.067 254.435 174.214C254.179 174.358 253.968 174.547 253.801 174.784C253.639 175.016 253.546 175.27 253.523 175.545L252.953 175.539C253.007 175.105 253.108 174.735 253.255 174.429C253.406 174.119 253.592 173.868 253.813 173.674C254.038 173.477 254.287 173.333 254.562 173.244C254.841 173.151 255.136 173.105 255.446 173.105C255.868 173.105 256.232 173.184 256.538 173.343C256.844 173.502 257.095 173.715 257.293 173.982C257.49 174.245 257.636 174.544 257.729 174.877C257.825 175.206 257.874 175.545 257.874 175.893C257.874 176.292 257.818 176.666 257.705 177.015C257.593 177.363 257.425 177.669 257.2 177.932C256.979 178.196 256.706 178.401 256.381 178.548C256.056 178.695 255.678 178.769 255.248 178.769C254.791 178.769 254.392 178.676 254.051 178.49C253.71 178.3 253.428 178.049 253.203 177.735C252.978 177.421 252.81 177.073 252.698 176.689C252.585 176.306 252.529 175.917 252.529 175.521V175.016C252.529 174.42 252.589 173.835 252.709 173.262C252.829 172.688 253.036 172.169 253.331 171.705C253.629 171.24 254.042 170.87 254.568 170.595C255.095 170.32 255.767 170.183 256.584 170.183Z" fill="black"/>
<rect width="38.6683" height="38.6683" transform="translate(0.352539 193.423)" fill="black" fill-opacity="0.38"/>
<path d="M19.1794 216.438V217.321H13.6429V216.548L16.414 213.464C16.7549 213.084 17.0182 212.762 17.2041 212.499C17.3939 212.232 17.5256 211.994 17.5992 211.785C17.6767 211.572 17.7154 211.355 17.7154 211.134C17.7154 210.855 17.6573 210.603 17.5411 210.379C17.4288 210.15 17.2622 209.968 17.0415 209.833C16.8207 209.697 16.5535 209.629 16.2398 209.629C15.8641 209.629 15.5504 209.703 15.2986 209.85C15.0507 209.993 14.8648 210.195 14.7409 210.454C14.617 210.714 14.555 211.012 14.555 211.349H13.4802C13.4802 210.872 13.5848 210.437 13.7939 210.042C14.0031 209.647 14.3129 209.333 14.7235 209.101C15.134 208.864 15.6394 208.746 16.2398 208.746C16.7742 208.746 17.2313 208.841 17.6108 209.031C17.9904 209.217 18.2808 209.48 18.4822 209.821C18.6875 210.158 18.7901 210.553 18.7901 211.006C18.7901 211.254 18.7475 211.506 18.6623 211.761C18.581 212.013 18.4668 212.265 18.3196 212.517C18.1763 212.768 18.0078 213.016 17.8141 213.26C17.6244 213.504 17.421 213.744 17.2041 213.981L14.9384 216.438H19.1794ZM25.9154 208.862V209.467L22.4123 217.321H21.2794L24.7768 209.745H20.1988V208.862H25.9154Z" fill="black"/>
<rect width="38.6683" height="38.6683" transform="translate(39.0205 193.423)" fill="black" fill-opacity="0.05"/>
<path d="M57.8474 216.438V217.321H52.3109V216.548L55.082 213.464C55.4228 213.084 55.6862 212.762 55.8721 212.499C56.0619 212.232 56.1936 211.994 56.2672 211.785C56.3446 211.572 56.3834 211.355 56.3834 211.134C56.3834 210.855 56.3253 210.603 56.2091 210.379C56.0967 210.15 55.9302 209.968 55.7094 209.833C55.4887 209.697 55.2214 209.629 54.9077 209.629C54.532 209.629 54.2183 209.703 53.9666 209.85C53.7187 209.993 53.5328 210.195 53.4089 210.454C53.2849 210.714 53.223 211.012 53.223 211.349H52.1482C52.1482 210.872 52.2528 210.437 52.4619 210.042C52.6711 209.647 52.9809 209.333 53.3914 209.101C53.802 208.864 54.3074 208.746 54.9077 208.746C55.4422 208.746 55.8992 208.841 56.2788 209.031C56.6583 209.217 56.9488 209.48 57.1502 209.821C57.3555 210.158 57.4581 210.553 57.4581 211.006C57.4581 211.254 57.4155 211.506 57.3303 211.761C57.249 212.013 57.1347 212.265 56.9875 212.517C56.8442 212.768 56.6758 213.016 56.4821 213.26C56.2923 213.504 56.089 213.744 55.8721 213.981L53.6064 216.438H57.8474ZM64.4498 215.032C64.4498 215.547 64.3297 215.985 64.0896 216.345C63.8533 216.701 63.5319 216.972 63.1252 217.158C62.7224 217.344 62.2673 217.437 61.76 217.437C61.2526 217.437 60.7956 217.344 60.3889 217.158C59.9822 216.972 59.6608 216.701 59.4245 216.345C59.1883 215.985 59.0702 215.547 59.0702 215.032C59.0702 214.695 59.1341 214.387 59.2619 214.108C59.3935 213.826 59.5775 213.58 59.8138 213.371C60.0539 213.161 60.3366 213.001 60.662 212.888C60.9912 212.772 61.3533 212.714 61.7483 212.714C62.2673 212.714 62.7302 212.815 63.1368 213.016C63.5435 213.214 63.863 213.487 64.0954 213.835C64.3317 214.184 64.4498 214.583 64.4498 215.032ZM63.3692 215.009C63.3692 214.695 63.3014 214.418 63.1659 214.178C63.0303 213.934 62.8405 213.744 62.5965 213.609C62.3525 213.473 62.0698 213.405 61.7483 213.405C61.4191 213.405 61.1345 213.473 60.8943 213.609C60.6581 213.744 60.4741 213.934 60.3424 214.178C60.2108 214.418 60.1449 214.695 60.1449 215.009C60.1449 215.334 60.2088 215.613 60.3366 215.845C60.4683 216.074 60.6542 216.25 60.8943 216.374C61.1383 216.494 61.4269 216.554 61.76 216.554C62.093 216.554 62.3797 216.494 62.6198 216.374C62.8599 216.25 63.0439 216.074 63.1717 215.845C63.3034 215.613 63.3692 215.334 63.3692 215.009ZM64.2523 211.064C64.2523 211.475 64.1438 211.845 63.9269 212.174C63.71 212.503 63.4138 212.762 63.0381 212.952C62.6624 213.142 62.2364 213.237 61.76 213.237C61.2758 213.237 60.844 213.142 60.4644 212.952C60.0888 212.762 59.7944 212.503 59.5814 212.174C59.3684 211.845 59.2619 211.475 59.2619 211.064C59.2619 210.572 59.3684 210.154 59.5814 209.809C59.7983 209.465 60.0946 209.201 60.4702 209.019C60.8459 208.837 61.2739 208.746 61.7542 208.746C62.2383 208.746 62.6682 208.837 63.0439 209.019C63.4196 209.201 63.7139 209.465 63.9269 209.809C64.1438 210.154 64.2523 210.572 64.2523 211.064ZM63.1775 211.082C63.1775 210.799 63.1175 210.549 62.9974 210.332C62.8773 210.115 62.7108 209.945 62.4978 209.821C62.2848 209.693 62.0369 209.629 61.7542 209.629C61.4714 209.629 61.2236 209.689 61.0105 209.809C60.8014 209.925 60.6368 210.092 60.5167 210.309C60.4005 210.526 60.3424 210.783 60.3424 211.082C60.3424 211.372 60.4005 211.626 60.5167 211.843C60.6368 212.06 60.8033 212.228 61.0163 212.348C61.2294 212.468 61.4772 212.528 61.76 212.528C62.0427 212.528 62.2886 212.468 62.4978 212.348C62.7108 212.228 62.8773 212.06 62.9974 211.843C63.1175 211.626 63.1775 211.372 63.1775 211.082Z" fill="black"/>
<rect width="38.6683" height="38.6683" transform="translate(77.6895 193.423)" fill="black" fill-opacity="0.05"/>
<path d="M96.5163 216.438V217.321H90.9798V216.548L93.751 213.464C94.0918 213.084 94.3552 212.762 94.5411 212.499C94.7308 212.232 94.8625 211.994 94.9361 211.785C95.0136 211.572 95.0523 211.355 95.0523 211.134C95.0523 210.855 94.9942 210.603 94.878 210.379C94.7657 210.15 94.5992 209.968 94.3784 209.833C94.1576 209.697 93.8904 209.629 93.5767 209.629C93.201 209.629 92.8873 209.703 92.6355 209.85C92.3877 209.993 92.2018 210.195 92.0778 210.454C91.9539 210.714 91.8919 211.012 91.8919 211.349H90.8171C90.8171 210.872 90.9217 210.437 91.1309 210.042C91.34 209.647 91.6498 209.333 92.0604 209.101C92.4709 208.864 92.9764 208.746 93.5767 208.746C94.1112 208.746 94.5682 208.841 94.9477 209.031C95.3273 209.217 95.6178 209.48 95.8192 209.821C96.0244 210.158 96.1271 210.553 96.1271 211.006C96.1271 211.254 96.0845 211.506 95.9993 211.761C95.9179 212.013 95.8037 212.265 95.6565 212.517C95.5132 212.768 95.3447 213.016 95.1511 213.26C94.9613 213.504 94.7579 213.744 94.5411 213.981L92.2753 216.438H96.5163ZM98.8545 216.421H98.9649C99.5846 216.421 100.088 216.333 100.475 216.159C100.863 215.985 101.161 215.751 101.37 215.456C101.579 215.162 101.723 214.831 101.8 214.463C101.877 214.091 101.916 213.709 101.916 213.318V212.023C101.916 211.639 101.872 211.298 101.783 211C101.697 210.702 101.577 210.452 101.422 210.251C101.271 210.049 101.099 209.896 100.905 209.792C100.712 209.687 100.506 209.635 100.289 209.635C100.042 209.635 99.8189 209.685 99.6214 209.786C99.4277 209.883 99.2631 210.02 99.1276 210.199C98.9959 210.377 98.8952 210.586 98.8255 210.826C98.7558 211.066 98.7209 211.328 98.7209 211.61C98.7209 211.862 98.7519 212.106 98.8139 212.342C98.8758 212.579 98.9707 212.792 99.0985 212.981C99.2263 213.171 99.3851 213.322 99.5749 213.434C99.7686 213.543 99.9951 213.597 100.255 213.597C100.495 213.597 100.719 213.551 100.929 213.458C101.142 213.361 101.329 213.231 101.492 213.068C101.659 212.902 101.79 212.714 101.887 212.505C101.988 212.296 102.046 212.077 102.061 211.848H102.573C102.573 212.17 102.509 212.488 102.381 212.801C102.257 213.111 102.083 213.394 101.858 213.649C101.633 213.905 101.37 214.11 101.068 214.265C100.766 214.416 100.437 214.492 100.08 214.492C99.6621 214.492 99.2999 214.41 98.994 214.248C98.688 214.085 98.4362 213.868 98.2387 213.597C98.0451 213.326 97.8998 213.024 97.803 212.691C97.71 212.354 97.6636 212.013 97.6636 211.668C97.6636 211.266 97.7197 210.888 97.832 210.536C97.9444 210.183 98.1109 209.873 98.3317 209.606C98.5524 209.335 98.8255 209.124 99.1508 208.973C99.48 208.822 99.8596 208.746 100.289 208.746C100.774 208.746 101.186 208.843 101.527 209.037C101.868 209.23 102.145 209.49 102.358 209.815C102.575 210.14 102.733 210.506 102.834 210.913C102.935 211.32 102.985 211.738 102.985 212.168V212.557C102.985 212.995 102.956 213.44 102.898 213.893C102.844 214.343 102.737 214.773 102.578 215.183C102.424 215.594 102.197 215.962 101.899 216.287C101.601 216.608 101.211 216.864 100.731 217.054C100.255 217.24 99.6659 217.333 98.9649 217.333H98.8545V216.421Z" fill="black"/>
<rect width="38.6683" height="38.6683" transform="translate(116.357 193.423)" fill="black" fill-opacity="0.05"/>
<path d="M131.212 212.563H131.978C132.354 212.563 132.664 212.501 132.908 212.377C133.156 212.249 133.34 212.077 133.46 211.86C133.584 211.639 133.646 211.391 133.646 211.116C133.646 210.791 133.591 210.518 133.483 210.297C133.375 210.077 133.212 209.91 132.995 209.798C132.778 209.685 132.503 209.629 132.17 209.629C131.868 209.629 131.601 209.689 131.368 209.809C131.14 209.925 130.96 210.092 130.828 210.309C130.7 210.526 130.636 210.781 130.636 211.076H129.562C129.562 210.646 129.67 210.255 129.887 209.902C130.104 209.55 130.408 209.269 130.799 209.06C131.194 208.851 131.651 208.746 132.17 208.746C132.681 208.746 133.129 208.837 133.512 209.019C133.896 209.197 134.194 209.465 134.407 209.821C134.62 210.173 134.726 210.613 134.726 211.14C134.726 211.353 134.676 211.581 134.575 211.825C134.478 212.065 134.325 212.29 134.116 212.499C133.911 212.708 133.644 212.881 133.315 213.016C132.985 213.148 132.59 213.214 132.129 213.214H131.212V212.563ZM131.212 213.446V212.801H132.129C132.668 212.801 133.113 212.865 133.466 212.993C133.818 213.121 134.095 213.291 134.296 213.504C134.502 213.717 134.645 213.952 134.726 214.207C134.812 214.459 134.854 214.711 134.854 214.962C134.854 215.357 134.786 215.708 134.651 216.014C134.519 216.32 134.331 216.579 134.087 216.792C133.847 217.005 133.564 217.166 133.239 217.275C132.914 217.383 132.559 217.437 132.176 217.437C131.808 217.437 131.461 217.385 131.136 217.28C130.815 217.176 130.53 217.025 130.282 216.827C130.034 216.626 129.84 216.38 129.701 216.089C129.562 215.795 129.492 215.46 129.492 215.084H130.567C130.567 215.379 130.631 215.636 130.758 215.857C130.89 216.078 131.076 216.25 131.316 216.374C131.56 216.494 131.847 216.554 132.176 216.554C132.505 216.554 132.788 216.498 133.024 216.386C133.264 216.27 133.448 216.095 133.576 215.863C133.708 215.63 133.774 215.338 133.774 214.986C133.774 214.633 133.7 214.345 133.553 214.12C133.406 213.891 133.196 213.723 132.925 213.615C132.658 213.502 132.342 213.446 131.978 213.446H131.212ZM141.764 212.418V213.708C141.764 214.401 141.702 214.986 141.579 215.462C141.455 215.938 141.276 216.322 141.044 216.612C140.812 216.903 140.531 217.114 140.202 217.246C139.876 217.373 139.508 217.437 139.098 217.437C138.773 217.437 138.472 217.397 138.197 217.315C137.922 217.234 137.675 217.104 137.454 216.926C137.237 216.744 137.051 216.508 136.896 216.217C136.741 215.927 136.623 215.574 136.542 215.16C136.46 214.745 136.42 214.261 136.42 213.708V212.418C136.42 211.725 136.482 211.144 136.606 210.675C136.733 210.206 136.913 209.831 137.146 209.548C137.378 209.261 137.657 209.056 137.982 208.932C138.312 208.808 138.68 208.746 139.086 208.746C139.415 208.746 139.718 208.787 139.993 208.868C140.271 208.946 140.519 209.071 140.736 209.246C140.953 209.416 141.137 209.645 141.288 209.931C141.443 210.214 141.561 210.561 141.642 210.971C141.724 211.382 141.764 211.864 141.764 212.418ZM140.684 213.882V212.238C140.684 211.858 140.661 211.525 140.614 211.238C140.572 210.948 140.508 210.7 140.422 210.495C140.337 210.29 140.229 210.123 140.097 209.995C139.969 209.867 139.82 209.774 139.65 209.716C139.483 209.654 139.295 209.623 139.086 209.623C138.831 209.623 138.604 209.672 138.407 209.769C138.209 209.862 138.042 210.011 137.907 210.216C137.775 210.421 137.675 210.69 137.605 211.024C137.535 211.357 137.5 211.761 137.5 212.238V213.882C137.5 214.261 137.522 214.596 137.564 214.887C137.611 215.177 137.678 215.429 137.767 215.642C137.857 215.851 137.965 216.024 138.093 216.159C138.221 216.295 138.368 216.395 138.534 216.461C138.705 216.523 138.893 216.554 139.098 216.554C139.361 216.554 139.592 216.504 139.789 216.403C139.987 216.302 140.151 216.146 140.283 215.933C140.419 215.716 140.519 215.439 140.585 215.102C140.651 214.761 140.684 214.354 140.684 213.882Z" fill="black"/>
<rect width="38.6683" height="38.6683" transform="translate(155.025 193.423)" fill="black" fill-opacity="0.05"/>
<path d="M169.879 212.563H170.645C171.021 212.563 171.331 212.501 171.575 212.377C171.823 212.249 172.007 212.077 172.127 211.86C172.251 211.639 172.313 211.391 172.313 211.116C172.313 210.791 172.258 210.518 172.15 210.297C172.042 210.077 171.879 209.91 171.662 209.798C171.445 209.685 171.17 209.629 170.837 209.629C170.535 209.629 170.268 209.689 170.035 209.809C169.807 209.925 169.627 210.092 169.495 210.309C169.367 210.526 169.303 210.781 169.303 211.076H168.229C168.229 210.646 168.337 210.255 168.554 209.902C168.771 209.55 169.075 209.269 169.466 209.06C169.861 208.851 170.318 208.746 170.837 208.746C171.348 208.746 171.796 208.837 172.179 209.019C172.563 209.197 172.861 209.465 173.074 209.821C173.287 210.173 173.393 210.613 173.393 211.14C173.393 211.353 173.343 211.581 173.242 211.825C173.145 212.065 172.992 212.29 172.783 212.499C172.578 212.708 172.311 212.881 171.982 213.016C171.652 213.148 171.257 213.214 170.796 213.214H169.879V212.563ZM169.879 213.446V212.801H170.796C171.335 212.801 171.78 212.865 172.133 212.993C172.485 213.121 172.762 213.291 172.963 213.504C173.169 213.717 173.312 213.952 173.393 214.207C173.478 214.459 173.521 214.711 173.521 214.962C173.521 215.357 173.453 215.708 173.318 216.014C173.186 216.32 172.998 216.579 172.754 216.792C172.514 217.005 172.231 217.166 171.906 217.275C171.581 217.383 171.226 217.437 170.843 217.437C170.475 217.437 170.128 217.385 169.803 217.28C169.482 217.176 169.197 217.025 168.949 216.827C168.701 216.626 168.507 216.38 168.368 216.089C168.229 215.795 168.159 215.46 168.159 215.084H169.234C169.234 215.379 169.298 215.636 169.425 215.857C169.557 216.078 169.743 216.25 169.983 216.374C170.227 216.494 170.514 216.554 170.843 216.554C171.172 216.554 171.455 216.498 171.691 216.386C171.931 216.27 172.115 216.095 172.243 215.863C172.375 215.63 172.441 215.338 172.441 214.986C172.441 214.633 172.367 214.345 172.22 214.12C172.073 213.891 171.863 213.723 171.592 213.615C171.325 213.502 171.009 213.446 170.645 213.446H169.879ZM178.654 208.816V217.321H177.579V210.158L175.412 210.948V209.978L178.485 208.816H178.654Z" fill="black"/>
</g>
<defs>
<clipPath id="clip0_932_3566">
<rect x="0.352539" y="0.081543" width="270.678" height="270.678" rx="11.8979" fill="white"/>
</clipPath>
</defs>
</svg>
