<svg width="272" height="272" viewBox="0 0 272 272" fill="none" xmlns="http://www.w3.org/2000/svg">
<g clip-path="url(#clip0_932_4214)">
<rect width="270.678" height="38.6683" transform="translate(0.352539 0.966309)" fill="black"/>
<path d="M19.1467 24.8643H17.3225L17.3341 23.6094H19.1467C19.6385 23.6094 20.051 23.501 20.3841 23.2841C20.7172 23.0633 20.9689 22.7476 21.1393 22.3371C21.3097 21.9227 21.395 21.4269 21.395 20.8499V20.4141C21.395 19.9688 21.3465 19.5756 21.2497 19.2348C21.1529 18.894 21.0096 18.6074 20.8198 18.375C20.6339 18.1426 20.4035 17.9664 20.1285 17.8463C19.8535 17.7263 19.5378 17.6662 19.1815 17.6662H17.2876V16.4056H19.1815C19.747 16.4056 20.2621 16.5005 20.7269 16.6902C21.1955 16.88 21.6002 17.1531 21.941 17.5094C22.2857 17.8618 22.5491 18.284 22.7311 18.7759C22.9171 19.2677 23.01 19.8177 23.01 20.4258V20.8499C23.01 21.4541 22.9171 22.004 22.7311 22.4998C22.5491 22.9916 22.2857 23.4138 21.941 23.7663C21.6002 24.1187 21.1936 24.3898 20.721 24.5796C20.2485 24.7694 19.7237 24.8643 19.1467 24.8643ZM18.2171 16.4056V24.8643H16.6195V16.4056H18.2171Z" fill="white"/>
<path d="M59.9583 22.6683C59.9583 22.5056 59.9332 22.3603 59.8828 22.2325C59.8363 22.1009 59.7492 21.9827 59.6214 21.8782C59.4975 21.7697 59.3212 21.6651 59.0927 21.5644C58.8681 21.4599 58.5776 21.3514 58.2213 21.2391C57.8262 21.1152 57.4583 20.9757 57.1175 20.8208C56.7767 20.6659 56.4765 20.4858 56.217 20.2805C55.9614 20.0753 55.7619 19.839 55.6186 19.5718C55.4753 19.3007 55.4037 18.9869 55.4037 18.6306C55.4037 18.282 55.4773 17.9645 55.6244 17.6779C55.7755 17.3913 55.9885 17.1453 56.2635 16.94C56.5385 16.7309 56.8619 16.5702 57.2337 16.4579C57.6094 16.3455 58.0238 16.2894 58.4769 16.2894C59.1043 16.2894 59.6466 16.4036 60.1036 16.6321C60.5645 16.8606 60.9208 17.1705 61.1725 17.5617C61.4243 17.9528 61.5502 18.3924 61.5502 18.8804H59.9583C59.9583 18.6171 59.9022 18.3847 59.7899 18.1833C59.6814 17.9819 59.5149 17.8231 59.2903 17.7069C59.0695 17.5907 58.7906 17.5326 58.4537 17.5326C58.1283 17.5326 57.8572 17.581 57.6403 17.6779C57.4273 17.7747 57.2666 17.9064 57.1582 18.0729C57.0536 18.2394 57.0013 18.4253 57.0013 18.6306C57.0013 18.7855 57.0381 18.925 57.1117 19.0489C57.1853 19.169 57.2956 19.2832 57.4428 19.3917C57.59 19.4962 57.772 19.595 57.9889 19.688C58.2097 19.777 58.4653 19.8661 58.7558 19.9552C59.2205 20.0946 59.6272 20.2495 59.9758 20.42C60.3282 20.5904 60.6206 20.784 60.853 21.0009C61.0893 21.2178 61.2655 21.4618 61.3817 21.7329C61.5018 22.004 61.5618 22.3119 61.5618 22.6566C61.5618 23.0207 61.4901 23.346 61.3468 23.6326C61.2035 23.9192 60.9983 24.1632 60.731 24.3646C60.4638 24.566 60.1423 24.719 59.7666 24.8236C59.3948 24.9282 58.9785 24.9804 58.5176 24.9804C58.107 24.9804 57.7004 24.9262 57.2976 24.8178C56.8987 24.7055 56.5365 24.5389 56.2112 24.3182C55.8859 24.0935 55.6264 23.8108 55.4327 23.47C55.2391 23.1253 55.1422 22.7225 55.1422 22.2616H56.7457C56.7457 22.5288 56.7883 22.7573 56.8735 22.9471C56.9626 23.133 57.0865 23.286 57.2453 23.4061C57.408 23.5223 57.5977 23.6075 57.8146 23.6617C58.0315 23.7159 58.2658 23.743 58.5176 23.743C58.8429 23.743 59.1102 23.6985 59.3193 23.6094C59.5323 23.5164 59.6911 23.3886 59.7957 23.226C59.9041 23.0633 59.9583 22.8774 59.9583 22.6683Z" fill="white"/>
<path d="M97.8023 16.4056V24.8643H96.2105V16.4056H97.8023ZM100.428 16.4056V17.6662H93.6137V16.4056H100.428Z" fill="white"/>
<path d="M136.935 23.6733L139.189 25.4626L138.167 26.3515L135.947 24.5738L136.935 23.6733ZM139.23 20.42V20.8557C139.23 21.4947 139.145 22.0699 138.974 22.5811C138.804 23.0885 138.56 23.5203 138.242 23.8766C137.929 24.233 137.555 24.506 137.121 24.6958C136.687 24.8856 136.207 24.9804 135.68 24.9804C135.157 24.9804 134.677 24.8856 134.239 24.6958C133.806 24.506 133.43 24.233 133.112 23.8766C132.795 23.5203 132.549 23.0885 132.375 22.5811C132.2 22.0699 132.113 21.4947 132.113 20.8557V20.42C132.113 19.777 132.198 19.2019 132.369 18.6945C132.543 18.1872 132.787 17.7553 133.101 17.399C133.418 17.0388 133.794 16.7638 134.228 16.574C134.665 16.3843 135.146 16.2894 135.669 16.2894C136.195 16.2894 136.676 16.3843 137.109 16.574C137.547 16.7638 137.923 17.0388 138.236 17.399C138.554 17.7553 138.798 18.1872 138.968 18.6945C139.143 19.2019 139.23 19.777 139.23 20.42ZM137.615 20.8557V20.4083C137.615 19.9474 137.572 19.5427 137.487 19.1941C137.402 18.8417 137.274 18.5454 137.104 18.3053C136.937 18.0652 136.734 17.8851 136.494 17.765C136.253 17.6411 135.978 17.5791 135.669 17.5791C135.363 17.5791 135.09 17.6411 134.849 17.765C134.609 17.8851 134.406 18.0652 134.239 18.3053C134.073 18.5454 133.945 18.8417 133.856 19.1941C133.771 19.5427 133.728 19.9474 133.728 20.4083V20.8557C133.728 21.3127 133.771 21.7174 133.856 22.0699C133.945 22.4223 134.073 22.7205 134.239 22.9645C134.41 23.2047 134.615 23.3867 134.855 23.5106C135.099 23.6346 135.374 23.6965 135.68 23.6965C135.99 23.6965 136.265 23.6346 136.505 23.5106C136.745 23.3867 136.947 23.2047 137.109 22.9645C137.276 22.7205 137.402 22.4223 137.487 22.0699C137.572 21.7174 137.615 21.3127 137.615 20.8557Z" fill="white"/>
<path d="M175.603 23.6733L177.857 25.4626L176.835 26.3515L174.615 24.5738L175.603 23.6733ZM177.898 20.42V20.8557C177.898 21.4947 177.813 22.0699 177.642 22.5811C177.472 23.0885 177.228 23.5203 176.91 23.8766C176.596 24.233 176.223 24.506 175.789 24.6958C175.355 24.8856 174.875 24.9804 174.348 24.9804C173.825 24.9804 173.345 24.8856 172.907 24.6958C172.474 24.506 172.098 24.233 171.78 23.8766C171.463 23.5203 171.217 23.0885 171.043 22.5811C170.868 22.0699 170.781 21.4947 170.781 20.8557V20.42C170.781 19.777 170.866 19.2019 171.037 18.6945C171.211 18.1872 171.455 17.7553 171.769 17.399C172.086 17.0388 172.462 16.7638 172.896 16.574C173.333 16.3843 173.814 16.2894 174.337 16.2894C174.863 16.2894 175.344 16.3843 175.777 16.574C176.215 16.7638 176.591 17.0388 176.904 17.399C177.222 17.7553 177.466 18.1872 177.636 18.6945C177.811 19.2019 177.898 19.777 177.898 20.42ZM176.283 20.8557V20.4083C176.283 19.9474 176.24 19.5427 176.155 19.1941C176.07 18.8417 175.942 18.5454 175.772 18.3053C175.605 18.0652 175.402 17.8851 175.162 17.765C174.921 17.6411 174.646 17.5791 174.337 17.5791C174.031 17.5791 173.758 17.6411 173.517 17.765C173.277 17.8851 173.074 18.0652 172.907 18.3053C172.741 18.5454 172.613 18.8417 172.524 19.1941C172.439 19.5427 172.396 19.9474 172.396 20.4083V20.8557C172.396 21.3127 172.439 21.7174 172.524 22.0699C172.613 22.4223 172.741 22.7205 172.907 22.9645C173.078 23.2047 173.283 23.3867 173.523 23.5106C173.767 23.6346 174.042 23.6965 174.348 23.6965C174.658 23.6965 174.933 23.6346 175.173 23.5106C175.413 23.3867 175.615 23.2047 175.777 22.9645C175.944 22.7205 176.07 22.4223 176.155 22.0699C176.24 21.7174 176.283 21.3127 176.283 20.8557Z" fill="white"/>
<path d="M214.632 22.6683C214.632 22.5056 214.607 22.3603 214.557 22.2325C214.51 22.1009 214.423 21.9827 214.295 21.8782C214.171 21.7697 213.995 21.6651 213.767 21.5644C213.542 21.4599 213.251 21.3514 212.895 21.2391C212.5 21.1152 212.132 20.9757 211.791 20.8208C211.45 20.6659 211.15 20.4858 210.891 20.2805C210.635 20.0753 210.436 19.839 210.292 19.5718C210.149 19.3007 210.077 18.9869 210.077 18.6306C210.077 18.282 210.151 17.9645 210.298 17.6779C210.449 17.3913 210.662 17.1453 210.937 16.94C211.212 16.7309 211.536 16.5702 211.908 16.4579C212.283 16.3455 212.698 16.2894 213.151 16.2894C213.778 16.2894 214.32 16.4036 214.777 16.6321C215.238 16.8606 215.595 17.1705 215.846 17.5617C216.098 17.9528 216.224 18.3924 216.224 18.8804H214.632C214.632 18.6171 214.576 18.3847 214.464 18.1833C214.355 17.9819 214.189 17.8231 213.964 17.7069C213.743 17.5907 213.464 17.5326 213.128 17.5326C212.802 17.5326 212.531 17.581 212.314 17.6779C212.101 17.7747 211.94 17.9064 211.832 18.0729C211.727 18.2394 211.675 18.4253 211.675 18.6306C211.675 18.7855 211.712 18.925 211.786 19.0489C211.859 19.169 211.969 19.2832 212.117 19.3917C212.264 19.4962 212.446 19.595 212.663 19.688C212.884 19.777 213.139 19.8661 213.43 19.9552C213.894 20.0946 214.301 20.2495 214.65 20.42C215.002 20.5904 215.294 20.784 215.527 21.0009C215.763 21.2178 215.939 21.4618 216.056 21.7329C216.176 22.004 216.236 22.3119 216.236 22.6566C216.236 23.0207 216.164 23.346 216.021 23.6326C215.877 23.9192 215.672 24.1632 215.405 24.3646C215.138 24.566 214.816 24.719 214.44 24.8236C214.069 24.9282 213.652 24.9804 213.191 24.9804C212.781 24.9804 212.374 24.9262 211.971 24.8178C211.572 24.7055 211.21 24.5389 210.885 24.3182C210.56 24.0935 210.3 23.8108 210.107 23.47C209.913 23.1253 209.816 22.7225 209.816 22.2616H211.42C211.42 22.5288 211.462 22.7573 211.547 22.9471C211.636 23.133 211.76 23.286 211.919 23.4061C212.082 23.5223 212.272 23.6075 212.488 23.6617C212.705 23.7159 212.94 23.743 213.191 23.743C213.517 23.743 213.784 23.6985 213.993 23.6094C214.206 23.5164 214.365 23.3886 214.47 23.226C214.578 23.0633 214.632 22.8774 214.632 22.6683Z" fill="white"/>
<path d="M253.3 22.6683C253.3 22.5056 253.275 22.3603 253.225 22.2325C253.178 22.1009 253.091 21.9827 252.963 21.8782C252.839 21.7697 252.663 21.6651 252.435 21.5644C252.21 21.4599 251.919 21.3514 251.563 21.2391C251.168 21.1152 250.8 20.9757 250.459 20.8208C250.118 20.6659 249.818 20.4858 249.559 20.2805C249.303 20.0753 249.104 19.839 248.96 19.5718C248.817 19.3007 248.745 18.9869 248.745 18.6306C248.745 18.282 248.819 17.9645 248.966 17.6779C249.117 17.3913 249.33 17.1453 249.605 16.94C249.88 16.7309 250.204 16.5702 250.575 16.4579C250.951 16.3455 251.366 16.2894 251.819 16.2894C252.446 16.2894 252.988 16.4036 253.445 16.6321C253.906 16.8606 254.263 17.1705 254.514 17.5617C254.766 17.9528 254.892 18.3924 254.892 18.8804H253.3C253.3 18.6171 253.244 18.3847 253.132 18.1833C253.023 17.9819 252.857 17.8231 252.632 17.7069C252.411 17.5907 252.132 17.5326 251.795 17.5326C251.47 17.5326 251.199 17.581 250.982 17.6779C250.769 17.7747 250.608 17.9064 250.5 18.0729C250.395 18.2394 250.343 18.4253 250.343 18.6306C250.343 18.7855 250.38 18.925 250.453 19.0489C250.527 19.169 250.637 19.2832 250.785 19.3917C250.932 19.4962 251.114 19.595 251.331 19.688C251.551 19.777 251.807 19.8661 252.098 19.9552C252.562 20.0946 252.969 20.2495 253.318 20.42C253.67 20.5904 253.962 20.784 254.195 21.0009C254.431 21.2178 254.607 21.4618 254.723 21.7329C254.844 22.004 254.904 22.3119 254.904 22.6566C254.904 23.0207 254.832 23.346 254.689 23.6326C254.545 23.9192 254.34 24.1632 254.073 24.3646C253.806 24.566 253.484 24.719 253.108 24.8236C252.737 24.9282 252.32 24.9804 251.859 24.9804C251.449 24.9804 251.042 24.9262 250.639 24.8178C250.24 24.7055 249.878 24.5389 249.553 24.3182C249.228 24.0935 248.968 23.8108 248.775 23.47C248.581 23.1253 248.484 22.7225 248.484 22.2616H250.087C250.087 22.5288 250.13 22.7573 250.215 22.9471C250.304 23.133 250.428 23.286 250.587 23.4061C250.75 23.5223 250.94 23.6075 251.156 23.6617C251.373 23.7159 251.608 23.743 251.859 23.743C252.185 23.743 252.452 23.6985 252.661 23.6094C252.874 23.5164 253.033 23.3886 253.137 23.226C253.246 23.0633 253.3 22.8774 253.3 22.6683Z" fill="white"/>
<rect width="38.6683" height="38.6683" transform="translate(77.6895 39.6348)" fill="black" fill-opacity="0.05"/>
<path d="M97.912 55.0275V63.5327H96.8372V56.3695L94.6703 57.1596V56.1895L97.7435 55.0275H97.912Z" fill="black"/>
<rect width="38.6683" height="38.6683" transform="translate(116.357 39.6348)" fill="#C30101"/>
<path d="M138.591 62.6497V63.5327H133.055V62.76L135.826 59.6752C136.167 59.2956 136.43 58.9742 136.616 58.7108C136.806 58.4436 136.937 58.2054 137.011 57.9962C137.088 57.7832 137.127 57.5663 137.127 57.3456C137.127 57.0667 137.069 56.8149 136.953 56.5903C136.84 56.3618 136.674 56.1798 136.453 56.0442C136.232 55.9087 135.965 55.8409 135.651 55.8409C135.276 55.8409 134.962 55.9145 134.71 56.0616C134.462 56.2049 134.276 56.4063 134.153 56.6658C134.029 56.9253 133.967 57.2236 133.967 57.5605H132.892C132.892 57.0841 132.996 56.6484 133.206 56.2534C133.415 55.8583 133.725 55.5446 134.135 55.3122C134.546 55.076 135.051 54.9578 135.651 54.9578C136.186 54.9578 136.643 55.0527 137.022 55.2425C137.402 55.4284 137.692 55.6918 137.894 56.0326C138.099 56.3695 138.202 56.7646 138.202 57.2177C138.202 57.4656 138.159 57.7174 138.074 57.973C137.993 58.2247 137.878 58.4765 137.731 58.7282C137.588 58.98 137.419 59.2278 137.226 59.4718C137.036 59.7158 136.833 59.956 136.616 60.1922L134.35 62.6497H138.591Z" fill="white"/>
<rect width="38.6683" height="38.6683" transform="translate(155.025 39.6348)" fill="black" fill-opacity="0.05"/>
<path d="M173.284 58.7747H174.051C174.427 58.7747 174.737 58.7127 174.981 58.5888C175.229 58.461 175.413 58.2886 175.533 58.0717C175.657 57.851 175.718 57.6031 175.718 57.3281C175.718 57.0028 175.664 56.7297 175.556 56.509C175.447 56.2882 175.285 56.1217 175.068 56.0094C174.851 55.897 174.576 55.8409 174.243 55.8409C173.941 55.8409 173.674 55.9009 173.441 56.021C173.213 56.1372 173.033 56.3037 172.901 56.5206C172.773 56.7375 172.709 56.9931 172.709 57.2875H171.634C171.634 56.8576 171.743 56.4664 171.96 56.1139C172.177 55.7615 172.481 55.4807 172.872 55.2715C173.267 55.0624 173.724 54.9578 174.243 54.9578C174.754 54.9578 175.201 55.0488 175.585 55.2309C175.968 55.409 176.267 55.6763 176.48 56.0326C176.693 56.385 176.799 56.8246 176.799 57.3514C176.799 57.5644 176.749 57.7929 176.648 58.0369C176.551 58.277 176.398 58.5017 176.189 58.7108C175.984 58.9199 175.717 59.0923 175.387 59.2278C175.058 59.3595 174.663 59.4254 174.202 59.4254H173.284V58.7747ZM173.284 59.6578V59.0129H174.202C174.741 59.0129 175.186 59.0768 175.538 59.2046C175.891 59.3324 176.168 59.5028 176.369 59.7158C176.574 59.9289 176.718 60.1632 176.799 60.4188C176.884 60.6705 176.927 60.9223 176.927 61.174C176.927 61.5691 176.859 61.9196 176.724 62.2256C176.592 62.5315 176.404 62.791 176.16 63.004C175.92 63.2171 175.637 63.3778 175.312 63.4862C174.986 63.5947 174.632 63.6489 174.249 63.6489C173.881 63.6489 173.534 63.5966 173.209 63.492C172.887 63.3875 172.603 63.2364 172.355 63.0389C172.107 62.8375 171.913 62.5916 171.774 62.3011C171.634 62.0067 171.565 61.6717 171.565 61.296H172.639C172.639 61.5904 172.703 61.8479 172.831 62.0687C172.963 62.2895 173.149 62.4618 173.389 62.5858C173.633 62.7058 173.919 62.7659 174.249 62.7659C174.578 62.7659 174.861 62.7097 175.097 62.5974C175.337 62.4812 175.521 62.3069 175.649 62.0745C175.78 61.8421 175.846 61.5497 175.846 61.1973C175.846 60.8448 175.773 60.5563 175.626 60.3317C175.478 60.1031 175.269 59.9347 174.998 59.8262C174.731 59.7139 174.415 59.6578 174.051 59.6578H173.284Z" fill="black"/>
<rect width="38.6683" height="38.6683" transform="translate(193.694 39.6348)" fill="black" fill-opacity="0.05"/>
<path d="M216.101 60.686V61.5691H209.99V60.9358L213.777 55.074H214.655L213.714 56.7704L211.21 60.686H216.101ZM214.922 55.074V63.5327H213.847V55.074H214.922Z" fill="black"/>
<rect width="38.6683" height="38.6683" transform="translate(232.362 39.6348)" fill="#2EA66D"/>
<path d="M250.413 59.5067L249.553 59.2859L249.977 55.074H254.317V56.0675H250.889L250.634 58.368C250.789 58.279 250.984 58.1957 251.221 58.1182C251.461 58.0408 251.736 58.002 252.046 58.002C252.437 58.002 252.787 58.0698 253.097 58.2054C253.407 58.337 253.67 58.5268 253.887 58.7747C254.108 59.0226 254.276 59.3208 254.393 59.6694C254.509 60.0179 254.567 60.4072 254.567 60.8371C254.567 61.2438 254.511 61.6175 254.398 61.9583C254.29 62.2992 254.125 62.5974 253.905 62.853C253.684 63.1047 253.405 63.3003 253.068 63.4398C252.735 63.5792 252.342 63.6489 251.889 63.6489C251.548 63.6489 251.224 63.6024 250.918 63.5095C250.616 63.4127 250.345 63.2674 250.105 63.0738C249.869 62.8762 249.675 62.6322 249.524 62.3418C249.377 62.0474 249.284 61.7027 249.245 61.3077H250.268C250.314 61.6252 250.407 61.8925 250.547 62.1094C250.686 62.3263 250.868 62.4909 251.093 62.6032C251.321 62.7116 251.587 62.7659 251.889 62.7659C252.144 62.7659 252.371 62.7213 252.568 62.6322C252.766 62.5432 252.932 62.4153 253.068 62.2488C253.204 62.0823 253.306 61.8809 253.376 61.6446C253.45 61.4084 253.486 61.1431 253.486 60.8487C253.486 60.5815 253.45 60.3336 253.376 60.1051C253.302 59.8766 253.192 59.6771 253.045 59.5067C252.901 59.3363 252.725 59.2046 252.516 59.1117C252.307 59.0148 252.067 58.9664 251.796 58.9664C251.436 58.9664 251.162 59.0148 250.977 59.1117C250.795 59.2085 250.607 59.3402 250.413 59.5067Z" fill="black"/>
<rect width="38.6683" height="38.6683" transform="translate(0.352539 78.303)" fill="black" fill-opacity="0.38"/>
<path d="M21.1676 93.7306H21.2606V94.6427H21.1676C20.5983 94.6427 20.1219 94.7357 19.7385 94.9216C19.3551 95.1036 19.051 95.3495 18.8264 95.6594C18.6018 95.9654 18.4391 96.3101 18.3384 96.6935C18.2416 97.0769 18.1932 97.4662 18.1932 97.8612V99.1044C18.1932 99.4801 18.2377 99.8132 18.3268 100.104C18.4159 100.39 18.5379 100.632 18.6928 100.83C18.8477 101.027 19.022 101.177 19.2156 101.277C19.4132 101.378 19.6184 101.428 19.8315 101.428C20.0793 101.428 20.3001 101.382 20.4937 101.289C20.6874 101.192 20.8501 101.058 20.9817 100.888C21.1173 100.714 21.2199 100.508 21.2896 100.272C21.3594 100.036 21.3942 99.7764 21.3942 99.4937C21.3942 99.2419 21.3632 98.9999 21.3013 98.7675C21.2393 98.5312 21.1444 98.3221 21.0166 98.1401C20.8888 97.9542 20.7281 97.8089 20.5344 97.7043C20.3446 97.5959 20.1181 97.5417 19.8547 97.5417C19.5565 97.5417 19.2776 97.6153 19.0181 97.7624C18.7625 97.9057 18.5514 98.0955 18.3849 98.3318C18.2222 98.5642 18.1293 98.8178 18.106 99.0928L17.5367 99.087C17.5909 98.6532 17.6916 98.2834 17.8388 97.9774C17.9898 97.6675 18.1757 97.4158 18.3965 97.2222C18.6211 97.0246 18.8709 96.8813 19.1459 96.7922C19.4248 96.6993 19.7191 96.6528 20.029 96.6528C20.4511 96.6528 20.8152 96.7322 21.1212 96.891C21.4271 97.0498 21.6789 97.2628 21.8764 97.5301C22.0739 97.7934 22.2192 98.0916 22.3121 98.4247C22.409 98.7539 22.4574 99.0928 22.4574 99.4414C22.4574 99.8403 22.4012 100.214 22.2889 100.563C22.1766 100.911 22.0081 101.217 21.7835 101.481C21.5627 101.744 21.2896 101.949 20.9643 102.096C20.639 102.244 20.2614 102.317 19.8315 102.317C19.3744 102.317 18.9755 102.224 18.6347 102.038C18.2939 101.848 18.0111 101.597 17.7865 101.283C17.5619 100.969 17.3934 100.621 17.2811 100.237C17.1687 99.8539 17.1126 99.4646 17.1126 99.0696V98.5642C17.1126 97.9677 17.1726 97.3829 17.2927 96.8097C17.4127 96.2365 17.62 95.7175 17.9143 95.2527C18.2125 94.788 18.625 94.4181 19.1517 94.1431C19.6785 93.8681 20.3504 93.7306 21.1676 93.7306Z" fill="black"/>
<rect width="38.6683" height="38.6683" transform="translate(39.0205 78.303)" fill="black" fill-opacity="0.05"/>
<path d="M61.1776 93.7422V94.3464L57.6745 102.201H56.5416L60.0389 94.6253H55.461V93.7422H61.1776Z" fill="black"/>
<rect width="38.6683" height="38.6683" transform="translate(77.6895 78.303)" fill="black" fill-opacity="0.05"/>
<path d="M99.7129 99.912C99.7129 100.427 99.5929 100.865 99.3528 101.225C99.1165 101.581 98.795 101.852 98.3884 102.038C97.9856 102.224 97.5305 102.317 97.0231 102.317C96.5158 102.317 96.0587 102.224 95.6521 102.038C95.2454 101.852 94.9239 101.581 94.6877 101.225C94.4514 100.865 94.3333 100.427 94.3333 99.912C94.3333 99.575 94.3972 99.2671 94.525 98.9883C94.6567 98.7055 94.8407 98.4596 95.0769 98.2504C95.3171 98.0413 95.5998 97.8806 95.9251 97.7682C96.2543 97.6521 96.6165 97.594 97.0115 97.594C97.5305 97.594 97.9933 97.6947 98.4 97.8961C98.8067 98.0936 99.1262 98.3666 99.3586 98.7152C99.5948 99.0638 99.7129 99.4627 99.7129 99.912ZM98.6324 99.8887C98.6324 99.575 98.5646 99.2981 98.429 99.058C98.2935 98.814 98.1037 98.6242 97.8597 98.4886C97.6157 98.3531 97.333 98.2853 97.0115 98.2853C96.6823 98.2853 96.3976 98.3531 96.1575 98.4886C95.9213 98.6242 95.7373 98.814 95.6056 99.058C95.4739 99.2981 95.4081 99.575 95.4081 99.8887C95.4081 100.214 95.472 100.493 95.5998 100.725C95.7315 100.954 95.9174 101.13 96.1575 101.254C96.4015 101.374 96.69 101.434 97.0231 101.434C97.3562 101.434 97.6428 101.374 97.8829 101.254C98.1231 101.13 98.307 100.954 98.4348 100.725C98.5665 100.493 98.6324 100.214 98.6324 99.8887ZM99.5154 95.9441C99.5154 96.3546 99.407 96.7245 99.1901 97.0537C98.9732 97.3829 98.6769 97.6424 98.3012 97.8322C97.9255 98.0219 97.4995 98.1168 97.0231 98.1168C96.539 98.1168 96.1072 98.0219 95.7276 97.8322C95.3519 97.6424 95.0576 97.3829 94.8445 97.0537C94.6315 96.7245 94.525 96.3546 94.525 95.9441C94.525 95.4522 94.6315 95.0339 94.8445 94.6892C95.0614 94.3445 95.3577 94.0811 95.7334 93.8991C96.1091 93.7171 96.5371 93.626 97.0173 93.626C97.5014 93.626 97.9314 93.7171 98.307 93.8991C98.6827 94.0811 98.9771 94.3445 99.1901 94.6892C99.407 95.0339 99.5154 95.4522 99.5154 95.9441ZM98.4407 95.9615C98.4407 95.6787 98.3806 95.4289 98.2606 95.212C98.1405 94.9952 97.974 94.8247 97.7609 94.7008C97.5479 94.573 97.3 94.5091 97.0173 94.5091C96.7346 94.5091 96.4867 94.5691 96.2737 94.6892C96.0646 94.8054 95.8999 94.9719 95.7799 95.1888C95.6637 95.4057 95.6056 95.6633 95.6056 95.9615C95.6056 96.252 95.6637 96.5056 95.7799 96.7225C95.8999 96.9394 96.0665 97.1079 96.2795 97.228C96.4925 97.348 96.7404 97.4081 97.0231 97.4081C97.3059 97.4081 97.5518 97.348 97.7609 97.228C97.974 97.1079 98.1405 96.9394 98.2606 96.7225C98.3806 96.5056 98.4407 96.252 98.4407 95.9615Z" fill="black"/>
<rect width="38.6683" height="38.6683" transform="translate(116.357 78.303)" fill="black" fill-opacity="0.05"/>
<path d="M134.118 101.3H134.228C134.848 101.3 135.351 101.213 135.739 101.039C136.126 100.865 136.424 100.63 136.633 100.336C136.842 100.042 136.986 99.7106 137.063 99.3426C137.141 98.9708 137.179 98.5893 137.179 98.1982V96.9026C137.179 96.5192 137.135 96.1784 137.046 95.8801C136.96 95.5819 136.84 95.3321 136.686 95.1307C136.534 94.9293 136.362 94.7763 136.168 94.6718C135.975 94.5672 135.77 94.5149 135.553 94.5149C135.305 94.5149 135.082 94.5653 134.885 94.666C134.691 94.7628 134.526 94.9003 134.391 95.0784C134.259 95.2566 134.158 95.4657 134.089 95.7059C134.019 95.946 133.984 96.2074 133.984 96.4901C133.984 96.7419 134.015 96.9859 134.077 97.2222C134.139 97.4584 134.234 97.6714 134.362 97.8612C134.489 98.051 134.648 98.202 134.838 98.3143C135.032 98.4228 135.258 98.477 135.518 98.477C135.758 98.477 135.983 98.4305 136.192 98.3376C136.405 98.2408 136.593 98.111 136.755 97.9483C136.922 97.7818 137.053 97.594 137.15 97.3848C137.251 97.1757 137.309 96.9568 137.325 96.7283H137.836C137.836 97.0498 137.772 97.3674 137.644 97.6811C137.52 97.9909 137.346 98.2737 137.121 98.5293C136.897 98.7849 136.633 98.9902 136.331 99.1451C136.029 99.2962 135.7 99.3717 135.344 99.3717C134.925 99.3717 134.563 99.2903 134.257 99.1277C133.951 98.965 133.699 98.7481 133.502 98.477C133.308 98.2059 133.163 97.9038 133.066 97.5707C132.973 97.2338 132.927 96.8929 132.927 96.5482C132.927 96.1454 132.983 95.7678 133.095 95.4154C133.208 95.0629 133.374 94.7531 133.595 94.4859C133.816 94.2147 134.089 94.0037 134.414 93.8526C134.743 93.7016 135.123 93.626 135.553 93.626C136.037 93.626 136.449 93.7229 136.79 93.9165C137.131 94.1102 137.408 94.3697 137.621 94.695C137.838 95.0203 137.997 95.3863 138.097 95.793C138.198 96.1997 138.248 96.618 138.248 97.0479V97.4371C138.248 97.8748 138.219 98.3202 138.161 98.7733C138.107 99.2226 138 99.6525 137.842 100.063C137.687 100.474 137.46 100.841 137.162 101.167C136.864 101.488 136.474 101.744 135.994 101.934C135.518 102.12 134.929 102.213 134.228 102.213H134.118V101.3Z" fill="black"/>
<rect width="38.6683" height="38.6683" transform="translate(155.025 78.303)" fill="black" fill-opacity="0.05"/>
<path d="M171.842 93.6958V102.201H170.767V95.0378L168.6 95.8279V94.8577L171.674 93.6958H171.842ZM180.431 97.2977V98.5874C180.431 99.2807 180.369 99.8655 180.246 100.342C180.122 100.818 179.943 101.202 179.711 101.492C179.479 101.783 179.198 101.994 178.869 102.125C178.543 102.253 178.175 102.317 177.765 102.317C177.44 102.317 177.139 102.276 176.864 102.195C176.589 102.114 176.342 101.984 176.121 101.806C175.904 101.624 175.718 101.388 175.563 101.097C175.408 100.807 175.29 100.454 175.209 100.04C175.127 99.6254 175.087 99.1412 175.087 98.5874V97.2977C175.087 96.6044 175.149 96.0234 175.273 95.5548C175.4 95.0862 175.58 94.7105 175.813 94.4278C176.045 94.1412 176.324 93.9359 176.649 93.8119C176.979 93.688 177.347 93.626 177.753 93.626C178.082 93.626 178.385 93.6667 178.66 93.748C178.938 93.8255 179.186 93.9514 179.403 94.1257C179.62 94.2961 179.804 94.5246 179.955 94.8112C180.11 95.0939 180.228 95.4406 180.309 95.8511C180.391 96.2616 180.431 96.7438 180.431 97.2977ZM179.351 98.7617V97.1176C179.351 96.738 179.328 96.4049 179.281 96.1183C179.239 95.8279 179.175 95.58 179.089 95.3747C179.004 95.1694 178.896 95.0029 178.764 94.8751C178.636 94.7473 178.487 94.6543 178.317 94.5962C178.15 94.5343 177.962 94.5033 177.753 94.5033C177.498 94.5033 177.271 94.5517 177.074 94.6485C176.876 94.7415 176.709 94.8906 176.574 95.0959C176.442 95.3011 176.342 95.5703 176.272 95.9034C176.202 96.2365 176.167 96.6412 176.167 97.1176V98.7617C176.167 99.1412 176.189 99.4763 176.231 99.7667C176.278 100.057 176.345 100.309 176.434 100.522C176.524 100.731 176.632 100.903 176.76 101.039C176.888 101.175 177.035 101.275 177.201 101.341C177.372 101.403 177.56 101.434 177.765 101.434C178.028 101.434 178.259 101.384 178.456 101.283C178.654 101.182 178.818 101.025 178.95 100.812C179.086 100.596 179.186 100.319 179.252 99.9817C179.318 99.6409 179.351 99.2342 179.351 98.7617Z" fill="black"/>
<rect width="38.6683" height="38.6683" transform="translate(193.694 78.303)" fill="black" fill-opacity="0.05"/>
<path d="M210.511 93.6958V102.201H209.436V95.0378L207.269 95.8279V94.8577L210.343 93.6958H210.511ZM217.323 93.6958V102.201H216.248V95.0378L214.081 95.8279V94.8577L217.154 93.6958H217.323Z" fill="black"/>
<rect width="38.6683" height="38.6683" transform="translate(232.362 78.303)" fill="black" fill-opacity="0.38"/>
<path d="M249.18 93.6958V102.201H248.105V95.0378L245.938 95.8279V94.8577L249.012 93.6958H249.18ZM258.002 101.318V102.201H252.465V101.428L255.236 98.3434C255.577 97.9638 255.841 97.6424 256.026 97.379C256.216 97.1118 256.348 96.8736 256.422 96.6644C256.499 96.4514 256.538 96.2345 256.538 96.0138C256.538 95.7349 256.48 95.4832 256.363 95.2585C256.251 95.03 256.085 94.848 255.864 94.7124C255.643 94.5769 255.376 94.5091 255.062 94.5091C254.686 94.5091 254.373 94.5827 254.121 94.7299C253.873 94.8732 253.687 95.0746 253.563 95.334C253.439 95.5935 253.377 95.8918 253.377 96.2287H252.303C252.303 95.7523 252.407 95.3166 252.616 94.9216C252.825 94.5265 253.135 94.2128 253.546 93.9804C253.956 93.7442 254.462 93.626 255.062 93.626C255.597 93.626 256.054 93.7209 256.433 93.9107C256.813 94.0966 257.103 94.36 257.305 94.7008C257.51 95.0378 257.612 95.4328 257.612 95.886C257.612 96.1338 257.57 96.3856 257.485 96.6412C257.403 96.8929 257.289 97.1447 257.142 97.3964C256.999 97.6482 256.83 97.8961 256.636 98.1401C256.447 98.3841 256.243 98.6242 256.026 98.8604L253.761 101.318H258.002Z" fill="black"/>
<rect width="38.6683" height="38.6683" transform="translate(0.352539 116.971)" fill="black" fill-opacity="0.38"/>
<path d="M17.1693 132.364V140.869H16.0945V133.706L13.9276 134.496V133.526L17.0008 132.364H17.1693ZM22.0172 136.111H22.7841C23.1598 136.111 23.4696 136.049 23.7136 135.925C23.9615 135.797 24.1455 135.625 24.2655 135.408C24.3895 135.187 24.4514 134.94 24.4514 134.665C24.4514 134.339 24.3972 134.066 24.2888 133.845C24.1803 133.625 24.0177 133.458 23.8008 133.346C23.5839 133.233 23.3089 133.177 22.9758 133.177C22.6737 133.177 22.4065 133.237 22.1741 133.357C21.9456 133.474 21.7655 133.64 21.6338 133.857C21.506 134.074 21.4421 134.33 21.4421 134.624H20.3673C20.3673 134.194 20.4758 133.803 20.6927 133.45C20.9095 133.098 21.2136 132.817 21.6048 132.608C21.9998 132.399 22.4568 132.294 22.9758 132.294C23.487 132.294 23.9344 132.385 24.3178 132.567C24.7012 132.745 24.9995 133.013 25.2125 133.369C25.4255 133.721 25.532 134.161 25.532 134.688C25.532 134.901 25.4817 135.129 25.381 135.373C25.2841 135.613 25.1311 135.838 24.922 136.047C24.7167 136.256 24.4495 136.429 24.1203 136.564C23.7911 136.696 23.396 136.762 22.9351 136.762H22.0172V136.111ZM22.0172 136.994V136.349H22.9351C23.4735 136.349 23.9189 136.413 24.2713 136.541C24.6238 136.669 24.9007 136.839 25.1021 137.052C25.3074 137.265 25.4507 137.5 25.532 137.755C25.6172 138.007 25.6598 138.259 25.6598 138.51C25.6598 138.906 25.592 139.256 25.4565 139.562C25.3248 139.868 25.137 140.127 24.893 140.34C24.6528 140.553 24.3701 140.714 24.0448 140.823C23.7194 140.931 23.365 140.985 22.9816 140.985C22.6137 140.985 22.267 140.933 21.9417 140.828C21.6202 140.724 21.3356 140.573 21.0877 140.375C20.8398 140.174 20.6462 139.928 20.5068 139.638C20.3673 139.343 20.2976 139.008 20.2976 138.632H21.3724C21.3724 138.927 21.4363 139.184 21.5641 139.405C21.6958 139.626 21.8817 139.798 22.1218 139.922C22.3658 140.042 22.6524 140.102 22.9816 140.102C23.3108 140.102 23.5936 140.046 23.8298 139.934C24.0699 139.818 24.2539 139.643 24.3817 139.411C24.5134 139.179 24.5792 138.886 24.5792 138.534C24.5792 138.181 24.5057 137.893 24.3585 137.668C24.2113 137.44 24.0022 137.271 23.731 137.163C23.4638 137.05 23.1482 136.994 22.7841 136.994H22.0172Z" fill="black"/>
<rect width="38.6683" height="38.6683" transform="translate(39.0205 116.971)" fill="#C30101"/>
<path d="M55.8373 132.364V140.869H54.7625V133.706L52.5955 134.496V133.526L55.6688 132.364H55.8373ZM64.8332 138.022V138.906H58.7216V138.272L62.5094 132.41H63.3866L62.4455 134.107L59.9416 138.022H64.8332ZM63.6539 132.41V140.869H62.5791V132.41H63.6539Z" fill="white"/>
<rect width="38.6683" height="38.6683" transform="translate(77.6895 116.971)" fill="#C30101"/>
<path d="M94.5062 132.364V140.869H93.4314V133.706L91.2645 134.496V133.526L94.3377 132.364H94.5062ZM99.145 136.843L98.2852 136.622L98.7093 132.41H103.049V133.404H99.6214L99.3658 135.704C99.5207 135.615 99.7163 135.532 99.9525 135.455C100.193 135.377 100.468 135.338 100.777 135.338C101.169 135.338 101.519 135.406 101.829 135.542C102.139 135.673 102.402 135.863 102.619 136.111C102.84 136.359 103.008 136.657 103.125 137.006C103.241 137.354 103.299 137.744 103.299 138.174C103.299 138.58 103.243 138.954 103.13 139.295C103.022 139.636 102.857 139.934 102.637 140.189C102.416 140.441 102.137 140.637 101.8 140.776C101.467 140.916 101.074 140.985 100.621 140.985C100.28 140.985 99.9564 140.939 99.6504 140.846C99.3483 140.749 99.0772 140.604 98.8371 140.41C98.6008 140.213 98.4072 139.969 98.2561 139.678C98.109 139.384 98.016 139.039 97.9773 138.644H98.9998C99.0462 138.962 99.1392 139.229 99.2786 139.446C99.4181 139.663 99.6001 139.827 99.8247 139.94C100.053 140.048 100.319 140.102 100.621 140.102C100.876 140.102 101.103 140.058 101.3 139.969C101.498 139.88 101.664 139.752 101.8 139.585C101.936 139.419 102.038 139.217 102.108 138.981C102.181 138.745 102.218 138.479 102.218 138.185C102.218 137.918 102.181 137.67 102.108 137.442C102.034 137.213 101.924 137.014 101.777 136.843C101.633 136.673 101.457 136.541 101.248 136.448C101.039 136.351 100.799 136.303 100.528 136.303C100.167 136.303 99.8944 136.351 99.7085 136.448C99.5265 136.545 99.3387 136.677 99.145 136.843Z" fill="white"/>
<rect width="38.6683" height="38.6683" transform="translate(116.357 116.971)" fill="black" fill-opacity="0.05"/>
<path d="M133.175 132.364V140.869H132.1V133.706L129.933 134.496V133.526L133.007 132.364H133.175ZM140.579 132.399H140.672V133.311H140.579C140.01 133.311 139.534 133.404 139.15 133.59C138.767 133.772 138.463 134.018 138.238 134.328C138.013 134.634 137.851 134.978 137.75 135.362C137.653 135.745 137.605 136.134 137.605 136.529V137.773C137.605 138.148 137.649 138.481 137.738 138.772C137.828 139.059 137.95 139.301 138.104 139.498C138.259 139.696 138.434 139.845 138.627 139.945C138.825 140.046 139.03 140.096 139.243 140.096C139.491 140.096 139.712 140.05 139.905 139.957C140.099 139.86 140.262 139.727 140.393 139.556C140.529 139.382 140.632 139.177 140.701 138.94C140.771 138.704 140.806 138.445 140.806 138.162C140.806 137.91 140.775 137.668 140.713 137.436C140.651 137.199 140.556 136.99 140.428 136.808C140.3 136.622 140.14 136.477 139.946 136.373C139.756 136.264 139.53 136.21 139.266 136.21C138.968 136.21 138.689 136.283 138.43 136.431C138.174 136.574 137.963 136.764 137.797 137C137.634 137.232 137.541 137.486 137.518 137.761L136.948 137.755C137.003 137.321 137.103 136.952 137.25 136.646C137.401 136.336 137.587 136.084 137.808 135.89C138.033 135.693 138.283 135.55 138.558 135.46C138.836 135.368 139.131 135.321 139.441 135.321C139.863 135.321 140.227 135.4 140.533 135.559C140.839 135.718 141.091 135.931 141.288 136.198C141.486 136.462 141.631 136.76 141.724 137.093C141.821 137.422 141.869 137.761 141.869 138.11C141.869 138.509 141.813 138.882 141.701 139.231C141.588 139.579 141.42 139.885 141.195 140.149C140.974 140.412 140.701 140.617 140.376 140.765C140.051 140.912 139.673 140.985 139.243 140.985C138.786 140.985 138.387 140.892 138.046 140.706C137.706 140.517 137.423 140.265 137.198 139.951C136.974 139.638 136.805 139.289 136.693 138.906C136.58 138.522 136.524 138.133 136.524 137.738V137.232C136.524 136.636 136.584 136.051 136.704 135.478C136.824 134.905 137.032 134.386 137.326 133.921C137.624 133.456 138.037 133.086 138.563 132.811C139.09 132.536 139.762 132.399 140.579 132.399Z" fill="black"/>
<rect width="38.6683" height="38.6683" transform="translate(155.025 116.971)" fill="black" fill-opacity="0.05"/>
<path d="M171.842 132.364V140.869H170.767V133.706L168.6 134.496V133.526L171.674 132.364H171.842ZM180.588 132.41V133.015L177.085 140.869H175.952L179.45 133.293H174.872V132.41H180.588Z" fill="black"/>
<rect width="38.6683" height="38.6683" transform="translate(193.694 116.971)" fill="black" fill-opacity="0.05"/>
<path d="M210.511 132.364V140.869H209.436V133.706L207.269 134.496V133.526L210.343 132.364H210.511ZM219.124 138.58C219.124 139.095 219.004 139.533 218.763 139.893C218.527 140.249 218.206 140.521 217.799 140.706C217.396 140.892 216.941 140.985 216.434 140.985C215.926 140.985 215.469 140.892 215.063 140.706C214.656 140.521 214.335 140.249 214.098 139.893C213.862 139.533 213.744 139.095 213.744 138.58C213.744 138.243 213.808 137.935 213.936 137.656C214.067 137.374 214.251 137.128 214.488 136.919C214.728 136.71 215.01 136.549 215.336 136.436C215.665 136.32 216.027 136.262 216.422 136.262C216.941 136.262 217.404 136.363 217.811 136.564C218.217 136.762 218.537 137.035 218.769 137.383C219.005 137.732 219.124 138.131 219.124 138.58ZM218.043 138.557C218.043 138.243 217.975 137.966 217.84 137.726C217.704 137.482 217.514 137.292 217.27 137.157C217.026 137.021 216.744 136.954 216.422 136.954C216.093 136.954 215.808 137.021 215.568 137.157C215.332 137.292 215.148 137.482 215.016 137.726C214.885 137.966 214.819 138.243 214.819 138.557C214.819 138.882 214.883 139.161 215.01 139.394C215.142 139.622 215.328 139.798 215.568 139.922C215.812 140.042 216.101 140.102 216.434 140.102C216.767 140.102 217.053 140.042 217.294 139.922C217.534 139.798 217.718 139.622 217.846 139.394C217.977 139.161 218.043 138.882 218.043 138.557ZM218.926 134.612C218.926 135.023 218.818 135.393 218.601 135.722C218.384 136.051 218.088 136.311 217.712 136.5C217.336 136.69 216.91 136.785 216.434 136.785C215.95 136.785 215.518 136.69 215.138 136.5C214.763 136.311 214.468 136.051 214.255 135.722C214.042 135.393 213.936 135.023 213.936 134.612C213.936 134.12 214.042 133.702 214.255 133.357C214.472 133.013 214.768 132.749 215.144 132.567C215.52 132.385 215.948 132.294 216.428 132.294C216.912 132.294 217.342 132.385 217.718 132.567C218.093 132.749 218.388 133.013 218.601 133.357C218.818 133.702 218.926 134.12 218.926 134.612ZM217.851 134.63C217.851 134.347 217.791 134.097 217.671 133.88C217.551 133.663 217.385 133.493 217.172 133.369C216.959 133.241 216.711 133.177 216.428 133.177C216.145 133.177 215.897 133.237 215.684 133.357C215.475 133.474 215.311 133.64 215.191 133.857C215.074 134.074 215.016 134.331 215.016 134.63C215.016 134.92 215.074 135.174 215.191 135.391C215.311 135.608 215.477 135.776 215.69 135.896C215.903 136.016 216.151 136.076 216.434 136.076C216.717 136.076 216.962 136.016 217.172 135.896C217.385 135.776 217.551 135.608 217.671 135.391C217.791 135.174 217.851 134.92 217.851 134.63Z" fill="black"/>
<rect width="38.6683" height="38.6683" transform="translate(232.362 116.971)" fill="black" fill-opacity="0.38"/>
<path d="M249.18 132.364V140.869H248.105V133.706L245.938 134.496V133.526L249.012 132.364H249.18ZM253.528 139.969H253.639C254.258 139.969 254.762 139.882 255.149 139.707C255.537 139.533 255.835 139.299 256.044 139.004C256.253 138.71 256.396 138.379 256.474 138.011C256.551 137.639 256.59 137.258 256.59 136.866V135.571C256.59 135.187 256.545 134.847 256.456 134.548C256.371 134.25 256.251 134 256.096 133.799C255.945 133.598 255.773 133.445 255.579 133.34C255.385 133.235 255.18 133.183 254.963 133.183C254.715 133.183 254.493 133.233 254.295 133.334C254.102 133.431 253.937 133.568 253.801 133.747C253.67 133.925 253.569 134.134 253.499 134.374C253.43 134.614 253.395 134.876 253.395 135.158C253.395 135.41 253.426 135.654 253.488 135.89C253.55 136.127 253.645 136.34 253.772 136.529C253.9 136.719 254.059 136.87 254.249 136.983C254.442 137.091 254.669 137.145 254.928 137.145C255.169 137.145 255.393 137.099 255.602 137.006C255.815 136.909 256.003 136.779 256.166 136.617C256.332 136.45 256.464 136.262 256.561 136.053C256.662 135.844 256.72 135.625 256.735 135.397H257.246C257.246 135.718 257.183 136.036 257.055 136.349C256.931 136.659 256.757 136.942 256.532 137.198C256.307 137.453 256.044 137.658 255.742 137.813C255.44 137.964 255.11 138.04 254.754 138.04C254.336 138.04 253.974 137.959 253.668 137.796C253.362 137.633 253.11 137.416 252.913 137.145C252.719 136.874 252.574 136.572 252.477 136.239C252.384 135.902 252.337 135.561 252.337 135.216C252.337 134.814 252.394 134.436 252.506 134.084C252.618 133.731 252.785 133.421 253.005 133.154C253.226 132.883 253.499 132.672 253.825 132.521C254.154 132.37 254.533 132.294 254.963 132.294C255.447 132.294 255.86 132.391 256.201 132.585C256.542 132.778 256.818 133.038 257.032 133.363C257.248 133.689 257.407 134.055 257.508 134.461C257.609 134.868 257.659 135.286 257.659 135.716V136.105C257.659 136.543 257.63 136.988 257.572 137.442C257.518 137.891 257.411 138.321 257.252 138.731C257.097 139.142 256.871 139.51 256.573 139.835C256.274 140.157 255.885 140.412 255.405 140.602C254.928 140.788 254.34 140.881 253.639 140.881H253.528V139.969Z" fill="black"/>
<rect width="38.6683" height="38.6683" transform="translate(0.352539 155.64)" fill="#0076B1"/>
<path d="M19.1794 178.655V179.538H13.6429V178.765L16.414 175.68C16.7549 175.301 17.0182 174.979 17.2041 174.716C17.3939 174.448 17.5256 174.21 17.5992 174.001C17.6767 173.788 17.7154 173.571 17.7154 173.35C17.7154 173.072 17.6573 172.82 17.5411 172.595C17.4288 172.367 17.2622 172.185 17.0415 172.049C16.8207 171.914 16.5535 171.846 16.2398 171.846C15.8641 171.846 15.5504 171.919 15.2986 172.067C15.0507 172.21 14.8648 172.411 14.7409 172.671C14.617 172.93 14.555 173.228 14.555 173.565H13.4802C13.4802 173.089 13.5848 172.653 13.7939 172.258C14.0031 171.863 14.3129 171.549 14.7235 171.317C15.134 171.081 15.6394 170.963 16.2398 170.963C16.7742 170.963 17.2313 171.058 17.6108 171.247C17.9904 171.433 18.2808 171.697 18.4822 172.037C18.6875 172.374 18.7901 172.769 18.7901 173.223C18.7901 173.47 18.7475 173.722 18.6623 173.978C18.581 174.23 18.4668 174.481 18.3196 174.733C18.1763 174.985 18.0078 175.233 17.8141 175.477C17.6244 175.721 17.421 175.961 17.2041 176.197L14.9384 178.655H19.1794ZM25.7586 174.634V175.924C25.7586 176.617 25.6966 177.202 25.5727 177.679C25.4487 178.155 25.2706 178.538 25.0382 178.829C24.8058 179.119 24.525 179.33 24.1958 179.462C23.8705 179.59 23.5025 179.654 23.092 179.654C22.7667 179.654 22.4665 179.613 22.1915 179.532C21.9165 179.45 21.6687 179.321 21.4479 179.143C21.231 178.961 21.0451 178.724 20.8902 178.434C20.7353 178.143 20.6171 177.791 20.5358 177.376C20.4545 176.962 20.4138 176.478 20.4138 175.924V174.634C20.4138 173.941 20.4758 173.36 20.5997 172.891C20.7275 172.423 20.9076 172.047 21.14 171.764C21.3724 171.478 21.6512 171.273 21.9766 171.149C22.3058 171.025 22.6737 170.963 23.0804 170.963C23.4096 170.963 23.7117 171.003 23.9867 171.085C24.2655 171.162 24.5134 171.288 24.7303 171.462C24.9472 171.633 25.1311 171.861 25.2822 172.148C25.4371 172.431 25.5552 172.777 25.6366 173.188C25.7179 173.598 25.7586 174.081 25.7586 174.634ZM24.678 176.098V174.454C24.678 174.075 24.6548 173.742 24.6083 173.455C24.5657 173.165 24.5018 172.917 24.4166 172.711C24.3314 172.506 24.2229 172.34 24.0912 172.212C23.9634 172.084 23.8143 171.991 23.6439 171.933C23.4774 171.871 23.2895 171.84 23.0804 171.84C22.8248 171.84 22.5982 171.888 22.4007 171.985C22.2031 172.078 22.0366 172.227 21.901 172.433C21.7694 172.638 21.6687 172.907 21.5989 173.24C21.5292 173.573 21.4944 173.978 21.4944 174.454V176.098C21.4944 176.478 21.5157 176.813 21.5583 177.103C21.6048 177.394 21.6725 177.646 21.7616 177.859C21.8507 178.068 21.9591 178.24 22.0869 178.376C22.2148 178.511 22.3619 178.612 22.5285 178.678C22.6989 178.74 22.8867 178.771 23.092 178.771C23.3554 178.771 23.5858 178.72 23.7833 178.62C23.9809 178.519 24.1455 178.362 24.2771 178.149C24.4127 177.932 24.5134 177.655 24.5792 177.318C24.6451 176.978 24.678 176.571 24.678 176.098Z" fill="black"/>
<rect width="38.6683" height="38.6683" transform="translate(39.0205 155.64)" fill="black" fill-opacity="0.05"/>
<path d="M57.8474 178.655V179.538H52.3109V178.765L55.082 175.68C55.4228 175.301 55.6862 174.979 55.8721 174.716C56.0619 174.448 56.1936 174.21 56.2672 174.001C56.3446 173.788 56.3834 173.571 56.3834 173.35C56.3834 173.072 56.3253 172.82 56.2091 172.595C56.0967 172.367 55.9302 172.185 55.7094 172.049C55.4887 171.914 55.2214 171.846 54.9077 171.846C54.532 171.846 54.2183 171.919 53.9666 172.067C53.7187 172.21 53.5328 172.411 53.4089 172.671C53.2849 172.93 53.223 173.228 53.223 173.565H52.1482C52.1482 173.089 52.2528 172.653 52.4619 172.258C52.6711 171.863 52.9809 171.549 53.3914 171.317C53.802 171.081 54.3074 170.963 54.9077 170.963C55.4422 170.963 55.8992 171.058 56.2788 171.247C56.6583 171.433 56.9488 171.697 57.1502 172.037C57.3555 172.374 57.4581 172.769 57.4581 173.223C57.4581 173.47 57.4155 173.722 57.3303 173.978C57.249 174.23 57.1347 174.481 56.9875 174.733C56.8442 174.985 56.6758 175.233 56.4821 175.477C56.2923 175.721 56.089 175.961 55.8721 176.197L53.6064 178.655H57.8474ZM62.6488 171.032V179.538H61.5741V172.374L59.4071 173.165V172.194L62.4804 171.032H62.6488Z" fill="black"/>
<rect width="38.6683" height="38.6683" transform="translate(77.6895 155.64)" fill="black" fill-opacity="0.05"/>
<path d="M96.5163 178.655V179.538H90.9798V178.765L93.751 175.68C94.0918 175.301 94.3552 174.979 94.5411 174.716C94.7308 174.448 94.8625 174.21 94.9361 174.001C95.0136 173.788 95.0523 173.571 95.0523 173.35C95.0523 173.072 94.9942 172.82 94.878 172.595C94.7657 172.367 94.5992 172.185 94.3784 172.049C94.1576 171.914 93.8904 171.846 93.5767 171.846C93.201 171.846 92.8873 171.919 92.6355 172.067C92.3877 172.21 92.2018 172.411 92.0778 172.671C91.9539 172.93 91.8919 173.228 91.8919 173.565H90.8171C90.8171 173.089 90.9217 172.653 91.1309 172.258C91.34 171.863 91.6498 171.549 92.0604 171.317C92.4709 171.081 92.9764 170.963 93.5767 170.963C94.1112 170.963 94.5682 171.058 94.9477 171.247C95.3273 171.433 95.6178 171.697 95.8192 172.037C96.0244 172.374 96.1271 172.769 96.1271 173.223C96.1271 173.47 96.0845 173.722 95.9993 173.978C95.9179 174.23 95.8037 174.481 95.6565 174.733C95.5132 174.985 95.3447 175.233 95.1511 175.477C94.9613 175.721 94.7579 175.961 94.5411 176.197L92.2753 178.655H96.5163ZM103.328 178.655V179.538H97.7914V178.765L100.563 175.68C100.903 175.301 101.167 174.979 101.353 174.716C101.542 174.448 101.674 174.21 101.748 174.001C101.825 173.788 101.864 173.571 101.864 173.35C101.864 173.072 101.806 172.82 101.69 172.595C101.577 172.367 101.411 172.185 101.19 172.049C100.969 171.914 100.702 171.846 100.388 171.846C100.013 171.846 99.6988 171.919 99.4471 172.067C99.1992 172.21 99.0133 172.411 98.8894 172.671C98.7654 172.93 98.7035 173.228 98.7035 173.565H97.6287C97.6287 173.089 97.7333 172.653 97.9424 172.258C98.1516 171.863 98.4614 171.549 98.872 171.317C99.2825 171.081 99.7879 170.963 100.388 170.963C100.923 170.963 101.38 171.058 101.759 171.247C102.139 171.433 102.429 171.697 102.631 172.037C102.836 172.374 102.939 172.769 102.939 173.223C102.939 173.47 102.896 173.722 102.811 173.978C102.729 174.23 102.615 174.481 102.468 174.733C102.325 174.985 102.156 175.233 101.963 175.477C101.773 175.721 101.57 175.961 101.353 176.197L99.0869 178.655H103.328Z" fill="black"/>
<rect width="38.6683" height="38.6683" transform="translate(116.357 155.64)" fill="black" fill-opacity="0.05"/>
<path d="M135.185 178.655V179.538H129.649V178.765L132.42 175.68C132.761 175.301 133.024 174.979 133.21 174.716C133.4 174.448 133.531 174.21 133.605 174.001C133.683 173.788 133.721 173.571 133.721 173.35C133.721 173.072 133.663 172.82 133.547 172.595C133.435 172.367 133.268 172.185 133.047 172.049C132.827 171.914 132.559 171.846 132.246 171.846C131.87 171.846 131.556 171.919 131.304 172.067C131.057 172.21 130.871 172.411 130.747 172.671C130.623 172.93 130.561 173.228 130.561 173.565H129.486C129.486 173.089 129.591 172.653 129.8 172.258C130.009 171.863 130.319 171.549 130.729 171.317C131.14 171.081 131.645 170.963 132.246 170.963C132.78 170.963 133.237 171.058 133.617 171.247C133.996 171.433 134.287 171.697 134.488 172.037C134.693 172.374 134.796 172.769 134.796 173.223C134.796 173.47 134.753 173.722 134.668 173.978C134.587 174.23 134.473 174.481 134.325 174.733C134.182 174.985 134.014 175.233 133.82 175.477C133.63 175.721 133.427 175.961 133.21 176.197L130.944 178.655H135.185ZM138.023 174.78H138.79C139.166 174.78 139.475 174.718 139.719 174.594C139.967 174.466 140.151 174.294 140.271 174.077C140.395 173.856 140.457 173.608 140.457 173.333C140.457 173.008 140.403 172.735 140.295 172.514C140.186 172.293 140.024 172.127 139.807 172.014C139.59 171.902 139.315 171.846 138.982 171.846C138.68 171.846 138.412 171.906 138.18 172.026C137.951 172.142 137.771 172.309 137.64 172.525C137.512 172.742 137.448 172.998 137.448 173.292H136.373C136.373 172.862 136.482 172.471 136.699 172.119C136.915 171.766 137.219 171.486 137.611 171.276C138.006 171.067 138.463 170.963 138.982 170.963C139.493 170.963 139.94 171.054 140.324 171.236C140.707 171.414 141.005 171.681 141.218 172.037C141.431 172.39 141.538 172.83 141.538 173.356C141.538 173.569 141.488 173.798 141.387 174.042C141.29 174.282 141.137 174.507 140.928 174.716C140.723 174.925 140.455 175.097 140.126 175.233C139.797 175.364 139.402 175.43 138.941 175.43H138.023V174.78ZM138.023 175.663V175.018H138.941C139.479 175.018 139.925 175.082 140.277 175.209C140.63 175.337 140.907 175.508 141.108 175.721C141.313 175.934 141.457 176.168 141.538 176.424C141.623 176.675 141.666 176.927 141.666 177.179C141.666 177.574 141.598 177.924 141.462 178.23C141.331 178.536 141.143 178.796 140.899 179.009C140.659 179.222 140.376 179.383 140.051 179.491C139.725 179.6 139.371 179.654 138.987 179.654C138.62 179.654 138.273 179.602 137.948 179.497C137.626 179.392 137.341 179.241 137.094 179.044C136.846 178.842 136.652 178.596 136.513 178.306C136.373 178.012 136.303 177.677 136.303 177.301H137.378C137.378 177.595 137.442 177.853 137.57 178.074C137.702 178.294 137.888 178.467 138.128 178.591C138.372 178.711 138.658 178.771 138.987 178.771C139.317 178.771 139.599 178.715 139.836 178.602C140.076 178.486 140.26 178.312 140.388 178.079C140.519 177.847 140.585 177.555 140.585 177.202C140.585 176.85 140.512 176.561 140.364 176.337C140.217 176.108 140.008 175.94 139.737 175.831C139.47 175.719 139.154 175.663 138.79 175.663H138.023Z" fill="black"/>
<rect width="38.6683" height="38.6683" transform="translate(155.025 155.64)" fill="black" fill-opacity="0.05"/>
<path d="M173.852 178.655V179.538H168.316V178.765L171.087 175.68C171.428 175.301 171.691 174.979 171.877 174.716C172.067 174.448 172.198 174.21 172.272 174.001C172.35 173.788 172.388 173.571 172.388 173.35C172.388 173.072 172.33 172.82 172.214 172.595C172.102 172.367 171.935 172.185 171.714 172.049C171.494 171.914 171.226 171.846 170.913 171.846C170.537 171.846 170.223 171.919 169.971 172.067C169.724 172.21 169.538 172.411 169.414 172.671C169.29 172.93 169.228 173.228 169.228 173.565H168.153C168.153 173.089 168.258 172.653 168.467 172.258C168.676 171.863 168.986 171.549 169.396 171.317C169.807 171.081 170.312 170.963 170.913 170.963C171.447 170.963 171.904 171.058 172.284 171.247C172.663 171.433 172.954 171.697 173.155 172.037C173.36 172.374 173.463 172.769 173.463 173.223C173.463 173.47 173.42 173.722 173.335 173.978C173.254 174.23 173.14 174.481 172.992 174.733C172.849 174.985 172.681 175.233 172.487 175.477C172.297 175.721 172.094 175.961 171.877 176.197L169.611 178.655H173.852ZM180.838 176.691V177.574H174.726V176.941L178.514 171.079H179.392L178.45 172.775L175.946 176.691H180.838ZM179.659 171.079V179.538H178.584V171.079H179.659Z" fill="black"/>
<rect width="38.6683" height="38.6683" transform="translate(193.694 155.64)" fill="black" fill-opacity="0.05"/>
<path d="M212.521 178.655V179.538H206.985V178.765L209.756 175.68C210.097 175.301 210.36 174.979 210.546 174.716C210.736 174.448 210.867 174.21 210.941 174.001C211.018 173.788 211.057 173.571 211.057 173.35C211.057 173.072 210.999 172.82 210.883 172.595C210.771 172.367 210.604 172.185 210.383 172.049C210.163 171.914 209.895 171.846 209.582 171.846C209.206 171.846 208.892 171.919 208.64 172.067C208.393 172.21 208.207 172.411 208.083 172.671C207.959 172.93 207.897 173.228 207.897 173.565H206.822C206.822 173.089 206.927 172.653 207.136 172.258C207.345 171.863 207.655 171.549 208.065 171.317C208.476 171.081 208.981 170.963 209.582 170.963C210.116 170.963 210.573 171.058 210.953 171.247C211.332 171.433 211.623 171.697 211.824 172.037C212.029 172.374 212.132 172.769 212.132 173.223C212.132 173.47 212.089 173.722 212.004 173.978C211.923 174.23 211.809 174.481 211.661 174.733C211.518 174.985 211.35 175.233 211.156 175.477C210.966 175.721 210.763 175.961 210.546 176.197L208.28 178.655H212.521ZM215.15 175.512L214.29 175.291L214.714 171.079H219.054V172.072H215.626L215.371 174.373C215.526 174.284 215.721 174.201 215.957 174.123C216.198 174.046 216.473 174.007 216.782 174.007C217.174 174.007 217.524 174.075 217.834 174.21C218.144 174.342 218.407 174.532 218.624 174.78C218.845 175.027 219.013 175.326 219.129 175.674C219.246 176.023 219.304 176.412 219.304 176.842C219.304 177.249 219.248 177.622 219.135 177.963C219.027 178.304 218.862 178.602 218.641 178.858C218.421 179.11 218.142 179.305 217.805 179.445C217.472 179.584 217.079 179.654 216.626 179.654C216.285 179.654 215.961 179.607 215.655 179.514C215.353 179.418 215.082 179.272 214.842 179.079C214.606 178.881 214.412 178.637 214.261 178.347C214.114 178.052 214.021 177.708 213.982 177.313H215.005C215.051 177.63 215.144 177.897 215.284 178.114C215.423 178.331 215.605 178.496 215.83 178.608C216.058 178.717 216.323 178.771 216.626 178.771C216.881 178.771 217.108 178.726 217.305 178.637C217.503 178.548 217.669 178.42 217.805 178.254C217.94 178.087 218.043 177.886 218.113 177.649C218.186 177.413 218.223 177.148 218.223 176.854C218.223 176.586 218.186 176.338 218.113 176.11C218.039 175.881 217.929 175.682 217.782 175.512C217.638 175.341 217.462 175.209 217.253 175.117C217.044 175.02 216.804 174.971 216.533 174.971C216.172 174.971 215.899 175.02 215.713 175.117C215.531 175.213 215.344 175.345 215.15 175.512Z" fill="black"/>
<rect width="38.6683" height="38.6683" transform="translate(232.362 155.64)" fill="black" fill-opacity="0.38"/>
<path d="M251.19 178.655V179.538H245.654V178.765L248.425 175.68C248.766 175.301 249.029 174.979 249.215 174.716C249.405 174.448 249.536 174.21 249.61 174.001C249.687 173.788 249.726 173.571 249.726 173.35C249.726 173.072 249.668 172.82 249.552 172.595C249.44 172.367 249.273 172.185 249.052 172.049C248.831 171.914 248.564 171.846 248.251 171.846C247.875 171.846 247.561 171.919 247.309 172.067C247.061 172.21 246.876 172.411 246.752 172.671C246.628 172.93 246.566 173.228 246.566 173.565H245.491C245.491 173.089 245.596 172.653 245.805 172.258C246.014 171.863 246.324 171.549 246.734 171.317C247.145 171.081 247.65 170.963 248.251 170.963C248.785 170.963 249.242 171.058 249.622 171.247C250.001 171.433 250.292 171.697 250.493 172.037C250.698 172.374 250.801 172.769 250.801 173.223C250.801 173.47 250.758 173.722 250.673 173.978C250.592 174.23 250.477 174.481 250.33 174.733C250.187 174.985 250.019 175.233 249.825 175.477C249.635 175.721 249.432 175.961 249.215 176.197L246.949 178.655H251.19ZM256.584 171.067H256.677V171.979H256.584C256.015 171.979 255.538 172.072 255.155 172.258C254.772 172.44 254.468 172.686 254.243 172.996C254.018 173.302 253.856 173.647 253.755 174.03C253.658 174.414 253.61 174.803 253.61 175.198V176.441C253.61 176.817 253.654 177.15 253.743 177.44C253.832 177.727 253.954 177.969 254.109 178.167C254.264 178.364 254.439 178.513 254.632 178.614C254.83 178.715 255.035 178.765 255.248 178.765C255.496 178.765 255.717 178.718 255.91 178.625C256.104 178.529 256.267 178.395 256.398 178.225C256.534 178.05 256.636 177.845 256.706 177.609C256.776 177.373 256.811 177.113 256.811 176.83C256.811 176.579 256.78 176.337 256.718 176.104C256.656 175.868 256.561 175.659 256.433 175.477C256.305 175.291 256.145 175.146 255.951 175.041C255.761 174.933 255.535 174.878 255.271 174.878C254.973 174.878 254.694 174.952 254.435 175.099C254.179 175.242 253.968 175.432 253.801 175.668C253.639 175.901 253.546 176.155 253.523 176.429L252.953 176.424C253.007 175.99 253.108 175.62 253.255 175.314C253.406 175.004 253.592 174.752 253.813 174.559C254.038 174.361 254.287 174.218 254.562 174.129C254.841 174.036 255.136 173.989 255.446 173.989C255.868 173.989 256.232 174.069 256.538 174.228C256.844 174.386 257.095 174.599 257.293 174.867C257.49 175.13 257.636 175.428 257.729 175.761C257.825 176.091 257.874 176.429 257.874 176.778C257.874 177.177 257.818 177.551 257.705 177.899C257.593 178.248 257.425 178.554 257.2 178.817C256.979 179.081 256.706 179.286 256.381 179.433C256.056 179.58 255.678 179.654 255.248 179.654C254.791 179.654 254.392 179.561 254.051 179.375C253.71 179.185 253.428 178.933 253.203 178.62C252.978 178.306 252.81 177.957 252.698 177.574C252.585 177.191 252.529 176.801 252.529 176.406V175.901C252.529 175.304 252.589 174.72 252.709 174.146C252.829 173.573 253.036 173.054 253.331 172.589C253.629 172.125 254.042 171.755 254.568 171.48C255.095 171.205 255.767 171.067 256.584 171.067Z" fill="black"/>
<rect width="38.6683" height="38.6683" transform="translate(0.352539 194.308)" fill="black" fill-opacity="0.38"/>
<path d="M19.1794 217.323V218.206H13.6429V217.433L16.414 214.348C16.7549 213.969 17.0182 213.647 17.2041 213.384C17.3939 213.117 17.5256 212.878 17.5992 212.669C17.6767 212.456 17.7154 212.239 17.7154 212.019C17.7154 211.74 17.6573 211.488 17.5411 211.263C17.4288 211.035 17.2622 210.853 17.0415 210.717C16.8207 210.582 16.5535 210.514 16.2398 210.514C15.8641 210.514 15.5504 210.588 15.2986 210.735C15.0507 210.878 14.8648 211.079 14.7409 211.339C14.617 211.598 14.555 211.897 14.555 212.234H13.4802C13.4802 211.757 13.5848 211.322 13.7939 210.926C14.0031 210.531 14.3129 210.218 14.7235 209.985C15.134 209.749 15.6394 209.631 16.2398 209.631C16.7742 209.631 17.2313 209.726 17.6108 209.916C17.9904 210.101 18.2808 210.365 18.4822 210.706C18.6875 211.043 18.7901 211.438 18.7901 211.891C18.7901 212.139 18.7475 212.39 18.6623 212.646C18.581 212.898 18.4668 213.15 18.3196 213.401C18.1763 213.653 18.0078 213.901 17.8141 214.145C17.6244 214.389 17.421 214.629 17.2041 214.865L14.9384 217.323H19.1794ZM25.9154 209.747V210.351L22.4123 218.206H21.2794L24.7768 210.63H20.1988V209.747H25.9154Z" fill="black"/>
<rect width="38.6683" height="38.6683" transform="translate(39.0205 194.308)" fill="black" fill-opacity="0.05"/>
<path d="M57.8474 217.323V218.206H52.3109V217.433L55.082 214.348C55.4228 213.969 55.6862 213.647 55.8721 213.384C56.0619 213.117 56.1936 212.878 56.2672 212.669C56.3446 212.456 56.3834 212.239 56.3834 212.019C56.3834 211.74 56.3253 211.488 56.2091 211.263C56.0967 211.035 55.9302 210.853 55.7094 210.717C55.4887 210.582 55.2214 210.514 54.9077 210.514C54.532 210.514 54.2183 210.588 53.9666 210.735C53.7187 210.878 53.5328 211.079 53.4089 211.339C53.2849 211.598 53.223 211.897 53.223 212.234H52.1482C52.1482 211.757 52.2528 211.322 52.4619 210.926C52.6711 210.531 52.9809 210.218 53.3914 209.985C53.802 209.749 54.3074 209.631 54.9077 209.631C55.4422 209.631 55.8992 209.726 56.2788 209.916C56.6583 210.101 56.9488 210.365 57.1502 210.706C57.3555 211.043 57.4581 211.438 57.4581 211.891C57.4581 212.139 57.4155 212.39 57.3303 212.646C57.249 212.898 57.1347 213.15 56.9875 213.401C56.8442 213.653 56.6758 213.901 56.4821 214.145C56.2923 214.389 56.089 214.629 55.8721 214.865L53.6064 217.323H57.8474ZM64.4498 215.917C64.4498 216.432 64.3297 216.87 64.0896 217.23C63.8533 217.586 63.5319 217.857 63.1252 218.043C62.7224 218.229 62.2673 218.322 61.76 218.322C61.2526 218.322 60.7956 218.229 60.3889 218.043C59.9822 217.857 59.6608 217.586 59.4245 217.23C59.1883 216.87 59.0702 216.432 59.0702 215.917C59.0702 215.58 59.1341 215.272 59.2619 214.993C59.3935 214.71 59.5775 214.464 59.8138 214.255C60.0539 214.046 60.3366 213.885 60.662 213.773C60.9912 213.657 61.3533 213.599 61.7483 213.599C62.2673 213.599 62.7302 213.7 63.1368 213.901C63.5435 214.098 63.863 214.372 64.0954 214.72C64.3317 215.069 64.4498 215.468 64.4498 215.917ZM63.3692 215.894C63.3692 215.58 63.3014 215.303 63.1659 215.063C63.0303 214.819 62.8405 214.629 62.5965 214.494C62.3525 214.358 62.0698 214.29 61.7483 214.29C61.4191 214.29 61.1345 214.358 60.8943 214.494C60.6581 214.629 60.4741 214.819 60.3424 215.063C60.2108 215.303 60.1449 215.58 60.1449 215.894C60.1449 216.219 60.2088 216.498 60.3366 216.73C60.4683 216.959 60.6542 217.135 60.8943 217.259C61.1383 217.379 61.4269 217.439 61.76 217.439C62.093 217.439 62.3797 217.379 62.6198 217.259C62.8599 217.135 63.0439 216.959 63.1717 216.73C63.3034 216.498 63.3692 216.219 63.3692 215.894ZM64.2523 211.949C64.2523 212.359 64.1438 212.729 63.9269 213.059C63.71 213.388 63.4138 213.647 63.0381 213.837C62.6624 214.027 62.2364 214.122 61.76 214.122C61.2758 214.122 60.844 214.027 60.4644 213.837C60.0888 213.647 59.7944 213.388 59.5814 213.059C59.3684 212.729 59.2619 212.359 59.2619 211.949C59.2619 211.457 59.3684 211.039 59.5814 210.694C59.7983 210.349 60.0946 210.086 60.4702 209.904C60.8459 209.722 61.2739 209.631 61.7542 209.631C62.2383 209.631 62.6682 209.722 63.0439 209.904C63.4196 210.086 63.7139 210.349 63.9269 210.694C64.1438 211.039 64.2523 211.457 64.2523 211.949ZM63.1775 211.966C63.1775 211.684 63.1175 211.434 62.9974 211.217C62.8773 211 62.7108 210.83 62.4978 210.706C62.2848 210.578 62.0369 210.514 61.7542 210.514C61.4714 210.514 61.2236 210.574 61.0105 210.694C60.8014 210.81 60.6368 210.977 60.5167 211.194C60.4005 211.411 60.3424 211.668 60.3424 211.966C60.3424 212.257 60.4005 212.511 60.5167 212.727C60.6368 212.944 60.8033 213.113 61.0163 213.233C61.2294 213.353 61.4772 213.413 61.76 213.413C62.0427 213.413 62.2886 213.353 62.4978 213.233C62.7108 213.113 62.8773 212.944 62.9974 212.727C63.1175 212.511 63.1775 212.257 63.1775 211.966Z" fill="black"/>
<rect width="38.6683" height="38.6683" transform="translate(77.6895 194.308)" fill="black" fill-opacity="0.05"/>
<path d="M96.5163 217.323V218.206H90.9798V217.433L93.751 214.348C94.0918 213.969 94.3552 213.647 94.5411 213.384C94.7308 213.117 94.8625 212.878 94.9361 212.669C95.0136 212.456 95.0523 212.239 95.0523 212.019C95.0523 211.74 94.9942 211.488 94.878 211.263C94.7657 211.035 94.5992 210.853 94.3784 210.717C94.1576 210.582 93.8904 210.514 93.5767 210.514C93.201 210.514 92.8873 210.588 92.6355 210.735C92.3877 210.878 92.2018 211.079 92.0778 211.339C91.9539 211.598 91.8919 211.897 91.8919 212.234H90.8171C90.8171 211.757 90.9217 211.322 91.1309 210.926C91.34 210.531 91.6498 210.218 92.0604 209.985C92.4709 209.749 92.9764 209.631 93.5767 209.631C94.1112 209.631 94.5682 209.726 94.9477 209.916C95.3273 210.101 95.6178 210.365 95.8192 210.706C96.0244 211.043 96.1271 211.438 96.1271 211.891C96.1271 212.139 96.0845 212.39 95.9993 212.646C95.9179 212.898 95.8037 213.15 95.6565 213.401C95.5132 213.653 95.3447 213.901 95.1511 214.145C94.9613 214.389 94.7579 214.629 94.5411 214.865L92.2753 217.323H96.5163ZM98.8545 217.305H98.9649C99.5846 217.305 100.088 217.218 100.475 217.044C100.863 216.87 101.161 216.635 101.37 216.341C101.579 216.047 101.723 215.715 101.8 215.348C101.877 214.976 101.916 214.594 101.916 214.203V212.908C101.916 212.524 101.872 212.183 101.783 211.885C101.697 211.587 101.577 211.337 101.422 211.136C101.271 210.934 101.099 210.781 100.905 210.677C100.712 210.572 100.506 210.52 100.289 210.52C100.042 210.52 99.8189 210.57 99.6214 210.671C99.4277 210.768 99.2631 210.905 99.1276 211.083C98.9959 211.261 98.8952 211.471 98.8255 211.711C98.7558 211.951 98.7209 212.212 98.7209 212.495C98.7209 212.747 98.7519 212.991 98.8139 213.227C98.8758 213.463 98.9707 213.676 99.0985 213.866C99.2263 214.056 99.3851 214.207 99.5749 214.319C99.7686 214.428 99.9951 214.482 100.255 214.482C100.495 214.482 100.719 214.435 100.929 214.342C101.142 214.246 101.329 214.116 101.492 213.953C101.659 213.787 101.79 213.599 101.887 213.39C101.988 213.181 102.046 212.962 102.061 212.733H102.573C102.573 213.055 102.509 213.372 102.381 213.686C102.257 213.996 102.083 214.279 101.858 214.534C101.633 214.79 101.37 214.995 101.068 215.15C100.766 215.301 100.437 215.377 100.08 215.377C99.6621 215.377 99.2999 215.295 98.994 215.133C98.688 214.97 98.4362 214.753 98.2387 214.482C98.0451 214.211 97.8998 213.909 97.803 213.576C97.71 213.239 97.6636 212.898 97.6636 212.553C97.6636 212.15 97.7197 211.773 97.832 211.42C97.9444 211.068 98.1109 210.758 98.3317 210.491C98.5524 210.22 98.8255 210.009 99.1508 209.857C99.48 209.706 99.8596 209.631 100.289 209.631C100.774 209.631 101.186 209.728 101.527 209.921C101.868 210.115 102.145 210.375 102.358 210.7C102.575 211.025 102.733 211.391 102.834 211.798C102.935 212.205 102.985 212.623 102.985 213.053V213.442C102.985 213.88 102.956 214.325 102.898 214.778C102.844 215.227 102.737 215.657 102.578 216.068C102.424 216.478 102.197 216.846 101.899 217.172C101.601 217.493 101.211 217.749 100.731 217.939C100.255 218.124 99.6659 218.217 98.9649 218.217H98.8545V217.305Z" fill="black"/>
<rect width="38.6683" height="38.6683" transform="translate(116.357 194.308)" fill="black" fill-opacity="0.05"/>
<path d="M131.212 213.448H131.978C132.354 213.448 132.664 213.386 132.908 213.262C133.156 213.134 133.34 212.962 133.46 212.745C133.584 212.524 133.646 212.276 133.646 212.001C133.646 211.676 133.591 211.403 133.483 211.182C133.375 210.961 133.212 210.795 132.995 210.682C132.778 210.57 132.503 210.514 132.17 210.514C131.868 210.514 131.601 210.574 131.368 210.694C131.14 210.81 130.96 210.977 130.828 211.194C130.7 211.411 130.636 211.666 130.636 211.961H129.562C129.562 211.531 129.67 211.139 129.887 210.787C130.104 210.435 130.408 210.154 130.799 209.945C131.194 209.735 131.651 209.631 132.17 209.631C132.681 209.631 133.129 209.722 133.512 209.904C133.896 210.082 134.194 210.349 134.407 210.706C134.62 211.058 134.726 211.498 134.726 212.024C134.726 212.237 134.676 212.466 134.575 212.71C134.478 212.95 134.325 213.175 134.116 213.384C133.911 213.593 133.644 213.765 133.315 213.901C132.985 214.033 132.59 214.098 132.129 214.098H131.212V213.448ZM131.212 214.331V213.686H132.129C132.668 213.686 133.113 213.75 133.466 213.878C133.818 214.006 134.095 214.176 134.296 214.389C134.502 214.602 134.645 214.836 134.726 215.092C134.812 215.344 134.854 215.595 134.854 215.847C134.854 216.242 134.786 216.593 134.651 216.899C134.519 217.205 134.331 217.464 134.087 217.677C133.847 217.89 133.564 218.051 133.239 218.159C132.914 218.268 132.559 218.322 132.176 218.322C131.808 218.322 131.461 218.27 131.136 218.165C130.815 218.061 130.53 217.91 130.282 217.712C130.034 217.511 129.84 217.265 129.701 216.974C129.562 216.68 129.492 216.345 129.492 215.969H130.567C130.567 216.263 130.631 216.521 130.758 216.742C130.89 216.963 131.076 217.135 131.316 217.259C131.56 217.379 131.847 217.439 132.176 217.439C132.505 217.439 132.788 217.383 133.024 217.27C133.264 217.154 133.448 216.98 133.576 216.748C133.708 216.515 133.774 216.223 133.774 215.87C133.774 215.518 133.7 215.229 133.553 215.005C133.406 214.776 133.196 214.608 132.925 214.499C132.658 214.387 132.342 214.331 131.978 214.331H131.212ZM141.764 213.303V214.592C141.764 215.286 141.702 215.87 141.579 216.347C141.455 216.823 141.276 217.207 141.044 217.497C140.812 217.788 140.531 217.999 140.202 218.13C139.876 218.258 139.508 218.322 139.098 218.322C138.773 218.322 138.472 218.281 138.197 218.2C137.922 218.119 137.675 217.989 137.454 217.811C137.237 217.629 137.051 217.392 136.896 217.102C136.741 216.812 136.623 216.459 136.542 216.045C136.46 215.63 136.42 215.146 136.42 214.592V213.303C136.42 212.609 136.482 212.028 136.606 211.56C136.733 211.091 136.913 210.715 137.146 210.433C137.378 210.146 137.657 209.941 137.982 209.817C138.312 209.693 138.68 209.631 139.086 209.631C139.415 209.631 139.718 209.672 139.993 209.753C140.271 209.83 140.519 209.956 140.736 210.131C140.953 210.301 141.137 210.529 141.288 210.816C141.443 211.099 141.561 211.445 141.642 211.856C141.724 212.267 141.764 212.749 141.764 213.303ZM140.684 214.767V213.122C140.684 212.743 140.661 212.41 140.614 212.123C140.572 211.833 140.508 211.585 140.422 211.38C140.337 211.174 140.229 211.008 140.097 210.88C139.969 210.752 139.82 210.659 139.65 210.601C139.483 210.539 139.295 210.508 139.086 210.508C138.831 210.508 138.604 210.557 138.407 210.653C138.209 210.746 138.042 210.895 137.907 211.101C137.775 211.306 137.675 211.575 137.605 211.908C137.535 212.241 137.5 212.646 137.5 213.122V214.767C137.5 215.146 137.522 215.481 137.564 215.772C137.611 216.062 137.678 216.314 137.767 216.527C137.857 216.736 137.965 216.908 138.093 217.044C138.221 217.179 138.368 217.28 138.534 217.346C138.705 217.408 138.893 217.439 139.098 217.439C139.361 217.439 139.592 217.389 139.789 217.288C139.987 217.187 140.151 217.03 140.283 216.817C140.419 216.6 140.519 216.324 140.585 215.987C140.651 215.646 140.684 215.239 140.684 214.767Z" fill="black"/>
</g>
<defs>
<clipPath id="clip0_932_4214">
<rect x="0.352539" y="0.966309" width="270.678" height="270.678" rx="11.8979" fill="white"/>
</clipPath>
</defs>
</svg>
