<svg width="272" height="272" viewBox="0 0 272 272" fill="none" xmlns="http://www.w3.org/2000/svg">
<g clip-path="url(#clip0_932_3458)">
<rect width="270.678" height="38.6683" transform="translate(0.673828 0.966309)" fill="black"/>
<path d="M19.4679 24.8643H17.6438L17.6554 23.6094H19.4679C19.9598 23.6094 20.3723 23.501 20.7054 23.2841C21.0385 23.0633 21.2902 22.7476 21.4606 22.3371C21.631 21.9227 21.7162 21.4269 21.7162 20.8499V20.4141C21.7162 19.9688 21.6678 19.5756 21.571 19.2348C21.4742 18.894 21.3309 18.6074 21.1411 18.375C20.9552 18.1426 20.7247 17.9664 20.4498 17.8463C20.1748 17.7263 19.8591 17.6662 19.5028 17.6662H17.6089V16.4056H19.5028C20.0683 16.4056 20.5834 16.5005 21.0481 16.6902C21.5168 16.88 21.9215 17.1531 22.2623 17.5094C22.607 17.8618 22.8704 18.284 23.0524 18.7759C23.2383 19.2677 23.3313 19.8177 23.3313 20.4258V20.8499C23.3313 21.4541 23.2383 22.004 23.0524 22.4998C22.8704 22.9916 22.607 23.4138 22.2623 23.7663C21.9215 24.1187 21.5148 24.3898 21.0423 24.5796C20.5698 24.7694 20.045 24.8643 19.4679 24.8643ZM18.5384 16.4056V24.8643H16.9408V16.4056H18.5384Z" fill="white"/>
<path d="M60.2796 22.6683C60.2796 22.5056 60.2545 22.3603 60.2041 22.2325C60.1576 22.1009 60.0705 21.9827 59.9427 21.8782C59.8187 21.7697 59.6425 21.6651 59.414 21.5644C59.1894 21.4599 58.8989 21.3514 58.5426 21.2391C58.1475 21.1152 57.7796 20.9757 57.4388 20.8208C57.0979 20.6659 56.7978 20.4858 56.5383 20.2805C56.2827 20.0753 56.0832 19.839 55.9399 19.5718C55.7966 19.3007 55.725 18.9869 55.725 18.6306C55.725 18.282 55.7985 17.9645 55.9457 17.6779C56.0968 17.3913 56.3098 17.1453 56.5848 16.94C56.8598 16.7309 57.1832 16.5702 57.555 16.4579C57.9306 16.3455 58.3451 16.2894 58.7982 16.2894C59.4256 16.2894 59.9679 16.4036 60.4249 16.6321C60.8858 16.8606 61.2421 17.1705 61.4938 17.5617C61.7456 17.9528 61.8715 18.3924 61.8715 18.8804H60.2796C60.2796 18.6171 60.2235 18.3847 60.1112 18.1833C60.0027 17.9819 59.8362 17.8231 59.6115 17.7069C59.3908 17.5907 59.1119 17.5326 58.775 17.5326C58.4496 17.5326 58.1785 17.581 57.9616 17.6779C57.7486 17.7747 57.5879 17.9064 57.4794 18.0729C57.3749 18.2394 57.3226 18.4253 57.3226 18.6306C57.3226 18.7855 57.3594 18.925 57.433 19.0489C57.5066 19.169 57.6169 19.2832 57.7641 19.3917C57.9113 19.4962 58.0933 19.595 58.3102 19.688C58.531 19.777 58.7866 19.8661 59.0771 19.9552C59.5418 20.0946 59.9485 20.2495 60.2971 20.42C60.6495 20.5904 60.9419 20.784 61.1743 21.0009C61.4106 21.2178 61.5868 21.4618 61.703 21.7329C61.823 22.004 61.8831 22.3119 61.8831 22.6566C61.8831 23.0207 61.8114 23.346 61.6681 23.6326C61.5248 23.9192 61.3195 24.1632 61.0523 24.3646C60.7851 24.566 60.4636 24.719 60.0879 24.8236C59.7161 24.9282 59.2998 24.9804 58.8389 24.9804C58.4283 24.9804 58.0217 24.9262 57.6189 24.8178C57.2199 24.7055 56.8578 24.5389 56.5325 24.3182C56.2071 24.0935 55.9477 23.8108 55.754 23.47C55.5604 23.1253 55.4635 22.7225 55.4635 22.2616H57.067C57.067 22.5288 57.1096 22.7573 57.1948 22.9471C57.2839 23.133 57.4078 23.286 57.5666 23.4061C57.7292 23.5223 57.919 23.6075 58.1359 23.6617C58.3528 23.7159 58.5871 23.743 58.8389 23.743C59.1642 23.743 59.4314 23.6985 59.6406 23.6094C59.8536 23.5164 60.0124 23.3886 60.117 23.226C60.2254 23.0633 60.2796 22.8774 60.2796 22.6683Z" fill="white"/>
<path d="M98.1236 16.4056V24.8643H96.5318V16.4056H98.1236ZM100.75 16.4056V17.6662H93.9349V16.4056H100.75Z" fill="white"/>
<path d="M137.256 23.6733L139.51 25.4626L138.488 26.3515L136.269 24.5738L137.256 23.6733ZM139.551 20.42V20.8557C139.551 21.4947 139.466 22.0699 139.296 22.5811C139.125 23.0885 138.881 23.5203 138.564 23.8766C138.25 24.233 137.876 24.506 137.442 24.6958C137.008 24.8856 136.528 24.9804 136.001 24.9804C135.479 24.9804 134.998 24.8856 134.561 24.6958C134.127 24.506 133.751 24.233 133.434 23.8766C133.116 23.5203 132.87 23.0885 132.696 22.5811C132.522 22.0699 132.434 21.4947 132.434 20.8557V20.42C132.434 19.777 132.52 19.2019 132.69 18.6945C132.864 18.1872 133.108 17.7553 133.422 17.399C133.74 17.0388 134.115 16.7638 134.549 16.574C134.987 16.3843 135.467 16.2894 135.99 16.2894C136.517 16.2894 136.997 16.3843 137.431 16.574C137.868 16.7638 138.244 17.0388 138.558 17.399C138.875 17.7553 139.119 18.1872 139.29 18.6945C139.464 19.2019 139.551 19.777 139.551 20.42ZM137.936 20.8557V20.4083C137.936 19.9474 137.893 19.5427 137.808 19.1941C137.723 18.8417 137.595 18.5454 137.425 18.3053C137.258 18.0652 137.055 17.8851 136.815 17.765C136.575 17.6411 136.3 17.5791 135.99 17.5791C135.684 17.5791 135.411 17.6411 135.171 17.765C134.931 17.8851 134.727 18.0652 134.561 18.3053C134.394 18.5454 134.266 18.8417 134.177 19.1941C134.092 19.5427 134.049 19.9474 134.049 20.4083V20.8557C134.049 21.3127 134.092 21.7174 134.177 22.0699C134.266 22.4223 134.394 22.7205 134.561 22.9645C134.731 23.2047 134.936 23.3867 135.177 23.5106C135.421 23.6346 135.696 23.6965 136.001 23.6965C136.311 23.6965 136.586 23.6346 136.826 23.5106C137.067 23.3867 137.268 23.2047 137.431 22.9645C137.597 22.7205 137.723 22.4223 137.808 22.0699C137.893 21.7174 137.936 21.3127 137.936 20.8557Z" fill="white"/>
<path d="M175.924 23.6733L178.178 25.4626L177.156 26.3515L174.937 24.5738L175.924 23.6733ZM178.219 20.42V20.8557C178.219 21.4947 178.134 22.0699 177.963 22.5811C177.793 23.0885 177.549 23.5203 177.231 23.8766C176.918 24.233 176.544 24.506 176.11 24.6958C175.676 24.8856 175.196 24.9804 174.669 24.9804C174.147 24.9804 173.666 24.8856 173.229 24.6958C172.795 24.506 172.419 24.233 172.102 23.8766C171.784 23.5203 171.538 23.0885 171.364 22.5811C171.19 22.0699 171.102 21.4947 171.102 20.8557V20.42C171.102 19.777 171.188 19.2019 171.358 18.6945C171.532 18.1872 171.776 17.7553 172.09 17.399C172.408 17.0388 172.783 16.7638 173.217 16.574C173.655 16.3843 174.135 16.2894 174.658 16.2894C175.185 16.2894 175.665 16.3843 176.099 16.574C176.536 16.7638 176.912 17.0388 177.226 17.399C177.543 17.7553 177.787 18.1872 177.958 18.6945C178.132 19.2019 178.219 19.777 178.219 20.42ZM176.604 20.8557V20.4083C176.604 19.9474 176.561 19.5427 176.476 19.1941C176.391 18.8417 176.263 18.5454 176.093 18.3053C175.926 18.0652 175.723 17.8851 175.483 17.765C175.243 17.6411 174.968 17.5791 174.658 17.5791C174.352 17.5791 174.079 17.6411 173.839 17.765C173.599 17.8851 173.395 18.0652 173.229 18.3053C173.062 18.5454 172.934 18.8417 172.845 19.1941C172.76 19.5427 172.717 19.9474 172.717 20.4083V20.8557C172.717 21.3127 172.76 21.7174 172.845 22.0699C172.934 22.4223 173.062 22.7205 173.229 22.9645C173.399 23.2047 173.604 23.3867 173.845 23.5106C174.089 23.6346 174.363 23.6965 174.669 23.6965C174.979 23.6965 175.254 23.6346 175.494 23.5106C175.735 23.3867 175.936 23.2047 176.099 22.9645C176.265 22.7205 176.391 22.4223 176.476 22.0699C176.561 21.7174 176.604 21.3127 176.604 20.8557Z" fill="white"/>
<path d="M214.953 22.6683C214.953 22.5056 214.928 22.3603 214.878 22.2325C214.831 22.1009 214.744 21.9827 214.617 21.8782C214.493 21.7697 214.316 21.6651 214.088 21.5644C213.863 21.4599 213.573 21.3514 213.216 21.2391C212.821 21.1152 212.453 20.9757 212.113 20.8208C211.772 20.6659 211.472 20.4858 211.212 20.2805C210.957 20.0753 210.757 19.839 210.614 19.5718C210.47 19.3007 210.399 18.9869 210.399 18.6306C210.399 18.282 210.472 17.9645 210.62 17.6779C210.771 17.3913 210.984 17.1453 211.259 16.94C211.534 16.7309 211.857 16.5702 212.229 16.4579C212.604 16.3455 213.019 16.2894 213.472 16.2894C214.099 16.2894 214.642 16.4036 215.099 16.6321C215.56 16.8606 215.916 17.1705 216.168 17.5617C216.419 17.9528 216.545 18.3924 216.545 18.8804H214.953C214.953 18.6171 214.897 18.3847 214.785 18.1833C214.677 17.9819 214.51 17.8231 214.285 17.7069C214.065 17.5907 213.786 17.5326 213.449 17.5326C213.123 17.5326 212.852 17.581 212.635 17.6779C212.422 17.7747 212.262 17.9064 212.153 18.0729C212.049 18.2394 211.996 18.4253 211.996 18.6306C211.996 18.7855 212.033 18.925 212.107 19.0489C212.18 19.169 212.291 19.2832 212.438 19.3917C212.585 19.4962 212.767 19.595 212.984 19.688C213.205 19.777 213.46 19.8661 213.751 19.9552C214.216 20.0946 214.622 20.2495 214.971 20.42C215.323 20.5904 215.616 20.784 215.848 21.0009C216.084 21.2178 216.261 21.4618 216.377 21.7329C216.497 22.004 216.557 22.3119 216.557 22.6566C216.557 23.0207 216.485 23.346 216.342 23.6326C216.199 23.9192 215.993 24.1632 215.726 24.3646C215.459 24.566 215.137 24.719 214.762 24.8236C214.39 24.9282 213.974 24.9804 213.513 24.9804C213.102 24.9804 212.695 24.9262 212.293 24.8178C211.894 24.7055 211.532 24.5389 211.206 24.3182C210.881 24.0935 210.621 23.8108 210.428 23.47C210.234 23.1253 210.137 22.7225 210.137 22.2616H211.741C211.741 22.5288 211.783 22.7573 211.869 22.9471C211.958 23.133 212.082 23.286 212.24 23.4061C212.403 23.5223 212.593 23.6075 212.81 23.6617C213.027 23.7159 213.261 23.743 213.513 23.743C213.838 23.743 214.105 23.6985 214.314 23.6094C214.527 23.5164 214.686 23.3886 214.791 23.226C214.899 23.0633 214.953 22.8774 214.953 22.6683Z" fill="white"/>
<path d="M253.621 22.6683C253.621 22.5056 253.596 22.3603 253.546 22.2325C253.499 22.1009 253.412 21.9827 253.284 21.8782C253.161 21.7697 252.984 21.6651 252.756 21.5644C252.531 21.4599 252.241 21.3514 251.884 21.2391C251.489 21.1152 251.121 20.9757 250.781 20.8208C250.44 20.6659 250.14 20.4858 249.88 20.2805C249.624 20.0753 249.425 19.839 249.282 19.5718C249.138 19.3007 249.067 18.9869 249.067 18.6306C249.067 18.282 249.14 17.9645 249.288 17.6779C249.439 17.3913 249.652 17.1453 249.927 16.94C250.202 16.7309 250.525 16.5702 250.897 16.4579C251.272 16.3455 251.687 16.2894 252.14 16.2894C252.767 16.2894 253.31 16.4036 253.767 16.6321C254.228 16.8606 254.584 17.1705 254.836 17.5617C255.087 17.9528 255.213 18.3924 255.213 18.8804H253.621C253.621 18.6171 253.565 18.3847 253.453 18.1833C253.345 17.9819 253.178 17.8231 252.953 17.7069C252.733 17.5907 252.454 17.5326 252.117 17.5326C251.791 17.5326 251.52 17.581 251.303 17.6779C251.09 17.7747 250.93 17.9064 250.821 18.0729C250.717 18.2394 250.664 18.4253 250.664 18.6306C250.664 18.7855 250.701 18.925 250.775 19.0489C250.848 19.169 250.959 19.2832 251.106 19.3917C251.253 19.4962 251.435 19.595 251.652 19.688C251.873 19.777 252.128 19.8661 252.419 19.9552C252.884 20.0946 253.29 20.2495 253.639 20.42C253.991 20.5904 254.284 20.784 254.516 21.0009C254.752 21.2178 254.929 21.4618 255.045 21.7329C255.165 22.004 255.225 22.3119 255.225 22.6566C255.225 23.0207 255.153 23.346 255.01 23.6326C254.867 23.9192 254.661 24.1632 254.394 24.3646C254.127 24.566 253.805 24.719 253.43 24.8236C253.058 24.9282 252.642 24.9804 252.181 24.9804C251.77 24.9804 251.363 24.9262 250.961 24.8178C250.562 24.7055 250.2 24.5389 249.874 24.3182C249.549 24.0935 249.289 23.8108 249.096 23.47C248.902 23.1253 248.805 22.7225 248.805 22.2616H250.409C250.409 22.5288 250.451 22.7573 250.537 22.9471C250.626 23.133 250.75 23.286 250.908 23.4061C251.071 23.5223 251.261 23.6075 251.478 23.6617C251.695 23.7159 251.929 23.743 252.181 23.743C252.506 23.743 252.773 23.6985 252.982 23.6094C253.195 23.5164 253.354 23.3886 253.459 23.226C253.567 23.0633 253.621 22.8774 253.621 22.6683Z" fill="white"/>
<rect width="38.6683" height="38.6683" transform="translate(232.684 39.6348)" fill="black" fill-opacity="0.38"/>
<path d="M252.907 55.0275V63.5327H251.832V56.3695L249.665 57.1596V56.1895L252.739 55.0275H252.907Z" fill="black"/>
<rect width="38.6683" height="38.6683" transform="translate(0.673828 78.303)" fill="black" fill-opacity="0.38"/>
<path d="M22.9065 101.318V102.201H17.37V101.428L20.1411 98.3434C20.4819 97.9638 20.7453 97.6424 20.9312 97.379C21.121 97.1118 21.2527 96.8736 21.3263 96.6644C21.4037 96.4514 21.4425 96.2345 21.4425 96.0138C21.4425 95.7349 21.3844 95.4832 21.2682 95.2585C21.1559 95.03 20.9893 94.848 20.7686 94.7124C20.5478 94.5769 20.2806 94.5091 19.9668 94.5091C19.5912 94.5091 19.2774 94.5827 19.0257 94.7299C18.7778 94.8732 18.5919 95.0746 18.468 95.334C18.344 95.5935 18.2821 95.8918 18.2821 96.2287H17.2073C17.2073 95.7523 17.3119 95.3166 17.521 94.9216C17.7302 94.5265 18.04 94.2128 18.4505 93.9804C18.8611 93.7442 19.3665 93.626 19.9668 93.626C20.5013 93.626 20.9583 93.7209 21.3379 93.9107C21.7174 94.0966 22.0079 94.36 22.2093 94.7008C22.4146 95.0378 22.5172 95.4328 22.5172 95.886C22.5172 96.1338 22.4746 96.3856 22.3894 96.6412C22.3081 96.8929 22.1938 97.1447 22.0467 97.3964C21.9033 97.6482 21.7349 97.8961 21.5412 98.1401C21.3514 98.3841 21.1481 98.6242 20.9312 98.8604L18.6655 101.318H22.9065Z" fill="black"/>
<rect width="38.6683" height="38.6683" transform="translate(39.3418 78.303)" fill="black" fill-opacity="0.05"/>
<path d="M57.6007 97.4429H58.3676C58.7432 97.4429 59.0531 97.3809 59.2971 97.257C59.545 97.1292 59.7289 96.9568 59.849 96.74C59.9729 96.5192 60.0349 96.2713 60.0349 95.9963C60.0349 95.671 59.9807 95.398 59.8722 95.1772C59.7638 94.9564 59.6011 94.7899 59.3842 94.6776C59.1673 94.5653 58.8924 94.5091 58.5593 94.5091C58.2572 94.5091 57.9899 94.5691 57.7576 94.6892C57.5291 94.8054 57.349 94.9719 57.2173 95.1888C57.0895 95.4057 57.0256 95.6613 57.0256 95.9557H55.9508C55.9508 95.5258 56.0592 95.1346 56.2761 94.7821C56.493 94.4297 56.7971 94.1489 57.1882 93.9398C57.5833 93.7306 58.0403 93.626 58.5593 93.626C59.0705 93.626 59.5179 93.7171 59.9013 93.8991C60.2847 94.0773 60.5829 94.3445 60.796 94.7008C61.009 95.0533 61.1155 95.4928 61.1155 96.0196C61.1155 96.2326 61.0651 96.4611 60.9644 96.7051C60.8676 96.9452 60.7146 97.1699 60.5055 97.379C60.3002 97.5882 60.033 97.7605 59.7038 97.8961C59.3746 98.0277 58.9795 98.0936 58.5186 98.0936H57.6007V97.4429ZM57.6007 98.326V97.6811H58.5186C59.057 97.6811 59.5024 97.745 59.8548 97.8728C60.2073 98.0006 60.4842 98.171 60.6856 98.3841C60.8908 98.5971 61.0341 98.8314 61.1155 99.087C61.2007 99.3388 61.2433 99.5905 61.2433 99.8423C61.2433 100.237 61.1755 100.588 61.04 100.894C60.9083 101.2 60.7204 101.459 60.4764 101.672C60.2363 101.885 59.9536 102.046 59.6282 102.154C59.3029 102.263 58.9485 102.317 58.5651 102.317C58.1972 102.317 57.8505 102.265 57.5252 102.16C57.2037 102.056 56.9191 101.905 56.6712 101.707C56.4233 101.506 56.2297 101.26 56.0902 100.969C55.9508 100.675 55.8811 100.34 55.8811 99.9643H56.9558C56.9558 100.259 57.0198 100.516 57.1476 100.737C57.2792 100.958 57.4651 101.13 57.7053 101.254C57.9493 101.374 58.2359 101.434 58.5651 101.434C58.8943 101.434 59.177 101.378 59.4133 101.266C59.6534 101.149 59.8374 100.975 59.9652 100.743C60.0969 100.51 60.1627 100.218 60.1627 99.8655C60.1627 99.513 60.0891 99.2245 59.942 98.9999C59.7948 98.7714 59.5856 98.6029 59.3145 98.4944C59.0473 98.3821 58.7316 98.326 58.3676 98.326H57.6007Z" fill="black"/>
<rect width="38.6683" height="38.6683" transform="translate(78.0107 78.303)" fill="black" fill-opacity="0.05"/>
<path d="M100.418 99.3543V100.237H94.306V99.6041L98.0938 93.7422H98.9711L98.0299 95.4386L95.526 99.3543H100.418ZM99.2383 93.7422V102.201H98.1636V93.7422H99.2383Z" fill="black"/>
<rect width="38.6683" height="38.6683" transform="translate(116.679 78.303)" fill="black" fill-opacity="0.05"/>
<path d="M134.729 98.1749L133.87 97.9542L134.294 93.7422H138.633V94.7357H135.206L134.95 97.0362C135.105 96.9472 135.301 96.8639 135.537 96.7864C135.777 96.709 136.052 96.6702 136.362 96.6702C136.753 96.6702 137.104 96.738 137.413 96.8736C137.723 97.0053 137.987 97.195 138.204 97.4429C138.424 97.6908 138.593 97.989 138.709 98.3376C138.825 98.6862 138.883 99.0754 138.883 99.5053C138.883 99.912 138.827 100.286 138.715 100.627C138.606 100.967 138.442 101.266 138.221 101.521C138 101.773 137.721 101.969 137.384 102.108C137.051 102.247 136.658 102.317 136.205 102.317C135.864 102.317 135.541 102.271 135.235 102.178C134.933 102.081 134.662 101.936 134.422 101.742C134.185 101.544 133.992 101.3 133.841 101.01C133.693 100.716 133.6 100.371 133.562 99.9759H134.584C134.631 100.293 134.724 100.561 134.863 100.778C135.003 100.994 135.185 101.159 135.409 101.271C135.638 101.38 135.903 101.434 136.205 101.434C136.461 101.434 136.687 101.39 136.885 101.3C137.082 101.211 137.249 101.084 137.384 100.917C137.52 100.75 137.623 100.549 137.692 100.313C137.766 100.077 137.803 99.8113 137.803 99.5169C137.803 99.2497 137.766 99.0018 137.692 98.7733C137.619 98.5448 137.508 98.3453 137.361 98.1749C137.218 98.0045 137.042 97.8728 136.833 97.7799C136.623 97.683 136.383 97.6346 136.112 97.6346C135.752 97.6346 135.479 97.683 135.293 97.7799C135.111 97.8767 134.923 98.0084 134.729 98.1749Z" fill="black"/>
<rect width="38.6683" height="38.6683" transform="translate(155.347 78.303)" fill="black" fill-opacity="0.05"/>
<path d="M176.162 93.7306H176.255V94.6427H176.162C175.592 94.6427 175.116 94.7357 174.733 94.9216C174.349 95.1036 174.045 95.3495 173.821 95.6594C173.596 95.9654 173.433 96.3101 173.333 96.6935C173.236 97.0769 173.187 97.4662 173.187 97.8612V99.1044C173.187 99.4801 173.232 99.8132 173.321 100.104C173.41 100.39 173.532 100.632 173.687 100.83C173.842 101.027 174.016 101.177 174.21 101.277C174.407 101.378 174.613 101.428 174.826 101.428C175.073 101.428 175.294 101.382 175.488 101.289C175.682 101.192 175.844 101.058 175.976 100.888C176.111 100.714 176.214 100.508 176.284 100.272C176.354 100.036 176.388 99.7764 176.388 99.4937C176.388 99.2419 176.357 98.9999 176.295 98.7675C176.233 98.5312 176.139 98.3221 176.011 98.1401C175.883 97.9542 175.722 97.8089 175.529 97.7043C175.339 97.5959 175.112 97.5417 174.849 97.5417C174.551 97.5417 174.272 97.6153 174.012 97.7624C173.757 97.9057 173.546 98.0955 173.379 98.3318C173.216 98.5642 173.123 98.8178 173.1 99.0928L172.531 99.087C172.585 98.6532 172.686 98.2834 172.833 97.9774C172.984 97.6675 173.17 97.4158 173.391 97.2222C173.615 97.0246 173.865 96.8813 174.14 96.7922C174.419 96.6993 174.713 96.6528 175.023 96.6528C175.445 96.6528 175.809 96.7322 176.115 96.891C176.421 97.0498 176.673 97.2628 176.871 97.5301C177.068 97.7934 177.213 98.0916 177.306 98.4247C177.403 98.7539 177.452 99.0928 177.452 99.4414C177.452 99.8403 177.395 100.214 177.283 100.563C177.171 100.911 177.002 101.217 176.778 101.481C176.557 101.744 176.284 101.949 175.958 102.096C175.633 102.244 175.255 102.317 174.826 102.317C174.369 102.317 173.97 102.224 173.629 102.038C173.288 101.848 173.005 101.597 172.781 101.283C172.556 100.969 172.388 100.621 172.275 100.237C172.163 99.8539 172.107 99.4646 172.107 99.0696V98.5642C172.107 97.9677 172.167 97.3829 172.287 96.8097C172.407 96.2365 172.614 95.7175 172.908 95.2527C173.207 94.788 173.619 94.4181 174.146 94.1431C174.673 93.8681 175.345 93.7306 176.162 93.7306Z" fill="black"/>
<rect width="38.6683" height="38.6683" transform="translate(194.016 78.303)" fill="black" fill-opacity="0.05"/>
<path d="M216.173 93.7422V94.3464L212.67 102.201H211.537L215.034 94.6253H210.456V93.7422H216.173Z" fill="black"/>
<rect width="38.6683" height="38.6683" transform="translate(232.684 78.303)" fill="black" fill-opacity="0.38"/>
<path d="M254.708 99.912C254.708 100.427 254.588 100.865 254.348 101.225C254.112 101.581 253.79 101.852 253.383 102.038C252.981 102.224 252.526 102.317 252.018 102.317C251.511 102.317 251.054 102.224 250.647 102.038C250.241 101.852 249.919 101.581 249.683 101.225C249.447 100.865 249.328 100.427 249.328 99.912C249.328 99.575 249.392 99.2671 249.52 98.9883C249.652 98.7055 249.836 98.4596 250.072 98.2504C250.312 98.0413 250.595 97.8806 250.92 97.7682C251.249 97.6521 251.612 97.594 252.007 97.594C252.526 97.594 252.988 97.6947 253.395 97.8961C253.802 98.0936 254.121 98.3666 254.354 98.7152C254.59 99.0638 254.708 99.4627 254.708 99.912ZM253.627 99.8887C253.627 99.575 253.56 99.2981 253.424 99.058C253.289 98.814 253.099 98.6242 252.855 98.4886C252.611 98.3531 252.328 98.2853 252.007 98.2853C251.677 98.2853 251.393 98.3531 251.153 98.4886C250.916 98.6242 250.732 98.814 250.601 99.058C250.469 99.2981 250.403 99.575 250.403 99.8887C250.403 100.214 250.467 100.493 250.595 100.725C250.727 100.954 250.912 101.13 251.153 101.254C251.397 101.374 251.685 101.434 252.018 101.434C252.351 101.434 252.638 101.374 252.878 101.254C253.118 101.13 253.302 100.954 253.43 100.725C253.562 100.493 253.627 100.214 253.627 99.8887ZM254.511 95.9441C254.511 96.3546 254.402 96.7245 254.185 97.0537C253.968 97.3829 253.672 97.6424 253.296 97.8322C252.921 98.0219 252.495 98.1168 252.018 98.1168C251.534 98.1168 251.102 98.0219 250.723 97.8322C250.347 97.6424 250.053 97.3829 249.84 97.0537C249.627 96.7245 249.52 96.3546 249.52 95.9441C249.52 95.4522 249.627 95.0339 249.84 94.6892C250.057 94.3445 250.353 94.0811 250.729 93.8991C251.104 93.7171 251.532 93.626 252.012 93.626C252.497 93.626 252.926 93.7171 253.302 93.8991C253.678 94.0811 253.972 94.3445 254.185 94.6892C254.402 95.0339 254.511 95.4522 254.511 95.9441ZM253.436 95.9615C253.436 95.6787 253.376 95.4289 253.256 95.212C253.136 94.9952 252.969 94.8247 252.756 94.7008C252.543 94.573 252.295 94.5091 252.012 94.5091C251.73 94.5091 251.482 94.5691 251.269 94.6892C251.06 94.8054 250.895 94.9719 250.775 95.1888C250.659 95.4057 250.601 95.6633 250.601 95.9615C250.601 96.252 250.659 96.5056 250.775 96.7225C250.895 96.9394 251.062 97.1079 251.275 97.228C251.488 97.348 251.736 97.4081 252.018 97.4081C252.301 97.4081 252.547 97.348 252.756 97.228C252.969 97.1079 253.136 96.9394 253.256 96.7225C253.376 96.5056 253.436 96.252 253.436 95.9615Z" fill="black"/>
<rect width="38.6683" height="38.6683" transform="translate(0.673828 116.971)" fill="black" fill-opacity="0.38"/>
<path d="M18.4331 139.969H18.5435C19.1632 139.969 19.6667 139.882 20.054 139.707C20.4413 139.533 20.7395 139.299 20.9486 139.004C21.1578 138.71 21.3011 138.379 21.3786 138.011C21.456 137.639 21.4947 137.258 21.4947 136.866V135.571C21.4947 135.187 21.4502 134.847 21.3611 134.548C21.2759 134.25 21.1559 134 21.0009 133.799C20.8499 133.598 20.6775 133.445 20.4839 133.34C20.2902 133.235 20.085 133.183 19.8681 133.183C19.6202 133.183 19.3975 133.233 19.2 133.334C19.0063 133.431 18.8417 133.568 18.7062 133.747C18.5745 133.925 18.4738 134.134 18.4041 134.374C18.3344 134.614 18.2995 134.876 18.2995 135.158C18.2995 135.41 18.3305 135.654 18.3924 135.89C18.4544 136.127 18.5493 136.34 18.6771 136.529C18.8049 136.719 18.9637 136.87 19.1535 136.983C19.3472 137.091 19.5737 137.145 19.8332 137.145C20.0733 137.145 20.298 137.099 20.5071 137.006C20.7201 136.909 20.908 136.779 21.0706 136.617C21.2372 136.45 21.3689 136.262 21.4657 136.053C21.5664 135.844 21.6245 135.625 21.64 135.397H22.1512C22.1512 135.718 22.0873 136.036 21.9595 136.349C21.8356 136.659 21.6613 136.942 21.4366 137.198C21.212 137.453 20.9486 137.658 20.6466 137.813C20.3445 137.964 20.0152 138.04 19.6589 138.04C19.2406 138.04 18.8785 137.959 18.5725 137.796C18.2666 137.633 18.0148 137.416 17.8173 137.145C17.6237 136.874 17.4784 136.572 17.3816 136.239C17.2886 135.902 17.2422 135.561 17.2422 135.216C17.2422 134.814 17.2983 134.436 17.4106 134.084C17.523 133.731 17.6895 133.421 17.9103 133.154C18.131 132.883 18.4041 132.672 18.7294 132.521C19.0586 132.37 19.4382 132.294 19.8681 132.294C20.3522 132.294 20.7647 132.391 21.1055 132.585C21.4463 132.778 21.7233 133.038 21.9363 133.363C22.1532 133.689 22.312 134.055 22.4127 134.461C22.5134 134.868 22.5637 135.286 22.5637 135.716V136.105C22.5637 136.543 22.5347 136.988 22.4766 137.442C22.4223 137.891 22.3158 138.321 22.157 138.731C22.0021 139.142 21.7755 139.51 21.4773 139.835C21.1791 140.157 20.7899 140.412 20.3096 140.602C19.8332 140.788 19.2445 140.881 18.5435 140.881H18.4331V139.969Z" fill="black"/>
<rect width="38.6683" height="38.6683" transform="translate(39.3418 116.971)" fill="black" fill-opacity="0.05"/>
<path d="M56.1585 132.364V140.869H55.0838V133.706L52.9168 134.496V133.526L55.9901 132.364H56.1585ZM64.7478 135.966V137.256C64.7478 137.949 64.6859 138.534 64.5619 139.01C64.438 139.486 64.2598 139.87 64.0275 140.16C63.7951 140.451 63.5143 140.662 63.1851 140.794C62.8597 140.921 62.4918 140.985 62.0813 140.985C61.7559 140.985 61.4558 140.945 61.1808 140.863C60.9058 140.782 60.6579 140.652 60.4372 140.474C60.2203 140.292 60.0344 140.056 59.8794 139.765C59.7245 139.475 59.6064 139.122 59.5251 138.708C59.4437 138.294 59.4031 137.809 59.4031 137.256V135.966C59.4031 135.273 59.465 134.692 59.589 134.223C59.7168 133.754 59.8969 133.379 60.1293 133.096C60.3616 132.809 60.6405 132.604 60.9658 132.48C61.295 132.356 61.663 132.294 62.0696 132.294C62.3988 132.294 62.7009 132.335 62.9759 132.416C63.2548 132.494 63.5027 132.62 63.7195 132.794C63.9364 132.964 64.1204 133.193 64.2715 133.479C64.4264 133.762 64.5445 134.109 64.6258 134.519C64.7072 134.93 64.7478 135.412 64.7478 135.966ZM63.6673 137.43V135.786C63.6673 135.406 63.644 135.073 63.5975 134.787C63.5549 134.496 63.491 134.248 63.4058 134.043C63.3206 133.838 63.2122 133.671 63.0805 133.543C62.9527 133.415 62.8036 133.323 62.6332 133.264C62.4666 133.202 62.2788 133.171 62.0696 133.171C61.814 133.171 61.5874 133.22 61.3899 133.317C61.1924 133.41 61.0259 133.559 60.8903 133.764C60.7586 133.969 60.6579 134.239 60.5882 134.572C60.5185 134.905 60.4836 135.309 60.4836 135.786V137.43C60.4836 137.809 60.5049 138.144 60.5475 138.435C60.594 138.725 60.6618 138.977 60.7509 139.19C60.84 139.399 60.9484 139.572 61.0762 139.707C61.204 139.843 61.3512 139.943 61.5177 140.009C61.6881 140.071 61.876 140.102 62.0813 140.102C62.3446 140.102 62.5751 140.052 62.7726 139.951C62.9701 139.851 63.1347 139.694 63.2664 139.481C63.402 139.264 63.5027 138.987 63.5685 138.65C63.6343 138.309 63.6673 137.902 63.6673 137.43Z" fill="black"/>
<rect width="38.6683" height="38.6683" transform="translate(78.0107 116.971)" fill="black" fill-opacity="0.05"/>
<path d="M94.8275 132.364V140.869H93.7527V133.706L91.5858 134.496V133.526L94.659 132.364H94.8275ZM101.639 132.364V140.869H100.564V133.706L98.3973 134.496V133.526L101.471 132.364H101.639Z" fill="black"/>
<rect width="38.6683" height="38.6683" transform="translate(116.679 116.971)" fill="#C30101"/>
<path d="M133.496 132.364V140.869H132.422V133.706L130.255 134.496V133.526L133.328 132.364H133.496ZM142.318 139.986V140.869H136.782V140.096L139.553 137.012C139.894 136.632 140.157 136.311 140.343 136.047C140.533 135.78 140.664 135.542 140.738 135.333C140.815 135.12 140.854 134.903 140.854 134.682C140.854 134.403 140.796 134.151 140.68 133.927C140.568 133.698 140.401 133.516 140.18 133.381C139.959 133.245 139.692 133.177 139.378 133.177C139.003 133.177 138.689 133.251 138.437 133.398C138.189 133.541 138.004 133.743 137.88 134.002C137.756 134.262 137.694 134.56 137.694 134.897H136.619C136.619 134.421 136.724 133.985 136.933 133.59C137.142 133.195 137.452 132.881 137.862 132.649C138.273 132.412 138.778 132.294 139.378 132.294C139.913 132.294 140.37 132.389 140.75 132.579C141.129 132.765 141.42 133.028 141.621 133.369C141.826 133.706 141.929 134.101 141.929 134.554C141.929 134.802 141.886 135.054 141.801 135.309C141.72 135.561 141.605 135.813 141.458 136.065C141.315 136.316 141.147 136.564 140.953 136.808C140.763 137.052 140.56 137.292 140.343 137.529L138.077 139.986H142.318Z" fill="white"/>
<rect width="38.6683" height="38.6683" transform="translate(155.347 116.971)" fill="black" fill-opacity="0.05"/>
<path d="M172.163 132.364V140.869H171.089V133.706L168.922 134.496V133.526L171.995 132.364H172.163ZM177.011 136.111H177.778C178.154 136.111 178.464 136.049 178.708 135.925C178.956 135.797 179.14 135.625 179.26 135.408C179.384 135.187 179.446 134.94 179.446 134.665C179.446 134.339 179.391 134.066 179.283 133.845C179.174 133.625 179.012 133.458 178.795 133.346C178.578 133.233 178.303 133.177 177.97 133.177C177.668 133.177 177.401 133.237 177.168 133.357C176.94 133.474 176.76 133.64 176.628 133.857C176.5 134.074 176.436 134.33 176.436 134.624H175.361C175.361 134.194 175.47 133.803 175.687 133.45C175.904 133.098 176.208 132.817 176.599 132.608C176.994 132.399 177.451 132.294 177.97 132.294C178.481 132.294 178.929 132.385 179.312 132.567C179.695 132.745 179.994 133.013 180.207 133.369C180.42 133.721 180.526 134.161 180.526 134.688C180.526 134.901 180.476 135.129 180.375 135.373C180.278 135.613 180.125 135.838 179.916 136.047C179.711 136.256 179.444 136.429 179.114 136.564C178.785 136.696 178.39 136.762 177.929 136.762H177.011V136.111ZM177.011 136.994V136.349H177.929C178.468 136.349 178.913 136.413 179.265 136.541C179.618 136.669 179.895 136.839 180.096 137.052C180.302 137.265 180.445 137.5 180.526 137.755C180.611 138.007 180.654 138.259 180.654 138.51C180.654 138.906 180.586 139.256 180.451 139.562C180.319 139.868 180.131 140.127 179.887 140.34C179.647 140.553 179.364 140.714 179.039 140.823C178.714 140.931 178.359 140.985 177.976 140.985C177.608 140.985 177.261 140.933 176.936 140.828C176.614 140.724 176.33 140.573 176.082 140.375C175.834 140.174 175.64 139.928 175.501 139.638C175.361 139.343 175.292 139.008 175.292 138.632H176.367C176.367 138.927 176.43 139.184 176.558 139.405C176.69 139.626 176.876 139.798 177.116 139.922C177.36 140.042 177.647 140.102 177.976 140.102C178.305 140.102 178.588 140.046 178.824 139.934C179.064 139.818 179.248 139.643 179.376 139.411C179.508 139.179 179.573 138.886 179.573 138.534C179.573 138.181 179.5 137.893 179.353 137.668C179.205 137.44 178.996 137.271 178.725 137.163C178.458 137.05 178.142 136.994 177.778 136.994H177.011Z" fill="black"/>
<rect width="38.6683" height="38.6683" transform="translate(194.016 116.971)" fill="black" fill-opacity="0.05"/>
<path d="M210.832 132.364V140.869H209.758V133.706L207.591 134.496V133.526L210.664 132.364H210.832ZM219.828 138.022V138.906H213.717V138.272L217.505 132.41H218.382L217.441 134.107L214.937 138.022H219.828ZM218.649 132.41V140.869H217.574V132.41H218.649Z" fill="black"/>
<rect width="38.6683" height="38.6683" transform="translate(232.684 116.971)" fill="#0076B1"/>
<path d="M249.501 132.364V140.869H248.427V133.706L246.26 134.496V133.526L249.333 132.364H249.501ZM254.14 136.843L253.28 136.622L253.704 132.41H258.044V133.404H254.617L254.361 135.704C254.516 135.615 254.711 135.532 254.948 135.455C255.188 135.377 255.463 135.338 255.773 135.338C256.164 135.338 256.514 135.406 256.824 135.542C257.134 135.673 257.397 135.863 257.614 136.111C257.835 136.359 258.003 136.657 258.12 137.006C258.236 137.354 258.294 137.744 258.294 138.174C258.294 138.58 258.238 138.954 258.125 139.295C258.017 139.636 257.852 139.934 257.632 140.189C257.411 140.441 257.132 140.637 256.795 140.776C256.462 140.916 256.069 140.985 255.616 140.985C255.275 140.985 254.952 140.939 254.646 140.846C254.343 140.749 254.072 140.604 253.832 140.41C253.596 140.213 253.402 139.969 253.251 139.678C253.104 139.384 253.011 139.039 252.972 138.644H253.995C254.041 138.962 254.134 139.229 254.274 139.446C254.413 139.663 254.595 139.827 254.82 139.94C255.048 140.048 255.314 140.102 255.616 140.102C255.871 140.102 256.098 140.058 256.295 139.969C256.493 139.88 256.66 139.752 256.795 139.585C256.931 139.419 257.033 139.217 257.103 138.981C257.177 138.745 257.213 138.479 257.213 138.185C257.213 137.918 257.177 137.67 257.103 137.442C257.029 137.213 256.919 137.014 256.772 136.843C256.629 136.673 256.452 136.541 256.243 136.448C256.034 136.351 255.794 136.303 255.523 136.303C255.163 136.303 254.89 136.351 254.704 136.448C254.522 136.545 254.334 136.677 254.14 136.843Z" fill="black"/>
<rect width="38.6683" height="38.6683" transform="translate(0.673828 155.64)" fill="black" fill-opacity="0.38"/>
<path d="M17.4906 171.032V179.538H16.4158V172.374L14.2489 173.165V172.194L17.3221 171.032H17.4906ZM24.8947 171.067H24.9877V171.979H24.8947C24.3254 171.979 23.849 172.072 23.4656 172.258C23.0821 172.44 22.7781 172.686 22.5535 172.996C22.3288 173.302 22.1662 173.647 22.0655 174.03C21.9686 174.414 21.9202 174.803 21.9202 175.198V176.441C21.9202 176.817 21.9648 177.15 22.0539 177.44C22.1429 177.727 22.2649 177.969 22.4199 178.167C22.5748 178.364 22.7491 178.513 22.9427 178.614C23.1402 178.715 23.3455 178.765 23.5585 178.765C23.8064 178.765 24.0272 178.718 24.2208 178.625C24.4145 178.529 24.5771 178.395 24.7088 178.225C24.8444 178.05 24.947 177.845 25.0167 177.609C25.0864 177.373 25.1213 177.113 25.1213 176.83C25.1213 176.579 25.0903 176.337 25.0283 176.104C24.9664 175.868 24.8715 175.659 24.7437 175.477C24.6159 175.291 24.4551 175.146 24.2615 175.041C24.0717 174.933 23.8451 174.878 23.5818 174.878C23.2835 174.878 23.0047 174.952 22.7452 175.099C22.4896 175.242 22.2785 175.432 22.112 175.668C21.9493 175.901 21.8563 176.155 21.8331 176.429L21.2638 176.424C21.318 175.99 21.4187 175.62 21.5659 175.314C21.7169 175.004 21.9028 174.752 22.1236 174.559C22.3482 174.361 22.598 174.218 22.873 174.129C23.1519 174.036 23.4462 173.989 23.7561 173.989C24.1782 173.989 24.5423 174.069 24.8482 174.228C25.1542 174.386 25.406 174.599 25.6035 174.867C25.801 175.13 25.9462 175.428 26.0392 175.761C26.136 176.091 26.1844 176.429 26.1844 176.778C26.1844 177.177 26.1283 177.551 26.016 177.899C25.9036 178.248 25.7352 178.554 25.5105 178.817C25.2898 179.081 25.0167 179.286 24.6914 179.433C24.3661 179.58 23.9884 179.654 23.5585 179.654C23.1015 179.654 22.7026 179.561 22.3618 179.375C22.0209 179.185 21.7382 178.933 21.5136 178.62C21.2889 178.306 21.1205 177.957 21.0081 177.574C20.8958 177.191 20.8397 176.801 20.8397 176.406V175.901C20.8397 175.304 20.8997 174.72 21.0198 174.146C21.1398 173.573 21.347 173.054 21.6414 172.589C21.9396 172.125 22.3521 171.755 22.8788 171.48C23.4055 171.205 24.0775 171.067 24.8947 171.067Z" fill="black"/>
<rect width="38.6683" height="38.6683" transform="translate(39.3418 155.64)" fill="black" fill-opacity="0.05"/>
<path d="M56.1585 171.032V179.538H55.0838V172.374L52.9168 173.165V172.194L55.9901 171.032H56.1585ZM64.9047 171.079V171.683L61.4015 179.538H60.2687L63.766 171.962H59.1881V171.079H64.9047Z" fill="black"/>
<rect width="38.6683" height="38.6683" transform="translate(78.0107 155.64)" fill="black" fill-opacity="0.05"/>
<path d="M94.8275 171.032V179.538H93.7527V172.374L91.5858 173.165V172.194L94.659 171.032H94.8275ZM103.44 177.249C103.44 177.764 103.32 178.201 103.08 178.562C102.844 178.918 102.522 179.189 102.115 179.375C101.713 179.561 101.258 179.654 100.75 179.654C100.243 179.654 99.7858 179.561 99.3792 179.375C98.9725 179.189 98.651 178.918 98.4148 178.562C98.1785 178.201 98.0604 177.764 98.0604 177.249C98.0604 176.912 98.1243 176.604 98.2521 176.325C98.3838 176.042 98.5678 175.796 98.804 175.587C99.0441 175.378 99.3269 175.217 99.6522 175.105C99.9814 174.989 100.344 174.931 100.739 174.931C101.258 174.931 101.72 175.031 102.127 175.233C102.534 175.43 102.853 175.703 103.086 176.052C103.322 176.4 103.44 176.799 103.44 177.249ZM102.359 177.225C102.359 176.912 102.292 176.635 102.156 176.395C102.021 176.151 101.831 175.961 101.587 175.825C101.343 175.69 101.06 175.622 100.739 175.622C100.409 175.622 100.125 175.69 99.8846 175.825C99.6483 175.961 99.4644 176.151 99.3327 176.395C99.201 176.635 99.1351 176.912 99.1351 177.225C99.1351 177.551 99.1991 177.83 99.3269 178.062C99.4585 178.29 99.6445 178.467 99.8846 178.591C100.129 178.711 100.417 178.771 100.75 178.771C101.083 178.771 101.37 178.711 101.61 178.591C101.85 178.467 102.034 178.29 102.162 178.062C102.294 177.83 102.359 177.551 102.359 177.225ZM103.242 173.281C103.242 173.691 103.134 174.061 102.917 174.39C102.7 174.72 102.404 174.979 102.028 175.169C101.653 175.359 101.227 175.453 100.75 175.453C100.266 175.453 99.8342 175.359 99.4547 175.169C99.079 174.979 98.7846 174.72 98.5716 174.39C98.3586 174.061 98.2521 173.691 98.2521 173.281C98.2521 172.789 98.3586 172.371 98.5716 172.026C98.7885 171.681 99.0848 171.418 99.4605 171.236C99.8362 171.054 100.264 170.963 100.744 170.963C101.229 170.963 101.658 171.054 102.034 171.236C102.41 171.418 102.704 171.681 102.917 172.026C103.134 172.371 103.242 172.789 103.242 173.281ZM102.168 173.298C102.168 173.015 102.108 172.766 101.988 172.549C101.868 172.332 101.701 172.161 101.488 172.037C101.275 171.91 101.027 171.846 100.744 171.846C100.462 171.846 100.214 171.906 100.001 172.026C99.7916 172.142 99.627 172.309 99.507 172.525C99.3908 172.742 99.3327 173 99.3327 173.298C99.3327 173.589 99.3908 173.842 99.507 174.059C99.627 174.276 99.7936 174.445 100.007 174.565C100.22 174.685 100.467 174.745 100.75 174.745C101.033 174.745 101.279 174.685 101.488 174.565C101.701 174.445 101.868 174.276 101.988 174.059C102.108 173.842 102.168 173.589 102.168 173.298Z" fill="black"/>
<rect width="38.6683" height="38.6683" transform="translate(116.679 155.64)" fill="black" fill-opacity="0.05"/>
<path d="M133.496 171.032V179.538H132.422V172.374L130.255 173.165V172.194L133.328 171.032H133.496ZM137.845 178.637H137.955C138.575 178.637 139.078 178.55 139.466 178.376C139.853 178.201 140.151 177.967 140.36 177.673C140.569 177.378 140.713 177.047 140.79 176.679C140.868 176.307 140.906 175.926 140.906 175.535V174.239C140.906 173.856 140.862 173.515 140.773 173.217C140.688 172.919 140.568 172.669 140.413 172.467C140.262 172.266 140.089 172.113 139.896 172.008C139.702 171.904 139.497 171.852 139.28 171.852C139.032 171.852 138.809 171.902 138.612 172.003C138.418 172.099 138.253 172.237 138.118 172.415C137.986 172.593 137.885 172.802 137.816 173.043C137.746 173.283 137.711 173.544 137.711 173.827C137.711 174.079 137.742 174.323 137.804 174.559C137.866 174.795 137.961 175.008 138.089 175.198C138.217 175.388 138.375 175.539 138.565 175.651C138.759 175.759 138.985 175.814 139.245 175.814C139.485 175.814 139.71 175.767 139.919 175.674C140.132 175.577 140.32 175.448 140.482 175.285C140.649 175.118 140.781 174.931 140.877 174.721C140.978 174.512 141.036 174.294 141.052 174.065H141.563C141.563 174.386 141.499 174.704 141.371 175.018C141.247 175.328 141.073 175.61 140.848 175.866C140.624 176.122 140.36 176.327 140.058 176.482C139.756 176.633 139.427 176.708 139.071 176.708C138.652 176.708 138.29 176.627 137.984 176.464C137.678 176.302 137.426 176.085 137.229 175.814C137.035 175.543 136.89 175.24 136.793 174.907C136.7 174.57 136.654 174.23 136.654 173.885C136.654 173.482 136.71 173.104 136.822 172.752C136.935 172.4 137.101 172.09 137.322 171.823C137.543 171.551 137.816 171.34 138.141 171.189C138.47 171.038 138.85 170.963 139.28 170.963C139.764 170.963 140.176 171.06 140.517 171.253C140.858 171.447 141.135 171.706 141.348 172.032C141.565 172.357 141.724 172.723 141.824 173.13C141.925 173.536 141.975 173.955 141.975 174.385V174.774C141.975 175.211 141.946 175.657 141.888 176.11C141.834 176.559 141.727 176.989 141.569 177.4C141.414 177.81 141.187 178.178 140.889 178.503C140.591 178.825 140.201 179.081 139.721 179.27C139.245 179.456 138.656 179.549 137.955 179.549H137.845V178.637Z" fill="black"/>
<rect width="38.6683" height="38.6683" transform="translate(155.347 155.64)" fill="black" fill-opacity="0.05"/>
<path d="M174.174 178.655V179.538H168.637V178.765L171.408 175.68C171.749 175.301 172.012 174.979 172.198 174.716C172.388 174.448 172.52 174.21 172.593 174.001C172.671 173.788 172.71 173.571 172.71 173.35C172.71 173.072 172.651 172.82 172.535 172.595C172.423 172.367 172.256 172.185 172.036 172.049C171.815 171.914 171.548 171.846 171.234 171.846C170.858 171.846 170.545 171.919 170.293 172.067C170.045 172.21 169.859 172.411 169.735 172.671C169.611 172.93 169.549 173.228 169.549 173.565H168.474C168.474 173.089 168.579 172.653 168.788 172.258C168.997 171.863 169.307 171.549 169.718 171.317C170.128 171.081 170.634 170.963 171.234 170.963C171.768 170.963 172.225 171.058 172.605 171.247C172.985 171.433 173.275 171.697 173.476 172.037C173.682 172.374 173.784 172.769 173.784 173.223C173.784 173.47 173.742 173.722 173.656 173.978C173.575 174.23 173.461 174.481 173.314 174.733C173.17 174.985 173.002 175.233 172.808 175.477C172.619 175.721 172.415 175.961 172.198 176.197L169.933 178.655H174.174ZM180.753 174.634V175.924C180.753 176.617 180.691 177.202 180.567 177.679C180.443 178.155 180.265 178.538 180.032 178.829C179.8 179.119 179.519 179.33 179.19 179.462C178.865 179.59 178.497 179.654 178.086 179.654C177.761 179.654 177.461 179.613 177.186 179.532C176.911 179.45 176.663 179.321 176.442 179.143C176.225 178.961 176.039 178.724 175.884 178.434C175.729 178.143 175.611 177.791 175.53 177.376C175.449 176.962 175.408 176.478 175.408 175.924V174.634C175.408 173.941 175.47 173.36 175.594 172.891C175.722 172.423 175.902 172.047 176.134 171.764C176.367 171.478 176.645 171.273 176.971 171.149C177.3 171.025 177.668 170.963 178.075 170.963C178.404 170.963 178.706 171.003 178.981 171.085C179.26 171.162 179.508 171.288 179.724 171.462C179.941 171.633 180.125 171.861 180.276 172.148C180.431 172.431 180.549 172.777 180.631 173.188C180.712 173.598 180.753 174.081 180.753 174.634ZM179.672 176.098V174.454C179.672 174.075 179.649 173.742 179.602 173.455C179.56 173.165 179.496 172.917 179.411 172.711C179.326 172.506 179.217 172.34 179.085 172.212C178.958 172.084 178.808 171.991 178.638 171.933C178.472 171.871 178.284 171.84 178.075 171.84C177.819 171.84 177.592 171.888 177.395 171.985C177.197 172.078 177.031 172.227 176.895 172.433C176.764 172.638 176.663 172.907 176.593 173.24C176.523 173.573 176.489 173.978 176.489 174.454V176.098C176.489 176.478 176.51 176.813 176.552 177.103C176.599 177.394 176.667 177.646 176.756 177.859C176.845 178.068 176.953 178.24 177.081 178.376C177.209 178.511 177.356 178.612 177.523 178.678C177.693 178.74 177.881 178.771 178.086 178.771C178.35 178.771 178.58 178.72 178.777 178.62C178.975 178.519 179.14 178.362 179.271 178.149C179.407 177.932 179.508 177.655 179.573 177.318C179.639 176.978 179.672 176.571 179.672 176.098Z" fill="black"/>
<rect width="38.6683" height="38.6683" transform="translate(194.016 155.64)" fill="black" fill-opacity="0.05"/>
<path d="M212.842 178.655V179.538H207.306V178.765L210.077 175.68C210.418 175.301 210.681 174.979 210.867 174.716C211.057 174.448 211.189 174.21 211.262 174.001C211.34 173.788 211.378 173.571 211.378 173.35C211.378 173.072 211.32 172.82 211.204 172.595C211.092 172.367 210.925 172.185 210.705 172.049C210.484 171.914 210.217 171.846 209.903 171.846C209.527 171.846 209.213 171.919 208.962 172.067C208.714 172.21 208.528 172.411 208.404 172.671C208.28 172.93 208.218 173.228 208.218 173.565H207.143C207.143 173.089 207.248 172.653 207.457 172.258C207.666 171.863 207.976 171.549 208.387 171.317C208.797 171.081 209.303 170.963 209.903 170.963C210.437 170.963 210.894 171.058 211.274 171.247C211.653 171.433 211.944 171.697 212.145 172.037C212.351 172.374 212.453 172.769 212.453 173.223C212.453 173.47 212.411 173.722 212.325 173.978C212.244 174.23 212.13 174.481 211.983 174.733C211.839 174.985 211.671 175.233 211.477 175.477C211.287 175.721 211.084 175.961 210.867 176.197L208.602 178.655H212.842ZM217.644 171.032V179.538H216.569V172.374L214.402 173.165V172.194L217.475 171.032H217.644Z" fill="black"/>
<rect width="38.6683" height="38.6683" transform="translate(232.684 155.64)" fill="black" fill-opacity="0.38"/>
<path d="M251.511 178.655V179.538H245.975V178.765L248.746 175.68C249.087 175.301 249.35 174.979 249.536 174.716C249.726 174.448 249.858 174.21 249.931 174.001C250.009 173.788 250.047 173.571 250.047 173.35C250.047 173.072 249.989 172.82 249.873 172.595C249.761 172.367 249.594 172.185 249.374 172.049C249.153 171.914 248.886 171.846 248.572 171.846C248.196 171.846 247.882 171.919 247.631 172.067C247.383 172.21 247.197 172.411 247.073 172.671C246.949 172.93 246.887 173.228 246.887 173.565H245.812C245.812 173.089 245.917 172.653 246.126 172.258C246.335 171.863 246.645 171.549 247.056 171.317C247.466 171.081 247.971 170.963 248.572 170.963C249.106 170.963 249.563 171.058 249.943 171.247C250.322 171.433 250.613 171.697 250.814 172.037C251.02 172.374 251.122 172.769 251.122 173.223C251.122 173.47 251.08 173.722 250.994 173.978C250.913 174.23 250.799 174.481 250.652 174.733C250.508 174.985 250.34 175.233 250.146 175.477C249.956 175.721 249.753 175.961 249.536 176.197L247.27 178.655H251.511ZM258.323 178.655V179.538H252.786V178.765L255.558 175.68C255.898 175.301 256.162 174.979 256.348 174.716C256.538 174.448 256.669 174.21 256.743 174.001C256.82 173.788 256.859 173.571 256.859 173.35C256.859 173.072 256.801 172.82 256.685 172.595C256.572 172.367 256.406 172.185 256.185 172.049C255.964 171.914 255.697 171.846 255.383 171.846C255.008 171.846 254.694 171.919 254.442 172.067C254.194 172.21 254.008 172.411 253.885 172.671C253.761 172.93 253.699 173.228 253.699 173.565H252.624C252.624 173.089 252.728 172.653 252.938 172.258C253.147 171.863 253.457 171.549 253.867 171.317C254.278 171.081 254.783 170.963 255.383 170.963C255.918 170.963 256.375 171.058 256.754 171.247C257.134 171.433 257.424 171.697 257.626 172.037C257.831 172.374 257.934 172.769 257.934 173.223C257.934 173.47 257.891 173.722 257.806 173.978C257.725 174.23 257.61 174.481 257.463 174.733C257.32 174.985 257.151 175.233 256.958 175.477C256.768 175.721 256.565 175.961 256.348 176.197L254.082 178.655H258.323Z" fill="black"/>
<rect width="38.6683" height="38.6683" transform="translate(0.673828 194.308)" fill="black" fill-opacity="0.38"/>
<path d="M19.5007 217.323V218.206H13.9642V217.433L16.7353 214.348C17.0762 213.969 17.3395 213.647 17.5254 213.384C17.7152 213.117 17.8469 212.878 17.9205 212.669C17.9979 212.456 18.0367 212.239 18.0367 212.019C18.0367 211.74 17.9786 211.488 17.8624 211.263C17.7501 211.035 17.5835 210.853 17.3628 210.717C17.142 210.582 16.8748 210.514 16.561 210.514C16.1854 210.514 15.8717 210.588 15.6199 210.735C15.372 210.878 15.1861 211.079 15.0622 211.339C14.9383 211.598 14.8763 211.897 14.8763 212.234H13.8015C13.8015 211.757 13.9061 211.322 14.1152 210.926C14.3244 210.531 14.6342 210.218 15.0448 209.985C15.4553 209.749 15.9607 209.631 16.561 209.631C17.0955 209.631 17.5525 209.726 17.9321 209.916C18.3117 210.101 18.6021 210.365 18.8035 210.706C19.0088 211.043 19.1114 211.438 19.1114 211.891C19.1114 212.139 19.0688 212.39 18.9836 212.646C18.9023 212.898 18.788 213.15 18.6409 213.401C18.4976 213.653 18.3291 213.901 18.1354 214.145C17.9457 214.389 17.7423 214.629 17.5254 214.865L15.2597 217.323H19.5007ZM22.3385 213.448H23.1054C23.4811 213.448 23.7909 213.386 24.0349 213.262C24.2828 213.134 24.4668 212.962 24.5868 212.745C24.7108 212.524 24.7727 212.276 24.7727 212.001C24.7727 211.676 24.7185 211.403 24.6101 211.182C24.5016 210.961 24.3389 210.795 24.1221 210.682C23.9052 210.57 23.6302 210.514 23.2971 210.514C22.995 210.514 22.7278 210.574 22.4954 210.694C22.2669 210.81 22.0868 210.977 21.9551 211.194C21.8273 211.411 21.7634 211.666 21.7634 211.961H20.6886C20.6886 211.531 20.7971 211.139 21.0139 210.787C21.2308 210.435 21.5349 210.154 21.926 209.945C22.3211 209.735 22.7781 209.631 23.2971 209.631C23.8083 209.631 24.2557 209.722 24.6391 209.904C25.0225 210.082 25.3208 210.349 25.5338 210.706C25.7468 211.058 25.8533 211.498 25.8533 212.024C25.8533 212.237 25.8029 212.466 25.7022 212.71C25.6054 212.95 25.4524 213.175 25.2433 213.384C25.038 213.593 24.7708 213.765 24.4416 213.901C24.1124 214.033 23.7173 214.098 23.2564 214.098H22.3385V213.448ZM22.3385 214.331V213.686H23.2564C23.7948 213.686 24.2402 213.75 24.5926 213.878C24.9451 214.006 25.222 214.176 25.4234 214.389C25.6287 214.602 25.772 214.836 25.8533 215.092C25.9385 215.344 25.9811 215.595 25.9811 215.847C25.9811 216.242 25.9133 216.593 25.7778 216.899C25.6461 217.205 25.4582 217.464 25.2142 217.677C24.9741 217.89 24.6914 218.051 24.3661 218.159C24.0407 218.268 23.6863 218.322 23.3029 218.322C22.935 218.322 22.5883 218.27 22.263 218.165C21.9415 218.061 21.6569 217.91 21.409 217.712C21.1611 217.511 20.9675 217.265 20.828 216.974C20.6886 216.68 20.6189 216.345 20.6189 215.969H21.6937C21.6937 216.263 21.7576 216.521 21.8854 216.742C22.0171 216.963 22.203 217.135 22.4431 217.259C22.6871 217.379 22.9737 217.439 23.3029 217.439C23.6321 217.439 23.9148 217.383 24.1511 217.27C24.3912 217.154 24.5752 216.98 24.703 216.748C24.8347 216.515 24.9005 216.223 24.9005 215.87C24.9005 215.518 24.8269 215.229 24.6798 215.005C24.5326 214.776 24.3234 214.608 24.0523 214.499C23.7851 214.387 23.4694 214.331 23.1054 214.331H22.3385Z" fill="black"/>
<rect width="38.6683" height="38.6683" transform="translate(39.3418 194.308)" fill="black" fill-opacity="0.05"/>
<path d="M58.1686 217.323V218.206H52.6322V217.433L55.4033 214.348C55.7441 213.969 56.0075 213.647 56.1934 213.384C56.3832 213.117 56.5149 212.878 56.5885 212.669C56.6659 212.456 56.7046 212.239 56.7046 212.019C56.7046 211.74 56.6465 211.488 56.5304 211.263C56.418 211.035 56.2515 210.853 56.0307 210.717C55.81 210.582 55.5427 210.514 55.229 210.514C54.8533 210.514 54.5396 210.588 54.2879 210.735C54.04 210.878 53.8541 211.079 53.7302 211.339C53.6062 211.598 53.5443 211.897 53.5443 212.234H52.4695C52.4695 211.757 52.5741 211.322 52.7832 210.926C52.9923 210.531 53.3022 210.218 53.7127 209.985C54.1233 209.749 54.6287 209.631 55.229 209.631C55.7635 209.631 56.2205 209.726 56.6001 209.916C56.9796 210.101 57.2701 210.365 57.4715 210.706C57.6768 211.043 57.7794 211.438 57.7794 211.891C57.7794 212.139 57.7368 212.39 57.6516 212.646C57.5703 212.898 57.456 213.15 57.3088 213.401C57.1655 213.653 56.9971 213.901 56.8034 214.145C56.6136 214.389 56.4103 214.629 56.1934 214.865L53.9277 217.323H58.1686ZM65.1545 215.359V216.242H59.0429V215.609L62.8307 209.747H63.7079L62.7668 211.444L60.2629 215.359H65.1545ZM63.9752 209.747V218.206H62.9004V209.747H63.9752Z" fill="black"/>
<rect width="38.6683" height="38.6683" transform="translate(78.0107 194.308)" fill="black" fill-opacity="0.05"/>
<path d="M96.8376 217.323V218.206H91.3011V217.433L94.0723 214.348C94.4131 213.969 94.6764 213.647 94.8623 213.384C95.0521 213.117 95.1838 212.878 95.2574 212.669C95.3349 212.456 95.3736 212.239 95.3736 212.019C95.3736 211.74 95.3155 211.488 95.1993 211.263C95.087 211.035 94.9204 210.853 94.6997 210.717C94.4789 210.582 94.2117 210.514 93.898 210.514C93.5223 210.514 93.2086 210.588 92.9568 210.735C92.7089 210.878 92.523 211.079 92.3991 211.339C92.2752 211.598 92.2132 211.897 92.2132 212.234H91.1384C91.1384 211.757 91.243 211.322 91.4521 210.926C91.6613 210.531 91.9711 210.218 92.3817 209.985C92.7922 209.749 93.2976 209.631 93.898 209.631C94.4324 209.631 94.8895 209.726 95.269 209.916C95.6486 210.101 95.939 210.365 96.1404 210.706C96.3457 211.043 96.4484 211.438 96.4484 211.891C96.4484 212.139 96.4057 212.39 96.3205 212.646C96.2392 212.898 96.125 213.15 95.9778 213.401C95.8345 213.653 95.666 213.901 95.4723 214.145C95.2826 214.389 95.0792 214.629 94.8623 214.865L92.5966 217.323H96.8376ZM99.4663 214.18L98.6065 213.959L99.0306 209.747H103.37V210.741H99.9427L99.6871 213.041C99.842 212.952 100.038 212.869 100.274 212.791C100.514 212.714 100.789 212.675 101.099 212.675C101.49 212.675 101.84 212.743 102.15 212.878C102.46 213.01 102.724 213.2 102.94 213.448C103.161 213.696 103.33 213.994 103.446 214.342C103.562 214.691 103.62 215.08 103.62 215.51C103.62 215.917 103.564 216.291 103.452 216.631C103.343 216.972 103.179 217.27 102.958 217.526C102.737 217.778 102.458 217.973 102.121 218.113C101.788 218.252 101.395 218.322 100.942 218.322C100.601 218.322 100.278 218.276 99.9717 218.183C99.6696 218.086 99.3985 217.941 99.1584 217.747C98.9221 217.549 98.7285 217.305 98.5774 217.015C98.4303 216.721 98.3373 216.376 98.2986 215.981H99.3211C99.3675 216.298 99.4605 216.566 99.5999 216.782C99.7393 216.999 99.9214 217.164 100.146 217.276C100.375 217.385 100.64 217.439 100.942 217.439C101.198 217.439 101.424 217.394 101.622 217.305C101.819 217.216 101.986 217.088 102.121 216.922C102.257 216.755 102.359 216.554 102.429 216.318C102.503 216.081 102.54 215.816 102.54 215.522C102.54 215.255 102.503 215.007 102.429 214.778C102.356 214.55 102.245 214.35 102.098 214.18C101.955 214.009 101.778 213.878 101.569 213.785C101.36 213.688 101.12 213.64 100.849 213.64C100.489 213.64 100.216 213.688 100.03 213.785C99.8478 213.882 99.6599 214.013 99.4663 214.18Z" fill="black"/>
<rect width="38.6683" height="38.6683" transform="translate(116.679 194.308)" fill="black" fill-opacity="0.05"/>
<path d="M135.507 217.323V218.206H129.97V217.433L132.741 214.348C133.082 213.969 133.345 213.647 133.531 213.384C133.721 213.117 133.853 212.878 133.926 212.669C134.004 212.456 134.043 212.239 134.043 212.019C134.043 211.74 133.984 211.488 133.868 211.263C133.756 211.035 133.589 210.853 133.369 210.717C133.148 210.582 132.881 210.514 132.567 210.514C132.191 210.514 131.878 210.588 131.626 210.735C131.378 210.878 131.192 211.079 131.068 211.339C130.944 211.598 130.882 211.897 130.882 212.234H129.807C129.807 211.757 129.912 211.322 130.121 210.926C130.33 210.531 130.64 210.218 131.051 209.985C131.461 209.749 131.967 209.631 132.567 209.631C133.101 209.631 133.558 209.726 133.938 209.916C134.318 210.101 134.608 210.365 134.809 210.706C135.015 211.043 135.117 211.438 135.117 211.891C135.117 212.139 135.075 212.39 134.989 212.646C134.908 212.898 134.794 213.15 134.647 213.401C134.503 213.653 134.335 213.901 134.141 214.145C133.952 214.389 133.748 214.629 133.531 214.865L131.266 217.323H135.507ZM140.901 209.735H140.994V210.648H140.901C140.331 210.648 139.855 210.741 139.471 210.926C139.088 211.108 138.784 211.354 138.559 211.664C138.335 211.97 138.172 212.315 138.071 212.698C137.975 213.082 137.926 213.471 137.926 213.866V215.109C137.926 215.485 137.971 215.818 138.06 216.109C138.149 216.395 138.271 216.637 138.426 216.835C138.581 217.032 138.755 217.181 138.949 217.282C139.146 217.383 139.351 217.433 139.564 217.433C139.812 217.433 140.033 217.387 140.227 217.294C140.42 217.197 140.583 217.063 140.715 216.893C140.85 216.719 140.953 216.513 141.023 216.277C141.092 216.041 141.127 215.781 141.127 215.499C141.127 215.247 141.096 215.005 141.034 214.772C140.972 214.536 140.877 214.327 140.75 214.145C140.622 213.959 140.461 213.814 140.267 213.709C140.078 213.601 139.851 213.547 139.588 213.547C139.289 213.547 139.011 213.62 138.751 213.767C138.495 213.911 138.284 214.1 138.118 214.337C137.955 214.569 137.862 214.823 137.839 215.098L137.27 215.092C137.324 214.658 137.425 214.288 137.572 213.982C137.723 213.672 137.909 213.421 138.129 213.227C138.354 213.03 138.604 212.886 138.879 212.797C139.158 212.704 139.452 212.658 139.762 212.658C140.184 212.658 140.548 212.737 140.854 212.896C141.16 213.055 141.412 213.268 141.609 213.535C141.807 213.798 141.952 214.097 142.045 214.43C142.142 214.759 142.19 215.098 142.19 215.446C142.19 215.845 142.134 216.219 142.022 216.568C141.91 216.916 141.741 217.222 141.516 217.485C141.296 217.749 141.023 217.954 140.697 218.101C140.372 218.248 139.994 218.322 139.564 218.322C139.107 218.322 138.708 218.229 138.368 218.043C138.027 217.853 137.744 217.602 137.519 217.288C137.295 216.974 137.126 216.626 137.014 216.242C136.902 215.859 136.846 215.47 136.846 215.074V214.569C136.846 213.973 136.906 213.388 137.026 212.815C137.146 212.241 137.353 211.722 137.647 211.258C137.945 210.793 138.358 210.423 138.885 210.148C139.411 209.873 140.083 209.735 140.901 209.735Z" fill="black"/>
<rect width="38.6683" height="38.6683" transform="translate(155.347 194.308)" fill="black" fill-opacity="0.05"/>
<path d="M174.174 217.323V218.206H168.637V217.433L171.408 214.348C171.749 213.969 172.012 213.647 172.198 213.384C172.388 213.117 172.52 212.878 172.593 212.669C172.671 212.456 172.71 212.239 172.71 212.019C172.71 211.74 172.651 211.488 172.535 211.263C172.423 211.035 172.256 210.853 172.036 210.717C171.815 210.582 171.548 210.514 171.234 210.514C170.858 210.514 170.545 210.588 170.293 210.735C170.045 210.878 169.859 211.079 169.735 211.339C169.611 211.598 169.549 211.897 169.549 212.234H168.474C168.474 211.757 168.579 211.322 168.788 210.926C168.997 210.531 169.307 210.218 169.718 209.985C170.128 209.749 170.634 209.631 171.234 209.631C171.768 209.631 172.225 209.726 172.605 209.916C172.985 210.101 173.275 210.365 173.476 210.706C173.682 211.043 173.784 211.438 173.784 211.891C173.784 212.139 173.742 212.39 173.656 212.646C173.575 212.898 173.461 213.15 173.314 213.401C173.17 213.653 173.002 213.901 172.808 214.145C172.619 214.389 172.415 214.629 172.198 214.865L169.933 217.323H174.174ZM180.91 209.747V210.351L177.406 218.206H176.274L179.771 210.63H175.193V209.747H180.91Z" fill="black"/>
<rect width="38.6683" height="38.6683" transform="translate(194.016 194.308)" fill="black" fill-opacity="0.05"/>
<path d="M212.842 217.323V218.206H207.306V217.433L210.077 214.348C210.418 213.969 210.681 213.647 210.867 213.384C211.057 213.117 211.189 212.878 211.262 212.669C211.34 212.456 211.378 212.239 211.378 212.019C211.378 211.74 211.32 211.488 211.204 211.263C211.092 211.035 210.925 210.853 210.705 210.717C210.484 210.582 210.217 210.514 209.903 210.514C209.527 210.514 209.213 210.588 208.962 210.735C208.714 210.878 208.528 211.079 208.404 211.339C208.28 211.598 208.218 211.897 208.218 212.234H207.143C207.143 211.757 207.248 211.322 207.457 210.926C207.666 210.531 207.976 210.218 208.387 209.985C208.797 209.749 209.303 209.631 209.903 209.631C210.437 209.631 210.894 209.726 211.274 209.916C211.653 210.101 211.944 210.365 212.145 210.706C212.351 211.043 212.453 211.438 212.453 211.891C212.453 212.139 212.411 212.39 212.325 212.646C212.244 212.898 212.13 213.15 211.983 213.401C211.839 213.653 211.671 213.901 211.477 214.145C211.287 214.389 211.084 214.629 210.867 214.865L208.602 217.323H212.842ZM219.445 215.917C219.445 216.432 219.325 216.87 219.085 217.23C218.848 217.586 218.527 217.857 218.12 218.043C217.718 218.229 217.262 218.322 216.755 218.322C216.248 218.322 215.791 218.229 215.384 218.043C214.977 217.857 214.656 217.586 214.42 217.23C214.183 216.87 214.065 216.432 214.065 215.917C214.065 215.58 214.129 215.272 214.257 214.993C214.389 214.71 214.573 214.464 214.809 214.255C215.049 214.046 215.332 213.885 215.657 213.773C215.986 213.657 216.348 213.599 216.743 213.599C217.262 213.599 217.725 213.7 218.132 213.901C218.539 214.098 218.858 214.372 219.091 214.72C219.327 215.069 219.445 215.468 219.445 215.917ZM218.364 215.894C218.364 215.58 218.297 215.303 218.161 215.063C218.025 214.819 217.836 214.629 217.592 214.494C217.348 214.358 217.065 214.29 216.743 214.29C216.414 214.29 216.13 214.358 215.889 214.494C215.653 214.629 215.469 214.819 215.338 215.063C215.206 215.303 215.14 215.58 215.14 215.894C215.14 216.219 215.204 216.498 215.332 216.73C215.463 216.959 215.649 217.135 215.889 217.259C216.133 217.379 216.422 217.439 216.755 217.439C217.088 217.439 217.375 217.379 217.615 217.259C217.855 217.135 218.039 216.959 218.167 216.73C218.298 216.498 218.364 216.219 218.364 215.894ZM219.247 211.949C219.247 212.359 219.139 212.729 218.922 213.059C218.705 213.388 218.409 213.647 218.033 213.837C217.658 214.027 217.231 214.122 216.755 214.122C216.271 214.122 215.839 214.027 215.46 213.837C215.084 213.647 214.79 213.388 214.577 213.059C214.363 212.729 214.257 212.359 214.257 211.949C214.257 211.457 214.363 211.039 214.577 210.694C214.793 210.349 215.09 210.086 215.465 209.904C215.841 209.722 216.269 209.631 216.749 209.631C217.233 209.631 217.663 209.722 218.039 209.904C218.415 210.086 218.709 210.349 218.922 210.694C219.139 211.039 219.247 211.457 219.247 211.949ZM218.173 211.966C218.173 211.684 218.113 211.434 217.993 211.217C217.872 211 217.706 210.83 217.493 210.706C217.28 210.578 217.032 210.514 216.749 210.514C216.467 210.514 216.219 210.574 216.006 210.694C215.797 210.81 215.632 210.977 215.512 211.194C215.396 211.411 215.338 211.668 215.338 211.966C215.338 212.257 215.396 212.511 215.512 212.727C215.632 212.944 215.798 213.113 216.011 213.233C216.224 213.353 216.472 213.413 216.755 213.413C217.038 213.413 217.284 213.353 217.493 213.233C217.706 213.113 217.872 212.944 217.993 212.727C218.113 212.511 218.173 212.257 218.173 211.966Z" fill="black"/>
<rect width="38.6683" height="38.6683" transform="translate(232.684 194.308)" fill="black" fill-opacity="0.38"/>
<path d="M251.511 217.323V218.206H245.975V217.433L248.746 214.348C249.087 213.969 249.35 213.647 249.536 213.384C249.726 213.117 249.858 212.878 249.931 212.669C250.009 212.456 250.047 212.239 250.047 212.019C250.047 211.74 249.989 211.488 249.873 211.263C249.761 211.035 249.594 210.853 249.374 210.717C249.153 210.582 248.886 210.514 248.572 210.514C248.196 210.514 247.882 210.588 247.631 210.735C247.383 210.878 247.197 211.079 247.073 211.339C246.949 211.598 246.887 211.897 246.887 212.234H245.812C245.812 211.757 245.917 211.322 246.126 210.926C246.335 210.531 246.645 210.218 247.056 209.985C247.466 209.749 247.971 209.631 248.572 209.631C249.106 209.631 249.563 209.726 249.943 209.916C250.322 210.101 250.613 210.365 250.814 210.706C251.02 211.043 251.122 211.438 251.122 211.891C251.122 212.139 251.08 212.39 250.994 212.646C250.913 212.898 250.799 213.15 250.652 213.401C250.508 213.653 250.34 213.901 250.146 214.145C249.956 214.389 249.753 214.629 249.536 214.865L247.27 217.323H251.511ZM253.85 217.305H253.96C254.58 217.305 255.083 217.218 255.471 217.044C255.858 216.87 256.156 216.635 256.365 216.341C256.574 216.047 256.718 215.715 256.795 215.348C256.873 214.976 256.911 214.594 256.911 214.203V212.908C256.911 212.524 256.867 212.183 256.778 211.885C256.692 211.587 256.572 211.337 256.417 211.136C256.266 210.934 256.094 210.781 255.9 210.677C255.707 210.572 255.501 210.52 255.285 210.52C255.037 210.52 254.814 210.57 254.617 210.671C254.423 210.768 254.258 210.905 254.123 211.083C253.991 211.261 253.89 211.471 253.821 211.711C253.751 211.951 253.716 212.212 253.716 212.495C253.716 212.747 253.747 212.991 253.809 213.227C253.871 213.463 253.966 213.676 254.094 213.866C254.221 214.056 254.38 214.207 254.57 214.319C254.764 214.428 254.99 214.482 255.25 214.482C255.49 214.482 255.715 214.435 255.924 214.342C256.137 214.246 256.325 214.116 256.487 213.953C256.654 213.787 256.785 213.599 256.882 213.39C256.983 213.181 257.041 212.962 257.057 212.733H257.568C257.568 213.055 257.504 213.372 257.376 213.686C257.252 213.996 257.078 214.279 256.853 214.534C256.629 214.79 256.365 214.995 256.063 215.15C255.761 215.301 255.432 215.377 255.075 215.377C254.657 215.377 254.295 215.295 253.989 215.133C253.683 214.97 253.431 214.753 253.234 214.482C253.04 214.211 252.895 213.909 252.798 213.576C252.705 213.239 252.659 212.898 252.659 212.553C252.659 212.15 252.715 211.773 252.827 211.42C252.939 211.068 253.106 210.758 253.327 210.491C253.548 210.22 253.821 210.009 254.146 209.857C254.475 209.706 254.855 209.631 255.285 209.631C255.769 209.631 256.181 209.728 256.522 209.921C256.863 210.115 257.14 210.375 257.353 210.7C257.57 211.025 257.728 211.391 257.829 211.798C257.93 212.205 257.98 212.623 257.98 213.053V213.442C257.98 213.88 257.951 214.325 257.893 214.778C257.839 215.227 257.732 215.657 257.574 216.068C257.419 216.478 257.192 216.846 256.894 217.172C256.596 217.493 256.206 217.749 255.726 217.939C255.25 218.124 254.661 218.217 253.96 218.217H253.85V217.305Z" fill="black"/>
<rect width="38.6683" height="38.6683" transform="translate(0.673828 232.976)" fill="black" fill-opacity="0.38"/>
<path d="M15.527 252.116H16.2938C16.6695 252.116 16.9793 252.054 17.2233 251.93C17.4712 251.803 17.6552 251.63 17.7752 251.413C17.8992 251.193 17.9611 250.945 17.9611 250.67C17.9611 250.344 17.9069 250.071 17.7985 249.851C17.69 249.63 17.5274 249.463 17.3105 249.351C17.0936 249.239 16.8186 249.182 16.4855 249.182C16.1834 249.182 15.9162 249.242 15.6838 249.363C15.4553 249.479 15.2752 249.645 15.1435 249.862C15.0157 250.079 14.9518 250.335 14.9518 250.629H13.877C13.877 250.199 13.9855 249.808 14.2024 249.455C14.4193 249.103 14.7233 248.822 15.1145 248.613C15.5095 248.404 15.9665 248.299 16.4855 248.299C16.9968 248.299 17.4441 248.39 17.8275 248.572C18.211 248.751 18.5092 249.018 18.7222 249.374C18.9352 249.727 19.0417 250.166 19.0417 250.693C19.0417 250.906 18.9914 251.134 18.8907 251.378C18.7939 251.619 18.6409 251.843 18.4317 252.052C18.2265 252.261 17.9592 252.434 17.63 252.569C17.3008 252.701 16.9057 252.767 16.4449 252.767H15.527V252.116ZM15.527 252.999V252.354H16.4449C16.9832 252.354 17.4286 252.418 17.7811 252.546C18.1335 252.674 18.4104 252.844 18.6118 253.057C18.8171 253.27 18.9604 253.505 19.0417 253.76C19.1269 254.012 19.1695 254.264 19.1695 254.516C19.1695 254.911 19.1018 255.261 18.9662 255.567C18.8345 255.873 18.6467 256.133 18.4027 256.346C18.1625 256.559 17.8798 256.719 17.5545 256.828C17.2291 256.936 16.8748 256.99 16.4913 256.99C16.1234 256.99 15.7768 256.938 15.4514 256.834C15.13 256.729 14.8453 256.578 14.5974 256.38C14.3496 256.179 14.1559 255.933 14.0165 255.643C13.877 255.348 13.8073 255.013 13.8073 254.638H14.8821C14.8821 254.932 14.946 255.19 15.0738 255.41C15.2055 255.631 15.3914 255.803 15.6315 255.927C15.8755 256.047 16.1621 256.107 16.4913 256.107C16.8205 256.107 17.1033 256.051 17.3395 255.939C17.5797 255.823 17.7636 255.648 17.8914 255.416C18.0231 255.184 18.089 254.891 18.089 254.539C18.089 254.186 18.0154 253.898 17.8682 253.673C17.721 253.445 17.5119 253.276 17.2408 253.168C16.9735 253.055 16.6579 252.999 16.2938 252.999H15.527ZM26.0799 251.971V253.261C26.0799 253.954 26.0179 254.539 25.894 255.015C25.77 255.492 25.5919 255.875 25.3595 256.166C25.1271 256.456 24.8463 256.667 24.5171 256.799C24.1918 256.927 23.8238 256.99 23.4133 256.99C23.088 256.99 22.7878 256.95 22.5128 256.868C22.2378 256.787 21.99 256.657 21.7692 256.479C21.5523 256.297 21.3664 256.061 21.2115 255.77C21.0566 255.48 20.9384 255.128 20.8571 254.713C20.7758 254.299 20.7351 253.815 20.7351 253.261V251.971C20.7351 251.278 20.7971 250.697 20.921 250.228C21.0488 249.76 21.2289 249.384 21.4613 249.101C21.6937 248.814 21.9725 248.609 22.2979 248.485C22.6271 248.361 22.995 248.299 23.4017 248.299C23.7309 248.299 24.033 248.34 24.308 248.421C24.5868 248.499 24.8347 248.625 25.0516 248.799C25.2685 248.969 25.4524 249.198 25.6035 249.485C25.7584 249.767 25.8765 250.114 25.9579 250.524C26.0392 250.935 26.0799 251.417 26.0799 251.971ZM24.9993 253.435V251.791C24.9993 251.411 24.9761 251.078 24.9296 250.792C24.887 250.501 24.8231 250.253 24.7379 250.048C24.6527 249.843 24.5442 249.676 24.4125 249.548C24.2847 249.421 24.1356 249.328 23.9652 249.27C23.7987 249.208 23.6108 249.177 23.4017 249.177C23.146 249.177 22.9195 249.225 22.722 249.322C22.5244 249.415 22.3579 249.564 22.2223 249.769C22.0906 249.974 21.99 250.244 21.9202 250.577C21.8505 250.91 21.8157 251.315 21.8157 251.791V253.435C21.8157 253.815 21.837 254.15 21.8796 254.44C21.926 254.731 21.9938 254.982 22.0829 255.195C22.172 255.404 22.2804 255.577 22.4082 255.712C22.536 255.848 22.6832 255.949 22.8498 256.014C23.0202 256.076 23.208 256.107 23.4133 256.107C23.6767 256.107 23.9071 256.057 24.1046 255.956C24.3021 255.856 24.4668 255.699 24.5984 255.486C24.734 255.269 24.8347 254.992 24.9005 254.655C24.9664 254.314 24.9993 253.908 24.9993 253.435Z" fill="black"/>
<rect width="38.6683" height="38.6683" transform="translate(39.3418 232.976)" fill="black" fill-opacity="0.05"/>
<path d="M54.1949 252.116H54.9618C55.3375 252.116 55.6473 252.054 55.8913 251.93C56.1392 251.803 56.3231 251.63 56.4432 251.413C56.5671 251.193 56.6291 250.945 56.6291 250.67C56.6291 250.344 56.5749 250.071 56.4665 249.851C56.358 249.63 56.1953 249.463 55.9784 249.351C55.7616 249.239 55.4866 249.182 55.1535 249.182C54.8514 249.182 54.5842 249.242 54.3518 249.363C54.1233 249.479 53.9432 249.645 53.8115 249.862C53.6837 250.079 53.6198 250.335 53.6198 250.629H52.545C52.545 250.199 52.6535 249.808 52.8703 249.455C53.0872 249.103 53.3913 248.822 53.7824 248.613C54.1775 248.404 54.6345 248.299 55.1535 248.299C55.6647 248.299 56.1121 248.39 56.4955 248.572C56.8789 248.751 57.1772 249.018 57.3902 249.374C57.6032 249.727 57.7097 250.166 57.7097 250.693C57.7097 250.906 57.6593 251.134 57.5586 251.378C57.4618 251.619 57.3088 251.843 57.0997 252.052C56.8944 252.261 56.6272 252.434 56.298 252.569C55.9688 252.701 55.5737 252.767 55.1128 252.767H54.1949V252.116ZM54.1949 252.999V252.354H55.1128C55.6512 252.354 56.0966 252.418 56.449 252.546C56.8015 252.674 57.0784 252.844 57.2798 253.057C57.4851 253.27 57.6284 253.505 57.7097 253.76C57.7949 254.012 57.8375 254.264 57.8375 254.516C57.8375 254.911 57.7697 255.261 57.6342 255.567C57.5025 255.873 57.3146 256.133 57.0706 256.346C56.8305 256.559 56.5478 256.719 56.2225 256.828C55.8971 256.936 55.5427 256.99 55.1593 256.99C54.7914 256.99 54.4447 256.938 54.1194 256.834C53.7979 256.729 53.5133 256.578 53.2654 256.38C53.0175 256.179 52.8239 255.933 52.6844 255.643C52.545 255.348 52.4753 255.013 52.4753 254.638H53.5501C53.5501 254.932 53.614 255.19 53.7418 255.41C53.8735 255.631 54.0594 255.803 54.2995 255.927C54.5435 256.047 54.8301 256.107 55.1593 256.107C55.4885 256.107 55.7712 256.051 56.0075 255.939C56.2476 255.823 56.4316 255.648 56.5594 255.416C56.6911 255.184 56.7569 254.891 56.7569 254.539C56.7569 254.186 56.6833 253.898 56.5362 253.673C56.389 253.445 56.1798 253.276 55.9087 253.168C55.6415 253.055 55.3258 252.999 54.9618 252.999H54.1949ZM62.9701 248.369V256.874H61.8954V249.711L59.7284 250.501V249.531L62.8016 248.369H62.9701Z" fill="black"/>
</g>
<defs>
<clipPath id="clip0_932_3458">
<rect x="0.673828" y="0.966309" width="270.678" height="270.678" rx="11.8979" fill="white"/>
</clipPath>
</defs>
</svg>
