<svg width="272" height="272" viewBox="0 0 272 272" fill="none" xmlns="http://www.w3.org/2000/svg">
<g clip-path="url(#clip0_932_3242)">
<rect width="270.678" height="38.6683" transform="translate(0.994141 0.966309)" fill="black"/>
<path d="M19.7883 24.8643H17.9641L17.9757 23.6094H19.7883C20.2801 23.6094 20.6926 23.501 21.0257 23.2841C21.3588 23.0633 21.6105 22.7476 21.7809 22.3371C21.9513 21.9227 22.0366 21.4269 22.0366 20.8499V20.4141C22.0366 19.9688 21.9881 19.5756 21.8913 19.2348C21.7945 18.894 21.6512 18.6074 21.4614 18.375C21.2755 18.1426 21.0451 17.9664 20.7701 17.8463C20.4951 17.7263 20.1794 17.6662 19.8231 17.6662H17.9292V16.4056H19.8231C20.3886 16.4056 20.9037 16.5005 21.3685 16.6902C21.8371 16.88 22.2418 17.1531 22.5827 17.5094C22.9273 17.8618 23.1907 18.284 23.3727 18.7759C23.5587 19.2677 23.6516 19.8177 23.6516 20.4258V20.8499C23.6516 21.4541 23.5587 22.004 23.3727 22.4998C23.1907 22.9916 22.9273 23.4138 22.5827 23.7663C22.2418 24.1187 21.8352 24.3898 21.3626 24.5796C20.8901 24.7694 20.3653 24.8643 19.7883 24.8643ZM18.8587 16.4056V24.8643H17.2611V16.4056H18.8587Z" fill="white"/>
<path d="M60.6 22.6683C60.6 22.5056 60.5748 22.3603 60.5244 22.2325C60.478 22.1009 60.3908 21.9827 60.263 21.8782C60.1391 21.7697 59.9628 21.6651 59.7343 21.5644C59.5097 21.4599 59.2192 21.3514 58.8629 21.2391C58.4678 21.1152 58.0999 20.9757 57.7591 20.8208C57.4183 20.6659 57.1181 20.4858 56.8586 20.2805C56.603 20.0753 56.4035 19.839 56.2602 19.5718C56.1169 19.3007 56.0453 18.9869 56.0453 18.6306C56.0453 18.282 56.1189 17.9645 56.266 17.6779C56.4171 17.3913 56.6301 17.1453 56.9051 16.94C57.1801 16.7309 57.5035 16.5702 57.8753 16.4579C58.251 16.3455 58.6654 16.2894 59.1185 16.2894C59.7459 16.2894 60.2882 16.4036 60.7452 16.6321C61.2061 16.8606 61.5624 17.1705 61.8141 17.5617C62.0659 17.9528 62.1918 18.3924 62.1918 18.8804H60.6C60.6 18.6171 60.5438 18.3847 60.4315 18.1833C60.323 17.9819 60.1565 17.8231 59.9319 17.7069C59.7111 17.5907 59.4322 17.5326 59.0953 17.5326C58.7699 17.5326 58.4988 17.581 58.2819 17.6779C58.0689 17.7747 57.9082 17.9064 57.7998 18.0729C57.6952 18.2394 57.6429 18.4253 57.6429 18.6306C57.6429 18.7855 57.6797 18.925 57.7533 19.0489C57.8269 19.169 57.9372 19.2832 58.0844 19.3917C58.2316 19.4962 58.4136 19.595 58.6305 19.688C58.8513 19.777 59.1069 19.8661 59.3974 19.9552C59.8621 20.0946 60.2688 20.2495 60.6174 20.42C60.9698 20.5904 61.2622 20.784 61.4946 21.0009C61.7309 21.2178 61.9071 21.4618 62.0233 21.7329C62.1434 22.004 62.2034 22.3119 62.2034 22.6566C62.2034 23.0207 62.1317 23.346 61.9884 23.6326C61.8451 23.9192 61.6399 24.1632 61.3726 24.3646C61.1054 24.566 60.7839 24.719 60.4082 24.8236C60.0364 24.9282 59.6201 24.9804 59.1592 24.9804C58.7486 24.9804 58.342 24.9262 57.9392 24.8178C57.5403 24.7055 57.1781 24.5389 56.8528 24.3182C56.5275 24.0935 56.268 23.8108 56.0743 23.47C55.8807 23.1253 55.7838 22.7225 55.7838 22.2616H57.3873C57.3873 22.5288 57.4299 22.7573 57.5151 22.9471C57.6042 23.133 57.7281 23.286 57.8869 23.4061C58.0496 23.5223 58.2393 23.6075 58.4562 23.6617C58.6731 23.7159 58.9074 23.743 59.1592 23.743C59.4845 23.743 59.7518 23.6985 59.9609 23.6094C60.1739 23.5164 60.3327 23.3886 60.4373 23.226C60.5457 23.0633 60.6 22.8774 60.6 22.6683Z" fill="white"/>
<path d="M98.4439 16.4056V24.8643H96.8521V16.4056H98.4439ZM101.07 16.4056V17.6662H94.2553V16.4056H101.07Z" fill="white"/>
<path d="M137.577 23.6733L139.831 25.4626L138.808 26.3515L136.589 24.5738L137.577 23.6733ZM139.871 20.42V20.8557C139.871 21.4947 139.786 22.0699 139.616 22.5811C139.445 23.0885 139.201 23.5203 138.884 23.8766C138.57 24.233 138.196 24.506 137.763 24.6958C137.329 24.8856 136.849 24.9804 136.322 24.9804C135.799 24.9804 135.319 24.8856 134.881 24.6958C134.447 24.506 134.072 24.233 133.754 23.8766C133.436 23.5203 133.19 23.0885 133.016 22.5811C132.842 22.0699 132.755 21.4947 132.755 20.8557V20.42C132.755 19.777 132.84 19.2019 133.01 18.6945C133.185 18.1872 133.429 17.7553 133.742 17.399C134.06 17.0388 134.436 16.7638 134.869 16.574C135.307 16.3843 135.787 16.2894 136.31 16.2894C136.837 16.2894 137.317 16.3843 137.751 16.574C138.189 16.7638 138.564 17.0388 138.878 17.399C139.196 17.7553 139.44 18.1872 139.61 18.6945C139.784 19.2019 139.871 19.777 139.871 20.42ZM138.256 20.8557V20.4083C138.256 19.9474 138.214 19.5427 138.129 19.1941C138.043 18.8417 137.916 18.5454 137.745 18.3053C137.579 18.0652 137.375 17.8851 137.135 17.765C136.895 17.6411 136.62 17.5791 136.31 17.5791C136.004 17.5791 135.731 17.6411 135.491 17.765C135.251 17.8851 135.048 18.0652 134.881 18.3053C134.715 18.5454 134.587 18.8417 134.498 19.1941C134.412 19.5427 134.37 19.9474 134.37 20.4083V20.8557C134.37 21.3127 134.412 21.7174 134.498 22.0699C134.587 22.4223 134.715 22.7205 134.881 22.9645C135.051 23.2047 135.257 23.3867 135.497 23.5106C135.741 23.6346 136.016 23.6965 136.322 23.6965C136.632 23.6965 136.907 23.6346 137.147 23.5106C137.387 23.3867 137.588 23.2047 137.751 22.9645C137.917 22.7205 138.043 22.4223 138.129 22.0699C138.214 21.7174 138.256 21.3127 138.256 20.8557Z" fill="white"/>
<path d="M176.245 23.6733L178.499 25.4626L177.476 26.3515L175.257 24.5738L176.245 23.6733ZM178.539 20.42V20.8557C178.539 21.4947 178.454 22.0699 178.284 22.5811C178.113 23.0885 177.869 23.5203 177.552 23.8766C177.238 24.233 176.864 24.506 176.431 24.6958C175.997 24.8856 175.517 24.9804 174.99 24.9804C174.467 24.9804 173.987 24.8856 173.549 24.6958C173.115 24.506 172.74 24.233 172.422 23.8766C172.104 23.5203 171.858 23.0885 171.684 22.5811C171.51 22.0699 171.423 21.4947 171.423 20.8557V20.42C171.423 19.777 171.508 19.2019 171.678 18.6945C171.853 18.1872 172.097 17.7553 172.41 17.399C172.728 17.0388 173.104 16.7638 173.537 16.574C173.975 16.3843 174.455 16.2894 174.978 16.2894C175.505 16.2894 175.985 16.3843 176.419 16.574C176.857 16.7638 177.232 17.0388 177.546 17.399C177.864 17.7553 178.108 18.1872 178.278 18.6945C178.452 19.2019 178.539 19.777 178.539 20.42ZM176.924 20.8557V20.4083C176.924 19.9474 176.882 19.5427 176.797 19.1941C176.711 18.8417 176.584 18.5454 176.413 18.3053C176.247 18.0652 176.043 17.8851 175.803 17.765C175.563 17.6411 175.288 17.5791 174.978 17.5791C174.672 17.5791 174.399 17.6411 174.159 17.765C173.919 17.8851 173.716 18.0652 173.549 18.3053C173.382 18.5454 173.255 18.8417 173.166 19.1941C173.08 19.5427 173.038 19.9474 173.038 20.4083V20.8557C173.038 21.3127 173.08 21.7174 173.166 22.0699C173.255 22.4223 173.382 22.7205 173.549 22.9645C173.719 23.2047 173.925 23.3867 174.165 23.5106C174.409 23.6346 174.684 23.6965 174.99 23.6965C175.3 23.6965 175.575 23.6346 175.815 23.5106C176.055 23.3867 176.256 23.2047 176.419 22.9645C176.585 22.7205 176.711 22.4223 176.797 22.0699C176.882 21.7174 176.924 21.3127 176.924 20.8557Z" fill="white"/>
<path d="M215.274 22.6683C215.274 22.5056 215.249 22.3603 215.198 22.2325C215.152 22.1009 215.065 21.9827 214.937 21.8782C214.813 21.7697 214.637 21.6651 214.408 21.5644C214.184 21.4599 213.893 21.3514 213.537 21.2391C213.142 21.1152 212.774 20.9757 212.433 20.8208C212.092 20.6659 211.792 20.4858 211.532 20.2805C211.277 20.0753 211.077 19.839 210.934 19.5718C210.791 19.3007 210.719 18.9869 210.719 18.6306C210.719 18.282 210.793 17.9645 210.94 17.6779C211.091 17.3913 211.304 17.1453 211.579 16.94C211.854 16.7309 212.177 16.5702 212.549 16.4579C212.925 16.3455 213.339 16.2894 213.792 16.2894C214.42 16.2894 214.962 16.4036 215.419 16.6321C215.88 16.8606 216.236 17.1705 216.488 17.5617C216.74 17.9528 216.866 18.3924 216.866 18.8804H215.274C215.274 18.6171 215.218 18.3847 215.105 18.1833C214.997 17.9819 214.83 17.8231 214.606 17.7069C214.385 17.5907 214.106 17.5326 213.769 17.5326C213.444 17.5326 213.173 17.581 212.956 17.6779C212.743 17.7747 212.582 17.9064 212.474 18.0729C212.369 18.2394 212.317 18.4253 212.317 18.6306C212.317 18.7855 212.354 18.925 212.427 19.0489C212.501 19.169 212.611 19.2832 212.758 19.3917C212.905 19.4962 213.087 19.595 213.304 19.688C213.525 19.777 213.781 19.8661 214.071 19.9552C214.536 20.0946 214.943 20.2495 215.291 20.42C215.644 20.5904 215.936 20.784 216.168 21.0009C216.405 21.2178 216.581 21.4618 216.697 21.7329C216.817 22.004 216.877 22.3119 216.877 22.6566C216.877 23.0207 216.806 23.346 216.662 23.6326C216.519 23.9192 216.314 24.1632 216.046 24.3646C215.779 24.566 215.458 24.719 215.082 24.8236C214.71 24.9282 214.294 24.9804 213.833 24.9804C213.422 24.9804 213.016 24.9262 212.613 24.8178C212.214 24.7055 211.852 24.5389 211.527 24.3182C211.201 24.0935 210.942 23.8108 210.748 23.47C210.554 23.1253 210.458 22.7225 210.458 22.2616H212.061C212.061 22.5288 212.104 22.7573 212.189 22.9471C212.278 23.133 212.402 23.286 212.561 23.4061C212.723 23.5223 212.913 23.6075 213.13 23.6617C213.347 23.7159 213.581 23.743 213.833 23.743C214.158 23.743 214.426 23.6985 214.635 23.6094C214.848 23.5164 215.007 23.3886 215.111 23.226C215.22 23.0633 215.274 22.8774 215.274 22.6683Z" fill="white"/>
<path d="M253.942 22.6683C253.942 22.5056 253.917 22.3603 253.866 22.2325C253.82 22.1009 253.733 21.9827 253.605 21.8782C253.481 21.7697 253.305 21.6651 253.076 21.5644C252.851 21.4599 252.561 21.3514 252.205 21.2391C251.81 21.1152 251.442 20.9757 251.101 20.8208C250.76 20.6659 250.46 20.4858 250.2 20.2805C249.945 20.0753 249.745 19.839 249.602 19.5718C249.459 19.3007 249.387 18.9869 249.387 18.6306C249.387 18.282 249.461 17.9645 249.608 17.6779C249.759 17.3913 249.972 17.1453 250.247 16.94C250.522 16.7309 250.845 16.5702 251.217 16.4579C251.593 16.3455 252.007 16.2894 252.46 16.2894C253.088 16.2894 253.63 16.4036 254.087 16.6321C254.548 16.8606 254.904 17.1705 255.156 17.5617C255.408 17.9528 255.534 18.3924 255.534 18.8804H253.942C253.942 18.6171 253.886 18.3847 253.773 18.1833C253.665 17.9819 253.498 17.8231 253.274 17.7069C253.053 17.5907 252.774 17.5326 252.437 17.5326C252.112 17.5326 251.841 17.581 251.624 17.6779C251.411 17.7747 251.25 17.9064 251.142 18.0729C251.037 18.2394 250.985 18.4253 250.985 18.6306C250.985 18.7855 251.021 18.925 251.095 19.0489C251.169 19.169 251.279 19.2832 251.426 19.3917C251.573 19.4962 251.755 19.595 251.972 19.688C252.193 19.777 252.449 19.8661 252.739 19.9552C253.204 20.0946 253.611 20.2495 253.959 20.42C254.312 20.5904 254.604 20.784 254.836 21.0009C255.073 21.2178 255.249 21.4618 255.365 21.7329C255.485 22.004 255.545 22.3119 255.545 22.6566C255.545 23.0207 255.474 23.346 255.33 23.6326C255.187 23.9192 254.982 24.1632 254.714 24.3646C254.447 24.566 254.126 24.719 253.75 24.8236C253.378 24.9282 252.962 24.9804 252.501 24.9804C252.09 24.9804 251.684 24.9262 251.281 24.8178C250.882 24.7055 250.52 24.5389 250.195 24.3182C249.869 24.0935 249.61 23.8108 249.416 23.47C249.222 23.1253 249.126 22.7225 249.126 22.2616H250.729C250.729 22.5288 250.772 22.7573 250.857 22.9471C250.946 23.133 251.07 23.286 251.229 23.4061C251.391 23.5223 251.581 23.6075 251.798 23.6617C252.015 23.7159 252.249 23.743 252.501 23.743C252.826 23.743 253.094 23.6985 253.303 23.6094C253.516 23.5164 253.675 23.3886 253.779 23.226C253.888 23.0633 253.942 22.8774 253.942 22.6683Z" fill="white"/>
<rect width="38.6683" height="38.6683" transform="translate(155.667 39.6348)" fill="black" fill-opacity="0.05"/>
<path d="M175.89 55.0275V63.5327H174.815V56.3695L172.648 57.1596V56.1895L175.721 55.0275H175.89Z" fill="black"/>
<rect width="38.6683" height="38.6683" transform="translate(194.336 39.6348)" fill="black" fill-opacity="0.05"/>
<path d="M216.569 62.6497V63.5327H211.032V62.76L213.803 59.6752C214.144 59.2956 214.407 58.9742 214.593 58.7108C214.783 58.4436 214.915 58.2054 214.988 57.9962C215.066 57.7832 215.105 57.5663 215.105 57.3456C215.105 57.0667 215.046 56.8149 214.93 56.5903C214.818 56.3618 214.651 56.1798 214.431 56.0442C214.21 55.9087 213.943 55.8409 213.629 55.8409C213.253 55.8409 212.94 55.9145 212.688 56.0616C212.44 56.2049 212.254 56.4063 212.13 56.6658C212.006 56.9253 211.944 57.2236 211.944 57.5605H210.869C210.869 57.0841 210.974 56.6484 211.183 56.2534C211.392 55.8583 211.702 55.5446 212.113 55.3122C212.523 55.076 213.029 54.9578 213.629 54.9578C214.163 54.9578 214.62 55.0527 215 55.2425C215.38 55.4284 215.67 55.6918 215.871 56.0326C216.077 56.3695 216.179 56.7646 216.179 57.2177C216.179 57.4656 216.137 57.7174 216.052 57.973C215.97 58.2247 215.856 58.4765 215.709 58.7282C215.565 58.98 215.397 59.2278 215.203 59.4718C215.014 59.7158 214.81 59.956 214.593 60.1922L212.328 62.6497H216.569Z" fill="black"/>
<rect width="38.6683" height="38.6683" transform="translate(233.004 39.6348)" fill="black" fill-opacity="0.38"/>
<path d="M251.264 58.7747H252.031C252.406 58.7747 252.716 58.7127 252.96 58.5888C253.208 58.461 253.392 58.2886 253.512 58.0717C253.636 57.851 253.698 57.6031 253.698 57.3281C253.698 57.0028 253.644 56.7297 253.535 56.509C253.427 56.2882 253.264 56.1217 253.047 56.0094C252.83 55.897 252.555 55.8409 252.222 55.8409C251.92 55.8409 251.653 55.9009 251.421 56.021C251.192 56.1372 251.012 56.3037 250.88 56.5206C250.753 56.7375 250.689 56.9931 250.689 57.2875H249.614C249.614 56.8576 249.722 56.4664 249.939 56.1139C250.156 55.7615 250.46 55.4807 250.851 55.2715C251.246 55.0624 251.703 54.9578 252.222 54.9578C252.734 54.9578 253.181 55.0488 253.564 55.2309C253.948 55.409 254.246 55.6763 254.459 56.0326C254.672 56.385 254.779 56.8246 254.779 57.3514C254.779 57.5644 254.728 57.7929 254.628 58.0369C254.531 58.277 254.378 58.5017 254.169 58.7108C253.963 58.9199 253.696 59.0923 253.367 59.2278C253.038 59.3595 252.643 59.4254 252.182 59.4254H251.264V58.7747ZM251.264 59.6578V59.0129H252.182C252.72 59.0129 253.165 59.0768 253.518 59.2046C253.87 59.3324 254.147 59.5028 254.349 59.7158C254.554 59.9289 254.697 60.1632 254.779 60.4188C254.864 60.6705 254.906 60.9223 254.906 61.174C254.906 61.5691 254.839 61.9196 254.703 62.2256C254.571 62.5315 254.384 62.791 254.14 63.004C253.899 63.2171 253.617 63.3778 253.291 63.4862C252.966 63.5947 252.612 63.6489 252.228 63.6489C251.86 63.6489 251.514 63.5966 251.188 63.492C250.867 63.3875 250.582 63.2364 250.334 63.0389C250.086 62.8375 249.893 62.5916 249.753 62.3011C249.614 62.0067 249.544 61.6717 249.544 61.296H250.619C250.619 61.5904 250.683 61.8479 250.811 62.0687C250.942 62.2895 251.128 62.4618 251.368 62.5858C251.612 62.7058 251.899 62.7659 252.228 62.7659C252.557 62.7659 252.84 62.7097 253.076 62.5974C253.316 62.4812 253.5 62.3069 253.628 62.0745C253.76 61.8421 253.826 61.5497 253.826 61.1973C253.826 60.8448 253.752 60.5563 253.605 60.3317C253.458 60.1031 253.249 59.9347 252.978 59.8262C252.71 59.7139 252.395 59.6578 252.031 59.6578H251.264Z" fill="black"/>
<rect width="38.6683" height="38.6683" transform="translate(0.994141 78.303)" fill="black" fill-opacity="0.38"/>
<path d="M23.4011 99.3543V100.237H17.2894V99.6041L21.0772 93.7422H21.9545L21.0133 95.4386L18.5094 99.3543H23.4011ZM22.2217 93.7422V102.201H21.147V93.7422H22.2217Z" fill="black"/>
<rect width="38.6683" height="38.6683" transform="translate(39.6621 78.303)" fill="#C30101"/>
<path d="M57.7119 98.1749L56.8521 97.9542L57.2762 93.7422H61.6159V94.7357H58.1883L57.9326 97.0362C58.0876 96.9472 58.2831 96.8639 58.5194 96.7864C58.7595 96.709 59.0345 96.6702 59.3444 96.6702C59.7355 96.6702 60.086 96.738 60.3959 96.8736C60.7057 97.0053 60.9691 97.195 61.186 97.4429C61.4067 97.6908 61.5752 97.989 61.6914 98.3376C61.8076 98.6862 61.8657 99.0754 61.8657 99.5053C61.8657 99.912 61.8095 100.286 61.6972 100.627C61.5888 100.967 61.4242 101.266 61.2034 101.521C60.9826 101.773 60.7038 101.969 60.3668 102.108C60.0338 102.247 59.6406 102.317 59.1875 102.317C58.8467 102.317 58.5233 102.271 58.2173 102.178C57.9152 102.081 57.6441 101.936 57.404 101.742C57.1677 101.544 56.9741 101.3 56.823 101.01C56.6758 100.716 56.5829 100.371 56.5442 99.9759H57.5666C57.6131 100.293 57.7061 100.561 57.8455 100.778C57.9849 100.994 58.167 101.159 58.3916 101.271C58.6201 101.38 58.8854 101.434 59.1875 101.434C59.4431 101.434 59.6697 101.39 59.8672 101.3C60.0647 101.211 60.2313 101.084 60.3668 100.917C60.5024 100.75 60.605 100.549 60.6747 100.313C60.7483 100.077 60.7851 99.8113 60.7851 99.5169C60.7851 99.2497 60.7483 99.0018 60.6747 98.7733C60.6012 98.5448 60.4908 98.3453 60.3436 98.1749C60.2003 98.0045 60.0241 97.8728 59.8149 97.7799C59.6058 97.683 59.3657 97.6346 59.0945 97.6346C58.7344 97.6346 58.4613 97.683 58.2754 97.7799C58.0934 97.8767 57.9055 98.0084 57.7119 98.1749Z" fill="white"/>
<rect width="38.6683" height="38.6683" transform="translate(78.3311 78.303)" fill="#C30101"/>
<path d="M99.1462 93.7306H99.2391V94.6427H99.1462C98.5768 94.6427 98.1004 94.7357 97.717 94.9216C97.3336 95.1036 97.0296 95.3495 96.8049 95.6594C96.5803 95.9654 96.4176 96.3101 96.3169 96.6935C96.2201 97.0769 96.1717 97.4662 96.1717 97.8612V99.1044C96.1717 99.4801 96.2162 99.8132 96.3053 100.104C96.3944 100.39 96.5164 100.632 96.6713 100.83C96.8262 101.027 97.0005 101.177 97.1942 101.277C97.3917 101.378 97.597 101.428 97.81 101.428C98.0578 101.428 98.2786 101.382 98.4723 101.289C98.6659 101.192 98.8286 101.058 98.9603 100.888C99.0958 100.714 99.1984 100.508 99.2682 100.272C99.3379 100.036 99.3727 99.7764 99.3727 99.4937C99.3727 99.2419 99.3417 98.9999 99.2798 98.7675C99.2178 98.5312 99.1229 98.3221 98.9951 98.1401C98.8673 97.9542 98.7066 97.8089 98.5129 97.7043C98.3231 97.5959 98.0966 97.5417 97.8332 97.5417C97.535 97.5417 97.2561 97.6153 96.9966 97.7624C96.741 97.9057 96.5299 98.0955 96.3634 98.3318C96.2007 98.5642 96.1078 98.8178 96.0845 99.0928L95.5152 99.087C95.5694 98.6532 95.6701 98.2834 95.8173 97.9774C95.9683 97.6675 96.1542 97.4158 96.375 97.2222C96.5996 97.0246 96.8495 96.8813 97.1244 96.7922C97.4033 96.6993 97.6976 96.6528 98.0075 96.6528C98.4297 96.6528 98.7937 96.7322 99.0997 96.891C99.4057 97.0498 99.6574 97.2628 99.8549 97.5301C100.052 97.7934 100.198 98.0916 100.291 98.4247C100.387 98.7539 100.436 99.0928 100.436 99.4414C100.436 99.8403 100.38 100.214 100.267 100.563C100.155 100.911 99.9866 101.217 99.762 101.481C99.5412 101.744 99.2682 101.949 98.9428 102.096C98.6175 102.244 98.2399 102.317 97.81 102.317C97.353 102.317 96.954 102.224 96.6132 102.038C96.2724 101.848 95.9896 101.597 95.765 101.283C95.5404 100.969 95.3719 100.621 95.2596 100.237C95.1473 99.8539 95.0911 99.4646 95.0911 99.0696V98.5642C95.0911 97.9677 95.1511 97.3829 95.2712 96.8097C95.3913 96.2365 95.5985 95.7175 95.8928 95.2527C96.191 94.788 96.6035 94.4181 97.1303 94.1431C97.657 93.8681 98.329 93.7306 99.1462 93.7306Z" fill="white"/>
<rect width="38.6683" height="38.6683" transform="translate(116.999 78.303)" fill="#C30101"/>
<path d="M139.157 93.7422V94.3464L135.654 102.201H134.521L138.018 94.6253H133.441V93.7422H139.157Z" fill="white"/>
<rect width="38.6683" height="38.6683" transform="translate(155.667 78.303)" fill="black" fill-opacity="0.05"/>
<path d="M177.69 99.912C177.69 100.427 177.57 100.865 177.33 101.225C177.094 101.581 176.773 101.852 176.366 102.038C175.963 102.224 175.508 102.317 175.001 102.317C174.493 102.317 174.036 102.224 173.63 102.038C173.223 101.852 172.901 101.581 172.665 101.225C172.429 100.865 172.311 100.427 172.311 99.912C172.311 99.575 172.375 99.2671 172.503 98.9883C172.634 98.7055 172.818 98.4596 173.054 98.2504C173.295 98.0413 173.577 97.8806 173.903 97.7682C174.232 97.6521 174.594 97.594 174.989 97.594C175.508 97.594 175.971 97.6947 176.378 97.8961C176.784 98.0936 177.104 98.3666 177.336 98.7152C177.572 99.0638 177.69 99.4627 177.69 99.912ZM176.61 99.8887C176.61 99.575 176.542 99.2981 176.407 99.058C176.271 98.814 176.081 98.6242 175.837 98.4886C175.593 98.3531 175.311 98.2853 174.989 98.2853C174.66 98.2853 174.375 98.3531 174.135 98.4886C173.899 98.6242 173.715 98.814 173.583 99.058C173.451 99.2981 173.386 99.575 173.386 99.8887C173.386 100.214 173.45 100.493 173.577 100.725C173.709 100.954 173.895 101.13 174.135 101.254C174.379 101.374 174.668 101.434 175.001 101.434C175.334 101.434 175.62 101.374 175.86 101.254C176.101 101.13 176.285 100.954 176.412 100.725C176.544 100.493 176.61 100.214 176.61 99.8887ZM177.493 95.9441C177.493 96.3546 177.385 96.7245 177.168 97.0537C176.951 97.3829 176.654 97.6424 176.279 97.8322C175.903 98.0219 175.477 98.1168 175.001 98.1168C174.517 98.1168 174.085 98.0219 173.705 97.8322C173.329 97.6424 173.035 97.3829 172.822 97.0537C172.609 96.7245 172.503 96.3546 172.503 95.9441C172.503 95.4522 172.609 95.0339 172.822 94.6892C173.039 94.3445 173.335 94.0811 173.711 93.8991C174.087 93.7171 174.515 93.626 174.995 93.626C175.479 93.626 175.909 93.7171 176.285 93.8991C176.66 94.0811 176.955 94.3445 177.168 94.6892C177.385 95.0339 177.493 95.4522 177.493 95.9441ZM176.418 95.9615C176.418 95.6787 176.358 95.4289 176.238 95.212C176.118 94.9952 175.951 94.8247 175.738 94.7008C175.525 94.573 175.278 94.5091 174.995 94.5091C174.712 94.5091 174.464 94.5691 174.251 94.6892C174.042 94.8054 173.877 94.9719 173.757 95.1888C173.641 95.4057 173.583 95.6633 173.583 95.9615C173.583 96.252 173.641 96.5056 173.757 96.7225C173.877 96.9394 174.044 97.1079 174.257 97.228C174.47 97.348 174.718 97.4081 175.001 97.4081C175.283 97.4081 175.529 97.348 175.738 97.228C175.951 97.1079 176.118 96.9394 176.238 96.7225C176.358 96.5056 176.418 96.252 176.418 95.9615Z" fill="black"/>
<rect width="38.6683" height="38.6683" transform="translate(194.336 78.303)" fill="black" fill-opacity="0.05"/>
<path d="M212.095 101.3H212.206C212.825 101.3 213.329 101.213 213.716 101.039C214.103 100.865 214.402 100.63 214.611 100.336C214.82 100.042 214.963 99.7106 215.041 99.3426C215.118 98.9708 215.157 98.5893 215.157 98.1982V96.9026C215.157 96.5192 215.112 96.1784 215.023 95.8801C214.938 95.5819 214.818 95.3321 214.663 95.1307C214.512 94.9293 214.34 94.7763 214.146 94.6718C213.952 94.5672 213.747 94.5149 213.53 94.5149C213.282 94.5149 213.06 94.5653 212.862 94.666C212.668 94.7628 212.504 94.9003 212.368 95.0784C212.237 95.2566 212.136 95.4657 212.066 95.7059C211.996 95.946 211.962 96.2074 211.962 96.4901C211.962 96.7419 211.993 96.9859 212.055 97.2222C212.117 97.4584 212.211 97.6714 212.339 97.8612C212.467 98.051 212.626 98.202 212.816 98.3143C213.009 98.4228 213.236 98.477 213.495 98.477C213.735 98.477 213.96 98.4305 214.169 98.3376C214.382 98.2408 214.57 98.111 214.733 97.9483C214.899 97.7818 215.031 97.594 215.128 97.3848C215.229 97.1757 215.287 96.9568 215.302 96.7283H215.813C215.813 97.0498 215.749 97.3674 215.622 97.6811C215.498 97.9909 215.323 98.2737 215.099 98.5293C214.874 98.7849 214.611 98.9902 214.309 99.1451C214.007 99.2962 213.677 99.3717 213.321 99.3717C212.903 99.3717 212.541 99.2903 212.235 99.1277C211.929 98.965 211.677 98.7481 211.479 98.477C211.286 98.2059 211.141 97.9038 211.044 97.5707C210.951 97.2338 210.904 96.8929 210.904 96.5482C210.904 96.1454 210.96 95.7678 211.073 95.4154C211.185 95.0629 211.352 94.7531 211.572 94.4859C211.793 94.2147 212.066 94.0037 212.392 93.8526C212.721 93.7016 213.1 93.626 213.53 93.626C214.014 93.626 214.427 93.7229 214.768 93.9165C215.108 94.1102 215.385 94.3697 215.598 94.695C215.815 95.0203 215.974 95.3863 216.075 95.793C216.175 96.1997 216.226 96.618 216.226 97.0479V97.4371C216.226 97.8748 216.197 98.3202 216.139 98.7733C216.084 99.2226 215.978 99.6525 215.819 100.063C215.664 100.474 215.438 100.841 215.139 101.167C214.841 101.488 214.452 101.744 213.972 101.934C213.495 102.12 212.907 102.213 212.206 102.213H212.095V101.3Z" fill="black"/>
<rect width="38.6683" height="38.6683" transform="translate(233.004 78.303)" fill="black" fill-opacity="0.38"/>
<path d="M249.822 93.6958V102.201H248.747V95.0378L246.58 95.8279V94.8577L249.653 93.6958H249.822ZM258.411 97.2977V98.5874C258.411 99.2807 258.349 99.8655 258.225 100.342C258.101 100.818 257.923 101.202 257.691 101.492C257.458 101.783 257.177 101.994 256.848 102.125C256.523 102.253 256.155 102.317 255.744 102.317C255.419 102.317 255.119 102.276 254.844 102.195C254.569 102.114 254.321 101.984 254.1 101.806C253.883 101.624 253.697 101.388 253.543 101.097C253.388 100.807 253.269 100.454 253.188 100.04C253.107 99.6254 253.066 99.1412 253.066 98.5874V97.2977C253.066 96.6044 253.128 96.0234 253.252 95.5548C253.38 95.0862 253.56 94.7105 253.792 94.4278C254.025 94.1412 254.304 93.9359 254.629 93.8119C254.958 93.688 255.326 93.626 255.733 93.626C256.062 93.626 256.364 93.6667 256.639 93.748C256.918 93.8255 257.166 93.9514 257.383 94.1257C257.6 94.2961 257.783 94.5246 257.935 94.8112C258.089 95.0939 258.208 95.4406 258.289 95.8511C258.37 96.2616 258.411 96.7438 258.411 97.2977ZM257.33 98.7617V97.1176C257.33 96.738 257.307 96.4049 257.261 96.1183C257.218 95.8279 257.154 95.58 257.069 95.3747C256.984 95.1694 256.875 95.0029 256.744 94.8751C256.616 94.7473 256.467 94.6543 256.296 94.5962C256.13 94.5343 255.942 94.5033 255.733 94.5033C255.477 94.5033 255.251 94.5517 255.053 94.6485C254.855 94.7415 254.689 94.8906 254.553 95.0959C254.422 95.3011 254.321 95.5703 254.251 95.9034C254.182 96.2365 254.147 96.6412 254.147 97.1176V98.7617C254.147 99.1412 254.168 99.4763 254.211 99.7667C254.257 100.057 254.325 100.309 254.414 100.522C254.503 100.731 254.611 100.903 254.739 101.039C254.867 101.175 255.014 101.275 255.181 101.341C255.351 101.403 255.539 101.434 255.744 101.434C256.008 101.434 256.238 101.384 256.436 101.283C256.633 101.182 256.798 101.025 256.929 100.812C257.065 100.596 257.166 100.319 257.232 99.9817C257.297 99.6409 257.33 99.2342 257.33 98.7617Z" fill="black"/>
<rect width="38.6683" height="38.6683" transform="translate(0.994141 116.971)" fill="black" fill-opacity="0.38"/>
<path d="M17.8109 132.364V140.869H16.7361V133.706L14.5692 134.496V133.526L17.6424 132.364H17.8109ZM24.6225 132.364V140.869H23.5477V133.706L21.3807 134.496V133.526L24.454 132.364H24.6225Z" fill="black"/>
<rect width="38.6683" height="38.6683" transform="translate(39.6621 116.971)" fill="black" fill-opacity="0.05"/>
<path d="M56.4789 132.364V140.869H55.4041V133.706L53.2371 134.496V133.526L56.3104 132.364H56.4789ZM65.3005 139.986V140.869H59.764V140.096L62.5352 137.012C62.876 136.632 63.1394 136.311 63.3253 136.047C63.5151 135.78 63.6467 135.542 63.7203 135.333C63.7978 135.12 63.8365 134.903 63.8365 134.682C63.8365 134.403 63.7784 134.151 63.6622 133.927C63.5499 133.698 63.3834 133.516 63.1626 133.381C62.9419 133.245 62.6746 133.177 62.3609 133.177C61.9852 133.177 61.6715 133.251 61.4198 133.398C61.1719 133.541 60.986 133.743 60.862 134.002C60.7381 134.262 60.6761 134.56 60.6761 134.897H59.6014C59.6014 134.421 59.7059 133.985 59.9151 133.59C60.1242 133.195 60.4341 132.881 60.8446 132.649C61.2552 132.412 61.7606 132.294 62.3609 132.294C62.8954 132.294 63.3524 132.389 63.732 132.579C64.1115 132.765 64.402 133.028 64.6034 133.369C64.8087 133.706 64.9113 134.101 64.9113 134.554C64.9113 134.802 64.8687 135.054 64.7835 135.309C64.7021 135.561 64.5879 135.813 64.4407 136.065C64.2974 136.316 64.1289 136.564 63.9353 136.808C63.7455 137.052 63.5422 137.292 63.3253 137.529L61.0596 139.986H65.3005Z" fill="black"/>
<rect width="38.6683" height="38.6683" transform="translate(78.3311 116.971)" fill="black" fill-opacity="0.05"/>
<path d="M95.1478 132.364V140.869H94.073V133.706L91.9061 134.496V133.526L94.9793 132.364H95.1478ZM99.9957 136.111H100.763C101.138 136.111 101.448 136.049 101.692 135.925C101.94 135.797 102.124 135.625 102.244 135.408C102.368 135.187 102.43 134.94 102.43 134.665C102.43 134.339 102.376 134.066 102.267 133.845C102.159 133.625 101.996 133.458 101.779 133.346C101.562 133.233 101.287 133.177 100.954 133.177C100.652 133.177 100.385 133.237 100.153 133.357C99.9241 133.474 99.744 133.64 99.6123 133.857C99.4845 134.074 99.4206 134.33 99.4206 134.624H98.3458C98.3458 134.194 98.4543 133.803 98.6712 133.45C98.8881 133.098 99.1921 132.817 99.5833 132.608C99.9783 132.399 100.435 132.294 100.954 132.294C101.466 132.294 101.913 132.385 102.296 132.567C102.68 132.745 102.978 133.013 103.191 133.369C103.404 133.721 103.511 134.161 103.511 134.688C103.511 134.901 103.46 135.129 103.359 135.373C103.263 135.613 103.11 135.838 102.901 136.047C102.695 136.256 102.428 136.429 102.099 136.564C101.77 136.696 101.375 136.762 100.914 136.762H99.9957V136.111ZM99.9957 136.994V136.349H100.914C101.452 136.349 101.897 136.413 102.25 136.541C102.602 136.669 102.879 136.839 103.081 137.052C103.286 137.265 103.429 137.5 103.511 137.755C103.596 138.007 103.638 138.259 103.638 138.51C103.638 138.906 103.571 139.256 103.435 139.562C103.303 139.868 103.115 140.127 102.871 140.34C102.631 140.553 102.349 140.714 102.023 140.823C101.698 140.931 101.344 140.985 100.96 140.985C100.592 140.985 100.246 140.933 99.9202 140.828C99.5988 140.724 99.3141 140.573 99.0662 140.375C98.8183 140.174 98.6247 139.928 98.4853 139.638C98.3458 139.343 98.2761 139.008 98.2761 138.632H99.3509C99.3509 138.927 99.4148 139.184 99.5426 139.405C99.6743 139.626 99.8602 139.798 100.1 139.922C100.344 140.042 100.631 140.102 100.96 140.102C101.289 140.102 101.572 140.046 101.808 139.934C102.048 139.818 102.232 139.643 102.36 139.411C102.492 139.179 102.558 138.886 102.558 138.534C102.558 138.181 102.484 137.893 102.337 137.668C102.19 137.44 101.981 137.271 101.71 137.163C101.442 137.05 101.127 136.994 100.763 136.994H99.9957Z" fill="black"/>
<rect width="38.6683" height="38.6683" transform="translate(116.999 116.971)" fill="black" fill-opacity="0.05"/>
<path d="M133.817 132.364V140.869H132.742V133.706L130.575 134.496V133.526L133.648 132.364H133.817ZM142.813 138.022V138.906H136.701V138.272L140.489 132.41H141.366L140.425 134.107L137.921 138.022H142.813ZM141.633 132.41V140.869H140.559V132.41H141.633Z" fill="black"/>
<rect width="38.6683" height="38.6683" transform="translate(155.667 116.971)" fill="black" fill-opacity="0.05"/>
<path d="M172.484 132.364V140.869H171.409V133.706L169.242 134.496V133.526L172.315 132.364H172.484ZM177.123 136.843L176.263 136.622L176.687 132.41H181.027V133.404H177.599L177.343 135.704C177.498 135.615 177.694 135.532 177.93 135.455C178.17 135.377 178.445 135.338 178.755 135.338C179.146 135.338 179.497 135.406 179.807 135.542C180.116 135.673 180.38 135.863 180.597 136.111C180.817 136.359 180.986 136.657 181.102 137.006C181.218 137.354 181.276 137.744 181.276 138.174C181.276 138.58 181.22 138.954 181.108 139.295C180.999 139.636 180.835 139.934 180.614 140.189C180.393 140.441 180.114 140.637 179.778 140.776C179.444 140.916 179.051 140.985 178.598 140.985C178.257 140.985 177.934 140.939 177.628 140.846C177.326 140.749 177.055 140.604 176.815 140.41C176.578 140.213 176.385 139.969 176.234 139.678C176.087 139.384 175.994 139.039 175.955 138.644H176.977C177.024 138.962 177.117 139.229 177.256 139.446C177.396 139.663 177.578 139.827 177.802 139.94C178.031 140.048 178.296 140.102 178.598 140.102C178.854 140.102 179.08 140.058 179.278 139.969C179.475 139.88 179.642 139.752 179.778 139.585C179.913 139.419 180.016 139.217 180.085 138.981C180.159 138.745 180.196 138.479 180.196 138.185C180.196 137.918 180.159 137.67 180.085 137.442C180.012 137.213 179.901 137.014 179.754 136.843C179.611 136.673 179.435 136.541 179.226 136.448C179.016 136.351 178.776 136.303 178.505 136.303C178.145 136.303 177.872 136.351 177.686 136.448C177.504 136.545 177.316 136.677 177.123 136.843Z" fill="black"/>
<rect width="38.6683" height="38.6683" transform="translate(194.336 116.971)" fill="black" fill-opacity="0.05"/>
<path d="M211.153 132.364V140.869H210.078V133.706L207.911 134.496V133.526L210.984 132.364H211.153ZM218.557 132.399H218.65V133.311H218.557C217.987 133.311 217.511 133.404 217.128 133.59C216.744 133.772 216.44 134.018 216.216 134.328C215.991 134.634 215.828 134.978 215.728 135.362C215.631 135.745 215.582 136.134 215.582 136.529V137.773C215.582 138.148 215.627 138.481 215.716 138.772C215.805 139.059 215.927 139.301 216.082 139.498C216.237 139.696 216.411 139.845 216.605 139.945C216.802 140.046 217.008 140.096 217.221 140.096C217.469 140.096 217.689 140.05 217.883 139.957C218.077 139.86 218.239 139.727 218.371 139.556C218.506 139.382 218.609 139.177 218.679 138.94C218.749 138.704 218.783 138.445 218.783 138.162C218.783 137.91 218.752 137.668 218.69 137.436C218.628 137.199 218.534 136.99 218.406 136.808C218.278 136.622 218.117 136.477 217.924 136.373C217.734 136.264 217.507 136.21 217.244 136.21C216.946 136.21 216.667 136.283 216.407 136.431C216.152 136.574 215.941 136.764 215.774 137C215.611 137.232 215.518 137.486 215.495 137.761L214.926 137.755C214.98 137.321 215.081 136.952 215.228 136.646C215.379 136.336 215.565 136.084 215.786 135.89C216.01 135.693 216.26 135.55 216.535 135.46C216.814 135.368 217.108 135.321 217.418 135.321C217.84 135.321 218.204 135.4 218.51 135.559C218.816 135.718 219.068 135.931 219.266 136.198C219.463 136.462 219.608 136.76 219.701 137.093C219.798 137.422 219.847 137.761 219.847 138.11C219.847 138.509 219.79 138.882 219.678 139.231C219.566 139.579 219.397 139.885 219.173 140.149C218.952 140.412 218.679 140.617 218.353 140.765C218.028 140.912 217.651 140.985 217.221 140.985C216.764 140.985 216.365 140.892 216.024 140.706C215.683 140.517 215.4 140.265 215.176 139.951C214.951 139.638 214.783 139.289 214.67 138.906C214.558 138.522 214.502 138.133 214.502 137.738V137.232C214.502 136.636 214.562 136.051 214.682 135.478C214.802 134.905 215.009 134.386 215.303 133.921C215.602 133.456 216.014 133.086 216.541 132.811C217.068 132.536 217.74 132.399 218.557 132.399Z" fill="black"/>
<rect width="38.6683" height="38.6683" transform="translate(233.004 116.971)" fill="black" fill-opacity="0.38"/>
<path d="M249.822 132.364V140.869H248.747V133.706L246.58 134.496V133.526L249.653 132.364H249.822ZM258.568 132.41V133.015L255.065 140.869H253.932L257.429 133.293H252.851V132.41H258.568Z" fill="black"/>
<rect width="38.6683" height="38.6683" transform="translate(0.994141 155.64)" fill="black" fill-opacity="0.38"/>
<path d="M17.8109 171.032V179.538H16.7361V172.374L14.5692 173.165V172.194L17.6424 171.032H17.8109ZM26.4234 177.249C26.4234 177.764 26.3034 178.201 26.0632 178.562C25.827 178.918 25.5055 179.189 25.0988 179.375C24.696 179.561 24.241 179.654 23.7336 179.654C23.2262 179.654 22.7692 179.561 22.3625 179.375C21.9559 179.189 21.6344 178.918 21.3982 178.562C21.1619 178.201 21.0438 177.764 21.0438 177.249C21.0438 176.912 21.1077 176.604 21.2355 176.325C21.3672 176.042 21.5511 175.796 21.7874 175.587C22.0275 175.378 22.3103 175.217 22.6356 175.105C22.9648 174.989 23.3269 174.931 23.722 174.931C24.241 174.931 24.7038 175.031 25.1105 175.233C25.5171 175.43 25.8367 175.703 26.069 176.052C26.3053 176.4 26.4234 176.799 26.4234 177.249ZM25.3428 177.225C25.3428 176.912 25.2751 176.635 25.1395 176.395C25.004 176.151 24.8142 175.961 24.5702 175.825C24.3262 175.69 24.0434 175.622 23.722 175.622C23.3928 175.622 23.1081 175.69 22.868 175.825C22.6317 175.961 22.4478 176.151 22.3161 176.395C22.1844 176.635 22.1185 176.912 22.1185 177.225C22.1185 177.551 22.1825 177.83 22.3103 178.062C22.4419 178.29 22.6279 178.467 22.868 178.591C23.112 178.711 23.4005 178.771 23.7336 178.771C24.0667 178.771 24.3533 178.711 24.5934 178.591C24.8335 178.467 25.0175 178.29 25.1453 178.062C25.277 177.83 25.3428 177.551 25.3428 177.225ZM26.2259 173.281C26.2259 173.691 26.1174 174.061 25.9006 174.39C25.6837 174.72 25.3874 174.979 25.0117 175.169C24.636 175.359 24.21 175.453 23.7336 175.453C23.2495 175.453 22.8176 175.359 22.4381 175.169C22.0624 174.979 21.768 174.72 21.555 174.39C21.342 174.061 21.2355 173.691 21.2355 173.281C21.2355 172.789 21.342 172.371 21.555 172.026C21.7719 171.681 22.0682 171.418 22.4439 171.236C22.8196 171.054 23.2475 170.963 23.7278 170.963C24.2119 170.963 24.6418 171.054 25.0175 171.236C25.3932 171.418 25.6875 171.681 25.9006 172.026C26.1174 172.371 26.2259 172.789 26.2259 173.281ZM25.1511 173.298C25.1511 173.015 25.0911 172.766 24.971 172.549C24.851 172.332 24.6844 172.161 24.4714 172.037C24.2584 171.91 24.0105 171.846 23.7278 171.846C23.4451 171.846 23.1972 171.906 22.9842 172.026C22.775 172.142 22.6104 172.309 22.4904 172.525C22.3742 172.742 22.3161 173 22.3161 173.298C22.3161 173.589 22.3742 173.842 22.4904 174.059C22.6104 174.276 22.777 174.445 22.99 174.565C23.203 174.685 23.4509 174.745 23.7336 174.745C24.0163 174.745 24.2623 174.685 24.4714 174.565C24.6844 174.445 24.851 174.276 24.971 174.059C25.0911 173.842 25.1511 173.589 25.1511 173.298Z" fill="black"/>
<rect width="38.6683" height="38.6683" transform="translate(39.6621 155.64)" fill="black" fill-opacity="0.05"/>
<path d="M56.4789 171.032V179.538H55.4041V172.374L53.2371 173.165V172.194L56.3104 171.032H56.4789ZM60.8272 178.637H60.9376C61.5572 178.637 62.0607 178.55 62.448 178.376C62.8353 178.201 63.1336 177.967 63.3427 177.673C63.5519 177.378 63.6952 177.047 63.7726 176.679C63.8501 176.307 63.8888 175.926 63.8888 175.535V174.239C63.8888 173.856 63.8443 173.515 63.7552 173.217C63.67 172.919 63.5499 172.669 63.395 172.467C63.244 172.266 63.0716 172.113 62.878 172.008C62.6843 171.904 62.479 171.852 62.2621 171.852C62.0143 171.852 61.7916 171.902 61.594 172.003C61.4004 172.099 61.2358 172.237 61.1002 172.415C60.9685 172.593 60.8679 172.802 60.7981 173.043C60.7284 173.283 60.6936 173.544 60.6936 173.827C60.6936 174.079 60.7245 174.323 60.7865 174.559C60.8485 174.795 60.9434 175.008 61.0712 175.198C61.199 175.388 61.3578 175.539 61.5476 175.651C61.7412 175.759 61.9678 175.814 62.2273 175.814C62.4674 175.814 62.692 175.767 62.9012 175.674C63.1142 175.577 63.302 175.448 63.4647 175.285C63.6313 175.118 63.7629 174.931 63.8598 174.721C63.9605 174.512 64.0186 174.294 64.0341 174.065H64.5453C64.5453 174.386 64.4814 174.704 64.3536 175.018C64.2296 175.328 64.0554 175.61 63.8307 175.866C63.6061 176.122 63.3427 176.327 63.0406 176.482C62.7385 176.633 62.4093 176.708 62.053 176.708C61.6347 176.708 61.2726 176.627 60.9666 176.464C60.6606 176.302 60.4089 176.085 60.2114 175.814C60.0177 175.543 59.8725 175.24 59.7757 174.907C59.6827 174.57 59.6362 174.23 59.6362 173.885C59.6362 173.482 59.6924 173.104 59.8047 172.752C59.917 172.4 60.0836 172.09 60.3043 171.823C60.5251 171.551 60.7981 171.34 61.1235 171.189C61.4527 171.038 61.8322 170.963 62.2621 170.963C62.7463 170.963 63.1587 171.06 63.4996 171.253C63.8404 171.447 64.1173 171.706 64.3303 172.032C64.5472 172.357 64.706 172.723 64.8067 173.13C64.9074 173.536 64.9578 173.955 64.9578 174.385V174.774C64.9578 175.211 64.9287 175.657 64.8706 176.11C64.8164 176.559 64.7099 176.989 64.5511 177.4C64.3962 177.81 64.1696 178.178 63.8714 178.503C63.5732 178.825 63.1839 179.081 62.7037 179.27C62.2273 179.456 61.6386 179.549 60.9376 179.549H60.8272V178.637Z" fill="black"/>
<rect width="38.6683" height="38.6683" transform="translate(78.3311 155.64)" fill="black" fill-opacity="0.05"/>
<path d="M97.1579 178.655V179.538H91.6214V178.765L94.3926 175.68C94.7334 175.301 94.9968 174.979 95.1827 174.716C95.3724 174.448 95.5041 174.21 95.5777 174.001C95.6552 173.788 95.6939 173.571 95.6939 173.35C95.6939 173.072 95.6358 172.82 95.5196 172.595C95.4073 172.367 95.2408 172.185 95.02 172.049C94.7992 171.914 94.532 171.846 94.2183 171.846C93.8426 171.846 93.5289 171.919 93.2771 172.067C93.0293 172.21 92.8434 172.411 92.7194 172.671C92.5955 172.93 92.5335 173.228 92.5335 173.565H91.4587C91.4587 173.089 91.5633 172.653 91.7725 172.258C91.9816 171.863 92.2914 171.549 92.702 171.317C93.1125 171.081 93.618 170.963 94.2183 170.963C94.7528 170.963 95.2098 171.058 95.5893 171.247C95.9689 171.433 96.2594 171.697 96.4608 172.037C96.666 172.374 96.7687 172.769 96.7687 173.223C96.7687 173.47 96.7261 173.722 96.6409 173.978C96.5595 174.23 96.4453 174.481 96.2981 174.733C96.1548 174.985 95.9863 175.233 95.7927 175.477C95.6029 175.721 95.3996 175.961 95.1827 176.197L92.9169 178.655H97.1579ZM103.737 174.634V175.924C103.737 176.617 103.675 177.202 103.551 177.679C103.427 178.155 103.249 178.538 103.017 178.829C102.784 179.119 102.504 179.33 102.174 179.462C101.849 179.59 101.481 179.654 101.071 179.654C100.745 179.654 100.445 179.613 100.17 179.532C99.8951 179.45 99.6472 179.321 99.4264 179.143C99.2095 178.961 99.0236 178.724 98.8687 178.434C98.7138 178.143 98.5957 177.791 98.5143 177.376C98.433 176.962 98.3923 176.478 98.3923 175.924V174.634C98.3923 173.941 98.4543 173.36 98.5782 172.891C98.706 172.423 98.8861 172.047 99.1185 171.764C99.3509 171.478 99.6297 171.273 99.9551 171.149C100.284 171.025 100.652 170.963 101.059 170.963C101.388 170.963 101.69 171.003 101.965 171.085C102.244 171.162 102.492 171.288 102.709 171.462C102.926 171.633 103.11 171.861 103.261 172.148C103.416 172.431 103.534 172.777 103.615 173.188C103.696 173.598 103.737 174.081 103.737 174.634ZM102.657 176.098V174.454C102.657 174.075 102.633 173.742 102.587 173.455C102.544 173.165 102.48 172.917 102.395 172.711C102.31 172.506 102.201 172.34 102.07 172.212C101.942 172.084 101.793 171.991 101.622 171.933C101.456 171.871 101.268 171.84 101.059 171.84C100.803 171.84 100.577 171.888 100.379 171.985C100.182 172.078 100.015 172.227 99.8796 172.433C99.7479 172.638 99.6472 172.907 99.5775 173.24C99.5077 173.573 99.4729 173.978 99.4729 174.454V176.098C99.4729 176.478 99.4942 176.813 99.5368 177.103C99.5833 177.394 99.6511 177.646 99.7401 177.859C99.8292 178.068 99.9377 178.24 100.065 178.376C100.193 178.511 100.34 178.612 100.507 178.678C100.677 178.74 100.865 178.771 101.071 178.771C101.334 178.771 101.564 178.72 101.762 178.62C101.959 178.519 102.124 178.362 102.256 178.149C102.391 177.932 102.492 177.655 102.558 177.318C102.624 176.978 102.657 176.571 102.657 176.098Z" fill="black"/>
<rect width="38.6683" height="38.6683" transform="translate(116.999 155.64)" fill="black" fill-opacity="0.05"/>
<path d="M135.827 178.655V179.538H130.29V178.765L133.062 175.68C133.402 175.301 133.666 174.979 133.852 174.716C134.041 174.448 134.173 174.21 134.247 174.001C134.324 173.788 134.363 173.571 134.363 173.35C134.363 173.072 134.305 172.82 134.189 172.595C134.076 172.367 133.91 172.185 133.689 172.049C133.468 171.914 133.201 171.846 132.887 171.846C132.512 171.846 132.198 171.919 131.946 172.067C131.698 172.21 131.512 172.411 131.388 172.671C131.264 172.93 131.202 173.228 131.202 173.565H130.128C130.128 173.089 130.232 172.653 130.441 172.258C130.651 171.863 130.96 171.549 131.371 171.317C131.781 171.081 132.287 170.963 132.887 170.963C133.422 170.963 133.879 171.058 134.258 171.247C134.638 171.433 134.928 171.697 135.13 172.037C135.335 172.374 135.438 172.769 135.438 173.223C135.438 173.47 135.395 173.722 135.31 173.978C135.228 174.23 135.114 174.481 134.967 174.733C134.824 174.985 134.655 175.233 134.462 175.477C134.272 175.721 134.068 175.961 133.852 176.197L131.586 178.655H135.827ZM140.628 171.032V179.538H139.554V172.374L137.387 173.165V172.194L140.46 171.032H140.628Z" fill="black"/>
<rect width="38.6683" height="38.6683" transform="translate(155.667 155.64)" fill="black" fill-opacity="0.05"/>
<path d="M174.494 178.655V179.538H168.957V178.765L171.729 175.68C172.069 175.301 172.333 174.979 172.519 174.716C172.708 174.448 172.84 174.21 172.914 174.001C172.991 173.788 173.03 173.571 173.03 173.35C173.03 173.072 172.972 172.82 172.856 172.595C172.743 172.367 172.577 172.185 172.356 172.049C172.135 171.914 171.868 171.846 171.554 171.846C171.179 171.846 170.865 171.919 170.613 172.067C170.365 172.21 170.179 172.411 170.055 172.671C169.931 172.93 169.869 173.228 169.869 173.565H168.795C168.795 173.089 168.899 172.653 169.108 172.258C169.318 171.863 169.627 171.549 170.038 171.317C170.448 171.081 170.954 170.963 171.554 170.963C172.089 170.963 172.546 171.058 172.925 171.247C173.305 171.433 173.595 171.697 173.797 172.037C174.002 172.374 174.105 172.769 174.105 173.223C174.105 173.47 174.062 173.722 173.977 173.978C173.895 174.23 173.781 174.481 173.634 174.733C173.491 174.985 173.322 175.233 173.129 175.477C172.939 175.721 172.735 175.961 172.519 176.197L170.253 178.655H174.494ZM181.305 178.655V179.538H175.769V178.765L178.54 175.68C178.881 175.301 179.144 174.979 179.33 174.716C179.52 174.448 179.652 174.21 179.725 174.001C179.803 173.788 179.841 173.571 179.841 173.35C179.841 173.072 179.783 172.82 179.667 172.595C179.555 172.367 179.388 172.185 179.168 172.049C178.947 171.914 178.68 171.846 178.366 171.846C177.99 171.846 177.676 171.919 177.425 172.067C177.177 172.21 176.991 172.411 176.867 172.671C176.743 172.93 176.681 173.228 176.681 173.565H175.606C175.606 173.089 175.711 172.653 175.92 172.258C176.129 171.863 176.439 171.549 176.849 171.317C177.26 171.081 177.765 170.963 178.366 170.963C178.9 170.963 179.357 171.058 179.737 171.247C180.116 171.433 180.407 171.697 180.608 172.037C180.814 172.374 180.916 172.769 180.916 173.223C180.916 173.47 180.874 173.722 180.788 173.978C180.707 174.23 180.593 174.481 180.446 174.733C180.302 174.985 180.134 175.233 179.94 175.477C179.75 175.721 179.547 175.961 179.33 176.197L177.064 178.655H181.305Z" fill="black"/>
<rect width="38.6683" height="38.6683" transform="translate(194.336 155.64)" fill="black" fill-opacity="0.05"/>
<path d="M213.163 178.655V179.538H207.626V178.765L210.397 175.68C210.738 175.301 211.002 174.979 211.188 174.716C211.377 174.448 211.509 174.21 211.583 174.001C211.66 173.788 211.699 173.571 211.699 173.35C211.699 173.072 211.641 172.82 211.524 172.595C211.412 172.367 211.246 172.185 211.025 172.049C210.804 171.914 210.537 171.846 210.223 171.846C209.847 171.846 209.534 171.919 209.282 172.067C209.034 172.21 208.848 172.411 208.724 172.671C208.6 172.93 208.538 173.228 208.538 173.565H207.464C207.464 173.089 207.568 172.653 207.777 172.258C207.986 171.863 208.296 171.549 208.707 171.317C209.117 171.081 209.623 170.963 210.223 170.963C210.758 170.963 211.215 171.058 211.594 171.247C211.974 171.433 212.264 171.697 212.466 172.037C212.671 172.374 212.774 172.769 212.774 173.223C212.774 173.47 212.731 173.722 212.646 173.978C212.564 174.23 212.45 174.481 212.303 174.733C212.16 174.985 211.991 175.233 211.798 175.477C211.608 175.721 211.404 175.961 211.188 176.197L208.922 178.655H213.163ZM216.001 174.78H216.767C217.143 174.78 217.453 174.718 217.697 174.594C217.945 174.466 218.129 174.294 218.249 174.077C218.373 173.856 218.435 173.608 218.435 173.333C218.435 173.008 218.381 172.735 218.272 172.514C218.164 172.293 218.001 172.127 217.784 172.014C217.567 171.902 217.292 171.846 216.959 171.846C216.657 171.846 216.39 171.906 216.157 172.026C215.929 172.142 215.749 172.309 215.617 172.525C215.489 172.742 215.425 172.998 215.425 173.292H214.351C214.351 172.862 214.459 172.471 214.676 172.119C214.893 171.766 215.197 171.486 215.588 171.276C215.983 171.067 216.44 170.963 216.959 170.963C217.47 170.963 217.918 171.054 218.301 171.236C218.685 171.414 218.983 171.681 219.196 172.037C219.409 172.39 219.515 172.83 219.515 173.356C219.515 173.569 219.465 173.798 219.364 174.042C219.268 174.282 219.115 174.507 218.905 174.716C218.7 174.925 218.433 175.097 218.104 175.233C217.774 175.364 217.379 175.43 216.919 175.43H216.001V174.78ZM216.001 175.663V175.018H216.919C217.457 175.018 217.902 175.082 218.255 175.209C218.607 175.337 218.884 175.508 219.085 175.721C219.291 175.934 219.434 176.168 219.515 176.424C219.601 176.675 219.643 176.927 219.643 177.179C219.643 177.574 219.575 177.924 219.44 178.23C219.308 178.536 219.12 178.796 218.876 179.009C218.636 179.222 218.353 179.383 218.028 179.491C217.703 179.6 217.348 179.654 216.965 179.654C216.597 179.654 216.25 179.602 215.925 179.497C215.604 179.392 215.319 179.241 215.071 179.044C214.823 178.842 214.63 178.596 214.49 178.306C214.351 178.012 214.281 177.677 214.281 177.301H215.356C215.356 177.595 215.42 177.853 215.547 178.074C215.679 178.294 215.865 178.467 216.105 178.591C216.349 178.711 216.636 178.771 216.965 178.771C217.294 178.771 217.577 178.715 217.813 178.602C218.053 178.486 218.237 178.312 218.365 178.079C218.497 177.847 218.563 177.555 218.563 177.202C218.563 176.85 218.489 176.561 218.342 176.337C218.195 176.108 217.986 175.94 217.714 175.831C217.447 175.719 217.132 175.663 216.767 175.663H216.001Z" fill="black"/>
<rect width="38.6683" height="38.6683" transform="translate(233.004 155.64)" fill="#2EA66D"/>
<path d="M251.832 178.655V179.538H246.295V178.765L249.066 175.68C249.407 175.301 249.671 174.979 249.856 174.716C250.046 174.448 250.178 174.21 250.252 174.001C250.329 173.788 250.368 173.571 250.368 173.35C250.368 173.072 250.31 172.82 250.193 172.595C250.081 172.367 249.915 172.185 249.694 172.049C249.473 171.914 249.206 171.846 248.892 171.846C248.516 171.846 248.203 171.919 247.951 172.067C247.703 172.21 247.517 172.411 247.393 172.671C247.269 172.93 247.207 173.228 247.207 173.565H246.133C246.133 173.089 246.237 172.653 246.446 172.258C246.655 171.863 246.965 171.549 247.376 171.317C247.786 171.081 248.292 170.963 248.892 170.963C249.427 170.963 249.884 171.058 250.263 171.247C250.643 171.433 250.933 171.697 251.135 172.037C251.34 172.374 251.442 172.769 251.442 173.223C251.442 173.47 251.4 173.722 251.315 173.978C251.233 174.23 251.119 174.481 250.972 174.733C250.829 174.985 250.66 175.233 250.466 175.477C250.277 175.721 250.073 175.961 249.856 176.197L247.591 178.655H251.832ZM258.818 176.691V177.574H252.706V176.941L256.494 171.079H257.371L256.43 172.775L253.926 176.691H258.818ZM257.638 171.079V179.538H256.563V171.079H257.638Z" fill="black"/>
<rect width="38.6683" height="38.6683" transform="translate(0.994141 194.308)" fill="black" fill-opacity="0.38"/>
<path d="M19.821 217.323V218.206H14.2845V217.433L17.0556 214.348C17.3965 213.969 17.6598 213.647 17.8457 213.384C18.0355 213.117 18.1672 212.878 18.2408 212.669C18.3183 212.456 18.357 212.239 18.357 212.019C18.357 211.74 18.2989 211.488 18.1827 211.263C18.0704 211.035 17.9038 210.853 17.6831 210.717C17.4623 210.582 17.1951 210.514 16.8814 210.514C16.5057 210.514 16.192 210.588 15.9402 210.735C15.6923 210.878 15.5064 211.079 15.3825 211.339C15.2586 211.598 15.1966 211.897 15.1966 212.234H14.1218C14.1218 211.757 14.2264 211.322 14.4355 210.926C14.6447 210.531 14.9545 210.218 15.3651 209.985C15.7756 209.749 16.281 209.631 16.8814 209.631C17.4158 209.631 17.8729 209.726 18.2524 209.916C18.632 210.101 18.9224 210.365 19.1238 210.706C19.3291 211.043 19.4318 211.438 19.4318 211.891C19.4318 212.139 19.3891 212.39 19.3039 212.646C19.2226 212.898 19.1084 213.15 18.9612 213.401C18.8179 213.653 18.6494 213.901 18.4557 214.145C18.266 214.389 18.0626 214.629 17.8457 214.865L15.58 217.323H19.821ZM22.4497 214.18L21.5899 213.959L22.014 209.747H26.3537V210.741H22.9261L22.6705 213.041C22.8254 212.952 23.021 212.869 23.2572 212.791C23.4973 212.714 23.7723 212.675 24.0822 212.675C24.4733 212.675 24.8239 212.743 25.1337 212.878C25.4435 213.01 25.7069 213.2 25.9238 213.448C26.1446 213.696 26.313 213.994 26.4292 214.342C26.5454 214.691 26.6035 215.08 26.6035 215.51C26.6035 215.917 26.5474 216.291 26.435 216.631C26.3266 216.972 26.162 217.27 25.9412 217.526C25.7205 217.778 25.4416 217.973 25.1047 218.113C24.7716 218.252 24.3785 218.322 23.9253 218.322C23.5845 218.322 23.2611 218.276 22.9551 218.183C22.653 218.086 22.3819 217.941 22.1418 217.747C21.9055 217.549 21.7119 217.305 21.5608 217.015C21.4137 216.721 21.3207 216.376 21.282 215.981H22.3045C22.3509 216.298 22.4439 216.566 22.5833 216.782C22.7227 216.999 22.9048 217.164 23.1294 217.276C23.3579 217.385 23.6232 217.439 23.9253 217.439C24.1809 217.439 24.4075 217.394 24.605 217.305C24.8026 217.216 24.9691 217.088 25.1047 216.922C25.2402 216.755 25.3428 216.554 25.4126 216.318C25.4861 216.081 25.5229 215.816 25.5229 215.522C25.5229 215.255 25.4861 215.007 25.4126 214.778C25.339 214.55 25.2286 214.35 25.0814 214.18C24.9381 214.009 24.7619 213.878 24.5527 213.785C24.3436 213.688 24.1035 213.64 23.8324 213.64C23.4722 213.64 23.1991 213.688 23.0132 213.785C22.8312 213.882 22.6433 214.013 22.4497 214.18Z" fill="black"/>
<rect width="38.6683" height="38.6683" transform="translate(39.6621 194.308)" fill="black" fill-opacity="0.05"/>
<path d="M58.489 217.323V218.206H52.9525V217.433L55.7236 214.348C56.0644 213.969 56.3278 213.647 56.5137 213.384C56.7035 213.117 56.8352 212.878 56.9088 212.669C56.9862 212.456 57.025 212.239 57.025 212.019C57.025 211.74 56.9669 211.488 56.8507 211.263C56.7384 211.035 56.5718 210.853 56.351 210.717C56.1303 210.582 55.863 210.514 55.5493 210.514C55.1736 210.514 54.8599 210.588 54.6082 210.735C54.3603 210.878 54.1744 211.079 54.0505 211.339C53.9265 211.598 53.8646 211.897 53.8646 212.234H52.7898C52.7898 211.757 52.8944 211.322 53.1035 210.926C53.3127 210.531 53.6225 210.218 54.033 209.985C54.4436 209.749 54.949 209.631 55.5493 209.631C56.0838 209.631 56.5408 209.726 56.9204 209.916C57.2999 210.101 57.5904 210.365 57.7918 210.706C57.9971 211.043 58.0997 211.438 58.0997 211.891C58.0997 212.139 58.0571 212.39 57.9719 212.646C57.8906 212.898 57.7763 213.15 57.6291 213.401C57.4858 213.653 57.3174 213.901 57.1237 214.145C56.9339 214.389 56.7306 214.629 56.5137 214.865L54.248 217.323H58.489ZM63.883 209.735H63.976V210.648H63.883C63.3137 210.648 62.8373 210.741 62.4539 210.926C62.0704 211.108 61.7664 211.354 61.5418 211.664C61.3171 211.97 61.1545 212.315 61.0538 212.698C60.9569 213.082 60.9085 213.471 60.9085 213.866V215.109C60.9085 215.485 60.9531 215.818 61.0421 216.109C61.1312 216.395 61.2532 216.637 61.4081 216.835C61.5631 217.032 61.7373 217.181 61.931 217.282C62.1285 217.383 62.3338 217.433 62.5468 217.433C62.7947 217.433 63.0154 217.387 63.2091 217.294C63.4027 217.197 63.5654 217.063 63.6971 216.893C63.8327 216.719 63.9353 216.513 64.005 216.277C64.0747 216.041 64.1096 215.781 64.1096 215.499C64.1096 215.247 64.0786 215.005 64.0166 214.772C63.9547 214.536 63.8598 214.327 63.732 214.145C63.6041 213.959 63.4434 213.814 63.2498 213.709C63.06 213.601 62.8334 213.547 62.57 213.547C62.2718 213.547 61.993 213.62 61.7335 213.767C61.4779 213.911 61.2668 214.1 61.1002 214.337C60.9376 214.569 60.8446 214.823 60.8214 215.098L60.252 215.092C60.3063 214.658 60.407 214.288 60.5541 213.982C60.7052 213.672 60.8911 213.421 61.1119 213.227C61.3365 213.03 61.5863 212.886 61.8613 212.797C62.1401 212.704 62.4345 212.658 62.7443 212.658C63.1665 212.658 63.5306 212.737 63.8365 212.896C64.1425 213.055 64.3942 213.268 64.5918 213.535C64.7893 213.798 64.9345 214.097 65.0275 214.43C65.1243 214.759 65.1727 215.098 65.1727 215.446C65.1727 215.845 65.1166 216.219 65.0042 216.568C64.8919 216.916 64.7234 217.222 64.4988 217.485C64.2781 217.749 64.005 217.954 63.6797 218.101C63.3543 218.248 62.9767 218.322 62.5468 218.322C62.0898 218.322 61.6909 218.229 61.35 218.043C61.0092 217.853 60.7265 217.602 60.5018 217.288C60.2772 216.974 60.1087 216.626 59.9964 216.242C59.8841 215.859 59.8279 215.47 59.8279 215.074V214.569C59.8279 213.973 59.888 213.388 60.008 212.815C60.1281 212.241 60.3353 211.722 60.6297 211.258C60.9279 210.793 61.3404 210.423 61.8671 210.148C62.3938 209.873 63.0658 209.735 63.883 209.735Z" fill="black"/>
<rect width="38.6683" height="38.6683" transform="translate(78.3311 194.308)" fill="black" fill-opacity="0.05"/>
<path d="M97.1579 217.323V218.206H91.6214V217.433L94.3926 214.348C94.7334 213.969 94.9968 213.647 95.1827 213.384C95.3724 213.117 95.5041 212.878 95.5777 212.669C95.6552 212.456 95.6939 212.239 95.6939 212.019C95.6939 211.74 95.6358 211.488 95.5196 211.263C95.4073 211.035 95.2408 210.853 95.02 210.717C94.7992 210.582 94.532 210.514 94.2183 210.514C93.8426 210.514 93.5289 210.588 93.2771 210.735C93.0293 210.878 92.8434 211.079 92.7194 211.339C92.5955 211.598 92.5335 211.897 92.5335 212.234H91.4587C91.4587 211.757 91.5633 211.322 91.7725 210.926C91.9816 210.531 92.2914 210.218 92.702 209.985C93.1125 209.749 93.618 209.631 94.2183 209.631C94.7528 209.631 95.2098 209.726 95.5893 209.916C95.9689 210.101 96.2594 210.365 96.4608 210.706C96.666 211.043 96.7687 211.438 96.7687 211.891C96.7687 212.139 96.7261 212.39 96.6409 212.646C96.5595 212.898 96.4453 213.15 96.2981 213.401C96.1548 213.653 95.9863 213.901 95.7927 214.145C95.6029 214.389 95.3996 214.629 95.1827 214.865L92.9169 217.323H97.1579ZM103.894 209.747V210.351L100.391 218.206H99.2579L102.755 210.63H98.1774V209.747H103.894Z" fill="black"/>
<rect width="38.6683" height="38.6683" transform="translate(116.999 194.308)" fill="black" fill-opacity="0.05"/>
<path d="M135.827 217.323V218.206H130.29V217.433L133.062 214.348C133.402 213.969 133.666 213.647 133.852 213.384C134.041 213.117 134.173 212.878 134.247 212.669C134.324 212.456 134.363 212.239 134.363 212.019C134.363 211.74 134.305 211.488 134.189 211.263C134.076 211.035 133.91 210.853 133.689 210.717C133.468 210.582 133.201 210.514 132.887 210.514C132.512 210.514 132.198 210.588 131.946 210.735C131.698 210.878 131.512 211.079 131.388 211.339C131.264 211.598 131.202 211.897 131.202 212.234H130.128C130.128 211.757 130.232 211.322 130.441 210.926C130.651 210.531 130.96 210.218 131.371 209.985C131.781 209.749 132.287 209.631 132.887 209.631C133.422 209.631 133.879 209.726 134.258 209.916C134.638 210.101 134.928 210.365 135.13 210.706C135.335 211.043 135.438 211.438 135.438 211.891C135.438 212.139 135.395 212.39 135.31 212.646C135.228 212.898 135.114 213.15 134.967 213.401C134.824 213.653 134.655 213.901 134.462 214.145C134.272 214.389 134.068 214.629 133.852 214.865L131.586 217.323H135.827ZM142.429 215.917C142.429 216.432 142.309 216.87 142.069 217.23C141.833 217.586 141.511 217.857 141.105 218.043C140.702 218.229 140.247 218.322 139.739 218.322C139.232 218.322 138.775 218.229 138.368 218.043C137.962 217.857 137.64 217.586 137.404 217.23C137.168 216.87 137.05 216.432 137.05 215.917C137.05 215.58 137.114 215.272 137.241 214.993C137.373 214.71 137.557 214.464 137.793 214.255C138.033 214.046 138.316 213.885 138.641 213.773C138.971 213.657 139.333 213.599 139.728 213.599C140.247 213.599 140.71 213.7 141.116 213.901C141.523 214.098 141.843 214.372 142.075 214.72C142.311 215.069 142.429 215.468 142.429 215.917ZM141.349 215.894C141.349 215.58 141.281 215.303 141.145 215.063C141.01 214.819 140.82 214.629 140.576 214.494C140.332 214.358 140.049 214.29 139.728 214.29C139.399 214.29 139.114 214.358 138.874 214.494C138.638 214.629 138.454 214.819 138.322 215.063C138.19 215.303 138.124 215.58 138.124 215.894C138.124 216.219 138.188 216.498 138.316 216.73C138.448 216.959 138.634 217.135 138.874 217.259C139.118 217.379 139.406 217.439 139.739 217.439C140.073 217.439 140.359 217.379 140.599 217.259C140.839 217.135 141.023 216.959 141.151 216.73C141.283 216.498 141.349 216.219 141.349 215.894ZM142.232 211.949C142.232 212.359 142.123 212.729 141.906 213.059C141.69 213.388 141.393 213.647 141.018 213.837C140.642 214.027 140.216 214.122 139.739 214.122C139.255 214.122 138.823 214.027 138.444 213.837C138.068 213.647 137.774 213.388 137.561 213.059C137.348 212.729 137.241 212.359 137.241 211.949C137.241 211.457 137.348 211.039 137.561 210.694C137.778 210.349 138.074 210.086 138.45 209.904C138.825 209.722 139.253 209.631 139.734 209.631C140.218 209.631 140.648 209.722 141.023 209.904C141.399 210.086 141.693 210.349 141.906 210.694C142.123 211.039 142.232 211.457 142.232 211.949ZM141.157 211.966C141.157 211.684 141.097 211.434 140.977 211.217C140.857 211 140.69 210.83 140.477 210.706C140.264 210.578 140.016 210.514 139.734 210.514C139.451 210.514 139.203 210.574 138.99 210.694C138.781 210.81 138.616 210.977 138.496 211.194C138.38 211.411 138.322 211.668 138.322 211.966C138.322 212.257 138.38 212.511 138.496 212.727C138.616 212.944 138.783 213.113 138.996 213.233C139.209 213.353 139.457 213.413 139.739 213.413C140.022 213.413 140.268 213.353 140.477 213.233C140.69 213.113 140.857 212.944 140.977 212.727C141.097 212.511 141.157 212.257 141.157 211.966Z" fill="black"/>
<rect width="38.6683" height="38.6683" transform="translate(155.667 194.308)" fill="black" fill-opacity="0.05"/>
<path d="M174.494 217.323V218.206H168.957V217.433L171.729 214.348C172.069 213.969 172.333 213.647 172.519 213.384C172.708 213.117 172.84 212.878 172.914 212.669C172.991 212.456 173.03 212.239 173.03 212.019C173.03 211.74 172.972 211.488 172.856 211.263C172.743 211.035 172.577 210.853 172.356 210.717C172.135 210.582 171.868 210.514 171.554 210.514C171.179 210.514 170.865 210.588 170.613 210.735C170.365 210.878 170.179 211.079 170.055 211.339C169.931 211.598 169.869 211.897 169.869 212.234H168.795C168.795 211.757 168.899 211.322 169.108 210.926C169.318 210.531 169.627 210.218 170.038 209.985C170.448 209.749 170.954 209.631 171.554 209.631C172.089 209.631 172.546 209.726 172.925 209.916C173.305 210.101 173.595 210.365 173.797 210.706C174.002 211.043 174.105 211.438 174.105 211.891C174.105 212.139 174.062 212.39 173.977 212.646C173.895 212.898 173.781 213.15 173.634 213.401C173.491 213.653 173.322 213.901 173.129 214.145C172.939 214.389 172.735 214.629 172.519 214.865L170.253 217.323H174.494ZM176.832 217.305H176.942C177.562 217.305 178.066 217.218 178.453 217.044C178.84 216.87 179.138 216.635 179.348 216.341C179.557 216.047 179.7 215.715 179.778 215.348C179.855 214.976 179.894 214.594 179.894 214.203V212.908C179.894 212.524 179.849 212.183 179.76 211.885C179.675 211.587 179.555 211.337 179.4 211.136C179.249 210.934 179.076 210.781 178.883 210.677C178.689 210.572 178.484 210.52 178.267 210.52C178.019 210.52 177.796 210.57 177.599 210.671C177.405 210.768 177.241 210.905 177.105 211.083C176.973 211.261 176.873 211.471 176.803 211.711C176.733 211.951 176.698 212.212 176.698 212.495C176.698 212.747 176.729 212.991 176.791 213.227C176.853 213.463 176.948 213.676 177.076 213.866C177.204 214.056 177.363 214.207 177.552 214.319C177.746 214.428 177.973 214.482 178.232 214.482C178.472 214.482 178.697 214.435 178.906 214.342C179.119 214.246 179.307 214.116 179.47 213.953C179.636 213.787 179.768 213.599 179.865 213.39C179.965 213.181 180.023 212.962 180.039 212.733H180.55C180.55 213.055 180.486 213.372 180.358 213.686C180.235 213.996 180.06 214.279 179.836 214.534C179.611 214.79 179.348 214.995 179.046 215.15C178.743 215.301 178.414 215.377 178.058 215.377C177.64 215.377 177.277 215.295 176.971 215.133C176.666 214.97 176.414 214.753 176.216 214.482C176.023 214.211 175.877 213.909 175.781 213.576C175.688 213.239 175.641 212.898 175.641 212.553C175.641 212.15 175.697 211.773 175.81 211.42C175.922 211.068 176.088 210.758 176.309 210.491C176.53 210.22 176.803 210.009 177.128 209.857C177.458 209.706 177.837 209.631 178.267 209.631C178.751 209.631 179.164 209.728 179.504 209.921C179.845 210.115 180.122 210.375 180.335 210.7C180.552 211.025 180.711 211.391 180.812 211.798C180.912 212.205 180.963 212.623 180.963 213.053V213.442C180.963 213.88 180.934 214.325 180.876 214.778C180.821 215.227 180.715 215.657 180.556 216.068C180.401 216.478 180.174 216.846 179.876 217.172C179.578 217.493 179.189 217.749 178.709 217.939C178.232 218.124 177.643 218.217 176.942 218.217H176.832V217.305Z" fill="black"/>
<rect width="38.6683" height="38.6683" transform="translate(194.336 194.308)" fill="black" fill-opacity="0.05"/>
<path d="M209.189 213.448H209.956C210.332 213.448 210.641 213.386 210.885 213.262C211.133 213.134 211.317 212.962 211.437 212.745C211.561 212.524 211.623 212.276 211.623 212.001C211.623 211.676 211.569 211.403 211.461 211.182C211.352 210.961 211.189 210.795 210.973 210.682C210.756 210.57 210.481 210.514 210.148 210.514C209.846 210.514 209.578 210.574 209.346 210.694C209.117 210.81 208.937 210.977 208.806 211.194C208.678 211.411 208.614 211.666 208.614 211.961H207.539C207.539 211.531 207.648 211.139 207.864 210.787C208.081 210.435 208.385 210.154 208.777 209.945C209.172 209.735 209.629 209.631 210.148 209.631C210.659 209.631 211.106 209.722 211.49 209.904C211.873 210.082 212.171 210.349 212.384 210.706C212.597 211.058 212.704 211.498 212.704 212.024C212.704 212.237 212.653 212.466 212.553 212.71C212.456 212.95 212.303 213.175 212.094 213.384C211.889 213.593 211.621 213.765 211.292 213.901C210.963 214.033 210.568 214.098 210.107 214.098H209.189V213.448ZM209.189 214.331V213.686H210.107C210.645 213.686 211.091 213.75 211.443 213.878C211.796 214.006 212.073 214.176 212.274 214.389C212.479 214.602 212.623 214.836 212.704 215.092C212.789 215.344 212.832 215.595 212.832 215.847C212.832 216.242 212.764 216.593 212.628 216.899C212.497 217.205 212.309 217.464 212.065 217.677C211.825 217.89 211.542 218.051 211.217 218.159C210.891 218.268 210.537 218.322 210.153 218.322C209.786 218.322 209.439 218.27 209.114 218.165C208.792 218.061 208.507 217.91 208.26 217.712C208.012 217.511 207.818 217.265 207.679 216.974C207.539 216.68 207.469 216.345 207.469 215.969H208.544C208.544 216.263 208.608 216.521 208.736 216.742C208.868 216.963 209.054 217.135 209.294 217.259C209.538 217.379 209.824 217.439 210.153 217.439C210.483 217.439 210.765 217.383 211.002 217.27C211.242 217.154 211.426 216.98 211.554 216.748C211.685 216.515 211.751 216.223 211.751 215.87C211.751 215.518 211.677 215.229 211.53 215.005C211.383 214.776 211.174 214.608 210.903 214.499C210.636 214.387 210.32 214.331 209.956 214.331H209.189ZM219.742 213.303V214.592C219.742 215.286 219.68 215.87 219.556 216.347C219.432 216.823 219.254 217.207 219.022 217.497C218.789 217.788 218.508 217.999 218.179 218.13C217.854 218.258 217.486 218.322 217.075 218.322C216.75 218.322 216.45 218.281 216.175 218.2C215.9 218.119 215.652 217.989 215.431 217.811C215.214 217.629 215.029 217.392 214.874 217.102C214.719 216.812 214.601 216.459 214.519 216.045C214.438 215.63 214.397 215.146 214.397 214.592V213.303C214.397 212.609 214.459 212.028 214.583 211.56C214.711 211.091 214.891 210.715 215.123 210.433C215.356 210.146 215.635 209.941 215.96 209.817C216.289 209.693 216.657 209.631 217.064 209.631C217.393 209.631 217.695 209.672 217.97 209.753C218.249 209.83 218.497 209.956 218.714 210.131C218.931 210.301 219.115 210.529 219.266 210.816C219.421 211.099 219.539 211.445 219.62 211.856C219.701 212.267 219.742 212.749 219.742 213.303ZM218.661 214.767V213.122C218.661 212.743 218.638 212.41 218.592 212.123C218.549 211.833 218.485 211.585 218.4 211.38C218.315 211.174 218.206 211.008 218.075 210.88C217.947 210.752 217.798 210.659 217.627 210.601C217.461 210.539 217.273 210.508 217.064 210.508C216.808 210.508 216.582 210.557 216.384 210.653C216.187 210.746 216.02 210.895 215.884 211.101C215.753 211.306 215.652 211.575 215.582 211.908C215.513 212.241 215.478 212.646 215.478 213.122V214.767C215.478 215.146 215.499 215.481 215.542 215.772C215.588 216.062 215.656 216.314 215.745 216.527C215.834 216.736 215.943 216.908 216.07 217.044C216.198 217.179 216.345 217.28 216.512 217.346C216.682 217.408 216.87 217.439 217.075 217.439C217.339 217.439 217.569 217.389 217.767 217.288C217.964 217.187 218.129 217.03 218.261 216.817C218.396 216.6 218.497 216.324 218.563 215.987C218.628 215.646 218.661 215.239 218.661 214.767Z" fill="black"/>
</g>
<defs>
<clipPath id="clip0_932_3242">
<rect x="0.994141" y="0.966309" width="270.678" height="270.678" rx="11.8979" fill="white"/>
</clipPath>
</defs>
</svg>
